<svg width="360" height="32" viewBox="0 0 360 32" fill="none" xmlns="http://www.w3.org/2000/svg">
<rect width="360" height="32" fill="white"/>
<path d="M18.2031 11.9688V20.5H17.0723V11.9688H18.2031ZM21.4197 15.5137V20.5H20.3357V14.1602H21.3611L21.4197 15.5137ZM21.1619 17.0898L20.7107 17.0723C20.7146 16.6387 20.7791 16.2383 20.9041 15.8711C21.0291 15.5 21.2048 15.1777 21.4314 14.9043C21.658 14.6309 21.9275 14.4199 22.24 14.2715C22.5564 14.1191 22.906 14.043 23.2888 14.043C23.6013 14.043 23.8826 14.0859 24.1326 14.1719C24.3826 14.2539 24.5955 14.3867 24.7713 14.5703C24.9509 14.7539 25.0877 14.9922 25.1814 15.2852C25.2752 15.5742 25.322 15.9277 25.322 16.3457V20.5H24.2322V16.334C24.2322 16.002 24.1834 15.7363 24.0857 15.5371C23.988 15.334 23.8455 15.1875 23.658 15.0977C23.4705 15.0039 23.24 14.957 22.9666 14.957C22.697 14.957 22.4509 15.0137 22.2283 15.127C22.0095 15.2402 21.8201 15.3965 21.6599 15.5957C21.5037 15.7949 21.3806 16.0234 21.2908 16.2812C21.2048 16.5352 21.1619 16.8047 21.1619 17.0898ZM28.3862 14.1602V20.5H27.2964V14.1602H28.3862ZM27.2144 12.4785C27.2144 12.3027 27.2671 12.1543 27.3726 12.0332C27.482 11.9121 27.6421 11.8516 27.853 11.8516C28.0601 11.8516 28.2183 11.9121 28.3277 12.0332C28.4409 12.1543 28.4976 12.3027 28.4976 12.4785C28.4976 12.6465 28.4409 12.791 28.3277 12.9121C28.2183 13.0293 28.0601 13.0879 27.853 13.0879C27.6421 13.0879 27.482 13.0293 27.3726 12.9121C27.2671 12.791 27.2144 12.6465 27.2144 12.4785ZM32.9036 19.7266C33.1614 19.7266 33.3997 19.6738 33.6184 19.5684C33.8372 19.4629 34.0169 19.3184 34.1575 19.1348C34.2981 18.9473 34.3782 18.7344 34.3977 18.4961H35.429C35.4095 18.8711 35.2825 19.2207 35.0481 19.5449C34.8177 19.8652 34.5149 20.125 34.1399 20.3242C33.7649 20.5195 33.3528 20.6172 32.9036 20.6172C32.427 20.6172 32.011 20.5332 31.6555 20.3652C31.304 20.1973 31.011 19.9668 30.7766 19.6738C30.5462 19.3809 30.3723 19.0449 30.2552 18.666C30.1419 18.2832 30.0852 17.8789 30.0852 17.4531V17.207C30.0852 16.7812 30.1419 16.3789 30.2552 16C30.3723 15.6172 30.5462 15.2793 30.7766 14.9863C31.011 14.6934 31.304 14.4629 31.6555 14.2949C32.011 14.127 32.427 14.043 32.9036 14.043C33.3997 14.043 33.8333 14.1445 34.2044 14.3477C34.5755 14.5469 34.8665 14.8203 35.0774 15.168C35.2923 15.5117 35.4095 15.9023 35.429 16.3398H34.3977C34.3782 16.0781 34.304 15.8418 34.1751 15.6309C34.0501 15.4199 33.8782 15.252 33.6595 15.127C33.4446 14.998 33.1927 14.9336 32.9036 14.9336C32.5716 14.9336 32.2923 15 32.0657 15.1328C31.843 15.2617 31.6653 15.4375 31.5325 15.6602C31.4036 15.8789 31.3098 16.123 31.2513 16.3926C31.1966 16.6582 31.1692 16.9297 31.1692 17.207V17.4531C31.1692 17.7305 31.1966 18.0039 31.2513 18.2734C31.3059 18.543 31.3977 18.7871 31.5266 19.0059C31.6595 19.2246 31.8372 19.4004 32.0598 19.5332C32.2864 19.6621 32.5677 19.7266 32.9036 19.7266ZM38.0655 14.1602V20.5H36.9756V14.1602H38.0655ZM36.8936 12.4785C36.8936 12.3027 36.9463 12.1543 37.0518 12.0332C37.1612 11.9121 37.3213 11.8516 37.5323 11.8516C37.7393 11.8516 37.8975 11.9121 38.0069 12.0332C38.1202 12.1543 38.1768 12.3027 38.1768 12.4785C38.1768 12.6465 38.1202 12.791 38.0069 12.9121C37.8975 13.0293 37.7393 13.0879 37.5323 13.0879C37.3213 13.0879 37.1612 13.0293 37.0518 12.9121C36.9463 12.791 36.8936 12.6465 36.8936 12.4785ZM39.7586 17.4004V17.2656C39.7586 16.8086 39.825 16.3848 39.9578 15.9941C40.0906 15.5996 40.282 15.2578 40.532 14.9688C40.782 14.6758 41.0848 14.4492 41.4402 14.2891C41.7957 14.125 42.1941 14.043 42.6355 14.043C43.0809 14.043 43.4813 14.125 43.8367 14.2891C44.1961 14.4492 44.5008 14.6758 44.7508 14.9688C45.0047 15.2578 45.198 15.5996 45.3309 15.9941C45.4637 16.3848 45.5301 16.8086 45.5301 17.2656V17.4004C45.5301 17.8574 45.4637 18.2812 45.3309 18.6719C45.198 19.0625 45.0047 19.4043 44.7508 19.6973C44.5008 19.9863 44.198 20.2129 43.8426 20.377C43.491 20.5371 43.0926 20.6172 42.6473 20.6172C42.202 20.6172 41.8016 20.5371 41.4461 20.377C41.0906 20.2129 40.7859 19.9863 40.532 19.6973C40.282 19.4043 40.0906 19.0625 39.9578 18.6719C39.825 18.2812 39.7586 17.8574 39.7586 17.4004ZM40.8426 17.2656V17.4004C40.8426 17.7168 40.8797 18.0156 40.9539 18.2969C41.0281 18.5742 41.1395 18.8203 41.2879 19.0352C41.4402 19.25 41.6297 19.4199 41.8563 19.5449C42.0828 19.666 42.3465 19.7266 42.6473 19.7266C42.9441 19.7266 43.2039 19.666 43.4266 19.5449C43.6531 19.4199 43.8406 19.25 43.9891 19.0352C44.1375 18.8203 44.2488 18.5742 44.323 18.2969C44.4012 18.0156 44.4402 17.7168 44.4402 17.4004V17.2656C44.4402 16.9531 44.4012 16.6582 44.323 16.3809C44.2488 16.0996 44.1355 15.8516 43.9832 15.6367C43.8348 15.418 43.6473 15.2461 43.4207 15.1211C43.198 14.9961 42.9363 14.9336 42.6355 14.9336C42.3387 14.9336 42.077 14.9961 41.8504 15.1211C41.6277 15.2461 41.4402 15.418 41.2879 15.6367C41.1395 15.8516 41.0281 16.0996 40.9539 16.3809C40.8797 16.6582 40.8426 16.9531 40.8426 17.2656Z" fill="#686868"/>
<path d="M61.5996 11.9688L58.043 21.2324H57.1113L60.6738 11.9688H61.5996Z" fill="#686868"/>
<path d="M76.1484 12.7246L73.3242 20.5H72.1699L75.4219 11.9688H76.166L76.1484 12.7246ZM78.5156 20.5L75.6855 12.7246L75.668 11.9688H76.4121L79.6758 20.5H78.5156ZM78.3691 17.3418V18.2676H73.5762V17.3418H78.3691ZM84.8904 19.2695V11.5H85.9802V20.5H84.9841L84.8904 19.2695ZM80.6248 17.4004V17.2773C80.6248 16.793 80.6834 16.3535 80.8005 15.959C80.9216 15.5605 81.0916 15.2188 81.3103 14.9336C81.533 14.6484 81.7966 14.4297 82.1013 14.2773C82.4099 14.1211 82.7537 14.043 83.1326 14.043C83.531 14.043 83.8787 14.1133 84.1755 14.2539C84.4763 14.3906 84.7302 14.5918 84.9373 14.8574C85.1482 15.1191 85.3142 15.4355 85.4353 15.8066C85.5564 16.1777 85.6404 16.5977 85.6873 17.0664V17.6055C85.6443 18.0703 85.5603 18.4883 85.4353 18.8594C85.3142 19.2305 85.1482 19.5469 84.9373 19.8086C84.7302 20.0703 84.4763 20.2715 84.1755 20.4121C83.8748 20.5488 83.5232 20.6172 83.1209 20.6172C82.7498 20.6172 82.4099 20.5371 82.1013 20.377C81.7966 20.2168 81.533 19.9922 81.3103 19.7031C81.0916 19.4141 80.9216 19.0742 80.8005 18.6836C80.6834 18.2891 80.6248 17.8613 80.6248 17.4004ZM81.7146 17.2773V17.4004C81.7146 17.7168 81.7459 18.0137 81.8084 18.291C81.8748 18.5684 81.9763 18.8125 82.113 19.0234C82.2498 19.2344 82.4236 19.4004 82.6345 19.5215C82.8455 19.6387 83.0974 19.6973 83.3904 19.6973C83.7498 19.6973 84.0447 19.6211 84.2752 19.4688C84.5095 19.3164 84.697 19.1152 84.8377 18.8652C84.9783 18.6152 85.0877 18.3438 85.1658 18.0508V16.6387C85.1189 16.4238 85.0505 16.2168 84.9607 16.0176C84.8748 15.8145 84.7615 15.6348 84.6209 15.4785C84.4841 15.3184 84.3142 15.1914 84.1111 15.0977C83.9119 15.0039 83.6755 14.957 83.4021 14.957C83.1052 14.957 82.8494 15.0195 82.6345 15.1445C82.4236 15.2656 82.2498 15.4336 82.113 15.6484C81.9763 15.8594 81.8748 16.1055 81.8084 16.3867C81.7459 16.6641 81.7146 16.9609 81.7146 17.2773ZM89.0855 14.1602V20.5H87.9956V14.1602H89.0855ZM87.9136 12.4785C87.9136 12.3027 87.9663 12.1543 88.0718 12.0332C88.1812 11.9121 88.3413 11.8516 88.5523 11.8516C88.7593 11.8516 88.9175 11.9121 89.0269 12.0332C89.1402 12.1543 89.1968 12.3027 89.1968 12.4785C89.1968 12.6465 89.1402 12.791 89.0269 12.9121C88.9175 13.0293 88.7593 13.0879 88.5523 13.0879C88.3413 13.0879 88.1812 13.0293 88.0718 12.9121C87.9663 12.791 87.9136 12.6465 87.9136 12.4785ZM92.1497 15.3789V22.9375H91.0598V14.1602H92.0559L92.1497 15.3789ZM96.4212 17.2773V17.4004C96.4212 17.8613 96.3665 18.2891 96.2571 18.6836C96.1477 19.0742 95.9876 19.4141 95.7766 19.7031C95.5696 19.9922 95.3137 20.2168 95.0091 20.377C94.7044 20.5371 94.3548 20.6172 93.9602 20.6172C93.5579 20.6172 93.2024 20.5508 92.8938 20.418C92.5852 20.2852 92.3235 20.0918 92.1087 19.8379C91.8938 19.584 91.722 19.2793 91.593 18.9238C91.468 18.5684 91.3821 18.168 91.3352 17.7227V17.0664C91.3821 16.5977 91.47 16.1777 91.5989 15.8066C91.7278 15.4355 91.8977 15.1191 92.1087 14.8574C92.3235 14.5918 92.5833 14.3906 92.888 14.2539C93.1927 14.1133 93.5442 14.043 93.9427 14.043C94.3411 14.043 94.6946 14.1211 95.0032 14.2773C95.3118 14.4297 95.5716 14.6484 95.7825 14.9336C95.9934 15.2188 96.1516 15.5605 96.2571 15.959C96.3665 16.3535 96.4212 16.793 96.4212 17.2773ZM95.3313 17.4004V17.2773C95.3313 16.9609 95.2981 16.6641 95.2317 16.3867C95.1653 16.1055 95.0618 15.8594 94.9212 15.6484C94.7845 15.4336 94.6087 15.2656 94.3938 15.1445C94.179 15.0195 93.9231 14.957 93.6262 14.957C93.3528 14.957 93.1145 15.0039 92.9114 15.0977C92.7122 15.1914 92.5423 15.3184 92.4016 15.4785C92.261 15.6348 92.1458 15.8145 92.0559 16.0176C91.97 16.2168 91.9055 16.4238 91.8626 16.6387V18.1562C91.9407 18.4297 92.0501 18.6875 92.1907 18.9297C92.3313 19.168 92.5188 19.3613 92.7532 19.5098C92.9876 19.6543 93.2825 19.7266 93.638 19.7266C93.9309 19.7266 94.1829 19.666 94.3938 19.5449C94.6087 19.4199 94.7845 19.25 94.9212 19.0352C95.0618 18.8203 95.1653 18.5742 95.2317 18.2969C95.2981 18.0156 95.3313 17.7168 95.3313 17.4004ZM99.2217 14.1602V20.5H98.1319V14.1602H99.2217ZM98.0498 12.4785C98.0498 12.3027 98.1026 12.1543 98.208 12.0332C98.3174 11.9121 98.4776 11.8516 98.6885 11.8516C98.8955 11.8516 99.0537 11.9121 99.1631 12.0332C99.2764 12.1543 99.333 12.3027 99.333 12.4785C99.333 12.6465 99.2764 12.791 99.1631 12.9121C99.0537 13.0293 98.8955 13.0879 98.6885 13.0879C98.4776 13.0879 98.3174 13.0293 98.208 12.9121C98.1026 12.791 98.0498 12.6465 98.0498 12.4785ZM104.893 18.8184C104.893 18.6621 104.858 18.5176 104.788 18.3848C104.721 18.248 104.583 18.125 104.372 18.0156C104.165 17.9023 103.852 17.8047 103.434 17.7227C103.083 17.6484 102.764 17.5605 102.479 17.459C102.198 17.3574 101.958 17.2344 101.759 17.0898C101.563 16.9453 101.413 16.7754 101.307 16.5801C101.202 16.3848 101.149 16.1562 101.149 15.8945C101.149 15.6445 101.204 15.4082 101.313 15.1855C101.427 14.9629 101.585 14.7656 101.788 14.5938C101.995 14.4219 102.243 14.2871 102.532 14.1895C102.821 14.0918 103.143 14.043 103.499 14.043C104.007 14.043 104.44 14.1328 104.8 14.3125C105.159 14.4922 105.434 14.7324 105.626 15.0332C105.817 15.3301 105.913 15.6602 105.913 16.0234H104.829C104.829 15.8477 104.776 15.6777 104.671 15.5137C104.569 15.3457 104.419 15.207 104.22 15.0977C104.024 14.9883 103.784 14.9336 103.499 14.9336C103.198 14.9336 102.954 14.9805 102.766 15.0742C102.583 15.1641 102.448 15.2793 102.362 15.4199C102.28 15.5605 102.239 15.709 102.239 15.8652C102.239 15.9824 102.259 16.0879 102.298 16.1816C102.341 16.2715 102.415 16.3555 102.52 16.4336C102.626 16.5078 102.774 16.5781 102.966 16.6445C103.157 16.7109 103.401 16.7773 103.698 16.8438C104.218 16.9609 104.645 17.1016 104.981 17.2656C105.317 17.4297 105.567 17.6309 105.731 17.8691C105.895 18.1074 105.977 18.3965 105.977 18.7363C105.977 19.0137 105.919 19.2676 105.802 19.498C105.688 19.7285 105.522 19.9277 105.304 20.0957C105.089 20.2598 104.831 20.3887 104.53 20.4824C104.233 20.5723 103.899 20.6172 103.528 20.6172C102.97 20.6172 102.497 20.5176 102.11 20.3184C101.723 20.1191 101.43 19.8613 101.231 19.5449C101.032 19.2285 100.932 18.8945 100.932 18.543H102.022C102.038 18.8398 102.124 19.0762 102.28 19.252C102.436 19.4238 102.628 19.5469 102.854 19.6211C103.081 19.6914 103.305 19.7266 103.528 19.7266C103.825 19.7266 104.073 19.6875 104.272 19.6094C104.475 19.5312 104.63 19.4238 104.735 19.2871C104.841 19.1504 104.893 18.9941 104.893 18.8184Z" fill="#686868"/>
<path d="M121.6 11.9688L118.043 21.2324H117.111L120.674 11.9688H121.6Z" fill="#686868"/>
<path d="M138.164 19.5801V20.5H133.898V19.5801H138.164ZM134.121 11.9688V20.5H132.99V11.9688H134.121ZM143.156 19.0352V14.1602H144.246V20.5H143.209L143.156 19.0352ZM143.361 17.6992L143.812 17.6875C143.812 18.1094 143.767 18.5 143.677 18.8594C143.592 19.2148 143.451 19.5234 143.256 19.7852C143.06 20.0469 142.804 20.252 142.488 20.4004C142.172 20.5449 141.787 20.6172 141.334 20.6172C141.025 20.6172 140.742 20.5723 140.484 20.4824C140.23 20.3926 140.011 20.2539 139.828 20.0664C139.644 19.8789 139.502 19.6348 139.4 19.334C139.302 19.0332 139.254 18.6719 139.254 18.25V14.1602H140.338V18.2617C140.338 18.5469 140.369 18.7832 140.431 18.9707C140.498 19.1543 140.586 19.3008 140.695 19.4102C140.808 19.5156 140.933 19.5898 141.07 19.6328C141.211 19.6758 141.355 19.6973 141.504 19.6973C141.965 19.6973 142.33 19.6094 142.599 19.4336C142.869 19.2539 143.062 19.0137 143.179 18.7129C143.301 18.4082 143.361 18.0703 143.361 17.6992ZM147.222 15.3789V22.9375H146.132V14.1602H147.128L147.222 15.3789ZM151.494 17.2773V17.4004C151.494 17.8613 151.439 18.2891 151.33 18.6836C151.22 19.0742 151.06 19.4141 150.849 19.7031C150.642 19.9922 150.386 20.2168 150.082 20.377C149.777 20.5371 149.427 20.6172 149.033 20.6172C148.63 20.6172 148.275 20.5508 147.966 20.418C147.658 20.2852 147.396 20.0918 147.181 19.8379C146.966 19.584 146.794 19.2793 146.666 18.9238C146.541 18.5684 146.455 18.168 146.408 17.7227V17.0664C146.455 16.5977 146.542 16.1777 146.671 15.8066C146.8 15.4355 146.97 15.1191 147.181 14.8574C147.396 14.5918 147.656 14.3906 147.96 14.2539C148.265 14.1133 148.617 14.043 149.015 14.043C149.414 14.043 149.767 14.1211 150.076 14.2773C150.384 14.4297 150.644 14.6484 150.855 14.9336C151.066 15.2188 151.224 15.5605 151.33 15.959C151.439 16.3535 151.494 16.793 151.494 17.2773ZM150.404 17.4004V17.2773C150.404 16.9609 150.371 16.6641 150.304 16.3867C150.238 16.1055 150.134 15.8594 149.994 15.6484C149.857 15.4336 149.681 15.2656 149.466 15.1445C149.251 15.0195 148.996 14.957 148.699 14.957C148.425 14.957 148.187 15.0039 147.984 15.0977C147.785 15.1914 147.615 15.3184 147.474 15.4785C147.334 15.6348 147.218 15.8145 147.128 16.0176C147.042 16.2168 146.978 16.4238 146.935 16.6387V18.1562C147.013 18.4297 147.123 18.6875 147.263 18.9297C147.404 19.168 147.591 19.3613 147.826 19.5098C148.06 19.6543 148.355 19.7266 148.71 19.7266C149.003 19.7266 149.255 19.666 149.466 19.5449C149.681 19.4199 149.857 19.25 149.994 19.0352C150.134 18.8203 150.238 18.5742 150.304 18.2969C150.371 18.0156 150.404 17.7168 150.404 17.4004ZM156.995 19.0352V14.1602H158.085V20.5H157.048L156.995 19.0352ZM157.2 17.6992L157.652 17.6875C157.652 18.1094 157.607 18.5 157.517 18.8594C157.431 19.2148 157.29 19.5234 157.095 19.7852C156.9 20.0469 156.644 20.252 156.327 20.4004C156.011 20.5449 155.626 20.6172 155.173 20.6172C154.865 20.6172 154.581 20.5723 154.324 20.4824C154.07 20.3926 153.851 20.2539 153.667 20.0664C153.484 19.8789 153.341 19.6348 153.24 19.334C153.142 19.0332 153.093 18.6719 153.093 18.25V14.1602H154.177V18.2617C154.177 18.5469 154.208 18.7832 154.271 18.9707C154.337 19.1543 154.425 19.3008 154.534 19.4102C154.648 19.5156 154.773 19.5898 154.909 19.6328C155.05 19.6758 155.195 19.6973 155.343 19.6973C155.804 19.6973 156.169 19.6094 156.439 19.4336C156.708 19.2539 156.902 19.0137 157.019 18.7129C157.14 18.4082 157.2 18.0703 157.2 17.6992ZM163.669 18.8184C163.669 18.6621 163.634 18.5176 163.564 18.3848C163.497 18.248 163.358 18.125 163.147 18.0156C162.94 17.9023 162.628 17.8047 162.21 17.7227C161.858 17.6484 161.54 17.5605 161.255 17.459C160.974 17.3574 160.733 17.2344 160.534 17.0898C160.339 16.9453 160.189 16.7754 160.083 16.5801C159.978 16.3848 159.925 16.1562 159.925 15.8945C159.925 15.6445 159.98 15.4082 160.089 15.1855C160.202 14.9629 160.36 14.7656 160.564 14.5938C160.771 14.4219 161.019 14.2871 161.308 14.1895C161.597 14.0918 161.919 14.043 162.274 14.043C162.782 14.043 163.216 14.1328 163.575 14.3125C163.935 14.4922 164.21 14.7324 164.401 15.0332C164.593 15.3301 164.689 15.6602 164.689 16.0234H163.605C163.605 15.8477 163.552 15.6777 163.446 15.5137C163.345 15.3457 163.194 15.207 162.995 15.0977C162.8 14.9883 162.56 14.9336 162.274 14.9336C161.974 14.9336 161.73 14.9805 161.542 15.0742C161.358 15.1641 161.224 15.2793 161.138 15.4199C161.056 15.5605 161.015 15.709 161.015 15.8652C161.015 15.9824 161.034 16.0879 161.073 16.1816C161.116 16.2715 161.19 16.3555 161.296 16.4336C161.401 16.5078 161.55 16.5781 161.741 16.6445C161.933 16.7109 162.177 16.7773 162.474 16.8438C162.993 16.9609 163.421 17.1016 163.757 17.2656C164.093 17.4297 164.343 17.6309 164.507 17.8691C164.671 18.1074 164.753 18.3965 164.753 18.7363C164.753 19.0137 164.694 19.2676 164.577 19.498C164.464 19.7285 164.298 19.9277 164.079 20.0957C163.864 20.2598 163.606 20.3887 163.306 20.4824C163.009 20.5723 162.675 20.6172 162.304 20.6172C161.745 20.6172 161.272 20.5176 160.886 20.3184C160.499 20.1191 160.206 19.8613 160.007 19.5449C159.808 19.2285 159.708 18.8945 159.708 18.543H160.798C160.814 18.8398 160.899 19.0762 161.056 19.252C161.212 19.4238 161.403 19.5469 161.63 19.6211C161.856 19.6914 162.081 19.7266 162.304 19.7266C162.601 19.7266 162.849 19.6875 163.048 19.6094C163.251 19.5312 163.405 19.4238 163.511 19.2871C163.616 19.1504 163.669 18.9941 163.669 18.8184Z" fill="#686868"/>
<path d="M180.6 11.9688L177.043 21.2324H176.111L179.674 11.9688H180.6Z" fill="#686868"/>
<path d="M195.137 17.1543H192.857V16.2344H195.137C195.578 16.2344 195.936 16.1641 196.209 16.0234C196.482 15.8828 196.682 15.6875 196.807 15.4375C196.936 15.1875 197 14.9023 197 14.582C197 14.2891 196.936 14.0137 196.807 13.7559C196.682 13.498 196.482 13.291 196.209 13.1348C195.936 12.9746 195.578 12.8945 195.137 12.8945H193.121V20.5H191.99V11.9688H195.137C195.781 11.9688 196.326 12.0801 196.771 12.3027C197.217 12.5254 197.555 12.834 197.785 13.2285C198.016 13.6191 198.131 14.0664 198.131 14.5703C198.131 15.1172 198.016 15.584 197.785 15.9707C197.555 16.3574 197.217 16.6523 196.771 16.8555C196.326 17.0547 195.781 17.1543 195.137 17.1543ZM203.515 19.0352V14.1602H204.605V20.5H203.568L203.515 19.0352ZM203.72 17.6992L204.172 17.6875C204.172 18.1094 204.127 18.5 204.037 18.8594C203.951 19.2148 203.81 19.5234 203.615 19.7852C203.42 20.0469 203.164 20.252 202.847 20.4004C202.531 20.5449 202.146 20.6172 201.693 20.6172C201.385 20.6172 201.101 20.5723 200.844 20.4824C200.59 20.3926 200.371 20.2539 200.187 20.0664C200.004 19.8789 199.861 19.6348 199.76 19.334C199.662 19.0332 199.613 18.6719 199.613 18.25V14.1602H200.697V18.2617C200.697 18.5469 200.728 18.7832 200.791 18.9707C200.857 19.1543 200.945 19.3008 201.054 19.4102C201.168 19.5156 201.293 19.5898 201.429 19.6328C201.57 19.6758 201.715 19.6973 201.863 19.6973C202.324 19.6973 202.689 19.6094 202.959 19.4336C203.228 19.2539 203.422 19.0137 203.539 18.7129C203.66 18.4082 203.72 18.0703 203.72 17.6992ZM207.582 15.3789V22.9375H206.492V14.1602H207.488L207.582 15.3789ZM211.853 17.2773V17.4004C211.853 17.8613 211.798 18.2891 211.689 18.6836C211.58 19.0742 211.419 19.4141 211.209 19.7031C211.001 19.9922 210.746 20.2168 210.441 20.377C210.136 20.5371 209.787 20.6172 209.392 20.6172C208.99 20.6172 208.634 20.5508 208.326 20.418C208.017 20.2852 207.755 20.0918 207.541 19.8379C207.326 19.584 207.154 19.2793 207.025 18.9238C206.9 18.5684 206.814 18.168 206.767 17.7227V17.0664C206.814 16.5977 206.902 16.1777 207.031 15.8066C207.16 15.4355 207.33 15.1191 207.541 14.8574C207.755 14.5918 208.015 14.3906 208.32 14.2539C208.625 14.1133 208.976 14.043 209.375 14.043C209.773 14.043 210.126 14.1211 210.435 14.2773C210.744 14.4297 211.003 14.6484 211.214 14.9336C211.425 15.2188 211.584 15.5605 211.689 15.959C211.798 16.3535 211.853 16.793 211.853 17.2773ZM210.763 17.4004V17.2773C210.763 16.9609 210.73 16.6641 210.664 16.3867C210.597 16.1055 210.494 15.8594 210.353 15.6484C210.216 15.4336 210.041 15.2656 209.826 15.1445C209.611 15.0195 209.355 14.957 209.058 14.957C208.785 14.957 208.546 15.0039 208.343 15.0977C208.144 15.1914 207.974 15.3184 207.834 15.4785C207.693 15.6348 207.578 15.8145 207.488 16.0176C207.402 16.2168 207.337 16.4238 207.294 16.6387V18.1562C207.373 18.4297 207.482 18.6875 207.623 18.9297C207.763 19.168 207.951 19.3613 208.185 19.5098C208.419 19.6543 208.714 19.7266 209.07 19.7266C209.363 19.7266 209.615 19.666 209.826 19.5449C210.041 19.4199 210.216 19.25 210.353 19.0352C210.494 18.8203 210.597 18.5742 210.664 18.2969C210.73 18.0156 210.763 17.7168 210.763 17.4004ZM214.654 14.1602V20.5H213.564V14.1602H214.654ZM213.482 12.4785C213.482 12.3027 213.534 12.1543 213.64 12.0332C213.749 11.9121 213.909 11.8516 214.12 11.8516C214.327 11.8516 214.486 11.9121 214.595 12.0332C214.708 12.1543 214.765 12.3027 214.765 12.4785C214.765 12.6465 214.708 12.791 214.595 12.9121C214.486 13.0293 214.327 13.0879 214.12 13.0879C213.909 13.0879 213.749 13.0293 213.64 12.9121C213.534 12.791 213.482 12.6465 213.482 12.4785ZM220.325 18.8184C220.325 18.6621 220.29 18.5176 220.22 18.3848C220.153 18.248 220.015 18.125 219.804 18.0156C219.597 17.9023 219.284 17.8047 218.866 17.7227C218.515 17.6484 218.196 17.5605 217.911 17.459C217.63 17.3574 217.39 17.2344 217.19 17.0898C216.995 16.9453 216.845 16.7754 216.739 16.5801C216.634 16.3848 216.581 16.1562 216.581 15.8945C216.581 15.6445 216.636 15.4082 216.745 15.1855C216.858 14.9629 217.017 14.7656 217.22 14.5938C217.427 14.4219 217.675 14.2871 217.964 14.1895C218.253 14.0918 218.575 14.043 218.931 14.043C219.439 14.043 219.872 14.1328 220.231 14.3125C220.591 14.4922 220.866 14.7324 221.058 15.0332C221.249 15.3301 221.345 15.6602 221.345 16.0234H220.261C220.261 15.8477 220.208 15.6777 220.103 15.5137C220.001 15.3457 219.851 15.207 219.651 15.0977C219.456 14.9883 219.216 14.9336 218.931 14.9336C218.63 14.9336 218.386 14.9805 218.198 15.0742C218.015 15.1641 217.88 15.2793 217.794 15.4199C217.712 15.5605 217.671 15.709 217.671 15.8652C217.671 15.9824 217.69 16.0879 217.73 16.1816C217.772 16.2715 217.847 16.3555 217.952 16.4336C218.058 16.5078 218.206 16.5781 218.397 16.6445C218.589 16.7109 218.833 16.7773 219.13 16.8438C219.649 16.9609 220.077 17.1016 220.413 17.2656C220.749 17.4297 220.999 17.6309 221.163 17.8691C221.327 18.1074 221.409 18.3965 221.409 18.7363C221.409 19.0137 221.351 19.2676 221.233 19.498C221.12 19.7285 220.954 19.9277 220.735 20.0957C220.521 20.2598 220.263 20.3887 219.962 20.4824C219.665 20.5723 219.331 20.6172 218.96 20.6172C218.401 20.6172 217.929 20.5176 217.542 20.3184C217.155 20.1191 216.862 19.8613 216.663 19.5449C216.464 19.2285 216.364 18.8945 216.364 18.543H217.454C217.47 18.8398 217.556 19.0762 217.712 19.252C217.868 19.4238 218.06 19.5469 218.286 19.6211C218.513 19.6914 218.737 19.7266 218.96 19.7266C219.257 19.7266 219.505 19.6875 219.704 19.6094C219.907 19.5312 220.062 19.4238 220.167 19.2871C220.272 19.1504 220.325 18.9941 220.325 18.8184Z" fill="#686868"/>
<path d="M237.6 11.9688L234.043 21.2324H233.111L236.674 11.9688H237.6Z" fill="#686868"/>
<path d="M254.141 17.7871H255.266C255.207 18.3262 255.053 18.8086 254.803 19.2344C254.553 19.6602 254.199 19.998 253.742 20.248C253.285 20.4941 252.715 20.6172 252.031 20.6172C251.531 20.6172 251.076 20.5234 250.666 20.3359C250.26 20.1484 249.91 19.8828 249.617 19.5391C249.324 19.1914 249.098 18.7754 248.938 18.291C248.781 17.8027 248.703 17.2598 248.703 16.6621V15.8125C248.703 15.2148 248.781 14.6738 248.938 14.1895C249.098 13.7012 249.326 13.2832 249.623 12.9355C249.924 12.5879 250.285 12.3203 250.707 12.1328C251.129 11.9453 251.604 11.8516 252.131 11.8516C252.775 11.8516 253.32 11.9727 253.766 12.2148C254.211 12.457 254.557 12.793 254.803 13.2227C255.053 13.6484 255.207 14.1426 255.266 14.7051H254.141C254.086 14.3066 253.984 13.9648 253.836 13.6797C253.688 13.3906 253.477 13.168 253.203 13.0117C252.93 12.8555 252.572 12.7773 252.131 12.7773C251.752 12.7773 251.418 12.8496 251.129 12.9941C250.844 13.1387 250.604 13.3438 250.408 13.6094C250.217 13.875 250.072 14.1934 249.975 14.5645C249.877 14.9355 249.828 15.3477 249.828 15.8008V16.6621C249.828 17.0801 249.871 17.4727 249.957 17.8398C250.047 18.207 250.182 18.5293 250.361 18.8066C250.541 19.084 250.77 19.3027 251.047 19.4629C251.324 19.6191 251.652 19.6973 252.031 19.6973C252.512 19.6973 252.895 19.6211 253.18 19.4688C253.465 19.3164 253.68 19.0977 253.824 18.8125C253.973 18.5273 254.078 18.1855 254.141 17.7871ZM256.595 17.4004V17.2656C256.595 16.8086 256.662 16.3848 256.795 15.9941C256.927 15.5996 257.119 15.2578 257.369 14.9688C257.619 14.6758 257.922 14.4492 258.277 14.2891C258.633 14.125 259.031 14.043 259.472 14.043C259.918 14.043 260.318 14.125 260.674 14.2891C261.033 14.4492 261.338 14.6758 261.588 14.9688C261.842 15.2578 262.035 15.5996 262.168 15.9941C262.301 16.3848 262.367 16.8086 262.367 17.2656V17.4004C262.367 17.8574 262.301 18.2812 262.168 18.6719C262.035 19.0625 261.842 19.4043 261.588 19.6973C261.338 19.9863 261.035 20.2129 260.679 20.377C260.328 20.5371 259.929 20.6172 259.484 20.6172C259.039 20.6172 258.638 20.5371 258.283 20.377C257.927 20.2129 257.623 19.9863 257.369 19.6973C257.119 19.4043 256.927 19.0625 256.795 18.6719C256.662 18.2812 256.595 17.8574 256.595 17.4004ZM257.679 17.2656V17.4004C257.679 17.7168 257.717 18.0156 257.791 18.2969C257.865 18.5742 257.976 18.8203 258.125 19.0352C258.277 19.25 258.467 19.4199 258.693 19.5449C258.92 19.666 259.183 19.7266 259.484 19.7266C259.781 19.7266 260.041 19.666 260.263 19.5449C260.49 19.4199 260.677 19.25 260.826 19.0352C260.974 18.8203 261.086 18.5742 261.16 18.2969C261.238 18.0156 261.277 17.7168 261.277 17.4004V17.2656C261.277 16.9531 261.238 16.6582 261.16 16.3809C261.086 16.0996 260.972 15.8516 260.82 15.6367C260.672 15.418 260.484 15.2461 260.258 15.1211C260.035 14.9961 259.773 14.9336 259.472 14.9336C259.176 14.9336 258.914 14.9961 258.687 15.1211C258.465 15.2461 258.277 15.418 258.125 15.6367C257.976 15.8516 257.865 16.0996 257.791 16.3809C257.717 16.6582 257.679 16.9531 257.679 17.2656ZM267.845 19.0352V14.1602H268.935V20.5H267.898L267.845 19.0352ZM268.05 17.6992L268.501 17.6875C268.501 18.1094 268.457 18.5 268.367 18.8594C268.281 19.2148 268.14 19.5234 267.945 19.7852C267.75 20.0469 267.494 20.252 267.177 20.4004C266.861 20.5449 266.476 20.6172 266.023 20.6172C265.714 20.6172 265.431 20.5723 265.173 20.4824C264.919 20.3926 264.701 20.2539 264.517 20.0664C264.334 19.8789 264.191 19.6348 264.089 19.334C263.992 19.0332 263.943 18.6719 263.943 18.25V14.1602H265.027V18.2617C265.027 18.5469 265.058 18.7832 265.121 18.9707C265.187 19.1543 265.275 19.3008 265.384 19.4102C265.498 19.5156 265.623 19.5898 265.759 19.6328C265.9 19.6758 266.044 19.6973 266.193 19.6973C266.654 19.6973 267.019 19.6094 267.289 19.4336C267.558 19.2539 267.751 19.0137 267.869 18.7129C267.99 18.4082 268.05 18.0703 268.05 17.6992ZM271.911 15.3789V22.9375H270.822V14.1602H271.818L271.911 15.3789ZM276.183 17.2773V17.4004C276.183 17.8613 276.128 18.2891 276.019 18.6836C275.909 19.0742 275.749 19.4141 275.538 19.7031C275.331 19.9922 275.075 20.2168 274.771 20.377C274.466 20.5371 274.116 20.6172 273.722 20.6172C273.32 20.6172 272.964 20.5508 272.656 20.418C272.347 20.2852 272.085 20.0918 271.87 19.8379C271.656 19.584 271.484 19.2793 271.355 18.9238C271.23 18.5684 271.144 18.168 271.097 17.7227V17.0664C271.144 16.5977 271.232 16.1777 271.361 15.8066C271.49 15.4355 271.659 15.1191 271.87 14.8574C272.085 14.5918 272.345 14.3906 272.65 14.2539C272.954 14.1133 273.306 14.043 273.704 14.043C274.103 14.043 274.456 14.1211 274.765 14.2773C275.074 14.4297 275.333 14.6484 275.544 14.9336C275.755 15.2188 275.913 15.5605 276.019 15.959C276.128 16.3535 276.183 16.793 276.183 17.2773ZM275.093 17.4004V17.2773C275.093 16.9609 275.06 16.6641 274.993 16.3867C274.927 16.1055 274.824 15.8594 274.683 15.6484C274.546 15.4336 274.37 15.2656 274.156 15.1445C273.941 15.0195 273.685 14.957 273.388 14.957C273.115 14.957 272.876 15.0039 272.673 15.0977C272.474 15.1914 272.304 15.3184 272.163 15.4785C272.023 15.6348 271.907 15.8145 271.818 16.0176C271.732 16.2168 271.667 16.4238 271.624 16.6387V18.1562C271.702 18.4297 271.812 18.6875 271.952 18.9297C272.093 19.168 272.281 19.3613 272.515 19.5098C272.749 19.6543 273.044 19.7266 273.4 19.7266C273.693 19.7266 273.945 19.666 274.156 19.5449C274.37 19.4199 274.546 19.25 274.683 19.0352C274.824 18.8203 274.927 18.5742 274.993 18.2969C275.06 18.0156 275.093 17.7168 275.093 17.4004ZM280.437 20.6172C279.995 20.6172 279.595 20.543 279.235 20.3945C278.88 20.2422 278.573 20.0293 278.315 19.7559C278.062 19.4824 277.866 19.1582 277.73 18.7832C277.593 18.4082 277.524 17.998 277.524 17.5527V17.3066C277.524 16.791 277.601 16.332 277.753 15.9297C277.905 15.5234 278.112 15.1797 278.374 14.8984C278.636 14.6172 278.933 14.4043 279.265 14.2598C279.597 14.1152 279.94 14.043 280.296 14.043C280.749 14.043 281.14 14.1211 281.468 14.2773C281.8 14.4336 282.071 14.6523 282.282 14.9336C282.493 15.2109 282.649 15.5391 282.751 15.918C282.853 16.293 282.903 16.7031 282.903 17.1484V17.6348H278.169V16.75H281.819V16.668C281.804 16.3867 281.745 16.1133 281.644 15.8477C281.546 15.582 281.39 15.3633 281.175 15.1914C280.96 15.0195 280.667 14.9336 280.296 14.9336C280.05 14.9336 279.823 14.9863 279.616 15.0918C279.409 15.1934 279.231 15.3457 279.083 15.5488C278.935 15.752 278.819 16 278.737 16.293C278.655 16.5859 278.614 16.9238 278.614 17.3066V17.5527C278.614 17.8535 278.655 18.1367 278.737 18.4023C278.823 18.6641 278.946 18.8945 279.106 19.0938C279.271 19.293 279.468 19.4492 279.698 19.5625C279.933 19.6758 280.198 19.7324 280.495 19.7324C280.878 19.7324 281.202 19.6543 281.468 19.498C281.733 19.3418 281.966 19.1328 282.165 18.8711L282.821 19.3926C282.685 19.5996 282.511 19.7969 282.3 19.9844C282.089 20.1719 281.829 20.3242 281.521 20.4414C281.216 20.5586 280.855 20.6172 280.437 20.6172Z" fill="#686868"/>
</svg>
