<svg width="1500" height="40" viewBox="0 0 1500 40" fill="none" xmlns="http://www.w3.org/2000/svg">
<rect width="1500" height="40" fill="white"/>
<path d="M110 12.8199L103.5 18.7799V26.9999H109V22.4999H111V26.9999H116.5V18.7799L110 12.8199ZM115.5 25.9999H112V21.4999H108V25.9999H104.5V19.2199L110 14.1799L115.5 19.2199V25.9999Z" fill="#1C1C1C"/>
<path d="M134.354 15.1465L139.207 20L134.354 24.8536L133.646 24.1465L137.793 20L133.646 15.8536L134.354 15.1465Z" fill="#C9C9C9"/>
<rect x="154" y="12" width="36" height="16" rx="4" fill="#F4F4F4"/>
<circle cx="164" cy="20" r="2" fill="#1C1C1C"/>
<circle cx="172" cy="20" r="2" fill="#1C1C1C"/>
<circle cx="180" cy="20" r="2" fill="#1C1C1C"/>
<path d="M206.354 15.1465L211.207 20L206.354 24.8536L205.646 24.1465L209.793 20L205.646 15.8536L206.354 15.1465Z" fill="#C9C9C9"/>
<path d="M230.148 16.7246L227.324 24.5H226.17L229.422 15.9688H230.166L230.148 16.7246ZM232.516 24.5L229.686 16.7246L229.668 15.9688H230.412L233.676 24.5H232.516ZM232.369 21.3418V22.2676H227.576V21.3418H232.369ZM238.89 23.2695V15.5H239.98V24.5H238.984L238.89 23.2695ZM234.625 21.4004V21.2773C234.625 20.793 234.683 20.3535 234.801 19.959C234.922 19.5605 235.092 19.2188 235.31 18.9336C235.533 18.6484 235.797 18.4297 236.101 18.2773C236.41 18.1211 236.754 18.043 237.133 18.043C237.531 18.043 237.879 18.1133 238.176 18.2539C238.476 18.3906 238.73 18.5918 238.937 18.8574C239.148 19.1191 239.314 19.4355 239.435 19.8066C239.556 20.1777 239.64 20.5977 239.687 21.0664V21.6055C239.644 22.0703 239.56 22.4883 239.435 22.8594C239.314 23.2305 239.148 23.5469 238.937 23.8086C238.73 24.0703 238.476 24.2715 238.176 24.4121C237.875 24.5488 237.523 24.6172 237.121 24.6172C236.75 24.6172 236.41 24.5371 236.101 24.377C235.797 24.2168 235.533 23.9922 235.31 23.7031C235.092 23.4141 234.922 23.0742 234.801 22.6836C234.683 22.2891 234.625 21.8613 234.625 21.4004ZM235.715 21.2773V21.4004C235.715 21.7168 235.746 22.0137 235.808 22.291C235.875 22.5684 235.976 22.8125 236.113 23.0234C236.25 23.2344 236.424 23.4004 236.635 23.5215C236.845 23.6387 237.097 23.6973 237.39 23.6973C237.75 23.6973 238.045 23.6211 238.275 23.4688C238.51 23.3164 238.697 23.1152 238.838 22.8652C238.978 22.6152 239.088 22.3438 239.166 22.0508V20.6387C239.119 20.4238 239.051 20.2168 238.961 20.0176C238.875 19.8145 238.761 19.6348 238.621 19.4785C238.484 19.3184 238.314 19.1914 238.111 19.0977C237.912 19.0039 237.676 18.957 237.402 18.957C237.105 18.957 236.849 19.0195 236.635 19.1445C236.424 19.2656 236.25 19.4336 236.113 19.6484C235.976 19.8594 235.875 20.1055 235.808 20.3867C235.746 20.6641 235.715 20.9609 235.715 21.2773ZM243.085 18.1602V24.5H241.996V18.1602H243.085ZM241.914 16.4785C241.914 16.3027 241.966 16.1543 242.072 16.0332C242.181 15.9121 242.341 15.8516 242.552 15.8516C242.759 15.8516 242.917 15.9121 243.027 16.0332C243.14 16.1543 243.197 16.3027 243.197 16.4785C243.197 16.6465 243.14 16.791 243.027 16.9121C242.917 17.0293 242.759 17.0879 242.552 17.0879C242.341 17.0879 242.181 17.0293 242.072 16.9121C241.966 16.791 241.914 16.6465 241.914 16.4785ZM246.15 19.3789V26.9375H245.06V18.1602H246.056L246.15 19.3789ZM250.421 21.2773V21.4004C250.421 21.8613 250.366 22.2891 250.257 22.6836C250.148 23.0742 249.988 23.4141 249.777 23.7031C249.57 23.9922 249.314 24.2168 249.009 24.377C248.704 24.5371 248.355 24.6172 247.96 24.6172C247.558 24.6172 247.202 24.5508 246.894 24.418C246.585 24.2852 246.324 24.0918 246.109 23.8379C245.894 23.584 245.722 23.2793 245.593 22.9238C245.468 22.5684 245.382 22.168 245.335 21.7227V21.0664C245.382 20.5977 245.47 20.1777 245.599 19.8066C245.728 19.4355 245.898 19.1191 246.109 18.8574C246.324 18.5918 246.583 18.3906 246.888 18.2539C247.193 18.1133 247.544 18.043 247.943 18.043C248.341 18.043 248.695 18.1211 249.003 18.2773C249.312 18.4297 249.572 18.6484 249.782 18.9336C249.993 19.2188 250.152 19.5605 250.257 19.959C250.366 20.3535 250.421 20.793 250.421 21.2773ZM249.331 21.4004V21.2773C249.331 20.9609 249.298 20.6641 249.232 20.3867C249.165 20.1055 249.062 19.8594 248.921 19.6484C248.784 19.4336 248.609 19.2656 248.394 19.1445C248.179 19.0195 247.923 18.957 247.626 18.957C247.353 18.957 247.115 19.0039 246.911 19.0977C246.712 19.1914 246.542 19.3184 246.402 19.4785C246.261 19.6348 246.146 19.8145 246.056 20.0176C245.97 20.2168 245.906 20.4238 245.863 20.6387V22.1562C245.941 22.4297 246.05 22.6875 246.191 22.9297C246.331 23.168 246.519 23.3613 246.753 23.5098C246.988 23.6543 247.282 23.7266 247.638 23.7266C247.931 23.7266 248.183 23.666 248.394 23.5449C248.609 23.4199 248.784 23.25 248.921 23.0352C249.062 22.8203 249.165 22.5742 249.232 22.2969C249.298 22.0156 249.331 21.7168 249.331 21.4004ZM253.222 18.1602V24.5H252.132V18.1602H253.222ZM252.05 16.4785C252.05 16.3027 252.103 16.1543 252.208 16.0332C252.317 15.9121 252.478 15.8516 252.689 15.8516C252.896 15.8516 253.054 15.9121 253.163 16.0332C253.276 16.1543 253.333 16.3027 253.333 16.4785C253.333 16.6465 253.276 16.791 253.163 16.9121C253.054 17.0293 252.896 17.0879 252.689 17.0879C252.478 17.0879 252.317 17.0293 252.208 16.9121C252.103 16.791 252.05 16.6465 252.05 16.4785ZM258.893 22.8184C258.893 22.6621 258.858 22.5176 258.788 22.3848C258.721 22.248 258.583 22.125 258.372 22.0156C258.165 21.9023 257.852 21.8047 257.434 21.7227C257.083 21.6484 256.764 21.5605 256.479 21.459C256.198 21.3574 255.958 21.2344 255.759 21.0898C255.563 20.9453 255.413 20.7754 255.307 20.5801C255.202 20.3848 255.149 20.1562 255.149 19.8945C255.149 19.6445 255.204 19.4082 255.313 19.1855C255.427 18.9629 255.585 18.7656 255.788 18.5938C255.995 18.4219 256.243 18.2871 256.532 18.1895C256.821 18.0918 257.143 18.043 257.499 18.043C258.007 18.043 258.44 18.1328 258.8 18.3125C259.159 18.4922 259.434 18.7324 259.626 19.0332C259.817 19.3301 259.913 19.6602 259.913 20.0234H258.829C258.829 19.8477 258.776 19.6777 258.671 19.5137C258.569 19.3457 258.419 19.207 258.22 19.0977C258.024 18.9883 257.784 18.9336 257.499 18.9336C257.198 18.9336 256.954 18.9805 256.766 19.0742C256.583 19.1641 256.448 19.2793 256.362 19.4199C256.28 19.5605 256.239 19.709 256.239 19.8652C256.239 19.9824 256.259 20.0879 256.298 20.1816C256.341 20.2715 256.415 20.3555 256.52 20.4336C256.626 20.5078 256.774 20.5781 256.966 20.6445C257.157 20.7109 257.401 20.7773 257.698 20.8438C258.218 20.9609 258.645 21.1016 258.981 21.2656C259.317 21.4297 259.567 21.6309 259.731 21.8691C259.895 22.1074 259.977 22.3965 259.977 22.7363C259.977 23.0137 259.919 23.2676 259.802 23.498C259.688 23.7285 259.522 23.9277 259.304 24.0957C259.089 24.2598 258.831 24.3887 258.53 24.4824C258.233 24.5723 257.899 24.6172 257.528 24.6172C256.97 24.6172 256.497 24.5176 256.11 24.3184C255.723 24.1191 255.43 23.8613 255.231 23.5449C255.032 23.2285 254.932 22.8945 254.932 22.543H256.022C256.038 22.8398 256.124 23.0762 256.28 23.252C256.436 23.4238 256.628 23.5469 256.854 23.6211C257.081 23.6914 257.305 23.7266 257.528 23.7266C257.825 23.7266 258.073 23.6875 258.272 23.6094C258.475 23.5312 258.63 23.4238 258.735 23.2871C258.841 23.1504 258.893 22.9941 258.893 22.8184Z" fill="#8A8A8A"/>
</svg>
