<svg width="328" height="524" viewBox="0 0 328 524" fill="none" xmlns="http://www.w3.org/2000/svg">
<g clip-path="url(#clip0_17089_8359)">
<rect width="158" height="118.5" transform="translate(0 0.000976562)" fill="#E3E3E3"/>
</g>
<path d="M48.7344 148.979H50.6094C50.5117 149.878 50.2546 150.682 49.8379 151.392C49.4212 152.101 48.832 152.664 48.0703 153.081C47.3086 153.491 46.3581 153.696 45.2188 153.696C44.3854 153.696 43.627 153.54 42.9434 153.228C42.2663 152.915 41.6836 152.472 41.1953 151.899C40.707 151.32 40.3294 150.627 40.0625 149.819C39.8021 149.006 39.6719 148.101 39.6719 147.104V145.688C39.6719 144.692 39.8021 143.791 40.0625 142.983C40.3294 142.17 40.7103 141.473 41.2051 140.894C41.7064 140.314 42.3086 139.868 43.0117 139.556C43.7148 139.243 44.5059 139.087 45.3848 139.087C46.459 139.087 47.3672 139.289 48.1094 139.692C48.8516 140.096 49.4277 140.656 49.8379 141.372C50.2546 142.082 50.5117 142.905 50.6094 143.843H48.7344C48.6432 143.179 48.474 142.609 48.2266 142.134C47.9792 141.652 47.6276 141.281 47.1719 141.021C46.7161 140.76 46.1204 140.63 45.3848 140.63C44.7533 140.63 44.1966 140.75 43.7148 140.991C43.2396 141.232 42.8392 141.574 42.5137 142.017C42.1947 142.459 41.9538 142.99 41.791 143.608C41.6283 144.227 41.5469 144.914 41.5469 145.669V147.104C41.5469 147.801 41.6185 148.455 41.7617 149.067C41.9115 149.679 42.1361 150.216 42.4355 150.679C42.735 151.141 43.1159 151.506 43.5781 151.772C44.0404 152.033 44.5872 152.163 45.2188 152.163C46.0195 152.163 46.6576 152.036 47.1328 151.782C47.6081 151.528 47.9661 151.164 48.207 150.688C48.4544 150.213 48.6302 149.644 48.7344 148.979ZM59.1348 151.694V146.255C59.1348 145.838 59.0501 145.477 58.8809 145.171C58.7181 144.858 58.4707 144.618 58.1387 144.448C57.8066 144.279 57.3965 144.194 56.9082 144.194C56.4525 144.194 56.0521 144.272 55.707 144.429C55.3685 144.585 55.1016 144.79 54.9062 145.044C54.7174 145.298 54.623 145.571 54.623 145.864H52.8164C52.8164 145.487 52.9141 145.112 53.1094 144.741C53.3047 144.37 53.5846 144.035 53.9492 143.735C54.3203 143.429 54.763 143.188 55.2773 143.013C55.7982 142.83 56.3776 142.739 57.0156 142.739C57.7839 142.739 58.4609 142.869 59.0469 143.13C59.6393 143.39 60.1016 143.784 60.4336 144.312C60.7721 144.832 60.9414 145.487 60.9414 146.274V151.196C60.9414 151.548 60.9707 151.922 61.0293 152.319C61.0944 152.716 61.1888 153.058 61.3125 153.345V153.501H59.4277C59.3366 153.293 59.265 153.016 59.2129 152.671C59.1608 152.319 59.1348 151.994 59.1348 151.694ZM59.4473 147.095L59.4668 148.364H57.6406C57.1263 148.364 56.6673 148.407 56.2637 148.491C55.86 148.569 55.5215 148.69 55.248 148.853C54.9746 149.015 54.7663 149.22 54.623 149.468C54.4798 149.709 54.4082 149.992 54.4082 150.317C54.4082 150.649 54.4831 150.952 54.6328 151.226C54.7826 151.499 55.0072 151.717 55.3066 151.88C55.6126 152.036 55.987 152.114 56.4297 152.114C56.9831 152.114 57.4714 151.997 57.8945 151.763C58.3177 151.528 58.653 151.242 58.9004 150.903C59.1543 150.565 59.291 150.236 59.3105 149.917L60.082 150.786C60.0365 151.06 59.9128 151.362 59.7109 151.694C59.5091 152.026 59.2389 152.345 58.9004 152.651C58.5684 152.951 58.1712 153.201 57.709 153.403C57.2533 153.599 56.7389 153.696 56.166 153.696C55.4499 153.696 54.8216 153.556 54.2812 153.276C53.7474 152.996 53.3307 152.622 53.0312 152.153C52.7383 151.678 52.5918 151.147 52.5918 150.562C52.5918 149.995 52.7025 149.497 52.9238 149.067C53.1452 148.631 53.4642 148.27 53.8809 147.983C54.2975 147.69 54.7988 147.469 55.3848 147.319C55.9707 147.17 56.625 147.095 57.3477 147.095H59.4473ZM68.207 142.935V144.321H62.4941V142.935H68.207ZM64.4277 140.366H66.2344V150.884C66.2344 151.242 66.2897 151.512 66.4004 151.694C66.5111 151.877 66.6543 151.997 66.8301 152.056C67.0059 152.114 67.1947 152.144 67.3965 152.144C67.5462 152.144 67.7025 152.131 67.8652 152.104C68.0345 152.072 68.1615 152.046 68.2461 152.026L68.2559 153.501C68.1126 153.547 67.9238 153.589 67.6895 153.628C67.4616 153.674 67.1849 153.696 66.8594 153.696C66.4167 153.696 66.0098 153.608 65.6387 153.433C65.2676 153.257 64.9714 152.964 64.75 152.554C64.5352 152.137 64.4277 151.577 64.4277 150.874V140.366ZM74.7109 153.696C73.9753 153.696 73.3079 153.573 72.709 153.325C72.1165 153.071 71.6055 152.716 71.1758 152.261C70.7526 151.805 70.4271 151.265 70.1992 150.64C69.9714 150.015 69.8574 149.331 69.8574 148.589V148.179C69.8574 147.319 69.9844 146.554 70.2383 145.884C70.4922 145.207 70.8372 144.634 71.2734 144.165C71.7096 143.696 72.2044 143.341 72.7578 143.101C73.3112 142.86 73.8841 142.739 74.4766 142.739C75.2318 142.739 75.8828 142.869 76.4297 143.13C76.9831 143.39 77.4355 143.755 77.7871 144.224C78.1387 144.686 78.3991 145.233 78.5684 145.864C78.7376 146.489 78.8223 147.173 78.8223 147.915V148.726H70.9316V147.251H77.0156V147.114C76.9896 146.646 76.8919 146.19 76.7227 145.747C76.5599 145.304 76.2995 144.94 75.9414 144.653C75.5833 144.367 75.0951 144.224 74.4766 144.224C74.0664 144.224 73.6888 144.312 73.3438 144.487C72.9987 144.657 72.7025 144.91 72.4551 145.249C72.2077 145.588 72.0156 146.001 71.8789 146.489C71.7422 146.978 71.6738 147.541 71.6738 148.179V148.589C71.6738 149.09 71.7422 149.562 71.8789 150.005C72.0221 150.441 72.2272 150.825 72.4941 151.157C72.7676 151.489 73.0964 151.75 73.4805 151.938C73.8711 152.127 74.3138 152.222 74.8086 152.222C75.4466 152.222 75.987 152.091 76.4297 151.831C76.8724 151.571 77.2598 151.222 77.5918 150.786L78.6855 151.655C78.4577 152 78.168 152.329 77.8164 152.642C77.4648 152.954 77.0319 153.208 76.5176 153.403C76.0098 153.599 75.4076 153.696 74.7109 153.696ZM87.7773 142.935H89.418V153.276C89.418 154.207 89.2292 155.002 88.8516 155.659C88.474 156.317 87.9466 156.815 87.2695 157.153C86.599 157.498 85.8242 157.671 84.9453 157.671C84.5807 157.671 84.151 157.612 83.6562 157.495C83.168 157.384 82.6862 157.192 82.2109 156.919C81.7422 156.652 81.3483 156.291 81.0293 155.835L81.9766 154.761C82.4193 155.295 82.8815 155.666 83.3633 155.874C83.8516 156.082 84.3333 156.187 84.8086 156.187C85.3815 156.187 85.8763 156.079 86.293 155.864C86.7096 155.649 87.0319 155.33 87.2598 154.907C87.4941 154.491 87.6113 153.976 87.6113 153.364V145.259L87.7773 142.935ZM80.502 148.335V148.13C80.502 147.323 80.5964 146.59 80.7852 145.933C80.9805 145.269 81.2572 144.699 81.6152 144.224C81.9798 143.748 82.4193 143.384 82.9336 143.13C83.4479 142.869 84.0273 142.739 84.6719 142.739C85.3359 142.739 85.9154 142.856 86.4102 143.091C86.9115 143.319 87.3346 143.654 87.6797 144.097C88.0312 144.533 88.3079 145.06 88.5098 145.679C88.7116 146.297 88.8516 146.997 88.9297 147.778V148.677C88.8581 149.451 88.7181 150.148 88.5098 150.767C88.3079 151.385 88.0312 151.912 87.6797 152.349C87.3346 152.785 86.9115 153.12 86.4102 153.354C85.9089 153.582 85.3229 153.696 84.6523 153.696C84.0208 153.696 83.4479 153.563 82.9336 153.296C82.4258 153.029 81.9896 152.655 81.625 152.173C81.2604 151.691 80.9805 151.125 80.7852 150.474C80.5964 149.816 80.502 149.103 80.502 148.335ZM82.3086 148.13V148.335C82.3086 148.862 82.3607 149.357 82.4648 149.819C82.5755 150.282 82.7415 150.688 82.9629 151.04C83.1908 151.392 83.4805 151.668 83.832 151.87C84.1836 152.065 84.6035 152.163 85.0918 152.163C85.6908 152.163 86.1855 152.036 86.5762 151.782C86.9668 151.528 87.276 151.193 87.5039 150.776C87.7383 150.36 87.9206 149.907 88.0508 149.419V147.065C87.9792 146.707 87.8685 146.362 87.7188 146.03C87.5755 145.692 87.3867 145.392 87.1523 145.132C86.9245 144.865 86.6413 144.653 86.3027 144.497C85.9642 144.341 85.5671 144.263 85.1113 144.263C84.6165 144.263 84.1901 144.367 83.832 144.575C83.4805 144.777 83.1908 145.057 82.9629 145.415C82.7415 145.767 82.5755 146.177 82.4648 146.646C82.3607 147.108 82.3086 147.603 82.3086 148.13ZM91.6836 148.335V148.11C91.6836 147.349 91.7943 146.642 92.0156 145.991C92.237 145.334 92.556 144.764 92.9727 144.282C93.3893 143.794 93.8939 143.416 94.4863 143.149C95.0788 142.876 95.7428 142.739 96.4785 142.739C97.2207 142.739 97.888 142.876 98.4805 143.149C99.0794 143.416 99.5872 143.794 100.004 144.282C100.427 144.764 100.749 145.334 100.971 145.991C101.192 146.642 101.303 147.349 101.303 148.11V148.335C101.303 149.097 101.192 149.803 100.971 150.454C100.749 151.105 100.427 151.675 100.004 152.163C99.5872 152.645 99.0827 153.022 98.4902 153.296C97.9043 153.563 97.2402 153.696 96.498 153.696C95.7559 153.696 95.0885 153.563 94.4961 153.296C93.9036 153.022 93.3958 152.645 92.9727 152.163C92.556 151.675 92.237 151.105 92.0156 150.454C91.7943 149.803 91.6836 149.097 91.6836 148.335ZM93.4902 148.11V148.335C93.4902 148.862 93.5521 149.36 93.6758 149.829C93.7995 150.291 93.985 150.701 94.2324 151.06C94.4863 151.418 94.8021 151.701 95.1797 151.909C95.5573 152.111 95.9967 152.212 96.498 152.212C96.9928 152.212 97.4258 152.111 97.7969 151.909C98.1745 151.701 98.487 151.418 98.7344 151.06C98.9818 150.701 99.1673 150.291 99.291 149.829C99.4212 149.36 99.4863 148.862 99.4863 148.335V148.11C99.4863 147.59 99.4212 147.098 99.291 146.636C99.1673 146.167 98.9785 145.754 98.7246 145.396C98.4772 145.031 98.1647 144.744 97.7871 144.536C97.416 144.328 96.9798 144.224 96.4785 144.224C95.9837 144.224 95.5475 144.328 95.1699 144.536C94.7988 144.744 94.4863 145.031 94.2324 145.396C93.985 145.754 93.7995 146.167 93.6758 146.636C93.5521 147.098 93.4902 147.59 93.4902 148.11ZM105.375 144.595V153.501H103.568V142.935H105.326L105.375 144.595ZM108.676 142.876L108.666 144.556C108.516 144.523 108.373 144.504 108.236 144.497C108.106 144.484 107.956 144.478 107.787 144.478C107.37 144.478 107.003 144.543 106.684 144.673C106.365 144.803 106.094 144.985 105.873 145.22C105.652 145.454 105.476 145.734 105.346 146.06C105.222 146.379 105.141 146.73 105.102 147.114L104.594 147.407C104.594 146.769 104.656 146.17 104.779 145.61C104.91 145.05 105.108 144.556 105.375 144.126C105.642 143.69 105.98 143.351 106.391 143.11C106.807 142.863 107.302 142.739 107.875 142.739C108.005 142.739 108.155 142.756 108.324 142.788C108.493 142.814 108.611 142.843 108.676 142.876ZM113.49 152.407L116.43 142.935H118.363L114.125 155.132C114.027 155.392 113.897 155.672 113.734 155.972C113.578 156.278 113.376 156.567 113.129 156.841C112.882 157.114 112.582 157.336 112.23 157.505C111.885 157.681 111.472 157.769 110.99 157.769C110.847 157.769 110.665 157.749 110.443 157.71C110.222 157.671 110.066 157.638 109.975 157.612L109.965 156.147C110.017 156.154 110.098 156.16 110.209 156.167C110.326 156.18 110.408 156.187 110.453 156.187C110.863 156.187 111.212 156.131 111.498 156.021C111.785 155.916 112.025 155.737 112.221 155.483C112.423 155.236 112.595 154.894 112.738 154.458L113.49 152.407ZM111.332 142.935L114.076 151.138L114.545 153.042L113.246 153.706L109.359 142.935H111.332Z" fill="#686868"/>
<g clip-path="url(#clip1_17089_8359)">
<rect width="158" height="118.5" transform="translate(170 0.000976562)" fill="#E3E3E3"/>
</g>
<path d="M218.734 148.979H220.609C220.512 149.878 220.255 150.682 219.838 151.392C219.421 152.101 218.832 152.664 218.07 153.081C217.309 153.491 216.358 153.696 215.219 153.696C214.385 153.696 213.627 153.54 212.943 153.228C212.266 152.915 211.684 152.472 211.195 151.899C210.707 151.32 210.329 150.627 210.062 149.819C209.802 149.006 209.672 148.101 209.672 147.104V145.688C209.672 144.692 209.802 143.791 210.062 142.983C210.329 142.17 210.71 141.473 211.205 140.894C211.706 140.314 212.309 139.868 213.012 139.556C213.715 139.243 214.506 139.087 215.385 139.087C216.459 139.087 217.367 139.289 218.109 139.692C218.852 140.096 219.428 140.656 219.838 141.372C220.255 142.082 220.512 142.905 220.609 143.843H218.734C218.643 143.179 218.474 142.609 218.227 142.134C217.979 141.652 217.628 141.281 217.172 141.021C216.716 140.76 216.12 140.63 215.385 140.63C214.753 140.63 214.197 140.75 213.715 140.991C213.24 141.232 212.839 141.574 212.514 142.017C212.195 142.459 211.954 142.99 211.791 143.608C211.628 144.227 211.547 144.914 211.547 145.669V147.104C211.547 147.801 211.618 148.455 211.762 149.067C211.911 149.679 212.136 150.216 212.436 150.679C212.735 151.141 213.116 151.506 213.578 151.772C214.04 152.033 214.587 152.163 215.219 152.163C216.02 152.163 216.658 152.036 217.133 151.782C217.608 151.528 217.966 151.164 218.207 150.688C218.454 150.213 218.63 149.644 218.734 148.979ZM229.135 151.694V146.255C229.135 145.838 229.05 145.477 228.881 145.171C228.718 144.858 228.471 144.618 228.139 144.448C227.807 144.279 227.396 144.194 226.908 144.194C226.452 144.194 226.052 144.272 225.707 144.429C225.368 144.585 225.102 144.79 224.906 145.044C224.717 145.298 224.623 145.571 224.623 145.864H222.816C222.816 145.487 222.914 145.112 223.109 144.741C223.305 144.37 223.585 144.035 223.949 143.735C224.32 143.429 224.763 143.188 225.277 143.013C225.798 142.83 226.378 142.739 227.016 142.739C227.784 142.739 228.461 142.869 229.047 143.13C229.639 143.39 230.102 143.784 230.434 144.312C230.772 144.832 230.941 145.487 230.941 146.274V151.196C230.941 151.548 230.971 151.922 231.029 152.319C231.094 152.716 231.189 153.058 231.312 153.345V153.501H229.428C229.337 153.293 229.265 153.016 229.213 152.671C229.161 152.319 229.135 151.994 229.135 151.694ZM229.447 147.095L229.467 148.364H227.641C227.126 148.364 226.667 148.407 226.264 148.491C225.86 148.569 225.521 148.69 225.248 148.853C224.975 149.015 224.766 149.22 224.623 149.468C224.48 149.709 224.408 149.992 224.408 150.317C224.408 150.649 224.483 150.952 224.633 151.226C224.783 151.499 225.007 151.717 225.307 151.88C225.613 152.036 225.987 152.114 226.43 152.114C226.983 152.114 227.471 151.997 227.895 151.763C228.318 151.528 228.653 151.242 228.9 150.903C229.154 150.565 229.291 150.236 229.311 149.917L230.082 150.786C230.036 151.06 229.913 151.362 229.711 151.694C229.509 152.026 229.239 152.345 228.9 152.651C228.568 152.951 228.171 153.201 227.709 153.403C227.253 153.599 226.739 153.696 226.166 153.696C225.45 153.696 224.822 153.556 224.281 153.276C223.747 152.996 223.331 152.622 223.031 152.153C222.738 151.678 222.592 151.147 222.592 150.562C222.592 149.995 222.702 149.497 222.924 149.067C223.145 148.631 223.464 148.27 223.881 147.983C224.298 147.69 224.799 147.469 225.385 147.319C225.971 147.17 226.625 147.095 227.348 147.095H229.447ZM238.207 142.935V144.321H232.494V142.935H238.207ZM234.428 140.366H236.234V150.884C236.234 151.242 236.29 151.512 236.4 151.694C236.511 151.877 236.654 151.997 236.83 152.056C237.006 152.114 237.195 152.144 237.396 152.144C237.546 152.144 237.702 152.131 237.865 152.104C238.035 152.072 238.161 152.046 238.246 152.026L238.256 153.501C238.113 153.547 237.924 153.589 237.689 153.628C237.462 153.674 237.185 153.696 236.859 153.696C236.417 153.696 236.01 153.608 235.639 153.433C235.268 153.257 234.971 152.964 234.75 152.554C234.535 152.137 234.428 151.577 234.428 150.874V140.366ZM244.711 153.696C243.975 153.696 243.308 153.573 242.709 153.325C242.117 153.071 241.605 152.716 241.176 152.261C240.753 151.805 240.427 151.265 240.199 150.64C239.971 150.015 239.857 149.331 239.857 148.589V148.179C239.857 147.319 239.984 146.554 240.238 145.884C240.492 145.207 240.837 144.634 241.273 144.165C241.71 143.696 242.204 143.341 242.758 143.101C243.311 142.86 243.884 142.739 244.477 142.739C245.232 142.739 245.883 142.869 246.43 143.13C246.983 143.39 247.436 143.755 247.787 144.224C248.139 144.686 248.399 145.233 248.568 145.864C248.738 146.489 248.822 147.173 248.822 147.915V148.726H240.932V147.251H247.016V147.114C246.99 146.646 246.892 146.19 246.723 145.747C246.56 145.304 246.299 144.94 245.941 144.653C245.583 144.367 245.095 144.224 244.477 144.224C244.066 144.224 243.689 144.312 243.344 144.487C242.999 144.657 242.702 144.91 242.455 145.249C242.208 145.588 242.016 146.001 241.879 146.489C241.742 146.978 241.674 147.541 241.674 148.179V148.589C241.674 149.09 241.742 149.562 241.879 150.005C242.022 150.441 242.227 150.825 242.494 151.157C242.768 151.489 243.096 151.75 243.48 151.938C243.871 152.127 244.314 152.222 244.809 152.222C245.447 152.222 245.987 152.091 246.43 151.831C246.872 151.571 247.26 151.222 247.592 150.786L248.686 151.655C248.458 152 248.168 152.329 247.816 152.642C247.465 152.954 247.032 153.208 246.518 153.403C246.01 153.599 245.408 153.696 244.711 153.696ZM257.777 142.935H259.418V153.276C259.418 154.207 259.229 155.002 258.852 155.659C258.474 156.317 257.947 156.815 257.27 157.153C256.599 157.498 255.824 157.671 254.945 157.671C254.581 157.671 254.151 157.612 253.656 157.495C253.168 157.384 252.686 157.192 252.211 156.919C251.742 156.652 251.348 156.291 251.029 155.835L251.977 154.761C252.419 155.295 252.882 155.666 253.363 155.874C253.852 156.082 254.333 156.187 254.809 156.187C255.382 156.187 255.876 156.079 256.293 155.864C256.71 155.649 257.032 155.33 257.26 154.907C257.494 154.491 257.611 153.976 257.611 153.364V145.259L257.777 142.935ZM250.502 148.335V148.13C250.502 147.323 250.596 146.59 250.785 145.933C250.98 145.269 251.257 144.699 251.615 144.224C251.98 143.748 252.419 143.384 252.934 143.13C253.448 142.869 254.027 142.739 254.672 142.739C255.336 142.739 255.915 142.856 256.41 143.091C256.911 143.319 257.335 143.654 257.68 144.097C258.031 144.533 258.308 145.06 258.51 145.679C258.712 146.297 258.852 146.997 258.93 147.778V148.677C258.858 149.451 258.718 150.148 258.51 150.767C258.308 151.385 258.031 151.912 257.68 152.349C257.335 152.785 256.911 153.12 256.41 153.354C255.909 153.582 255.323 153.696 254.652 153.696C254.021 153.696 253.448 153.563 252.934 153.296C252.426 153.029 251.99 152.655 251.625 152.173C251.26 151.691 250.98 151.125 250.785 150.474C250.596 149.816 250.502 149.103 250.502 148.335ZM252.309 148.13V148.335C252.309 148.862 252.361 149.357 252.465 149.819C252.576 150.282 252.742 150.688 252.963 151.04C253.191 151.392 253.48 151.668 253.832 151.87C254.184 152.065 254.604 152.163 255.092 152.163C255.691 152.163 256.186 152.036 256.576 151.782C256.967 151.528 257.276 151.193 257.504 150.776C257.738 150.36 257.921 149.907 258.051 149.419V147.065C257.979 146.707 257.868 146.362 257.719 146.03C257.576 145.692 257.387 145.392 257.152 145.132C256.924 144.865 256.641 144.653 256.303 144.497C255.964 144.341 255.567 144.263 255.111 144.263C254.617 144.263 254.19 144.367 253.832 144.575C253.48 144.777 253.191 145.057 252.963 145.415C252.742 145.767 252.576 146.177 252.465 146.646C252.361 147.108 252.309 147.603 252.309 148.13ZM261.684 148.335V148.11C261.684 147.349 261.794 146.642 262.016 145.991C262.237 145.334 262.556 144.764 262.973 144.282C263.389 143.794 263.894 143.416 264.486 143.149C265.079 142.876 265.743 142.739 266.479 142.739C267.221 142.739 267.888 142.876 268.48 143.149C269.079 143.416 269.587 143.794 270.004 144.282C270.427 144.764 270.749 145.334 270.971 145.991C271.192 146.642 271.303 147.349 271.303 148.11V148.335C271.303 149.097 271.192 149.803 270.971 150.454C270.749 151.105 270.427 151.675 270.004 152.163C269.587 152.645 269.083 153.022 268.49 153.296C267.904 153.563 267.24 153.696 266.498 153.696C265.756 153.696 265.089 153.563 264.496 153.296C263.904 153.022 263.396 152.645 262.973 152.163C262.556 151.675 262.237 151.105 262.016 150.454C261.794 149.803 261.684 149.097 261.684 148.335ZM263.49 148.11V148.335C263.49 148.862 263.552 149.36 263.676 149.829C263.799 150.291 263.985 150.701 264.232 151.06C264.486 151.418 264.802 151.701 265.18 151.909C265.557 152.111 265.997 152.212 266.498 152.212C266.993 152.212 267.426 152.111 267.797 151.909C268.174 151.701 268.487 151.418 268.734 151.06C268.982 150.701 269.167 150.291 269.291 149.829C269.421 149.36 269.486 148.862 269.486 148.335V148.11C269.486 147.59 269.421 147.098 269.291 146.636C269.167 146.167 268.979 145.754 268.725 145.396C268.477 145.031 268.165 144.744 267.787 144.536C267.416 144.328 266.98 144.224 266.479 144.224C265.984 144.224 265.548 144.328 265.17 144.536C264.799 144.744 264.486 145.031 264.232 145.396C263.985 145.754 263.799 146.167 263.676 146.636C263.552 147.098 263.49 147.59 263.49 148.11ZM275.375 144.595V153.501H273.568V142.935H275.326L275.375 144.595ZM278.676 142.876L278.666 144.556C278.516 144.523 278.373 144.504 278.236 144.497C278.106 144.484 277.956 144.478 277.787 144.478C277.37 144.478 277.003 144.543 276.684 144.673C276.365 144.803 276.094 144.985 275.873 145.22C275.652 145.454 275.476 145.734 275.346 146.06C275.222 146.379 275.141 146.73 275.102 147.114L274.594 147.407C274.594 146.769 274.656 146.17 274.779 145.61C274.91 145.05 275.108 144.556 275.375 144.126C275.642 143.69 275.98 143.351 276.391 143.11C276.807 142.863 277.302 142.739 277.875 142.739C278.005 142.739 278.155 142.756 278.324 142.788C278.493 142.814 278.611 142.843 278.676 142.876ZM283.49 152.407L286.43 142.935H288.363L284.125 155.132C284.027 155.392 283.897 155.672 283.734 155.972C283.578 156.278 283.376 156.567 283.129 156.841C282.882 157.114 282.582 157.336 282.23 157.505C281.885 157.681 281.472 157.769 280.99 157.769C280.847 157.769 280.665 157.749 280.443 157.71C280.222 157.671 280.066 157.638 279.975 157.612L279.965 156.147C280.017 156.154 280.098 156.16 280.209 156.167C280.326 156.18 280.408 156.187 280.453 156.187C280.863 156.187 281.212 156.131 281.498 156.021C281.785 155.916 282.025 155.737 282.221 155.483C282.423 155.236 282.595 154.894 282.738 154.458L283.49 152.407ZM281.332 142.935L284.076 151.138L284.545 153.042L283.246 153.706L279.359 142.935H281.332Z" fill="#686868"/>
<g clip-path="url(#clip2_17089_8359)">
<rect width="158" height="118.5" transform="translate(0 182.501)" fill="#E3E3E3"/>
</g>
<path d="M48.7344 331.479H50.6094C50.5117 332.378 50.2546 333.182 49.8379 333.892C49.4212 334.601 48.832 335.164 48.0703 335.581C47.3086 335.991 46.3581 336.196 45.2188 336.196C44.3854 336.196 43.627 336.04 42.9434 335.728C42.2663 335.415 41.6836 334.972 41.1953 334.399C40.707 333.82 40.3294 333.127 40.0625 332.319C39.8021 331.506 39.6719 330.601 39.6719 329.604V328.188C39.6719 327.192 39.8021 326.291 40.0625 325.483C40.3294 324.67 40.7103 323.973 41.2051 323.394C41.7064 322.814 42.3086 322.368 43.0117 322.056C43.7148 321.743 44.5059 321.587 45.3848 321.587C46.459 321.587 47.3672 321.789 48.1094 322.192C48.8516 322.596 49.4277 323.156 49.8379 323.872C50.2546 324.582 50.5117 325.405 50.6094 326.343H48.7344C48.6432 325.679 48.474 325.109 48.2266 324.634C47.9792 324.152 47.6276 323.781 47.1719 323.521C46.7161 323.26 46.1204 323.13 45.3848 323.13C44.7533 323.13 44.1966 323.25 43.7148 323.491C43.2396 323.732 42.8392 324.074 42.5137 324.517C42.1947 324.959 41.9538 325.49 41.791 326.108C41.6283 326.727 41.5469 327.414 41.5469 328.169V329.604C41.5469 330.301 41.6185 330.955 41.7617 331.567C41.9115 332.179 42.1361 332.716 42.4355 333.179C42.735 333.641 43.1159 334.006 43.5781 334.272C44.0404 334.533 44.5872 334.663 45.2188 334.663C46.0195 334.663 46.6576 334.536 47.1328 334.282C47.6081 334.028 47.9661 333.664 48.207 333.188C48.4544 332.713 48.6302 332.144 48.7344 331.479ZM59.1348 334.194V328.755C59.1348 328.338 59.0501 327.977 58.8809 327.671C58.7181 327.358 58.4707 327.118 58.1387 326.948C57.8066 326.779 57.3965 326.694 56.9082 326.694C56.4525 326.694 56.0521 326.772 55.707 326.929C55.3685 327.085 55.1016 327.29 54.9062 327.544C54.7174 327.798 54.623 328.071 54.623 328.364H52.8164C52.8164 327.987 52.9141 327.612 53.1094 327.241C53.3047 326.87 53.5846 326.535 53.9492 326.235C54.3203 325.929 54.763 325.688 55.2773 325.513C55.7982 325.33 56.3776 325.239 57.0156 325.239C57.7839 325.239 58.4609 325.369 59.0469 325.63C59.6393 325.89 60.1016 326.284 60.4336 326.812C60.7721 327.332 60.9414 327.987 60.9414 328.774V333.696C60.9414 334.048 60.9707 334.422 61.0293 334.819C61.0944 335.216 61.1888 335.558 61.3125 335.845V336.001H59.4277C59.3366 335.793 59.265 335.516 59.2129 335.171C59.1608 334.819 59.1348 334.494 59.1348 334.194ZM59.4473 329.595L59.4668 330.864H57.6406C57.1263 330.864 56.6673 330.907 56.2637 330.991C55.86 331.069 55.5215 331.19 55.248 331.353C54.9746 331.515 54.7663 331.72 54.623 331.968C54.4798 332.209 54.4082 332.492 54.4082 332.817C54.4082 333.149 54.4831 333.452 54.6328 333.726C54.7826 333.999 55.0072 334.217 55.3066 334.38C55.6126 334.536 55.987 334.614 56.4297 334.614C56.9831 334.614 57.4714 334.497 57.8945 334.263C58.3177 334.028 58.653 333.742 58.9004 333.403C59.1543 333.065 59.291 332.736 59.3105 332.417L60.082 333.286C60.0365 333.56 59.9128 333.862 59.7109 334.194C59.5091 334.526 59.2389 334.845 58.9004 335.151C58.5684 335.451 58.1712 335.701 57.709 335.903C57.2533 336.099 56.7389 336.196 56.166 336.196C55.4499 336.196 54.8216 336.056 54.2812 335.776C53.7474 335.496 53.3307 335.122 53.0312 334.653C52.7383 334.178 52.5918 333.647 52.5918 333.062C52.5918 332.495 52.7025 331.997 52.9238 331.567C53.1452 331.131 53.4642 330.77 53.8809 330.483C54.2975 330.19 54.7988 329.969 55.3848 329.819C55.9707 329.67 56.625 329.595 57.3477 329.595H59.4473ZM68.207 325.435V326.821H62.4941V325.435H68.207ZM64.4277 322.866H66.2344V333.384C66.2344 333.742 66.2897 334.012 66.4004 334.194C66.5111 334.377 66.6543 334.497 66.8301 334.556C67.0059 334.614 67.1947 334.644 67.3965 334.644C67.5462 334.644 67.7025 334.631 67.8652 334.604C68.0345 334.572 68.1615 334.546 68.2461 334.526L68.2559 336.001C68.1126 336.047 67.9238 336.089 67.6895 336.128C67.4616 336.174 67.1849 336.196 66.8594 336.196C66.4167 336.196 66.0098 336.108 65.6387 335.933C65.2676 335.757 64.9714 335.464 64.75 335.054C64.5352 334.637 64.4277 334.077 64.4277 333.374V322.866ZM74.7109 336.196C73.9753 336.196 73.3079 336.073 72.709 335.825C72.1165 335.571 71.6055 335.216 71.1758 334.761C70.7526 334.305 70.4271 333.765 70.1992 333.14C69.9714 332.515 69.8574 331.831 69.8574 331.089V330.679C69.8574 329.819 69.9844 329.054 70.2383 328.384C70.4922 327.707 70.8372 327.134 71.2734 326.665C71.7096 326.196 72.2044 325.841 72.7578 325.601C73.3112 325.36 73.8841 325.239 74.4766 325.239C75.2318 325.239 75.8828 325.369 76.4297 325.63C76.9831 325.89 77.4355 326.255 77.7871 326.724C78.1387 327.186 78.3991 327.733 78.5684 328.364C78.7376 328.989 78.8223 329.673 78.8223 330.415V331.226H70.9316V329.751H77.0156V329.614C76.9896 329.146 76.8919 328.69 76.7227 328.247C76.5599 327.804 76.2995 327.44 75.9414 327.153C75.5833 326.867 75.0951 326.724 74.4766 326.724C74.0664 326.724 73.6888 326.812 73.3438 326.987C72.9987 327.157 72.7025 327.41 72.4551 327.749C72.2077 328.088 72.0156 328.501 71.8789 328.989C71.7422 329.478 71.6738 330.041 71.6738 330.679V331.089C71.6738 331.59 71.7422 332.062 71.8789 332.505C72.0221 332.941 72.2272 333.325 72.4941 333.657C72.7676 333.989 73.0964 334.25 73.4805 334.438C73.8711 334.627 74.3138 334.722 74.8086 334.722C75.4466 334.722 75.987 334.591 76.4297 334.331C76.8724 334.071 77.2598 333.722 77.5918 333.286L78.6855 334.155C78.4577 334.5 78.168 334.829 77.8164 335.142C77.4648 335.454 77.0319 335.708 76.5176 335.903C76.0098 336.099 75.4076 336.196 74.7109 336.196ZM87.7773 325.435H89.418V335.776C89.418 336.707 89.2292 337.502 88.8516 338.159C88.474 338.817 87.9466 339.315 87.2695 339.653C86.599 339.998 85.8242 340.171 84.9453 340.171C84.5807 340.171 84.151 340.112 83.6562 339.995C83.168 339.884 82.6862 339.692 82.2109 339.419C81.7422 339.152 81.3483 338.791 81.0293 338.335L81.9766 337.261C82.4193 337.795 82.8815 338.166 83.3633 338.374C83.8516 338.582 84.3333 338.687 84.8086 338.687C85.3815 338.687 85.8763 338.579 86.293 338.364C86.7096 338.149 87.0319 337.83 87.2598 337.407C87.4941 336.991 87.6113 336.476 87.6113 335.864V327.759L87.7773 325.435ZM80.502 330.835V330.63C80.502 329.823 80.5964 329.09 80.7852 328.433C80.9805 327.769 81.2572 327.199 81.6152 326.724C81.9798 326.248 82.4193 325.884 82.9336 325.63C83.4479 325.369 84.0273 325.239 84.6719 325.239C85.3359 325.239 85.9154 325.356 86.4102 325.591C86.9115 325.819 87.3346 326.154 87.6797 326.597C88.0312 327.033 88.3079 327.56 88.5098 328.179C88.7116 328.797 88.8516 329.497 88.9297 330.278V331.177C88.8581 331.951 88.7181 332.648 88.5098 333.267C88.3079 333.885 88.0312 334.412 87.6797 334.849C87.3346 335.285 86.9115 335.62 86.4102 335.854C85.9089 336.082 85.3229 336.196 84.6523 336.196C84.0208 336.196 83.4479 336.063 82.9336 335.796C82.4258 335.529 81.9896 335.155 81.625 334.673C81.2604 334.191 80.9805 333.625 80.7852 332.974C80.5964 332.316 80.502 331.603 80.502 330.835ZM82.3086 330.63V330.835C82.3086 331.362 82.3607 331.857 82.4648 332.319C82.5755 332.782 82.7415 333.188 82.9629 333.54C83.1908 333.892 83.4805 334.168 83.832 334.37C84.1836 334.565 84.6035 334.663 85.0918 334.663C85.6908 334.663 86.1855 334.536 86.5762 334.282C86.9668 334.028 87.276 333.693 87.5039 333.276C87.7383 332.86 87.9206 332.407 88.0508 331.919V329.565C87.9792 329.207 87.8685 328.862 87.7188 328.53C87.5755 328.192 87.3867 327.892 87.1523 327.632C86.9245 327.365 86.6413 327.153 86.3027 326.997C85.9642 326.841 85.5671 326.763 85.1113 326.763C84.6165 326.763 84.1901 326.867 83.832 327.075C83.4805 327.277 83.1908 327.557 82.9629 327.915C82.7415 328.267 82.5755 328.677 82.4648 329.146C82.3607 329.608 82.3086 330.103 82.3086 330.63ZM91.6836 330.835V330.61C91.6836 329.849 91.7943 329.142 92.0156 328.491C92.237 327.834 92.556 327.264 92.9727 326.782C93.3893 326.294 93.8939 325.916 94.4863 325.649C95.0788 325.376 95.7428 325.239 96.4785 325.239C97.2207 325.239 97.888 325.376 98.4805 325.649C99.0794 325.916 99.5872 326.294 100.004 326.782C100.427 327.264 100.749 327.834 100.971 328.491C101.192 329.142 101.303 329.849 101.303 330.61V330.835C101.303 331.597 101.192 332.303 100.971 332.954C100.749 333.605 100.427 334.175 100.004 334.663C99.5872 335.145 99.0827 335.522 98.4902 335.796C97.9043 336.063 97.2402 336.196 96.498 336.196C95.7559 336.196 95.0885 336.063 94.4961 335.796C93.9036 335.522 93.3958 335.145 92.9727 334.663C92.556 334.175 92.237 333.605 92.0156 332.954C91.7943 332.303 91.6836 331.597 91.6836 330.835ZM93.4902 330.61V330.835C93.4902 331.362 93.5521 331.86 93.6758 332.329C93.7995 332.791 93.985 333.201 94.2324 333.56C94.4863 333.918 94.8021 334.201 95.1797 334.409C95.5573 334.611 95.9967 334.712 96.498 334.712C96.9928 334.712 97.4258 334.611 97.7969 334.409C98.1745 334.201 98.487 333.918 98.7344 333.56C98.9818 333.201 99.1673 332.791 99.291 332.329C99.4212 331.86 99.4863 331.362 99.4863 330.835V330.61C99.4863 330.09 99.4212 329.598 99.291 329.136C99.1673 328.667 98.9785 328.254 98.7246 327.896C98.4772 327.531 98.1647 327.244 97.7871 327.036C97.416 326.828 96.9798 326.724 96.4785 326.724C95.9837 326.724 95.5475 326.828 95.1699 327.036C94.7988 327.244 94.4863 327.531 94.2324 327.896C93.985 328.254 93.7995 328.667 93.6758 329.136C93.5521 329.598 93.4902 330.09 93.4902 330.61ZM105.375 327.095V336.001H103.568V325.435H105.326L105.375 327.095ZM108.676 325.376L108.666 327.056C108.516 327.023 108.373 327.004 108.236 326.997C108.106 326.984 107.956 326.978 107.787 326.978C107.37 326.978 107.003 327.043 106.684 327.173C106.365 327.303 106.094 327.485 105.873 327.72C105.652 327.954 105.476 328.234 105.346 328.56C105.222 328.879 105.141 329.23 105.102 329.614L104.594 329.907C104.594 329.269 104.656 328.67 104.779 328.11C104.91 327.55 105.108 327.056 105.375 326.626C105.642 326.19 105.98 325.851 106.391 325.61C106.807 325.363 107.302 325.239 107.875 325.239C108.005 325.239 108.155 325.256 108.324 325.288C108.493 325.314 108.611 325.343 108.676 325.376ZM113.49 334.907L116.43 325.435H118.363L114.125 337.632C114.027 337.892 113.897 338.172 113.734 338.472C113.578 338.778 113.376 339.067 113.129 339.341C112.882 339.614 112.582 339.836 112.23 340.005C111.885 340.181 111.472 340.269 110.99 340.269C110.847 340.269 110.665 340.249 110.443 340.21C110.222 340.171 110.066 340.138 109.975 340.112L109.965 338.647C110.017 338.654 110.098 338.66 110.209 338.667C110.326 338.68 110.408 338.687 110.453 338.687C110.863 338.687 111.212 338.631 111.498 338.521C111.785 338.416 112.025 338.237 112.221 337.983C112.423 337.736 112.595 337.394 112.738 336.958L113.49 334.907ZM111.332 325.435L114.076 333.638L114.545 335.542L113.246 336.206L109.359 325.435H111.332Z" fill="#686868"/>
<g clip-path="url(#clip3_17089_8359)">
<rect width="158" height="118.5" transform="translate(170 182.501)" fill="#E3E3E3"/>
</g>
<path d="M218.734 331.479H220.609C220.512 332.378 220.255 333.182 219.838 333.892C219.421 334.601 218.832 335.164 218.07 335.581C217.309 335.991 216.358 336.196 215.219 336.196C214.385 336.196 213.627 336.04 212.943 335.728C212.266 335.415 211.684 334.972 211.195 334.399C210.707 333.82 210.329 333.127 210.062 332.319C209.802 331.506 209.672 330.601 209.672 329.604V328.188C209.672 327.192 209.802 326.291 210.062 325.483C210.329 324.67 210.71 323.973 211.205 323.394C211.706 322.814 212.309 322.368 213.012 322.056C213.715 321.743 214.506 321.587 215.385 321.587C216.459 321.587 217.367 321.789 218.109 322.192C218.852 322.596 219.428 323.156 219.838 323.872C220.255 324.582 220.512 325.405 220.609 326.343H218.734C218.643 325.679 218.474 325.109 218.227 324.634C217.979 324.152 217.628 323.781 217.172 323.521C216.716 323.26 216.12 323.13 215.385 323.13C214.753 323.13 214.197 323.25 213.715 323.491C213.24 323.732 212.839 324.074 212.514 324.517C212.195 324.959 211.954 325.49 211.791 326.108C211.628 326.727 211.547 327.414 211.547 328.169V329.604C211.547 330.301 211.618 330.955 211.762 331.567C211.911 332.179 212.136 332.716 212.436 333.179C212.735 333.641 213.116 334.006 213.578 334.272C214.04 334.533 214.587 334.663 215.219 334.663C216.02 334.663 216.658 334.536 217.133 334.282C217.608 334.028 217.966 333.664 218.207 333.188C218.454 332.713 218.63 332.144 218.734 331.479ZM229.135 334.194V328.755C229.135 328.338 229.05 327.977 228.881 327.671C228.718 327.358 228.471 327.118 228.139 326.948C227.807 326.779 227.396 326.694 226.908 326.694C226.452 326.694 226.052 326.772 225.707 326.929C225.368 327.085 225.102 327.29 224.906 327.544C224.717 327.798 224.623 328.071 224.623 328.364H222.816C222.816 327.987 222.914 327.612 223.109 327.241C223.305 326.87 223.585 326.535 223.949 326.235C224.32 325.929 224.763 325.688 225.277 325.513C225.798 325.33 226.378 325.239 227.016 325.239C227.784 325.239 228.461 325.369 229.047 325.63C229.639 325.89 230.102 326.284 230.434 326.812C230.772 327.332 230.941 327.987 230.941 328.774V333.696C230.941 334.048 230.971 334.422 231.029 334.819C231.094 335.216 231.189 335.558 231.312 335.845V336.001H229.428C229.337 335.793 229.265 335.516 229.213 335.171C229.161 334.819 229.135 334.494 229.135 334.194ZM229.447 329.595L229.467 330.864H227.641C227.126 330.864 226.667 330.907 226.264 330.991C225.86 331.069 225.521 331.19 225.248 331.353C224.975 331.515 224.766 331.72 224.623 331.968C224.48 332.209 224.408 332.492 224.408 332.817C224.408 333.149 224.483 333.452 224.633 333.726C224.783 333.999 225.007 334.217 225.307 334.38C225.613 334.536 225.987 334.614 226.43 334.614C226.983 334.614 227.471 334.497 227.895 334.263C228.318 334.028 228.653 333.742 228.9 333.403C229.154 333.065 229.291 332.736 229.311 332.417L230.082 333.286C230.036 333.56 229.913 333.862 229.711 334.194C229.509 334.526 229.239 334.845 228.9 335.151C228.568 335.451 228.171 335.701 227.709 335.903C227.253 336.099 226.739 336.196 226.166 336.196C225.45 336.196 224.822 336.056 224.281 335.776C223.747 335.496 223.331 335.122 223.031 334.653C222.738 334.178 222.592 333.647 222.592 333.062C222.592 332.495 222.702 331.997 222.924 331.567C223.145 331.131 223.464 330.77 223.881 330.483C224.298 330.19 224.799 329.969 225.385 329.819C225.971 329.67 226.625 329.595 227.348 329.595H229.447ZM238.207 325.435V326.821H232.494V325.435H238.207ZM234.428 322.866H236.234V333.384C236.234 333.742 236.29 334.012 236.4 334.194C236.511 334.377 236.654 334.497 236.83 334.556C237.006 334.614 237.195 334.644 237.396 334.644C237.546 334.644 237.702 334.631 237.865 334.604C238.035 334.572 238.161 334.546 238.246 334.526L238.256 336.001C238.113 336.047 237.924 336.089 237.689 336.128C237.462 336.174 237.185 336.196 236.859 336.196C236.417 336.196 236.01 336.108 235.639 335.933C235.268 335.757 234.971 335.464 234.75 335.054C234.535 334.637 234.428 334.077 234.428 333.374V322.866ZM244.711 336.196C243.975 336.196 243.308 336.073 242.709 335.825C242.117 335.571 241.605 335.216 241.176 334.761C240.753 334.305 240.427 333.765 240.199 333.14C239.971 332.515 239.857 331.831 239.857 331.089V330.679C239.857 329.819 239.984 329.054 240.238 328.384C240.492 327.707 240.837 327.134 241.273 326.665C241.71 326.196 242.204 325.841 242.758 325.601C243.311 325.36 243.884 325.239 244.477 325.239C245.232 325.239 245.883 325.369 246.43 325.63C246.983 325.89 247.436 326.255 247.787 326.724C248.139 327.186 248.399 327.733 248.568 328.364C248.738 328.989 248.822 329.673 248.822 330.415V331.226H240.932V329.751H247.016V329.614C246.99 329.146 246.892 328.69 246.723 328.247C246.56 327.804 246.299 327.44 245.941 327.153C245.583 326.867 245.095 326.724 244.477 326.724C244.066 326.724 243.689 326.812 243.344 326.987C242.999 327.157 242.702 327.41 242.455 327.749C242.208 328.088 242.016 328.501 241.879 328.989C241.742 329.478 241.674 330.041 241.674 330.679V331.089C241.674 331.59 241.742 332.062 241.879 332.505C242.022 332.941 242.227 333.325 242.494 333.657C242.768 333.989 243.096 334.25 243.48 334.438C243.871 334.627 244.314 334.722 244.809 334.722C245.447 334.722 245.987 334.591 246.43 334.331C246.872 334.071 247.26 333.722 247.592 333.286L248.686 334.155C248.458 334.5 248.168 334.829 247.816 335.142C247.465 335.454 247.032 335.708 246.518 335.903C246.01 336.099 245.408 336.196 244.711 336.196ZM257.777 325.435H259.418V335.776C259.418 336.707 259.229 337.502 258.852 338.159C258.474 338.817 257.947 339.315 257.27 339.653C256.599 339.998 255.824 340.171 254.945 340.171C254.581 340.171 254.151 340.112 253.656 339.995C253.168 339.884 252.686 339.692 252.211 339.419C251.742 339.152 251.348 338.791 251.029 338.335L251.977 337.261C252.419 337.795 252.882 338.166 253.363 338.374C253.852 338.582 254.333 338.687 254.809 338.687C255.382 338.687 255.876 338.579 256.293 338.364C256.71 338.149 257.032 337.83 257.26 337.407C257.494 336.991 257.611 336.476 257.611 335.864V327.759L257.777 325.435ZM250.502 330.835V330.63C250.502 329.823 250.596 329.09 250.785 328.433C250.98 327.769 251.257 327.199 251.615 326.724C251.98 326.248 252.419 325.884 252.934 325.63C253.448 325.369 254.027 325.239 254.672 325.239C255.336 325.239 255.915 325.356 256.41 325.591C256.911 325.819 257.335 326.154 257.68 326.597C258.031 327.033 258.308 327.56 258.51 328.179C258.712 328.797 258.852 329.497 258.93 330.278V331.177C258.858 331.951 258.718 332.648 258.51 333.267C258.308 333.885 258.031 334.412 257.68 334.849C257.335 335.285 256.911 335.62 256.41 335.854C255.909 336.082 255.323 336.196 254.652 336.196C254.021 336.196 253.448 336.063 252.934 335.796C252.426 335.529 251.99 335.155 251.625 334.673C251.26 334.191 250.98 333.625 250.785 332.974C250.596 332.316 250.502 331.603 250.502 330.835ZM252.309 330.63V330.835C252.309 331.362 252.361 331.857 252.465 332.319C252.576 332.782 252.742 333.188 252.963 333.54C253.191 333.892 253.48 334.168 253.832 334.37C254.184 334.565 254.604 334.663 255.092 334.663C255.691 334.663 256.186 334.536 256.576 334.282C256.967 334.028 257.276 333.693 257.504 333.276C257.738 332.86 257.921 332.407 258.051 331.919V329.565C257.979 329.207 257.868 328.862 257.719 328.53C257.576 328.192 257.387 327.892 257.152 327.632C256.924 327.365 256.641 327.153 256.303 326.997C255.964 326.841 255.567 326.763 255.111 326.763C254.617 326.763 254.19 326.867 253.832 327.075C253.48 327.277 253.191 327.557 252.963 327.915C252.742 328.267 252.576 328.677 252.465 329.146C252.361 329.608 252.309 330.103 252.309 330.63ZM261.684 330.835V330.61C261.684 329.849 261.794 329.142 262.016 328.491C262.237 327.834 262.556 327.264 262.973 326.782C263.389 326.294 263.894 325.916 264.486 325.649C265.079 325.376 265.743 325.239 266.479 325.239C267.221 325.239 267.888 325.376 268.48 325.649C269.079 325.916 269.587 326.294 270.004 326.782C270.427 327.264 270.749 327.834 270.971 328.491C271.192 329.142 271.303 329.849 271.303 330.61V330.835C271.303 331.597 271.192 332.303 270.971 332.954C270.749 333.605 270.427 334.175 270.004 334.663C269.587 335.145 269.083 335.522 268.49 335.796C267.904 336.063 267.24 336.196 266.498 336.196C265.756 336.196 265.089 336.063 264.496 335.796C263.904 335.522 263.396 335.145 262.973 334.663C262.556 334.175 262.237 333.605 262.016 332.954C261.794 332.303 261.684 331.597 261.684 330.835ZM263.49 330.61V330.835C263.49 331.362 263.552 331.86 263.676 332.329C263.799 332.791 263.985 333.201 264.232 333.56C264.486 333.918 264.802 334.201 265.18 334.409C265.557 334.611 265.997 334.712 266.498 334.712C266.993 334.712 267.426 334.611 267.797 334.409C268.174 334.201 268.487 333.918 268.734 333.56C268.982 333.201 269.167 332.791 269.291 332.329C269.421 331.86 269.486 331.362 269.486 330.835V330.61C269.486 330.09 269.421 329.598 269.291 329.136C269.167 328.667 268.979 328.254 268.725 327.896C268.477 327.531 268.165 327.244 267.787 327.036C267.416 326.828 266.98 326.724 266.479 326.724C265.984 326.724 265.548 326.828 265.17 327.036C264.799 327.244 264.486 327.531 264.232 327.896C263.985 328.254 263.799 328.667 263.676 329.136C263.552 329.598 263.49 330.09 263.49 330.61ZM275.375 327.095V336.001H273.568V325.435H275.326L275.375 327.095ZM278.676 325.376L278.666 327.056C278.516 327.023 278.373 327.004 278.236 326.997C278.106 326.984 277.956 326.978 277.787 326.978C277.37 326.978 277.003 327.043 276.684 327.173C276.365 327.303 276.094 327.485 275.873 327.72C275.652 327.954 275.476 328.234 275.346 328.56C275.222 328.879 275.141 329.23 275.102 329.614L274.594 329.907C274.594 329.269 274.656 328.67 274.779 328.11C274.91 327.55 275.108 327.056 275.375 326.626C275.642 326.19 275.98 325.851 276.391 325.61C276.807 325.363 277.302 325.239 277.875 325.239C278.005 325.239 278.155 325.256 278.324 325.288C278.493 325.314 278.611 325.343 278.676 325.376ZM283.49 334.907L286.43 325.435H288.363L284.125 337.632C284.027 337.892 283.897 338.172 283.734 338.472C283.578 338.778 283.376 339.067 283.129 339.341C282.882 339.614 282.582 339.836 282.23 340.005C281.885 340.181 281.472 340.269 280.99 340.269C280.847 340.269 280.665 340.249 280.443 340.21C280.222 340.171 280.066 340.138 279.975 340.112L279.965 338.647C280.017 338.654 280.098 338.66 280.209 338.667C280.326 338.68 280.408 338.687 280.453 338.687C280.863 338.687 281.212 338.631 281.498 338.521C281.785 338.416 282.025 338.237 282.221 337.983C282.423 337.736 282.595 337.394 282.738 336.958L283.49 334.907ZM281.332 325.435L284.076 333.638L284.545 335.542L283.246 336.206L279.359 325.435H281.332Z" fill="#686868"/>
<g clip-path="url(#clip4_17089_8359)">
<rect width="158" height="118.5" transform="translate(0 365.001)" fill="#E3E3E3"/>
</g>
<path d="M48.7344 513.979H50.6094C50.5117 514.878 50.2546 515.682 49.8379 516.392C49.4212 517.101 48.832 517.664 48.0703 518.081C47.3086 518.491 46.3581 518.696 45.2188 518.696C44.3854 518.696 43.627 518.54 42.9434 518.228C42.2663 517.915 41.6836 517.472 41.1953 516.899C40.707 516.32 40.3294 515.627 40.0625 514.819C39.8021 514.006 39.6719 513.101 39.6719 512.104V510.688C39.6719 509.692 39.8021 508.791 40.0625 507.983C40.3294 507.17 40.7103 506.473 41.2051 505.894C41.7064 505.314 42.3086 504.868 43.0117 504.556C43.7148 504.243 44.5059 504.087 45.3848 504.087C46.459 504.087 47.3672 504.289 48.1094 504.692C48.8516 505.096 49.4277 505.656 49.8379 506.372C50.2546 507.082 50.5117 507.905 50.6094 508.843H48.7344C48.6432 508.179 48.474 507.609 48.2266 507.134C47.9792 506.652 47.6276 506.281 47.1719 506.021C46.7161 505.76 46.1204 505.63 45.3848 505.63C44.7533 505.63 44.1966 505.75 43.7148 505.991C43.2396 506.232 42.8392 506.574 42.5137 507.017C42.1947 507.459 41.9538 507.99 41.791 508.608C41.6283 509.227 41.5469 509.914 41.5469 510.669V512.104C41.5469 512.801 41.6185 513.455 41.7617 514.067C41.9115 514.679 42.1361 515.216 42.4355 515.679C42.735 516.141 43.1159 516.506 43.5781 516.772C44.0404 517.033 44.5872 517.163 45.2188 517.163C46.0195 517.163 46.6576 517.036 47.1328 516.782C47.6081 516.528 47.9661 516.164 48.207 515.688C48.4544 515.213 48.6302 514.644 48.7344 513.979ZM59.1348 516.694V511.255C59.1348 510.838 59.0501 510.477 58.8809 510.171C58.7181 509.858 58.4707 509.618 58.1387 509.448C57.8066 509.279 57.3965 509.194 56.9082 509.194C56.4525 509.194 56.0521 509.272 55.707 509.429C55.3685 509.585 55.1016 509.79 54.9062 510.044C54.7174 510.298 54.623 510.571 54.623 510.864H52.8164C52.8164 510.487 52.9141 510.112 53.1094 509.741C53.3047 509.37 53.5846 509.035 53.9492 508.735C54.3203 508.429 54.763 508.188 55.2773 508.013C55.7982 507.83 56.3776 507.739 57.0156 507.739C57.7839 507.739 58.4609 507.869 59.0469 508.13C59.6393 508.39 60.1016 508.784 60.4336 509.312C60.7721 509.832 60.9414 510.487 60.9414 511.274V516.196C60.9414 516.548 60.9707 516.922 61.0293 517.319C61.0944 517.716 61.1888 518.058 61.3125 518.345V518.501H59.4277C59.3366 518.293 59.265 518.016 59.2129 517.671C59.1608 517.319 59.1348 516.994 59.1348 516.694ZM59.4473 512.095L59.4668 513.364H57.6406C57.1263 513.364 56.6673 513.407 56.2637 513.491C55.86 513.569 55.5215 513.69 55.248 513.853C54.9746 514.015 54.7663 514.22 54.623 514.468C54.4798 514.709 54.4082 514.992 54.4082 515.317C54.4082 515.649 54.4831 515.952 54.6328 516.226C54.7826 516.499 55.0072 516.717 55.3066 516.88C55.6126 517.036 55.987 517.114 56.4297 517.114C56.9831 517.114 57.4714 516.997 57.8945 516.763C58.3177 516.528 58.653 516.242 58.9004 515.903C59.1543 515.565 59.291 515.236 59.3105 514.917L60.082 515.786C60.0365 516.06 59.9128 516.362 59.7109 516.694C59.5091 517.026 59.2389 517.345 58.9004 517.651C58.5684 517.951 58.1712 518.201 57.709 518.403C57.2533 518.599 56.7389 518.696 56.166 518.696C55.4499 518.696 54.8216 518.556 54.2812 518.276C53.7474 517.996 53.3307 517.622 53.0312 517.153C52.7383 516.678 52.5918 516.147 52.5918 515.562C52.5918 514.995 52.7025 514.497 52.9238 514.067C53.1452 513.631 53.4642 513.27 53.8809 512.983C54.2975 512.69 54.7988 512.469 55.3848 512.319C55.9707 512.17 56.625 512.095 57.3477 512.095H59.4473ZM68.207 507.935V509.321H62.4941V507.935H68.207ZM64.4277 505.366H66.2344V515.884C66.2344 516.242 66.2897 516.512 66.4004 516.694C66.5111 516.877 66.6543 516.997 66.8301 517.056C67.0059 517.114 67.1947 517.144 67.3965 517.144C67.5462 517.144 67.7025 517.131 67.8652 517.104C68.0345 517.072 68.1615 517.046 68.2461 517.026L68.2559 518.501C68.1126 518.547 67.9238 518.589 67.6895 518.628C67.4616 518.674 67.1849 518.696 66.8594 518.696C66.4167 518.696 66.0098 518.608 65.6387 518.433C65.2676 518.257 64.9714 517.964 64.75 517.554C64.5352 517.137 64.4277 516.577 64.4277 515.874V505.366ZM74.7109 518.696C73.9753 518.696 73.3079 518.573 72.709 518.325C72.1165 518.071 71.6055 517.716 71.1758 517.261C70.7526 516.805 70.4271 516.265 70.1992 515.64C69.9714 515.015 69.8574 514.331 69.8574 513.589V513.179C69.8574 512.319 69.9844 511.554 70.2383 510.884C70.4922 510.207 70.8372 509.634 71.2734 509.165C71.7096 508.696 72.2044 508.341 72.7578 508.101C73.3112 507.86 73.8841 507.739 74.4766 507.739C75.2318 507.739 75.8828 507.869 76.4297 508.13C76.9831 508.39 77.4355 508.755 77.7871 509.224C78.1387 509.686 78.3991 510.233 78.5684 510.864C78.7376 511.489 78.8223 512.173 78.8223 512.915V513.726H70.9316V512.251H77.0156V512.114C76.9896 511.646 76.8919 511.19 76.7227 510.747C76.5599 510.304 76.2995 509.94 75.9414 509.653C75.5833 509.367 75.0951 509.224 74.4766 509.224C74.0664 509.224 73.6888 509.312 73.3438 509.487C72.9987 509.657 72.7025 509.91 72.4551 510.249C72.2077 510.588 72.0156 511.001 71.8789 511.489C71.7422 511.978 71.6738 512.541 71.6738 513.179V513.589C71.6738 514.09 71.7422 514.562 71.8789 515.005C72.0221 515.441 72.2272 515.825 72.4941 516.157C72.7676 516.489 73.0964 516.75 73.4805 516.938C73.8711 517.127 74.3138 517.222 74.8086 517.222C75.4466 517.222 75.987 517.091 76.4297 516.831C76.8724 516.571 77.2598 516.222 77.5918 515.786L78.6855 516.655C78.4577 517 78.168 517.329 77.8164 517.642C77.4648 517.954 77.0319 518.208 76.5176 518.403C76.0098 518.599 75.4076 518.696 74.7109 518.696ZM87.7773 507.935H89.418V518.276C89.418 519.207 89.2292 520.002 88.8516 520.659C88.474 521.317 87.9466 521.815 87.2695 522.153C86.599 522.498 85.8242 522.671 84.9453 522.671C84.5807 522.671 84.151 522.612 83.6562 522.495C83.168 522.384 82.6862 522.192 82.2109 521.919C81.7422 521.652 81.3483 521.291 81.0293 520.835L81.9766 519.761C82.4193 520.295 82.8815 520.666 83.3633 520.874C83.8516 521.082 84.3333 521.187 84.8086 521.187C85.3815 521.187 85.8763 521.079 86.293 520.864C86.7096 520.649 87.0319 520.33 87.2598 519.907C87.4941 519.491 87.6113 518.976 87.6113 518.364V510.259L87.7773 507.935ZM80.502 513.335V513.13C80.502 512.323 80.5964 511.59 80.7852 510.933C80.9805 510.269 81.2572 509.699 81.6152 509.224C81.9798 508.748 82.4193 508.384 82.9336 508.13C83.4479 507.869 84.0273 507.739 84.6719 507.739C85.3359 507.739 85.9154 507.856 86.4102 508.091C86.9115 508.319 87.3346 508.654 87.6797 509.097C88.0312 509.533 88.3079 510.06 88.5098 510.679C88.7116 511.297 88.8516 511.997 88.9297 512.778V513.677C88.8581 514.451 88.7181 515.148 88.5098 515.767C88.3079 516.385 88.0312 516.912 87.6797 517.349C87.3346 517.785 86.9115 518.12 86.4102 518.354C85.9089 518.582 85.3229 518.696 84.6523 518.696C84.0208 518.696 83.4479 518.563 82.9336 518.296C82.4258 518.029 81.9896 517.655 81.625 517.173C81.2604 516.691 80.9805 516.125 80.7852 515.474C80.5964 514.816 80.502 514.103 80.502 513.335ZM82.3086 513.13V513.335C82.3086 513.862 82.3607 514.357 82.4648 514.819C82.5755 515.282 82.7415 515.688 82.9629 516.04C83.1908 516.392 83.4805 516.668 83.832 516.87C84.1836 517.065 84.6035 517.163 85.0918 517.163C85.6908 517.163 86.1855 517.036 86.5762 516.782C86.9668 516.528 87.276 516.193 87.5039 515.776C87.7383 515.36 87.9206 514.907 88.0508 514.419V512.065C87.9792 511.707 87.8685 511.362 87.7188 511.03C87.5755 510.692 87.3867 510.392 87.1523 510.132C86.9245 509.865 86.6413 509.653 86.3027 509.497C85.9642 509.341 85.5671 509.263 85.1113 509.263C84.6165 509.263 84.1901 509.367 83.832 509.575C83.4805 509.777 83.1908 510.057 82.9629 510.415C82.7415 510.767 82.5755 511.177 82.4648 511.646C82.3607 512.108 82.3086 512.603 82.3086 513.13ZM91.6836 513.335V513.11C91.6836 512.349 91.7943 511.642 92.0156 510.991C92.237 510.334 92.556 509.764 92.9727 509.282C93.3893 508.794 93.8939 508.416 94.4863 508.149C95.0788 507.876 95.7428 507.739 96.4785 507.739C97.2207 507.739 97.888 507.876 98.4805 508.149C99.0794 508.416 99.5872 508.794 100.004 509.282C100.427 509.764 100.749 510.334 100.971 510.991C101.192 511.642 101.303 512.349 101.303 513.11V513.335C101.303 514.097 101.192 514.803 100.971 515.454C100.749 516.105 100.427 516.675 100.004 517.163C99.5872 517.645 99.0827 518.022 98.4902 518.296C97.9043 518.563 97.2402 518.696 96.498 518.696C95.7559 518.696 95.0885 518.563 94.4961 518.296C93.9036 518.022 93.3958 517.645 92.9727 517.163C92.556 516.675 92.237 516.105 92.0156 515.454C91.7943 514.803 91.6836 514.097 91.6836 513.335ZM93.4902 513.11V513.335C93.4902 513.862 93.5521 514.36 93.6758 514.829C93.7995 515.291 93.985 515.701 94.2324 516.06C94.4863 516.418 94.8021 516.701 95.1797 516.909C95.5573 517.111 95.9967 517.212 96.498 517.212C96.9928 517.212 97.4258 517.111 97.7969 516.909C98.1745 516.701 98.487 516.418 98.7344 516.06C98.9818 515.701 99.1673 515.291 99.291 514.829C99.4212 514.36 99.4863 513.862 99.4863 513.335V513.11C99.4863 512.59 99.4212 512.098 99.291 511.636C99.1673 511.167 98.9785 510.754 98.7246 510.396C98.4772 510.031 98.1647 509.744 97.7871 509.536C97.416 509.328 96.9798 509.224 96.4785 509.224C95.9837 509.224 95.5475 509.328 95.1699 509.536C94.7988 509.744 94.4863 510.031 94.2324 510.396C93.985 510.754 93.7995 511.167 93.6758 511.636C93.5521 512.098 93.4902 512.59 93.4902 513.11ZM105.375 509.595V518.501H103.568V507.935H105.326L105.375 509.595ZM108.676 507.876L108.666 509.556C108.516 509.523 108.373 509.504 108.236 509.497C108.106 509.484 107.956 509.478 107.787 509.478C107.37 509.478 107.003 509.543 106.684 509.673C106.365 509.803 106.094 509.985 105.873 510.22C105.652 510.454 105.476 510.734 105.346 511.06C105.222 511.379 105.141 511.73 105.102 512.114L104.594 512.407C104.594 511.769 104.656 511.17 104.779 510.61C104.91 510.05 105.108 509.556 105.375 509.126C105.642 508.69 105.98 508.351 106.391 508.11C106.807 507.863 107.302 507.739 107.875 507.739C108.005 507.739 108.155 507.756 108.324 507.788C108.493 507.814 108.611 507.843 108.676 507.876ZM113.49 517.407L116.43 507.935H118.363L114.125 520.132C114.027 520.392 113.897 520.672 113.734 520.972C113.578 521.278 113.376 521.567 113.129 521.841C112.882 522.114 112.582 522.336 112.23 522.505C111.885 522.681 111.472 522.769 110.99 522.769C110.847 522.769 110.665 522.749 110.443 522.71C110.222 522.671 110.066 522.638 109.975 522.612L109.965 521.147C110.017 521.154 110.098 521.16 110.209 521.167C110.326 521.18 110.408 521.187 110.453 521.187C110.863 521.187 111.212 521.131 111.498 521.021C111.785 520.916 112.025 520.737 112.221 520.483C112.423 520.236 112.595 519.894 112.738 519.458L113.49 517.407ZM111.332 507.935L114.076 516.138L114.545 518.042L113.246 518.706L109.359 507.935H111.332Z" fill="#686868"/>
<g clip-path="url(#clip5_17089_8359)">
<rect width="158" height="118.5" transform="translate(170 365.001)" fill="#E3E3E3"/>
</g>
<path d="M218.734 513.979H220.609C220.512 514.878 220.255 515.682 219.838 516.392C219.421 517.101 218.832 517.664 218.07 518.081C217.309 518.491 216.358 518.696 215.219 518.696C214.385 518.696 213.627 518.54 212.943 518.228C212.266 517.915 211.684 517.472 211.195 516.899C210.707 516.32 210.329 515.627 210.062 514.819C209.802 514.006 209.672 513.101 209.672 512.104V510.688C209.672 509.692 209.802 508.791 210.062 507.983C210.329 507.17 210.71 506.473 211.205 505.894C211.706 505.314 212.309 504.868 213.012 504.556C213.715 504.243 214.506 504.087 215.385 504.087C216.459 504.087 217.367 504.289 218.109 504.692C218.852 505.096 219.428 505.656 219.838 506.372C220.255 507.082 220.512 507.905 220.609 508.843H218.734C218.643 508.179 218.474 507.609 218.227 507.134C217.979 506.652 217.628 506.281 217.172 506.021C216.716 505.76 216.12 505.63 215.385 505.63C214.753 505.63 214.197 505.75 213.715 505.991C213.24 506.232 212.839 506.574 212.514 507.017C212.195 507.459 211.954 507.99 211.791 508.608C211.628 509.227 211.547 509.914 211.547 510.669V512.104C211.547 512.801 211.618 513.455 211.762 514.067C211.911 514.679 212.136 515.216 212.436 515.679C212.735 516.141 213.116 516.506 213.578 516.772C214.04 517.033 214.587 517.163 215.219 517.163C216.02 517.163 216.658 517.036 217.133 516.782C217.608 516.528 217.966 516.164 218.207 515.688C218.454 515.213 218.63 514.644 218.734 513.979ZM229.135 516.694V511.255C229.135 510.838 229.05 510.477 228.881 510.171C228.718 509.858 228.471 509.618 228.139 509.448C227.807 509.279 227.396 509.194 226.908 509.194C226.452 509.194 226.052 509.272 225.707 509.429C225.368 509.585 225.102 509.79 224.906 510.044C224.717 510.298 224.623 510.571 224.623 510.864H222.816C222.816 510.487 222.914 510.112 223.109 509.741C223.305 509.37 223.585 509.035 223.949 508.735C224.32 508.429 224.763 508.188 225.277 508.013C225.798 507.83 226.378 507.739 227.016 507.739C227.784 507.739 228.461 507.869 229.047 508.13C229.639 508.39 230.102 508.784 230.434 509.312C230.772 509.832 230.941 510.487 230.941 511.274V516.196C230.941 516.548 230.971 516.922 231.029 517.319C231.094 517.716 231.189 518.058 231.312 518.345V518.501H229.428C229.337 518.293 229.265 518.016 229.213 517.671C229.161 517.319 229.135 516.994 229.135 516.694ZM229.447 512.095L229.467 513.364H227.641C227.126 513.364 226.667 513.407 226.264 513.491C225.86 513.569 225.521 513.69 225.248 513.853C224.975 514.015 224.766 514.22 224.623 514.468C224.48 514.709 224.408 514.992 224.408 515.317C224.408 515.649 224.483 515.952 224.633 516.226C224.783 516.499 225.007 516.717 225.307 516.88C225.613 517.036 225.987 517.114 226.43 517.114C226.983 517.114 227.471 516.997 227.895 516.763C228.318 516.528 228.653 516.242 228.9 515.903C229.154 515.565 229.291 515.236 229.311 514.917L230.082 515.786C230.036 516.06 229.913 516.362 229.711 516.694C229.509 517.026 229.239 517.345 228.9 517.651C228.568 517.951 228.171 518.201 227.709 518.403C227.253 518.599 226.739 518.696 226.166 518.696C225.45 518.696 224.822 518.556 224.281 518.276C223.747 517.996 223.331 517.622 223.031 517.153C222.738 516.678 222.592 516.147 222.592 515.562C222.592 514.995 222.702 514.497 222.924 514.067C223.145 513.631 223.464 513.27 223.881 512.983C224.298 512.69 224.799 512.469 225.385 512.319C225.971 512.17 226.625 512.095 227.348 512.095H229.447ZM238.207 507.935V509.321H232.494V507.935H238.207ZM234.428 505.366H236.234V515.884C236.234 516.242 236.29 516.512 236.4 516.694C236.511 516.877 236.654 516.997 236.83 517.056C237.006 517.114 237.195 517.144 237.396 517.144C237.546 517.144 237.702 517.131 237.865 517.104C238.035 517.072 238.161 517.046 238.246 517.026L238.256 518.501C238.113 518.547 237.924 518.589 237.689 518.628C237.462 518.674 237.185 518.696 236.859 518.696C236.417 518.696 236.01 518.608 235.639 518.433C235.268 518.257 234.971 517.964 234.75 517.554C234.535 517.137 234.428 516.577 234.428 515.874V505.366ZM244.711 518.696C243.975 518.696 243.308 518.573 242.709 518.325C242.117 518.071 241.605 517.716 241.176 517.261C240.753 516.805 240.427 516.265 240.199 515.64C239.971 515.015 239.857 514.331 239.857 513.589V513.179C239.857 512.319 239.984 511.554 240.238 510.884C240.492 510.207 240.837 509.634 241.273 509.165C241.71 508.696 242.204 508.341 242.758 508.101C243.311 507.86 243.884 507.739 244.477 507.739C245.232 507.739 245.883 507.869 246.43 508.13C246.983 508.39 247.436 508.755 247.787 509.224C248.139 509.686 248.399 510.233 248.568 510.864C248.738 511.489 248.822 512.173 248.822 512.915V513.726H240.932V512.251H247.016V512.114C246.99 511.646 246.892 511.19 246.723 510.747C246.56 510.304 246.299 509.94 245.941 509.653C245.583 509.367 245.095 509.224 244.477 509.224C244.066 509.224 243.689 509.312 243.344 509.487C242.999 509.657 242.702 509.91 242.455 510.249C242.208 510.588 242.016 511.001 241.879 511.489C241.742 511.978 241.674 512.541 241.674 513.179V513.589C241.674 514.09 241.742 514.562 241.879 515.005C242.022 515.441 242.227 515.825 242.494 516.157C242.768 516.489 243.096 516.75 243.48 516.938C243.871 517.127 244.314 517.222 244.809 517.222C245.447 517.222 245.987 517.091 246.43 516.831C246.872 516.571 247.26 516.222 247.592 515.786L248.686 516.655C248.458 517 248.168 517.329 247.816 517.642C247.465 517.954 247.032 518.208 246.518 518.403C246.01 518.599 245.408 518.696 244.711 518.696ZM257.777 507.935H259.418V518.276C259.418 519.207 259.229 520.002 258.852 520.659C258.474 521.317 257.947 521.815 257.27 522.153C256.599 522.498 255.824 522.671 254.945 522.671C254.581 522.671 254.151 522.612 253.656 522.495C253.168 522.384 252.686 522.192 252.211 521.919C251.742 521.652 251.348 521.291 251.029 520.835L251.977 519.761C252.419 520.295 252.882 520.666 253.363 520.874C253.852 521.082 254.333 521.187 254.809 521.187C255.382 521.187 255.876 521.079 256.293 520.864C256.71 520.649 257.032 520.33 257.26 519.907C257.494 519.491 257.611 518.976 257.611 518.364V510.259L257.777 507.935ZM250.502 513.335V513.13C250.502 512.323 250.596 511.59 250.785 510.933C250.98 510.269 251.257 509.699 251.615 509.224C251.98 508.748 252.419 508.384 252.934 508.13C253.448 507.869 254.027 507.739 254.672 507.739C255.336 507.739 255.915 507.856 256.41 508.091C256.911 508.319 257.335 508.654 257.68 509.097C258.031 509.533 258.308 510.06 258.51 510.679C258.712 511.297 258.852 511.997 258.93 512.778V513.677C258.858 514.451 258.718 515.148 258.51 515.767C258.308 516.385 258.031 516.912 257.68 517.349C257.335 517.785 256.911 518.12 256.41 518.354C255.909 518.582 255.323 518.696 254.652 518.696C254.021 518.696 253.448 518.563 252.934 518.296C252.426 518.029 251.99 517.655 251.625 517.173C251.26 516.691 250.98 516.125 250.785 515.474C250.596 514.816 250.502 514.103 250.502 513.335ZM252.309 513.13V513.335C252.309 513.862 252.361 514.357 252.465 514.819C252.576 515.282 252.742 515.688 252.963 516.04C253.191 516.392 253.48 516.668 253.832 516.87C254.184 517.065 254.604 517.163 255.092 517.163C255.691 517.163 256.186 517.036 256.576 516.782C256.967 516.528 257.276 516.193 257.504 515.776C257.738 515.36 257.921 514.907 258.051 514.419V512.065C257.979 511.707 257.868 511.362 257.719 511.03C257.576 510.692 257.387 510.392 257.152 510.132C256.924 509.865 256.641 509.653 256.303 509.497C255.964 509.341 255.567 509.263 255.111 509.263C254.617 509.263 254.19 509.367 253.832 509.575C253.48 509.777 253.191 510.057 252.963 510.415C252.742 510.767 252.576 511.177 252.465 511.646C252.361 512.108 252.309 512.603 252.309 513.13ZM261.684 513.335V513.11C261.684 512.349 261.794 511.642 262.016 510.991C262.237 510.334 262.556 509.764 262.973 509.282C263.389 508.794 263.894 508.416 264.486 508.149C265.079 507.876 265.743 507.739 266.479 507.739C267.221 507.739 267.888 507.876 268.48 508.149C269.079 508.416 269.587 508.794 270.004 509.282C270.427 509.764 270.749 510.334 270.971 510.991C271.192 511.642 271.303 512.349 271.303 513.11V513.335C271.303 514.097 271.192 514.803 270.971 515.454C270.749 516.105 270.427 516.675 270.004 517.163C269.587 517.645 269.083 518.022 268.49 518.296C267.904 518.563 267.24 518.696 266.498 518.696C265.756 518.696 265.089 518.563 264.496 518.296C263.904 518.022 263.396 517.645 262.973 517.163C262.556 516.675 262.237 516.105 262.016 515.454C261.794 514.803 261.684 514.097 261.684 513.335ZM263.49 513.11V513.335C263.49 513.862 263.552 514.36 263.676 514.829C263.799 515.291 263.985 515.701 264.232 516.06C264.486 516.418 264.802 516.701 265.18 516.909C265.557 517.111 265.997 517.212 266.498 517.212C266.993 517.212 267.426 517.111 267.797 516.909C268.174 516.701 268.487 516.418 268.734 516.06C268.982 515.701 269.167 515.291 269.291 514.829C269.421 514.36 269.486 513.862 269.486 513.335V513.11C269.486 512.59 269.421 512.098 269.291 511.636C269.167 511.167 268.979 510.754 268.725 510.396C268.477 510.031 268.165 509.744 267.787 509.536C267.416 509.328 266.98 509.224 266.479 509.224C265.984 509.224 265.548 509.328 265.17 509.536C264.799 509.744 264.486 510.031 264.232 510.396C263.985 510.754 263.799 511.167 263.676 511.636C263.552 512.098 263.49 512.59 263.49 513.11ZM275.375 509.595V518.501H273.568V507.935H275.326L275.375 509.595ZM278.676 507.876L278.666 509.556C278.516 509.523 278.373 509.504 278.236 509.497C278.106 509.484 277.956 509.478 277.787 509.478C277.37 509.478 277.003 509.543 276.684 509.673C276.365 509.803 276.094 509.985 275.873 510.22C275.652 510.454 275.476 510.734 275.346 511.06C275.222 511.379 275.141 511.73 275.102 512.114L274.594 512.407C274.594 511.769 274.656 511.17 274.779 510.61C274.91 510.05 275.108 509.556 275.375 509.126C275.642 508.69 275.98 508.351 276.391 508.11C276.807 507.863 277.302 507.739 277.875 507.739C278.005 507.739 278.155 507.756 278.324 507.788C278.493 507.814 278.611 507.843 278.676 507.876ZM283.49 517.407L286.43 507.935H288.363L284.125 520.132C284.027 520.392 283.897 520.672 283.734 520.972C283.578 521.278 283.376 521.567 283.129 521.841C282.882 522.114 282.582 522.336 282.23 522.505C281.885 522.681 281.472 522.769 280.99 522.769C280.847 522.769 280.665 522.749 280.443 522.71C280.222 522.671 280.066 522.638 279.975 522.612L279.965 521.147C280.017 521.154 280.098 521.16 280.209 521.167C280.326 521.18 280.408 521.187 280.453 521.187C280.863 521.187 281.212 521.131 281.498 521.021C281.785 520.916 282.025 520.737 282.221 520.483C282.423 520.236 282.595 519.894 282.738 519.458L283.49 517.407ZM281.332 507.935L284.076 516.138L284.545 518.042L283.246 518.706L279.359 507.935H281.332Z" fill="#686868"/>
<defs>
<clipPath id="clip0_17089_8359">
<rect width="158" height="118.5" fill="white" transform="translate(0 0.000976562)"/>
</clipPath>
<clipPath id="clip1_17089_8359">
<rect width="158" height="118.5" fill="white" transform="translate(170 0.000976562)"/>
</clipPath>
<clipPath id="clip2_17089_8359">
<rect width="158" height="118.5" fill="white" transform="translate(0 182.501)"/>
</clipPath>
<clipPath id="clip3_17089_8359">
<rect width="158" height="118.5" fill="white" transform="translate(170 182.501)"/>
</clipPath>
<clipPath id="clip4_17089_8359">
<rect width="158" height="118.5" fill="white" transform="translate(0 365.001)"/>
</clipPath>
<clipPath id="clip5_17089_8359">
<rect width="158" height="118.5" fill="white" transform="translate(170 365.001)"/>
</clipPath>
</defs>
</svg>
