<svg width="328" height="517" viewBox="0 0 328 517" fill="none" xmlns="http://www.w3.org/2000/svg">
<g clip-path="url(#clip0_17087_12995)">
<rect width="156" height="117" transform="translate(0 0.501221)" fill="#E3E3E3"/>
</g>
<path d="M180.188 20.884H181.688C181.609 21.6028 181.404 22.246 181.07 22.8137C180.737 23.3814 180.266 23.8319 179.656 24.1653C179.047 24.4934 178.286 24.6575 177.375 24.6575C176.708 24.6575 176.102 24.5325 175.555 24.2825C175.013 24.0325 174.547 23.6783 174.156 23.22C173.766 22.7564 173.464 22.2017 173.25 21.5559C173.042 20.9049 172.938 20.1809 172.938 19.384V18.2512C172.938 17.4543 173.042 16.733 173.25 16.0872C173.464 15.4361 173.768 14.8788 174.164 14.4153C174.565 13.9517 175.047 13.595 175.609 13.345C176.172 13.095 176.805 12.97 177.508 12.97C178.367 12.97 179.094 13.1314 179.688 13.4543C180.281 13.7773 180.742 14.2252 181.07 14.7981C181.404 15.3658 181.609 16.0247 181.688 16.7747H180.188C180.115 16.2434 179.979 15.7877 179.781 15.4075C179.583 15.0221 179.302 14.7252 178.938 14.5168C178.573 14.3085 178.096 14.2043 177.508 14.2043C177.003 14.2043 176.557 14.3007 176.172 14.4934C175.792 14.6861 175.471 14.9596 175.211 15.3137C174.956 15.6679 174.763 16.0924 174.633 16.5872C174.503 17.0819 174.438 17.6314 174.438 18.2356V19.384C174.438 19.9413 174.495 20.4648 174.609 20.9543C174.729 21.4439 174.909 21.8736 175.148 22.2434C175.388 22.6132 175.693 22.9049 176.062 23.1184C176.432 23.3267 176.87 23.4309 177.375 23.4309C178.016 23.4309 178.526 23.3293 178.906 23.1262C179.286 22.9231 179.573 22.6314 179.766 22.2512C179.964 21.871 180.104 21.4153 180.188 20.884ZM188.508 23.0559V18.7043C188.508 18.371 188.44 18.0819 188.305 17.8372C188.174 17.5872 187.977 17.3944 187.711 17.259C187.445 17.1236 187.117 17.0559 186.727 17.0559C186.362 17.0559 186.042 17.1184 185.766 17.2434C185.495 17.3684 185.281 17.5325 185.125 17.7356C184.974 17.9387 184.898 18.1575 184.898 18.3918H183.453C183.453 18.0898 183.531 17.7903 183.688 17.4934C183.844 17.1965 184.068 16.9283 184.359 16.6887C184.656 16.4439 185.01 16.2512 185.422 16.1106C185.839 15.9648 186.302 15.8918 186.812 15.8918C187.427 15.8918 187.969 15.996 188.438 16.2043C188.911 16.4127 189.281 16.7278 189.547 17.1497C189.818 17.5663 189.953 18.0898 189.953 18.72V22.6575C189.953 22.9387 189.977 23.2382 190.023 23.5559C190.076 23.8736 190.151 24.1471 190.25 24.3762V24.5012H188.742C188.669 24.3346 188.612 24.1132 188.57 23.8372C188.529 23.5559 188.508 23.2955 188.508 23.0559ZM188.758 19.3762L188.773 20.3918H187.312C186.901 20.3918 186.534 20.4257 186.211 20.4934C185.888 20.5559 185.617 20.6523 185.398 20.7825C185.18 20.9127 185.013 21.0767 184.898 21.2747C184.784 21.4674 184.727 21.6939 184.727 21.9543C184.727 22.22 184.786 22.4622 184.906 22.6809C185.026 22.8997 185.206 23.0741 185.445 23.2043C185.69 23.3293 185.99 23.3918 186.344 23.3918C186.786 23.3918 187.177 23.2981 187.516 23.1106C187.854 22.9231 188.122 22.6939 188.32 22.4231C188.523 22.1523 188.633 21.8892 188.648 21.634L189.266 22.3293C189.229 22.5481 189.13 22.7903 188.969 23.0559C188.807 23.3215 188.591 23.5767 188.32 23.8215C188.055 24.0611 187.737 24.2616 187.367 24.4231C187.003 24.5793 186.591 24.6575 186.133 24.6575C185.56 24.6575 185.057 24.5455 184.625 24.3215C184.198 24.0976 183.865 23.7981 183.625 23.4231C183.391 23.0429 183.273 22.6184 183.273 22.1497C183.273 21.6965 183.362 21.2981 183.539 20.9543C183.716 20.6054 183.971 20.3163 184.305 20.0872C184.638 19.8528 185.039 19.6757 185.508 19.5559C185.977 19.4361 186.5 19.3762 187.078 19.3762H188.758ZM195.766 16.0481V17.1575H191.195V16.0481H195.766ZM192.742 13.9934H194.188V22.4075C194.188 22.6939 194.232 22.9101 194.32 23.0559C194.409 23.2017 194.523 23.2981 194.664 23.345C194.805 23.3918 194.956 23.4153 195.117 23.4153C195.237 23.4153 195.362 23.4049 195.492 23.384C195.628 23.358 195.729 23.3372 195.797 23.3215L195.805 24.5012C195.69 24.5377 195.539 24.5715 195.352 24.6028C195.169 24.6392 194.948 24.6575 194.688 24.6575C194.333 24.6575 194.008 24.5872 193.711 24.4465C193.414 24.3059 193.177 24.0715 193 23.7434C192.828 23.4101 192.742 22.9622 192.742 22.3997V13.9934ZM200.969 24.6575C200.38 24.6575 199.846 24.5585 199.367 24.3606C198.893 24.1575 198.484 23.8736 198.141 23.509C197.802 23.1444 197.542 22.7122 197.359 22.2122C197.177 21.7122 197.086 21.1653 197.086 20.5715V20.2434C197.086 19.5559 197.188 18.9439 197.391 18.4075C197.594 17.8658 197.87 17.4075 198.219 17.0325C198.568 16.6575 198.964 16.3736 199.406 16.1809C199.849 15.9882 200.307 15.8918 200.781 15.8918C201.385 15.8918 201.906 15.996 202.344 16.2043C202.786 16.4127 203.148 16.7043 203.43 17.0793C203.711 17.4491 203.919 17.8866 204.055 18.3918C204.19 18.8918 204.258 19.4387 204.258 20.0325V20.6809H197.945V19.5012H202.812V19.3918C202.792 19.0168 202.714 18.6523 202.578 18.2981C202.448 17.9439 202.24 17.6523 201.953 17.4231C201.667 17.1939 201.276 17.0793 200.781 17.0793C200.453 17.0793 200.151 17.1497 199.875 17.2903C199.599 17.4257 199.362 17.6288 199.164 17.8997C198.966 18.1705 198.812 18.5012 198.703 18.8918C198.594 19.2825 198.539 19.733 198.539 20.2434V20.5715C198.539 20.9726 198.594 21.3502 198.703 21.7043C198.818 22.0533 198.982 22.3606 199.195 22.6262C199.414 22.8918 199.677 23.1002 199.984 23.2512C200.297 23.4023 200.651 23.4778 201.047 23.4778C201.557 23.4778 201.99 23.3736 202.344 23.1653C202.698 22.9569 203.008 22.6783 203.273 22.3293L204.148 23.0247C203.966 23.3007 203.734 23.5637 203.453 23.8137C203.172 24.0637 202.826 24.2668 202.414 24.4231C202.008 24.5793 201.526 24.6575 200.969 24.6575ZM211.422 16.0481H212.734V24.3215C212.734 25.0663 212.583 25.7017 212.281 26.2278C211.979 26.7538 211.557 27.1523 211.016 27.4231C210.479 27.6991 209.859 27.8372 209.156 27.8372C208.865 27.8372 208.521 27.7903 208.125 27.6965C207.734 27.608 207.349 27.4543 206.969 27.2356C206.594 27.0221 206.279 26.733 206.023 26.3684L206.781 25.509C207.135 25.9361 207.505 26.233 207.891 26.3997C208.281 26.5663 208.667 26.6497 209.047 26.6497C209.505 26.6497 209.901 26.5637 210.234 26.3918C210.568 26.22 210.826 25.9648 211.008 25.6262C211.195 25.2929 211.289 24.8814 211.289 24.3918V17.9075L211.422 16.0481ZM205.602 20.3684V20.2043C205.602 19.5585 205.677 18.9726 205.828 18.4465C205.984 17.9153 206.206 17.4596 206.492 17.0793C206.784 16.6991 207.135 16.4075 207.547 16.2043C207.958 15.996 208.422 15.8918 208.938 15.8918C209.469 15.8918 209.932 15.9856 210.328 16.1731C210.729 16.3554 211.068 16.6236 211.344 16.9778C211.625 17.3267 211.846 17.7486 212.008 18.2434C212.169 18.7382 212.281 19.2981 212.344 19.9231V20.6418C212.286 21.2616 212.174 21.8189 212.008 22.3137C211.846 22.8085 211.625 23.2304 211.344 23.5793C211.068 23.9283 210.729 24.1965 210.328 24.384C209.927 24.5663 209.458 24.6575 208.922 24.6575C208.417 24.6575 207.958 24.5507 207.547 24.3372C207.141 24.1236 206.792 23.8241 206.5 23.4387C206.208 23.0533 205.984 22.6002 205.828 22.0793C205.677 21.5533 205.602 20.983 205.602 20.3684ZM207.047 20.2043V20.3684C207.047 20.7903 207.089 21.1861 207.172 21.5559C207.26 21.9257 207.393 22.2512 207.57 22.5325C207.753 22.8137 207.984 23.0351 208.266 23.1965C208.547 23.3528 208.883 23.4309 209.273 23.4309C209.753 23.4309 210.148 23.3293 210.461 23.1262C210.773 22.9231 211.021 22.6549 211.203 22.3215C211.391 21.9882 211.536 21.6262 211.641 21.2356V19.3528C211.583 19.0663 211.495 18.7903 211.375 18.5247C211.26 18.2538 211.109 18.0142 210.922 17.8059C210.74 17.5924 210.513 17.4231 210.242 17.2981C209.971 17.1731 209.654 17.1106 209.289 17.1106C208.893 17.1106 208.552 17.1939 208.266 17.3606C207.984 17.5221 207.753 17.746 207.57 18.0325C207.393 18.3137 207.26 18.6418 207.172 19.0168C207.089 19.3866 207.047 19.7825 207.047 20.2043ZM214.547 20.3684V20.1887C214.547 19.5793 214.635 19.0142 214.812 18.4934C214.99 17.9674 215.245 17.5116 215.578 17.1262C215.911 16.7356 216.315 16.4335 216.789 16.22C217.263 16.0012 217.794 15.8918 218.383 15.8918C218.977 15.8918 219.51 16.0012 219.984 16.22C220.464 16.4335 220.87 16.7356 221.203 17.1262C221.542 17.5116 221.799 17.9674 221.977 18.4934C222.154 19.0142 222.242 19.5793 222.242 20.1887V20.3684C222.242 20.9778 222.154 21.5429 221.977 22.0637C221.799 22.5846 221.542 23.0403 221.203 23.4309C220.87 23.8163 220.466 24.1184 219.992 24.3372C219.523 24.5507 218.992 24.6575 218.398 24.6575C217.805 24.6575 217.271 24.5507 216.797 24.3372C216.323 24.1184 215.917 23.8163 215.578 23.4309C215.245 23.0403 214.99 22.5846 214.812 22.0637C214.635 21.5429 214.547 20.9778 214.547 20.3684ZM215.992 20.1887V20.3684C215.992 20.7903 216.042 21.1887 216.141 21.5637C216.24 21.9335 216.388 22.2616 216.586 22.5481C216.789 22.8346 217.042 23.0611 217.344 23.2278C217.646 23.3892 217.997 23.47 218.398 23.47C218.794 23.47 219.141 23.3892 219.438 23.2278C219.74 23.0611 219.99 22.8346 220.188 22.5481C220.385 22.2616 220.534 21.9335 220.633 21.5637C220.737 21.1887 220.789 20.7903 220.789 20.3684V20.1887C220.789 19.7721 220.737 19.3788 220.633 19.009C220.534 18.634 220.383 18.3033 220.18 18.0168C219.982 17.7252 219.732 17.496 219.43 17.3293C219.133 17.1627 218.784 17.0793 218.383 17.0793C217.987 17.0793 217.638 17.1627 217.336 17.3293C217.039 17.496 216.789 17.7252 216.586 18.0168C216.388 18.3033 216.24 18.634 216.141 19.009C216.042 19.3788 215.992 19.7721 215.992 20.1887ZM225.5 17.3762V24.5012H224.055V16.0481H225.461L225.5 17.3762ZM228.141 16.0012L228.133 17.345C228.013 17.3189 227.898 17.3033 227.789 17.2981C227.685 17.2877 227.565 17.2825 227.43 17.2825C227.096 17.2825 226.802 17.3346 226.547 17.4387C226.292 17.5429 226.076 17.6887 225.898 17.8762C225.721 18.0637 225.581 18.2877 225.477 18.5481C225.378 18.8033 225.312 19.0846 225.281 19.3918L224.875 19.6262C224.875 19.1158 224.924 18.6366 225.023 18.1887C225.128 17.7408 225.286 17.345 225.5 17.0012C225.714 16.6523 225.984 16.3814 226.312 16.1887C226.646 15.9908 227.042 15.8918 227.5 15.8918C227.604 15.8918 227.724 15.9049 227.859 15.9309C227.995 15.9517 228.089 15.9752 228.141 16.0012ZM231.992 23.6262L234.344 16.0481H235.891L232.5 25.8059C232.422 26.0142 232.318 26.2382 232.188 26.4778C232.062 26.7226 231.901 26.9543 231.703 27.1731C231.505 27.3918 231.266 27.5689 230.984 27.7043C230.708 27.845 230.378 27.9153 229.992 27.9153C229.878 27.9153 229.732 27.8997 229.555 27.8684C229.378 27.8372 229.253 27.8111 229.18 27.7903L229.172 26.6184C229.214 26.6236 229.279 26.6288 229.367 26.634C229.461 26.6444 229.526 26.6497 229.562 26.6497C229.891 26.6497 230.169 26.6054 230.398 26.5168C230.628 26.4335 230.82 26.2903 230.977 26.0872C231.138 25.8892 231.276 25.6158 231.391 25.2668L231.992 23.6262ZM230.266 16.0481L232.461 22.6106L232.836 24.134L231.797 24.6653L228.688 16.0481H230.266Z" fill="#686868"/>
<g clip-path="url(#clip1_17087_12995)">
<rect width="156" height="117" transform="translate(0 133.501)" fill="#E3E3E3"/>
</g>
<path d="M180.188 153.884H181.688C181.609 154.603 181.404 155.246 181.07 155.814C180.737 156.382 180.266 156.832 179.656 157.165C179.047 157.494 178.286 157.658 177.375 157.658C176.708 157.658 176.102 157.533 175.555 157.283C175.013 157.033 174.547 156.678 174.156 156.22C173.766 155.757 173.464 155.202 173.25 154.556C173.042 153.905 172.938 153.181 172.938 152.384V151.251C172.938 150.454 173.042 149.733 173.25 149.087C173.464 148.436 173.768 147.879 174.164 147.415C174.565 146.952 175.047 146.595 175.609 146.345C176.172 146.095 176.805 145.97 177.508 145.97C178.367 145.97 179.094 146.132 179.688 146.454C180.281 146.777 180.742 147.225 181.07 147.798C181.404 148.366 181.609 149.025 181.688 149.775H180.188C180.115 149.244 179.979 148.788 179.781 148.408C179.583 148.022 179.302 147.725 178.938 147.517C178.573 147.309 178.096 147.204 177.508 147.204C177.003 147.204 176.557 147.301 176.172 147.494C175.792 147.686 175.471 147.96 175.211 148.314C174.956 148.668 174.763 149.092 174.633 149.587C174.503 150.082 174.438 150.632 174.438 151.236V152.384C174.438 152.941 174.495 153.465 174.609 153.954C174.729 154.444 174.909 154.874 175.148 155.244C175.388 155.613 175.693 155.905 176.062 156.119C176.432 156.327 176.87 156.431 177.375 156.431C178.016 156.431 178.526 156.329 178.906 156.126C179.286 155.923 179.573 155.632 179.766 155.251C179.964 154.871 180.104 154.415 180.188 153.884ZM188.508 156.056V151.704C188.508 151.371 188.44 151.082 188.305 150.837C188.174 150.587 187.977 150.395 187.711 150.259C187.445 150.124 187.117 150.056 186.727 150.056C186.362 150.056 186.042 150.119 185.766 150.244C185.495 150.369 185.281 150.533 185.125 150.736C184.974 150.939 184.898 151.158 184.898 151.392H183.453C183.453 151.09 183.531 150.79 183.688 150.494C183.844 150.197 184.068 149.928 184.359 149.689C184.656 149.444 185.01 149.251 185.422 149.111C185.839 148.965 186.302 148.892 186.812 148.892C187.427 148.892 187.969 148.996 188.438 149.204C188.911 149.413 189.281 149.728 189.547 150.15C189.818 150.566 189.953 151.09 189.953 151.72V155.658C189.953 155.939 189.977 156.238 190.023 156.556C190.076 156.874 190.151 157.147 190.25 157.376V157.501H188.742C188.669 157.335 188.612 157.113 188.57 156.837C188.529 156.556 188.508 156.296 188.508 156.056ZM188.758 152.376L188.773 153.392H187.312C186.901 153.392 186.534 153.426 186.211 153.494C185.888 153.556 185.617 153.652 185.398 153.783C185.18 153.913 185.013 154.077 184.898 154.275C184.784 154.467 184.727 154.694 184.727 154.954C184.727 155.22 184.786 155.462 184.906 155.681C185.026 155.9 185.206 156.074 185.445 156.204C185.69 156.329 185.99 156.392 186.344 156.392C186.786 156.392 187.177 156.298 187.516 156.111C187.854 155.923 188.122 155.694 188.32 155.423C188.523 155.152 188.633 154.889 188.648 154.634L189.266 155.329C189.229 155.548 189.13 155.79 188.969 156.056C188.807 156.322 188.591 156.577 188.32 156.822C188.055 157.061 187.737 157.262 187.367 157.423C187.003 157.579 186.591 157.658 186.133 157.658C185.56 157.658 185.057 157.546 184.625 157.322C184.198 157.098 183.865 156.798 183.625 156.423C183.391 156.043 183.273 155.619 183.273 155.15C183.273 154.697 183.362 154.298 183.539 153.954C183.716 153.606 183.971 153.316 184.305 153.087C184.638 152.853 185.039 152.676 185.508 152.556C185.977 152.436 186.5 152.376 187.078 152.376H188.758ZM195.766 149.048V150.158H191.195V149.048H195.766ZM192.742 146.994H194.188V155.408C194.188 155.694 194.232 155.91 194.32 156.056C194.409 156.202 194.523 156.298 194.664 156.345C194.805 156.392 194.956 156.415 195.117 156.415C195.237 156.415 195.362 156.405 195.492 156.384C195.628 156.358 195.729 156.337 195.797 156.322L195.805 157.501C195.69 157.538 195.539 157.572 195.352 157.603C195.169 157.639 194.948 157.658 194.688 157.658C194.333 157.658 194.008 157.587 193.711 157.447C193.414 157.306 193.177 157.072 193 156.744C192.828 156.41 192.742 155.962 192.742 155.4V146.994ZM200.969 157.658C200.38 157.658 199.846 157.559 199.367 157.361C198.893 157.158 198.484 156.874 198.141 156.509C197.802 156.145 197.542 155.712 197.359 155.212C197.177 154.712 197.086 154.165 197.086 153.572V153.244C197.086 152.556 197.188 151.944 197.391 151.408C197.594 150.866 197.87 150.408 198.219 150.033C198.568 149.658 198.964 149.374 199.406 149.181C199.849 148.988 200.307 148.892 200.781 148.892C201.385 148.892 201.906 148.996 202.344 149.204C202.786 149.413 203.148 149.704 203.43 150.079C203.711 150.449 203.919 150.887 204.055 151.392C204.19 151.892 204.258 152.439 204.258 153.033V153.681H197.945V152.501H202.812V152.392C202.792 152.017 202.714 151.652 202.578 151.298C202.448 150.944 202.24 150.652 201.953 150.423C201.667 150.194 201.276 150.079 200.781 150.079C200.453 150.079 200.151 150.15 199.875 150.29C199.599 150.426 199.362 150.629 199.164 150.9C198.966 151.171 198.812 151.501 198.703 151.892C198.594 152.283 198.539 152.733 198.539 153.244V153.572C198.539 153.973 198.594 154.35 198.703 154.704C198.818 155.053 198.982 155.361 199.195 155.626C199.414 155.892 199.677 156.1 199.984 156.251C200.297 156.402 200.651 156.478 201.047 156.478C201.557 156.478 201.99 156.374 202.344 156.165C202.698 155.957 203.008 155.678 203.273 155.329L204.148 156.025C203.966 156.301 203.734 156.564 203.453 156.814C203.172 157.064 202.826 157.267 202.414 157.423C202.008 157.579 201.526 157.658 200.969 157.658ZM211.422 149.048H212.734V157.322C212.734 158.066 212.583 158.702 212.281 159.228C211.979 159.754 211.557 160.152 211.016 160.423C210.479 160.699 209.859 160.837 209.156 160.837C208.865 160.837 208.521 160.79 208.125 160.697C207.734 160.608 207.349 160.454 206.969 160.236C206.594 160.022 206.279 159.733 206.023 159.369L206.781 158.509C207.135 158.936 207.505 159.233 207.891 159.4C208.281 159.566 208.667 159.65 209.047 159.65C209.505 159.65 209.901 159.564 210.234 159.392C210.568 159.22 210.826 158.965 211.008 158.626C211.195 158.293 211.289 157.882 211.289 157.392V150.908L211.422 149.048ZM205.602 153.369V153.204C205.602 152.559 205.677 151.973 205.828 151.447C205.984 150.915 206.206 150.46 206.492 150.079C206.784 149.699 207.135 149.408 207.547 149.204C207.958 148.996 208.422 148.892 208.938 148.892C209.469 148.892 209.932 148.986 210.328 149.173C210.729 149.356 211.068 149.624 211.344 149.978C211.625 150.327 211.846 150.749 212.008 151.244C212.169 151.738 212.281 152.298 212.344 152.923V153.642C212.286 154.262 212.174 154.819 212.008 155.314C211.846 155.809 211.625 156.231 211.344 156.579C211.068 156.928 210.729 157.197 210.328 157.384C209.927 157.566 209.458 157.658 208.922 157.658C208.417 157.658 207.958 157.551 207.547 157.337C207.141 157.124 206.792 156.824 206.5 156.439C206.208 156.053 205.984 155.6 205.828 155.079C205.677 154.553 205.602 153.983 205.602 153.369ZM207.047 153.204V153.369C207.047 153.79 207.089 154.186 207.172 154.556C207.26 154.926 207.393 155.251 207.57 155.533C207.753 155.814 207.984 156.035 208.266 156.197C208.547 156.353 208.883 156.431 209.273 156.431C209.753 156.431 210.148 156.329 210.461 156.126C210.773 155.923 211.021 155.655 211.203 155.322C211.391 154.988 211.536 154.626 211.641 154.236V152.353C211.583 152.066 211.495 151.79 211.375 151.525C211.26 151.254 211.109 151.014 210.922 150.806C210.74 150.592 210.513 150.423 210.242 150.298C209.971 150.173 209.654 150.111 209.289 150.111C208.893 150.111 208.552 150.194 208.266 150.361C207.984 150.522 207.753 150.746 207.57 151.033C207.393 151.314 207.26 151.642 207.172 152.017C207.089 152.387 207.047 152.783 207.047 153.204ZM214.547 153.369V153.189C214.547 152.579 214.635 152.014 214.812 151.494C214.99 150.967 215.245 150.512 215.578 150.126C215.911 149.736 216.315 149.434 216.789 149.22C217.263 149.001 217.794 148.892 218.383 148.892C218.977 148.892 219.51 149.001 219.984 149.22C220.464 149.434 220.87 149.736 221.203 150.126C221.542 150.512 221.799 150.967 221.977 151.494C222.154 152.014 222.242 152.579 222.242 153.189V153.369C222.242 153.978 222.154 154.543 221.977 155.064C221.799 155.585 221.542 156.04 221.203 156.431C220.87 156.816 220.466 157.119 219.992 157.337C219.523 157.551 218.992 157.658 218.398 157.658C217.805 157.658 217.271 157.551 216.797 157.337C216.323 157.119 215.917 156.816 215.578 156.431C215.245 156.04 214.99 155.585 214.812 155.064C214.635 154.543 214.547 153.978 214.547 153.369ZM215.992 153.189V153.369C215.992 153.79 216.042 154.189 216.141 154.564C216.24 154.934 216.388 155.262 216.586 155.548C216.789 155.835 217.042 156.061 217.344 156.228C217.646 156.389 217.997 156.47 218.398 156.47C218.794 156.47 219.141 156.389 219.438 156.228C219.74 156.061 219.99 155.835 220.188 155.548C220.385 155.262 220.534 154.934 220.633 154.564C220.737 154.189 220.789 153.79 220.789 153.369V153.189C220.789 152.772 220.737 152.379 220.633 152.009C220.534 151.634 220.383 151.303 220.18 151.017C219.982 150.725 219.732 150.496 219.43 150.329C219.133 150.163 218.784 150.079 218.383 150.079C217.987 150.079 217.638 150.163 217.336 150.329C217.039 150.496 216.789 150.725 216.586 151.017C216.388 151.303 216.24 151.634 216.141 152.009C216.042 152.379 215.992 152.772 215.992 153.189ZM225.5 150.376V157.501H224.055V149.048H225.461L225.5 150.376ZM228.141 149.001L228.133 150.345C228.013 150.319 227.898 150.303 227.789 150.298C227.685 150.288 227.565 150.283 227.43 150.283C227.096 150.283 226.802 150.335 226.547 150.439C226.292 150.543 226.076 150.689 225.898 150.876C225.721 151.064 225.581 151.288 225.477 151.548C225.378 151.803 225.312 152.085 225.281 152.392L224.875 152.626C224.875 152.116 224.924 151.637 225.023 151.189C225.128 150.741 225.286 150.345 225.5 150.001C225.714 149.652 225.984 149.382 226.312 149.189C226.646 148.991 227.042 148.892 227.5 148.892C227.604 148.892 227.724 148.905 227.859 148.931C227.995 148.952 228.089 148.975 228.141 149.001ZM231.992 156.626L234.344 149.048H235.891L232.5 158.806C232.422 159.014 232.318 159.238 232.188 159.478C232.062 159.723 231.901 159.954 231.703 160.173C231.505 160.392 231.266 160.569 230.984 160.704C230.708 160.845 230.378 160.915 229.992 160.915C229.878 160.915 229.732 160.9 229.555 160.869C229.378 160.837 229.253 160.811 229.18 160.79L229.172 159.619C229.214 159.624 229.279 159.629 229.367 159.634C229.461 159.645 229.526 159.65 229.562 159.65C229.891 159.65 230.169 159.606 230.398 159.517C230.628 159.434 230.82 159.29 230.977 159.087C231.138 158.889 231.276 158.616 231.391 158.267L231.992 156.626ZM230.266 149.048L232.461 155.611L232.836 157.134L231.797 157.665L228.688 149.048H230.266Z" fill="#686868"/>
<g clip-path="url(#clip2_17087_12995)">
<rect width="156" height="117" transform="translate(0 266.502)" fill="#E3E3E3"/>
</g>
<path d="M180.188 286.884H181.688C181.609 287.603 181.404 288.246 181.07 288.814C180.737 289.382 180.266 289.832 179.656 290.166C179.047 290.494 178.286 290.658 177.375 290.658C176.708 290.658 176.102 290.533 175.555 290.283C175.013 290.033 174.547 289.679 174.156 289.22C173.766 288.757 173.464 288.202 173.25 287.556C173.042 286.905 172.938 286.181 172.938 285.384V284.252C172.938 283.455 173.042 282.733 173.25 282.088C173.464 281.436 173.768 280.879 174.164 280.416C174.565 279.952 175.047 279.595 175.609 279.345C176.172 279.095 176.805 278.97 177.508 278.97C178.367 278.97 179.094 279.132 179.688 279.455C180.281 279.778 180.742 280.226 181.07 280.798C181.404 281.366 181.609 282.025 181.688 282.775H180.188C180.115 282.244 179.979 281.788 179.781 281.408C179.583 281.022 179.302 280.726 178.938 280.517C178.573 280.309 178.096 280.205 177.508 280.205C177.003 280.205 176.557 280.301 176.172 280.494C175.792 280.686 175.471 280.96 175.211 281.314C174.956 281.668 174.763 282.093 174.633 282.588C174.503 283.082 174.438 283.632 174.438 284.236V285.384C174.438 285.942 174.495 286.465 174.609 286.955C174.729 287.444 174.909 287.874 175.148 288.244C175.388 288.614 175.693 288.905 176.062 289.119C176.432 289.327 176.87 289.431 177.375 289.431C178.016 289.431 178.526 289.33 178.906 289.127C179.286 288.923 179.573 288.632 179.766 288.252C179.964 287.871 180.104 287.416 180.188 286.884ZM188.508 289.056V284.705C188.508 284.371 188.44 284.082 188.305 283.838C188.174 283.588 187.977 283.395 187.711 283.259C187.445 283.124 187.117 283.056 186.727 283.056C186.362 283.056 186.042 283.119 185.766 283.244C185.495 283.369 185.281 283.533 185.125 283.736C184.974 283.939 184.898 284.158 184.898 284.392H183.453C183.453 284.09 183.531 283.791 183.688 283.494C183.844 283.197 184.068 282.929 184.359 282.689C184.656 282.444 185.01 282.252 185.422 282.111C185.839 281.965 186.302 281.892 186.812 281.892C187.427 281.892 187.969 281.996 188.438 282.205C188.911 282.413 189.281 282.728 189.547 283.15C189.818 283.567 189.953 284.09 189.953 284.72V288.658C189.953 288.939 189.977 289.239 190.023 289.556C190.076 289.874 190.151 290.147 190.25 290.377V290.502H188.742C188.669 290.335 188.612 290.114 188.57 289.838C188.529 289.556 188.508 289.296 188.508 289.056ZM188.758 285.377L188.773 286.392H187.312C186.901 286.392 186.534 286.426 186.211 286.494C185.888 286.556 185.617 286.653 185.398 286.783C185.18 286.913 185.013 287.077 184.898 287.275C184.784 287.468 184.727 287.694 184.727 287.955C184.727 288.22 184.786 288.463 184.906 288.681C185.026 288.9 185.206 289.075 185.445 289.205C185.69 289.33 185.99 289.392 186.344 289.392C186.786 289.392 187.177 289.298 187.516 289.111C187.854 288.923 188.122 288.694 188.32 288.423C188.523 288.153 188.633 287.89 188.648 287.634L189.266 288.33C189.229 288.548 189.13 288.791 188.969 289.056C188.807 289.322 188.591 289.577 188.32 289.822C188.055 290.061 187.737 290.262 187.367 290.423C187.003 290.58 186.591 290.658 186.133 290.658C185.56 290.658 185.057 290.546 184.625 290.322C184.198 290.098 183.865 289.798 183.625 289.423C183.391 289.043 183.273 288.619 183.273 288.15C183.273 287.697 183.362 287.298 183.539 286.955C183.716 286.606 183.971 286.317 184.305 286.088C184.638 285.853 185.039 285.676 185.508 285.556C185.977 285.436 186.5 285.377 187.078 285.377H188.758ZM195.766 282.048V283.158H191.195V282.048H195.766ZM192.742 279.994H194.188V288.408C194.188 288.694 194.232 288.91 194.32 289.056C194.409 289.202 194.523 289.298 194.664 289.345C194.805 289.392 194.956 289.416 195.117 289.416C195.237 289.416 195.362 289.405 195.492 289.384C195.628 289.358 195.729 289.338 195.797 289.322L195.805 290.502C195.69 290.538 195.539 290.572 195.352 290.603C195.169 290.64 194.948 290.658 194.688 290.658C194.333 290.658 194.008 290.588 193.711 290.447C193.414 290.306 193.177 290.072 193 289.744C192.828 289.41 192.742 288.963 192.742 288.4V279.994ZM200.969 290.658C200.38 290.658 199.846 290.559 199.367 290.361C198.893 290.158 198.484 289.874 198.141 289.509C197.802 289.145 197.542 288.713 197.359 288.213C197.177 287.713 197.086 287.166 197.086 286.572V286.244C197.086 285.556 197.188 284.944 197.391 284.408C197.594 283.866 197.87 283.408 198.219 283.033C198.568 282.658 198.964 282.374 199.406 282.181C199.849 281.989 200.307 281.892 200.781 281.892C201.385 281.892 201.906 281.996 202.344 282.205C202.786 282.413 203.148 282.705 203.43 283.08C203.711 283.45 203.919 283.887 204.055 284.392C204.19 284.892 204.258 285.439 204.258 286.033V286.681H197.945V285.502H202.812V285.392C202.792 285.017 202.714 284.653 202.578 284.298C202.448 283.944 202.24 283.653 201.953 283.423C201.667 283.194 201.276 283.08 200.781 283.08C200.453 283.08 200.151 283.15 199.875 283.291C199.599 283.426 199.362 283.629 199.164 283.9C198.966 284.171 198.812 284.502 198.703 284.892C198.594 285.283 198.539 285.733 198.539 286.244V286.572C198.539 286.973 198.594 287.351 198.703 287.705C198.818 288.054 198.982 288.361 199.195 288.627C199.414 288.892 199.677 289.101 199.984 289.252C200.297 289.403 200.651 289.478 201.047 289.478C201.557 289.478 201.99 289.374 202.344 289.166C202.698 288.957 203.008 288.679 203.273 288.33L204.148 289.025C203.966 289.301 203.734 289.564 203.453 289.814C203.172 290.064 202.826 290.267 202.414 290.423C202.008 290.58 201.526 290.658 200.969 290.658ZM211.422 282.048H212.734V290.322C212.734 291.067 212.583 291.702 212.281 292.228C211.979 292.754 211.557 293.153 211.016 293.423C210.479 293.7 209.859 293.838 209.156 293.838C208.865 293.838 208.521 293.791 208.125 293.697C207.734 293.608 207.349 293.455 206.969 293.236C206.594 293.022 206.279 292.733 206.023 292.369L206.781 291.509C207.135 291.936 207.505 292.233 207.891 292.4C208.281 292.567 208.667 292.65 209.047 292.65C209.505 292.65 209.901 292.564 210.234 292.392C210.568 292.22 210.826 291.965 211.008 291.627C211.195 291.293 211.289 290.882 211.289 290.392V283.908L211.422 282.048ZM205.602 286.369V286.205C205.602 285.559 205.677 284.973 205.828 284.447C205.984 283.916 206.206 283.46 206.492 283.08C206.784 282.7 207.135 282.408 207.547 282.205C207.958 281.996 208.422 281.892 208.938 281.892C209.469 281.892 209.932 281.986 210.328 282.173C210.729 282.356 211.068 282.624 211.344 282.978C211.625 283.327 211.846 283.749 212.008 284.244C212.169 284.739 212.281 285.298 212.344 285.923V286.642C212.286 287.262 212.174 287.819 212.008 288.314C211.846 288.809 211.625 289.231 211.344 289.58C211.068 289.929 210.729 290.197 210.328 290.384C209.927 290.567 209.458 290.658 208.922 290.658C208.417 290.658 207.958 290.551 207.547 290.338C207.141 290.124 206.792 289.825 206.5 289.439C206.208 289.054 205.984 288.601 205.828 288.08C205.677 287.554 205.602 286.983 205.602 286.369ZM207.047 286.205V286.369C207.047 286.791 207.089 287.186 207.172 287.556C207.26 287.926 207.393 288.252 207.57 288.533C207.753 288.814 207.984 289.035 208.266 289.197C208.547 289.353 208.883 289.431 209.273 289.431C209.753 289.431 210.148 289.33 210.461 289.127C210.773 288.923 211.021 288.655 211.203 288.322C211.391 287.989 211.536 287.627 211.641 287.236V285.353C211.583 285.067 211.495 284.791 211.375 284.525C211.26 284.254 211.109 284.015 210.922 283.806C210.74 283.593 210.513 283.423 210.242 283.298C209.971 283.173 209.654 283.111 209.289 283.111C208.893 283.111 208.552 283.194 208.266 283.361C207.984 283.522 207.753 283.746 207.57 284.033C207.393 284.314 207.26 284.642 207.172 285.017C207.089 285.387 207.047 285.783 207.047 286.205ZM214.547 286.369V286.189C214.547 285.58 214.635 285.015 214.812 284.494C214.99 283.968 215.245 283.512 215.578 283.127C215.911 282.736 216.315 282.434 216.789 282.22C217.263 282.002 217.794 281.892 218.383 281.892C218.977 281.892 219.51 282.002 219.984 282.22C220.464 282.434 220.87 282.736 221.203 283.127C221.542 283.512 221.799 283.968 221.977 284.494C222.154 285.015 222.242 285.58 222.242 286.189V286.369C222.242 286.978 222.154 287.543 221.977 288.064C221.799 288.585 221.542 289.041 221.203 289.431C220.87 289.817 220.466 290.119 219.992 290.338C219.523 290.551 218.992 290.658 218.398 290.658C217.805 290.658 217.271 290.551 216.797 290.338C216.323 290.119 215.917 289.817 215.578 289.431C215.245 289.041 214.99 288.585 214.812 288.064C214.635 287.543 214.547 286.978 214.547 286.369ZM215.992 286.189V286.369C215.992 286.791 216.042 287.189 216.141 287.564C216.24 287.934 216.388 288.262 216.586 288.548C216.789 288.835 217.042 289.061 217.344 289.228C217.646 289.39 217.997 289.47 218.398 289.47C218.794 289.47 219.141 289.39 219.438 289.228C219.74 289.061 219.99 288.835 220.188 288.548C220.385 288.262 220.534 287.934 220.633 287.564C220.737 287.189 220.789 286.791 220.789 286.369V286.189C220.789 285.772 220.737 285.379 220.633 285.009C220.534 284.634 220.383 284.304 220.18 284.017C219.982 283.726 219.732 283.496 219.43 283.33C219.133 283.163 218.784 283.08 218.383 283.08C217.987 283.08 217.638 283.163 217.336 283.33C217.039 283.496 216.789 283.726 216.586 284.017C216.388 284.304 216.24 284.634 216.141 285.009C216.042 285.379 215.992 285.772 215.992 286.189ZM225.5 283.377V290.502H224.055V282.048H225.461L225.5 283.377ZM228.141 282.002L228.133 283.345C228.013 283.319 227.898 283.304 227.789 283.298C227.685 283.288 227.565 283.283 227.43 283.283C227.096 283.283 226.802 283.335 226.547 283.439C226.292 283.543 226.076 283.689 225.898 283.877C225.721 284.064 225.581 284.288 225.477 284.548C225.378 284.804 225.312 285.085 225.281 285.392L224.875 285.627C224.875 285.116 224.924 284.637 225.023 284.189C225.128 283.741 225.286 283.345 225.5 283.002C225.714 282.653 225.984 282.382 226.312 282.189C226.646 281.991 227.042 281.892 227.5 281.892C227.604 281.892 227.724 281.905 227.859 281.931C227.995 281.952 228.089 281.976 228.141 282.002ZM231.992 289.627L234.344 282.048H235.891L232.5 291.806C232.422 292.015 232.318 292.239 232.188 292.478C232.062 292.723 231.901 292.955 231.703 293.173C231.505 293.392 231.266 293.569 230.984 293.705C230.708 293.845 230.378 293.916 229.992 293.916C229.878 293.916 229.732 293.9 229.555 293.869C229.378 293.838 229.253 293.811 229.18 293.791L229.172 292.619C229.214 292.624 229.279 292.629 229.367 292.634C229.461 292.645 229.526 292.65 229.562 292.65C229.891 292.65 230.169 292.606 230.398 292.517C230.628 292.434 230.82 292.291 230.977 292.088C231.138 291.89 231.276 291.616 231.391 291.267L231.992 289.627ZM230.266 282.048L232.461 288.611L232.836 290.134L231.797 290.666L228.688 282.048H230.266Z" fill="#686868"/>
<g clip-path="url(#clip3_17087_12995)">
<rect width="156" height="117" transform="translate(0 399.502)" fill="#E3E3E3"/>
</g>
<path d="M180.188 419.885H181.688C181.609 420.603 181.404 421.247 181.07 421.814C180.737 422.382 180.266 422.832 179.656 423.166C179.047 423.494 178.286 423.658 177.375 423.658C176.708 423.658 176.102 423.533 175.555 423.283C175.013 423.033 174.547 422.679 174.156 422.22C173.766 421.757 173.464 421.202 173.25 420.556C173.042 419.905 172.938 419.181 172.938 418.385V417.252C172.938 416.455 173.042 415.733 173.25 415.088C173.464 414.437 173.768 413.879 174.164 413.416C174.565 412.952 175.047 412.595 175.609 412.345C176.172 412.095 176.805 411.97 177.508 411.97C178.367 411.97 179.094 412.132 179.688 412.455C180.281 412.778 180.742 413.226 181.07 413.799C181.404 414.366 181.609 415.025 181.688 415.775H180.188C180.115 415.244 179.979 414.788 179.781 414.408C179.583 414.023 179.302 413.726 178.938 413.517C178.573 413.309 178.096 413.205 177.508 413.205C177.003 413.205 176.557 413.301 176.172 413.494C175.792 413.687 175.471 413.96 175.211 414.314C174.956 414.668 174.763 415.093 174.633 415.588C174.503 416.082 174.438 416.632 174.438 417.236V418.385C174.438 418.942 174.495 419.465 174.609 419.955C174.729 420.444 174.909 420.874 175.148 421.244C175.388 421.614 175.693 421.905 176.062 422.119C176.432 422.327 176.87 422.431 177.375 422.431C178.016 422.431 178.526 422.33 178.906 422.127C179.286 421.924 179.573 421.632 179.766 421.252C179.964 420.872 180.104 420.416 180.188 419.885ZM188.508 422.056V417.705C188.508 417.372 188.44 417.082 188.305 416.838C188.174 416.588 187.977 416.395 187.711 416.26C187.445 416.124 187.117 416.056 186.727 416.056C186.362 416.056 186.042 416.119 185.766 416.244C185.495 416.369 185.281 416.533 185.125 416.736C184.974 416.939 184.898 417.158 184.898 417.392H183.453C183.453 417.09 183.531 416.791 183.688 416.494C183.844 416.197 184.068 415.929 184.359 415.689C184.656 415.444 185.01 415.252 185.422 415.111C185.839 414.965 186.302 414.892 186.812 414.892C187.427 414.892 187.969 414.997 188.438 415.205C188.911 415.413 189.281 415.728 189.547 416.15C189.818 416.567 189.953 417.09 189.953 417.72V421.658C189.953 421.939 189.977 422.239 190.023 422.556C190.076 422.874 190.151 423.148 190.25 423.377V423.502H188.742C188.669 423.335 188.612 423.114 188.57 422.838C188.529 422.556 188.508 422.296 188.508 422.056ZM188.758 418.377L188.773 419.392H187.312C186.901 419.392 186.534 419.426 186.211 419.494C185.888 419.556 185.617 419.653 185.398 419.783C185.18 419.913 185.013 420.077 184.898 420.275C184.784 420.468 184.727 420.694 184.727 420.955C184.727 421.22 184.786 421.463 184.906 421.681C185.026 421.9 185.206 422.075 185.445 422.205C185.69 422.33 185.99 422.392 186.344 422.392C186.786 422.392 187.177 422.299 187.516 422.111C187.854 421.924 188.122 421.694 188.32 421.424C188.523 421.153 188.633 420.89 188.648 420.635L189.266 421.33C189.229 421.549 189.13 421.791 188.969 422.056C188.807 422.322 188.591 422.577 188.32 422.822C188.055 423.062 187.737 423.262 187.367 423.424C187.003 423.58 186.591 423.658 186.133 423.658C185.56 423.658 185.057 423.546 184.625 423.322C184.198 423.098 183.865 422.799 183.625 422.424C183.391 422.043 183.273 421.619 183.273 421.15C183.273 420.697 183.362 420.299 183.539 419.955C183.716 419.606 183.971 419.317 184.305 419.088C184.638 418.853 185.039 418.676 185.508 418.556C185.977 418.437 186.5 418.377 187.078 418.377H188.758ZM195.766 415.049V416.158H191.195V415.049H195.766ZM192.742 412.994H194.188V421.408C194.188 421.694 194.232 421.911 194.32 422.056C194.409 422.202 194.523 422.299 194.664 422.345C194.805 422.392 194.956 422.416 195.117 422.416C195.237 422.416 195.362 422.405 195.492 422.385C195.628 422.358 195.729 422.338 195.797 422.322L195.805 423.502C195.69 423.538 195.539 423.572 195.352 423.603C195.169 423.64 194.948 423.658 194.688 423.658C194.333 423.658 194.008 423.588 193.711 423.447C193.414 423.306 193.177 423.072 193 422.744C192.828 422.411 192.742 421.963 192.742 421.4V412.994ZM200.969 423.658C200.38 423.658 199.846 423.559 199.367 423.361C198.893 423.158 198.484 422.874 198.141 422.51C197.802 422.145 197.542 421.713 197.359 421.213C197.177 420.713 197.086 420.166 197.086 419.572V419.244C197.086 418.556 197.188 417.944 197.391 417.408C197.594 416.866 197.87 416.408 198.219 416.033C198.568 415.658 198.964 415.374 199.406 415.181C199.849 414.989 200.307 414.892 200.781 414.892C201.385 414.892 201.906 414.997 202.344 415.205C202.786 415.413 203.148 415.705 203.43 416.08C203.711 416.45 203.919 416.887 204.055 417.392C204.19 417.892 204.258 418.439 204.258 419.033V419.681H197.945V418.502H202.812V418.392C202.792 418.017 202.714 417.653 202.578 417.299C202.448 416.944 202.24 416.653 201.953 416.424C201.667 416.194 201.276 416.08 200.781 416.08C200.453 416.08 200.151 416.15 199.875 416.291C199.599 416.426 199.362 416.629 199.164 416.9C198.966 417.171 198.812 417.502 198.703 417.892C198.594 418.283 198.539 418.733 198.539 419.244V419.572C198.539 419.973 198.594 420.351 198.703 420.705C198.818 421.054 198.982 421.361 199.195 421.627C199.414 421.892 199.677 422.101 199.984 422.252C200.297 422.403 200.651 422.478 201.047 422.478C201.557 422.478 201.99 422.374 202.344 422.166C202.698 421.957 203.008 421.679 203.273 421.33L204.148 422.025C203.966 422.301 203.734 422.564 203.453 422.814C203.172 423.064 202.826 423.267 202.414 423.424C202.008 423.58 201.526 423.658 200.969 423.658ZM211.422 415.049H212.734V423.322C212.734 424.067 212.583 424.702 212.281 425.228C211.979 425.754 211.557 426.153 211.016 426.424C210.479 426.7 209.859 426.838 209.156 426.838C208.865 426.838 208.521 426.791 208.125 426.697C207.734 426.608 207.349 426.455 206.969 426.236C206.594 426.023 206.279 425.733 206.023 425.369L206.781 424.51C207.135 424.937 207.505 425.233 207.891 425.4C208.281 425.567 208.667 425.65 209.047 425.65C209.505 425.65 209.901 425.564 210.234 425.392C210.568 425.22 210.826 424.965 211.008 424.627C211.195 424.293 211.289 423.882 211.289 423.392V416.908L211.422 415.049ZM205.602 419.369V419.205C205.602 418.559 205.677 417.973 205.828 417.447C205.984 416.916 206.206 416.46 206.492 416.08C206.784 415.7 207.135 415.408 207.547 415.205C207.958 414.997 208.422 414.892 208.938 414.892C209.469 414.892 209.932 414.986 210.328 415.174C210.729 415.356 211.068 415.624 211.344 415.978C211.625 416.327 211.846 416.749 212.008 417.244C212.169 417.739 212.281 418.299 212.344 418.924V419.642C212.286 420.262 212.174 420.819 212.008 421.314C211.846 421.809 211.625 422.231 211.344 422.58C211.068 422.929 210.729 423.197 210.328 423.385C209.927 423.567 209.458 423.658 208.922 423.658C208.417 423.658 207.958 423.551 207.547 423.338C207.141 423.124 206.792 422.825 206.5 422.439C206.208 422.054 205.984 421.601 205.828 421.08C205.677 420.554 205.602 419.983 205.602 419.369ZM207.047 419.205V419.369C207.047 419.791 207.089 420.187 207.172 420.556C207.26 420.926 207.393 421.252 207.57 421.533C207.753 421.814 207.984 422.036 208.266 422.197C208.547 422.353 208.883 422.431 209.273 422.431C209.753 422.431 210.148 422.33 210.461 422.127C210.773 421.924 211.021 421.655 211.203 421.322C211.391 420.989 211.536 420.627 211.641 420.236V418.353C211.583 418.067 211.495 417.791 211.375 417.525C211.26 417.254 211.109 417.015 210.922 416.806C210.74 416.593 210.513 416.424 210.242 416.299C209.971 416.174 209.654 416.111 209.289 416.111C208.893 416.111 208.552 416.194 208.266 416.361C207.984 416.523 207.753 416.747 207.57 417.033C207.393 417.314 207.26 417.642 207.172 418.017C207.089 418.387 207.047 418.783 207.047 419.205ZM214.547 419.369V419.189C214.547 418.58 214.635 418.015 214.812 417.494C214.99 416.968 215.245 416.512 215.578 416.127C215.911 415.736 216.315 415.434 216.789 415.22C217.263 415.002 217.794 414.892 218.383 414.892C218.977 414.892 219.51 415.002 219.984 415.22C220.464 415.434 220.87 415.736 221.203 416.127C221.542 416.512 221.799 416.968 221.977 417.494C222.154 418.015 222.242 418.58 222.242 419.189V419.369C222.242 419.978 222.154 420.543 221.977 421.064C221.799 421.585 221.542 422.041 221.203 422.431C220.87 422.817 220.466 423.119 219.992 423.338C219.523 423.551 218.992 423.658 218.398 423.658C217.805 423.658 217.271 423.551 216.797 423.338C216.323 423.119 215.917 422.817 215.578 422.431C215.245 422.041 214.99 421.585 214.812 421.064C214.635 420.543 214.547 419.978 214.547 419.369ZM215.992 419.189V419.369C215.992 419.791 216.042 420.189 216.141 420.564C216.24 420.934 216.388 421.262 216.586 421.549C216.789 421.835 217.042 422.062 217.344 422.228C217.646 422.39 217.997 422.47 218.398 422.47C218.794 422.47 219.141 422.39 219.438 422.228C219.74 422.062 219.99 421.835 220.188 421.549C220.385 421.262 220.534 420.934 220.633 420.564C220.737 420.189 220.789 419.791 220.789 419.369V419.189C220.789 418.773 220.737 418.379 220.633 418.01C220.534 417.635 220.383 417.304 220.18 417.017C219.982 416.726 219.732 416.497 219.43 416.33C219.133 416.163 218.784 416.08 218.383 416.08C217.987 416.08 217.638 416.163 217.336 416.33C217.039 416.497 216.789 416.726 216.586 417.017C216.388 417.304 216.24 417.635 216.141 418.01C216.042 418.379 215.992 418.773 215.992 419.189ZM225.5 416.377V423.502H224.055V415.049H225.461L225.5 416.377ZM228.141 415.002L228.133 416.345C228.013 416.319 227.898 416.304 227.789 416.299C227.685 416.288 227.565 416.283 227.43 416.283C227.096 416.283 226.802 416.335 226.547 416.439C226.292 416.543 226.076 416.689 225.898 416.877C225.721 417.064 225.581 417.288 225.477 417.549C225.378 417.804 225.312 418.085 225.281 418.392L224.875 418.627C224.875 418.116 224.924 417.637 225.023 417.189C225.128 416.741 225.286 416.345 225.5 416.002C225.714 415.653 225.984 415.382 226.312 415.189C226.646 414.991 227.042 414.892 227.5 414.892C227.604 414.892 227.724 414.905 227.859 414.931C227.995 414.952 228.089 414.976 228.141 415.002ZM231.992 422.627L234.344 415.049H235.891L232.5 424.806C232.422 425.015 232.318 425.239 232.188 425.478C232.062 425.723 231.901 425.955 231.703 426.174C231.505 426.392 231.266 426.569 230.984 426.705C230.708 426.845 230.378 426.916 229.992 426.916C229.878 426.916 229.732 426.9 229.555 426.869C229.378 426.838 229.253 426.812 229.18 426.791L229.172 425.619C229.214 425.624 229.279 425.629 229.367 425.635C229.461 425.645 229.526 425.65 229.562 425.65C229.891 425.65 230.169 425.606 230.398 425.517C230.628 425.434 230.82 425.291 230.977 425.088C231.138 424.89 231.276 424.616 231.391 424.267L231.992 422.627ZM230.266 415.049L232.461 421.611L232.836 423.135L231.797 423.666L228.688 415.049H230.266Z" fill="#686868"/>
<defs>
<clipPath id="clip0_17087_12995">
<rect width="156" height="117" fill="white" transform="translate(0 0.501221)"/>
</clipPath>
<clipPath id="clip1_17087_12995">
<rect width="156" height="117" fill="white" transform="translate(0 133.501)"/>
</clipPath>
<clipPath id="clip2_17087_12995">
<rect width="156" height="117" fill="white" transform="translate(0 266.502)"/>
</clipPath>
<clipPath id="clip3_17087_12995">
<rect width="156" height="117" fill="white" transform="translate(0 399.502)"/>
</clipPath>
</defs>
</svg>
