<svg width="1296" height="187" viewBox="0 0 1296 187" fill="none" xmlns="http://www.w3.org/2000/svg">
<g clip-path="url(#clip0_17087_12989)">
<rect width="196" height="147" fill="#E3E3E3"/>
</g>
<path d="M67.7344 177.479H69.6094C69.5117 178.377 69.2546 179.181 68.8379 179.891C68.4212 180.6 67.832 181.164 67.0703 181.58C66.3086 181.99 65.3581 182.195 64.2188 182.195C63.3854 182.195 62.627 182.039 61.9434 181.727C61.2663 181.414 60.6836 180.972 60.1953 180.399C59.707 179.819 59.3294 179.126 59.0625 178.319C58.8021 177.505 58.6719 176.6 58.6719 175.604V174.188C58.6719 173.192 58.8021 172.29 59.0625 171.483C59.3294 170.669 59.7103 169.972 60.2051 169.393C60.7064 168.813 61.3086 168.367 62.0117 168.055C62.7148 167.742 63.5059 167.586 64.3848 167.586C65.459 167.586 66.3672 167.788 67.1094 168.192C67.8516 168.595 68.4277 169.155 68.8379 169.871C69.2546 170.581 69.5117 171.404 69.6094 172.342H67.7344C67.6432 171.678 67.474 171.108 67.2266 170.633C66.9792 170.151 66.6276 169.78 66.1719 169.52C65.7161 169.259 65.1204 169.129 64.3848 169.129C63.7533 169.129 63.1966 169.25 62.7148 169.49C62.2396 169.731 61.8392 170.073 61.5137 170.516C61.1947 170.959 60.9538 171.489 60.791 172.108C60.6283 172.726 60.5469 173.413 60.5469 174.168V175.604C60.5469 176.3 60.6185 176.955 60.7617 177.567C60.9115 178.179 61.1361 178.716 61.4355 179.178C61.735 179.64 62.1159 180.005 62.5781 180.272C63.0404 180.532 63.5872 180.662 64.2188 180.662C65.0195 180.662 65.6576 180.535 66.1328 180.281C66.6081 180.028 66.9661 179.663 67.207 179.188C67.4544 178.712 67.6302 178.143 67.7344 177.479ZM78.1348 180.194V174.754C78.1348 174.337 78.0501 173.976 77.8809 173.67C77.7181 173.358 77.4707 173.117 77.1387 172.947C76.8066 172.778 76.3965 172.694 75.9082 172.694C75.4525 172.694 75.0521 172.772 74.707 172.928C74.3685 173.084 74.1016 173.289 73.9062 173.543C73.7174 173.797 73.623 174.07 73.623 174.363H71.8164C71.8164 173.986 71.9141 173.612 72.1094 173.24C72.3047 172.869 72.5846 172.534 72.9492 172.235C73.3203 171.929 73.763 171.688 74.2773 171.512C74.7982 171.33 75.3776 171.238 76.0156 171.238C76.7839 171.238 77.4609 171.369 78.0469 171.629C78.6393 171.89 79.1016 172.283 79.4336 172.811C79.7721 173.332 79.9414 173.986 79.9414 174.774V179.695C79.9414 180.047 79.9707 180.421 80.0293 180.819C80.0944 181.216 80.1888 181.557 80.3125 181.844V182H78.4277C78.3366 181.792 78.265 181.515 78.2129 181.17C78.1608 180.819 78.1348 180.493 78.1348 180.194ZM78.4473 175.594L78.4668 176.863H76.6406C76.1263 176.863 75.6673 176.906 75.2637 176.99C74.86 177.069 74.5215 177.189 74.248 177.352C73.9746 177.515 73.7663 177.72 73.623 177.967C73.4798 178.208 73.4082 178.491 73.4082 178.817C73.4082 179.149 73.4831 179.451 73.6328 179.725C73.7826 179.998 74.0072 180.216 74.3066 180.379C74.6126 180.535 74.987 180.613 75.4297 180.613C75.9831 180.613 76.4714 180.496 76.8945 180.262C77.3177 180.028 77.653 179.741 77.9004 179.403C78.1543 179.064 78.291 178.735 78.3105 178.416L79.082 179.285C79.0365 179.559 78.9128 179.862 78.7109 180.194C78.5091 180.526 78.2389 180.845 77.9004 181.151C77.5684 181.45 77.1712 181.701 76.709 181.903C76.2533 182.098 75.7389 182.195 75.166 182.195C74.4499 182.195 73.8216 182.056 73.2812 181.776C72.7474 181.496 72.3307 181.121 72.0312 180.653C71.7383 180.177 71.5918 179.647 71.5918 179.061C71.5918 178.494 71.7025 177.996 71.9238 177.567C72.1452 177.13 72.4642 176.769 72.8809 176.483C73.2975 176.19 73.7988 175.968 74.3848 175.819C74.9707 175.669 75.625 175.594 76.3477 175.594H78.4473ZM87.207 171.434V172.82H81.4941V171.434H87.207ZM83.4277 168.865H85.2344V179.383C85.2344 179.741 85.2897 180.011 85.4004 180.194C85.5111 180.376 85.6543 180.496 85.8301 180.555C86.0059 180.613 86.1947 180.643 86.3965 180.643C86.5462 180.643 86.7025 180.63 86.8652 180.604C87.0345 180.571 87.1615 180.545 87.2461 180.526L87.2559 182C87.1126 182.046 86.9238 182.088 86.6895 182.127C86.4616 182.173 86.1849 182.195 85.8594 182.195C85.4167 182.195 85.0098 182.108 84.6387 181.932C84.2676 181.756 83.9714 181.463 83.75 181.053C83.5352 180.636 83.4277 180.076 83.4277 179.373V168.865ZM93.7109 182.195C92.9753 182.195 92.3079 182.072 91.709 181.824C91.1165 181.57 90.6055 181.216 90.1758 180.76C89.7526 180.304 89.4271 179.764 89.1992 179.139C88.9714 178.514 88.8574 177.83 88.8574 177.088V176.678C88.8574 175.819 88.9844 175.054 89.2383 174.383C89.4922 173.706 89.8372 173.133 90.2734 172.664C90.7096 172.195 91.2044 171.841 91.7578 171.6C92.3112 171.359 92.8841 171.238 93.4766 171.238C94.2318 171.238 94.8828 171.369 95.4297 171.629C95.9831 171.89 96.4355 172.254 96.7871 172.723C97.1387 173.185 97.3991 173.732 97.5684 174.363C97.7376 174.988 97.8223 175.672 97.8223 176.414V177.225H89.9316V175.75H96.0156V175.613C95.9896 175.145 95.8919 174.689 95.7227 174.246C95.5599 173.804 95.2995 173.439 94.9414 173.153C94.5833 172.866 94.0951 172.723 93.4766 172.723C93.0664 172.723 92.6888 172.811 92.3438 172.987C91.9987 173.156 91.7025 173.41 91.4551 173.748C91.2077 174.087 91.0156 174.5 90.8789 174.988C90.7422 175.477 90.6738 176.04 90.6738 176.678V177.088C90.6738 177.589 90.7422 178.061 90.8789 178.504C91.0221 178.94 91.2272 179.324 91.4941 179.656C91.7676 179.988 92.0964 180.249 92.4805 180.438C92.8711 180.626 93.3138 180.721 93.8086 180.721C94.4466 180.721 94.987 180.591 95.4297 180.33C95.8724 180.07 96.2598 179.722 96.5918 179.285L97.6855 180.154C97.4577 180.5 97.168 180.828 96.8164 181.141C96.4648 181.453 96.0319 181.707 95.5176 181.903C95.0098 182.098 94.4076 182.195 93.7109 182.195ZM106.777 171.434H108.418V181.776C108.418 182.707 108.229 183.501 107.852 184.158C107.474 184.816 106.947 185.314 106.27 185.653C105.599 185.998 104.824 186.17 103.945 186.17C103.581 186.17 103.151 186.112 102.656 185.994C102.168 185.884 101.686 185.692 101.211 185.418C100.742 185.151 100.348 184.79 100.029 184.334L100.977 183.26C101.419 183.794 101.882 184.165 102.363 184.373C102.852 184.582 103.333 184.686 103.809 184.686C104.382 184.686 104.876 184.578 105.293 184.363C105.71 184.149 106.032 183.83 106.26 183.406C106.494 182.99 106.611 182.475 106.611 181.863V173.758L106.777 171.434ZM99.502 176.834V176.629C99.502 175.822 99.5964 175.089 99.7852 174.432C99.9805 173.768 100.257 173.198 100.615 172.723C100.98 172.248 101.419 171.883 101.934 171.629C102.448 171.369 103.027 171.238 103.672 171.238C104.336 171.238 104.915 171.356 105.41 171.59C105.911 171.818 106.335 172.153 106.68 172.596C107.031 173.032 107.308 173.559 107.51 174.178C107.712 174.796 107.852 175.496 107.93 176.278V177.176C107.858 177.951 107.718 178.647 107.51 179.266C107.308 179.884 107.031 180.412 106.68 180.848C106.335 181.284 105.911 181.619 105.41 181.854C104.909 182.082 104.323 182.195 103.652 182.195C103.021 182.195 102.448 182.062 101.934 181.795C101.426 181.528 100.99 181.154 100.625 180.672C100.26 180.19 99.9805 179.624 99.7852 178.973C99.5964 178.315 99.502 177.602 99.502 176.834ZM101.309 176.629V176.834C101.309 177.362 101.361 177.856 101.465 178.319C101.576 178.781 101.742 179.188 101.963 179.539C102.191 179.891 102.48 180.168 102.832 180.369C103.184 180.565 103.604 180.662 104.092 180.662C104.691 180.662 105.186 180.535 105.576 180.281C105.967 180.028 106.276 179.692 106.504 179.276C106.738 178.859 106.921 178.406 107.051 177.918V175.565C106.979 175.207 106.868 174.862 106.719 174.529C106.576 174.191 106.387 173.891 106.152 173.631C105.924 173.364 105.641 173.153 105.303 172.996C104.964 172.84 104.567 172.762 104.111 172.762C103.617 172.762 103.19 172.866 102.832 173.074C102.48 173.276 102.191 173.556 101.963 173.914C101.742 174.266 101.576 174.676 101.465 175.145C101.361 175.607 101.309 176.102 101.309 176.629ZM110.684 176.834V176.61C110.684 175.848 110.794 175.141 111.016 174.49C111.237 173.833 111.556 173.263 111.973 172.781C112.389 172.293 112.894 171.916 113.486 171.649C114.079 171.375 114.743 171.238 115.479 171.238C116.221 171.238 116.888 171.375 117.48 171.649C118.079 171.916 118.587 172.293 119.004 172.781C119.427 173.263 119.749 173.833 119.971 174.49C120.192 175.141 120.303 175.848 120.303 176.61V176.834C120.303 177.596 120.192 178.302 119.971 178.953C119.749 179.604 119.427 180.174 119.004 180.662C118.587 181.144 118.083 181.522 117.49 181.795C116.904 182.062 116.24 182.195 115.498 182.195C114.756 182.195 114.089 182.062 113.496 181.795C112.904 181.522 112.396 181.144 111.973 180.662C111.556 180.174 111.237 179.604 111.016 178.953C110.794 178.302 110.684 177.596 110.684 176.834ZM112.49 176.61V176.834C112.49 177.362 112.552 177.86 112.676 178.328C112.799 178.791 112.985 179.201 113.232 179.559C113.486 179.917 113.802 180.2 114.18 180.408C114.557 180.61 114.997 180.711 115.498 180.711C115.993 180.711 116.426 180.61 116.797 180.408C117.174 180.2 117.487 179.917 117.734 179.559C117.982 179.201 118.167 178.791 118.291 178.328C118.421 177.86 118.486 177.362 118.486 176.834V176.61C118.486 176.089 118.421 175.597 118.291 175.135C118.167 174.666 117.979 174.253 117.725 173.895C117.477 173.53 117.165 173.244 116.787 173.035C116.416 172.827 115.98 172.723 115.479 172.723C114.984 172.723 114.548 172.827 114.17 173.035C113.799 173.244 113.486 173.53 113.232 173.895C112.985 174.253 112.799 174.666 112.676 175.135C112.552 175.597 112.49 176.089 112.49 176.61ZM124.375 173.094V182H122.568V171.434H124.326L124.375 173.094ZM127.676 171.375L127.666 173.055C127.516 173.022 127.373 173.003 127.236 172.996C127.106 172.983 126.956 172.977 126.787 172.977C126.37 172.977 126.003 173.042 125.684 173.172C125.365 173.302 125.094 173.485 124.873 173.719C124.652 173.953 124.476 174.233 124.346 174.559C124.222 174.878 124.141 175.229 124.102 175.613L123.594 175.906C123.594 175.268 123.656 174.669 123.779 174.11C123.91 173.55 124.108 173.055 124.375 172.625C124.642 172.189 124.98 171.85 125.391 171.61C125.807 171.362 126.302 171.238 126.875 171.238C127.005 171.238 127.155 171.255 127.324 171.287C127.493 171.313 127.611 171.343 127.676 171.375ZM132.49 180.906L135.43 171.434H137.363L133.125 183.631C133.027 183.891 132.897 184.171 132.734 184.471C132.578 184.777 132.376 185.067 132.129 185.34C131.882 185.613 131.582 185.835 131.23 186.004C130.885 186.18 130.472 186.268 129.99 186.268C129.847 186.268 129.665 186.248 129.443 186.209C129.222 186.17 129.066 186.138 128.975 186.112L128.965 184.647C129.017 184.653 129.098 184.66 129.209 184.666C129.326 184.679 129.408 184.686 129.453 184.686C129.863 184.686 130.212 184.63 130.498 184.52C130.785 184.416 131.025 184.237 131.221 183.983C131.423 183.735 131.595 183.393 131.738 182.957L132.49 180.906ZM130.332 171.434L133.076 179.637L133.545 181.541L132.246 182.205L128.359 171.434H130.332Z" fill="#686868"/>
<g clip-path="url(#clip1_17087_12989)">
<rect width="196" height="147" transform="translate(220)" fill="#E3E3E3"/>
</g>
<path d="M287.734 177.479H289.609C289.512 178.377 289.255 179.181 288.838 179.891C288.421 180.6 287.832 181.164 287.07 181.58C286.309 181.99 285.358 182.195 284.219 182.195C283.385 182.195 282.627 182.039 281.943 181.727C281.266 181.414 280.684 180.972 280.195 180.399C279.707 179.819 279.329 179.126 279.062 178.319C278.802 177.505 278.672 176.6 278.672 175.604V174.188C278.672 173.192 278.802 172.29 279.062 171.483C279.329 170.669 279.71 169.972 280.205 169.393C280.706 168.813 281.309 168.367 282.012 168.055C282.715 167.742 283.506 167.586 284.385 167.586C285.459 167.586 286.367 167.788 287.109 168.192C287.852 168.595 288.428 169.155 288.838 169.871C289.255 170.581 289.512 171.404 289.609 172.342H287.734C287.643 171.678 287.474 171.108 287.227 170.633C286.979 170.151 286.628 169.78 286.172 169.52C285.716 169.259 285.12 169.129 284.385 169.129C283.753 169.129 283.197 169.25 282.715 169.49C282.24 169.731 281.839 170.073 281.514 170.516C281.195 170.959 280.954 171.489 280.791 172.108C280.628 172.726 280.547 173.413 280.547 174.168V175.604C280.547 176.3 280.618 176.955 280.762 177.567C280.911 178.179 281.136 178.716 281.436 179.178C281.735 179.64 282.116 180.005 282.578 180.272C283.04 180.532 283.587 180.662 284.219 180.662C285.02 180.662 285.658 180.535 286.133 180.281C286.608 180.028 286.966 179.663 287.207 179.188C287.454 178.712 287.63 178.143 287.734 177.479ZM298.135 180.194V174.754C298.135 174.337 298.05 173.976 297.881 173.67C297.718 173.358 297.471 173.117 297.139 172.947C296.807 172.778 296.396 172.694 295.908 172.694C295.452 172.694 295.052 172.772 294.707 172.928C294.368 173.084 294.102 173.289 293.906 173.543C293.717 173.797 293.623 174.07 293.623 174.363H291.816C291.816 173.986 291.914 173.612 292.109 173.24C292.305 172.869 292.585 172.534 292.949 172.235C293.32 171.929 293.763 171.688 294.277 171.512C294.798 171.33 295.378 171.238 296.016 171.238C296.784 171.238 297.461 171.369 298.047 171.629C298.639 171.89 299.102 172.283 299.434 172.811C299.772 173.332 299.941 173.986 299.941 174.774V179.695C299.941 180.047 299.971 180.421 300.029 180.819C300.094 181.216 300.189 181.557 300.312 181.844V182H298.428C298.337 181.792 298.265 181.515 298.213 181.17C298.161 180.819 298.135 180.493 298.135 180.194ZM298.447 175.594L298.467 176.863H296.641C296.126 176.863 295.667 176.906 295.264 176.99C294.86 177.069 294.521 177.189 294.248 177.352C293.975 177.515 293.766 177.72 293.623 177.967C293.48 178.208 293.408 178.491 293.408 178.817C293.408 179.149 293.483 179.451 293.633 179.725C293.783 179.998 294.007 180.216 294.307 180.379C294.613 180.535 294.987 180.613 295.43 180.613C295.983 180.613 296.471 180.496 296.895 180.262C297.318 180.028 297.653 179.741 297.9 179.403C298.154 179.064 298.291 178.735 298.311 178.416L299.082 179.285C299.036 179.559 298.913 179.862 298.711 180.194C298.509 180.526 298.239 180.845 297.9 181.151C297.568 181.45 297.171 181.701 296.709 181.903C296.253 182.098 295.739 182.195 295.166 182.195C294.45 182.195 293.822 182.056 293.281 181.776C292.747 181.496 292.331 181.121 292.031 180.653C291.738 180.177 291.592 179.647 291.592 179.061C291.592 178.494 291.702 177.996 291.924 177.567C292.145 177.13 292.464 176.769 292.881 176.483C293.298 176.19 293.799 175.968 294.385 175.819C294.971 175.669 295.625 175.594 296.348 175.594H298.447ZM307.207 171.434V172.82H301.494V171.434H307.207ZM303.428 168.865H305.234V179.383C305.234 179.741 305.29 180.011 305.4 180.194C305.511 180.376 305.654 180.496 305.83 180.555C306.006 180.613 306.195 180.643 306.396 180.643C306.546 180.643 306.702 180.63 306.865 180.604C307.035 180.571 307.161 180.545 307.246 180.526L307.256 182C307.113 182.046 306.924 182.088 306.689 182.127C306.462 182.173 306.185 182.195 305.859 182.195C305.417 182.195 305.01 182.108 304.639 181.932C304.268 181.756 303.971 181.463 303.75 181.053C303.535 180.636 303.428 180.076 303.428 179.373V168.865ZM313.711 182.195C312.975 182.195 312.308 182.072 311.709 181.824C311.117 181.57 310.605 181.216 310.176 180.76C309.753 180.304 309.427 179.764 309.199 179.139C308.971 178.514 308.857 177.83 308.857 177.088V176.678C308.857 175.819 308.984 175.054 309.238 174.383C309.492 173.706 309.837 173.133 310.273 172.664C310.71 172.195 311.204 171.841 311.758 171.6C312.311 171.359 312.884 171.238 313.477 171.238C314.232 171.238 314.883 171.369 315.43 171.629C315.983 171.89 316.436 172.254 316.787 172.723C317.139 173.185 317.399 173.732 317.568 174.363C317.738 174.988 317.822 175.672 317.822 176.414V177.225H309.932V175.75H316.016V175.613C315.99 175.145 315.892 174.689 315.723 174.246C315.56 173.804 315.299 173.439 314.941 173.153C314.583 172.866 314.095 172.723 313.477 172.723C313.066 172.723 312.689 172.811 312.344 172.987C311.999 173.156 311.702 173.41 311.455 173.748C311.208 174.087 311.016 174.5 310.879 174.988C310.742 175.477 310.674 176.04 310.674 176.678V177.088C310.674 177.589 310.742 178.061 310.879 178.504C311.022 178.94 311.227 179.324 311.494 179.656C311.768 179.988 312.096 180.249 312.48 180.438C312.871 180.626 313.314 180.721 313.809 180.721C314.447 180.721 314.987 180.591 315.43 180.33C315.872 180.07 316.26 179.722 316.592 179.285L317.686 180.154C317.458 180.5 317.168 180.828 316.816 181.141C316.465 181.453 316.032 181.707 315.518 181.903C315.01 182.098 314.408 182.195 313.711 182.195ZM326.777 171.434H328.418V181.776C328.418 182.707 328.229 183.501 327.852 184.158C327.474 184.816 326.947 185.314 326.27 185.653C325.599 185.998 324.824 186.17 323.945 186.17C323.581 186.17 323.151 186.112 322.656 185.994C322.168 185.884 321.686 185.692 321.211 185.418C320.742 185.151 320.348 184.79 320.029 184.334L320.977 183.26C321.419 183.794 321.882 184.165 322.363 184.373C322.852 184.582 323.333 184.686 323.809 184.686C324.382 184.686 324.876 184.578 325.293 184.363C325.71 184.149 326.032 183.83 326.26 183.406C326.494 182.99 326.611 182.475 326.611 181.863V173.758L326.777 171.434ZM319.502 176.834V176.629C319.502 175.822 319.596 175.089 319.785 174.432C319.98 173.768 320.257 173.198 320.615 172.723C320.98 172.248 321.419 171.883 321.934 171.629C322.448 171.369 323.027 171.238 323.672 171.238C324.336 171.238 324.915 171.356 325.41 171.59C325.911 171.818 326.335 172.153 326.68 172.596C327.031 173.032 327.308 173.559 327.51 174.178C327.712 174.796 327.852 175.496 327.93 176.278V177.176C327.858 177.951 327.718 178.647 327.51 179.266C327.308 179.884 327.031 180.412 326.68 180.848C326.335 181.284 325.911 181.619 325.41 181.854C324.909 182.082 324.323 182.195 323.652 182.195C323.021 182.195 322.448 182.062 321.934 181.795C321.426 181.528 320.99 181.154 320.625 180.672C320.26 180.19 319.98 179.624 319.785 178.973C319.596 178.315 319.502 177.602 319.502 176.834ZM321.309 176.629V176.834C321.309 177.362 321.361 177.856 321.465 178.319C321.576 178.781 321.742 179.188 321.963 179.539C322.191 179.891 322.48 180.168 322.832 180.369C323.184 180.565 323.604 180.662 324.092 180.662C324.691 180.662 325.186 180.535 325.576 180.281C325.967 180.028 326.276 179.692 326.504 179.276C326.738 178.859 326.921 178.406 327.051 177.918V175.565C326.979 175.207 326.868 174.862 326.719 174.529C326.576 174.191 326.387 173.891 326.152 173.631C325.924 173.364 325.641 173.153 325.303 172.996C324.964 172.84 324.567 172.762 324.111 172.762C323.617 172.762 323.19 172.866 322.832 173.074C322.48 173.276 322.191 173.556 321.963 173.914C321.742 174.266 321.576 174.676 321.465 175.145C321.361 175.607 321.309 176.102 321.309 176.629ZM330.684 176.834V176.61C330.684 175.848 330.794 175.141 331.016 174.49C331.237 173.833 331.556 173.263 331.973 172.781C332.389 172.293 332.894 171.916 333.486 171.649C334.079 171.375 334.743 171.238 335.479 171.238C336.221 171.238 336.888 171.375 337.48 171.649C338.079 171.916 338.587 172.293 339.004 172.781C339.427 173.263 339.749 173.833 339.971 174.49C340.192 175.141 340.303 175.848 340.303 176.61V176.834C340.303 177.596 340.192 178.302 339.971 178.953C339.749 179.604 339.427 180.174 339.004 180.662C338.587 181.144 338.083 181.522 337.49 181.795C336.904 182.062 336.24 182.195 335.498 182.195C334.756 182.195 334.089 182.062 333.496 181.795C332.904 181.522 332.396 181.144 331.973 180.662C331.556 180.174 331.237 179.604 331.016 178.953C330.794 178.302 330.684 177.596 330.684 176.834ZM332.49 176.61V176.834C332.49 177.362 332.552 177.86 332.676 178.328C332.799 178.791 332.985 179.201 333.232 179.559C333.486 179.917 333.802 180.2 334.18 180.408C334.557 180.61 334.997 180.711 335.498 180.711C335.993 180.711 336.426 180.61 336.797 180.408C337.174 180.2 337.487 179.917 337.734 179.559C337.982 179.201 338.167 178.791 338.291 178.328C338.421 177.86 338.486 177.362 338.486 176.834V176.61C338.486 176.089 338.421 175.597 338.291 175.135C338.167 174.666 337.979 174.253 337.725 173.895C337.477 173.53 337.165 173.244 336.787 173.035C336.416 172.827 335.98 172.723 335.479 172.723C334.984 172.723 334.548 172.827 334.17 173.035C333.799 173.244 333.486 173.53 333.232 173.895C332.985 174.253 332.799 174.666 332.676 175.135C332.552 175.597 332.49 176.089 332.49 176.61ZM344.375 173.094V182H342.568V171.434H344.326L344.375 173.094ZM347.676 171.375L347.666 173.055C347.516 173.022 347.373 173.003 347.236 172.996C347.106 172.983 346.956 172.977 346.787 172.977C346.37 172.977 346.003 173.042 345.684 173.172C345.365 173.302 345.094 173.485 344.873 173.719C344.652 173.953 344.476 174.233 344.346 174.559C344.222 174.878 344.141 175.229 344.102 175.613L343.594 175.906C343.594 175.268 343.656 174.669 343.779 174.11C343.91 173.55 344.108 173.055 344.375 172.625C344.642 172.189 344.98 171.85 345.391 171.61C345.807 171.362 346.302 171.238 346.875 171.238C347.005 171.238 347.155 171.255 347.324 171.287C347.493 171.313 347.611 171.343 347.676 171.375ZM352.49 180.906L355.43 171.434H357.363L353.125 183.631C353.027 183.891 352.897 184.171 352.734 184.471C352.578 184.777 352.376 185.067 352.129 185.34C351.882 185.613 351.582 185.835 351.23 186.004C350.885 186.18 350.472 186.268 349.99 186.268C349.847 186.268 349.665 186.248 349.443 186.209C349.222 186.17 349.066 186.138 348.975 186.112L348.965 184.647C349.017 184.653 349.098 184.66 349.209 184.666C349.326 184.679 349.408 184.686 349.453 184.686C349.863 184.686 350.212 184.63 350.498 184.52C350.785 184.416 351.025 184.237 351.221 183.983C351.423 183.735 351.595 183.393 351.738 182.957L352.49 180.906ZM350.332 171.434L353.076 179.637L353.545 181.541L352.246 182.205L348.359 171.434H350.332Z" fill="#686868"/>
<g clip-path="url(#clip2_17087_12989)">
<rect width="196" height="147" transform="translate(440)" fill="#E3E3E3"/>
</g>
<path d="M507.734 177.479H509.609C509.512 178.377 509.255 179.181 508.838 179.891C508.421 180.6 507.832 181.164 507.07 181.58C506.309 181.99 505.358 182.195 504.219 182.195C503.385 182.195 502.627 182.039 501.943 181.727C501.266 181.414 500.684 180.972 500.195 180.399C499.707 179.819 499.329 179.126 499.062 178.319C498.802 177.505 498.672 176.6 498.672 175.604V174.188C498.672 173.192 498.802 172.29 499.062 171.483C499.329 170.669 499.71 169.972 500.205 169.393C500.706 168.813 501.309 168.367 502.012 168.055C502.715 167.742 503.506 167.586 504.385 167.586C505.459 167.586 506.367 167.788 507.109 168.192C507.852 168.595 508.428 169.155 508.838 169.871C509.255 170.581 509.512 171.404 509.609 172.342H507.734C507.643 171.678 507.474 171.108 507.227 170.633C506.979 170.151 506.628 169.78 506.172 169.52C505.716 169.259 505.12 169.129 504.385 169.129C503.753 169.129 503.197 169.25 502.715 169.49C502.24 169.731 501.839 170.073 501.514 170.516C501.195 170.959 500.954 171.489 500.791 172.108C500.628 172.726 500.547 173.413 500.547 174.168V175.604C500.547 176.3 500.618 176.955 500.762 177.567C500.911 178.179 501.136 178.716 501.436 179.178C501.735 179.64 502.116 180.005 502.578 180.272C503.04 180.532 503.587 180.662 504.219 180.662C505.02 180.662 505.658 180.535 506.133 180.281C506.608 180.028 506.966 179.663 507.207 179.188C507.454 178.712 507.63 178.143 507.734 177.479ZM518.135 180.194V174.754C518.135 174.337 518.05 173.976 517.881 173.67C517.718 173.358 517.471 173.117 517.139 172.947C516.807 172.778 516.396 172.694 515.908 172.694C515.452 172.694 515.052 172.772 514.707 172.928C514.368 173.084 514.102 173.289 513.906 173.543C513.717 173.797 513.623 174.07 513.623 174.363H511.816C511.816 173.986 511.914 173.612 512.109 173.24C512.305 172.869 512.585 172.534 512.949 172.235C513.32 171.929 513.763 171.688 514.277 171.512C514.798 171.33 515.378 171.238 516.016 171.238C516.784 171.238 517.461 171.369 518.047 171.629C518.639 171.89 519.102 172.283 519.434 172.811C519.772 173.332 519.941 173.986 519.941 174.774V179.695C519.941 180.047 519.971 180.421 520.029 180.819C520.094 181.216 520.189 181.557 520.312 181.844V182H518.428C518.337 181.792 518.265 181.515 518.213 181.17C518.161 180.819 518.135 180.493 518.135 180.194ZM518.447 175.594L518.467 176.863H516.641C516.126 176.863 515.667 176.906 515.264 176.99C514.86 177.069 514.521 177.189 514.248 177.352C513.975 177.515 513.766 177.72 513.623 177.967C513.48 178.208 513.408 178.491 513.408 178.817C513.408 179.149 513.483 179.451 513.633 179.725C513.783 179.998 514.007 180.216 514.307 180.379C514.613 180.535 514.987 180.613 515.43 180.613C515.983 180.613 516.471 180.496 516.895 180.262C517.318 180.028 517.653 179.741 517.9 179.403C518.154 179.064 518.291 178.735 518.311 178.416L519.082 179.285C519.036 179.559 518.913 179.862 518.711 180.194C518.509 180.526 518.239 180.845 517.9 181.151C517.568 181.45 517.171 181.701 516.709 181.903C516.253 182.098 515.739 182.195 515.166 182.195C514.45 182.195 513.822 182.056 513.281 181.776C512.747 181.496 512.331 181.121 512.031 180.653C511.738 180.177 511.592 179.647 511.592 179.061C511.592 178.494 511.702 177.996 511.924 177.567C512.145 177.13 512.464 176.769 512.881 176.483C513.298 176.19 513.799 175.968 514.385 175.819C514.971 175.669 515.625 175.594 516.348 175.594H518.447ZM527.207 171.434V172.82H521.494V171.434H527.207ZM523.428 168.865H525.234V179.383C525.234 179.741 525.29 180.011 525.4 180.194C525.511 180.376 525.654 180.496 525.83 180.555C526.006 180.613 526.195 180.643 526.396 180.643C526.546 180.643 526.702 180.63 526.865 180.604C527.035 180.571 527.161 180.545 527.246 180.526L527.256 182C527.113 182.046 526.924 182.088 526.689 182.127C526.462 182.173 526.185 182.195 525.859 182.195C525.417 182.195 525.01 182.108 524.639 181.932C524.268 181.756 523.971 181.463 523.75 181.053C523.535 180.636 523.428 180.076 523.428 179.373V168.865ZM533.711 182.195C532.975 182.195 532.308 182.072 531.709 181.824C531.117 181.57 530.605 181.216 530.176 180.76C529.753 180.304 529.427 179.764 529.199 179.139C528.971 178.514 528.857 177.83 528.857 177.088V176.678C528.857 175.819 528.984 175.054 529.238 174.383C529.492 173.706 529.837 173.133 530.273 172.664C530.71 172.195 531.204 171.841 531.758 171.6C532.311 171.359 532.884 171.238 533.477 171.238C534.232 171.238 534.883 171.369 535.43 171.629C535.983 171.89 536.436 172.254 536.787 172.723C537.139 173.185 537.399 173.732 537.568 174.363C537.738 174.988 537.822 175.672 537.822 176.414V177.225H529.932V175.75H536.016V175.613C535.99 175.145 535.892 174.689 535.723 174.246C535.56 173.804 535.299 173.439 534.941 173.153C534.583 172.866 534.095 172.723 533.477 172.723C533.066 172.723 532.689 172.811 532.344 172.987C531.999 173.156 531.702 173.41 531.455 173.748C531.208 174.087 531.016 174.5 530.879 174.988C530.742 175.477 530.674 176.04 530.674 176.678V177.088C530.674 177.589 530.742 178.061 530.879 178.504C531.022 178.94 531.227 179.324 531.494 179.656C531.768 179.988 532.096 180.249 532.48 180.438C532.871 180.626 533.314 180.721 533.809 180.721C534.447 180.721 534.987 180.591 535.43 180.33C535.872 180.07 536.26 179.722 536.592 179.285L537.686 180.154C537.458 180.5 537.168 180.828 536.816 181.141C536.465 181.453 536.032 181.707 535.518 181.903C535.01 182.098 534.408 182.195 533.711 182.195ZM546.777 171.434H548.418V181.776C548.418 182.707 548.229 183.501 547.852 184.158C547.474 184.816 546.947 185.314 546.27 185.653C545.599 185.998 544.824 186.17 543.945 186.17C543.581 186.17 543.151 186.112 542.656 185.994C542.168 185.884 541.686 185.692 541.211 185.418C540.742 185.151 540.348 184.79 540.029 184.334L540.977 183.26C541.419 183.794 541.882 184.165 542.363 184.373C542.852 184.582 543.333 184.686 543.809 184.686C544.382 184.686 544.876 184.578 545.293 184.363C545.71 184.149 546.032 183.83 546.26 183.406C546.494 182.99 546.611 182.475 546.611 181.863V173.758L546.777 171.434ZM539.502 176.834V176.629C539.502 175.822 539.596 175.089 539.785 174.432C539.98 173.768 540.257 173.198 540.615 172.723C540.98 172.248 541.419 171.883 541.934 171.629C542.448 171.369 543.027 171.238 543.672 171.238C544.336 171.238 544.915 171.356 545.41 171.59C545.911 171.818 546.335 172.153 546.68 172.596C547.031 173.032 547.308 173.559 547.51 174.178C547.712 174.796 547.852 175.496 547.93 176.278V177.176C547.858 177.951 547.718 178.647 547.51 179.266C547.308 179.884 547.031 180.412 546.68 180.848C546.335 181.284 545.911 181.619 545.41 181.854C544.909 182.082 544.323 182.195 543.652 182.195C543.021 182.195 542.448 182.062 541.934 181.795C541.426 181.528 540.99 181.154 540.625 180.672C540.26 180.19 539.98 179.624 539.785 178.973C539.596 178.315 539.502 177.602 539.502 176.834ZM541.309 176.629V176.834C541.309 177.362 541.361 177.856 541.465 178.319C541.576 178.781 541.742 179.188 541.963 179.539C542.191 179.891 542.48 180.168 542.832 180.369C543.184 180.565 543.604 180.662 544.092 180.662C544.691 180.662 545.186 180.535 545.576 180.281C545.967 180.028 546.276 179.692 546.504 179.276C546.738 178.859 546.921 178.406 547.051 177.918V175.565C546.979 175.207 546.868 174.862 546.719 174.529C546.576 174.191 546.387 173.891 546.152 173.631C545.924 173.364 545.641 173.153 545.303 172.996C544.964 172.84 544.567 172.762 544.111 172.762C543.617 172.762 543.19 172.866 542.832 173.074C542.48 173.276 542.191 173.556 541.963 173.914C541.742 174.266 541.576 174.676 541.465 175.145C541.361 175.607 541.309 176.102 541.309 176.629ZM550.684 176.834V176.61C550.684 175.848 550.794 175.141 551.016 174.49C551.237 173.833 551.556 173.263 551.973 172.781C552.389 172.293 552.894 171.916 553.486 171.649C554.079 171.375 554.743 171.238 555.479 171.238C556.221 171.238 556.888 171.375 557.48 171.649C558.079 171.916 558.587 172.293 559.004 172.781C559.427 173.263 559.749 173.833 559.971 174.49C560.192 175.141 560.303 175.848 560.303 176.61V176.834C560.303 177.596 560.192 178.302 559.971 178.953C559.749 179.604 559.427 180.174 559.004 180.662C558.587 181.144 558.083 181.522 557.49 181.795C556.904 182.062 556.24 182.195 555.498 182.195C554.756 182.195 554.089 182.062 553.496 181.795C552.904 181.522 552.396 181.144 551.973 180.662C551.556 180.174 551.237 179.604 551.016 178.953C550.794 178.302 550.684 177.596 550.684 176.834ZM552.49 176.61V176.834C552.49 177.362 552.552 177.86 552.676 178.328C552.799 178.791 552.985 179.201 553.232 179.559C553.486 179.917 553.802 180.2 554.18 180.408C554.557 180.61 554.997 180.711 555.498 180.711C555.993 180.711 556.426 180.61 556.797 180.408C557.174 180.2 557.487 179.917 557.734 179.559C557.982 179.201 558.167 178.791 558.291 178.328C558.421 177.86 558.486 177.362 558.486 176.834V176.61C558.486 176.089 558.421 175.597 558.291 175.135C558.167 174.666 557.979 174.253 557.725 173.895C557.477 173.53 557.165 173.244 556.787 173.035C556.416 172.827 555.98 172.723 555.479 172.723C554.984 172.723 554.548 172.827 554.17 173.035C553.799 173.244 553.486 173.53 553.232 173.895C552.985 174.253 552.799 174.666 552.676 175.135C552.552 175.597 552.49 176.089 552.49 176.61ZM564.375 173.094V182H562.568V171.434H564.326L564.375 173.094ZM567.676 171.375L567.666 173.055C567.516 173.022 567.373 173.003 567.236 172.996C567.106 172.983 566.956 172.977 566.787 172.977C566.37 172.977 566.003 173.042 565.684 173.172C565.365 173.302 565.094 173.485 564.873 173.719C564.652 173.953 564.476 174.233 564.346 174.559C564.222 174.878 564.141 175.229 564.102 175.613L563.594 175.906C563.594 175.268 563.656 174.669 563.779 174.11C563.91 173.55 564.108 173.055 564.375 172.625C564.642 172.189 564.98 171.85 565.391 171.61C565.807 171.362 566.302 171.238 566.875 171.238C567.005 171.238 567.155 171.255 567.324 171.287C567.493 171.313 567.611 171.343 567.676 171.375ZM572.49 180.906L575.43 171.434H577.363L573.125 183.631C573.027 183.891 572.897 184.171 572.734 184.471C572.578 184.777 572.376 185.067 572.129 185.34C571.882 185.613 571.582 185.835 571.23 186.004C570.885 186.18 570.472 186.268 569.99 186.268C569.847 186.268 569.665 186.248 569.443 186.209C569.222 186.17 569.066 186.138 568.975 186.112L568.965 184.647C569.017 184.653 569.098 184.66 569.209 184.666C569.326 184.679 569.408 184.686 569.453 184.686C569.863 184.686 570.212 184.63 570.498 184.52C570.785 184.416 571.025 184.237 571.221 183.983C571.423 183.735 571.595 183.393 571.738 182.957L572.49 180.906ZM570.332 171.434L573.076 179.637L573.545 181.541L572.246 182.205L568.359 171.434H570.332Z" fill="#686868"/>
<g clip-path="url(#clip3_17087_12989)">
<rect width="196" height="147" transform="translate(660)" fill="#E3E3E3"/>
</g>
<path d="M727.734 177.479H729.609C729.512 178.377 729.255 179.181 728.838 179.891C728.421 180.6 727.832 181.164 727.07 181.58C726.309 181.99 725.358 182.195 724.219 182.195C723.385 182.195 722.627 182.039 721.943 181.727C721.266 181.414 720.684 180.972 720.195 180.399C719.707 179.819 719.329 179.126 719.062 178.319C718.802 177.505 718.672 176.6 718.672 175.604V174.188C718.672 173.192 718.802 172.29 719.062 171.483C719.329 170.669 719.71 169.972 720.205 169.393C720.706 168.813 721.309 168.367 722.012 168.055C722.715 167.742 723.506 167.586 724.385 167.586C725.459 167.586 726.367 167.788 727.109 168.192C727.852 168.595 728.428 169.155 728.838 169.871C729.255 170.581 729.512 171.404 729.609 172.342H727.734C727.643 171.678 727.474 171.108 727.227 170.633C726.979 170.151 726.628 169.78 726.172 169.52C725.716 169.259 725.12 169.129 724.385 169.129C723.753 169.129 723.197 169.25 722.715 169.49C722.24 169.731 721.839 170.073 721.514 170.516C721.195 170.959 720.954 171.489 720.791 172.108C720.628 172.726 720.547 173.413 720.547 174.168V175.604C720.547 176.3 720.618 176.955 720.762 177.567C720.911 178.179 721.136 178.716 721.436 179.178C721.735 179.64 722.116 180.005 722.578 180.272C723.04 180.532 723.587 180.662 724.219 180.662C725.02 180.662 725.658 180.535 726.133 180.281C726.608 180.028 726.966 179.663 727.207 179.188C727.454 178.712 727.63 178.143 727.734 177.479ZM738.135 180.194V174.754C738.135 174.337 738.05 173.976 737.881 173.67C737.718 173.358 737.471 173.117 737.139 172.947C736.807 172.778 736.396 172.694 735.908 172.694C735.452 172.694 735.052 172.772 734.707 172.928C734.368 173.084 734.102 173.289 733.906 173.543C733.717 173.797 733.623 174.07 733.623 174.363H731.816C731.816 173.986 731.914 173.612 732.109 173.24C732.305 172.869 732.585 172.534 732.949 172.235C733.32 171.929 733.763 171.688 734.277 171.512C734.798 171.33 735.378 171.238 736.016 171.238C736.784 171.238 737.461 171.369 738.047 171.629C738.639 171.89 739.102 172.283 739.434 172.811C739.772 173.332 739.941 173.986 739.941 174.774V179.695C739.941 180.047 739.971 180.421 740.029 180.819C740.094 181.216 740.189 181.557 740.312 181.844V182H738.428C738.337 181.792 738.265 181.515 738.213 181.17C738.161 180.819 738.135 180.493 738.135 180.194ZM738.447 175.594L738.467 176.863H736.641C736.126 176.863 735.667 176.906 735.264 176.99C734.86 177.069 734.521 177.189 734.248 177.352C733.975 177.515 733.766 177.72 733.623 177.967C733.48 178.208 733.408 178.491 733.408 178.817C733.408 179.149 733.483 179.451 733.633 179.725C733.783 179.998 734.007 180.216 734.307 180.379C734.613 180.535 734.987 180.613 735.43 180.613C735.983 180.613 736.471 180.496 736.895 180.262C737.318 180.028 737.653 179.741 737.9 179.403C738.154 179.064 738.291 178.735 738.311 178.416L739.082 179.285C739.036 179.559 738.913 179.862 738.711 180.194C738.509 180.526 738.239 180.845 737.9 181.151C737.568 181.45 737.171 181.701 736.709 181.903C736.253 182.098 735.739 182.195 735.166 182.195C734.45 182.195 733.822 182.056 733.281 181.776C732.747 181.496 732.331 181.121 732.031 180.653C731.738 180.177 731.592 179.647 731.592 179.061C731.592 178.494 731.702 177.996 731.924 177.567C732.145 177.13 732.464 176.769 732.881 176.483C733.298 176.19 733.799 175.968 734.385 175.819C734.971 175.669 735.625 175.594 736.348 175.594H738.447ZM747.207 171.434V172.82H741.494V171.434H747.207ZM743.428 168.865H745.234V179.383C745.234 179.741 745.29 180.011 745.4 180.194C745.511 180.376 745.654 180.496 745.83 180.555C746.006 180.613 746.195 180.643 746.396 180.643C746.546 180.643 746.702 180.63 746.865 180.604C747.035 180.571 747.161 180.545 747.246 180.526L747.256 182C747.113 182.046 746.924 182.088 746.689 182.127C746.462 182.173 746.185 182.195 745.859 182.195C745.417 182.195 745.01 182.108 744.639 181.932C744.268 181.756 743.971 181.463 743.75 181.053C743.535 180.636 743.428 180.076 743.428 179.373V168.865ZM753.711 182.195C752.975 182.195 752.308 182.072 751.709 181.824C751.117 181.57 750.605 181.216 750.176 180.76C749.753 180.304 749.427 179.764 749.199 179.139C748.971 178.514 748.857 177.83 748.857 177.088V176.678C748.857 175.819 748.984 175.054 749.238 174.383C749.492 173.706 749.837 173.133 750.273 172.664C750.71 172.195 751.204 171.841 751.758 171.6C752.311 171.359 752.884 171.238 753.477 171.238C754.232 171.238 754.883 171.369 755.43 171.629C755.983 171.89 756.436 172.254 756.787 172.723C757.139 173.185 757.399 173.732 757.568 174.363C757.738 174.988 757.822 175.672 757.822 176.414V177.225H749.932V175.75H756.016V175.613C755.99 175.145 755.892 174.689 755.723 174.246C755.56 173.804 755.299 173.439 754.941 173.153C754.583 172.866 754.095 172.723 753.477 172.723C753.066 172.723 752.689 172.811 752.344 172.987C751.999 173.156 751.702 173.41 751.455 173.748C751.208 174.087 751.016 174.5 750.879 174.988C750.742 175.477 750.674 176.04 750.674 176.678V177.088C750.674 177.589 750.742 178.061 750.879 178.504C751.022 178.94 751.227 179.324 751.494 179.656C751.768 179.988 752.096 180.249 752.48 180.438C752.871 180.626 753.314 180.721 753.809 180.721C754.447 180.721 754.987 180.591 755.43 180.33C755.872 180.07 756.26 179.722 756.592 179.285L757.686 180.154C757.458 180.5 757.168 180.828 756.816 181.141C756.465 181.453 756.032 181.707 755.518 181.903C755.01 182.098 754.408 182.195 753.711 182.195ZM766.777 171.434H768.418V181.776C768.418 182.707 768.229 183.501 767.852 184.158C767.474 184.816 766.947 185.314 766.27 185.653C765.599 185.998 764.824 186.17 763.945 186.17C763.581 186.17 763.151 186.112 762.656 185.994C762.168 185.884 761.686 185.692 761.211 185.418C760.742 185.151 760.348 184.79 760.029 184.334L760.977 183.26C761.419 183.794 761.882 184.165 762.363 184.373C762.852 184.582 763.333 184.686 763.809 184.686C764.382 184.686 764.876 184.578 765.293 184.363C765.71 184.149 766.032 183.83 766.26 183.406C766.494 182.99 766.611 182.475 766.611 181.863V173.758L766.777 171.434ZM759.502 176.834V176.629C759.502 175.822 759.596 175.089 759.785 174.432C759.98 173.768 760.257 173.198 760.615 172.723C760.98 172.248 761.419 171.883 761.934 171.629C762.448 171.369 763.027 171.238 763.672 171.238C764.336 171.238 764.915 171.356 765.41 171.59C765.911 171.818 766.335 172.153 766.68 172.596C767.031 173.032 767.308 173.559 767.51 174.178C767.712 174.796 767.852 175.496 767.93 176.278V177.176C767.858 177.951 767.718 178.647 767.51 179.266C767.308 179.884 767.031 180.412 766.68 180.848C766.335 181.284 765.911 181.619 765.41 181.854C764.909 182.082 764.323 182.195 763.652 182.195C763.021 182.195 762.448 182.062 761.934 181.795C761.426 181.528 760.99 181.154 760.625 180.672C760.26 180.19 759.98 179.624 759.785 178.973C759.596 178.315 759.502 177.602 759.502 176.834ZM761.309 176.629V176.834C761.309 177.362 761.361 177.856 761.465 178.319C761.576 178.781 761.742 179.188 761.963 179.539C762.191 179.891 762.48 180.168 762.832 180.369C763.184 180.565 763.604 180.662 764.092 180.662C764.691 180.662 765.186 180.535 765.576 180.281C765.967 180.028 766.276 179.692 766.504 179.276C766.738 178.859 766.921 178.406 767.051 177.918V175.565C766.979 175.207 766.868 174.862 766.719 174.529C766.576 174.191 766.387 173.891 766.152 173.631C765.924 173.364 765.641 173.153 765.303 172.996C764.964 172.84 764.567 172.762 764.111 172.762C763.617 172.762 763.19 172.866 762.832 173.074C762.48 173.276 762.191 173.556 761.963 173.914C761.742 174.266 761.576 174.676 761.465 175.145C761.361 175.607 761.309 176.102 761.309 176.629ZM770.684 176.834V176.61C770.684 175.848 770.794 175.141 771.016 174.49C771.237 173.833 771.556 173.263 771.973 172.781C772.389 172.293 772.894 171.916 773.486 171.649C774.079 171.375 774.743 171.238 775.479 171.238C776.221 171.238 776.888 171.375 777.48 171.649C778.079 171.916 778.587 172.293 779.004 172.781C779.427 173.263 779.749 173.833 779.971 174.49C780.192 175.141 780.303 175.848 780.303 176.61V176.834C780.303 177.596 780.192 178.302 779.971 178.953C779.749 179.604 779.427 180.174 779.004 180.662C778.587 181.144 778.083 181.522 777.49 181.795C776.904 182.062 776.24 182.195 775.498 182.195C774.756 182.195 774.089 182.062 773.496 181.795C772.904 181.522 772.396 181.144 771.973 180.662C771.556 180.174 771.237 179.604 771.016 178.953C770.794 178.302 770.684 177.596 770.684 176.834ZM772.49 176.61V176.834C772.49 177.362 772.552 177.86 772.676 178.328C772.799 178.791 772.985 179.201 773.232 179.559C773.486 179.917 773.802 180.2 774.18 180.408C774.557 180.61 774.997 180.711 775.498 180.711C775.993 180.711 776.426 180.61 776.797 180.408C777.174 180.2 777.487 179.917 777.734 179.559C777.982 179.201 778.167 178.791 778.291 178.328C778.421 177.86 778.486 177.362 778.486 176.834V176.61C778.486 176.089 778.421 175.597 778.291 175.135C778.167 174.666 777.979 174.253 777.725 173.895C777.477 173.53 777.165 173.244 776.787 173.035C776.416 172.827 775.98 172.723 775.479 172.723C774.984 172.723 774.548 172.827 774.17 173.035C773.799 173.244 773.486 173.53 773.232 173.895C772.985 174.253 772.799 174.666 772.676 175.135C772.552 175.597 772.49 176.089 772.49 176.61ZM784.375 173.094V182H782.568V171.434H784.326L784.375 173.094ZM787.676 171.375L787.666 173.055C787.516 173.022 787.373 173.003 787.236 172.996C787.106 172.983 786.956 172.977 786.787 172.977C786.37 172.977 786.003 173.042 785.684 173.172C785.365 173.302 785.094 173.485 784.873 173.719C784.652 173.953 784.476 174.233 784.346 174.559C784.222 174.878 784.141 175.229 784.102 175.613L783.594 175.906C783.594 175.268 783.656 174.669 783.779 174.11C783.91 173.55 784.108 173.055 784.375 172.625C784.642 172.189 784.98 171.85 785.391 171.61C785.807 171.362 786.302 171.238 786.875 171.238C787.005 171.238 787.155 171.255 787.324 171.287C787.493 171.313 787.611 171.343 787.676 171.375ZM792.49 180.906L795.43 171.434H797.363L793.125 183.631C793.027 183.891 792.897 184.171 792.734 184.471C792.578 184.777 792.376 185.067 792.129 185.34C791.882 185.613 791.582 185.835 791.23 186.004C790.885 186.18 790.472 186.268 789.99 186.268C789.847 186.268 789.665 186.248 789.443 186.209C789.222 186.17 789.066 186.138 788.975 186.112L788.965 184.647C789.017 184.653 789.098 184.66 789.209 184.666C789.326 184.679 789.408 184.686 789.453 184.686C789.863 184.686 790.212 184.63 790.498 184.52C790.785 184.416 791.025 184.237 791.221 183.983C791.423 183.735 791.595 183.393 791.738 182.957L792.49 180.906ZM790.332 171.434L793.076 179.637L793.545 181.541L792.246 182.205L788.359 171.434H790.332Z" fill="#686868"/>
<g clip-path="url(#clip4_17087_12989)">
<rect width="196" height="147" transform="translate(880)" fill="#E3E3E3"/>
</g>
<path d="M947.734 177.479H949.609C949.512 178.377 949.255 179.181 948.838 179.891C948.421 180.6 947.832 181.164 947.07 181.58C946.309 181.99 945.358 182.195 944.219 182.195C943.385 182.195 942.627 182.039 941.943 181.727C941.266 181.414 940.684 180.972 940.195 180.399C939.707 179.819 939.329 179.126 939.062 178.319C938.802 177.505 938.672 176.6 938.672 175.604V174.188C938.672 173.192 938.802 172.29 939.062 171.483C939.329 170.669 939.71 169.972 940.205 169.393C940.706 168.813 941.309 168.367 942.012 168.055C942.715 167.742 943.506 167.586 944.385 167.586C945.459 167.586 946.367 167.788 947.109 168.192C947.852 168.595 948.428 169.155 948.838 169.871C949.255 170.581 949.512 171.404 949.609 172.342H947.734C947.643 171.678 947.474 171.108 947.227 170.633C946.979 170.151 946.628 169.78 946.172 169.52C945.716 169.259 945.12 169.129 944.385 169.129C943.753 169.129 943.197 169.25 942.715 169.49C942.24 169.731 941.839 170.073 941.514 170.516C941.195 170.959 940.954 171.489 940.791 172.108C940.628 172.726 940.547 173.413 940.547 174.168V175.604C940.547 176.3 940.618 176.955 940.762 177.567C940.911 178.179 941.136 178.716 941.436 179.178C941.735 179.64 942.116 180.005 942.578 180.272C943.04 180.532 943.587 180.662 944.219 180.662C945.02 180.662 945.658 180.535 946.133 180.281C946.608 180.028 946.966 179.663 947.207 179.188C947.454 178.712 947.63 178.143 947.734 177.479ZM958.135 180.194V174.754C958.135 174.337 958.05 173.976 957.881 173.67C957.718 173.358 957.471 173.117 957.139 172.947C956.807 172.778 956.396 172.694 955.908 172.694C955.452 172.694 955.052 172.772 954.707 172.928C954.368 173.084 954.102 173.289 953.906 173.543C953.717 173.797 953.623 174.07 953.623 174.363H951.816C951.816 173.986 951.914 173.612 952.109 173.24C952.305 172.869 952.585 172.534 952.949 172.235C953.32 171.929 953.763 171.688 954.277 171.512C954.798 171.33 955.378 171.238 956.016 171.238C956.784 171.238 957.461 171.369 958.047 171.629C958.639 171.89 959.102 172.283 959.434 172.811C959.772 173.332 959.941 173.986 959.941 174.774V179.695C959.941 180.047 959.971 180.421 960.029 180.819C960.094 181.216 960.189 181.557 960.312 181.844V182H958.428C958.337 181.792 958.265 181.515 958.213 181.17C958.161 180.819 958.135 180.493 958.135 180.194ZM958.447 175.594L958.467 176.863H956.641C956.126 176.863 955.667 176.906 955.264 176.99C954.86 177.069 954.521 177.189 954.248 177.352C953.975 177.515 953.766 177.72 953.623 177.967C953.48 178.208 953.408 178.491 953.408 178.817C953.408 179.149 953.483 179.451 953.633 179.725C953.783 179.998 954.007 180.216 954.307 180.379C954.613 180.535 954.987 180.613 955.43 180.613C955.983 180.613 956.471 180.496 956.895 180.262C957.318 180.028 957.653 179.741 957.9 179.403C958.154 179.064 958.291 178.735 958.311 178.416L959.082 179.285C959.036 179.559 958.913 179.862 958.711 180.194C958.509 180.526 958.239 180.845 957.9 181.151C957.568 181.45 957.171 181.701 956.709 181.903C956.253 182.098 955.739 182.195 955.166 182.195C954.45 182.195 953.822 182.056 953.281 181.776C952.747 181.496 952.331 181.121 952.031 180.653C951.738 180.177 951.592 179.647 951.592 179.061C951.592 178.494 951.702 177.996 951.924 177.567C952.145 177.13 952.464 176.769 952.881 176.483C953.298 176.19 953.799 175.968 954.385 175.819C954.971 175.669 955.625 175.594 956.348 175.594H958.447ZM967.207 171.434V172.82H961.494V171.434H967.207ZM963.428 168.865H965.234V179.383C965.234 179.741 965.29 180.011 965.4 180.194C965.511 180.376 965.654 180.496 965.83 180.555C966.006 180.613 966.195 180.643 966.396 180.643C966.546 180.643 966.702 180.63 966.865 180.604C967.035 180.571 967.161 180.545 967.246 180.526L967.256 182C967.113 182.046 966.924 182.088 966.689 182.127C966.462 182.173 966.185 182.195 965.859 182.195C965.417 182.195 965.01 182.108 964.639 181.932C964.268 181.756 963.971 181.463 963.75 181.053C963.535 180.636 963.428 180.076 963.428 179.373V168.865ZM973.711 182.195C972.975 182.195 972.308 182.072 971.709 181.824C971.117 181.57 970.605 181.216 970.176 180.76C969.753 180.304 969.427 179.764 969.199 179.139C968.971 178.514 968.857 177.83 968.857 177.088V176.678C968.857 175.819 968.984 175.054 969.238 174.383C969.492 173.706 969.837 173.133 970.273 172.664C970.71 172.195 971.204 171.841 971.758 171.6C972.311 171.359 972.884 171.238 973.477 171.238C974.232 171.238 974.883 171.369 975.43 171.629C975.983 171.89 976.436 172.254 976.787 172.723C977.139 173.185 977.399 173.732 977.568 174.363C977.738 174.988 977.822 175.672 977.822 176.414V177.225H969.932V175.75H976.016V175.613C975.99 175.145 975.892 174.689 975.723 174.246C975.56 173.804 975.299 173.439 974.941 173.153C974.583 172.866 974.095 172.723 973.477 172.723C973.066 172.723 972.689 172.811 972.344 172.987C971.999 173.156 971.702 173.41 971.455 173.748C971.208 174.087 971.016 174.5 970.879 174.988C970.742 175.477 970.674 176.04 970.674 176.678V177.088C970.674 177.589 970.742 178.061 970.879 178.504C971.022 178.94 971.227 179.324 971.494 179.656C971.768 179.988 972.096 180.249 972.48 180.438C972.871 180.626 973.314 180.721 973.809 180.721C974.447 180.721 974.987 180.591 975.43 180.33C975.872 180.07 976.26 179.722 976.592 179.285L977.686 180.154C977.458 180.5 977.168 180.828 976.816 181.141C976.465 181.453 976.032 181.707 975.518 181.903C975.01 182.098 974.408 182.195 973.711 182.195ZM986.777 171.434H988.418V181.776C988.418 182.707 988.229 183.501 987.852 184.158C987.474 184.816 986.947 185.314 986.27 185.653C985.599 185.998 984.824 186.17 983.945 186.17C983.581 186.17 983.151 186.112 982.656 185.994C982.168 185.884 981.686 185.692 981.211 185.418C980.742 185.151 980.348 184.79 980.029 184.334L980.977 183.26C981.419 183.794 981.882 184.165 982.363 184.373C982.852 184.582 983.333 184.686 983.809 184.686C984.382 184.686 984.876 184.578 985.293 184.363C985.71 184.149 986.032 183.83 986.26 183.406C986.494 182.99 986.611 182.475 986.611 181.863V173.758L986.777 171.434ZM979.502 176.834V176.629C979.502 175.822 979.596 175.089 979.785 174.432C979.98 173.768 980.257 173.198 980.615 172.723C980.98 172.248 981.419 171.883 981.934 171.629C982.448 171.369 983.027 171.238 983.672 171.238C984.336 171.238 984.915 171.356 985.41 171.59C985.911 171.818 986.335 172.153 986.68 172.596C987.031 173.032 987.308 173.559 987.51 174.178C987.712 174.796 987.852 175.496 987.93 176.278V177.176C987.858 177.951 987.718 178.647 987.51 179.266C987.308 179.884 987.031 180.412 986.68 180.848C986.335 181.284 985.911 181.619 985.41 181.854C984.909 182.082 984.323 182.195 983.652 182.195C983.021 182.195 982.448 182.062 981.934 181.795C981.426 181.528 980.99 181.154 980.625 180.672C980.26 180.19 979.98 179.624 979.785 178.973C979.596 178.315 979.502 177.602 979.502 176.834ZM981.309 176.629V176.834C981.309 177.362 981.361 177.856 981.465 178.319C981.576 178.781 981.742 179.188 981.963 179.539C982.191 179.891 982.48 180.168 982.832 180.369C983.184 180.565 983.604 180.662 984.092 180.662C984.691 180.662 985.186 180.535 985.576 180.281C985.967 180.028 986.276 179.692 986.504 179.276C986.738 178.859 986.921 178.406 987.051 177.918V175.565C986.979 175.207 986.868 174.862 986.719 174.529C986.576 174.191 986.387 173.891 986.152 173.631C985.924 173.364 985.641 173.153 985.303 172.996C984.964 172.84 984.567 172.762 984.111 172.762C983.617 172.762 983.19 172.866 982.832 173.074C982.48 173.276 982.191 173.556 981.963 173.914C981.742 174.266 981.576 174.676 981.465 175.145C981.361 175.607 981.309 176.102 981.309 176.629ZM990.684 176.834V176.61C990.684 175.848 990.794 175.141 991.016 174.49C991.237 173.833 991.556 173.263 991.973 172.781C992.389 172.293 992.894 171.916 993.486 171.649C994.079 171.375 994.743 171.238 995.479 171.238C996.221 171.238 996.888 171.375 997.48 171.649C998.079 171.916 998.587 172.293 999.004 172.781C999.427 173.263 999.749 173.833 999.971 174.49C1000.19 175.141 1000.3 175.848 1000.3 176.61V176.834C1000.3 177.596 1000.19 178.302 999.971 178.953C999.749 179.604 999.427 180.174 999.004 180.662C998.587 181.144 998.083 181.522 997.49 181.795C996.904 182.062 996.24 182.195 995.498 182.195C994.756 182.195 994.089 182.062 993.496 181.795C992.904 181.522 992.396 181.144 991.973 180.662C991.556 180.174 991.237 179.604 991.016 178.953C990.794 178.302 990.684 177.596 990.684 176.834ZM992.49 176.61V176.834C992.49 177.362 992.552 177.86 992.676 178.328C992.799 178.791 992.985 179.201 993.232 179.559C993.486 179.917 993.802 180.2 994.18 180.408C994.557 180.61 994.997 180.711 995.498 180.711C995.993 180.711 996.426 180.61 996.797 180.408C997.174 180.2 997.487 179.917 997.734 179.559C997.982 179.201 998.167 178.791 998.291 178.328C998.421 177.86 998.486 177.362 998.486 176.834V176.61C998.486 176.089 998.421 175.597 998.291 175.135C998.167 174.666 997.979 174.253 997.725 173.895C997.477 173.53 997.165 173.244 996.787 173.035C996.416 172.827 995.98 172.723 995.479 172.723C994.984 172.723 994.548 172.827 994.17 173.035C993.799 173.244 993.486 173.53 993.232 173.895C992.985 174.253 992.799 174.666 992.676 175.135C992.552 175.597 992.49 176.089 992.49 176.61ZM1004.38 173.094V182H1002.57V171.434H1004.33L1004.38 173.094ZM1007.68 171.375L1007.67 173.055C1007.52 173.022 1007.37 173.003 1007.24 172.996C1007.11 172.983 1006.96 172.977 1006.79 172.977C1006.37 172.977 1006 173.042 1005.68 173.172C1005.36 173.302 1005.09 173.485 1004.87 173.719C1004.65 173.953 1004.48 174.233 1004.35 174.559C1004.22 174.878 1004.14 175.229 1004.1 175.613L1003.59 175.906C1003.59 175.268 1003.66 174.669 1003.78 174.11C1003.91 173.55 1004.11 173.055 1004.38 172.625C1004.64 172.189 1004.98 171.85 1005.39 171.61C1005.81 171.362 1006.3 171.238 1006.88 171.238C1007.01 171.238 1007.15 171.255 1007.32 171.287C1007.49 171.313 1007.61 171.343 1007.68 171.375ZM1012.49 180.906L1015.43 171.434H1017.36L1013.12 183.631C1013.03 183.891 1012.9 184.171 1012.73 184.471C1012.58 184.777 1012.38 185.067 1012.13 185.34C1011.88 185.613 1011.58 185.835 1011.23 186.004C1010.89 186.18 1010.47 186.268 1009.99 186.268C1009.85 186.268 1009.66 186.248 1009.44 186.209C1009.22 186.17 1009.07 186.138 1008.97 186.112L1008.96 184.647C1009.02 184.653 1009.1 184.66 1009.21 184.666C1009.33 184.679 1009.41 184.686 1009.45 184.686C1009.86 184.686 1010.21 184.63 1010.5 184.52C1010.78 184.416 1011.03 184.237 1011.22 183.983C1011.42 183.735 1011.6 183.393 1011.74 182.957L1012.49 180.906ZM1010.33 171.434L1013.08 179.637L1013.54 181.541L1012.25 182.205L1008.36 171.434H1010.33Z" fill="#686868"/>
<g clip-path="url(#clip5_17087_12989)">
<rect width="196" height="147" transform="translate(1100)" fill="#E3E3E3"/>
</g>
<path d="M1167.73 177.479H1169.61C1169.51 178.377 1169.25 179.181 1168.84 179.891C1168.42 180.6 1167.83 181.164 1167.07 181.58C1166.31 181.99 1165.36 182.195 1164.22 182.195C1163.39 182.195 1162.63 182.039 1161.94 181.727C1161.27 181.414 1160.68 180.972 1160.2 180.399C1159.71 179.819 1159.33 179.126 1159.06 178.319C1158.8 177.505 1158.67 176.6 1158.67 175.604V174.188C1158.67 173.192 1158.8 172.29 1159.06 171.483C1159.33 170.669 1159.71 169.972 1160.21 169.393C1160.71 168.813 1161.31 168.367 1162.01 168.055C1162.71 167.742 1163.51 167.586 1164.38 167.586C1165.46 167.586 1166.37 167.788 1167.11 168.192C1167.85 168.595 1168.43 169.155 1168.84 169.871C1169.25 170.581 1169.51 171.404 1169.61 172.342H1167.73C1167.64 171.678 1167.47 171.108 1167.23 170.633C1166.98 170.151 1166.63 169.78 1166.17 169.52C1165.72 169.259 1165.12 169.129 1164.38 169.129C1163.75 169.129 1163.2 169.25 1162.71 169.49C1162.24 169.731 1161.84 170.073 1161.51 170.516C1161.19 170.959 1160.95 171.489 1160.79 172.108C1160.63 172.726 1160.55 173.413 1160.55 174.168V175.604C1160.55 176.3 1160.62 176.955 1160.76 177.567C1160.91 178.179 1161.14 178.716 1161.44 179.178C1161.74 179.64 1162.12 180.005 1162.58 180.272C1163.04 180.532 1163.59 180.662 1164.22 180.662C1165.02 180.662 1165.66 180.535 1166.13 180.281C1166.61 180.028 1166.97 179.663 1167.21 179.188C1167.45 178.712 1167.63 178.143 1167.73 177.479ZM1178.13 180.194V174.754C1178.13 174.337 1178.05 173.976 1177.88 173.67C1177.72 173.358 1177.47 173.117 1177.14 172.947C1176.81 172.778 1176.4 172.694 1175.91 172.694C1175.45 172.694 1175.05 172.772 1174.71 172.928C1174.37 173.084 1174.1 173.289 1173.91 173.543C1173.72 173.797 1173.62 174.07 1173.62 174.363H1171.82C1171.82 173.986 1171.91 173.612 1172.11 173.24C1172.3 172.869 1172.58 172.534 1172.95 172.235C1173.32 171.929 1173.76 171.688 1174.28 171.512C1174.8 171.33 1175.38 171.238 1176.02 171.238C1176.78 171.238 1177.46 171.369 1178.05 171.629C1178.64 171.89 1179.1 172.283 1179.43 172.811C1179.77 173.332 1179.94 173.986 1179.94 174.774V179.695C1179.94 180.047 1179.97 180.421 1180.03 180.819C1180.09 181.216 1180.19 181.557 1180.31 181.844V182H1178.43C1178.34 181.792 1178.26 181.515 1178.21 181.17C1178.16 180.819 1178.13 180.493 1178.13 180.194ZM1178.45 175.594L1178.47 176.863H1176.64C1176.13 176.863 1175.67 176.906 1175.26 176.99C1174.86 177.069 1174.52 177.189 1174.25 177.352C1173.97 177.515 1173.77 177.72 1173.62 177.967C1173.48 178.208 1173.41 178.491 1173.41 178.817C1173.41 179.149 1173.48 179.451 1173.63 179.725C1173.78 179.998 1174.01 180.216 1174.31 180.379C1174.61 180.535 1174.99 180.613 1175.43 180.613C1175.98 180.613 1176.47 180.496 1176.89 180.262C1177.32 180.028 1177.65 179.741 1177.9 179.403C1178.15 179.064 1178.29 178.735 1178.31 178.416L1179.08 179.285C1179.04 179.559 1178.91 179.862 1178.71 180.194C1178.51 180.526 1178.24 180.845 1177.9 181.151C1177.57 181.45 1177.17 181.701 1176.71 181.903C1176.25 182.098 1175.74 182.195 1175.17 182.195C1174.45 182.195 1173.82 182.056 1173.28 181.776C1172.75 181.496 1172.33 181.121 1172.03 180.653C1171.74 180.177 1171.59 179.647 1171.59 179.061C1171.59 178.494 1171.7 177.996 1171.92 177.567C1172.15 177.13 1172.46 176.769 1172.88 176.483C1173.3 176.19 1173.8 175.968 1174.38 175.819C1174.97 175.669 1175.62 175.594 1176.35 175.594H1178.45ZM1187.21 171.434V172.82H1181.49V171.434H1187.21ZM1183.43 168.865H1185.23V179.383C1185.23 179.741 1185.29 180.011 1185.4 180.194C1185.51 180.376 1185.65 180.496 1185.83 180.555C1186.01 180.613 1186.19 180.643 1186.4 180.643C1186.55 180.643 1186.7 180.63 1186.87 180.604C1187.03 180.571 1187.16 180.545 1187.25 180.526L1187.26 182C1187.11 182.046 1186.92 182.088 1186.69 182.127C1186.46 182.173 1186.18 182.195 1185.86 182.195C1185.42 182.195 1185.01 182.108 1184.64 181.932C1184.27 181.756 1183.97 181.463 1183.75 181.053C1183.54 180.636 1183.43 180.076 1183.43 179.373V168.865ZM1193.71 182.195C1192.98 182.195 1192.31 182.072 1191.71 181.824C1191.12 181.57 1190.61 181.216 1190.18 180.76C1189.75 180.304 1189.43 179.764 1189.2 179.139C1188.97 178.514 1188.86 177.83 1188.86 177.088V176.678C1188.86 175.819 1188.98 175.054 1189.24 174.383C1189.49 173.706 1189.84 173.133 1190.27 172.664C1190.71 172.195 1191.2 171.841 1191.76 171.6C1192.31 171.359 1192.88 171.238 1193.48 171.238C1194.23 171.238 1194.88 171.369 1195.43 171.629C1195.98 171.89 1196.44 172.254 1196.79 172.723C1197.14 173.185 1197.4 173.732 1197.57 174.363C1197.74 174.988 1197.82 175.672 1197.82 176.414V177.225H1189.93V175.75H1196.02V175.613C1195.99 175.145 1195.89 174.689 1195.72 174.246C1195.56 173.804 1195.3 173.439 1194.94 173.153C1194.58 172.866 1194.1 172.723 1193.48 172.723C1193.07 172.723 1192.69 172.811 1192.34 172.987C1192 173.156 1191.7 173.41 1191.46 173.748C1191.21 174.087 1191.02 174.5 1190.88 174.988C1190.74 175.477 1190.67 176.04 1190.67 176.678V177.088C1190.67 177.589 1190.74 178.061 1190.88 178.504C1191.02 178.94 1191.23 179.324 1191.49 179.656C1191.77 179.988 1192.1 180.249 1192.48 180.438C1192.87 180.626 1193.31 180.721 1193.81 180.721C1194.45 180.721 1194.99 180.591 1195.43 180.33C1195.87 180.07 1196.26 179.722 1196.59 179.285L1197.69 180.154C1197.46 180.5 1197.17 180.828 1196.82 181.141C1196.46 181.453 1196.03 181.707 1195.52 181.903C1195.01 182.098 1194.41 182.195 1193.71 182.195ZM1206.78 171.434H1208.42V181.776C1208.42 182.707 1208.23 183.501 1207.85 184.158C1207.47 184.816 1206.95 185.314 1206.27 185.653C1205.6 185.998 1204.82 186.17 1203.95 186.17C1203.58 186.17 1203.15 186.112 1202.66 185.994C1202.17 185.884 1201.69 185.692 1201.21 185.418C1200.74 185.151 1200.35 184.79 1200.03 184.334L1200.98 183.26C1201.42 183.794 1201.88 184.165 1202.36 184.373C1202.85 184.582 1203.33 184.686 1203.81 184.686C1204.38 184.686 1204.88 184.578 1205.29 184.363C1205.71 184.149 1206.03 183.83 1206.26 183.406C1206.49 182.99 1206.61 182.475 1206.61 181.863V173.758L1206.78 171.434ZM1199.5 176.834V176.629C1199.5 175.822 1199.6 175.089 1199.79 174.432C1199.98 173.768 1200.26 173.198 1200.62 172.723C1200.98 172.248 1201.42 171.883 1201.93 171.629C1202.45 171.369 1203.03 171.238 1203.67 171.238C1204.34 171.238 1204.92 171.356 1205.41 171.59C1205.91 171.818 1206.33 172.153 1206.68 172.596C1207.03 173.032 1207.31 173.559 1207.51 174.178C1207.71 174.796 1207.85 175.496 1207.93 176.278V177.176C1207.86 177.951 1207.72 178.647 1207.51 179.266C1207.31 179.884 1207.03 180.412 1206.68 180.848C1206.33 181.284 1205.91 181.619 1205.41 181.854C1204.91 182.082 1204.32 182.195 1203.65 182.195C1203.02 182.195 1202.45 182.062 1201.93 181.795C1201.43 181.528 1200.99 181.154 1200.62 180.672C1200.26 180.19 1199.98 179.624 1199.79 178.973C1199.6 178.315 1199.5 177.602 1199.5 176.834ZM1201.31 176.629V176.834C1201.31 177.362 1201.36 177.856 1201.46 178.319C1201.58 178.781 1201.74 179.188 1201.96 179.539C1202.19 179.891 1202.48 180.168 1202.83 180.369C1203.18 180.565 1203.6 180.662 1204.09 180.662C1204.69 180.662 1205.19 180.535 1205.58 180.281C1205.97 180.028 1206.28 179.692 1206.5 179.276C1206.74 178.859 1206.92 178.406 1207.05 177.918V175.565C1206.98 175.207 1206.87 174.862 1206.72 174.529C1206.58 174.191 1206.39 173.891 1206.15 173.631C1205.92 173.364 1205.64 173.153 1205.3 172.996C1204.96 172.84 1204.57 172.762 1204.11 172.762C1203.62 172.762 1203.19 172.866 1202.83 173.074C1202.48 173.276 1202.19 173.556 1201.96 173.914C1201.74 174.266 1201.58 174.676 1201.46 175.145C1201.36 175.607 1201.31 176.102 1201.31 176.629ZM1210.68 176.834V176.61C1210.68 175.848 1210.79 175.141 1211.02 174.49C1211.24 173.833 1211.56 173.263 1211.97 172.781C1212.39 172.293 1212.89 171.916 1213.49 171.649C1214.08 171.375 1214.74 171.238 1215.48 171.238C1216.22 171.238 1216.89 171.375 1217.48 171.649C1218.08 171.916 1218.59 172.293 1219 172.781C1219.43 173.263 1219.75 173.833 1219.97 174.49C1220.19 175.141 1220.3 175.848 1220.3 176.61V176.834C1220.3 177.596 1220.19 178.302 1219.97 178.953C1219.75 179.604 1219.43 180.174 1219 180.662C1218.59 181.144 1218.08 181.522 1217.49 181.795C1216.9 182.062 1216.24 182.195 1215.5 182.195C1214.76 182.195 1214.09 182.062 1213.5 181.795C1212.9 181.522 1212.4 181.144 1211.97 180.662C1211.56 180.174 1211.24 179.604 1211.02 178.953C1210.79 178.302 1210.68 177.596 1210.68 176.834ZM1212.49 176.61V176.834C1212.49 177.362 1212.55 177.86 1212.68 178.328C1212.8 178.791 1212.99 179.201 1213.23 179.559C1213.49 179.917 1213.8 180.2 1214.18 180.408C1214.56 180.61 1215 180.711 1215.5 180.711C1215.99 180.711 1216.43 180.61 1216.8 180.408C1217.17 180.2 1217.49 179.917 1217.73 179.559C1217.98 179.201 1218.17 178.791 1218.29 178.328C1218.42 177.86 1218.49 177.362 1218.49 176.834V176.61C1218.49 176.089 1218.42 175.597 1218.29 175.135C1218.17 174.666 1217.98 174.253 1217.72 173.895C1217.48 173.53 1217.16 173.244 1216.79 173.035C1216.42 172.827 1215.98 172.723 1215.48 172.723C1214.98 172.723 1214.55 172.827 1214.17 173.035C1213.8 173.244 1213.49 173.53 1213.23 173.895C1212.99 174.253 1212.8 174.666 1212.68 175.135C1212.55 175.597 1212.49 176.089 1212.49 176.61ZM1224.38 173.094V182H1222.57V171.434H1224.33L1224.38 173.094ZM1227.68 171.375L1227.67 173.055C1227.52 173.022 1227.37 173.003 1227.24 172.996C1227.11 172.983 1226.96 172.977 1226.79 172.977C1226.37 172.977 1226 173.042 1225.68 173.172C1225.36 173.302 1225.09 173.485 1224.87 173.719C1224.65 173.953 1224.48 174.233 1224.35 174.559C1224.22 174.878 1224.14 175.229 1224.1 175.613L1223.59 175.906C1223.59 175.268 1223.66 174.669 1223.78 174.11C1223.91 173.55 1224.11 173.055 1224.38 172.625C1224.64 172.189 1224.98 171.85 1225.39 171.61C1225.81 171.362 1226.3 171.238 1226.88 171.238C1227.01 171.238 1227.15 171.255 1227.32 171.287C1227.49 171.313 1227.61 171.343 1227.68 171.375ZM1232.49 180.906L1235.43 171.434H1237.36L1233.12 183.631C1233.03 183.891 1232.9 184.171 1232.73 184.471C1232.58 184.777 1232.38 185.067 1232.13 185.34C1231.88 185.613 1231.58 185.835 1231.23 186.004C1230.89 186.18 1230.47 186.268 1229.99 186.268C1229.85 186.268 1229.66 186.248 1229.44 186.209C1229.22 186.17 1229.07 186.138 1228.97 186.112L1228.96 184.647C1229.02 184.653 1229.1 184.66 1229.21 184.666C1229.33 184.679 1229.41 184.686 1229.45 184.686C1229.86 184.686 1230.21 184.63 1230.5 184.52C1230.78 184.416 1231.03 184.237 1231.22 183.983C1231.42 183.735 1231.6 183.393 1231.74 182.957L1232.49 180.906ZM1230.33 171.434L1233.08 179.637L1233.54 181.541L1232.25 182.205L1228.36 171.434H1230.33Z" fill="#686868"/>
<defs>
<clipPath id="clip0_17087_12989">
<rect width="196" height="147" fill="white"/>
</clipPath>
<clipPath id="clip1_17087_12989">
<rect width="196" height="147" fill="white" transform="translate(220)"/>
</clipPath>
<clipPath id="clip2_17087_12989">
<rect width="196" height="147" fill="white" transform="translate(440)"/>
</clipPath>
<clipPath id="clip3_17087_12989">
<rect width="196" height="147" fill="white" transform="translate(660)"/>
</clipPath>
<clipPath id="clip4_17087_12989">
<rect width="196" height="147" fill="white" transform="translate(880)"/>
</clipPath>
<clipPath id="clip5_17087_12989">
<rect width="196" height="147" fill="white" transform="translate(1100)"/>
</clipPath>
</defs>
</svg>
