<svg width="1296" height="279" viewBox="0 0 1296 279" fill="none" xmlns="http://www.w3.org/2000/svg">
<g clip-path="url(#clip0_17087_12990)">
<rect width="318" height="238.5" transform="translate(0 0.000488281)" fill="#E3E3E3"/>
</g>
<path d="M128.734 268.979H130.609C130.512 269.878 130.255 270.682 129.838 271.391C129.421 272.101 128.832 272.664 128.07 273.081C127.309 273.491 126.358 273.696 125.219 273.696C124.385 273.696 123.627 273.54 122.943 273.227C122.266 272.915 121.684 272.472 121.195 271.899C120.707 271.32 120.329 270.626 120.062 269.819C119.802 269.005 119.672 268.1 119.672 267.104V265.688C119.672 264.692 119.802 263.79 120.062 262.983C120.329 262.169 120.71 261.473 121.205 260.893C121.706 260.314 122.309 259.868 123.012 259.555C123.715 259.243 124.506 259.087 125.385 259.087C126.459 259.087 127.367 259.288 128.109 259.692C128.852 260.096 129.428 260.656 129.838 261.372C130.255 262.081 130.512 262.905 130.609 263.842H128.734C128.643 263.178 128.474 262.609 128.227 262.133C127.979 261.652 127.628 261.281 127.172 261.02C126.716 260.76 126.12 260.63 125.385 260.63C124.753 260.63 124.197 260.75 123.715 260.991C123.24 261.232 122.839 261.574 122.514 262.016C122.195 262.459 121.954 262.99 121.791 263.608C121.628 264.227 121.547 264.913 121.547 265.669V267.104C121.547 267.801 121.618 268.455 121.762 269.067C121.911 269.679 122.136 270.216 122.436 270.678C122.735 271.141 123.116 271.505 123.578 271.772C124.04 272.033 124.587 272.163 125.219 272.163C126.02 272.163 126.658 272.036 127.133 271.782C127.608 271.528 127.966 271.163 128.207 270.688C128.454 270.213 128.63 269.643 128.734 268.979ZM139.135 271.694V266.255C139.135 265.838 139.05 265.477 138.881 265.171C138.718 264.858 138.471 264.617 138.139 264.448C137.807 264.279 137.396 264.194 136.908 264.194C136.452 264.194 136.052 264.272 135.707 264.428C135.368 264.585 135.102 264.79 134.906 265.044C134.717 265.298 134.623 265.571 134.623 265.864H132.816C132.816 265.486 132.914 265.112 133.109 264.741C133.305 264.37 133.585 264.035 133.949 263.735C134.32 263.429 134.763 263.188 135.277 263.012C135.798 262.83 136.378 262.739 137.016 262.739C137.784 262.739 138.461 262.869 139.047 263.13C139.639 263.39 140.102 263.784 140.434 264.311C140.772 264.832 140.941 265.486 140.941 266.274V271.196C140.941 271.548 140.971 271.922 141.029 272.319C141.094 272.716 141.189 273.058 141.312 273.344V273.501H139.428C139.337 273.292 139.265 273.016 139.213 272.671C139.161 272.319 139.135 271.993 139.135 271.694ZM139.447 267.094L139.467 268.364H137.641C137.126 268.364 136.667 268.406 136.264 268.491C135.86 268.569 135.521 268.689 135.248 268.852C134.975 269.015 134.766 269.22 134.623 269.467C134.48 269.708 134.408 269.992 134.408 270.317C134.408 270.649 134.483 270.952 134.633 271.225C134.783 271.499 135.007 271.717 135.307 271.88C135.613 272.036 135.987 272.114 136.43 272.114C136.983 272.114 137.471 271.997 137.895 271.762C138.318 271.528 138.653 271.242 138.9 270.903C139.154 270.564 139.291 270.236 139.311 269.917L140.082 270.786C140.036 271.059 139.913 271.362 139.711 271.694C139.509 272.026 139.239 272.345 138.9 272.651C138.568 272.951 138.171 273.201 137.709 273.403C137.253 273.598 136.739 273.696 136.166 273.696C135.45 273.696 134.822 273.556 134.281 273.276C133.747 272.996 133.331 272.622 133.031 272.153C132.738 271.678 132.592 271.147 132.592 270.561C132.592 269.995 132.702 269.497 132.924 269.067C133.145 268.631 133.464 268.27 133.881 267.983C134.298 267.69 134.799 267.469 135.385 267.319C135.971 267.169 136.625 267.094 137.348 267.094H139.447ZM148.207 262.934V264.321H142.494V262.934H148.207ZM144.428 260.366H146.234V270.883C146.234 271.242 146.29 271.512 146.4 271.694C146.511 271.876 146.654 271.997 146.83 272.055C147.006 272.114 147.195 272.143 147.396 272.143C147.546 272.143 147.702 272.13 147.865 272.104C148.035 272.072 148.161 272.046 148.246 272.026L148.256 273.501C148.113 273.546 147.924 273.589 147.689 273.628C147.462 273.673 147.185 273.696 146.859 273.696C146.417 273.696 146.01 273.608 145.639 273.432C145.268 273.257 144.971 272.964 144.75 272.553C144.535 272.137 144.428 271.577 144.428 270.874V260.366ZM154.711 273.696C153.975 273.696 153.308 273.572 152.709 273.325C152.117 273.071 151.605 272.716 151.176 272.26C150.753 271.805 150.427 271.264 150.199 270.639C149.971 270.014 149.857 269.331 149.857 268.589V268.178C149.857 267.319 149.984 266.554 150.238 265.883C150.492 265.206 150.837 264.633 151.273 264.165C151.71 263.696 152.204 263.341 152.758 263.1C153.311 262.859 153.884 262.739 154.477 262.739C155.232 262.739 155.883 262.869 156.43 263.13C156.983 263.39 157.436 263.755 157.787 264.223C158.139 264.686 158.399 265.232 158.568 265.864C158.738 266.489 158.822 267.173 158.822 267.915V268.725H150.932V267.251H157.016V267.114C156.99 266.645 156.892 266.189 156.723 265.747C156.56 265.304 156.299 264.939 155.941 264.653C155.583 264.367 155.095 264.223 154.477 264.223C154.066 264.223 153.689 264.311 153.344 264.487C152.999 264.656 152.702 264.91 152.455 265.249C152.208 265.587 152.016 266.001 151.879 266.489C151.742 266.977 151.674 267.54 151.674 268.178V268.589C151.674 269.09 151.742 269.562 151.879 270.005C152.022 270.441 152.227 270.825 152.494 271.157C152.768 271.489 153.096 271.749 153.48 271.938C153.871 272.127 154.314 272.221 154.809 272.221C155.447 272.221 155.987 272.091 156.43 271.831C156.872 271.57 157.26 271.222 157.592 270.786L158.686 271.655C158.458 272 158.168 272.329 157.816 272.641C157.465 272.954 157.032 273.208 156.518 273.403C156.01 273.598 155.408 273.696 154.711 273.696ZM167.777 262.934H169.418V273.276C169.418 274.207 169.229 275.001 168.852 275.659C168.474 276.316 167.947 276.814 167.27 277.153C166.599 277.498 165.824 277.671 164.945 277.671C164.581 277.671 164.151 277.612 163.656 277.495C163.168 277.384 162.686 277.192 162.211 276.919C161.742 276.652 161.348 276.29 161.029 275.835L161.977 274.76C162.419 275.294 162.882 275.665 163.363 275.874C163.852 276.082 164.333 276.186 164.809 276.186C165.382 276.186 165.876 276.079 166.293 275.864C166.71 275.649 167.032 275.33 167.26 274.907C167.494 274.49 167.611 273.976 167.611 273.364V265.258L167.777 262.934ZM160.502 268.335V268.13C160.502 267.322 160.596 266.59 160.785 265.932C160.98 265.268 161.257 264.699 161.615 264.223C161.98 263.748 162.419 263.383 162.934 263.13C163.448 262.869 164.027 262.739 164.672 262.739C165.336 262.739 165.915 262.856 166.41 263.09C166.911 263.318 167.335 263.654 167.68 264.096C168.031 264.533 168.308 265.06 168.51 265.678C168.712 266.297 168.852 266.997 168.93 267.778V268.676C168.858 269.451 168.718 270.148 168.51 270.766C168.308 271.385 168.031 271.912 167.68 272.348C167.335 272.785 166.911 273.12 166.41 273.354C165.909 273.582 165.323 273.696 164.652 273.696C164.021 273.696 163.448 273.563 162.934 273.296C162.426 273.029 161.99 272.654 161.625 272.173C161.26 271.691 160.98 271.124 160.785 270.473C160.596 269.816 160.502 269.103 160.502 268.335ZM162.309 268.13V268.335C162.309 268.862 162.361 269.357 162.465 269.819C162.576 270.281 162.742 270.688 162.963 271.04C163.191 271.391 163.48 271.668 163.832 271.87C164.184 272.065 164.604 272.163 165.092 272.163C165.691 272.163 166.186 272.036 166.576 271.782C166.967 271.528 167.276 271.193 167.504 270.776C167.738 270.359 167.921 269.907 168.051 269.419V267.065C167.979 266.707 167.868 266.362 167.719 266.03C167.576 265.691 167.387 265.392 167.152 265.132C166.924 264.865 166.641 264.653 166.303 264.497C165.964 264.34 165.567 264.262 165.111 264.262C164.617 264.262 164.19 264.367 163.832 264.575C163.48 264.777 163.191 265.057 162.963 265.415C162.742 265.766 162.576 266.176 162.465 266.645C162.361 267.107 162.309 267.602 162.309 268.13ZM171.684 268.335V268.11C171.684 267.348 171.794 266.642 172.016 265.991C172.237 265.333 172.556 264.764 172.973 264.282C173.389 263.794 173.894 263.416 174.486 263.149C175.079 262.876 175.743 262.739 176.479 262.739C177.221 262.739 177.888 262.876 178.48 263.149C179.079 263.416 179.587 263.794 180.004 264.282C180.427 264.764 180.749 265.333 180.971 265.991C181.192 266.642 181.303 267.348 181.303 268.11V268.335C181.303 269.096 181.192 269.803 180.971 270.454C180.749 271.105 180.427 271.674 180.004 272.163C179.587 272.645 179.083 273.022 178.49 273.296C177.904 273.563 177.24 273.696 176.498 273.696C175.756 273.696 175.089 273.563 174.496 273.296C173.904 273.022 173.396 272.645 172.973 272.163C172.556 271.674 172.237 271.105 172.016 270.454C171.794 269.803 171.684 269.096 171.684 268.335ZM173.49 268.11V268.335C173.49 268.862 173.552 269.36 173.676 269.829C173.799 270.291 173.985 270.701 174.232 271.059C174.486 271.417 174.802 271.701 175.18 271.909C175.557 272.111 175.997 272.212 176.498 272.212C176.993 272.212 177.426 272.111 177.797 271.909C178.174 271.701 178.487 271.417 178.734 271.059C178.982 270.701 179.167 270.291 179.291 269.829C179.421 269.36 179.486 268.862 179.486 268.335V268.11C179.486 267.589 179.421 267.098 179.291 266.635C179.167 266.167 178.979 265.753 178.725 265.395C178.477 265.031 178.165 264.744 177.787 264.536C177.416 264.327 176.98 264.223 176.479 264.223C175.984 264.223 175.548 264.327 175.17 264.536C174.799 264.744 174.486 265.031 174.232 265.395C173.985 265.753 173.799 266.167 173.676 266.635C173.552 267.098 173.49 267.589 173.49 268.11ZM185.375 264.594V273.501H183.568V262.934H185.326L185.375 264.594ZM188.676 262.876L188.666 264.555C188.516 264.523 188.373 264.503 188.236 264.497C188.106 264.484 187.956 264.477 187.787 264.477C187.37 264.477 187.003 264.542 186.684 264.673C186.365 264.803 186.094 264.985 185.873 265.219C185.652 265.454 185.476 265.734 185.346 266.059C185.222 266.378 185.141 266.73 185.102 267.114L184.594 267.407C184.594 266.769 184.656 266.17 184.779 265.61C184.91 265.05 185.108 264.555 185.375 264.126C185.642 263.689 185.98 263.351 186.391 263.11C186.807 262.863 187.302 262.739 187.875 262.739C188.005 262.739 188.155 262.755 188.324 262.788C188.493 262.814 188.611 262.843 188.676 262.876ZM193.49 272.407L196.43 262.934H198.363L194.125 275.132C194.027 275.392 193.897 275.672 193.734 275.971C193.578 276.277 193.376 276.567 193.129 276.84C192.882 277.114 192.582 277.335 192.23 277.505C191.885 277.68 191.472 277.768 190.99 277.768C190.847 277.768 190.665 277.749 190.443 277.71C190.222 277.671 190.066 277.638 189.975 277.612L189.965 276.147C190.017 276.154 190.098 276.16 190.209 276.167C190.326 276.18 190.408 276.186 190.453 276.186C190.863 276.186 191.212 276.131 191.498 276.02C191.785 275.916 192.025 275.737 192.221 275.483C192.423 275.236 192.595 274.894 192.738 274.458L193.49 272.407ZM191.332 262.934L194.076 271.137L194.545 273.042L193.246 273.706L189.359 262.934H191.332Z" fill="#686868"/>
<g clip-path="url(#clip1_17087_12990)">
<rect width="318" height="238.5" transform="translate(326 0.000488281)" fill="#E3E3E3"/>
</g>
<path d="M454.734 268.979H456.609C456.512 269.878 456.255 270.682 455.838 271.391C455.421 272.101 454.832 272.664 454.07 273.081C453.309 273.491 452.358 273.696 451.219 273.696C450.385 273.696 449.627 273.54 448.943 273.227C448.266 272.915 447.684 272.472 447.195 271.899C446.707 271.32 446.329 270.626 446.062 269.819C445.802 269.005 445.672 268.1 445.672 267.104V265.688C445.672 264.692 445.802 263.79 446.062 262.983C446.329 262.169 446.71 261.473 447.205 260.893C447.706 260.314 448.309 259.868 449.012 259.555C449.715 259.243 450.506 259.087 451.385 259.087C452.459 259.087 453.367 259.288 454.109 259.692C454.852 260.096 455.428 260.656 455.838 261.372C456.255 262.081 456.512 262.905 456.609 263.842H454.734C454.643 263.178 454.474 262.609 454.227 262.133C453.979 261.652 453.628 261.281 453.172 261.02C452.716 260.76 452.12 260.63 451.385 260.63C450.753 260.63 450.197 260.75 449.715 260.991C449.24 261.232 448.839 261.574 448.514 262.016C448.195 262.459 447.954 262.99 447.791 263.608C447.628 264.227 447.547 264.913 447.547 265.669V267.104C447.547 267.801 447.618 268.455 447.762 269.067C447.911 269.679 448.136 270.216 448.436 270.678C448.735 271.141 449.116 271.505 449.578 271.772C450.04 272.033 450.587 272.163 451.219 272.163C452.02 272.163 452.658 272.036 453.133 271.782C453.608 271.528 453.966 271.163 454.207 270.688C454.454 270.213 454.63 269.643 454.734 268.979ZM465.135 271.694V266.255C465.135 265.838 465.05 265.477 464.881 265.171C464.718 264.858 464.471 264.617 464.139 264.448C463.807 264.279 463.396 264.194 462.908 264.194C462.452 264.194 462.052 264.272 461.707 264.428C461.368 264.585 461.102 264.79 460.906 265.044C460.717 265.298 460.623 265.571 460.623 265.864H458.816C458.816 265.486 458.914 265.112 459.109 264.741C459.305 264.37 459.585 264.035 459.949 263.735C460.32 263.429 460.763 263.188 461.277 263.012C461.798 262.83 462.378 262.739 463.016 262.739C463.784 262.739 464.461 262.869 465.047 263.13C465.639 263.39 466.102 263.784 466.434 264.311C466.772 264.832 466.941 265.486 466.941 266.274V271.196C466.941 271.548 466.971 271.922 467.029 272.319C467.094 272.716 467.189 273.058 467.312 273.344V273.501H465.428C465.337 273.292 465.265 273.016 465.213 272.671C465.161 272.319 465.135 271.993 465.135 271.694ZM465.447 267.094L465.467 268.364H463.641C463.126 268.364 462.667 268.406 462.264 268.491C461.86 268.569 461.521 268.689 461.248 268.852C460.975 269.015 460.766 269.22 460.623 269.467C460.48 269.708 460.408 269.992 460.408 270.317C460.408 270.649 460.483 270.952 460.633 271.225C460.783 271.499 461.007 271.717 461.307 271.88C461.613 272.036 461.987 272.114 462.43 272.114C462.983 272.114 463.471 271.997 463.895 271.762C464.318 271.528 464.653 271.242 464.9 270.903C465.154 270.564 465.291 270.236 465.311 269.917L466.082 270.786C466.036 271.059 465.913 271.362 465.711 271.694C465.509 272.026 465.239 272.345 464.9 272.651C464.568 272.951 464.171 273.201 463.709 273.403C463.253 273.598 462.739 273.696 462.166 273.696C461.45 273.696 460.822 273.556 460.281 273.276C459.747 272.996 459.331 272.622 459.031 272.153C458.738 271.678 458.592 271.147 458.592 270.561C458.592 269.995 458.702 269.497 458.924 269.067C459.145 268.631 459.464 268.27 459.881 267.983C460.298 267.69 460.799 267.469 461.385 267.319C461.971 267.169 462.625 267.094 463.348 267.094H465.447ZM474.207 262.934V264.321H468.494V262.934H474.207ZM470.428 260.366H472.234V270.883C472.234 271.242 472.29 271.512 472.4 271.694C472.511 271.876 472.654 271.997 472.83 272.055C473.006 272.114 473.195 272.143 473.396 272.143C473.546 272.143 473.702 272.13 473.865 272.104C474.035 272.072 474.161 272.046 474.246 272.026L474.256 273.501C474.113 273.546 473.924 273.589 473.689 273.628C473.462 273.673 473.185 273.696 472.859 273.696C472.417 273.696 472.01 273.608 471.639 273.432C471.268 273.257 470.971 272.964 470.75 272.553C470.535 272.137 470.428 271.577 470.428 270.874V260.366ZM480.711 273.696C479.975 273.696 479.308 273.572 478.709 273.325C478.117 273.071 477.605 272.716 477.176 272.26C476.753 271.805 476.427 271.264 476.199 270.639C475.971 270.014 475.857 269.331 475.857 268.589V268.178C475.857 267.319 475.984 266.554 476.238 265.883C476.492 265.206 476.837 264.633 477.273 264.165C477.71 263.696 478.204 263.341 478.758 263.1C479.311 262.859 479.884 262.739 480.477 262.739C481.232 262.739 481.883 262.869 482.43 263.13C482.983 263.39 483.436 263.755 483.787 264.223C484.139 264.686 484.399 265.232 484.568 265.864C484.738 266.489 484.822 267.173 484.822 267.915V268.725H476.932V267.251H483.016V267.114C482.99 266.645 482.892 266.189 482.723 265.747C482.56 265.304 482.299 264.939 481.941 264.653C481.583 264.367 481.095 264.223 480.477 264.223C480.066 264.223 479.689 264.311 479.344 264.487C478.999 264.656 478.702 264.91 478.455 265.249C478.208 265.587 478.016 266.001 477.879 266.489C477.742 266.977 477.674 267.54 477.674 268.178V268.589C477.674 269.09 477.742 269.562 477.879 270.005C478.022 270.441 478.227 270.825 478.494 271.157C478.768 271.489 479.096 271.749 479.48 271.938C479.871 272.127 480.314 272.221 480.809 272.221C481.447 272.221 481.987 272.091 482.43 271.831C482.872 271.57 483.26 271.222 483.592 270.786L484.686 271.655C484.458 272 484.168 272.329 483.816 272.641C483.465 272.954 483.032 273.208 482.518 273.403C482.01 273.598 481.408 273.696 480.711 273.696ZM493.777 262.934H495.418V273.276C495.418 274.207 495.229 275.001 494.852 275.659C494.474 276.316 493.947 276.814 493.27 277.153C492.599 277.498 491.824 277.671 490.945 277.671C490.581 277.671 490.151 277.612 489.656 277.495C489.168 277.384 488.686 277.192 488.211 276.919C487.742 276.652 487.348 276.29 487.029 275.835L487.977 274.76C488.419 275.294 488.882 275.665 489.363 275.874C489.852 276.082 490.333 276.186 490.809 276.186C491.382 276.186 491.876 276.079 492.293 275.864C492.71 275.649 493.032 275.33 493.26 274.907C493.494 274.49 493.611 273.976 493.611 273.364V265.258L493.777 262.934ZM486.502 268.335V268.13C486.502 267.322 486.596 266.59 486.785 265.932C486.98 265.268 487.257 264.699 487.615 264.223C487.98 263.748 488.419 263.383 488.934 263.13C489.448 262.869 490.027 262.739 490.672 262.739C491.336 262.739 491.915 262.856 492.41 263.09C492.911 263.318 493.335 263.654 493.68 264.096C494.031 264.533 494.308 265.06 494.51 265.678C494.712 266.297 494.852 266.997 494.93 267.778V268.676C494.858 269.451 494.718 270.148 494.51 270.766C494.308 271.385 494.031 271.912 493.68 272.348C493.335 272.785 492.911 273.12 492.41 273.354C491.909 273.582 491.323 273.696 490.652 273.696C490.021 273.696 489.448 273.563 488.934 273.296C488.426 273.029 487.99 272.654 487.625 272.173C487.26 271.691 486.98 271.124 486.785 270.473C486.596 269.816 486.502 269.103 486.502 268.335ZM488.309 268.13V268.335C488.309 268.862 488.361 269.357 488.465 269.819C488.576 270.281 488.742 270.688 488.963 271.04C489.191 271.391 489.48 271.668 489.832 271.87C490.184 272.065 490.604 272.163 491.092 272.163C491.691 272.163 492.186 272.036 492.576 271.782C492.967 271.528 493.276 271.193 493.504 270.776C493.738 270.359 493.921 269.907 494.051 269.419V267.065C493.979 266.707 493.868 266.362 493.719 266.03C493.576 265.691 493.387 265.392 493.152 265.132C492.924 264.865 492.641 264.653 492.303 264.497C491.964 264.34 491.567 264.262 491.111 264.262C490.617 264.262 490.19 264.367 489.832 264.575C489.48 264.777 489.191 265.057 488.963 265.415C488.742 265.766 488.576 266.176 488.465 266.645C488.361 267.107 488.309 267.602 488.309 268.13ZM497.684 268.335V268.11C497.684 267.348 497.794 266.642 498.016 265.991C498.237 265.333 498.556 264.764 498.973 264.282C499.389 263.794 499.894 263.416 500.486 263.149C501.079 262.876 501.743 262.739 502.479 262.739C503.221 262.739 503.888 262.876 504.48 263.149C505.079 263.416 505.587 263.794 506.004 264.282C506.427 264.764 506.749 265.333 506.971 265.991C507.192 266.642 507.303 267.348 507.303 268.11V268.335C507.303 269.096 507.192 269.803 506.971 270.454C506.749 271.105 506.427 271.674 506.004 272.163C505.587 272.645 505.083 273.022 504.49 273.296C503.904 273.563 503.24 273.696 502.498 273.696C501.756 273.696 501.089 273.563 500.496 273.296C499.904 273.022 499.396 272.645 498.973 272.163C498.556 271.674 498.237 271.105 498.016 270.454C497.794 269.803 497.684 269.096 497.684 268.335ZM499.49 268.11V268.335C499.49 268.862 499.552 269.36 499.676 269.829C499.799 270.291 499.985 270.701 500.232 271.059C500.486 271.417 500.802 271.701 501.18 271.909C501.557 272.111 501.997 272.212 502.498 272.212C502.993 272.212 503.426 272.111 503.797 271.909C504.174 271.701 504.487 271.417 504.734 271.059C504.982 270.701 505.167 270.291 505.291 269.829C505.421 269.36 505.486 268.862 505.486 268.335V268.11C505.486 267.589 505.421 267.098 505.291 266.635C505.167 266.167 504.979 265.753 504.725 265.395C504.477 265.031 504.165 264.744 503.787 264.536C503.416 264.327 502.98 264.223 502.479 264.223C501.984 264.223 501.548 264.327 501.17 264.536C500.799 264.744 500.486 265.031 500.232 265.395C499.985 265.753 499.799 266.167 499.676 266.635C499.552 267.098 499.49 267.589 499.49 268.11ZM511.375 264.594V273.501H509.568V262.934H511.326L511.375 264.594ZM514.676 262.876L514.666 264.555C514.516 264.523 514.373 264.503 514.236 264.497C514.106 264.484 513.956 264.477 513.787 264.477C513.37 264.477 513.003 264.542 512.684 264.673C512.365 264.803 512.094 264.985 511.873 265.219C511.652 265.454 511.476 265.734 511.346 266.059C511.222 266.378 511.141 266.73 511.102 267.114L510.594 267.407C510.594 266.769 510.656 266.17 510.779 265.61C510.91 265.05 511.108 264.555 511.375 264.126C511.642 263.689 511.98 263.351 512.391 263.11C512.807 262.863 513.302 262.739 513.875 262.739C514.005 262.739 514.155 262.755 514.324 262.788C514.493 262.814 514.611 262.843 514.676 262.876ZM519.49 272.407L522.43 262.934H524.363L520.125 275.132C520.027 275.392 519.897 275.672 519.734 275.971C519.578 276.277 519.376 276.567 519.129 276.84C518.882 277.114 518.582 277.335 518.23 277.505C517.885 277.68 517.472 277.768 516.99 277.768C516.847 277.768 516.665 277.749 516.443 277.71C516.222 277.671 516.066 277.638 515.975 277.612L515.965 276.147C516.017 276.154 516.098 276.16 516.209 276.167C516.326 276.18 516.408 276.186 516.453 276.186C516.863 276.186 517.212 276.131 517.498 276.02C517.785 275.916 518.025 275.737 518.221 275.483C518.423 275.236 518.595 274.894 518.738 274.458L519.49 272.407ZM517.332 262.934L520.076 271.137L520.545 273.042L519.246 273.706L515.359 262.934H517.332Z" fill="#686868"/>
<g clip-path="url(#clip2_17087_12990)">
<rect width="318" height="238.5" transform="translate(652 0.000488281)" fill="#E3E3E3"/>
</g>
<path d="M780.734 268.979H782.609C782.512 269.878 782.255 270.682 781.838 271.391C781.421 272.101 780.832 272.664 780.07 273.081C779.309 273.491 778.358 273.696 777.219 273.696C776.385 273.696 775.627 273.54 774.943 273.227C774.266 272.915 773.684 272.472 773.195 271.899C772.707 271.32 772.329 270.626 772.062 269.819C771.802 269.005 771.672 268.1 771.672 267.104V265.688C771.672 264.692 771.802 263.79 772.062 262.983C772.329 262.169 772.71 261.473 773.205 260.893C773.706 260.314 774.309 259.868 775.012 259.555C775.715 259.243 776.506 259.087 777.385 259.087C778.459 259.087 779.367 259.288 780.109 259.692C780.852 260.096 781.428 260.656 781.838 261.372C782.255 262.081 782.512 262.905 782.609 263.842H780.734C780.643 263.178 780.474 262.609 780.227 262.133C779.979 261.652 779.628 261.281 779.172 261.02C778.716 260.76 778.12 260.63 777.385 260.63C776.753 260.63 776.197 260.75 775.715 260.991C775.24 261.232 774.839 261.574 774.514 262.016C774.195 262.459 773.954 262.99 773.791 263.608C773.628 264.227 773.547 264.913 773.547 265.669V267.104C773.547 267.801 773.618 268.455 773.762 269.067C773.911 269.679 774.136 270.216 774.436 270.678C774.735 271.141 775.116 271.505 775.578 271.772C776.04 272.033 776.587 272.163 777.219 272.163C778.02 272.163 778.658 272.036 779.133 271.782C779.608 271.528 779.966 271.163 780.207 270.688C780.454 270.213 780.63 269.643 780.734 268.979ZM791.135 271.694V266.255C791.135 265.838 791.05 265.477 790.881 265.171C790.718 264.858 790.471 264.617 790.139 264.448C789.807 264.279 789.396 264.194 788.908 264.194C788.452 264.194 788.052 264.272 787.707 264.428C787.368 264.585 787.102 264.79 786.906 265.044C786.717 265.298 786.623 265.571 786.623 265.864H784.816C784.816 265.486 784.914 265.112 785.109 264.741C785.305 264.37 785.585 264.035 785.949 263.735C786.32 263.429 786.763 263.188 787.277 263.012C787.798 262.83 788.378 262.739 789.016 262.739C789.784 262.739 790.461 262.869 791.047 263.13C791.639 263.39 792.102 263.784 792.434 264.311C792.772 264.832 792.941 265.486 792.941 266.274V271.196C792.941 271.548 792.971 271.922 793.029 272.319C793.094 272.716 793.189 273.058 793.312 273.344V273.501H791.428C791.337 273.292 791.265 273.016 791.213 272.671C791.161 272.319 791.135 271.993 791.135 271.694ZM791.447 267.094L791.467 268.364H789.641C789.126 268.364 788.667 268.406 788.264 268.491C787.86 268.569 787.521 268.689 787.248 268.852C786.975 269.015 786.766 269.22 786.623 269.467C786.48 269.708 786.408 269.992 786.408 270.317C786.408 270.649 786.483 270.952 786.633 271.225C786.783 271.499 787.007 271.717 787.307 271.88C787.613 272.036 787.987 272.114 788.43 272.114C788.983 272.114 789.471 271.997 789.895 271.762C790.318 271.528 790.653 271.242 790.9 270.903C791.154 270.564 791.291 270.236 791.311 269.917L792.082 270.786C792.036 271.059 791.913 271.362 791.711 271.694C791.509 272.026 791.239 272.345 790.9 272.651C790.568 272.951 790.171 273.201 789.709 273.403C789.253 273.598 788.739 273.696 788.166 273.696C787.45 273.696 786.822 273.556 786.281 273.276C785.747 272.996 785.331 272.622 785.031 272.153C784.738 271.678 784.592 271.147 784.592 270.561C784.592 269.995 784.702 269.497 784.924 269.067C785.145 268.631 785.464 268.27 785.881 267.983C786.298 267.69 786.799 267.469 787.385 267.319C787.971 267.169 788.625 267.094 789.348 267.094H791.447ZM800.207 262.934V264.321H794.494V262.934H800.207ZM796.428 260.366H798.234V270.883C798.234 271.242 798.29 271.512 798.4 271.694C798.511 271.876 798.654 271.997 798.83 272.055C799.006 272.114 799.195 272.143 799.396 272.143C799.546 272.143 799.702 272.13 799.865 272.104C800.035 272.072 800.161 272.046 800.246 272.026L800.256 273.501C800.113 273.546 799.924 273.589 799.689 273.628C799.462 273.673 799.185 273.696 798.859 273.696C798.417 273.696 798.01 273.608 797.639 273.432C797.268 273.257 796.971 272.964 796.75 272.553C796.535 272.137 796.428 271.577 796.428 270.874V260.366ZM806.711 273.696C805.975 273.696 805.308 273.572 804.709 273.325C804.117 273.071 803.605 272.716 803.176 272.26C802.753 271.805 802.427 271.264 802.199 270.639C801.971 270.014 801.857 269.331 801.857 268.589V268.178C801.857 267.319 801.984 266.554 802.238 265.883C802.492 265.206 802.837 264.633 803.273 264.165C803.71 263.696 804.204 263.341 804.758 263.1C805.311 262.859 805.884 262.739 806.477 262.739C807.232 262.739 807.883 262.869 808.43 263.13C808.983 263.39 809.436 263.755 809.787 264.223C810.139 264.686 810.399 265.232 810.568 265.864C810.738 266.489 810.822 267.173 810.822 267.915V268.725H802.932V267.251H809.016V267.114C808.99 266.645 808.892 266.189 808.723 265.747C808.56 265.304 808.299 264.939 807.941 264.653C807.583 264.367 807.095 264.223 806.477 264.223C806.066 264.223 805.689 264.311 805.344 264.487C804.999 264.656 804.702 264.91 804.455 265.249C804.208 265.587 804.016 266.001 803.879 266.489C803.742 266.977 803.674 267.54 803.674 268.178V268.589C803.674 269.09 803.742 269.562 803.879 270.005C804.022 270.441 804.227 270.825 804.494 271.157C804.768 271.489 805.096 271.749 805.48 271.938C805.871 272.127 806.314 272.221 806.809 272.221C807.447 272.221 807.987 272.091 808.43 271.831C808.872 271.57 809.26 271.222 809.592 270.786L810.686 271.655C810.458 272 810.168 272.329 809.816 272.641C809.465 272.954 809.032 273.208 808.518 273.403C808.01 273.598 807.408 273.696 806.711 273.696ZM819.777 262.934H821.418V273.276C821.418 274.207 821.229 275.001 820.852 275.659C820.474 276.316 819.947 276.814 819.27 277.153C818.599 277.498 817.824 277.671 816.945 277.671C816.581 277.671 816.151 277.612 815.656 277.495C815.168 277.384 814.686 277.192 814.211 276.919C813.742 276.652 813.348 276.29 813.029 275.835L813.977 274.76C814.419 275.294 814.882 275.665 815.363 275.874C815.852 276.082 816.333 276.186 816.809 276.186C817.382 276.186 817.876 276.079 818.293 275.864C818.71 275.649 819.032 275.33 819.26 274.907C819.494 274.49 819.611 273.976 819.611 273.364V265.258L819.777 262.934ZM812.502 268.335V268.13C812.502 267.322 812.596 266.59 812.785 265.932C812.98 265.268 813.257 264.699 813.615 264.223C813.98 263.748 814.419 263.383 814.934 263.13C815.448 262.869 816.027 262.739 816.672 262.739C817.336 262.739 817.915 262.856 818.41 263.09C818.911 263.318 819.335 263.654 819.68 264.096C820.031 264.533 820.308 265.06 820.51 265.678C820.712 266.297 820.852 266.997 820.93 267.778V268.676C820.858 269.451 820.718 270.148 820.51 270.766C820.308 271.385 820.031 271.912 819.68 272.348C819.335 272.785 818.911 273.12 818.41 273.354C817.909 273.582 817.323 273.696 816.652 273.696C816.021 273.696 815.448 273.563 814.934 273.296C814.426 273.029 813.99 272.654 813.625 272.173C813.26 271.691 812.98 271.124 812.785 270.473C812.596 269.816 812.502 269.103 812.502 268.335ZM814.309 268.13V268.335C814.309 268.862 814.361 269.357 814.465 269.819C814.576 270.281 814.742 270.688 814.963 271.04C815.191 271.391 815.48 271.668 815.832 271.87C816.184 272.065 816.604 272.163 817.092 272.163C817.691 272.163 818.186 272.036 818.576 271.782C818.967 271.528 819.276 271.193 819.504 270.776C819.738 270.359 819.921 269.907 820.051 269.419V267.065C819.979 266.707 819.868 266.362 819.719 266.03C819.576 265.691 819.387 265.392 819.152 265.132C818.924 264.865 818.641 264.653 818.303 264.497C817.964 264.34 817.567 264.262 817.111 264.262C816.617 264.262 816.19 264.367 815.832 264.575C815.48 264.777 815.191 265.057 814.963 265.415C814.742 265.766 814.576 266.176 814.465 266.645C814.361 267.107 814.309 267.602 814.309 268.13ZM823.684 268.335V268.11C823.684 267.348 823.794 266.642 824.016 265.991C824.237 265.333 824.556 264.764 824.973 264.282C825.389 263.794 825.894 263.416 826.486 263.149C827.079 262.876 827.743 262.739 828.479 262.739C829.221 262.739 829.888 262.876 830.48 263.149C831.079 263.416 831.587 263.794 832.004 264.282C832.427 264.764 832.749 265.333 832.971 265.991C833.192 266.642 833.303 267.348 833.303 268.11V268.335C833.303 269.096 833.192 269.803 832.971 270.454C832.749 271.105 832.427 271.674 832.004 272.163C831.587 272.645 831.083 273.022 830.49 273.296C829.904 273.563 829.24 273.696 828.498 273.696C827.756 273.696 827.089 273.563 826.496 273.296C825.904 273.022 825.396 272.645 824.973 272.163C824.556 271.674 824.237 271.105 824.016 270.454C823.794 269.803 823.684 269.096 823.684 268.335ZM825.49 268.11V268.335C825.49 268.862 825.552 269.36 825.676 269.829C825.799 270.291 825.985 270.701 826.232 271.059C826.486 271.417 826.802 271.701 827.18 271.909C827.557 272.111 827.997 272.212 828.498 272.212C828.993 272.212 829.426 272.111 829.797 271.909C830.174 271.701 830.487 271.417 830.734 271.059C830.982 270.701 831.167 270.291 831.291 269.829C831.421 269.36 831.486 268.862 831.486 268.335V268.11C831.486 267.589 831.421 267.098 831.291 266.635C831.167 266.167 830.979 265.753 830.725 265.395C830.477 265.031 830.165 264.744 829.787 264.536C829.416 264.327 828.98 264.223 828.479 264.223C827.984 264.223 827.548 264.327 827.17 264.536C826.799 264.744 826.486 265.031 826.232 265.395C825.985 265.753 825.799 266.167 825.676 266.635C825.552 267.098 825.49 267.589 825.49 268.11ZM837.375 264.594V273.501H835.568V262.934H837.326L837.375 264.594ZM840.676 262.876L840.666 264.555C840.516 264.523 840.373 264.503 840.236 264.497C840.106 264.484 839.956 264.477 839.787 264.477C839.37 264.477 839.003 264.542 838.684 264.673C838.365 264.803 838.094 264.985 837.873 265.219C837.652 265.454 837.476 265.734 837.346 266.059C837.222 266.378 837.141 266.73 837.102 267.114L836.594 267.407C836.594 266.769 836.656 266.17 836.779 265.61C836.91 265.05 837.108 264.555 837.375 264.126C837.642 263.689 837.98 263.351 838.391 263.11C838.807 262.863 839.302 262.739 839.875 262.739C840.005 262.739 840.155 262.755 840.324 262.788C840.493 262.814 840.611 262.843 840.676 262.876ZM845.49 272.407L848.43 262.934H850.363L846.125 275.132C846.027 275.392 845.897 275.672 845.734 275.971C845.578 276.277 845.376 276.567 845.129 276.84C844.882 277.114 844.582 277.335 844.23 277.505C843.885 277.68 843.472 277.768 842.99 277.768C842.847 277.768 842.665 277.749 842.443 277.71C842.222 277.671 842.066 277.638 841.975 277.612L841.965 276.147C842.017 276.154 842.098 276.16 842.209 276.167C842.326 276.18 842.408 276.186 842.453 276.186C842.863 276.186 843.212 276.131 843.498 276.02C843.785 275.916 844.025 275.737 844.221 275.483C844.423 275.236 844.595 274.894 844.738 274.458L845.49 272.407ZM843.332 262.934L846.076 271.137L846.545 273.042L845.246 273.706L841.359 262.934H843.332Z" fill="#686868"/>
<g clip-path="url(#clip3_17087_12990)">
<rect width="318" height="238.5" transform="translate(978 0.000488281)" fill="#E3E3E3"/>
</g>
<path d="M1106.73 268.979H1108.61C1108.51 269.878 1108.25 270.682 1107.84 271.391C1107.42 272.101 1106.83 272.664 1106.07 273.081C1105.31 273.491 1104.36 273.696 1103.22 273.696C1102.39 273.696 1101.63 273.54 1100.94 273.227C1100.27 272.915 1099.68 272.472 1099.2 271.899C1098.71 271.32 1098.33 270.626 1098.06 269.819C1097.8 269.005 1097.67 268.1 1097.67 267.104V265.688C1097.67 264.692 1097.8 263.79 1098.06 262.983C1098.33 262.169 1098.71 261.473 1099.21 260.893C1099.71 260.314 1100.31 259.868 1101.01 259.555C1101.71 259.243 1102.51 259.087 1103.38 259.087C1104.46 259.087 1105.37 259.288 1106.11 259.692C1106.85 260.096 1107.43 260.656 1107.84 261.372C1108.25 262.081 1108.51 262.905 1108.61 263.842H1106.73C1106.64 263.178 1106.47 262.609 1106.23 262.133C1105.98 261.652 1105.63 261.281 1105.17 261.02C1104.72 260.76 1104.12 260.63 1103.38 260.63C1102.75 260.63 1102.2 260.75 1101.71 260.991C1101.24 261.232 1100.84 261.574 1100.51 262.016C1100.19 262.459 1099.95 262.99 1099.79 263.608C1099.63 264.227 1099.55 264.913 1099.55 265.669V267.104C1099.55 267.801 1099.62 268.455 1099.76 269.067C1099.91 269.679 1100.14 270.216 1100.44 270.678C1100.74 271.141 1101.12 271.505 1101.58 271.772C1102.04 272.033 1102.59 272.163 1103.22 272.163C1104.02 272.163 1104.66 272.036 1105.13 271.782C1105.61 271.528 1105.97 271.163 1106.21 270.688C1106.45 270.213 1106.63 269.643 1106.73 268.979ZM1117.13 271.694V266.255C1117.13 265.838 1117.05 265.477 1116.88 265.171C1116.72 264.858 1116.47 264.617 1116.14 264.448C1115.81 264.279 1115.4 264.194 1114.91 264.194C1114.45 264.194 1114.05 264.272 1113.71 264.428C1113.37 264.585 1113.1 264.79 1112.91 265.044C1112.72 265.298 1112.62 265.571 1112.62 265.864H1110.82C1110.82 265.486 1110.91 265.112 1111.11 264.741C1111.3 264.37 1111.58 264.035 1111.95 263.735C1112.32 263.429 1112.76 263.188 1113.28 263.012C1113.8 262.83 1114.38 262.739 1115.02 262.739C1115.78 262.739 1116.46 262.869 1117.05 263.13C1117.64 263.39 1118.1 263.784 1118.43 264.311C1118.77 264.832 1118.94 265.486 1118.94 266.274V271.196C1118.94 271.548 1118.97 271.922 1119.03 272.319C1119.09 272.716 1119.19 273.058 1119.31 273.344V273.501H1117.43C1117.34 273.292 1117.26 273.016 1117.21 272.671C1117.16 272.319 1117.13 271.993 1117.13 271.694ZM1117.45 267.094L1117.47 268.364H1115.64C1115.13 268.364 1114.67 268.406 1114.26 268.491C1113.86 268.569 1113.52 268.689 1113.25 268.852C1112.97 269.015 1112.77 269.22 1112.62 269.467C1112.48 269.708 1112.41 269.992 1112.41 270.317C1112.41 270.649 1112.48 270.952 1112.63 271.225C1112.78 271.499 1113.01 271.717 1113.31 271.88C1113.61 272.036 1113.99 272.114 1114.43 272.114C1114.98 272.114 1115.47 271.997 1115.89 271.762C1116.32 271.528 1116.65 271.242 1116.9 270.903C1117.15 270.564 1117.29 270.236 1117.31 269.917L1118.08 270.786C1118.04 271.059 1117.91 271.362 1117.71 271.694C1117.51 272.026 1117.24 272.345 1116.9 272.651C1116.57 272.951 1116.17 273.201 1115.71 273.403C1115.25 273.598 1114.74 273.696 1114.17 273.696C1113.45 273.696 1112.82 273.556 1112.28 273.276C1111.75 272.996 1111.33 272.622 1111.03 272.153C1110.74 271.678 1110.59 271.147 1110.59 270.561C1110.59 269.995 1110.7 269.497 1110.92 269.067C1111.15 268.631 1111.46 268.27 1111.88 267.983C1112.3 267.69 1112.8 267.469 1113.38 267.319C1113.97 267.169 1114.62 267.094 1115.35 267.094H1117.45ZM1126.21 262.934V264.321H1120.49V262.934H1126.21ZM1122.43 260.366H1124.23V270.883C1124.23 271.242 1124.29 271.512 1124.4 271.694C1124.51 271.876 1124.65 271.997 1124.83 272.055C1125.01 272.114 1125.19 272.143 1125.4 272.143C1125.55 272.143 1125.7 272.13 1125.87 272.104C1126.03 272.072 1126.16 272.046 1126.25 272.026L1126.26 273.501C1126.11 273.546 1125.92 273.589 1125.69 273.628C1125.46 273.673 1125.18 273.696 1124.86 273.696C1124.42 273.696 1124.01 273.608 1123.64 273.432C1123.27 273.257 1122.97 272.964 1122.75 272.553C1122.54 272.137 1122.43 271.577 1122.43 270.874V260.366ZM1132.71 273.696C1131.98 273.696 1131.31 273.572 1130.71 273.325C1130.12 273.071 1129.61 272.716 1129.18 272.26C1128.75 271.805 1128.43 271.264 1128.2 270.639C1127.97 270.014 1127.86 269.331 1127.86 268.589V268.178C1127.86 267.319 1127.98 266.554 1128.24 265.883C1128.49 265.206 1128.84 264.633 1129.27 264.165C1129.71 263.696 1130.2 263.341 1130.76 263.1C1131.31 262.859 1131.88 262.739 1132.48 262.739C1133.23 262.739 1133.88 262.869 1134.43 263.13C1134.98 263.39 1135.44 263.755 1135.79 264.223C1136.14 264.686 1136.4 265.232 1136.57 265.864C1136.74 266.489 1136.82 267.173 1136.82 267.915V268.725H1128.93V267.251H1135.02V267.114C1134.99 266.645 1134.89 266.189 1134.72 265.747C1134.56 265.304 1134.3 264.939 1133.94 264.653C1133.58 264.367 1133.1 264.223 1132.48 264.223C1132.07 264.223 1131.69 264.311 1131.34 264.487C1131 264.656 1130.7 264.91 1130.46 265.249C1130.21 265.587 1130.02 266.001 1129.88 266.489C1129.74 266.977 1129.67 267.54 1129.67 268.178V268.589C1129.67 269.09 1129.74 269.562 1129.88 270.005C1130.02 270.441 1130.23 270.825 1130.49 271.157C1130.77 271.489 1131.1 271.749 1131.48 271.938C1131.87 272.127 1132.31 272.221 1132.81 272.221C1133.45 272.221 1133.99 272.091 1134.43 271.831C1134.87 271.57 1135.26 271.222 1135.59 270.786L1136.69 271.655C1136.46 272 1136.17 272.329 1135.82 272.641C1135.46 272.954 1135.03 273.208 1134.52 273.403C1134.01 273.598 1133.41 273.696 1132.71 273.696ZM1145.78 262.934H1147.42V273.276C1147.42 274.207 1147.23 275.001 1146.85 275.659C1146.47 276.316 1145.95 276.814 1145.27 277.153C1144.6 277.498 1143.82 277.671 1142.95 277.671C1142.58 277.671 1142.15 277.612 1141.66 277.495C1141.17 277.384 1140.69 277.192 1140.21 276.919C1139.74 276.652 1139.35 276.29 1139.03 275.835L1139.98 274.76C1140.42 275.294 1140.88 275.665 1141.36 275.874C1141.85 276.082 1142.33 276.186 1142.81 276.186C1143.38 276.186 1143.88 276.079 1144.29 275.864C1144.71 275.649 1145.03 275.33 1145.26 274.907C1145.49 274.49 1145.61 273.976 1145.61 273.364V265.258L1145.78 262.934ZM1138.5 268.335V268.13C1138.5 267.322 1138.6 266.59 1138.79 265.932C1138.98 265.268 1139.26 264.699 1139.62 264.223C1139.98 263.748 1140.42 263.383 1140.93 263.13C1141.45 262.869 1142.03 262.739 1142.67 262.739C1143.34 262.739 1143.92 262.856 1144.41 263.09C1144.91 263.318 1145.33 263.654 1145.68 264.096C1146.03 264.533 1146.31 265.06 1146.51 265.678C1146.71 266.297 1146.85 266.997 1146.93 267.778V268.676C1146.86 269.451 1146.72 270.148 1146.51 270.766C1146.31 271.385 1146.03 271.912 1145.68 272.348C1145.33 272.785 1144.91 273.12 1144.41 273.354C1143.91 273.582 1143.32 273.696 1142.65 273.696C1142.02 273.696 1141.45 273.563 1140.93 273.296C1140.43 273.029 1139.99 272.654 1139.62 272.173C1139.26 271.691 1138.98 271.124 1138.79 270.473C1138.6 269.816 1138.5 269.103 1138.5 268.335ZM1140.31 268.13V268.335C1140.31 268.862 1140.36 269.357 1140.46 269.819C1140.58 270.281 1140.74 270.688 1140.96 271.04C1141.19 271.391 1141.48 271.668 1141.83 271.87C1142.18 272.065 1142.6 272.163 1143.09 272.163C1143.69 272.163 1144.19 272.036 1144.58 271.782C1144.97 271.528 1145.28 271.193 1145.5 270.776C1145.74 270.359 1145.92 269.907 1146.05 269.419V267.065C1145.98 266.707 1145.87 266.362 1145.72 266.03C1145.58 265.691 1145.39 265.392 1145.15 265.132C1144.92 264.865 1144.64 264.653 1144.3 264.497C1143.96 264.34 1143.57 264.262 1143.11 264.262C1142.62 264.262 1142.19 264.367 1141.83 264.575C1141.48 264.777 1141.19 265.057 1140.96 265.415C1140.74 265.766 1140.58 266.176 1140.46 266.645C1140.36 267.107 1140.31 267.602 1140.31 268.13ZM1149.68 268.335V268.11C1149.68 267.348 1149.79 266.642 1150.02 265.991C1150.24 265.333 1150.56 264.764 1150.97 264.282C1151.39 263.794 1151.89 263.416 1152.49 263.149C1153.08 262.876 1153.74 262.739 1154.48 262.739C1155.22 262.739 1155.89 262.876 1156.48 263.149C1157.08 263.416 1157.59 263.794 1158 264.282C1158.43 264.764 1158.75 265.333 1158.97 265.991C1159.19 266.642 1159.3 267.348 1159.3 268.11V268.335C1159.3 269.096 1159.19 269.803 1158.97 270.454C1158.75 271.105 1158.43 271.674 1158 272.163C1157.59 272.645 1157.08 273.022 1156.49 273.296C1155.9 273.563 1155.24 273.696 1154.5 273.696C1153.76 273.696 1153.09 273.563 1152.5 273.296C1151.9 273.022 1151.4 272.645 1150.97 272.163C1150.56 271.674 1150.24 271.105 1150.02 270.454C1149.79 269.803 1149.68 269.096 1149.68 268.335ZM1151.49 268.11V268.335C1151.49 268.862 1151.55 269.36 1151.68 269.829C1151.8 270.291 1151.99 270.701 1152.23 271.059C1152.49 271.417 1152.8 271.701 1153.18 271.909C1153.56 272.111 1154 272.212 1154.5 272.212C1154.99 272.212 1155.43 272.111 1155.8 271.909C1156.17 271.701 1156.49 271.417 1156.73 271.059C1156.98 270.701 1157.17 270.291 1157.29 269.829C1157.42 269.36 1157.49 268.862 1157.49 268.335V268.11C1157.49 267.589 1157.42 267.098 1157.29 266.635C1157.17 266.167 1156.98 265.753 1156.72 265.395C1156.48 265.031 1156.16 264.744 1155.79 264.536C1155.42 264.327 1154.98 264.223 1154.48 264.223C1153.98 264.223 1153.55 264.327 1153.17 264.536C1152.8 264.744 1152.49 265.031 1152.23 265.395C1151.99 265.753 1151.8 266.167 1151.68 266.635C1151.55 267.098 1151.49 267.589 1151.49 268.11ZM1163.38 264.594V273.501H1161.57V262.934H1163.33L1163.38 264.594ZM1166.68 262.876L1166.67 264.555C1166.52 264.523 1166.37 264.503 1166.24 264.497C1166.11 264.484 1165.96 264.477 1165.79 264.477C1165.37 264.477 1165 264.542 1164.68 264.673C1164.36 264.803 1164.09 264.985 1163.87 265.219C1163.65 265.454 1163.48 265.734 1163.35 266.059C1163.22 266.378 1163.14 266.73 1163.1 267.114L1162.59 267.407C1162.59 266.769 1162.66 266.17 1162.78 265.61C1162.91 265.05 1163.11 264.555 1163.38 264.126C1163.64 263.689 1163.98 263.351 1164.39 263.11C1164.81 262.863 1165.3 262.739 1165.88 262.739C1166.01 262.739 1166.15 262.755 1166.32 262.788C1166.49 262.814 1166.61 262.843 1166.68 262.876ZM1171.49 272.407L1174.43 262.934H1176.36L1172.12 275.132C1172.03 275.392 1171.9 275.672 1171.73 275.971C1171.58 276.277 1171.38 276.567 1171.13 276.84C1170.88 277.114 1170.58 277.335 1170.23 277.505C1169.89 277.68 1169.47 277.768 1168.99 277.768C1168.85 277.768 1168.66 277.749 1168.44 277.71C1168.22 277.671 1168.07 277.638 1167.97 277.612L1167.96 276.147C1168.02 276.154 1168.1 276.16 1168.21 276.167C1168.33 276.18 1168.41 276.186 1168.45 276.186C1168.86 276.186 1169.21 276.131 1169.5 276.02C1169.78 275.916 1170.03 275.737 1170.22 275.483C1170.42 275.236 1170.6 274.894 1170.74 274.458L1171.49 272.407ZM1169.33 262.934L1172.08 271.137L1172.54 273.042L1171.25 273.706L1167.36 262.934H1169.33Z" fill="#686868"/>
<defs>
<clipPath id="clip0_17087_12990">
<rect width="318" height="238.5" fill="white" transform="translate(0 0.000488281)"/>
</clipPath>
<clipPath id="clip1_17087_12990">
<rect width="318" height="238.5" fill="white" transform="translate(326 0.000488281)"/>
</clipPath>
<clipPath id="clip2_17087_12990">
<rect width="318" height="238.5" fill="white" transform="translate(652 0.000488281)"/>
</clipPath>
<clipPath id="clip3_17087_12990">
<rect width="318" height="238.5" fill="white" transform="translate(978 0.000488281)"/>
</clipPath>
</defs>
</svg>
