<svg width="1296" height="374" viewBox="0 0 1296 374" fill="none" xmlns="http://www.w3.org/2000/svg">
<path d="M11.4141 19.3406H14.918C14.8477 20.489 14.5312 21.5085 13.9688 22.3992C13.4141 23.2898 12.6367 23.9851 11.6367 24.4851C10.6445 24.9851 9.44922 25.2351 8.05078 25.2351C6.95703 25.2351 5.97656 25.0476 5.10938 24.6726C4.24219 24.2898 3.5 23.7429 2.88281 23.032C2.27344 22.321 1.80859 21.4617 1.48828 20.4539C1.16797 19.446 1.00781 18.3171 1.00781 17.0671V15.8835C1.00781 14.6335 1.17188 13.5046 1.5 12.4968C1.83594 11.4812 2.3125 10.6179 2.92969 9.90698C3.55469 9.19604 4.30078 8.64917 5.16797 8.26636C6.03516 7.88354 7.00391 7.69214 8.07422 7.69214C9.49609 7.69214 10.6953 7.94995 11.6719 8.46558C12.6562 8.9812 13.418 9.69214 13.957 10.5984C14.5039 11.5046 14.832 12.5359 14.9414 13.6921H11.4258C11.3867 13.0046 11.25 12.4226 11.0156 11.946C10.7812 11.4617 10.4258 11.0984 9.94922 10.8562C9.48047 10.6062 8.85547 10.4812 8.07422 10.4812C7.48828 10.4812 6.97656 10.5906 6.53906 10.8093C6.10156 11.0281 5.73438 11.3601 5.4375 11.8054C5.14062 12.2507 4.91797 12.8132 4.76953 13.4929C4.62891 14.1648 4.55859 14.9539 4.55859 15.8601V17.0671C4.55859 17.95 4.625 18.7273 4.75781 19.3992C4.89062 20.0632 5.09375 20.6257 5.36719 21.0867C5.64844 21.5398 6.00781 21.8835 6.44531 22.1179C6.89062 22.3445 7.42578 22.4578 8.05078 22.4578C8.78516 22.4578 9.39062 22.3406 9.86719 22.1062C10.3438 21.8718 10.707 21.5242 10.957 21.0632C11.2148 20.6023 11.3672 20.0281 11.4141 19.3406ZM23.8594 22.1414V16.4929C23.8594 16.0867 23.793 15.739 23.6602 15.45C23.5273 15.1531 23.3203 14.9226 23.0391 14.7585C22.7656 14.5945 22.4102 14.5125 21.9727 14.5125C21.5977 14.5125 21.2734 14.5789 21 14.7117C20.7266 14.8367 20.5156 15.0203 20.3672 15.2625C20.2188 15.4968 20.1445 15.7742 20.1445 16.0945H16.7695C16.7695 15.5554 16.8945 15.0437 17.1445 14.5593C17.3945 14.075 17.7578 13.6492 18.2344 13.282C18.7109 12.907 19.2773 12.614 19.9336 12.4031C20.5977 12.1921 21.3398 12.0867 22.1602 12.0867C23.1445 12.0867 24.0195 12.2507 24.7852 12.5789C25.5508 12.907 26.1523 13.3992 26.5898 14.0554C27.0352 14.7117 27.2578 15.532 27.2578 16.5164V21.9421C27.2578 22.6375 27.3008 23.2078 27.3867 23.6531C27.4727 24.0906 27.5977 24.4734 27.7617 24.8015V25.0007H24.3516C24.1875 24.657 24.0625 24.2273 23.9766 23.7117C23.8984 23.1882 23.8594 22.6648 23.8594 22.1414ZM24.3047 17.2781L24.3281 19.1882H22.4414C21.9961 19.1882 21.6094 19.239 21.2812 19.3406C20.9531 19.4421 20.6836 19.5867 20.4727 19.7742C20.2617 19.9539 20.1055 20.1648 20.0039 20.407C19.9102 20.6492 19.8633 20.9148 19.8633 21.2039C19.8633 21.4929 19.9297 21.7546 20.0625 21.989C20.1953 22.2156 20.3867 22.3953 20.6367 22.5281C20.8867 22.6531 21.1797 22.7156 21.5156 22.7156C22.0234 22.7156 22.4648 22.614 22.8398 22.4109C23.2148 22.2078 23.5039 21.9578 23.707 21.6609C23.918 21.364 24.0273 21.0828 24.0352 20.8171L24.9258 22.2468C24.8008 22.5671 24.6289 22.8992 24.4102 23.2429C24.1992 23.5867 23.9297 23.9109 23.6016 24.2156C23.2734 24.5125 22.8789 24.7585 22.418 24.9539C21.957 25.1414 21.4102 25.2351 20.7773 25.2351C19.9727 25.2351 19.2422 25.075 18.5859 24.7546C17.9375 24.4265 17.4219 23.9773 17.0391 23.407C16.6641 22.8289 16.4766 22.1726 16.4766 21.4382C16.4766 20.7742 16.6016 20.1843 16.8516 19.6687C17.1016 19.1531 17.4688 18.7195 17.9531 18.3679C18.4453 18.0085 19.0586 17.739 19.793 17.5593C20.5273 17.3718 21.3789 17.2781 22.3477 17.2781H24.3047ZM36.0703 12.321V14.7117H28.6875V12.321H36.0703ZM30.5156 9.19214H33.8906V21.1804C33.8906 21.5476 33.9375 21.8289 34.0312 22.0242C34.1328 22.2195 34.2812 22.3562 34.4766 22.4343C34.6719 22.5046 34.918 22.5398 35.2148 22.5398C35.4258 22.5398 35.6133 22.532 35.7773 22.5164C35.9492 22.4929 36.0938 22.4695 36.2109 22.446L36.2227 24.9304C35.9336 25.0242 35.6211 25.0984 35.2852 25.1531C34.9492 25.2078 34.5781 25.2351 34.1719 25.2351C33.4297 25.2351 32.7812 25.114 32.2266 24.8718C31.6797 24.6218 31.2578 24.2234 30.9609 23.6765C30.6641 23.1296 30.5156 22.4109 30.5156 21.5203V9.19214ZM43.8281 25.2351C42.8438 25.2351 41.9609 25.0789 41.1797 24.7664C40.3984 24.446 39.7344 24.0046 39.1875 23.4421C38.6484 22.8796 38.2344 22.2273 37.9453 21.4851C37.6562 20.7351 37.5117 19.9382 37.5117 19.0945V18.6257C37.5117 17.6648 37.6484 16.7859 37.9219 15.989C38.1953 15.1921 38.5859 14.5007 39.0938 13.9148C39.6094 13.3289 40.2344 12.8796 40.9688 12.5671C41.7031 12.2468 42.5312 12.0867 43.4531 12.0867C44.3516 12.0867 45.1484 12.2351 45.8438 12.532C46.5391 12.8289 47.1211 13.2507 47.5898 13.7976C48.0664 14.3445 48.4258 15.0007 48.668 15.7664C48.9102 16.5242 49.0312 17.3679 49.0312 18.2976V19.7039H38.9531V17.4539H45.7148V17.196C45.7148 16.7273 45.6289 16.3093 45.457 15.9421C45.293 15.5671 45.043 15.2703 44.707 15.0515C44.3711 14.8328 43.9414 14.7234 43.418 14.7234C42.9727 14.7234 42.5898 14.821 42.2695 15.0164C41.9492 15.2117 41.6875 15.4851 41.4844 15.8367C41.2891 16.1882 41.1406 16.6023 41.0391 17.0789C40.9453 17.5476 40.8984 18.0632 40.8984 18.6257V19.0945C40.8984 19.6023 40.9688 20.071 41.1094 20.5007C41.2578 20.9304 41.4648 21.3015 41.7305 21.614C42.0039 21.9265 42.332 22.1687 42.7148 22.3406C43.1055 22.5125 43.5469 22.5984 44.0391 22.5984C44.6484 22.5984 45.2148 22.4812 45.7383 22.2468C46.2695 22.0046 46.7266 21.6414 47.1094 21.157L48.75 22.9382C48.4844 23.321 48.1211 23.6882 47.6602 24.0398C47.207 24.3914 46.6602 24.6804 46.0195 24.907C45.3789 25.1257 44.6484 25.2351 43.8281 25.2351ZM58.9805 12.321H62.0391V24.5789C62.0391 25.7351 61.7812 26.7156 61.2656 27.5203C60.7578 28.3328 60.0469 28.946 59.1328 29.3601C58.2188 29.782 57.1562 29.9929 55.9453 29.9929C55.4141 29.9929 54.8516 29.9226 54.2578 29.782C53.6719 29.6414 53.1094 29.4226 52.5703 29.1257C52.0391 28.8289 51.5938 28.4539 51.2344 28.0007L52.7227 26.0085C53.1133 26.4617 53.5664 26.8132 54.082 27.0632C54.5977 27.321 55.168 27.45 55.793 27.45C56.4023 27.45 56.918 27.3367 57.3398 27.1101C57.7617 26.8914 58.0859 26.5671 58.3125 26.1375C58.5391 25.7156 58.6523 25.2039 58.6523 24.6023V15.2507L58.9805 12.321ZM50.4492 18.8132V18.5671C50.4492 17.5984 50.5664 16.7195 50.8008 15.9304C51.043 15.1335 51.3828 14.45 51.8203 13.8796C52.2656 13.3093 52.8047 12.8679 53.4375 12.5554C54.0703 12.2429 54.7852 12.0867 55.582 12.0867C56.4258 12.0867 57.1328 12.2429 57.7031 12.5554C58.2734 12.8679 58.7422 13.3132 59.1094 13.8914C59.4766 14.4617 59.7617 15.1375 59.9648 15.9187C60.1758 16.6921 60.3398 17.5398 60.457 18.4617V19.0007C60.3398 19.8835 60.1641 20.7039 59.9297 21.4617C59.6953 22.2195 59.3867 22.8835 59.0039 23.4539C58.6211 24.0164 58.1445 24.4539 57.5742 24.7664C57.0117 25.0789 56.3398 25.2351 55.5586 25.2351C54.7773 25.2351 54.0703 25.075 53.4375 24.7546C52.8125 24.4343 52.2773 23.9851 51.832 23.407C51.3867 22.8289 51.043 22.1492 50.8008 21.3679C50.5664 20.5867 50.4492 19.7351 50.4492 18.8132ZM53.8242 18.5671V18.8132C53.8242 19.3367 53.875 19.825 53.9766 20.2781C54.0781 20.7312 54.2344 21.1335 54.4453 21.4851C54.6641 21.8289 54.9336 22.0984 55.2539 22.2937C55.582 22.4812 55.9688 22.575 56.4141 22.575C57.0312 22.575 57.5352 22.446 57.9258 22.1882C58.3164 21.9226 58.6094 21.5593 58.8047 21.0984C59 20.6375 59.1133 20.1062 59.1445 19.5046V17.9695C59.1289 17.4773 59.0625 17.0359 58.9453 16.6453C58.8281 16.2468 58.6641 15.907 58.4531 15.6257C58.2422 15.3445 57.9688 15.1257 57.6328 14.9695C57.2969 14.8132 56.8984 14.7351 56.4375 14.7351C55.9922 14.7351 55.6055 14.8367 55.2773 15.0398C54.957 15.2351 54.6875 15.5046 54.4688 15.8484C54.2578 16.1921 54.0977 16.5984 53.9883 17.0671C53.8789 17.5281 53.8242 18.0281 53.8242 18.5671ZM64.125 18.7898V18.5437C64.125 17.614 64.2578 16.7585 64.5234 15.9773C64.7891 15.1882 65.1758 14.5046 65.6836 13.9265C66.1914 13.3484 66.8164 12.8992 67.5586 12.5789C68.3008 12.2507 69.1523 12.0867 70.1133 12.0867C71.0742 12.0867 71.9297 12.2507 72.6797 12.5789C73.4297 12.8992 74.0586 13.3484 74.5664 13.9265C75.082 14.5046 75.4727 15.1882 75.7383 15.9773C76.0039 16.7585 76.1367 17.614 76.1367 18.5437V18.7898C76.1367 19.7117 76.0039 20.5671 75.7383 21.3562C75.4727 22.1375 75.082 22.821 74.5664 23.407C74.0586 23.9851 73.4336 24.4343 72.6914 24.7546C71.9492 25.075 71.0977 25.2351 70.1367 25.2351C69.1758 25.2351 68.3203 25.075 67.5703 24.7546C66.8281 24.4343 66.1992 23.9851 65.6836 23.407C65.1758 22.821 64.7891 22.1375 64.5234 21.3562C64.2578 20.5671 64.125 19.7117 64.125 18.7898ZM67.5 18.5437V18.7898C67.5 19.321 67.5469 19.8171 67.6406 20.2781C67.7344 20.739 67.8828 21.1453 68.0859 21.4968C68.2969 21.8406 68.5703 22.1101 68.9062 22.3054C69.2422 22.5007 69.6523 22.5984 70.1367 22.5984C70.6055 22.5984 71.0078 22.5007 71.3438 22.3054C71.6797 22.1101 71.9492 21.8406 72.1523 21.4968C72.3555 21.1453 72.5039 20.739 72.5977 20.2781C72.6992 19.8171 72.75 19.321 72.75 18.7898V18.5437C72.75 18.0281 72.6992 17.5437 72.5977 17.0906C72.5039 16.6296 72.3516 16.2234 72.1406 15.8718C71.9375 15.5125 71.668 15.2312 71.332 15.0281C70.9961 14.825 70.5898 14.7234 70.1133 14.7234C69.6367 14.7234 69.2305 14.825 68.8945 15.0281C68.5664 15.2312 68.2969 15.5125 68.0859 15.8718C67.8828 16.2234 67.7344 16.6296 67.6406 17.0906C67.5469 17.5437 67.5 18.0281 67.5 18.5437ZM81.5859 15.0867V25.0007H78.2109V12.321H81.3867L81.5859 15.0867ZM85.4062 12.239L85.3477 15.3679C85.1836 15.3445 84.9844 15.325 84.75 15.3093C84.5234 15.2859 84.3164 15.2742 84.1289 15.2742C83.6523 15.2742 83.2383 15.3367 82.8867 15.4617C82.543 15.5789 82.2539 15.7546 82.0195 15.989C81.793 16.2234 81.6211 16.5085 81.5039 16.8445C81.3945 17.1804 81.332 17.5632 81.3164 17.9929L80.6367 17.782C80.6367 16.9617 80.7188 16.2078 80.8828 15.5203C81.0469 14.825 81.2852 14.2195 81.5977 13.7039C81.918 13.1882 82.3086 12.7898 82.7695 12.5085C83.2305 12.2273 83.7578 12.0867 84.3516 12.0867C84.5391 12.0867 84.7305 12.1023 84.9258 12.1335C85.1211 12.157 85.2812 12.1921 85.4062 12.239ZM90.5625 12.321V25.0007H87.1758V12.321H90.5625ZM86.9648 9.01636C86.9648 8.52417 87.1367 8.11792 87.4805 7.79761C87.8242 7.47729 88.2852 7.31714 88.8633 7.31714C89.4336 7.31714 89.8906 7.47729 90.2344 7.79761C90.5859 8.11792 90.7617 8.52417 90.7617 9.01636C90.7617 9.50854 90.5859 9.91479 90.2344 10.2351C89.8906 10.5554 89.4336 10.7156 88.8633 10.7156C88.2852 10.7156 87.8242 10.5554 87.4805 10.2351C87.1367 9.91479 86.9648 9.50854 86.9648 9.01636ZM99.1875 25.2351C98.2031 25.2351 97.3203 25.0789 96.5391 24.7664C95.7578 24.446 95.0938 24.0046 94.5469 23.4421C94.0078 22.8796 93.5938 22.2273 93.3047 21.4851C93.0156 20.7351 92.8711 19.9382 92.8711 19.0945V18.6257C92.8711 17.6648 93.0078 16.7859 93.2812 15.989C93.5547 15.1921 93.9453 14.5007 94.4531 13.9148C94.9688 13.3289 95.5938 12.8796 96.3281 12.5671C97.0625 12.2468 97.8906 12.0867 98.8125 12.0867C99.7109 12.0867 100.508 12.2351 101.203 12.532C101.898 12.8289 102.48 13.2507 102.949 13.7976C103.426 14.3445 103.785 15.0007 104.027 15.7664C104.27 16.5242 104.391 17.3679 104.391 18.2976V19.7039H94.3125V17.4539H101.074V17.196C101.074 16.7273 100.988 16.3093 100.816 15.9421C100.652 15.5671 100.402 15.2703 100.066 15.0515C99.7305 14.8328 99.3008 14.7234 98.7773 14.7234C98.332 14.7234 97.9492 14.821 97.6289 15.0164C97.3086 15.2117 97.0469 15.4851 96.8438 15.8367C96.6484 16.1882 96.5 16.6023 96.3984 17.0789C96.3047 17.5476 96.2578 18.0632 96.2578 18.6257V19.0945C96.2578 19.6023 96.3281 20.071 96.4688 20.5007C96.6172 20.9304 96.8242 21.3015 97.0898 21.614C97.3633 21.9265 97.6914 22.1687 98.0742 22.3406C98.4648 22.5125 98.9062 22.5984 99.3984 22.5984C100.008 22.5984 100.574 22.4812 101.098 22.2468C101.629 22.0046 102.086 21.6414 102.469 21.157L104.109 22.9382C103.844 23.321 103.48 23.6882 103.02 24.0398C102.566 24.3914 102.02 24.6804 101.379 24.907C100.738 25.1257 100.008 25.2351 99.1875 25.2351ZM113.168 21.4968C113.168 21.2546 113.098 21.0359 112.957 20.8406C112.816 20.6453 112.555 20.4656 112.172 20.3015C111.797 20.1296 111.254 19.9734 110.543 19.8328C109.902 19.6921 109.305 19.5164 108.75 19.3054C108.203 19.0867 107.727 18.825 107.32 18.5203C106.922 18.2156 106.609 17.8562 106.383 17.4421C106.156 17.0203 106.043 16.5398 106.043 16.0007C106.043 15.4695 106.156 14.9695 106.383 14.5007C106.617 14.032 106.949 13.6179 107.379 13.2585C107.816 12.8914 108.348 12.6062 108.973 12.4031C109.605 12.1921 110.316 12.0867 111.105 12.0867C112.207 12.0867 113.152 12.2625 113.941 12.614C114.738 12.9656 115.348 13.45 115.77 14.0671C116.199 14.6765 116.414 15.3718 116.414 16.1531H113.039C113.039 15.825 112.969 15.532 112.828 15.2742C112.695 15.0085 112.484 14.8015 112.195 14.6531C111.914 14.4968 111.547 14.4187 111.094 14.4187C110.719 14.4187 110.395 14.4851 110.121 14.6179C109.848 14.7429 109.637 14.9148 109.488 15.1335C109.348 15.3445 109.277 15.5789 109.277 15.8367C109.277 16.032 109.316 16.2078 109.395 16.364C109.48 16.5125 109.617 16.6492 109.805 16.7742C109.992 16.8992 110.234 17.0164 110.531 17.1257C110.836 17.2273 111.211 17.321 111.656 17.407C112.57 17.5945 113.387 17.8406 114.105 18.1453C114.824 18.4421 115.395 18.8484 115.816 19.364C116.238 19.8718 116.449 20.5398 116.449 21.3679C116.449 21.9304 116.324 22.446 116.074 22.9148C115.824 23.3835 115.465 23.7937 114.996 24.1453C114.527 24.489 113.965 24.7585 113.309 24.9539C112.66 25.1414 111.93 25.2351 111.117 25.2351C109.938 25.2351 108.938 25.0242 108.117 24.6023C107.305 24.1804 106.688 23.6453 106.266 22.9968C105.852 22.3406 105.645 21.6687 105.645 20.9812H108.844C108.859 21.4421 108.977 21.8132 109.195 22.0945C109.422 22.3757 109.707 22.5789 110.051 22.7039C110.402 22.8289 110.781 22.8914 111.188 22.8914C111.625 22.8914 111.988 22.8328 112.277 22.7156C112.566 22.5906 112.785 22.4265 112.934 22.2234C113.09 22.0125 113.168 21.7703 113.168 21.4968Z" fill="#1C1C1C"/>
<rect x="1224.5" y="1.00073" width="31" height="31" rx="5.5" stroke="#C9C9C9"/>
<path d="M1237.2 16.5007L1243.7 23.0007L1243 23.7057L1235.79 16.5007L1243 9.29572L1243.7 10.0007L1237.2 16.5007Z" fill="#686868"/>
<rect x="1264.5" y="1.00073" width="31" height="31" rx="5.5" stroke="#C9C9C9"/>
<path d="M1284.2 16.5007L1277 23.7057L1276.29 23.0007L1282.79 16.5007L1276.29 10.0007L1277 9.29572L1284.2 16.5007Z" fill="#686868"/>
<g clip-path="url(#clip0_17087_12992)">
<rect width="306" height="229.5" transform="translate(0 64.5007)" fill="#E3E3E3"/>
</g>
<path d="M122.734 324.479H124.609C124.512 325.378 124.255 326.182 123.838 326.892C123.421 327.601 122.832 328.164 122.07 328.581C121.309 328.991 120.358 329.196 119.219 329.196C118.385 329.196 117.627 329.04 116.943 328.727C116.266 328.415 115.684 327.972 115.195 327.399C114.707 326.82 114.329 326.127 114.062 325.319C113.802 324.505 113.672 323.601 113.672 322.604V321.188C113.672 320.192 113.802 319.291 114.062 318.483C114.329 317.67 114.71 316.973 115.205 316.393C115.706 315.814 116.309 315.368 117.012 315.056C117.715 314.743 118.506 314.587 119.385 314.587C120.459 314.587 121.367 314.789 122.109 315.192C122.852 315.596 123.428 316.156 123.838 316.872C124.255 317.582 124.512 318.405 124.609 319.343H122.734C122.643 318.679 122.474 318.109 122.227 317.634C121.979 317.152 121.628 316.781 121.172 316.52C120.716 316.26 120.12 316.13 119.385 316.13C118.753 316.13 118.197 316.25 117.715 316.491C117.24 316.732 116.839 317.074 116.514 317.517C116.195 317.959 115.954 318.49 115.791 319.108C115.628 319.727 115.547 320.414 115.547 321.169V322.604C115.547 323.301 115.618 323.955 115.762 324.567C115.911 325.179 116.136 325.716 116.436 326.179C116.735 326.641 117.116 327.005 117.578 327.272C118.04 327.533 118.587 327.663 119.219 327.663C120.02 327.663 120.658 327.536 121.133 327.282C121.608 327.028 121.966 326.664 122.207 326.188C122.454 325.713 122.63 325.143 122.734 324.479ZM133.135 327.194V321.755C133.135 321.338 133.05 320.977 132.881 320.671C132.718 320.358 132.471 320.117 132.139 319.948C131.807 319.779 131.396 319.694 130.908 319.694C130.452 319.694 130.052 319.772 129.707 319.929C129.368 320.085 129.102 320.29 128.906 320.544C128.717 320.798 128.623 321.071 128.623 321.364H126.816C126.816 320.987 126.914 320.612 127.109 320.241C127.305 319.87 127.585 319.535 127.949 319.235C128.32 318.929 128.763 318.688 129.277 318.513C129.798 318.33 130.378 318.239 131.016 318.239C131.784 318.239 132.461 318.369 133.047 318.63C133.639 318.89 134.102 319.284 134.434 319.811C134.772 320.332 134.941 320.987 134.941 321.774V326.696C134.941 327.048 134.971 327.422 135.029 327.819C135.094 328.216 135.189 328.558 135.312 328.845V329.001H133.428C133.337 328.793 133.265 328.516 133.213 328.171C133.161 327.819 133.135 327.494 133.135 327.194ZM133.447 322.595L133.467 323.864H131.641C131.126 323.864 130.667 323.907 130.264 323.991C129.86 324.069 129.521 324.19 129.248 324.352C128.975 324.515 128.766 324.72 128.623 324.968C128.48 325.209 128.408 325.492 128.408 325.817C128.408 326.149 128.483 326.452 128.633 326.726C128.783 326.999 129.007 327.217 129.307 327.38C129.613 327.536 129.987 327.614 130.43 327.614C130.983 327.614 131.471 327.497 131.895 327.263C132.318 327.028 132.653 326.742 132.9 326.403C133.154 326.065 133.291 325.736 133.311 325.417L134.082 326.286C134.036 326.56 133.913 326.862 133.711 327.194C133.509 327.526 133.239 327.845 132.9 328.151C132.568 328.451 132.171 328.701 131.709 328.903C131.253 329.099 130.739 329.196 130.166 329.196C129.45 329.196 128.822 329.056 128.281 328.776C127.747 328.496 127.331 328.122 127.031 327.653C126.738 327.178 126.592 326.647 126.592 326.061C126.592 325.495 126.702 324.997 126.924 324.567C127.145 324.131 127.464 323.77 127.881 323.483C128.298 323.19 128.799 322.969 129.385 322.819C129.971 322.67 130.625 322.595 131.348 322.595H133.447ZM142.207 318.435V319.821H136.494V318.435H142.207ZM138.428 315.866H140.234V326.384C140.234 326.742 140.29 327.012 140.4 327.194C140.511 327.377 140.654 327.497 140.83 327.556C141.006 327.614 141.195 327.643 141.396 327.643C141.546 327.643 141.702 327.63 141.865 327.604C142.035 327.572 142.161 327.546 142.246 327.526L142.256 329.001C142.113 329.046 141.924 329.089 141.689 329.128C141.462 329.173 141.185 329.196 140.859 329.196C140.417 329.196 140.01 329.108 139.639 328.933C139.268 328.757 138.971 328.464 138.75 328.054C138.535 327.637 138.428 327.077 138.428 326.374V315.866ZM148.711 329.196C147.975 329.196 147.308 329.073 146.709 328.825C146.117 328.571 145.605 328.216 145.176 327.761C144.753 327.305 144.427 326.765 144.199 326.14C143.971 325.515 143.857 324.831 143.857 324.089V323.679C143.857 322.819 143.984 322.054 144.238 321.384C144.492 320.707 144.837 320.134 145.273 319.665C145.71 319.196 146.204 318.841 146.758 318.601C147.311 318.36 147.884 318.239 148.477 318.239C149.232 318.239 149.883 318.369 150.43 318.63C150.983 318.89 151.436 319.255 151.787 319.724C152.139 320.186 152.399 320.733 152.568 321.364C152.738 321.989 152.822 322.673 152.822 323.415V324.226H144.932V322.751H151.016V322.614C150.99 322.145 150.892 321.69 150.723 321.247C150.56 320.804 150.299 320.44 149.941 320.153C149.583 319.867 149.095 319.724 148.477 319.724C148.066 319.724 147.689 319.811 147.344 319.987C146.999 320.157 146.702 320.41 146.455 320.749C146.208 321.088 146.016 321.501 145.879 321.989C145.742 322.477 145.674 323.041 145.674 323.679V324.089C145.674 324.59 145.742 325.062 145.879 325.505C146.022 325.941 146.227 326.325 146.494 326.657C146.768 326.989 147.096 327.25 147.48 327.438C147.871 327.627 148.314 327.722 148.809 327.722C149.447 327.722 149.987 327.591 150.43 327.331C150.872 327.071 151.26 326.722 151.592 326.286L152.686 327.155C152.458 327.5 152.168 327.829 151.816 328.142C151.465 328.454 151.032 328.708 150.518 328.903C150.01 329.099 149.408 329.196 148.711 329.196ZM161.777 318.435H163.418V328.776C163.418 329.707 163.229 330.502 162.852 331.159C162.474 331.817 161.947 332.315 161.27 332.653C160.599 332.998 159.824 333.171 158.945 333.171C158.581 333.171 158.151 333.112 157.656 332.995C157.168 332.884 156.686 332.692 156.211 332.419C155.742 332.152 155.348 331.791 155.029 331.335L155.977 330.261C156.419 330.795 156.882 331.166 157.363 331.374C157.852 331.582 158.333 331.686 158.809 331.686C159.382 331.686 159.876 331.579 160.293 331.364C160.71 331.149 161.032 330.83 161.26 330.407C161.494 329.99 161.611 329.476 161.611 328.864V320.759L161.777 318.435ZM154.502 323.835V323.63C154.502 322.823 154.596 322.09 154.785 321.433C154.98 320.768 155.257 320.199 155.615 319.724C155.98 319.248 156.419 318.884 156.934 318.63C157.448 318.369 158.027 318.239 158.672 318.239C159.336 318.239 159.915 318.356 160.41 318.591C160.911 318.819 161.335 319.154 161.68 319.597C162.031 320.033 162.308 320.56 162.51 321.179C162.712 321.797 162.852 322.497 162.93 323.278V324.177C162.858 324.951 162.718 325.648 162.51 326.267C162.308 326.885 162.031 327.412 161.68 327.849C161.335 328.285 160.911 328.62 160.41 328.854C159.909 329.082 159.323 329.196 158.652 329.196C158.021 329.196 157.448 329.063 156.934 328.796C156.426 328.529 155.99 328.155 155.625 327.673C155.26 327.191 154.98 326.625 154.785 325.974C154.596 325.316 154.502 324.603 154.502 323.835ZM156.309 323.63V323.835C156.309 324.362 156.361 324.857 156.465 325.319C156.576 325.782 156.742 326.188 156.963 326.54C157.191 326.892 157.48 327.168 157.832 327.37C158.184 327.565 158.604 327.663 159.092 327.663C159.691 327.663 160.186 327.536 160.576 327.282C160.967 327.028 161.276 326.693 161.504 326.276C161.738 325.86 161.921 325.407 162.051 324.919V322.565C161.979 322.207 161.868 321.862 161.719 321.53C161.576 321.192 161.387 320.892 161.152 320.632C160.924 320.365 160.641 320.153 160.303 319.997C159.964 319.841 159.567 319.763 159.111 319.763C158.617 319.763 158.19 319.867 157.832 320.075C157.48 320.277 157.191 320.557 156.963 320.915C156.742 321.267 156.576 321.677 156.465 322.145C156.361 322.608 156.309 323.102 156.309 323.63ZM165.684 323.835V323.61C165.684 322.849 165.794 322.142 166.016 321.491C166.237 320.834 166.556 320.264 166.973 319.782C167.389 319.294 167.894 318.916 168.486 318.649C169.079 318.376 169.743 318.239 170.479 318.239C171.221 318.239 171.888 318.376 172.48 318.649C173.079 318.916 173.587 319.294 174.004 319.782C174.427 320.264 174.749 320.834 174.971 321.491C175.192 322.142 175.303 322.849 175.303 323.61V323.835C175.303 324.597 175.192 325.303 174.971 325.954C174.749 326.605 174.427 327.175 174.004 327.663C173.587 328.145 173.083 328.522 172.49 328.796C171.904 329.063 171.24 329.196 170.498 329.196C169.756 329.196 169.089 329.063 168.496 328.796C167.904 328.522 167.396 328.145 166.973 327.663C166.556 327.175 166.237 326.605 166.016 325.954C165.794 325.303 165.684 324.597 165.684 323.835ZM167.49 323.61V323.835C167.49 324.362 167.552 324.86 167.676 325.329C167.799 325.791 167.985 326.201 168.232 326.56C168.486 326.918 168.802 327.201 169.18 327.409C169.557 327.611 169.997 327.712 170.498 327.712C170.993 327.712 171.426 327.611 171.797 327.409C172.174 327.201 172.487 326.918 172.734 326.56C172.982 326.201 173.167 325.791 173.291 325.329C173.421 324.86 173.486 324.362 173.486 323.835V323.61C173.486 323.089 173.421 322.598 173.291 322.136C173.167 321.667 172.979 321.254 172.725 320.895C172.477 320.531 172.165 320.244 171.787 320.036C171.416 319.828 170.98 319.724 170.479 319.724C169.984 319.724 169.548 319.828 169.17 320.036C168.799 320.244 168.486 320.531 168.232 320.895C167.985 321.254 167.799 321.667 167.676 322.136C167.552 322.598 167.49 323.089 167.49 323.61ZM179.375 320.095V329.001H177.568V318.435H179.326L179.375 320.095ZM182.676 318.376L182.666 320.056C182.516 320.023 182.373 320.004 182.236 319.997C182.106 319.984 181.956 319.977 181.787 319.977C181.37 319.977 181.003 320.043 180.684 320.173C180.365 320.303 180.094 320.485 179.873 320.72C179.652 320.954 179.476 321.234 179.346 321.56C179.222 321.879 179.141 322.23 179.102 322.614L178.594 322.907C178.594 322.269 178.656 321.67 178.779 321.11C178.91 320.55 179.108 320.056 179.375 319.626C179.642 319.19 179.98 318.851 180.391 318.61C180.807 318.363 181.302 318.239 181.875 318.239C182.005 318.239 182.155 318.255 182.324 318.288C182.493 318.314 182.611 318.343 182.676 318.376ZM187.49 327.907L190.43 318.435H192.363L188.125 330.632C188.027 330.892 187.897 331.172 187.734 331.472C187.578 331.778 187.376 332.067 187.129 332.341C186.882 332.614 186.582 332.836 186.23 333.005C185.885 333.181 185.472 333.268 184.99 333.268C184.847 333.268 184.665 333.249 184.443 333.21C184.222 333.171 184.066 333.138 183.975 333.112L183.965 331.647C184.017 331.654 184.098 331.66 184.209 331.667C184.326 331.68 184.408 331.686 184.453 331.686C184.863 331.686 185.212 331.631 185.498 331.52C185.785 331.416 186.025 331.237 186.221 330.983C186.423 330.736 186.595 330.394 186.738 329.958L187.49 327.907ZM185.332 318.435L188.076 326.638L188.545 328.542L187.246 329.206L183.359 318.435H185.332Z" fill="#686868"/>
<g clip-path="url(#clip1_17087_12992)">
<rect width="306" height="229.5" transform="translate(330 64.5007)" fill="#E3E3E3"/>
</g>
<path d="M452.734 324.479H454.609C454.512 325.378 454.255 326.182 453.838 326.892C453.421 327.601 452.832 328.164 452.07 328.581C451.309 328.991 450.358 329.196 449.219 329.196C448.385 329.196 447.627 329.04 446.943 328.727C446.266 328.415 445.684 327.972 445.195 327.399C444.707 326.82 444.329 326.127 444.062 325.319C443.802 324.505 443.672 323.601 443.672 322.604V321.188C443.672 320.192 443.802 319.291 444.062 318.483C444.329 317.67 444.71 316.973 445.205 316.393C445.706 315.814 446.309 315.368 447.012 315.056C447.715 314.743 448.506 314.587 449.385 314.587C450.459 314.587 451.367 314.789 452.109 315.192C452.852 315.596 453.428 316.156 453.838 316.872C454.255 317.582 454.512 318.405 454.609 319.343H452.734C452.643 318.679 452.474 318.109 452.227 317.634C451.979 317.152 451.628 316.781 451.172 316.52C450.716 316.26 450.12 316.13 449.385 316.13C448.753 316.13 448.197 316.25 447.715 316.491C447.24 316.732 446.839 317.074 446.514 317.517C446.195 317.959 445.954 318.49 445.791 319.108C445.628 319.727 445.547 320.414 445.547 321.169V322.604C445.547 323.301 445.618 323.955 445.762 324.567C445.911 325.179 446.136 325.716 446.436 326.179C446.735 326.641 447.116 327.005 447.578 327.272C448.04 327.533 448.587 327.663 449.219 327.663C450.02 327.663 450.658 327.536 451.133 327.282C451.608 327.028 451.966 326.664 452.207 326.188C452.454 325.713 452.63 325.143 452.734 324.479ZM463.135 327.194V321.755C463.135 321.338 463.05 320.977 462.881 320.671C462.718 320.358 462.471 320.117 462.139 319.948C461.807 319.779 461.396 319.694 460.908 319.694C460.452 319.694 460.052 319.772 459.707 319.929C459.368 320.085 459.102 320.29 458.906 320.544C458.717 320.798 458.623 321.071 458.623 321.364H456.816C456.816 320.987 456.914 320.612 457.109 320.241C457.305 319.87 457.585 319.535 457.949 319.235C458.32 318.929 458.763 318.688 459.277 318.513C459.798 318.33 460.378 318.239 461.016 318.239C461.784 318.239 462.461 318.369 463.047 318.63C463.639 318.89 464.102 319.284 464.434 319.811C464.772 320.332 464.941 320.987 464.941 321.774V326.696C464.941 327.048 464.971 327.422 465.029 327.819C465.094 328.216 465.189 328.558 465.312 328.845V329.001H463.428C463.337 328.793 463.265 328.516 463.213 328.171C463.161 327.819 463.135 327.494 463.135 327.194ZM463.447 322.595L463.467 323.864H461.641C461.126 323.864 460.667 323.907 460.264 323.991C459.86 324.069 459.521 324.19 459.248 324.352C458.975 324.515 458.766 324.72 458.623 324.968C458.48 325.209 458.408 325.492 458.408 325.817C458.408 326.149 458.483 326.452 458.633 326.726C458.783 326.999 459.007 327.217 459.307 327.38C459.613 327.536 459.987 327.614 460.43 327.614C460.983 327.614 461.471 327.497 461.895 327.263C462.318 327.028 462.653 326.742 462.9 326.403C463.154 326.065 463.291 325.736 463.311 325.417L464.082 326.286C464.036 326.56 463.913 326.862 463.711 327.194C463.509 327.526 463.239 327.845 462.9 328.151C462.568 328.451 462.171 328.701 461.709 328.903C461.253 329.099 460.739 329.196 460.166 329.196C459.45 329.196 458.822 329.056 458.281 328.776C457.747 328.496 457.331 328.122 457.031 327.653C456.738 327.178 456.592 326.647 456.592 326.061C456.592 325.495 456.702 324.997 456.924 324.567C457.145 324.131 457.464 323.77 457.881 323.483C458.298 323.19 458.799 322.969 459.385 322.819C459.971 322.67 460.625 322.595 461.348 322.595H463.447ZM472.207 318.435V319.821H466.494V318.435H472.207ZM468.428 315.866H470.234V326.384C470.234 326.742 470.29 327.012 470.4 327.194C470.511 327.377 470.654 327.497 470.83 327.556C471.006 327.614 471.195 327.643 471.396 327.643C471.546 327.643 471.702 327.63 471.865 327.604C472.035 327.572 472.161 327.546 472.246 327.526L472.256 329.001C472.113 329.046 471.924 329.089 471.689 329.128C471.462 329.173 471.185 329.196 470.859 329.196C470.417 329.196 470.01 329.108 469.639 328.933C469.268 328.757 468.971 328.464 468.75 328.054C468.535 327.637 468.428 327.077 468.428 326.374V315.866ZM478.711 329.196C477.975 329.196 477.308 329.073 476.709 328.825C476.117 328.571 475.605 328.216 475.176 327.761C474.753 327.305 474.427 326.765 474.199 326.14C473.971 325.515 473.857 324.831 473.857 324.089V323.679C473.857 322.819 473.984 322.054 474.238 321.384C474.492 320.707 474.837 320.134 475.273 319.665C475.71 319.196 476.204 318.841 476.758 318.601C477.311 318.36 477.884 318.239 478.477 318.239C479.232 318.239 479.883 318.369 480.43 318.63C480.983 318.89 481.436 319.255 481.787 319.724C482.139 320.186 482.399 320.733 482.568 321.364C482.738 321.989 482.822 322.673 482.822 323.415V324.226H474.932V322.751H481.016V322.614C480.99 322.145 480.892 321.69 480.723 321.247C480.56 320.804 480.299 320.44 479.941 320.153C479.583 319.867 479.095 319.724 478.477 319.724C478.066 319.724 477.689 319.811 477.344 319.987C476.999 320.157 476.702 320.41 476.455 320.749C476.208 321.088 476.016 321.501 475.879 321.989C475.742 322.477 475.674 323.041 475.674 323.679V324.089C475.674 324.59 475.742 325.062 475.879 325.505C476.022 325.941 476.227 326.325 476.494 326.657C476.768 326.989 477.096 327.25 477.48 327.438C477.871 327.627 478.314 327.722 478.809 327.722C479.447 327.722 479.987 327.591 480.43 327.331C480.872 327.071 481.26 326.722 481.592 326.286L482.686 327.155C482.458 327.5 482.168 327.829 481.816 328.142C481.465 328.454 481.032 328.708 480.518 328.903C480.01 329.099 479.408 329.196 478.711 329.196ZM491.777 318.435H493.418V328.776C493.418 329.707 493.229 330.502 492.852 331.159C492.474 331.817 491.947 332.315 491.27 332.653C490.599 332.998 489.824 333.171 488.945 333.171C488.581 333.171 488.151 333.112 487.656 332.995C487.168 332.884 486.686 332.692 486.211 332.419C485.742 332.152 485.348 331.791 485.029 331.335L485.977 330.261C486.419 330.795 486.882 331.166 487.363 331.374C487.852 331.582 488.333 331.686 488.809 331.686C489.382 331.686 489.876 331.579 490.293 331.364C490.71 331.149 491.032 330.83 491.26 330.407C491.494 329.99 491.611 329.476 491.611 328.864V320.759L491.777 318.435ZM484.502 323.835V323.63C484.502 322.823 484.596 322.09 484.785 321.433C484.98 320.768 485.257 320.199 485.615 319.724C485.98 319.248 486.419 318.884 486.934 318.63C487.448 318.369 488.027 318.239 488.672 318.239C489.336 318.239 489.915 318.356 490.41 318.591C490.911 318.819 491.335 319.154 491.68 319.597C492.031 320.033 492.308 320.56 492.51 321.179C492.712 321.797 492.852 322.497 492.93 323.278V324.177C492.858 324.951 492.718 325.648 492.51 326.267C492.308 326.885 492.031 327.412 491.68 327.849C491.335 328.285 490.911 328.62 490.41 328.854C489.909 329.082 489.323 329.196 488.652 329.196C488.021 329.196 487.448 329.063 486.934 328.796C486.426 328.529 485.99 328.155 485.625 327.673C485.26 327.191 484.98 326.625 484.785 325.974C484.596 325.316 484.502 324.603 484.502 323.835ZM486.309 323.63V323.835C486.309 324.362 486.361 324.857 486.465 325.319C486.576 325.782 486.742 326.188 486.963 326.54C487.191 326.892 487.48 327.168 487.832 327.37C488.184 327.565 488.604 327.663 489.092 327.663C489.691 327.663 490.186 327.536 490.576 327.282C490.967 327.028 491.276 326.693 491.504 326.276C491.738 325.86 491.921 325.407 492.051 324.919V322.565C491.979 322.207 491.868 321.862 491.719 321.53C491.576 321.192 491.387 320.892 491.152 320.632C490.924 320.365 490.641 320.153 490.303 319.997C489.964 319.841 489.567 319.763 489.111 319.763C488.617 319.763 488.19 319.867 487.832 320.075C487.48 320.277 487.191 320.557 486.963 320.915C486.742 321.267 486.576 321.677 486.465 322.145C486.361 322.608 486.309 323.102 486.309 323.63ZM495.684 323.835V323.61C495.684 322.849 495.794 322.142 496.016 321.491C496.237 320.834 496.556 320.264 496.973 319.782C497.389 319.294 497.894 318.916 498.486 318.649C499.079 318.376 499.743 318.239 500.479 318.239C501.221 318.239 501.888 318.376 502.48 318.649C503.079 318.916 503.587 319.294 504.004 319.782C504.427 320.264 504.749 320.834 504.971 321.491C505.192 322.142 505.303 322.849 505.303 323.61V323.835C505.303 324.597 505.192 325.303 504.971 325.954C504.749 326.605 504.427 327.175 504.004 327.663C503.587 328.145 503.083 328.522 502.49 328.796C501.904 329.063 501.24 329.196 500.498 329.196C499.756 329.196 499.089 329.063 498.496 328.796C497.904 328.522 497.396 328.145 496.973 327.663C496.556 327.175 496.237 326.605 496.016 325.954C495.794 325.303 495.684 324.597 495.684 323.835ZM497.49 323.61V323.835C497.49 324.362 497.552 324.86 497.676 325.329C497.799 325.791 497.985 326.201 498.232 326.56C498.486 326.918 498.802 327.201 499.18 327.409C499.557 327.611 499.997 327.712 500.498 327.712C500.993 327.712 501.426 327.611 501.797 327.409C502.174 327.201 502.487 326.918 502.734 326.56C502.982 326.201 503.167 325.791 503.291 325.329C503.421 324.86 503.486 324.362 503.486 323.835V323.61C503.486 323.089 503.421 322.598 503.291 322.136C503.167 321.667 502.979 321.254 502.725 320.895C502.477 320.531 502.165 320.244 501.787 320.036C501.416 319.828 500.98 319.724 500.479 319.724C499.984 319.724 499.548 319.828 499.17 320.036C498.799 320.244 498.486 320.531 498.232 320.895C497.985 321.254 497.799 321.667 497.676 322.136C497.552 322.598 497.49 323.089 497.49 323.61ZM509.375 320.095V329.001H507.568V318.435H509.326L509.375 320.095ZM512.676 318.376L512.666 320.056C512.516 320.023 512.373 320.004 512.236 319.997C512.106 319.984 511.956 319.977 511.787 319.977C511.37 319.977 511.003 320.043 510.684 320.173C510.365 320.303 510.094 320.485 509.873 320.72C509.652 320.954 509.476 321.234 509.346 321.56C509.222 321.879 509.141 322.23 509.102 322.614L508.594 322.907C508.594 322.269 508.656 321.67 508.779 321.11C508.91 320.55 509.108 320.056 509.375 319.626C509.642 319.19 509.98 318.851 510.391 318.61C510.807 318.363 511.302 318.239 511.875 318.239C512.005 318.239 512.155 318.255 512.324 318.288C512.493 318.314 512.611 318.343 512.676 318.376ZM517.49 327.907L520.43 318.435H522.363L518.125 330.632C518.027 330.892 517.897 331.172 517.734 331.472C517.578 331.778 517.376 332.067 517.129 332.341C516.882 332.614 516.582 332.836 516.23 333.005C515.885 333.181 515.472 333.268 514.99 333.268C514.847 333.268 514.665 333.249 514.443 333.21C514.222 333.171 514.066 333.138 513.975 333.112L513.965 331.647C514.017 331.654 514.098 331.66 514.209 331.667C514.326 331.68 514.408 331.686 514.453 331.686C514.863 331.686 515.212 331.631 515.498 331.52C515.785 331.416 516.025 331.237 516.221 330.983C516.423 330.736 516.595 330.394 516.738 329.958L517.49 327.907ZM515.332 318.435L518.076 326.638L518.545 328.542L517.246 329.206L513.359 318.435H515.332Z" fill="#686868"/>
<g clip-path="url(#clip2_17087_12992)">
<rect width="306" height="229.5" transform="translate(660 64.5007)" fill="#E3E3E3"/>
</g>
<path d="M782.734 324.479H784.609C784.512 325.378 784.255 326.182 783.838 326.892C783.421 327.601 782.832 328.164 782.07 328.581C781.309 328.991 780.358 329.196 779.219 329.196C778.385 329.196 777.627 329.04 776.943 328.727C776.266 328.415 775.684 327.972 775.195 327.399C774.707 326.82 774.329 326.127 774.062 325.319C773.802 324.505 773.672 323.601 773.672 322.604V321.188C773.672 320.192 773.802 319.291 774.062 318.483C774.329 317.67 774.71 316.973 775.205 316.393C775.706 315.814 776.309 315.368 777.012 315.056C777.715 314.743 778.506 314.587 779.385 314.587C780.459 314.587 781.367 314.789 782.109 315.192C782.852 315.596 783.428 316.156 783.838 316.872C784.255 317.582 784.512 318.405 784.609 319.343H782.734C782.643 318.679 782.474 318.109 782.227 317.634C781.979 317.152 781.628 316.781 781.172 316.52C780.716 316.26 780.12 316.13 779.385 316.13C778.753 316.13 778.197 316.25 777.715 316.491C777.24 316.732 776.839 317.074 776.514 317.517C776.195 317.959 775.954 318.49 775.791 319.108C775.628 319.727 775.547 320.414 775.547 321.169V322.604C775.547 323.301 775.618 323.955 775.762 324.567C775.911 325.179 776.136 325.716 776.436 326.179C776.735 326.641 777.116 327.005 777.578 327.272C778.04 327.533 778.587 327.663 779.219 327.663C780.02 327.663 780.658 327.536 781.133 327.282C781.608 327.028 781.966 326.664 782.207 326.188C782.454 325.713 782.63 325.143 782.734 324.479ZM793.135 327.194V321.755C793.135 321.338 793.05 320.977 792.881 320.671C792.718 320.358 792.471 320.117 792.139 319.948C791.807 319.779 791.396 319.694 790.908 319.694C790.452 319.694 790.052 319.772 789.707 319.929C789.368 320.085 789.102 320.29 788.906 320.544C788.717 320.798 788.623 321.071 788.623 321.364H786.816C786.816 320.987 786.914 320.612 787.109 320.241C787.305 319.87 787.585 319.535 787.949 319.235C788.32 318.929 788.763 318.688 789.277 318.513C789.798 318.33 790.378 318.239 791.016 318.239C791.784 318.239 792.461 318.369 793.047 318.63C793.639 318.89 794.102 319.284 794.434 319.811C794.772 320.332 794.941 320.987 794.941 321.774V326.696C794.941 327.048 794.971 327.422 795.029 327.819C795.094 328.216 795.189 328.558 795.312 328.845V329.001H793.428C793.337 328.793 793.265 328.516 793.213 328.171C793.161 327.819 793.135 327.494 793.135 327.194ZM793.447 322.595L793.467 323.864H791.641C791.126 323.864 790.667 323.907 790.264 323.991C789.86 324.069 789.521 324.19 789.248 324.352C788.975 324.515 788.766 324.72 788.623 324.968C788.48 325.209 788.408 325.492 788.408 325.817C788.408 326.149 788.483 326.452 788.633 326.726C788.783 326.999 789.007 327.217 789.307 327.38C789.613 327.536 789.987 327.614 790.43 327.614C790.983 327.614 791.471 327.497 791.895 327.263C792.318 327.028 792.653 326.742 792.9 326.403C793.154 326.065 793.291 325.736 793.311 325.417L794.082 326.286C794.036 326.56 793.913 326.862 793.711 327.194C793.509 327.526 793.239 327.845 792.9 328.151C792.568 328.451 792.171 328.701 791.709 328.903C791.253 329.099 790.739 329.196 790.166 329.196C789.45 329.196 788.822 329.056 788.281 328.776C787.747 328.496 787.331 328.122 787.031 327.653C786.738 327.178 786.592 326.647 786.592 326.061C786.592 325.495 786.702 324.997 786.924 324.567C787.145 324.131 787.464 323.77 787.881 323.483C788.298 323.19 788.799 322.969 789.385 322.819C789.971 322.67 790.625 322.595 791.348 322.595H793.447ZM802.207 318.435V319.821H796.494V318.435H802.207ZM798.428 315.866H800.234V326.384C800.234 326.742 800.29 327.012 800.4 327.194C800.511 327.377 800.654 327.497 800.83 327.556C801.006 327.614 801.195 327.643 801.396 327.643C801.546 327.643 801.702 327.63 801.865 327.604C802.035 327.572 802.161 327.546 802.246 327.526L802.256 329.001C802.113 329.046 801.924 329.089 801.689 329.128C801.462 329.173 801.185 329.196 800.859 329.196C800.417 329.196 800.01 329.108 799.639 328.933C799.268 328.757 798.971 328.464 798.75 328.054C798.535 327.637 798.428 327.077 798.428 326.374V315.866ZM808.711 329.196C807.975 329.196 807.308 329.073 806.709 328.825C806.117 328.571 805.605 328.216 805.176 327.761C804.753 327.305 804.427 326.765 804.199 326.14C803.971 325.515 803.857 324.831 803.857 324.089V323.679C803.857 322.819 803.984 322.054 804.238 321.384C804.492 320.707 804.837 320.134 805.273 319.665C805.71 319.196 806.204 318.841 806.758 318.601C807.311 318.36 807.884 318.239 808.477 318.239C809.232 318.239 809.883 318.369 810.43 318.63C810.983 318.89 811.436 319.255 811.787 319.724C812.139 320.186 812.399 320.733 812.568 321.364C812.738 321.989 812.822 322.673 812.822 323.415V324.226H804.932V322.751H811.016V322.614C810.99 322.145 810.892 321.69 810.723 321.247C810.56 320.804 810.299 320.44 809.941 320.153C809.583 319.867 809.095 319.724 808.477 319.724C808.066 319.724 807.689 319.811 807.344 319.987C806.999 320.157 806.702 320.41 806.455 320.749C806.208 321.088 806.016 321.501 805.879 321.989C805.742 322.477 805.674 323.041 805.674 323.679V324.089C805.674 324.59 805.742 325.062 805.879 325.505C806.022 325.941 806.227 326.325 806.494 326.657C806.768 326.989 807.096 327.25 807.48 327.438C807.871 327.627 808.314 327.722 808.809 327.722C809.447 327.722 809.987 327.591 810.43 327.331C810.872 327.071 811.26 326.722 811.592 326.286L812.686 327.155C812.458 327.5 812.168 327.829 811.816 328.142C811.465 328.454 811.032 328.708 810.518 328.903C810.01 329.099 809.408 329.196 808.711 329.196ZM821.777 318.435H823.418V328.776C823.418 329.707 823.229 330.502 822.852 331.159C822.474 331.817 821.947 332.315 821.27 332.653C820.599 332.998 819.824 333.171 818.945 333.171C818.581 333.171 818.151 333.112 817.656 332.995C817.168 332.884 816.686 332.692 816.211 332.419C815.742 332.152 815.348 331.791 815.029 331.335L815.977 330.261C816.419 330.795 816.882 331.166 817.363 331.374C817.852 331.582 818.333 331.686 818.809 331.686C819.382 331.686 819.876 331.579 820.293 331.364C820.71 331.149 821.032 330.83 821.26 330.407C821.494 329.99 821.611 329.476 821.611 328.864V320.759L821.777 318.435ZM814.502 323.835V323.63C814.502 322.823 814.596 322.09 814.785 321.433C814.98 320.768 815.257 320.199 815.615 319.724C815.98 319.248 816.419 318.884 816.934 318.63C817.448 318.369 818.027 318.239 818.672 318.239C819.336 318.239 819.915 318.356 820.41 318.591C820.911 318.819 821.335 319.154 821.68 319.597C822.031 320.033 822.308 320.56 822.51 321.179C822.712 321.797 822.852 322.497 822.93 323.278V324.177C822.858 324.951 822.718 325.648 822.51 326.267C822.308 326.885 822.031 327.412 821.68 327.849C821.335 328.285 820.911 328.62 820.41 328.854C819.909 329.082 819.323 329.196 818.652 329.196C818.021 329.196 817.448 329.063 816.934 328.796C816.426 328.529 815.99 328.155 815.625 327.673C815.26 327.191 814.98 326.625 814.785 325.974C814.596 325.316 814.502 324.603 814.502 323.835ZM816.309 323.63V323.835C816.309 324.362 816.361 324.857 816.465 325.319C816.576 325.782 816.742 326.188 816.963 326.54C817.191 326.892 817.48 327.168 817.832 327.37C818.184 327.565 818.604 327.663 819.092 327.663C819.691 327.663 820.186 327.536 820.576 327.282C820.967 327.028 821.276 326.693 821.504 326.276C821.738 325.86 821.921 325.407 822.051 324.919V322.565C821.979 322.207 821.868 321.862 821.719 321.53C821.576 321.192 821.387 320.892 821.152 320.632C820.924 320.365 820.641 320.153 820.303 319.997C819.964 319.841 819.567 319.763 819.111 319.763C818.617 319.763 818.19 319.867 817.832 320.075C817.48 320.277 817.191 320.557 816.963 320.915C816.742 321.267 816.576 321.677 816.465 322.145C816.361 322.608 816.309 323.102 816.309 323.63ZM825.684 323.835V323.61C825.684 322.849 825.794 322.142 826.016 321.491C826.237 320.834 826.556 320.264 826.973 319.782C827.389 319.294 827.894 318.916 828.486 318.649C829.079 318.376 829.743 318.239 830.479 318.239C831.221 318.239 831.888 318.376 832.48 318.649C833.079 318.916 833.587 319.294 834.004 319.782C834.427 320.264 834.749 320.834 834.971 321.491C835.192 322.142 835.303 322.849 835.303 323.61V323.835C835.303 324.597 835.192 325.303 834.971 325.954C834.749 326.605 834.427 327.175 834.004 327.663C833.587 328.145 833.083 328.522 832.49 328.796C831.904 329.063 831.24 329.196 830.498 329.196C829.756 329.196 829.089 329.063 828.496 328.796C827.904 328.522 827.396 328.145 826.973 327.663C826.556 327.175 826.237 326.605 826.016 325.954C825.794 325.303 825.684 324.597 825.684 323.835ZM827.49 323.61V323.835C827.49 324.362 827.552 324.86 827.676 325.329C827.799 325.791 827.985 326.201 828.232 326.56C828.486 326.918 828.802 327.201 829.18 327.409C829.557 327.611 829.997 327.712 830.498 327.712C830.993 327.712 831.426 327.611 831.797 327.409C832.174 327.201 832.487 326.918 832.734 326.56C832.982 326.201 833.167 325.791 833.291 325.329C833.421 324.86 833.486 324.362 833.486 323.835V323.61C833.486 323.089 833.421 322.598 833.291 322.136C833.167 321.667 832.979 321.254 832.725 320.895C832.477 320.531 832.165 320.244 831.787 320.036C831.416 319.828 830.98 319.724 830.479 319.724C829.984 319.724 829.548 319.828 829.17 320.036C828.799 320.244 828.486 320.531 828.232 320.895C827.985 321.254 827.799 321.667 827.676 322.136C827.552 322.598 827.49 323.089 827.49 323.61ZM839.375 320.095V329.001H837.568V318.435H839.326L839.375 320.095ZM842.676 318.376L842.666 320.056C842.516 320.023 842.373 320.004 842.236 319.997C842.106 319.984 841.956 319.977 841.787 319.977C841.37 319.977 841.003 320.043 840.684 320.173C840.365 320.303 840.094 320.485 839.873 320.72C839.652 320.954 839.476 321.234 839.346 321.56C839.222 321.879 839.141 322.23 839.102 322.614L838.594 322.907C838.594 322.269 838.656 321.67 838.779 321.11C838.91 320.55 839.108 320.056 839.375 319.626C839.642 319.19 839.98 318.851 840.391 318.61C840.807 318.363 841.302 318.239 841.875 318.239C842.005 318.239 842.155 318.255 842.324 318.288C842.493 318.314 842.611 318.343 842.676 318.376ZM847.49 327.907L850.43 318.435H852.363L848.125 330.632C848.027 330.892 847.897 331.172 847.734 331.472C847.578 331.778 847.376 332.067 847.129 332.341C846.882 332.614 846.582 332.836 846.23 333.005C845.885 333.181 845.472 333.268 844.99 333.268C844.847 333.268 844.665 333.249 844.443 333.21C844.222 333.171 844.066 333.138 843.975 333.112L843.965 331.647C844.017 331.654 844.098 331.66 844.209 331.667C844.326 331.68 844.408 331.686 844.453 331.686C844.863 331.686 845.212 331.631 845.498 331.52C845.785 331.416 846.025 331.237 846.221 330.983C846.423 330.736 846.595 330.394 846.738 329.958L847.49 327.907ZM845.332 318.435L848.076 326.638L848.545 328.542L847.246 329.206L843.359 318.435H845.332Z" fill="#686868"/>
<g clip-path="url(#clip3_17087_12992)">
<rect width="306" height="229.5" transform="translate(990 64.5007)" fill="#E3E3E3"/>
</g>
<path d="M1112.73 324.479H1114.61C1114.51 325.378 1114.25 326.182 1113.84 326.892C1113.42 327.601 1112.83 328.164 1112.07 328.581C1111.31 328.991 1110.36 329.196 1109.22 329.196C1108.39 329.196 1107.63 329.04 1106.94 328.727C1106.27 328.415 1105.68 327.972 1105.2 327.399C1104.71 326.82 1104.33 326.127 1104.06 325.319C1103.8 324.505 1103.67 323.601 1103.67 322.604V321.188C1103.67 320.192 1103.8 319.291 1104.06 318.483C1104.33 317.67 1104.71 316.973 1105.21 316.393C1105.71 315.814 1106.31 315.368 1107.01 315.056C1107.71 314.743 1108.51 314.587 1109.38 314.587C1110.46 314.587 1111.37 314.789 1112.11 315.192C1112.85 315.596 1113.43 316.156 1113.84 316.872C1114.25 317.582 1114.51 318.405 1114.61 319.343H1112.73C1112.64 318.679 1112.47 318.109 1112.23 317.634C1111.98 317.152 1111.63 316.781 1111.17 316.52C1110.72 316.26 1110.12 316.13 1109.38 316.13C1108.75 316.13 1108.2 316.25 1107.71 316.491C1107.24 316.732 1106.84 317.074 1106.51 317.517C1106.19 317.959 1105.95 318.49 1105.79 319.108C1105.63 319.727 1105.55 320.414 1105.55 321.169V322.604C1105.55 323.301 1105.62 323.955 1105.76 324.567C1105.91 325.179 1106.14 325.716 1106.44 326.179C1106.74 326.641 1107.12 327.005 1107.58 327.272C1108.04 327.533 1108.59 327.663 1109.22 327.663C1110.02 327.663 1110.66 327.536 1111.13 327.282C1111.61 327.028 1111.97 326.664 1112.21 326.188C1112.45 325.713 1112.63 325.143 1112.73 324.479ZM1123.13 327.194V321.755C1123.13 321.338 1123.05 320.977 1122.88 320.671C1122.72 320.358 1122.47 320.117 1122.14 319.948C1121.81 319.779 1121.4 319.694 1120.91 319.694C1120.45 319.694 1120.05 319.772 1119.71 319.929C1119.37 320.085 1119.1 320.29 1118.91 320.544C1118.72 320.798 1118.62 321.071 1118.62 321.364H1116.82C1116.82 320.987 1116.91 320.612 1117.11 320.241C1117.3 319.87 1117.58 319.535 1117.95 319.235C1118.32 318.929 1118.76 318.688 1119.28 318.513C1119.8 318.33 1120.38 318.239 1121.02 318.239C1121.78 318.239 1122.46 318.369 1123.05 318.63C1123.64 318.89 1124.1 319.284 1124.43 319.811C1124.77 320.332 1124.94 320.987 1124.94 321.774V326.696C1124.94 327.048 1124.97 327.422 1125.03 327.819C1125.09 328.216 1125.19 328.558 1125.31 328.845V329.001H1123.43C1123.34 328.793 1123.26 328.516 1123.21 328.171C1123.16 327.819 1123.13 327.494 1123.13 327.194ZM1123.45 322.595L1123.47 323.864H1121.64C1121.13 323.864 1120.67 323.907 1120.26 323.991C1119.86 324.069 1119.52 324.19 1119.25 324.352C1118.97 324.515 1118.77 324.72 1118.62 324.968C1118.48 325.209 1118.41 325.492 1118.41 325.817C1118.41 326.149 1118.48 326.452 1118.63 326.726C1118.78 326.999 1119.01 327.217 1119.31 327.38C1119.61 327.536 1119.99 327.614 1120.43 327.614C1120.98 327.614 1121.47 327.497 1121.89 327.263C1122.32 327.028 1122.65 326.742 1122.9 326.403C1123.15 326.065 1123.29 325.736 1123.31 325.417L1124.08 326.286C1124.04 326.56 1123.91 326.862 1123.71 327.194C1123.51 327.526 1123.24 327.845 1122.9 328.151C1122.57 328.451 1122.17 328.701 1121.71 328.903C1121.25 329.099 1120.74 329.196 1120.17 329.196C1119.45 329.196 1118.82 329.056 1118.28 328.776C1117.75 328.496 1117.33 328.122 1117.03 327.653C1116.74 327.178 1116.59 326.647 1116.59 326.061C1116.59 325.495 1116.7 324.997 1116.92 324.567C1117.15 324.131 1117.46 323.77 1117.88 323.483C1118.3 323.19 1118.8 322.969 1119.38 322.819C1119.97 322.67 1120.62 322.595 1121.35 322.595H1123.45ZM1132.21 318.435V319.821H1126.49V318.435H1132.21ZM1128.43 315.866H1130.23V326.384C1130.23 326.742 1130.29 327.012 1130.4 327.194C1130.51 327.377 1130.65 327.497 1130.83 327.556C1131.01 327.614 1131.19 327.643 1131.4 327.643C1131.55 327.643 1131.7 327.63 1131.87 327.604C1132.03 327.572 1132.16 327.546 1132.25 327.526L1132.26 329.001C1132.11 329.046 1131.92 329.089 1131.69 329.128C1131.46 329.173 1131.18 329.196 1130.86 329.196C1130.42 329.196 1130.01 329.108 1129.64 328.933C1129.27 328.757 1128.97 328.464 1128.75 328.054C1128.54 327.637 1128.43 327.077 1128.43 326.374V315.866ZM1138.71 329.196C1137.98 329.196 1137.31 329.073 1136.71 328.825C1136.12 328.571 1135.61 328.216 1135.18 327.761C1134.75 327.305 1134.43 326.765 1134.2 326.14C1133.97 325.515 1133.86 324.831 1133.86 324.089V323.679C1133.86 322.819 1133.98 322.054 1134.24 321.384C1134.49 320.707 1134.84 320.134 1135.27 319.665C1135.71 319.196 1136.2 318.841 1136.76 318.601C1137.31 318.36 1137.88 318.239 1138.48 318.239C1139.23 318.239 1139.88 318.369 1140.43 318.63C1140.98 318.89 1141.44 319.255 1141.79 319.724C1142.14 320.186 1142.4 320.733 1142.57 321.364C1142.74 321.989 1142.82 322.673 1142.82 323.415V324.226H1134.93V322.751H1141.02V322.614C1140.99 322.145 1140.89 321.69 1140.72 321.247C1140.56 320.804 1140.3 320.44 1139.94 320.153C1139.58 319.867 1139.1 319.724 1138.48 319.724C1138.07 319.724 1137.69 319.811 1137.34 319.987C1137 320.157 1136.7 320.41 1136.46 320.749C1136.21 321.088 1136.02 321.501 1135.88 321.989C1135.74 322.477 1135.67 323.041 1135.67 323.679V324.089C1135.67 324.59 1135.74 325.062 1135.88 325.505C1136.02 325.941 1136.23 326.325 1136.49 326.657C1136.77 326.989 1137.1 327.25 1137.48 327.438C1137.87 327.627 1138.31 327.722 1138.81 327.722C1139.45 327.722 1139.99 327.591 1140.43 327.331C1140.87 327.071 1141.26 326.722 1141.59 326.286L1142.69 327.155C1142.46 327.5 1142.17 327.829 1141.82 328.142C1141.46 328.454 1141.03 328.708 1140.52 328.903C1140.01 329.099 1139.41 329.196 1138.71 329.196ZM1151.78 318.435H1153.42V328.776C1153.42 329.707 1153.23 330.502 1152.85 331.159C1152.47 331.817 1151.95 332.315 1151.27 332.653C1150.6 332.998 1149.82 333.171 1148.95 333.171C1148.58 333.171 1148.15 333.112 1147.66 332.995C1147.17 332.884 1146.69 332.692 1146.21 332.419C1145.74 332.152 1145.35 331.791 1145.03 331.335L1145.98 330.261C1146.42 330.795 1146.88 331.166 1147.36 331.374C1147.85 331.582 1148.33 331.686 1148.81 331.686C1149.38 331.686 1149.88 331.579 1150.29 331.364C1150.71 331.149 1151.03 330.83 1151.26 330.407C1151.49 329.99 1151.61 329.476 1151.61 328.864V320.759L1151.78 318.435ZM1144.5 323.835V323.63C1144.5 322.823 1144.6 322.09 1144.79 321.433C1144.98 320.768 1145.26 320.199 1145.62 319.724C1145.98 319.248 1146.42 318.884 1146.93 318.63C1147.45 318.369 1148.03 318.239 1148.67 318.239C1149.34 318.239 1149.92 318.356 1150.41 318.591C1150.91 318.819 1151.33 319.154 1151.68 319.597C1152.03 320.033 1152.31 320.56 1152.51 321.179C1152.71 321.797 1152.85 322.497 1152.93 323.278V324.177C1152.86 324.951 1152.72 325.648 1152.51 326.267C1152.31 326.885 1152.03 327.412 1151.68 327.849C1151.33 328.285 1150.91 328.62 1150.41 328.854C1149.91 329.082 1149.32 329.196 1148.65 329.196C1148.02 329.196 1147.45 329.063 1146.93 328.796C1146.43 328.529 1145.99 328.155 1145.62 327.673C1145.26 327.191 1144.98 326.625 1144.79 325.974C1144.6 325.316 1144.5 324.603 1144.5 323.835ZM1146.31 323.63V323.835C1146.31 324.362 1146.36 324.857 1146.46 325.319C1146.58 325.782 1146.74 326.188 1146.96 326.54C1147.19 326.892 1147.48 327.168 1147.83 327.37C1148.18 327.565 1148.6 327.663 1149.09 327.663C1149.69 327.663 1150.19 327.536 1150.58 327.282C1150.97 327.028 1151.28 326.693 1151.5 326.276C1151.74 325.86 1151.92 325.407 1152.05 324.919V322.565C1151.98 322.207 1151.87 321.862 1151.72 321.53C1151.58 321.192 1151.39 320.892 1151.15 320.632C1150.92 320.365 1150.64 320.153 1150.3 319.997C1149.96 319.841 1149.57 319.763 1149.11 319.763C1148.62 319.763 1148.19 319.867 1147.83 320.075C1147.48 320.277 1147.19 320.557 1146.96 320.915C1146.74 321.267 1146.58 321.677 1146.46 322.145C1146.36 322.608 1146.31 323.102 1146.31 323.63ZM1155.68 323.835V323.61C1155.68 322.849 1155.79 322.142 1156.02 321.491C1156.24 320.834 1156.56 320.264 1156.97 319.782C1157.39 319.294 1157.89 318.916 1158.49 318.649C1159.08 318.376 1159.74 318.239 1160.48 318.239C1161.22 318.239 1161.89 318.376 1162.48 318.649C1163.08 318.916 1163.59 319.294 1164 319.782C1164.43 320.264 1164.75 320.834 1164.97 321.491C1165.19 322.142 1165.3 322.849 1165.3 323.61V323.835C1165.3 324.597 1165.19 325.303 1164.97 325.954C1164.75 326.605 1164.43 327.175 1164 327.663C1163.59 328.145 1163.08 328.522 1162.49 328.796C1161.9 329.063 1161.24 329.196 1160.5 329.196C1159.76 329.196 1159.09 329.063 1158.5 328.796C1157.9 328.522 1157.4 328.145 1156.97 327.663C1156.56 327.175 1156.24 326.605 1156.02 325.954C1155.79 325.303 1155.68 324.597 1155.68 323.835ZM1157.49 323.61V323.835C1157.49 324.362 1157.55 324.86 1157.68 325.329C1157.8 325.791 1157.99 326.201 1158.23 326.56C1158.49 326.918 1158.8 327.201 1159.18 327.409C1159.56 327.611 1160 327.712 1160.5 327.712C1160.99 327.712 1161.43 327.611 1161.8 327.409C1162.17 327.201 1162.49 326.918 1162.73 326.56C1162.98 326.201 1163.17 325.791 1163.29 325.329C1163.42 324.86 1163.49 324.362 1163.49 323.835V323.61C1163.49 323.089 1163.42 322.598 1163.29 322.136C1163.17 321.667 1162.98 321.254 1162.72 320.895C1162.48 320.531 1162.16 320.244 1161.79 320.036C1161.42 319.828 1160.98 319.724 1160.48 319.724C1159.98 319.724 1159.55 319.828 1159.17 320.036C1158.8 320.244 1158.49 320.531 1158.23 320.895C1157.99 321.254 1157.8 321.667 1157.68 322.136C1157.55 322.598 1157.49 323.089 1157.49 323.61ZM1169.38 320.095V329.001H1167.57V318.435H1169.33L1169.38 320.095ZM1172.68 318.376L1172.67 320.056C1172.52 320.023 1172.37 320.004 1172.24 319.997C1172.11 319.984 1171.96 319.977 1171.79 319.977C1171.37 319.977 1171 320.043 1170.68 320.173C1170.36 320.303 1170.09 320.485 1169.87 320.72C1169.65 320.954 1169.48 321.234 1169.35 321.56C1169.22 321.879 1169.14 322.23 1169.1 322.614L1168.59 322.907C1168.59 322.269 1168.66 321.67 1168.78 321.11C1168.91 320.55 1169.11 320.056 1169.38 319.626C1169.64 319.19 1169.98 318.851 1170.39 318.61C1170.81 318.363 1171.3 318.239 1171.88 318.239C1172.01 318.239 1172.15 318.255 1172.32 318.288C1172.49 318.314 1172.61 318.343 1172.68 318.376ZM1177.49 327.907L1180.43 318.435H1182.36L1178.12 330.632C1178.03 330.892 1177.9 331.172 1177.73 331.472C1177.58 331.778 1177.38 332.067 1177.13 332.341C1176.88 332.614 1176.58 332.836 1176.23 333.005C1175.89 333.181 1175.47 333.268 1174.99 333.268C1174.85 333.268 1174.66 333.249 1174.44 333.21C1174.22 333.171 1174.07 333.138 1173.97 333.112L1173.96 331.647C1174.02 331.654 1174.1 331.66 1174.21 331.667C1174.33 331.68 1174.41 331.686 1174.45 331.686C1174.86 331.686 1175.21 331.631 1175.5 331.52C1175.78 331.416 1176.03 331.237 1176.22 330.983C1176.42 330.736 1176.6 330.394 1176.74 329.958L1177.49 327.907ZM1175.33 318.435L1178.08 326.638L1178.54 328.542L1177.25 329.206L1173.36 318.435H1175.33Z" fill="#686868"/>
<circle cx="588" cy="370.001" r="4" fill="#026CD1"/>
<circle cx="612" cy="370.001" r="4" fill="#C9C9C9"/>
<circle cx="636" cy="370.001" r="4" fill="#C9C9C9"/>
<circle cx="660" cy="370.001" r="4" fill="#C9C9C9"/>
<circle cx="684" cy="370.001" r="4" fill="#C9C9C9"/>
<circle cx="708" cy="370.001" r="4" fill="#C9C9C9"/>
<defs>
<clipPath id="clip0_17087_12992">
<rect width="306" height="229.5" fill="white" transform="translate(0 64.5007)"/>
</clipPath>
<clipPath id="clip1_17087_12992">
<rect width="306" height="229.5" fill="white" transform="translate(330 64.5007)"/>
</clipPath>
<clipPath id="clip2_17087_12992">
<rect width="306" height="229.5" fill="white" transform="translate(660 64.5007)"/>
</clipPath>
<clipPath id="clip3_17087_12992">
<rect width="306" height="229.5" fill="white" transform="translate(990 64.5007)"/>
</clipPath>
</defs>
</svg>
