<svg width="328" height="391" viewBox="0 0 328 391" fill="none" xmlns="http://www.w3.org/2000/svg">
<path d="M8.67188 19.7817C8.67188 19.5278 8.63281 19.3 8.55469 19.0981C8.48307 18.8898 8.34635 18.701 8.14453 18.5317C7.94271 18.356 7.65951 18.1834 7.29492 18.0142C6.93034 17.8449 6.45833 17.6691 5.87891 17.4868C5.23438 17.2785 4.6224 17.0441 4.04297 16.7837C3.47005 16.5233 2.96224 16.2205 2.51953 15.8755C2.08333 15.5239 1.73828 15.117 1.48438 14.6548C1.23698 14.1925 1.11328 13.6554 1.11328 13.0435C1.11328 12.451 1.24349 11.9139 1.50391 11.4321C1.76432 10.9438 2.12891 10.5272 2.59766 10.1821C3.06641 9.83057 3.61979 9.56038 4.25781 9.37158C4.90234 9.18278 5.60872 9.08838 6.37695 9.08838C7.42513 9.08838 8.33984 9.27718 9.12109 9.65479C9.90234 10.0324 10.5078 10.55 10.9375 11.2075C11.3737 11.8651 11.5918 12.617 11.5918 13.4634H8.68164C8.68164 13.0467 8.59375 12.6821 8.41797 12.3696C8.2487 12.0506 7.98828 11.8 7.63672 11.6177C7.29167 11.4354 6.85547 11.3442 6.32812 11.3442C5.82031 11.3442 5.39714 11.4224 5.05859 11.5786C4.72005 11.7284 4.46615 11.9334 4.29688 12.1938C4.1276 12.4478 4.04297 12.7342 4.04297 13.0532C4.04297 13.2941 4.10156 13.5122 4.21875 13.7075C4.34245 13.9028 4.52474 14.0851 4.76562 14.2544C5.00651 14.4237 5.30273 14.5832 5.6543 14.7329C6.00586 14.8826 6.41276 15.0291 6.875 15.1724C7.64974 15.4067 8.33008 15.6704 8.91602 15.9634C9.50846 16.2563 10.0033 16.5851 10.4004 16.9497C10.7975 17.3143 11.097 17.7277 11.2988 18.1899C11.5007 18.6522 11.6016 19.1763 11.6016 19.7622C11.6016 20.3807 11.4811 20.9341 11.2402 21.4224C10.9993 21.9106 10.651 22.3241 10.1953 22.6626C9.73958 23.0011 9.19596 23.2583 8.56445 23.4341C7.93294 23.6099 7.22656 23.6978 6.44531 23.6978C5.74219 23.6978 5.04883 23.6066 4.36523 23.4243C3.68164 23.2355 3.0599 22.9523 2.5 22.5747C1.94661 22.1971 1.50391 21.7153 1.17188 21.1294C0.839844 20.5435 0.673828 19.8501 0.673828 19.0493H3.61328C3.61328 19.492 3.68164 19.8664 3.81836 20.1724C3.95508 20.4784 4.14714 20.7257 4.39453 20.9146C4.64844 21.1034 4.94792 21.2401 5.29297 21.3247C5.64453 21.4093 6.02865 21.4517 6.44531 21.4517C6.95312 21.4517 7.36979 21.38 7.69531 21.2368C8.02734 21.0936 8.27148 20.895 8.42773 20.6411C8.59049 20.3872 8.67188 20.1007 8.67188 19.7817ZM18.2812 23.6978C17.4609 23.6978 16.7253 23.5675 16.0742 23.3071C15.4232 23.0402 14.8698 22.6724 14.4141 22.2036C13.9648 21.7349 13.6198 21.1912 13.3789 20.5728C13.138 19.9478 13.0176 19.2837 13.0176 18.5806V18.1899C13.0176 17.3892 13.1315 16.6567 13.3594 15.9927C13.5872 15.3286 13.9128 14.7524 14.3359 14.2642C14.7656 13.7759 15.2865 13.4015 15.8984 13.1411C16.5104 12.8742 17.2005 12.7407 17.9688 12.7407C18.7174 12.7407 19.3815 12.8644 19.9609 13.1118C20.5404 13.3592 21.0254 13.7108 21.416 14.1665C21.8132 14.6222 22.1126 15.1691 22.3145 15.8071C22.5163 16.4386 22.6172 17.1418 22.6172 17.9165V19.0884H14.2188V17.2134H19.8535V16.9985C19.8535 16.6079 19.7819 16.2596 19.6387 15.9536C19.502 15.6411 19.2936 15.3937 19.0137 15.2114C18.7337 15.0291 18.3757 14.938 17.9395 14.938C17.5684 14.938 17.2493 15.0194 16.9824 15.1821C16.7155 15.3449 16.4974 15.5728 16.3281 15.8657C16.1654 16.1587 16.0417 16.5037 15.957 16.9009C15.8789 17.2915 15.8398 17.7212 15.8398 18.1899V18.5806C15.8398 19.0037 15.8984 19.3944 16.0156 19.7524C16.1393 20.1105 16.3118 20.4198 16.5332 20.6802C16.7611 20.9406 17.0345 21.1424 17.3535 21.2856C17.679 21.4289 18.0469 21.5005 18.457 21.5005C18.9648 21.5005 19.4368 21.4028 19.873 21.2075C20.3158 21.0057 20.6966 20.703 21.0156 20.2993L22.3828 21.7837C22.1615 22.1027 21.8587 22.4087 21.4746 22.7017C21.097 22.9946 20.6413 23.2355 20.1074 23.4243C19.5736 23.6066 18.9648 23.6978 18.2812 23.6978ZM28.584 21.5005C28.929 21.5005 29.235 21.4354 29.502 21.3052C29.7689 21.1685 29.9772 20.9797 30.127 20.7388C30.2832 20.4914 30.3646 20.2017 30.3711 19.8696H33.0176C33.0111 20.6118 32.8125 21.2726 32.4219 21.8521C32.0312 22.425 31.5072 22.8774 30.8496 23.2095C30.1921 23.535 29.4564 23.6978 28.6426 23.6978C27.8223 23.6978 27.1061 23.561 26.4941 23.2876C25.8887 23.0142 25.3841 22.6366 24.9805 22.1548C24.5768 21.6665 24.2741 21.1001 24.0723 20.4556C23.8704 19.8045 23.7695 19.1079 23.7695 18.3657V18.0825C23.7695 17.3338 23.8704 16.6372 24.0723 15.9927C24.2741 15.3416 24.5768 14.7752 24.9805 14.2935C25.3841 13.8052 25.8887 13.4243 26.4941 13.1509C27.0996 12.8774 27.8092 12.7407 28.623 12.7407C29.4889 12.7407 30.2474 12.9067 30.8984 13.2388C31.556 13.5708 32.0703 14.0461 32.4414 14.6646C32.819 15.2765 33.0111 16.0024 33.0176 16.8423H30.3711C30.3646 16.4907 30.2897 16.1717 30.1465 15.8853C30.0098 15.5988 29.8079 15.3709 29.541 15.2017C29.2806 15.0259 28.9583 14.938 28.5742 14.938C28.1641 14.938 27.8288 15.0259 27.5684 15.2017C27.3079 15.3709 27.1061 15.6053 26.9629 15.9048C26.8197 16.1978 26.7188 16.533 26.6602 16.9106C26.6081 17.2817 26.582 17.6724 26.582 18.0825V18.3657C26.582 18.7759 26.6081 19.1698 26.6602 19.5474C26.7122 19.925 26.8099 20.2603 26.9531 20.5532C27.1029 20.8462 27.3079 21.0773 27.5684 21.2466C27.8288 21.4159 28.1673 21.5005 28.584 21.5005ZM39.8242 12.936V14.9282H33.6719V12.936H39.8242ZM35.1953 10.3286H38.0078V20.3188C38.0078 20.6248 38.0469 20.8592 38.125 21.022C38.2096 21.1847 38.3333 21.2987 38.4961 21.3638C38.6589 21.4224 38.8639 21.4517 39.1113 21.4517C39.2871 21.4517 39.4434 21.4451 39.5801 21.4321C39.7233 21.4126 39.8438 21.3931 39.9414 21.3735L39.9512 23.4438C39.7103 23.522 39.4499 23.5838 39.1699 23.6294C38.89 23.675 38.5807 23.6978 38.2422 23.6978C37.6237 23.6978 37.0833 23.5968 36.6211 23.395C36.1654 23.1867 35.8138 22.8547 35.5664 22.3989C35.319 21.9432 35.1953 21.3442 35.1953 20.6021V10.3286ZM44.3945 12.936V23.5024H41.5723V12.936H44.3945ZM41.3965 10.1821C41.3965 9.77197 41.5397 9.43343 41.8262 9.1665C42.1126 8.89958 42.4967 8.76611 42.9785 8.76611C43.4538 8.76611 43.8346 8.89958 44.1211 9.1665C44.4141 9.43343 44.5605 9.77197 44.5605 10.1821C44.5605 10.5923 44.4141 10.9308 44.1211 11.1978C43.8346 11.4647 43.4538 11.5981 42.9785 11.5981C42.4967 11.5981 42.1126 11.4647 41.8262 11.1978C41.5397 10.9308 41.3965 10.5923 41.3965 10.1821ZM46.2695 18.3267V18.1216C46.2695 17.3468 46.3802 16.634 46.6016 15.9829C46.8229 15.3254 47.1452 14.7557 47.5684 14.2739C47.9915 13.7922 48.5124 13.4178 49.1309 13.1509C49.7493 12.8774 50.459 12.7407 51.2598 12.7407C52.0605 12.7407 52.7734 12.8774 53.3984 13.1509C54.0234 13.4178 54.5475 13.7922 54.9707 14.2739C55.4004 14.7557 55.7259 15.3254 55.9473 15.9829C56.1686 16.634 56.2793 17.3468 56.2793 18.1216V18.3267C56.2793 19.0949 56.1686 19.8078 55.9473 20.4653C55.7259 21.1164 55.4004 21.686 54.9707 22.1743C54.5475 22.6561 54.0267 23.0304 53.4082 23.2974C52.7897 23.5643 52.0801 23.6978 51.2793 23.6978C50.4785 23.6978 49.7656 23.5643 49.1406 23.2974C48.5221 23.0304 47.998 22.6561 47.5684 22.1743C47.1452 21.686 46.8229 21.1164 46.6016 20.4653C46.3802 19.8078 46.2695 19.0949 46.2695 18.3267ZM49.082 18.1216V18.3267C49.082 18.7694 49.1211 19.1828 49.1992 19.5669C49.2773 19.951 49.401 20.2896 49.5703 20.5825C49.7461 20.869 49.974 21.0936 50.2539 21.2563C50.5339 21.4191 50.8757 21.5005 51.2793 21.5005C51.6699 21.5005 52.0052 21.4191 52.2852 21.2563C52.5651 21.0936 52.7897 20.869 52.959 20.5825C53.1283 20.2896 53.252 19.951 53.3301 19.5669C53.4147 19.1828 53.457 18.7694 53.457 18.3267V18.1216C53.457 17.6919 53.4147 17.2882 53.3301 16.9106C53.252 16.5265 53.125 16.188 52.9492 15.895C52.7799 15.5955 52.5553 15.3612 52.2754 15.1919C51.9954 15.0226 51.6569 14.938 51.2598 14.938C50.8626 14.938 50.5241 15.0226 50.2441 15.1919C49.9707 15.3612 49.7461 15.5955 49.5703 15.895C49.401 16.188 49.2773 16.5265 49.1992 16.9106C49.1211 17.2882 49.082 17.6919 49.082 18.1216ZM60.7617 15.1919V23.5024H57.9492V12.936H60.5859L60.7617 15.1919ZM60.3516 17.8481H59.5898C59.5898 17.0669 59.6908 16.3638 59.8926 15.7388C60.0944 15.1073 60.3776 14.5701 60.7422 14.1274C61.1068 13.6782 61.5397 13.3364 62.041 13.1021C62.5488 12.8612 63.1152 12.7407 63.7402 12.7407C64.235 12.7407 64.6875 12.8123 65.0977 12.9556C65.5078 13.0988 65.8594 13.3267 66.1523 13.6392C66.4518 13.9517 66.6797 14.3651 66.8359 14.8794C66.9987 15.3937 67.0801 16.022 67.0801 16.7642V23.5024H64.248V16.7544C64.248 16.2856 64.1829 15.9211 64.0527 15.6606C63.9225 15.4002 63.7305 15.2179 63.4766 15.1138C63.2292 15.0031 62.9232 14.9478 62.5586 14.9478C62.181 14.9478 61.8522 15.0226 61.5723 15.1724C61.2988 15.3221 61.071 15.5304 60.8887 15.7974C60.7129 16.0578 60.5794 16.3638 60.4883 16.7153C60.3971 17.0669 60.3516 17.4445 60.3516 17.8481ZM80.2051 9.28369V23.5024H77.2852V9.28369H80.2051ZM84.5801 9.28369V11.5786H72.9785V9.28369H84.5801ZM89.043 12.936V23.5024H86.2207V12.936H89.043ZM86.0449 10.1821C86.0449 9.77197 86.1882 9.43343 86.4746 9.1665C86.7611 8.89958 87.1452 8.76611 87.627 8.76611C88.1022 8.76611 88.4831 8.89958 88.7695 9.1665C89.0625 9.43343 89.209 9.77197 89.209 10.1821C89.209 10.5923 89.0625 10.9308 88.7695 11.1978C88.4831 11.4647 88.1022 11.5981 87.627 11.5981C87.1452 11.5981 86.7611 11.4647 86.4746 11.1978C86.1882 10.9308 86.0449 10.5923 86.0449 10.1821ZM96.543 12.936V14.9282H90.3906V12.936H96.543ZM91.9141 10.3286H94.7266V20.3188C94.7266 20.6248 94.7656 20.8592 94.8438 21.022C94.9284 21.1847 95.0521 21.2987 95.2148 21.3638C95.3776 21.4224 95.5827 21.4517 95.8301 21.4517C96.0059 21.4517 96.1621 21.4451 96.2988 21.4321C96.4421 21.4126 96.5625 21.3931 96.6602 21.3735L96.6699 23.4438C96.429 23.522 96.1686 23.5838 95.8887 23.6294C95.6087 23.675 95.2995 23.6978 94.9609 23.6978C94.3424 23.6978 93.8021 23.5968 93.3398 23.395C92.8841 23.1867 92.5326 22.8547 92.2852 22.3989C92.0378 21.9432 91.9141 21.3442 91.9141 20.6021V10.3286ZM101.113 8.50244V23.5024H98.291V8.50244H101.113ZM108.301 23.6978C107.48 23.6978 106.745 23.5675 106.094 23.3071C105.443 23.0402 104.889 22.6724 104.434 22.2036C103.984 21.7349 103.639 21.1912 103.398 20.5728C103.158 19.9478 103.037 19.2837 103.037 18.5806V18.1899C103.037 17.3892 103.151 16.6567 103.379 15.9927C103.607 15.3286 103.932 14.7524 104.355 14.2642C104.785 13.7759 105.306 13.4015 105.918 13.1411C106.53 12.8742 107.22 12.7407 107.988 12.7407C108.737 12.7407 109.401 12.8644 109.98 13.1118C110.56 13.3592 111.045 13.7108 111.436 14.1665C111.833 14.6222 112.132 15.1691 112.334 15.8071C112.536 16.4386 112.637 17.1418 112.637 17.9165V19.0884H104.238V17.2134H109.873V16.9985C109.873 16.6079 109.801 16.2596 109.658 15.9536C109.521 15.6411 109.313 15.3937 109.033 15.2114C108.753 15.0291 108.395 14.938 107.959 14.938C107.588 14.938 107.269 15.0194 107.002 15.1821C106.735 15.3449 106.517 15.5728 106.348 15.8657C106.185 16.1587 106.061 16.5037 105.977 16.9009C105.898 17.2915 105.859 17.7212 105.859 18.1899V18.5806C105.859 19.0037 105.918 19.3944 106.035 19.7524C106.159 20.1105 106.331 20.4198 106.553 20.6802C106.781 20.9406 107.054 21.1424 107.373 21.2856C107.699 21.4289 108.066 21.5005 108.477 21.5005C108.984 21.5005 109.456 21.4028 109.893 21.2075C110.335 21.0057 110.716 20.703 111.035 20.2993L112.402 21.7837C112.181 22.1027 111.878 22.4087 111.494 22.7017C111.117 22.9946 110.661 23.2355 110.127 23.4243C109.593 23.6066 108.984 23.6978 108.301 23.6978Z" fill="#1C1C1C"/>
<rect x="256.5" y="1.00244" width="31" height="31" rx="5.5" stroke="#C9C9C9"/>
<path d="M269.205 16.5024L275.705 23.0024L275 23.7074L267.795 16.5024L275 9.29736L275.705 10.0024L269.205 16.5024Z" fill="#686868"/>
<rect x="296.5" y="1.00244" width="31" height="31" rx="5.5" stroke="#C9C9C9"/>
<path d="M316.205 16.5024L309 23.7074L308.295 23.0024L314.795 16.5024L308.295 10.0024L309 9.29736L316.205 16.5024Z" fill="#686868"/>
<g clip-path="url(#clip0_17087_12997)">
<rect width="328" height="246" transform="translate(0 64.5024)" fill="#E3E3E3"/>
</g>
<path d="M133.734 340.981H135.609C135.512 341.88 135.255 342.684 134.838 343.393C134.421 344.103 133.832 344.666 133.07 345.083C132.309 345.493 131.358 345.698 130.219 345.698C129.385 345.698 128.627 345.542 127.943 345.229C127.266 344.917 126.684 344.474 126.195 343.901C125.707 343.322 125.329 342.628 125.062 341.821C124.802 341.007 124.672 340.102 124.672 339.106V337.69C124.672 336.694 124.802 335.792 125.062 334.985C125.329 334.171 125.71 333.475 126.205 332.895C126.706 332.316 127.309 331.87 128.012 331.557C128.715 331.245 129.506 331.089 130.385 331.089C131.459 331.089 132.367 331.29 133.109 331.694C133.852 332.098 134.428 332.658 134.838 333.374C135.255 334.083 135.512 334.907 135.609 335.844H133.734C133.643 335.18 133.474 334.611 133.227 334.135C132.979 333.654 132.628 333.283 132.172 333.022C131.716 332.762 131.12 332.632 130.385 332.632C129.753 332.632 129.197 332.752 128.715 332.993C128.24 333.234 127.839 333.576 127.514 334.018C127.195 334.461 126.954 334.992 126.791 335.61C126.628 336.229 126.547 336.915 126.547 337.671V339.106C126.547 339.803 126.618 340.457 126.762 341.069C126.911 341.681 127.136 342.218 127.436 342.68C127.735 343.143 128.116 343.507 128.578 343.774C129.04 344.035 129.587 344.165 130.219 344.165C131.02 344.165 131.658 344.038 132.133 343.784C132.608 343.53 132.966 343.165 133.207 342.69C133.454 342.215 133.63 341.645 133.734 340.981ZM144.135 343.696V338.257C144.135 337.84 144.05 337.479 143.881 337.173C143.718 336.86 143.471 336.619 143.139 336.45C142.807 336.281 142.396 336.196 141.908 336.196C141.452 336.196 141.052 336.274 140.707 336.43C140.368 336.587 140.102 336.792 139.906 337.046C139.717 337.3 139.623 337.573 139.623 337.866H137.816C137.816 337.488 137.914 337.114 138.109 336.743C138.305 336.372 138.585 336.037 138.949 335.737C139.32 335.431 139.763 335.19 140.277 335.014C140.798 334.832 141.378 334.741 142.016 334.741C142.784 334.741 143.461 334.871 144.047 335.132C144.639 335.392 145.102 335.786 145.434 336.313C145.772 336.834 145.941 337.488 145.941 338.276V343.198C145.941 343.55 145.971 343.924 146.029 344.321C146.094 344.718 146.189 345.06 146.312 345.346V345.503H144.428C144.337 345.294 144.265 345.018 144.213 344.673C144.161 344.321 144.135 343.996 144.135 343.696ZM144.447 339.096L144.467 340.366H142.641C142.126 340.366 141.667 340.408 141.264 340.493C140.86 340.571 140.521 340.691 140.248 340.854C139.975 341.017 139.766 341.222 139.623 341.469C139.48 341.71 139.408 341.994 139.408 342.319C139.408 342.651 139.483 342.954 139.633 343.227C139.783 343.501 140.007 343.719 140.307 343.882C140.613 344.038 140.987 344.116 141.43 344.116C141.983 344.116 142.471 343.999 142.895 343.764C143.318 343.53 143.653 343.244 143.9 342.905C144.154 342.566 144.291 342.238 144.311 341.919L145.082 342.788C145.036 343.061 144.913 343.364 144.711 343.696C144.509 344.028 144.239 344.347 143.9 344.653C143.568 344.953 143.171 345.203 142.709 345.405C142.253 345.6 141.739 345.698 141.166 345.698C140.45 345.698 139.822 345.558 139.281 345.278C138.747 344.998 138.331 344.624 138.031 344.155C137.738 343.68 137.592 343.149 137.592 342.563C137.592 341.997 137.702 341.499 137.924 341.069C138.145 340.633 138.464 340.272 138.881 339.985C139.298 339.692 139.799 339.471 140.385 339.321C140.971 339.171 141.625 339.096 142.348 339.096H144.447ZM153.207 334.936V336.323H147.494V334.936H153.207ZM149.428 332.368H151.234V342.885C151.234 343.244 151.29 343.514 151.4 343.696C151.511 343.878 151.654 343.999 151.83 344.057C152.006 344.116 152.195 344.145 152.396 344.145C152.546 344.145 152.702 344.132 152.865 344.106C153.035 344.074 153.161 344.048 153.246 344.028L153.256 345.503C153.113 345.548 152.924 345.591 152.689 345.63C152.462 345.675 152.185 345.698 151.859 345.698C151.417 345.698 151.01 345.61 150.639 345.434C150.268 345.259 149.971 344.966 149.75 344.555C149.535 344.139 149.428 343.579 149.428 342.876V332.368ZM159.711 345.698C158.975 345.698 158.308 345.574 157.709 345.327C157.117 345.073 156.605 344.718 156.176 344.262C155.753 343.807 155.427 343.266 155.199 342.641C154.971 342.016 154.857 341.333 154.857 340.591V340.18C154.857 339.321 154.984 338.556 155.238 337.885C155.492 337.208 155.837 336.635 156.273 336.167C156.71 335.698 157.204 335.343 157.758 335.102C158.311 334.861 158.884 334.741 159.477 334.741C160.232 334.741 160.883 334.871 161.43 335.132C161.983 335.392 162.436 335.757 162.787 336.225C163.139 336.688 163.399 337.234 163.568 337.866C163.738 338.491 163.822 339.175 163.822 339.917V340.727H155.932V339.253H162.016V339.116C161.99 338.647 161.892 338.191 161.723 337.749C161.56 337.306 161.299 336.941 160.941 336.655C160.583 336.369 160.095 336.225 159.477 336.225C159.066 336.225 158.689 336.313 158.344 336.489C157.999 336.658 157.702 336.912 157.455 337.251C157.208 337.589 157.016 338.003 156.879 338.491C156.742 338.979 156.674 339.542 156.674 340.18V340.591C156.674 341.092 156.742 341.564 156.879 342.007C157.022 342.443 157.227 342.827 157.494 343.159C157.768 343.491 158.096 343.751 158.48 343.94C158.871 344.129 159.314 344.223 159.809 344.223C160.447 344.223 160.987 344.093 161.43 343.833C161.872 343.572 162.26 343.224 162.592 342.788L163.686 343.657C163.458 344.002 163.168 344.331 162.816 344.643C162.465 344.956 162.032 345.21 161.518 345.405C161.01 345.6 160.408 345.698 159.711 345.698ZM172.777 334.936H174.418V345.278C174.418 346.209 174.229 347.003 173.852 347.661C173.474 348.318 172.947 348.816 172.27 349.155C171.599 349.5 170.824 349.673 169.945 349.673C169.581 349.673 169.151 349.614 168.656 349.497C168.168 349.386 167.686 349.194 167.211 348.921C166.742 348.654 166.348 348.292 166.029 347.837L166.977 346.762C167.419 347.296 167.882 347.667 168.363 347.876C168.852 348.084 169.333 348.188 169.809 348.188C170.382 348.188 170.876 348.081 171.293 347.866C171.71 347.651 172.032 347.332 172.26 346.909C172.494 346.492 172.611 345.978 172.611 345.366V337.26L172.777 334.936ZM165.502 340.337V340.132C165.502 339.324 165.596 338.592 165.785 337.934C165.98 337.27 166.257 336.701 166.615 336.225C166.98 335.75 167.419 335.385 167.934 335.132C168.448 334.871 169.027 334.741 169.672 334.741C170.336 334.741 170.915 334.858 171.41 335.093C171.911 335.32 172.335 335.656 172.68 336.098C173.031 336.535 173.308 337.062 173.51 337.68C173.712 338.299 173.852 338.999 173.93 339.78V340.678C173.858 341.453 173.718 342.15 173.51 342.768C173.308 343.387 173.031 343.914 172.68 344.35C172.335 344.787 171.911 345.122 171.41 345.356C170.909 345.584 170.323 345.698 169.652 345.698C169.021 345.698 168.448 345.565 167.934 345.298C167.426 345.031 166.99 344.656 166.625 344.175C166.26 343.693 165.98 343.126 165.785 342.475C165.596 341.818 165.502 341.105 165.502 340.337ZM167.309 340.132V340.337C167.309 340.864 167.361 341.359 167.465 341.821C167.576 342.283 167.742 342.69 167.963 343.042C168.191 343.393 168.48 343.67 168.832 343.872C169.184 344.067 169.604 344.165 170.092 344.165C170.691 344.165 171.186 344.038 171.576 343.784C171.967 343.53 172.276 343.195 172.504 342.778C172.738 342.361 172.921 341.909 173.051 341.421V339.067C172.979 338.709 172.868 338.364 172.719 338.032C172.576 337.693 172.387 337.394 172.152 337.134C171.924 336.867 171.641 336.655 171.303 336.499C170.964 336.343 170.567 336.264 170.111 336.264C169.617 336.264 169.19 336.369 168.832 336.577C168.48 336.779 168.191 337.059 167.963 337.417C167.742 337.768 167.576 338.178 167.465 338.647C167.361 339.109 167.309 339.604 167.309 340.132ZM176.684 340.337V340.112C176.684 339.35 176.794 338.644 177.016 337.993C177.237 337.335 177.556 336.766 177.973 336.284C178.389 335.796 178.894 335.418 179.486 335.151C180.079 334.878 180.743 334.741 181.479 334.741C182.221 334.741 182.888 334.878 183.48 335.151C184.079 335.418 184.587 335.796 185.004 336.284C185.427 336.766 185.749 337.335 185.971 337.993C186.192 338.644 186.303 339.35 186.303 340.112V340.337C186.303 341.098 186.192 341.805 185.971 342.456C185.749 343.107 185.427 343.677 185.004 344.165C184.587 344.647 184.083 345.024 183.49 345.298C182.904 345.565 182.24 345.698 181.498 345.698C180.756 345.698 180.089 345.565 179.496 345.298C178.904 345.024 178.396 344.647 177.973 344.165C177.556 343.677 177.237 343.107 177.016 342.456C176.794 341.805 176.684 341.098 176.684 340.337ZM178.49 340.112V340.337C178.49 340.864 178.552 341.362 178.676 341.831C178.799 342.293 178.985 342.703 179.232 343.061C179.486 343.419 179.802 343.703 180.18 343.911C180.557 344.113 180.997 344.214 181.498 344.214C181.993 344.214 182.426 344.113 182.797 343.911C183.174 343.703 183.487 343.419 183.734 343.061C183.982 342.703 184.167 342.293 184.291 341.831C184.421 341.362 184.486 340.864 184.486 340.337V340.112C184.486 339.591 184.421 339.1 184.291 338.637C184.167 338.169 183.979 337.755 183.725 337.397C183.477 337.033 183.165 336.746 182.787 336.538C182.416 336.33 181.98 336.225 181.479 336.225C180.984 336.225 180.548 336.33 180.17 336.538C179.799 336.746 179.486 337.033 179.232 337.397C178.985 337.755 178.799 338.169 178.676 338.637C178.552 339.1 178.49 339.591 178.49 340.112ZM190.375 336.596V345.503H188.568V334.936H190.326L190.375 336.596ZM193.676 334.878L193.666 336.557C193.516 336.525 193.373 336.505 193.236 336.499C193.106 336.486 192.956 336.479 192.787 336.479C192.37 336.479 192.003 336.544 191.684 336.675C191.365 336.805 191.094 336.987 190.873 337.221C190.652 337.456 190.476 337.736 190.346 338.061C190.222 338.38 190.141 338.732 190.102 339.116L189.594 339.409C189.594 338.771 189.656 338.172 189.779 337.612C189.91 337.052 190.108 336.557 190.375 336.128C190.642 335.691 190.98 335.353 191.391 335.112C191.807 334.865 192.302 334.741 192.875 334.741C193.005 334.741 193.155 334.757 193.324 334.79C193.493 334.816 193.611 334.845 193.676 334.878ZM198.49 344.409L201.43 334.936H203.363L199.125 347.134C199.027 347.394 198.897 347.674 198.734 347.973C198.578 348.279 198.376 348.569 198.129 348.843C197.882 349.116 197.582 349.337 197.23 349.507C196.885 349.682 196.472 349.77 195.99 349.77C195.847 349.77 195.665 349.751 195.443 349.712C195.222 349.673 195.066 349.64 194.975 349.614L194.965 348.149C195.017 348.156 195.098 348.162 195.209 348.169C195.326 348.182 195.408 348.188 195.453 348.188C195.863 348.188 196.212 348.133 196.498 348.022C196.785 347.918 197.025 347.739 197.221 347.485C197.423 347.238 197.595 346.896 197.738 346.46L198.49 344.409ZM196.332 334.936L199.076 343.139L199.545 345.044L198.246 345.708L194.359 334.936H196.332Z" fill="#686868"/>
<circle cx="104" cy="386.503" r="4" fill="#026CD1"/>
<circle cx="128" cy="386.503" r="4" fill="#C9C9C9"/>
<circle cx="152" cy="386.503" r="4" fill="#C9C9C9"/>
<circle cx="176" cy="386.503" r="4" fill="#C9C9C9"/>
<circle cx="200" cy="386.503" r="4" fill="#C9C9C9"/>
<circle cx="224" cy="386.503" r="4" fill="#C9C9C9"/>
<defs>
<clipPath id="clip0_17087_12997">
<rect width="328" height="246" fill="white" transform="translate(0 64.5024)"/>
</clipPath>
</defs>
</svg>
