<svg width="360" height="24" viewBox="0 0 360 24" fill="none" xmlns="http://www.w3.org/2000/svg">
<path d="M26.8105 16.7148V19H19.2422V16.7148H26.8105ZM20.1992 4.78125V19H17.2695V4.78125H20.1992ZM25.8242 10.5723V12.7988H19.2422V10.5723H25.8242ZM26.8008 4.78125V7.07617H19.2422V4.78125H26.8008ZM34.418 16.4707V8.43359H37.2305V19H34.584L34.418 16.4707ZM34.7305 14.3027L35.5605 14.2832C35.5605 14.9863 35.4792 15.6406 35.3164 16.2461C35.1536 16.8451 34.9095 17.3659 34.584 17.8086C34.2585 18.2448 33.8483 18.5866 33.3535 18.834C32.8587 19.0749 32.276 19.1953 31.6055 19.1953C31.0911 19.1953 30.6159 19.1237 30.1797 18.9805C29.75 18.8307 29.3789 18.5996 29.0664 18.2871C28.7604 17.9681 28.5195 17.5612 28.3438 17.0664C28.1745 16.5651 28.0898 15.9629 28.0898 15.2598V8.43359H30.9023V15.2793C30.9023 15.5918 30.9382 15.8555 31.0098 16.0703C31.0879 16.2852 31.1953 16.4609 31.332 16.5977C31.4688 16.7344 31.6283 16.832 31.8105 16.8906C31.9993 16.9492 32.2077 16.9785 32.4355 16.9785C33.015 16.9785 33.4707 16.8613 33.8027 16.627C34.1413 16.3926 34.3789 16.0736 34.5156 15.6699C34.6589 15.2598 34.7305 14.804 34.7305 14.3027ZM47.9434 19H45.1113V7.49609C45.1113 6.69531 45.2676 6.02148 45.5801 5.47461C45.8991 4.92122 46.3451 4.50456 46.918 4.22461C47.4974 3.93815 48.1842 3.79492 48.9785 3.79492C49.2389 3.79492 49.4896 3.81445 49.7305 3.85352C49.9714 3.88607 50.2057 3.92839 50.4336 3.98047L50.4043 6.09961C50.2806 6.06706 50.1504 6.04427 50.0137 6.03125C49.877 6.01823 49.7174 6.01172 49.5352 6.01172C49.1966 6.01172 48.9069 6.07031 48.666 6.1875C48.4316 6.29818 48.2526 6.46419 48.1289 6.68555C48.0052 6.9069 47.9434 7.17708 47.9434 7.49609V19ZM50.0527 8.43359V10.4258H43.5391V8.43359H50.0527ZM57.2305 16.6172V11.9102C57.2305 11.5716 57.1751 11.2819 57.0645 11.041C56.9538 10.7936 56.7812 10.6016 56.5469 10.4648C56.319 10.3281 56.0228 10.2598 55.6582 10.2598C55.3457 10.2598 55.0755 10.3151 54.8477 10.4258C54.6198 10.5299 54.444 10.6829 54.3203 10.8848C54.1966 11.0801 54.1348 11.3112 54.1348 11.5781H51.3223C51.3223 11.1289 51.4264 10.7025 51.6348 10.2988C51.8431 9.89518 52.1458 9.54036 52.543 9.23438C52.9401 8.92188 53.4121 8.67773 53.959 8.50195C54.5124 8.32617 55.1309 8.23828 55.8145 8.23828C56.6348 8.23828 57.3639 8.375 58.002 8.64844C58.64 8.92188 59.1413 9.33203 59.5059 9.87891C59.877 10.4258 60.0625 11.1094 60.0625 11.9297V16.4512C60.0625 17.0306 60.0983 17.5059 60.1699 17.877C60.2415 18.2415 60.3457 18.5605 60.4824 18.834V19H57.6406C57.5039 18.7135 57.3997 18.3555 57.3281 17.9258C57.263 17.4896 57.2305 17.0534 57.2305 16.6172ZM57.6016 12.5645L57.6211 14.1562H56.0488C55.6777 14.1562 55.3555 14.1986 55.082 14.2832C54.8086 14.3678 54.584 14.4883 54.4082 14.6445C54.2324 14.7943 54.1022 14.9701 54.0176 15.1719C53.9395 15.3737 53.9004 15.5951 53.9004 15.8359C53.9004 16.0768 53.9557 16.2949 54.0664 16.4902C54.1771 16.679 54.3366 16.8288 54.5449 16.9395C54.7533 17.0436 54.9974 17.0957 55.2773 17.0957C55.7005 17.0957 56.0684 17.0111 56.3809 16.8418C56.6934 16.6725 56.9342 16.4642 57.1035 16.2168C57.2793 15.9694 57.3704 15.735 57.377 15.5137L58.1191 16.7051C58.015 16.972 57.8717 17.2487 57.6895 17.5352C57.5137 17.8216 57.2891 18.0918 57.0156 18.3457C56.7422 18.5931 56.4134 18.7982 56.0293 18.9609C55.6452 19.1172 55.1895 19.1953 54.6621 19.1953C53.9915 19.1953 53.3828 19.0618 52.8359 18.7949C52.2956 18.5215 51.8659 18.1471 51.5469 17.6719C51.2344 17.1901 51.0781 16.6432 51.0781 16.0312C51.0781 15.4779 51.1823 14.9863 51.3906 14.5566C51.599 14.127 51.9049 13.7656 52.3086 13.4727C52.7188 13.1732 53.2298 12.9486 53.8418 12.7988C54.4538 12.6426 55.1634 12.5645 55.9707 12.5645H57.6016ZM68.4805 16.4707V8.43359H71.293V19H68.6465L68.4805 16.4707ZM68.793 14.3027L69.623 14.2832C69.623 14.9863 69.5417 15.6406 69.3789 16.2461C69.2161 16.8451 68.972 17.3659 68.6465 17.8086C68.321 18.2448 67.9108 18.5866 67.416 18.834C66.9212 19.0749 66.3385 19.1953 65.668 19.1953C65.1536 19.1953 64.6784 19.1237 64.2422 18.9805C63.8125 18.8307 63.4414 18.5996 63.1289 18.2871C62.8229 17.9681 62.582 17.5612 62.4062 17.0664C62.237 16.5651 62.1523 15.9629 62.1523 15.2598V8.43359H64.9648V15.2793C64.9648 15.5918 65.0007 15.8555 65.0723 16.0703C65.1504 16.2852 65.2578 16.4609 65.3945 16.5977C65.5312 16.7344 65.6908 16.832 65.873 16.8906C66.0618 16.9492 66.2702 16.9785 66.498 16.9785C67.0775 16.9785 67.5332 16.8613 67.8652 16.627C68.2038 16.3926 68.4414 16.0736 68.5781 15.6699C68.7214 15.2598 68.793 14.804 68.793 14.3027ZM77.8066 16.998C78.1517 16.998 78.4577 16.9329 78.7246 16.8027C78.9915 16.666 79.1999 16.4772 79.3496 16.2363C79.5059 15.9889 79.5872 15.6992 79.5938 15.3672H82.2402C82.2337 16.1094 82.0352 16.7702 81.6445 17.3496C81.2539 17.9225 80.7298 18.375 80.0723 18.707C79.4147 19.0326 78.679 19.1953 77.8652 19.1953C77.0449 19.1953 76.3288 19.0586 75.7168 18.7852C75.1113 18.5117 74.6068 18.1341 74.2031 17.6523C73.7995 17.1641 73.4967 16.5977 73.2949 15.9531C73.0931 15.3021 72.9922 14.6055 72.9922 13.8633V13.5801C72.9922 12.8314 73.0931 12.1348 73.2949 11.4902C73.4967 10.8392 73.7995 10.2728 74.2031 9.79102C74.6068 9.30273 75.1113 8.92188 75.7168 8.64844C76.3223 8.375 77.0319 8.23828 77.8457 8.23828C78.7116 8.23828 79.4701 8.4043 80.1211 8.73633C80.7786 9.06836 81.293 9.54362 81.6641 10.1621C82.0417 10.7741 82.2337 11.5 82.2402 12.3398H79.5938C79.5872 11.9883 79.5124 11.6693 79.3691 11.3828C79.2324 11.0964 79.0306 10.8685 78.7637 10.6992C78.5033 10.5234 78.181 10.4355 77.7969 10.4355C77.3867 10.4355 77.0514 10.5234 76.791 10.6992C76.5306 10.8685 76.3288 11.1029 76.1855 11.4023C76.0423 11.6953 75.9414 12.0306 75.8828 12.4082C75.8307 12.7793 75.8047 13.1699 75.8047 13.5801V13.8633C75.8047 14.2734 75.8307 14.6673 75.8828 15.0449C75.9349 15.4225 76.0326 15.7578 76.1758 16.0508C76.3255 16.3438 76.5306 16.5749 76.791 16.7441C77.0514 16.9134 77.39 16.998 77.8066 16.998ZM86.8398 8.43359V19H84.0176V8.43359H86.8398ZM83.8418 5.67969C83.8418 5.26953 83.985 4.93099 84.2715 4.66406C84.5579 4.39714 84.9421 4.26367 85.4238 4.26367C85.8991 4.26367 86.2799 4.39714 86.5664 4.66406C86.8594 4.93099 87.0059 5.26953 87.0059 5.67969C87.0059 6.08984 86.8594 6.42839 86.5664 6.69531C86.2799 6.96224 85.8991 7.0957 85.4238 7.0957C84.9421 7.0957 84.5579 6.96224 84.2715 6.69531C83.985 6.42839 83.8418 6.08984 83.8418 5.67969ZM89.1641 4H91.9766V16.5781L91.6934 19H89.1641V4ZM98.666 13.6094V13.8145C98.666 14.6022 98.5814 15.3249 98.4121 15.9824C98.2493 16.64 97.9954 17.2096 97.6504 17.6914C97.3053 18.1667 96.8757 18.5378 96.3613 18.8047C95.8535 19.0651 95.2546 19.1953 94.5645 19.1953C93.9199 19.1953 93.36 19.0651 92.8848 18.8047C92.416 18.5443 92.0221 18.1764 91.7031 17.7012C91.3841 17.2259 91.127 16.6693 90.9316 16.0312C90.7363 15.3932 90.5898 14.6966 90.4922 13.9414V13.4922C90.5898 12.737 90.7363 12.0404 90.9316 11.4023C91.127 10.7643 91.3841 10.2077 91.7031 9.73242C92.0221 9.25716 92.416 8.88932 92.8848 8.62891C93.3535 8.36849 93.9069 8.23828 94.5449 8.23828C95.2415 8.23828 95.847 8.37174 96.3613 8.63867C96.8822 8.89909 97.3118 9.27018 97.6504 9.75195C97.9954 10.2272 98.2493 10.7936 98.4121 11.4512C98.5814 12.1022 98.666 12.8216 98.666 13.6094ZM95.8535 13.8145V13.6094C95.8535 13.1797 95.821 12.776 95.7559 12.3984C95.6973 12.0143 95.5931 11.679 95.4434 11.3926C95.2936 11.0996 95.0885 10.8685 94.8281 10.6992C94.5742 10.5299 94.2454 10.4453 93.8418 10.4453C93.4577 10.4453 93.1322 10.5104 92.8652 10.6406C92.5983 10.7708 92.377 10.9531 92.2012 11.1875C92.0319 11.4219 91.9049 11.7018 91.8203 12.0273C91.7357 12.3464 91.6836 12.6979 91.6641 13.082V14.3613C91.6836 14.8757 91.7682 15.3314 91.918 15.7285C92.0742 16.1191 92.3086 16.4284 92.6211 16.6562C92.9401 16.8776 93.3535 16.9883 93.8613 16.9883C94.2585 16.9883 94.5872 16.9102 94.8477 16.7539C95.1081 16.5977 95.3099 16.3763 95.4531 16.0898C95.6029 15.8034 95.707 15.4681 95.7656 15.084C95.8242 14.6934 95.8535 14.2702 95.8535 13.8145ZM106.664 16.4707V8.43359H109.477V19H106.83L106.664 16.4707ZM106.977 14.3027L107.807 14.2832C107.807 14.9863 107.725 15.6406 107.562 16.2461C107.4 16.8451 107.156 17.3659 106.83 17.8086C106.505 18.2448 106.094 18.5866 105.6 18.834C105.105 19.0749 104.522 19.1953 103.852 19.1953C103.337 19.1953 102.862 19.1237 102.426 18.9805C101.996 18.8307 101.625 18.5996 101.312 18.2871C101.007 17.9681 100.766 17.5612 100.59 17.0664C100.421 16.5651 100.336 15.9629 100.336 15.2598V8.43359H103.148V15.2793C103.148 15.5918 103.184 15.8555 103.256 16.0703C103.334 16.2852 103.441 16.4609 103.578 16.5977C103.715 16.7344 103.874 16.832 104.057 16.8906C104.245 16.9492 104.454 16.9785 104.682 16.9785C105.261 16.9785 105.717 16.8613 106.049 16.627C106.387 16.3926 106.625 16.0736 106.762 15.6699C106.905 15.2598 106.977 14.804 106.977 14.3027ZM117.338 16.0801C117.338 15.8783 117.279 15.696 117.162 15.5332C117.045 15.3704 116.827 15.2207 116.508 15.084C116.195 14.9408 115.743 14.8105 115.15 14.6934C114.617 14.5762 114.118 14.4297 113.656 14.2539C113.201 14.0716 112.803 13.8535 112.465 13.5996C112.133 13.3457 111.872 13.0462 111.684 12.7012C111.495 12.3496 111.4 11.9492 111.4 11.5C111.4 11.0573 111.495 10.6406 111.684 10.25C111.879 9.85938 112.156 9.51432 112.514 9.21484C112.878 8.90885 113.321 8.67122 113.842 8.50195C114.369 8.32617 114.962 8.23828 115.619 8.23828C116.537 8.23828 117.325 8.38477 117.982 8.67773C118.646 8.9707 119.154 9.37435 119.506 9.88867C119.864 10.3965 120.043 10.9759 120.043 11.627H117.23C117.23 11.3535 117.172 11.1094 117.055 10.8945C116.944 10.6732 116.768 10.5007 116.527 10.377C116.293 10.2467 115.987 10.1816 115.609 10.1816C115.297 10.1816 115.027 10.237 114.799 10.3477C114.571 10.4518 114.395 10.5951 114.271 10.7773C114.154 10.9531 114.096 11.1484 114.096 11.3633C114.096 11.526 114.128 11.6725 114.193 11.8027C114.265 11.9264 114.379 12.0404 114.535 12.1445C114.691 12.2487 114.893 12.3464 115.141 12.4375C115.395 12.5221 115.707 12.6003 116.078 12.6719C116.84 12.8281 117.52 13.0332 118.119 13.2871C118.718 13.5345 119.193 13.873 119.545 14.3027C119.896 14.7259 120.072 15.2826 120.072 15.9727C120.072 16.4414 119.968 16.8711 119.76 17.2617C119.551 17.6523 119.252 17.9941 118.861 18.2871C118.471 18.5736 118.002 18.7982 117.455 18.9609C116.915 19.1172 116.306 19.1953 115.629 19.1953C114.646 19.1953 113.812 19.0195 113.129 18.668C112.452 18.3164 111.938 17.8704 111.586 17.3301C111.241 16.7832 111.068 16.2233 111.068 15.6504H113.734C113.747 16.0345 113.845 16.3438 114.027 16.5781C114.216 16.8125 114.454 16.9818 114.74 17.0859C115.033 17.1901 115.349 17.2422 115.688 17.2422C116.052 17.2422 116.355 17.1934 116.596 17.0957C116.837 16.9915 117.019 16.8548 117.143 16.6855C117.273 16.5098 117.338 16.3079 117.338 16.0801ZM130.473 16.9492L132.816 8.43359H135.756L132.191 19H130.414L130.473 16.9492ZM128.861 8.43359L131.215 16.959L131.264 19H129.477L125.912 8.43359H128.861ZM139.984 8.43359V19H137.162V8.43359H139.984ZM136.986 5.67969C136.986 5.26953 137.13 4.93099 137.416 4.66406C137.702 4.39714 138.087 4.26367 138.568 4.26367C139.044 4.26367 139.424 4.39714 139.711 4.66406C140.004 4.93099 140.15 5.26953 140.15 5.67969C140.15 6.08984 140.004 6.42839 139.711 6.69531C139.424 6.96224 139.044 7.0957 138.568 7.0957C138.087 7.0957 137.702 6.96224 137.416 6.69531C137.13 6.42839 136.986 6.08984 136.986 5.67969ZM145.902 16.9492L148.246 8.43359H151.186L147.621 19H145.844L145.902 16.9492ZM144.291 8.43359L146.645 16.959L146.693 19H144.906L141.342 8.43359H144.291ZM157.172 19.1953C156.352 19.1953 155.616 19.0651 154.965 18.8047C154.314 18.5378 153.76 18.1699 153.305 17.7012C152.855 17.2324 152.51 16.6888 152.27 16.0703C152.029 15.4453 151.908 14.7812 151.908 14.0781V13.6875C151.908 12.8867 152.022 12.1543 152.25 11.4902C152.478 10.8262 152.803 10.25 153.227 9.76172C153.656 9.27344 154.177 8.89909 154.789 8.63867C155.401 8.37174 156.091 8.23828 156.859 8.23828C157.608 8.23828 158.272 8.36198 158.852 8.60938C159.431 8.85677 159.916 9.20833 160.307 9.66406C160.704 10.1198 161.003 10.6667 161.205 11.3047C161.407 11.9362 161.508 12.6393 161.508 13.4141V14.5859H153.109V12.7109H158.744V12.4961C158.744 12.1055 158.673 11.7572 158.529 11.4512C158.393 11.1387 158.184 10.8913 157.904 10.709C157.624 10.5267 157.266 10.4355 156.83 10.4355C156.459 10.4355 156.14 10.5169 155.873 10.6797C155.606 10.8424 155.388 11.0703 155.219 11.3633C155.056 11.6562 154.932 12.0013 154.848 12.3984C154.77 12.7891 154.73 13.2188 154.73 13.6875V14.0781C154.73 14.5013 154.789 14.8919 154.906 15.25C155.03 15.6081 155.202 15.9173 155.424 16.1777C155.652 16.4382 155.925 16.64 156.244 16.7832C156.57 16.9264 156.938 16.998 157.348 16.998C157.855 16.998 158.327 16.9004 158.764 16.7051C159.206 16.5033 159.587 16.2005 159.906 15.7969L161.273 17.2812C161.052 17.6003 160.749 17.9062 160.365 18.1992C159.988 18.4922 159.532 18.7331 158.998 18.9219C158.464 19.1042 157.855 19.1953 157.172 19.1953ZM165.922 10.7383V19H163.109V8.43359H165.756L165.922 10.7383ZM169.105 8.36523L169.057 10.9727C168.92 10.9531 168.754 10.9368 168.559 10.9238C168.37 10.9043 168.197 10.8945 168.041 10.8945C167.644 10.8945 167.299 10.9466 167.006 11.0508C166.719 11.1484 166.479 11.2949 166.283 11.4902C166.094 11.6855 165.951 11.9232 165.854 12.2031C165.762 12.4831 165.71 12.8021 165.697 13.1602L165.131 12.9844C165.131 12.3008 165.199 11.6725 165.336 11.0996C165.473 10.5202 165.671 10.0156 165.932 9.58594C166.199 9.15625 166.524 8.82422 166.908 8.58984C167.292 8.35547 167.732 8.23828 168.227 8.23828C168.383 8.23828 168.542 8.2513 168.705 8.27734C168.868 8.29688 169.001 8.32617 169.105 8.36523ZM173.246 10.7383V19H170.434V8.43359H173.08L173.246 10.7383ZM176.43 8.36523L176.381 10.9727C176.244 10.9531 176.078 10.9368 175.883 10.9238C175.694 10.9043 175.521 10.8945 175.365 10.8945C174.968 10.8945 174.623 10.9466 174.33 11.0508C174.044 11.1484 173.803 11.2949 173.607 11.4902C173.419 11.6855 173.275 11.9232 173.178 12.2031C173.087 12.4831 173.035 12.8021 173.021 13.1602L172.455 12.9844C172.455 12.3008 172.523 11.6725 172.66 11.0996C172.797 10.5202 172.995 10.0156 173.256 9.58594C173.523 9.15625 173.848 8.82422 174.232 8.58984C174.617 8.35547 175.056 8.23828 175.551 8.23828C175.707 8.23828 175.867 8.2513 176.029 8.27734C176.192 8.29688 176.326 8.32617 176.43 8.36523ZM183.129 16.6172V11.9102C183.129 11.5716 183.074 11.2819 182.963 11.041C182.852 10.7936 182.68 10.6016 182.445 10.4648C182.217 10.3281 181.921 10.2598 181.557 10.2598C181.244 10.2598 180.974 10.3151 180.746 10.4258C180.518 10.5299 180.342 10.6829 180.219 10.8848C180.095 11.0801 180.033 11.3112 180.033 11.5781H177.221C177.221 11.1289 177.325 10.7025 177.533 10.2988C177.742 9.89518 178.044 9.54036 178.441 9.23438C178.839 8.92188 179.311 8.67773 179.857 8.50195C180.411 8.32617 181.029 8.23828 181.713 8.23828C182.533 8.23828 183.262 8.375 183.9 8.64844C184.538 8.92188 185.04 9.33203 185.404 9.87891C185.775 10.4258 185.961 11.1094 185.961 11.9297V16.4512C185.961 17.0306 185.997 17.5059 186.068 17.877C186.14 18.2415 186.244 18.5605 186.381 18.834V19H183.539C183.402 18.7135 183.298 18.3555 183.227 17.9258C183.161 17.4896 183.129 17.0534 183.129 16.6172ZM183.5 12.5645L183.52 14.1562H181.947C181.576 14.1562 181.254 14.1986 180.98 14.2832C180.707 14.3678 180.482 14.4883 180.307 14.6445C180.131 14.7943 180.001 14.9701 179.916 15.1719C179.838 15.3737 179.799 15.5951 179.799 15.8359C179.799 16.0768 179.854 16.2949 179.965 16.4902C180.076 16.679 180.235 16.8288 180.443 16.9395C180.652 17.0436 180.896 17.0957 181.176 17.0957C181.599 17.0957 181.967 17.0111 182.279 16.8418C182.592 16.6725 182.833 16.4642 183.002 16.2168C183.178 15.9694 183.269 15.735 183.275 15.5137L184.018 16.7051C183.913 16.972 183.77 17.2487 183.588 17.5352C183.412 17.8216 183.188 18.0918 182.914 18.3457C182.641 18.5931 182.312 18.7982 181.928 18.9609C181.544 19.1172 181.088 19.1953 180.561 19.1953C179.89 19.1953 179.281 19.0618 178.734 18.7949C178.194 18.5215 177.764 18.1471 177.445 17.6719C177.133 17.1901 176.977 16.6432 176.977 16.0312C176.977 15.4779 177.081 14.9863 177.289 14.5566C177.497 14.127 177.803 13.7656 178.207 13.4727C178.617 13.1732 179.128 12.9486 179.74 12.7988C180.352 12.6426 181.062 12.5645 181.869 12.5645H183.5ZM198.812 16.6172V11.9102C198.812 11.5716 198.757 11.2819 198.646 11.041C198.536 10.7936 198.363 10.6016 198.129 10.4648C197.901 10.3281 197.605 10.2598 197.24 10.2598C196.928 10.2598 196.658 10.3151 196.43 10.4258C196.202 10.5299 196.026 10.6829 195.902 10.8848C195.779 11.0801 195.717 11.3112 195.717 11.5781H192.904C192.904 11.1289 193.008 10.7025 193.217 10.2988C193.425 9.89518 193.728 9.54036 194.125 9.23438C194.522 8.92188 194.994 8.67773 195.541 8.50195C196.094 8.32617 196.713 8.23828 197.396 8.23828C198.217 8.23828 198.946 8.375 199.584 8.64844C200.222 8.92188 200.723 9.33203 201.088 9.87891C201.459 10.4258 201.645 11.1094 201.645 11.9297V16.4512C201.645 17.0306 201.68 17.5059 201.752 17.877C201.824 18.2415 201.928 18.5605 202.064 18.834V19H199.223C199.086 18.7135 198.982 18.3555 198.91 17.9258C198.845 17.4896 198.812 17.0534 198.812 16.6172ZM199.184 12.5645L199.203 14.1562H197.631C197.26 14.1562 196.938 14.1986 196.664 14.2832C196.391 14.3678 196.166 14.4883 195.99 14.6445C195.814 14.7943 195.684 14.9701 195.6 15.1719C195.521 15.3737 195.482 15.5951 195.482 15.8359C195.482 16.0768 195.538 16.2949 195.648 16.4902C195.759 16.679 195.919 16.8288 196.127 16.9395C196.335 17.0436 196.579 17.0957 196.859 17.0957C197.283 17.0957 197.65 17.0111 197.963 16.8418C198.275 16.6725 198.516 16.4642 198.686 16.2168C198.861 15.9694 198.952 15.735 198.959 15.5137L199.701 16.7051C199.597 16.972 199.454 17.2487 199.271 17.5352C199.096 17.8216 198.871 18.0918 198.598 18.3457C198.324 18.5931 197.995 18.7982 197.611 18.9609C197.227 19.1172 196.771 19.1953 196.244 19.1953C195.574 19.1953 194.965 19.0618 194.418 18.7949C193.878 18.5215 193.448 18.1471 193.129 17.6719C192.816 17.1901 192.66 16.6432 192.66 16.0312C192.66 15.4779 192.764 14.9863 192.973 14.5566C193.181 14.127 193.487 13.7656 193.891 13.4727C194.301 13.1732 194.812 12.9486 195.424 12.7988C196.036 12.6426 196.745 12.5645 197.553 12.5645H199.184ZM211.605 10.6211V19H208.783V8.43359H211.43L211.605 10.6211ZM211.215 13.3457H210.434C210.434 12.61 210.521 11.9329 210.697 11.3145C210.88 10.6895 211.143 10.1491 211.488 9.69336C211.84 9.23112 212.273 8.87305 212.787 8.61914C213.301 8.36523 213.897 8.23828 214.574 8.23828C215.043 8.23828 215.473 8.3099 215.863 8.45312C216.254 8.58984 216.589 8.80794 216.869 9.10742C217.156 9.40039 217.377 9.78451 217.533 10.2598C217.689 10.7285 217.768 11.2917 217.768 11.9492V19H214.955V12.2617C214.955 11.7799 214.89 11.4089 214.76 11.1484C214.63 10.888 214.444 10.7057 214.203 10.6016C213.969 10.4974 213.686 10.4453 213.354 10.4453C212.989 10.4453 212.67 10.5202 212.396 10.6699C212.13 10.8197 211.908 11.028 211.732 11.2949C211.557 11.5553 211.426 11.8613 211.342 12.2129C211.257 12.5645 211.215 12.9421 211.215 13.3457ZM217.504 13.0234L216.498 13.1504C216.498 12.4603 216.583 11.819 216.752 11.2266C216.928 10.6341 217.185 10.1133 217.523 9.66406C217.868 9.21484 218.295 8.86654 218.803 8.61914C219.311 8.36523 219.896 8.23828 220.561 8.23828C221.068 8.23828 221.531 8.31315 221.947 8.46289C222.364 8.60612 222.719 8.83724 223.012 9.15625C223.311 9.46875 223.539 9.87891 223.695 10.3867C223.858 10.8945 223.939 11.5163 223.939 12.252V19H221.117V12.252C221.117 11.7637 221.052 11.3926 220.922 11.1387C220.798 10.8783 220.616 10.6992 220.375 10.6016C220.141 10.4974 219.861 10.4453 219.535 10.4453C219.197 10.4453 218.9 10.5137 218.646 10.6504C218.393 10.7806 218.181 10.9629 218.012 11.1973C217.842 11.4316 217.715 11.7051 217.631 12.0176C217.546 12.3236 217.504 12.6589 217.504 13.0234ZM231.82 16.6172V11.9102C231.82 11.5716 231.765 11.2819 231.654 11.041C231.544 10.7936 231.371 10.6016 231.137 10.4648C230.909 10.3281 230.613 10.2598 230.248 10.2598C229.936 10.2598 229.665 10.3151 229.438 10.4258C229.21 10.5299 229.034 10.6829 228.91 10.8848C228.786 11.0801 228.725 11.3112 228.725 11.5781H225.912C225.912 11.1289 226.016 10.7025 226.225 10.2988C226.433 9.89518 226.736 9.54036 227.133 9.23438C227.53 8.92188 228.002 8.67773 228.549 8.50195C229.102 8.32617 229.721 8.23828 230.404 8.23828C231.225 8.23828 231.954 8.375 232.592 8.64844C233.23 8.92188 233.731 9.33203 234.096 9.87891C234.467 10.4258 234.652 11.1094 234.652 11.9297V16.4512C234.652 17.0306 234.688 17.5059 234.76 17.877C234.831 18.2415 234.936 18.5605 235.072 18.834V19H232.23C232.094 18.7135 231.99 18.3555 231.918 17.9258C231.853 17.4896 231.82 17.0534 231.82 16.6172ZM232.191 12.5645L232.211 14.1562H230.639C230.268 14.1562 229.945 14.1986 229.672 14.2832C229.398 14.3678 229.174 14.4883 228.998 14.6445C228.822 14.7943 228.692 14.9701 228.607 15.1719C228.529 15.3737 228.49 15.5951 228.49 15.8359C228.49 16.0768 228.546 16.2949 228.656 16.4902C228.767 16.679 228.926 16.8288 229.135 16.9395C229.343 17.0436 229.587 17.0957 229.867 17.0957C230.29 17.0957 230.658 17.0111 230.971 16.8418C231.283 16.6725 231.524 16.4642 231.693 16.2168C231.869 15.9694 231.96 15.735 231.967 15.5137L232.709 16.7051C232.605 16.972 232.462 17.2487 232.279 17.5352C232.104 17.8216 231.879 18.0918 231.605 18.3457C231.332 18.5931 231.003 18.7982 230.619 18.9609C230.235 19.1172 229.779 19.1953 229.252 19.1953C228.581 19.1953 227.973 19.0618 227.426 18.7949C226.885 18.5215 226.456 18.1471 226.137 17.6719C225.824 17.1901 225.668 16.6432 225.668 16.0312C225.668 15.4779 225.772 14.9863 225.98 14.5566C226.189 14.127 226.495 13.7656 226.898 13.4727C227.309 13.1732 227.82 12.9486 228.432 12.7988C229.044 12.6426 229.753 12.5645 230.561 12.5645H232.191ZM241.996 8.43359V10.4258H235.844V8.43359H241.996ZM237.367 5.82617H240.18V15.8164C240.18 16.1224 240.219 16.3568 240.297 16.5195C240.382 16.6823 240.505 16.7962 240.668 16.8613C240.831 16.9199 241.036 16.9492 241.283 16.9492C241.459 16.9492 241.615 16.9427 241.752 16.9297C241.895 16.9102 242.016 16.8906 242.113 16.8711L242.123 18.9414C241.882 19.0195 241.622 19.0814 241.342 19.127C241.062 19.1725 240.753 19.1953 240.414 19.1953C239.796 19.1953 239.255 19.0944 238.793 18.8926C238.337 18.6842 237.986 18.3522 237.738 17.8965C237.491 17.4408 237.367 16.8418 237.367 16.0996V5.82617ZM248.773 8.43359V10.4258H242.621V8.43359H248.773ZM244.145 5.82617H246.957V15.8164C246.957 16.1224 246.996 16.3568 247.074 16.5195C247.159 16.6823 247.283 16.7962 247.445 16.8613C247.608 16.9199 247.813 16.9492 248.061 16.9492C248.236 16.9492 248.393 16.9427 248.529 16.9297C248.673 16.9102 248.793 16.8906 248.891 16.8711L248.9 18.9414C248.66 19.0195 248.399 19.0814 248.119 19.127C247.839 19.1725 247.53 19.1953 247.191 19.1953C246.573 19.1953 246.033 19.0944 245.57 18.8926C245.115 18.6842 244.763 18.3522 244.516 17.8965C244.268 17.4408 244.145 16.8418 244.145 16.0996V5.82617ZM253.344 8.43359V19H250.521V8.43359H253.344ZM250.346 5.67969C250.346 5.26953 250.489 4.93099 250.775 4.66406C251.062 4.39714 251.446 4.26367 251.928 4.26367C252.403 4.26367 252.784 4.39714 253.07 4.66406C253.363 4.93099 253.51 5.26953 253.51 5.67969C253.51 6.08984 253.363 6.42839 253.07 6.69531C252.784 6.96224 252.403 7.0957 251.928 7.0957C251.446 7.0957 251.062 6.96224 250.775 6.69531C250.489 6.42839 250.346 6.08984 250.346 5.67969ZM261.381 16.0801C261.381 15.8783 261.322 15.696 261.205 15.5332C261.088 15.3704 260.87 15.2207 260.551 15.084C260.238 14.9408 259.786 14.8105 259.193 14.6934C258.66 14.5762 258.161 14.4297 257.699 14.2539C257.243 14.0716 256.846 13.8535 256.508 13.5996C256.176 13.3457 255.915 13.0462 255.727 12.7012C255.538 12.3496 255.443 11.9492 255.443 11.5C255.443 11.0573 255.538 10.6406 255.727 10.25C255.922 9.85938 256.199 9.51432 256.557 9.21484C256.921 8.90885 257.364 8.67122 257.885 8.50195C258.412 8.32617 259.005 8.23828 259.662 8.23828C260.58 8.23828 261.368 8.38477 262.025 8.67773C262.689 8.9707 263.197 9.37435 263.549 9.88867C263.907 10.3965 264.086 10.9759 264.086 11.627H261.273C261.273 11.3535 261.215 11.1094 261.098 10.8945C260.987 10.6732 260.811 10.5007 260.57 10.377C260.336 10.2467 260.03 10.1816 259.652 10.1816C259.34 10.1816 259.07 10.237 258.842 10.3477C258.614 10.4518 258.438 10.5951 258.314 10.7773C258.197 10.9531 258.139 11.1484 258.139 11.3633C258.139 11.526 258.171 11.6725 258.236 11.8027C258.308 11.9264 258.422 12.0404 258.578 12.1445C258.734 12.2487 258.936 12.3464 259.184 12.4375C259.438 12.5221 259.75 12.6003 260.121 12.6719C260.883 12.8281 261.563 13.0332 262.162 13.2871C262.761 13.5345 263.236 13.873 263.588 14.3027C263.939 14.7259 264.115 15.2826 264.115 15.9727C264.115 16.4414 264.011 16.8711 263.803 17.2617C263.594 17.6523 263.295 17.9941 262.904 18.2871C262.514 18.5736 262.045 18.7982 261.498 18.9609C260.958 19.1172 260.349 19.1953 259.672 19.1953C258.689 19.1953 257.855 19.0195 257.172 18.668C256.495 18.3164 255.98 17.8704 255.629 17.3301C255.284 16.7832 255.111 16.2233 255.111 15.6504H257.777C257.79 16.0345 257.888 16.3438 258.07 16.5781C258.259 16.8125 258.497 16.9818 258.783 17.0859C259.076 17.1901 259.392 17.2422 259.73 17.2422C260.095 17.2422 260.398 17.1934 260.639 17.0957C260.88 16.9915 261.062 16.8548 261.186 16.6855C261.316 16.5098 261.381 16.3079 261.381 16.0801Z" fill="#1C1C1C"/>
</svg>
