<svg width="1500" height="29" viewBox="0 0 1500 29" fill="none" xmlns="http://www.w3.org/2000/svg">
<path d="M114.973 20.2578V23H105.891V20.2578H114.973ZM107.039 5.9375V23H103.523V5.9375H107.039ZM113.789 12.8867V15.5586H105.891V12.8867H113.789ZM114.961 5.9375V8.69141H105.891V5.9375H114.961ZM124.102 19.9648V10.3203H127.477V23H124.301L124.102 19.9648ZM124.477 17.3633L125.473 17.3398C125.473 18.1836 125.375 18.9688 125.18 19.6953C124.984 20.4141 124.691 21.0391 124.301 21.5703C123.91 22.0938 123.418 22.5039 122.824 22.8008C122.23 23.0898 121.531 23.2344 120.727 23.2344C120.109 23.2344 119.539 23.1484 119.016 22.9766C118.5 22.7969 118.055 22.5195 117.68 22.1445C117.312 21.7617 117.023 21.2734 116.812 20.6797C116.609 20.0781 116.508 19.3555 116.508 18.5117V10.3203H119.883V18.5352C119.883 18.9102 119.926 19.2266 120.012 19.4844C120.105 19.7422 120.234 19.9531 120.398 20.1172C120.562 20.2812 120.754 20.3984 120.973 20.4688C121.199 20.5391 121.449 20.5742 121.723 20.5742C122.418 20.5742 122.965 20.4336 123.363 20.1523C123.77 19.8711 124.055 19.4883 124.219 19.0039C124.391 18.5117 124.477 17.9648 124.477 17.3633ZM140.332 23H136.934V9.19531C136.934 8.23438 137.121 7.42578 137.496 6.76953C137.879 6.10547 138.414 5.60547 139.102 5.26953C139.797 4.92578 140.621 4.75391 141.574 4.75391C141.887 4.75391 142.188 4.77734 142.477 4.82422C142.766 4.86328 143.047 4.91406 143.32 4.97656L143.285 7.51953C143.137 7.48047 142.98 7.45312 142.816 7.4375C142.652 7.42188 142.461 7.41406 142.242 7.41406C141.836 7.41406 141.488 7.48438 141.199 7.625C140.918 7.75781 140.703 7.95703 140.555 8.22266C140.406 8.48828 140.332 8.8125 140.332 9.19531V23ZM142.863 10.3203V12.7109H135.047V10.3203H142.863ZM151.477 20.1406V14.4922C151.477 14.0859 151.41 13.7383 151.277 13.4492C151.145 13.1523 150.938 12.9219 150.656 12.7578C150.383 12.5938 150.027 12.5117 149.59 12.5117C149.215 12.5117 148.891 12.5781 148.617 12.7109C148.344 12.8359 148.133 13.0195 147.984 13.2617C147.836 13.4961 147.762 13.7734 147.762 14.0938H144.387C144.387 13.5547 144.512 13.043 144.762 12.5586C145.012 12.0742 145.375 11.6484 145.852 11.2812C146.328 10.9062 146.895 10.6133 147.551 10.4023C148.215 10.1914 148.957 10.0859 149.777 10.0859C150.762 10.0859 151.637 10.25 152.402 10.5781C153.168 10.9062 153.77 11.3984 154.207 12.0547C154.652 12.7109 154.875 13.5312 154.875 14.5156V19.9414C154.875 20.6367 154.918 21.207 155.004 21.6523C155.09 22.0898 155.215 22.4727 155.379 22.8008V23H151.969C151.805 22.6562 151.68 22.2266 151.594 21.7109C151.516 21.1875 151.477 20.6641 151.477 20.1406ZM151.922 15.2773L151.945 17.1875H150.059C149.613 17.1875 149.227 17.2383 148.898 17.3398C148.57 17.4414 148.301 17.5859 148.09 17.7734C147.879 17.9531 147.723 18.1641 147.621 18.4062C147.527 18.6484 147.48 18.9141 147.48 19.2031C147.48 19.4922 147.547 19.7539 147.68 19.9883C147.812 20.2148 148.004 20.3945 148.254 20.5273C148.504 20.6523 148.797 20.7148 149.133 20.7148C149.641 20.7148 150.082 20.6133 150.457 20.4102C150.832 20.207 151.121 19.957 151.324 19.6602C151.535 19.3633 151.645 19.082 151.652 18.8164L152.543 20.2461C152.418 20.5664 152.246 20.8984 152.027 21.2422C151.816 21.5859 151.547 21.9102 151.219 22.2148C150.891 22.5117 150.496 22.7578 150.035 22.9531C149.574 23.1406 149.027 23.2344 148.395 23.2344C147.59 23.2344 146.859 23.0742 146.203 22.7539C145.555 22.4258 145.039 21.9766 144.656 21.4062C144.281 20.8281 144.094 20.1719 144.094 19.4375C144.094 18.7734 144.219 18.1836 144.469 17.668C144.719 17.1523 145.086 16.7188 145.57 16.3672C146.062 16.0078 146.676 15.7383 147.41 15.5586C148.145 15.3711 148.996 15.2773 149.965 15.2773H151.922ZM164.977 19.9648V10.3203H168.352V23H165.176L164.977 19.9648ZM165.352 17.3633L166.348 17.3398C166.348 18.1836 166.25 18.9688 166.055 19.6953C165.859 20.4141 165.566 21.0391 165.176 21.5703C164.785 22.0938 164.293 22.5039 163.699 22.8008C163.105 23.0898 162.406 23.2344 161.602 23.2344C160.984 23.2344 160.414 23.1484 159.891 22.9766C159.375 22.7969 158.93 22.5195 158.555 22.1445C158.188 21.7617 157.898 21.2734 157.688 20.6797C157.484 20.0781 157.383 19.3555 157.383 18.5117V10.3203H160.758V18.5352C160.758 18.9102 160.801 19.2266 160.887 19.4844C160.98 19.7422 161.109 19.9531 161.273 20.1172C161.438 20.2812 161.629 20.3984 161.848 20.4688C162.074 20.5391 162.324 20.5742 162.598 20.5742C163.293 20.5742 163.84 20.4336 164.238 20.1523C164.645 19.8711 164.93 19.4883 165.094 19.0039C165.266 18.5117 165.352 17.9648 165.352 17.3633ZM176.168 20.5977C176.582 20.5977 176.949 20.5195 177.27 20.3633C177.59 20.1992 177.84 19.9727 178.02 19.6836C178.207 19.3867 178.305 19.0391 178.312 18.6406H181.488C181.48 19.5312 181.242 20.3242 180.773 21.0195C180.305 21.707 179.676 22.25 178.887 22.6484C178.098 23.0391 177.215 23.2344 176.238 23.2344C175.254 23.2344 174.395 23.0703 173.66 22.7422C172.934 22.4141 172.328 21.9609 171.844 21.3828C171.359 20.7969 170.996 20.1172 170.754 19.3438C170.512 18.5625 170.391 17.7266 170.391 16.8359V16.4961C170.391 15.5977 170.512 14.7617 170.754 13.9883C170.996 13.207 171.359 12.5273 171.844 11.9492C172.328 11.3633 172.934 10.9062 173.66 10.5781C174.387 10.25 175.238 10.0859 176.215 10.0859C177.254 10.0859 178.164 10.2852 178.945 10.6836C179.734 11.082 180.352 11.6523 180.797 12.3945C181.25 13.1289 181.48 14 181.488 15.0078H178.312C178.305 14.5859 178.215 14.2031 178.043 13.8594C177.879 13.5156 177.637 13.2422 177.316 13.0391C177.004 12.8281 176.617 12.7227 176.156 12.7227C175.664 12.7227 175.262 12.8281 174.949 13.0391C174.637 13.2422 174.395 13.5234 174.223 13.8828C174.051 14.2344 173.93 14.6367 173.859 15.0898C173.797 15.5352 173.766 16.0039 173.766 16.4961V16.8359C173.766 17.3281 173.797 17.8008 173.859 18.2539C173.922 18.707 174.039 19.1094 174.211 19.4609C174.391 19.8125 174.637 20.0898 174.949 20.293C175.262 20.4961 175.668 20.5977 176.168 20.5977ZM187.008 10.3203V23H183.621V10.3203H187.008ZM183.41 7.01562C183.41 6.52344 183.582 6.11719 183.926 5.79688C184.27 5.47656 184.73 5.31641 185.309 5.31641C185.879 5.31641 186.336 5.47656 186.68 5.79688C187.031 6.11719 187.207 6.52344 187.207 7.01562C187.207 7.50781 187.031 7.91406 186.68 8.23438C186.336 8.55469 185.879 8.71484 185.309 8.71484C184.73 8.71484 184.27 8.55469 183.926 8.23438C183.582 7.91406 183.41 7.50781 183.41 7.01562ZM189.797 5H193.172V20.0938L192.832 23H189.797V5ZM201.199 16.5312V16.7773C201.199 17.7227 201.098 18.5898 200.895 19.3789C200.699 20.168 200.395 20.8516 199.98 21.4297C199.566 22 199.051 22.4453 198.434 22.7656C197.824 23.0781 197.105 23.2344 196.277 23.2344C195.504 23.2344 194.832 23.0781 194.262 22.7656C193.699 22.4531 193.227 22.0117 192.844 21.4414C192.461 20.8711 192.152 20.2031 191.918 19.4375C191.684 18.6719 191.508 17.8359 191.391 16.9297V16.3906C191.508 15.4844 191.684 14.6484 191.918 13.8828C192.152 13.1172 192.461 12.4492 192.844 11.8789C193.227 11.3086 193.699 10.8672 194.262 10.5547C194.824 10.2422 195.488 10.0859 196.254 10.0859C197.09 10.0859 197.816 10.2461 198.434 10.5664C199.059 10.8789 199.574 11.3242 199.98 11.9023C200.395 12.4727 200.699 13.1523 200.895 13.9414C201.098 14.7227 201.199 15.5859 201.199 16.5312ZM197.824 16.7773V16.5312C197.824 16.0156 197.785 15.5312 197.707 15.0781C197.637 14.6172 197.512 14.2148 197.332 13.8711C197.152 13.5195 196.906 13.2422 196.594 13.0391C196.289 12.8359 195.895 12.7344 195.41 12.7344C194.949 12.7344 194.559 12.8125 194.238 12.9688C193.918 13.125 193.652 13.3438 193.441 13.625C193.238 13.9062 193.086 14.2422 192.984 14.6328C192.883 15.0156 192.82 15.4375 192.797 15.8984V17.4336C192.82 18.0508 192.922 18.5977 193.102 19.0742C193.289 19.543 193.57 19.9141 193.945 20.1875C194.328 20.4531 194.824 20.5859 195.434 20.5859C195.91 20.5859 196.305 20.4922 196.617 20.3047C196.93 20.1172 197.172 19.8516 197.344 19.5078C197.523 19.1641 197.648 18.7617 197.719 18.3008C197.789 17.832 197.824 17.3242 197.824 16.7773ZM210.797 19.9648V10.3203H214.172V23H210.996L210.797 19.9648ZM211.172 17.3633L212.168 17.3398C212.168 18.1836 212.07 18.9688 211.875 19.6953C211.68 20.4141 211.387 21.0391 210.996 21.5703C210.605 22.0938 210.113 22.5039 209.52 22.8008C208.926 23.0898 208.227 23.2344 207.422 23.2344C206.805 23.2344 206.234 23.1484 205.711 22.9766C205.195 22.7969 204.75 22.5195 204.375 22.1445C204.008 21.7617 203.719 21.2734 203.508 20.6797C203.305 20.0781 203.203 19.3555 203.203 18.5117V10.3203H206.578V18.5352C206.578 18.9102 206.621 19.2266 206.707 19.4844C206.801 19.7422 206.93 19.9531 207.094 20.1172C207.258 20.2812 207.449 20.3984 207.668 20.4688C207.895 20.5391 208.145 20.5742 208.418 20.5742C209.113 20.5742 209.66 20.4336 210.059 20.1523C210.465 19.8711 210.75 19.4883 210.914 19.0039C211.086 18.5117 211.172 17.9648 211.172 17.3633ZM223.605 19.4961C223.605 19.2539 223.535 19.0352 223.395 18.8398C223.254 18.6445 222.992 18.4648 222.609 18.3008C222.234 18.1289 221.691 17.9727 220.98 17.832C220.34 17.6914 219.742 17.5156 219.188 17.3047C218.641 17.0859 218.164 16.8242 217.758 16.5195C217.359 16.2148 217.047 15.8555 216.82 15.4414C216.594 15.0195 216.48 14.5391 216.48 14C216.48 13.4688 216.594 12.9688 216.82 12.5C217.055 12.0312 217.387 11.6172 217.816 11.2578C218.254 10.8906 218.785 10.6055 219.41 10.4023C220.043 10.1914 220.754 10.0859 221.543 10.0859C222.645 10.0859 223.59 10.2617 224.379 10.6133C225.176 10.9648 225.785 11.4492 226.207 12.0664C226.637 12.6758 226.852 13.3711 226.852 14.1523H223.477C223.477 13.8242 223.406 13.5312 223.266 13.2734C223.133 13.0078 222.922 12.8008 222.633 12.6523C222.352 12.4961 221.984 12.418 221.531 12.418C221.156 12.418 220.832 12.4844 220.559 12.6172C220.285 12.7422 220.074 12.9141 219.926 13.1328C219.785 13.3438 219.715 13.5781 219.715 13.8359C219.715 14.0312 219.754 14.207 219.832 14.3633C219.918 14.5117 220.055 14.6484 220.242 14.7734C220.43 14.8984 220.672 15.0156 220.969 15.125C221.273 15.2266 221.648 15.3203 222.094 15.4062C223.008 15.5938 223.824 15.8398 224.543 16.1445C225.262 16.4414 225.832 16.8477 226.254 17.3633C226.676 17.8711 226.887 18.5391 226.887 19.3672C226.887 19.9297 226.762 20.4453 226.512 20.9141C226.262 21.3828 225.902 21.793 225.434 22.1445C224.965 22.4883 224.402 22.7578 223.746 22.9531C223.098 23.1406 222.367 23.2344 221.555 23.2344C220.375 23.2344 219.375 23.0234 218.555 22.6016C217.742 22.1797 217.125 21.6445 216.703 20.9961C216.289 20.3398 216.082 19.668 216.082 18.9805H219.281C219.297 19.4414 219.414 19.8125 219.633 20.0938C219.859 20.375 220.145 20.5781 220.488 20.7031C220.84 20.8281 221.219 20.8906 221.625 20.8906C222.062 20.8906 222.426 20.832 222.715 20.7148C223.004 20.5898 223.223 20.4258 223.371 20.2227C223.527 20.0117 223.605 19.7695 223.605 19.4961ZM239.367 20.5391L242.18 10.3203H245.707L241.43 23H239.297L239.367 20.5391ZM237.434 10.3203L240.258 20.5508L240.316 23H238.172L233.895 10.3203H237.434ZM250.781 10.3203V23H247.395V10.3203H250.781ZM247.184 7.01562C247.184 6.52344 247.355 6.11719 247.699 5.79688C248.043 5.47656 248.504 5.31641 249.082 5.31641C249.652 5.31641 250.109 5.47656 250.453 5.79688C250.805 6.11719 250.98 6.52344 250.98 7.01562C250.98 7.50781 250.805 7.91406 250.453 8.23438C250.109 8.55469 249.652 8.71484 249.082 8.71484C248.504 8.71484 248.043 8.55469 247.699 8.23438C247.355 7.91406 247.184 7.50781 247.184 7.01562ZM257.883 20.5391L260.695 10.3203H264.223L259.945 23H257.812L257.883 20.5391ZM255.949 10.3203L258.773 20.5508L258.832 23H256.688L252.41 10.3203H255.949ZM271.406 23.2344C270.422 23.2344 269.539 23.0781 268.758 22.7656C267.977 22.4453 267.312 22.0039 266.766 21.4414C266.227 20.8789 265.812 20.2266 265.523 19.4844C265.234 18.7344 265.09 17.9375 265.09 17.0938V16.625C265.09 15.6641 265.227 14.7852 265.5 13.9883C265.773 13.1914 266.164 12.5 266.672 11.9141C267.188 11.3281 267.812 10.8789 268.547 10.5664C269.281 10.2461 270.109 10.0859 271.031 10.0859C271.93 10.0859 272.727 10.2344 273.422 10.5312C274.117 10.8281 274.699 11.25 275.168 11.7969C275.645 12.3438 276.004 13 276.246 13.7656C276.488 14.5234 276.609 15.3672 276.609 16.2969V17.7031H266.531V15.4531H273.293V15.1953C273.293 14.7266 273.207 14.3086 273.035 13.9414C272.871 13.5664 272.621 13.2695 272.285 13.0508C271.949 12.832 271.52 12.7227 270.996 12.7227C270.551 12.7227 270.168 12.8203 269.848 13.0156C269.527 13.2109 269.266 13.4844 269.062 13.8359C268.867 14.1875 268.719 14.6016 268.617 15.0781C268.523 15.5469 268.477 16.0625 268.477 16.625V17.0938C268.477 17.6016 268.547 18.0703 268.688 18.5C268.836 18.9297 269.043 19.3008 269.309 19.6133C269.582 19.9258 269.91 20.168 270.293 20.3398C270.684 20.5117 271.125 20.5977 271.617 20.5977C272.227 20.5977 272.793 20.4805 273.316 20.2461C273.848 20.0039 274.305 19.6406 274.688 19.1562L276.328 20.9375C276.062 21.3203 275.699 21.6875 275.238 22.0391C274.785 22.3906 274.238 22.6797 273.598 22.9062C272.957 23.125 272.227 23.2344 271.406 23.2344ZM281.906 13.0859V23H278.531V10.3203H281.707L281.906 13.0859ZM285.727 10.2383L285.668 13.3672C285.504 13.3438 285.305 13.3242 285.07 13.3086C284.844 13.2852 284.637 13.2734 284.449 13.2734C283.973 13.2734 283.559 13.3359 283.207 13.4609C282.863 13.5781 282.574 13.7539 282.34 13.9883C282.113 14.2227 281.941 14.5078 281.824 14.8438C281.715 15.1797 281.652 15.5625 281.637 15.9922L280.957 15.7812C280.957 14.9609 281.039 14.207 281.203 13.5195C281.367 12.8242 281.605 12.2188 281.918 11.7031C282.238 11.1875 282.629 10.7891 283.09 10.5078C283.551 10.2266 284.078 10.0859 284.672 10.0859C284.859 10.0859 285.051 10.1016 285.246 10.1328C285.441 10.1562 285.602 10.1914 285.727 10.2383ZM290.695 13.0859V23H287.32V10.3203H290.496L290.695 13.0859ZM294.516 10.2383L294.457 13.3672C294.293 13.3438 294.094 13.3242 293.859 13.3086C293.633 13.2852 293.426 13.2734 293.238 13.2734C292.762 13.2734 292.348 13.3359 291.996 13.4609C291.652 13.5781 291.363 13.7539 291.129 13.9883C290.902 14.2227 290.73 14.5078 290.613 14.8438C290.504 15.1797 290.441 15.5625 290.426 15.9922L289.746 15.7812C289.746 14.9609 289.828 14.207 289.992 13.5195C290.156 12.8242 290.395 12.2188 290.707 11.7031C291.027 11.1875 291.418 10.7891 291.879 10.5078C292.34 10.2266 292.867 10.0859 293.461 10.0859C293.648 10.0859 293.84 10.1016 294.035 10.1328C294.23 10.1562 294.391 10.1914 294.516 10.2383ZM302.555 20.1406V14.4922C302.555 14.0859 302.488 13.7383 302.355 13.4492C302.223 13.1523 302.016 12.9219 301.734 12.7578C301.461 12.5938 301.105 12.5117 300.668 12.5117C300.293 12.5117 299.969 12.5781 299.695 12.7109C299.422 12.8359 299.211 13.0195 299.062 13.2617C298.914 13.4961 298.84 13.7734 298.84 14.0938H295.465C295.465 13.5547 295.59 13.043 295.84 12.5586C296.09 12.0742 296.453 11.6484 296.93 11.2812C297.406 10.9062 297.973 10.6133 298.629 10.4023C299.293 10.1914 300.035 10.0859 300.855 10.0859C301.84 10.0859 302.715 10.25 303.48 10.5781C304.246 10.9062 304.848 11.3984 305.285 12.0547C305.73 12.7109 305.953 13.5312 305.953 14.5156V19.9414C305.953 20.6367 305.996 21.207 306.082 21.6523C306.168 22.0898 306.293 22.4727 306.457 22.8008V23H303.047C302.883 22.6562 302.758 22.2266 302.672 21.7109C302.594 21.1875 302.555 20.6641 302.555 20.1406ZM303 15.2773L303.023 17.1875H301.137C300.691 17.1875 300.305 17.2383 299.977 17.3398C299.648 17.4414 299.379 17.5859 299.168 17.7734C298.957 17.9531 298.801 18.1641 298.699 18.4062C298.605 18.6484 298.559 18.9141 298.559 19.2031C298.559 19.4922 298.625 19.7539 298.758 19.9883C298.891 20.2148 299.082 20.3945 299.332 20.5273C299.582 20.6523 299.875 20.7148 300.211 20.7148C300.719 20.7148 301.16 20.6133 301.535 20.4102C301.91 20.207 302.199 19.957 302.402 19.6602C302.613 19.3633 302.723 19.082 302.73 18.8164L303.621 20.2461C303.496 20.5664 303.324 20.8984 303.105 21.2422C302.895 21.5859 302.625 21.9102 302.297 22.2148C301.969 22.5117 301.574 22.7578 301.113 22.9531C300.652 23.1406 300.105 23.2344 299.473 23.2344C298.668 23.2344 297.938 23.0742 297.281 22.7539C296.633 22.4258 296.117 21.9766 295.734 21.4062C295.359 20.8281 295.172 20.1719 295.172 19.4375C295.172 18.7734 295.297 18.1836 295.547 17.668C295.797 17.1523 296.164 16.7188 296.648 16.3672C297.141 16.0078 297.754 15.7383 298.488 15.5586C299.223 15.3711 300.074 15.2773 301.043 15.2773H303ZM321.375 20.1406V14.4922C321.375 14.0859 321.309 13.7383 321.176 13.4492C321.043 13.1523 320.836 12.9219 320.555 12.7578C320.281 12.5938 319.926 12.5117 319.488 12.5117C319.113 12.5117 318.789 12.5781 318.516 12.7109C318.242 12.8359 318.031 13.0195 317.883 13.2617C317.734 13.4961 317.66 13.7734 317.66 14.0938H314.285C314.285 13.5547 314.41 13.043 314.66 12.5586C314.91 12.0742 315.273 11.6484 315.75 11.2812C316.227 10.9062 316.793 10.6133 317.449 10.4023C318.113 10.1914 318.855 10.0859 319.676 10.0859C320.66 10.0859 321.535 10.25 322.301 10.5781C323.066 10.9062 323.668 11.3984 324.105 12.0547C324.551 12.7109 324.773 13.5312 324.773 14.5156V19.9414C324.773 20.6367 324.816 21.207 324.902 21.6523C324.988 22.0898 325.113 22.4727 325.277 22.8008V23H321.867C321.703 22.6562 321.578 22.2266 321.492 21.7109C321.414 21.1875 321.375 20.6641 321.375 20.1406ZM321.82 15.2773L321.844 17.1875H319.957C319.512 17.1875 319.125 17.2383 318.797 17.3398C318.469 17.4414 318.199 17.5859 317.988 17.7734C317.777 17.9531 317.621 18.1641 317.52 18.4062C317.426 18.6484 317.379 18.9141 317.379 19.2031C317.379 19.4922 317.445 19.7539 317.578 19.9883C317.711 20.2148 317.902 20.3945 318.152 20.5273C318.402 20.6523 318.695 20.7148 319.031 20.7148C319.539 20.7148 319.98 20.6133 320.355 20.4102C320.73 20.207 321.02 19.957 321.223 19.6602C321.434 19.3633 321.543 19.082 321.551 18.8164L322.441 20.2461C322.316 20.5664 322.145 20.8984 321.926 21.2422C321.715 21.5859 321.445 21.9102 321.117 22.2148C320.789 22.5117 320.395 22.7578 319.934 22.9531C319.473 23.1406 318.926 23.2344 318.293 23.2344C317.488 23.2344 316.758 23.0742 316.102 22.7539C315.453 22.4258 314.938 21.9766 314.555 21.4062C314.18 20.8281 313.992 20.1719 313.992 19.4375C313.992 18.7734 314.117 18.1836 314.367 17.668C314.617 17.1523 314.984 16.7188 315.469 16.3672C315.961 16.0078 316.574 15.7383 317.309 15.5586C318.043 15.3711 318.895 15.2773 319.863 15.2773H321.82ZM336.727 12.9453V23H333.34V10.3203H336.516L336.727 12.9453ZM336.258 16.2148H335.32C335.32 15.332 335.426 14.5195 335.637 13.7773C335.855 13.0273 336.172 12.3789 336.586 11.832C337.008 11.2773 337.527 10.8477 338.145 10.543C338.762 10.2383 339.477 10.0859 340.289 10.0859C340.852 10.0859 341.367 10.1719 341.836 10.3438C342.305 10.5078 342.707 10.7695 343.043 11.1289C343.387 11.4805 343.652 11.9414 343.84 12.5117C344.027 13.0742 344.121 13.75 344.121 14.5391V23H340.746V14.9141C340.746 14.3359 340.668 13.8906 340.512 13.5781C340.355 13.2656 340.133 13.0469 339.844 12.9219C339.562 12.7969 339.223 12.7344 338.824 12.7344C338.387 12.7344 338.004 12.8242 337.676 13.0039C337.355 13.1836 337.09 13.4336 336.879 13.7539C336.668 14.0664 336.512 14.4336 336.41 14.8555C336.309 15.2773 336.258 15.7305 336.258 16.2148ZM343.805 15.8281L342.598 15.9805C342.598 15.1523 342.699 14.3828 342.902 13.6719C343.113 12.9609 343.422 12.3359 343.828 11.7969C344.242 11.2578 344.754 10.8398 345.363 10.543C345.973 10.2383 346.676 10.0859 347.473 10.0859C348.082 10.0859 348.637 10.1758 349.137 10.3555C349.637 10.5273 350.062 10.8047 350.414 11.1875C350.773 11.5625 351.047 12.0547 351.234 12.6641C351.43 13.2734 351.527 14.0195 351.527 14.9023V23H348.141V14.9023C348.141 14.3164 348.062 13.8711 347.906 13.5664C347.758 13.2539 347.539 13.0391 347.25 12.9219C346.969 12.7969 346.633 12.7344 346.242 12.7344C345.836 12.7344 345.48 12.8164 345.176 12.9805C344.871 13.1367 344.617 13.3555 344.414 13.6367C344.211 13.918 344.059 14.2461 343.957 14.6211C343.855 14.9883 343.805 15.3906 343.805 15.8281ZM360.984 20.1406V14.4922C360.984 14.0859 360.918 13.7383 360.785 13.4492C360.652 13.1523 360.445 12.9219 360.164 12.7578C359.891 12.5938 359.535 12.5117 359.098 12.5117C358.723 12.5117 358.398 12.5781 358.125 12.7109C357.852 12.8359 357.641 13.0195 357.492 13.2617C357.344 13.4961 357.27 13.7734 357.27 14.0938H353.895C353.895 13.5547 354.02 13.043 354.27 12.5586C354.52 12.0742 354.883 11.6484 355.359 11.2812C355.836 10.9062 356.402 10.6133 357.059 10.4023C357.723 10.1914 358.465 10.0859 359.285 10.0859C360.27 10.0859 361.145 10.25 361.91 10.5781C362.676 10.9062 363.277 11.3984 363.715 12.0547C364.16 12.7109 364.383 13.5312 364.383 14.5156V19.9414C364.383 20.6367 364.426 21.207 364.512 21.6523C364.598 22.0898 364.723 22.4727 364.887 22.8008V23H361.477C361.312 22.6562 361.188 22.2266 361.102 21.7109C361.023 21.1875 360.984 20.6641 360.984 20.1406ZM361.43 15.2773L361.453 17.1875H359.566C359.121 17.1875 358.734 17.2383 358.406 17.3398C358.078 17.4414 357.809 17.5859 357.598 17.7734C357.387 17.9531 357.23 18.1641 357.129 18.4062C357.035 18.6484 356.988 18.9141 356.988 19.2031C356.988 19.4922 357.055 19.7539 357.188 19.9883C357.32 20.2148 357.512 20.3945 357.762 20.5273C358.012 20.6523 358.305 20.7148 358.641 20.7148C359.148 20.7148 359.59 20.6133 359.965 20.4102C360.34 20.207 360.629 19.957 360.832 19.6602C361.043 19.3633 361.152 19.082 361.16 18.8164L362.051 20.2461C361.926 20.5664 361.754 20.8984 361.535 21.2422C361.324 21.5859 361.055 21.9102 360.727 22.2148C360.398 22.5117 360.004 22.7578 359.543 22.9531C359.082 23.1406 358.535 23.2344 357.902 23.2344C357.098 23.2344 356.367 23.0742 355.711 22.7539C355.062 22.4258 354.547 21.9766 354.164 21.4062C353.789 20.8281 353.602 20.1719 353.602 19.4375C353.602 18.7734 353.727 18.1836 353.977 17.668C354.227 17.1523 354.594 16.7188 355.078 16.3672C355.57 16.0078 356.184 15.7383 356.918 15.5586C357.652 15.3711 358.504 15.2773 359.473 15.2773H361.43ZM373.195 10.3203V12.7109H365.812V10.3203H373.195ZM367.641 7.19141H371.016V19.1797C371.016 19.5469 371.062 19.8281 371.156 20.0234C371.258 20.2188 371.406 20.3555 371.602 20.4336C371.797 20.5039 372.043 20.5391 372.34 20.5391C372.551 20.5391 372.738 20.5312 372.902 20.5156C373.074 20.4922 373.219 20.4688 373.336 20.4453L373.348 22.9297C373.059 23.0234 372.746 23.0977 372.41 23.1523C372.074 23.207 371.703 23.2344 371.297 23.2344C370.555 23.2344 369.906 23.1133 369.352 22.8711C368.805 22.6211 368.383 22.2227 368.086 21.6758C367.789 21.1289 367.641 20.4102 367.641 19.5195V7.19141ZM381.328 10.3203V12.7109H373.945V10.3203H381.328ZM375.773 7.19141H379.148V19.1797C379.148 19.5469 379.195 19.8281 379.289 20.0234C379.391 20.2188 379.539 20.3555 379.734 20.4336C379.93 20.5039 380.176 20.5391 380.473 20.5391C380.684 20.5391 380.871 20.5312 381.035 20.5156C381.207 20.4922 381.352 20.4688 381.469 20.4453L381.48 22.9297C381.191 23.0234 380.879 23.0977 380.543 23.1523C380.207 23.207 379.836 23.2344 379.43 23.2344C378.688 23.2344 378.039 23.1133 377.484 22.8711C376.938 22.6211 376.516 22.2227 376.219 21.6758C375.922 21.1289 375.773 20.4102 375.773 19.5195V7.19141ZM386.812 10.3203V23H383.426V10.3203H386.812ZM383.215 7.01562C383.215 6.52344 383.387 6.11719 383.73 5.79688C384.074 5.47656 384.535 5.31641 385.113 5.31641C385.684 5.31641 386.141 5.47656 386.484 5.79688C386.836 6.11719 387.012 6.52344 387.012 7.01562C387.012 7.50781 386.836 7.91406 386.484 8.23438C386.141 8.55469 385.684 8.71484 385.113 8.71484C384.535 8.71484 384.074 8.55469 383.73 8.23438C383.387 7.91406 383.215 7.50781 383.215 7.01562ZM396.457 19.4961C396.457 19.2539 396.387 19.0352 396.246 18.8398C396.105 18.6445 395.844 18.4648 395.461 18.3008C395.086 18.1289 394.543 17.9727 393.832 17.832C393.191 17.6914 392.594 17.5156 392.039 17.3047C391.492 17.0859 391.016 16.8242 390.609 16.5195C390.211 16.2148 389.898 15.8555 389.672 15.4414C389.445 15.0195 389.332 14.5391 389.332 14C389.332 13.4688 389.445 12.9688 389.672 12.5C389.906 12.0312 390.238 11.6172 390.668 11.2578C391.105 10.8906 391.637 10.6055 392.262 10.4023C392.895 10.1914 393.605 10.0859 394.395 10.0859C395.496 10.0859 396.441 10.2617 397.23 10.6133C398.027 10.9648 398.637 11.4492 399.059 12.0664C399.488 12.6758 399.703 13.3711 399.703 14.1523H396.328C396.328 13.8242 396.258 13.5312 396.117 13.2734C395.984 13.0078 395.773 12.8008 395.484 12.6523C395.203 12.4961 394.836 12.418 394.383 12.418C394.008 12.418 393.684 12.4844 393.41 12.6172C393.137 12.7422 392.926 12.9141 392.777 13.1328C392.637 13.3438 392.566 13.5781 392.566 13.8359C392.566 14.0312 392.605 14.207 392.684 14.3633C392.77 14.5117 392.906 14.6484 393.094 14.7734C393.281 14.8984 393.523 15.0156 393.82 15.125C394.125 15.2266 394.5 15.3203 394.945 15.4062C395.859 15.5938 396.676 15.8398 397.395 16.1445C398.113 16.4414 398.684 16.8477 399.105 17.3633C399.527 17.8711 399.738 18.5391 399.738 19.3672C399.738 19.9297 399.613 20.4453 399.363 20.9141C399.113 21.3828 398.754 21.793 398.285 22.1445C397.816 22.4883 397.254 22.7578 396.598 22.9531C395.949 23.1406 395.219 23.2344 394.406 23.2344C393.227 23.2344 392.227 23.0234 391.406 22.6016C390.594 22.1797 389.977 21.6445 389.555 20.9961C389.141 20.3398 388.934 19.668 388.934 18.9805H392.133C392.148 19.4414 392.266 19.8125 392.484 20.0938C392.711 20.375 392.996 20.5781 393.34 20.7031C393.691 20.8281 394.07 20.8906 394.477 20.8906C394.914 20.8906 395.277 20.832 395.566 20.7148C395.855 20.5898 396.074 20.4258 396.223 20.2227C396.379 20.0117 396.457 19.7695 396.457 19.4961Z" fill="#1C1C1C"/>
</svg>
