<svg width="360" height="32" viewBox="0 0 360 32" fill="none" xmlns="http://www.w3.org/2000/svg">
<rect width="360" height="32" fill="white"/>
<path d="M24 8.81995L17.5 14.7799V22.9999H23V18.4999H25V22.9999H30.5V14.7799L24 8.81995ZM29.5 21.9999H26V17.4999H22V21.9999H18.5V15.2199L24 10.1799L29.5 15.2199V21.9999Z" fill="#1C1C1C"/>
<path d="M48.3536 11.1465L53.2071 16L48.3536 20.8536L47.6465 20.1465L51.7929 16L47.6465 11.8536L48.3536 11.1465Z" fill="#C9C9C9"/>
<rect x="68" y="8" width="36" height="16" rx="4" fill="#F4F4F4"/>
<circle cx="78" cy="16" r="2" fill="#1C1C1C"/>
<circle cx="86" cy="16" r="2" fill="#1C1C1C"/>
<circle cx="94" cy="16" r="2" fill="#1C1C1C"/>
<path d="M120.354 11.1465L125.207 16L120.354 20.8536L119.646 20.1465L123.793 16L119.646 11.8536L120.354 11.1465Z" fill="#C9C9C9"/>
<path d="M144.148 12.7246L141.324 20.5H140.17L143.422 11.9688H144.166L144.148 12.7246ZM146.516 20.5L143.686 12.7246L143.668 11.9688H144.412L147.676 20.5H146.516ZM146.369 17.3418V18.2676H141.576V17.3418H146.369ZM152.89 19.2695V11.5H153.98V20.5H152.984L152.89 19.2695ZM148.625 17.4004V17.2773C148.625 16.793 148.683 16.3535 148.801 15.959C148.922 15.5605 149.092 15.2188 149.31 14.9336C149.533 14.6484 149.797 14.4297 150.101 14.2773C150.41 14.1211 150.754 14.043 151.133 14.043C151.531 14.043 151.879 14.1133 152.176 14.2539C152.476 14.3906 152.73 14.5918 152.937 14.8574C153.148 15.1191 153.314 15.4355 153.435 15.8066C153.556 16.1777 153.64 16.5977 153.687 17.0664V17.6055C153.644 18.0703 153.56 18.4883 153.435 18.8594C153.314 19.2305 153.148 19.5469 152.937 19.8086C152.73 20.0703 152.476 20.2715 152.176 20.4121C151.875 20.5488 151.523 20.6172 151.121 20.6172C150.75 20.6172 150.41 20.5371 150.101 20.377C149.797 20.2168 149.533 19.9922 149.31 19.7031C149.092 19.4141 148.922 19.0742 148.801 18.6836C148.683 18.2891 148.625 17.8613 148.625 17.4004ZM149.715 17.2773V17.4004C149.715 17.7168 149.746 18.0137 149.808 18.291C149.875 18.5684 149.976 18.8125 150.113 19.0234C150.25 19.2344 150.424 19.4004 150.635 19.5215C150.845 19.6387 151.097 19.6973 151.39 19.6973C151.75 19.6973 152.045 19.6211 152.275 19.4688C152.51 19.3164 152.697 19.1152 152.838 18.8652C152.978 18.6152 153.088 18.3438 153.166 18.0508V16.6387C153.119 16.4238 153.051 16.2168 152.961 16.0176C152.875 15.8145 152.761 15.6348 152.621 15.4785C152.484 15.3184 152.314 15.1914 152.111 15.0977C151.912 15.0039 151.676 14.957 151.402 14.957C151.105 14.957 150.849 15.0195 150.635 15.1445C150.424 15.2656 150.25 15.4336 150.113 15.6484C149.976 15.8594 149.875 16.1055 149.808 16.3867C149.746 16.6641 149.715 16.9609 149.715 17.2773ZM157.085 14.1602V20.5H155.996V14.1602H157.085ZM155.914 12.4785C155.914 12.3027 155.966 12.1543 156.072 12.0332C156.181 11.9121 156.341 11.8516 156.552 11.8516C156.759 11.8516 156.917 11.9121 157.027 12.0332C157.14 12.1543 157.197 12.3027 157.197 12.4785C157.197 12.6465 157.14 12.791 157.027 12.9121C156.917 13.0293 156.759 13.0879 156.552 13.0879C156.341 13.0879 156.181 13.0293 156.072 12.9121C155.966 12.791 155.914 12.6465 155.914 12.4785ZM160.15 15.3789V22.9375H159.06V14.1602H160.056L160.15 15.3789ZM164.421 17.2773V17.4004C164.421 17.8613 164.366 18.2891 164.257 18.6836C164.148 19.0742 163.988 19.4141 163.777 19.7031C163.57 19.9922 163.314 20.2168 163.009 20.377C162.704 20.5371 162.355 20.6172 161.96 20.6172C161.558 20.6172 161.202 20.5508 160.894 20.418C160.585 20.2852 160.324 20.0918 160.109 19.8379C159.894 19.584 159.722 19.2793 159.593 18.9238C159.468 18.5684 159.382 18.168 159.335 17.7227V17.0664C159.382 16.5977 159.47 16.1777 159.599 15.8066C159.728 15.4355 159.898 15.1191 160.109 14.8574C160.324 14.5918 160.583 14.3906 160.888 14.2539C161.193 14.1133 161.544 14.043 161.943 14.043C162.341 14.043 162.695 14.1211 163.003 14.2773C163.312 14.4297 163.572 14.6484 163.782 14.9336C163.993 15.2188 164.152 15.5605 164.257 15.959C164.366 16.3535 164.421 16.793 164.421 17.2773ZM163.331 17.4004V17.2773C163.331 16.9609 163.298 16.6641 163.232 16.3867C163.165 16.1055 163.062 15.8594 162.921 15.6484C162.784 15.4336 162.609 15.2656 162.394 15.1445C162.179 15.0195 161.923 14.957 161.626 14.957C161.353 14.957 161.115 15.0039 160.911 15.0977C160.712 15.1914 160.542 15.3184 160.402 15.4785C160.261 15.6348 160.146 15.8145 160.056 16.0176C159.97 16.2168 159.906 16.4238 159.863 16.6387V18.1562C159.941 18.4297 160.05 18.6875 160.191 18.9297C160.331 19.168 160.519 19.3613 160.753 19.5098C160.988 19.6543 161.282 19.7266 161.638 19.7266C161.931 19.7266 162.183 19.666 162.394 19.5449C162.609 19.4199 162.784 19.25 162.921 19.0352C163.062 18.8203 163.165 18.5742 163.232 18.2969C163.298 18.0156 163.331 17.7168 163.331 17.4004ZM167.222 14.1602V20.5H166.132V14.1602H167.222ZM166.05 12.4785C166.05 12.3027 166.103 12.1543 166.208 12.0332C166.317 11.9121 166.478 11.8516 166.689 11.8516C166.896 11.8516 167.054 11.9121 167.163 12.0332C167.276 12.1543 167.333 12.3027 167.333 12.4785C167.333 12.6465 167.276 12.791 167.163 12.9121C167.054 13.0293 166.896 13.0879 166.689 13.0879C166.478 13.0879 166.317 13.0293 166.208 12.9121C166.103 12.791 166.05 12.6465 166.05 12.4785ZM172.893 18.8184C172.893 18.6621 172.858 18.5176 172.788 18.3848C172.721 18.248 172.583 18.125 172.372 18.0156C172.165 17.9023 171.852 17.8047 171.434 17.7227C171.083 17.6484 170.764 17.5605 170.479 17.459C170.198 17.3574 169.958 17.2344 169.759 17.0898C169.563 16.9453 169.413 16.7754 169.307 16.5801C169.202 16.3848 169.149 16.1562 169.149 15.8945C169.149 15.6445 169.204 15.4082 169.313 15.1855C169.427 14.9629 169.585 14.7656 169.788 14.5938C169.995 14.4219 170.243 14.2871 170.532 14.1895C170.821 14.0918 171.143 14.043 171.499 14.043C172.007 14.043 172.44 14.1328 172.8 14.3125C173.159 14.4922 173.434 14.7324 173.626 15.0332C173.817 15.3301 173.913 15.6602 173.913 16.0234H172.829C172.829 15.8477 172.776 15.6777 172.671 15.5137C172.569 15.3457 172.419 15.207 172.22 15.0977C172.024 14.9883 171.784 14.9336 171.499 14.9336C171.198 14.9336 170.954 14.9805 170.766 15.0742C170.583 15.1641 170.448 15.2793 170.362 15.4199C170.28 15.5605 170.239 15.709 170.239 15.8652C170.239 15.9824 170.259 16.0879 170.298 16.1816C170.341 16.2715 170.415 16.3555 170.52 16.4336C170.626 16.5078 170.774 16.5781 170.966 16.6445C171.157 16.7109 171.401 16.7773 171.698 16.8438C172.218 16.9609 172.645 17.1016 172.981 17.2656C173.317 17.4297 173.567 17.6309 173.731 17.8691C173.895 18.1074 173.977 18.3965 173.977 18.7363C173.977 19.0137 173.919 19.2676 173.802 19.498C173.688 19.7285 173.522 19.9277 173.304 20.0957C173.089 20.2598 172.831 20.3887 172.53 20.4824C172.233 20.5723 171.899 20.6172 171.528 20.6172C170.97 20.6172 170.497 20.5176 170.11 20.3184C169.723 20.1191 169.43 19.8613 169.231 19.5449C169.032 19.2285 168.932 18.8945 168.932 18.543H170.022C170.038 18.8398 170.124 19.0762 170.28 19.252C170.436 19.4238 170.628 19.5469 170.854 19.6211C171.081 19.6914 171.305 19.7266 171.528 19.7266C171.825 19.7266 172.073 19.6875 172.272 19.6094C172.475 19.5312 172.63 19.4238 172.735 19.2871C172.841 19.1504 172.893 18.9941 172.893 18.8184Z" fill="#8A8A8A"/>
</svg>
