<svg width="1500" height="41" viewBox="0 0 1500 41" fill="none" xmlns="http://www.w3.org/2000/svg">
<rect width="1500" height="41" fill="white"/>
<path d="M104.203 16.4688V25H103.072V16.4688H104.203ZM107.42 20.0137V25H106.336V18.6602H107.361L107.42 20.0137ZM107.162 21.5898L106.711 21.5723C106.715 21.1387 106.779 20.7383 106.904 20.3711C107.029 20 107.205 19.6777 107.431 19.4043C107.658 19.1309 107.928 18.9199 108.24 18.7715C108.556 18.6191 108.906 18.543 109.289 18.543C109.601 18.543 109.883 18.5859 110.133 18.6719C110.383 18.7539 110.595 18.8867 110.771 19.0703C110.951 19.2539 111.088 19.4922 111.181 19.7852C111.275 20.0742 111.322 20.4277 111.322 20.8457V25H110.232V20.834C110.232 20.502 110.183 20.2363 110.086 20.0371C109.988 19.834 109.845 19.6875 109.658 19.5977C109.47 19.5039 109.24 19.457 108.967 19.457C108.697 19.457 108.451 19.5137 108.228 19.627C108.01 19.7402 107.82 19.8965 107.66 20.0957C107.504 20.2949 107.381 20.5234 107.291 20.7812C107.205 21.0352 107.162 21.3047 107.162 21.5898ZM114.386 18.6602V25H113.296V18.6602H114.386ZM113.214 16.9785C113.214 16.8027 113.267 16.6543 113.373 16.5332C113.482 16.4121 113.642 16.3516 113.853 16.3516C114.06 16.3516 114.218 16.4121 114.328 16.5332C114.441 16.6543 114.498 16.8027 114.498 16.9785C114.498 17.1465 114.441 17.291 114.328 17.4121C114.218 17.5293 114.06 17.5879 113.853 17.5879C113.642 17.5879 113.482 17.5293 113.373 17.4121C113.267 17.291 113.214 17.1465 113.214 16.9785ZM118.904 24.2266C119.161 24.2266 119.4 24.1738 119.618 24.0684C119.837 23.9629 120.017 23.8184 120.158 23.6348C120.298 23.4473 120.378 23.2344 120.398 22.9961H121.429C121.409 23.3711 121.283 23.7207 121.048 24.0449C120.818 24.3652 120.515 24.625 120.14 24.8242C119.765 25.0195 119.353 25.1172 118.904 25.1172C118.427 25.1172 118.011 25.0332 117.656 24.8652C117.304 24.6973 117.011 24.4668 116.777 24.1738C116.546 23.8809 116.372 23.5449 116.255 23.166C116.142 22.7832 116.085 22.3789 116.085 21.9531V21.707C116.085 21.2812 116.142 20.8789 116.255 20.5C116.372 20.1172 116.546 19.7793 116.777 19.4863C117.011 19.1934 117.304 18.9629 117.656 18.7949C118.011 18.627 118.427 18.543 118.904 18.543C119.4 18.543 119.833 18.6445 120.204 18.8477C120.575 19.0469 120.866 19.3203 121.077 19.668C121.292 20.0117 121.409 20.4023 121.429 20.8398H120.398C120.378 20.5781 120.304 20.3418 120.175 20.1309C120.05 19.9199 119.878 19.752 119.659 19.627C119.445 19.498 119.193 19.4336 118.904 19.4336C118.572 19.4336 118.292 19.5 118.066 19.6328C117.843 19.7617 117.665 19.9375 117.533 20.1602C117.404 20.3789 117.31 20.623 117.251 20.8926C117.197 21.1582 117.169 21.4297 117.169 21.707V21.9531C117.169 22.2305 117.197 22.5039 117.251 22.7734C117.306 23.043 117.398 23.2871 117.527 23.5059C117.659 23.7246 117.837 23.9004 118.06 24.0332C118.286 24.1621 118.568 24.2266 118.904 24.2266ZM124.065 18.6602V25H122.976V18.6602H124.065ZM122.894 16.9785C122.894 16.8027 122.946 16.6543 123.052 16.5332C123.161 16.4121 123.321 16.3516 123.532 16.3516C123.739 16.3516 123.897 16.4121 124.007 16.5332C124.12 16.6543 124.177 16.8027 124.177 16.9785C124.177 17.1465 124.12 17.291 124.007 17.4121C123.897 17.5293 123.739 17.5879 123.532 17.5879C123.321 17.5879 123.161 17.5293 123.052 17.4121C122.946 17.291 122.894 17.1465 122.894 16.9785ZM125.759 21.9004V21.7656C125.759 21.3086 125.825 20.8848 125.958 20.4941C126.091 20.0996 126.282 19.7578 126.532 19.4688C126.782 19.1758 127.085 18.9492 127.44 18.7891C127.796 18.625 128.194 18.543 128.636 18.543C129.081 18.543 129.481 18.625 129.837 18.7891C130.196 18.9492 130.501 19.1758 130.751 19.4688C131.005 19.7578 131.198 20.0996 131.331 20.4941C131.464 20.8848 131.53 21.3086 131.53 21.7656V21.9004C131.53 22.3574 131.464 22.7812 131.331 23.1719C131.198 23.5625 131.005 23.9043 130.751 24.1973C130.501 24.4863 130.198 24.7129 129.843 24.877C129.491 25.0371 129.093 25.1172 128.647 25.1172C128.202 25.1172 127.802 25.0371 127.446 24.877C127.091 24.7129 126.786 24.4863 126.532 24.1973C126.282 23.9043 126.091 23.5625 125.958 23.1719C125.825 22.7812 125.759 22.3574 125.759 21.9004ZM126.843 21.7656V21.9004C126.843 22.2168 126.88 22.5156 126.954 22.7969C127.028 23.0742 127.139 23.3203 127.288 23.5352C127.44 23.75 127.63 23.9199 127.856 24.0449C128.083 24.166 128.346 24.2266 128.647 24.2266C128.944 24.2266 129.204 24.166 129.427 24.0449C129.653 23.9199 129.841 23.75 129.989 23.5352C130.138 23.3203 130.249 23.0742 130.323 22.7969C130.401 22.5156 130.44 22.2168 130.44 21.9004V21.7656C130.44 21.4531 130.401 21.1582 130.323 20.8809C130.249 20.5996 130.136 20.3516 129.983 20.1367C129.835 19.918 129.647 19.7461 129.421 19.6211C129.198 19.4961 128.936 19.4336 128.636 19.4336C128.339 19.4336 128.077 19.4961 127.85 19.6211C127.628 19.7461 127.44 19.918 127.288 20.1367C127.139 20.3516 127.028 20.5996 126.954 20.8809C126.88 21.1582 126.843 21.4531 126.843 21.7656Z" fill="#686868"/>
<path d="M147.6 16.4688L144.043 25.7324H143.111L146.674 16.4688H147.6Z" fill="#686868"/>
<path d="M162.148 17.2246L159.324 25H158.17L161.422 16.4688H162.166L162.148 17.2246ZM164.516 25L161.686 17.2246L161.668 16.4688H162.412L165.676 25H164.516ZM164.369 21.8418V22.7676H159.576V21.8418H164.369ZM170.89 23.7695V16H171.98V25H170.984L170.89 23.7695ZM166.625 21.9004V21.7773C166.625 21.293 166.683 20.8535 166.801 20.459C166.922 20.0605 167.092 19.7188 167.31 19.4336C167.533 19.1484 167.797 18.9297 168.101 18.7773C168.41 18.6211 168.754 18.543 169.133 18.543C169.531 18.543 169.879 18.6133 170.176 18.7539C170.476 18.8906 170.73 19.0918 170.937 19.3574C171.148 19.6191 171.314 19.9355 171.435 20.3066C171.556 20.6777 171.64 21.0977 171.687 21.5664V22.1055C171.644 22.5703 171.56 22.9883 171.435 23.3594C171.314 23.7305 171.148 24.0469 170.937 24.3086C170.73 24.5703 170.476 24.7715 170.176 24.9121C169.875 25.0488 169.523 25.1172 169.121 25.1172C168.75 25.1172 168.41 25.0371 168.101 24.877C167.797 24.7168 167.533 24.4922 167.31 24.2031C167.092 23.9141 166.922 23.5742 166.801 23.1836C166.683 22.7891 166.625 22.3613 166.625 21.9004ZM167.715 21.7773V21.9004C167.715 22.2168 167.746 22.5137 167.808 22.791C167.875 23.0684 167.976 23.3125 168.113 23.5234C168.25 23.7344 168.424 23.9004 168.635 24.0215C168.845 24.1387 169.097 24.1973 169.39 24.1973C169.75 24.1973 170.045 24.1211 170.275 23.9688C170.51 23.8164 170.697 23.6152 170.838 23.3652C170.978 23.1152 171.088 22.8438 171.166 22.5508V21.1387C171.119 20.9238 171.051 20.7168 170.961 20.5176C170.875 20.3145 170.761 20.1348 170.621 19.9785C170.484 19.8184 170.314 19.6914 170.111 19.5977C169.912 19.5039 169.676 19.457 169.402 19.457C169.105 19.457 168.849 19.5195 168.635 19.6445C168.424 19.7656 168.25 19.9336 168.113 20.1484C167.976 20.3594 167.875 20.6055 167.808 20.8867C167.746 21.1641 167.715 21.4609 167.715 21.7773ZM175.085 18.6602V25H173.996V18.6602H175.085ZM173.914 16.9785C173.914 16.8027 173.966 16.6543 174.072 16.5332C174.181 16.4121 174.341 16.3516 174.552 16.3516C174.759 16.3516 174.917 16.4121 175.027 16.5332C175.14 16.6543 175.197 16.8027 175.197 16.9785C175.197 17.1465 175.14 17.291 175.027 17.4121C174.917 17.5293 174.759 17.5879 174.552 17.5879C174.341 17.5879 174.181 17.5293 174.072 17.4121C173.966 17.291 173.914 17.1465 173.914 16.9785ZM178.15 19.8789V27.4375H177.06V18.6602H178.056L178.15 19.8789ZM182.421 21.7773V21.9004C182.421 22.3613 182.366 22.7891 182.257 23.1836C182.148 23.5742 181.988 23.9141 181.777 24.2031C181.57 24.4922 181.314 24.7168 181.009 24.877C180.704 25.0371 180.355 25.1172 179.96 25.1172C179.558 25.1172 179.202 25.0508 178.894 24.918C178.585 24.7852 178.324 24.5918 178.109 24.3379C177.894 24.084 177.722 23.7793 177.593 23.4238C177.468 23.0684 177.382 22.668 177.335 22.2227V21.5664C177.382 21.0977 177.47 20.6777 177.599 20.3066C177.728 19.9355 177.898 19.6191 178.109 19.3574C178.324 19.0918 178.583 18.8906 178.888 18.7539C179.193 18.6133 179.544 18.543 179.943 18.543C180.341 18.543 180.695 18.6211 181.003 18.7773C181.312 18.9297 181.572 19.1484 181.782 19.4336C181.993 19.7188 182.152 20.0605 182.257 20.459C182.366 20.8535 182.421 21.293 182.421 21.7773ZM181.331 21.9004V21.7773C181.331 21.4609 181.298 21.1641 181.232 20.8867C181.165 20.6055 181.062 20.3594 180.921 20.1484C180.784 19.9336 180.609 19.7656 180.394 19.6445C180.179 19.5195 179.923 19.457 179.626 19.457C179.353 19.457 179.115 19.5039 178.911 19.5977C178.712 19.6914 178.542 19.8184 178.402 19.9785C178.261 20.1348 178.146 20.3145 178.056 20.5176C177.97 20.7168 177.906 20.9238 177.863 21.1387V22.6562C177.941 22.9297 178.05 23.1875 178.191 23.4297C178.331 23.668 178.519 23.8613 178.753 24.0098C178.988 24.1543 179.282 24.2266 179.638 24.2266C179.931 24.2266 180.183 24.166 180.394 24.0449C180.609 23.9199 180.784 23.75 180.921 23.5352C181.062 23.3203 181.165 23.0742 181.232 22.7969C181.298 22.5156 181.331 22.2168 181.331 21.9004ZM185.222 18.6602V25H184.132V18.6602H185.222ZM184.05 16.9785C184.05 16.8027 184.103 16.6543 184.208 16.5332C184.317 16.4121 184.478 16.3516 184.689 16.3516C184.896 16.3516 185.054 16.4121 185.163 16.5332C185.276 16.6543 185.333 16.8027 185.333 16.9785C185.333 17.1465 185.276 17.291 185.163 17.4121C185.054 17.5293 184.896 17.5879 184.689 17.5879C184.478 17.5879 184.317 17.5293 184.208 17.4121C184.103 17.291 184.05 17.1465 184.05 16.9785ZM190.893 23.3184C190.893 23.1621 190.858 23.0176 190.788 22.8848C190.721 22.748 190.583 22.625 190.372 22.5156C190.165 22.4023 189.852 22.3047 189.434 22.2227C189.083 22.1484 188.764 22.0605 188.479 21.959C188.198 21.8574 187.958 21.7344 187.759 21.5898C187.563 21.4453 187.413 21.2754 187.307 21.0801C187.202 20.8848 187.149 20.6562 187.149 20.3945C187.149 20.1445 187.204 19.9082 187.313 19.6855C187.427 19.4629 187.585 19.2656 187.788 19.0938C187.995 18.9219 188.243 18.7871 188.532 18.6895C188.821 18.5918 189.143 18.543 189.499 18.543C190.007 18.543 190.44 18.6328 190.8 18.8125C191.159 18.9922 191.434 19.2324 191.626 19.5332C191.817 19.8301 191.913 20.1602 191.913 20.5234H190.829C190.829 20.3477 190.776 20.1777 190.671 20.0137C190.569 19.8457 190.419 19.707 190.22 19.5977C190.024 19.4883 189.784 19.4336 189.499 19.4336C189.198 19.4336 188.954 19.4805 188.766 19.5742C188.583 19.6641 188.448 19.7793 188.362 19.9199C188.28 20.0605 188.239 20.209 188.239 20.3652C188.239 20.4824 188.259 20.5879 188.298 20.6816C188.341 20.7715 188.415 20.8555 188.52 20.9336C188.626 21.0078 188.774 21.0781 188.966 21.1445C189.157 21.2109 189.401 21.2773 189.698 21.3438C190.218 21.4609 190.645 21.6016 190.981 21.7656C191.317 21.9297 191.567 22.1309 191.731 22.3691C191.895 22.6074 191.977 22.8965 191.977 23.2363C191.977 23.5137 191.919 23.7676 191.802 23.998C191.688 24.2285 191.522 24.4277 191.304 24.5957C191.089 24.7598 190.831 24.8887 190.53 24.9824C190.233 25.0723 189.899 25.1172 189.528 25.1172C188.97 25.1172 188.497 25.0176 188.11 24.8184C187.723 24.6191 187.43 24.3613 187.231 24.0449C187.032 23.7285 186.932 23.3945 186.932 23.043H188.022C188.038 23.3398 188.124 23.5762 188.28 23.752C188.436 23.9238 188.628 24.0469 188.854 24.1211C189.081 24.1914 189.305 24.2266 189.528 24.2266C189.825 24.2266 190.073 24.1875 190.272 24.1094C190.475 24.0312 190.63 23.9238 190.735 23.7871C190.841 23.6504 190.893 23.4941 190.893 23.3184Z" fill="#686868"/>
<path d="M207.6 16.4688L204.043 25.7324H203.111L206.674 16.4688H207.6Z" fill="#686868"/>
<path d="M224.164 24.0801V25H219.898V24.0801H224.164ZM220.121 16.4688V25H218.99V16.4688H220.121ZM229.156 23.5352V18.6602H230.246V25H229.209L229.156 23.5352ZM229.361 22.1992L229.812 22.1875C229.812 22.6094 229.767 23 229.677 23.3594C229.592 23.7148 229.451 24.0234 229.256 24.2852C229.06 24.5469 228.804 24.752 228.488 24.9004C228.172 25.0449 227.787 25.1172 227.334 25.1172C227.025 25.1172 226.742 25.0723 226.484 24.9824C226.23 24.8926 226.011 24.7539 225.828 24.5664C225.644 24.3789 225.502 24.1348 225.4 23.834C225.302 23.5332 225.254 23.1719 225.254 22.75V18.6602H226.338V22.7617C226.338 23.0469 226.369 23.2832 226.431 23.4707C226.498 23.6543 226.586 23.8008 226.695 23.9102C226.808 24.0156 226.933 24.0898 227.07 24.1328C227.211 24.1758 227.355 24.1973 227.504 24.1973C227.965 24.1973 228.33 24.1094 228.599 23.9336C228.869 23.7539 229.062 23.5137 229.179 23.2129C229.301 22.9082 229.361 22.5703 229.361 22.1992ZM233.222 19.8789V27.4375H232.132V18.6602H233.128L233.222 19.8789ZM237.494 21.7773V21.9004C237.494 22.3613 237.439 22.7891 237.33 23.1836C237.22 23.5742 237.06 23.9141 236.849 24.2031C236.642 24.4922 236.386 24.7168 236.082 24.877C235.777 25.0371 235.427 25.1172 235.033 25.1172C234.63 25.1172 234.275 25.0508 233.966 24.918C233.658 24.7852 233.396 24.5918 233.181 24.3379C232.966 24.084 232.794 23.7793 232.666 23.4238C232.541 23.0684 232.455 22.668 232.408 22.2227V21.5664C232.455 21.0977 232.542 20.6777 232.671 20.3066C232.8 19.9355 232.97 19.6191 233.181 19.3574C233.396 19.0918 233.656 18.8906 233.96 18.7539C234.265 18.6133 234.617 18.543 235.015 18.543C235.414 18.543 235.767 18.6211 236.076 18.7773C236.384 18.9297 236.644 19.1484 236.855 19.4336C237.066 19.7188 237.224 20.0605 237.33 20.459C237.439 20.8535 237.494 21.293 237.494 21.7773ZM236.404 21.9004V21.7773C236.404 21.4609 236.371 21.1641 236.304 20.8867C236.238 20.6055 236.134 20.3594 235.994 20.1484C235.857 19.9336 235.681 19.7656 235.466 19.6445C235.251 19.5195 234.996 19.457 234.699 19.457C234.425 19.457 234.187 19.5039 233.984 19.5977C233.785 19.6914 233.615 19.8184 233.474 19.9785C233.334 20.1348 233.218 20.3145 233.128 20.5176C233.042 20.7168 232.978 20.9238 232.935 21.1387V22.6562C233.013 22.9297 233.123 23.1875 233.263 23.4297C233.404 23.668 233.591 23.8613 233.826 24.0098C234.06 24.1543 234.355 24.2266 234.71 24.2266C235.003 24.2266 235.255 24.166 235.466 24.0449C235.681 23.9199 235.857 23.75 235.994 23.5352C236.134 23.3203 236.238 23.0742 236.304 22.7969C236.371 22.5156 236.404 22.2168 236.404 21.9004ZM242.995 23.5352V18.6602H244.085V25H243.048L242.995 23.5352ZM243.2 22.1992L243.652 22.1875C243.652 22.6094 243.607 23 243.517 23.3594C243.431 23.7148 243.29 24.0234 243.095 24.2852C242.9 24.5469 242.644 24.752 242.327 24.9004C242.011 25.0449 241.626 25.1172 241.173 25.1172C240.865 25.1172 240.581 25.0723 240.324 24.9824C240.07 24.8926 239.851 24.7539 239.667 24.5664C239.484 24.3789 239.341 24.1348 239.24 23.834C239.142 23.5332 239.093 23.1719 239.093 22.75V18.6602H240.177V22.7617C240.177 23.0469 240.208 23.2832 240.271 23.4707C240.337 23.6543 240.425 23.8008 240.534 23.9102C240.648 24.0156 240.773 24.0898 240.909 24.1328C241.05 24.1758 241.195 24.1973 241.343 24.1973C241.804 24.1973 242.169 24.1094 242.439 23.9336C242.708 23.7539 242.902 23.5137 243.019 23.2129C243.14 22.9082 243.2 22.5703 243.2 22.1992ZM249.669 23.3184C249.669 23.1621 249.634 23.0176 249.564 22.8848C249.497 22.748 249.358 22.625 249.147 22.5156C248.94 22.4023 248.628 22.3047 248.21 22.2227C247.858 22.1484 247.54 22.0605 247.255 21.959C246.974 21.8574 246.733 21.7344 246.534 21.5898C246.339 21.4453 246.189 21.2754 246.083 21.0801C245.978 20.8848 245.925 20.6562 245.925 20.3945C245.925 20.1445 245.98 19.9082 246.089 19.6855C246.202 19.4629 246.36 19.2656 246.564 19.0938C246.771 18.9219 247.019 18.7871 247.308 18.6895C247.597 18.5918 247.919 18.543 248.274 18.543C248.782 18.543 249.216 18.6328 249.575 18.8125C249.935 18.9922 250.21 19.2324 250.401 19.5332C250.593 19.8301 250.689 20.1602 250.689 20.5234H249.605C249.605 20.3477 249.552 20.1777 249.446 20.0137C249.345 19.8457 249.194 19.707 248.995 19.5977C248.8 19.4883 248.56 19.4336 248.274 19.4336C247.974 19.4336 247.73 19.4805 247.542 19.5742C247.358 19.6641 247.224 19.7793 247.138 19.9199C247.056 20.0605 247.015 20.209 247.015 20.3652C247.015 20.4824 247.034 20.5879 247.073 20.6816C247.116 20.7715 247.19 20.8555 247.296 20.9336C247.401 21.0078 247.55 21.0781 247.741 21.1445C247.933 21.2109 248.177 21.2773 248.474 21.3438C248.993 21.4609 249.421 21.6016 249.757 21.7656C250.093 21.9297 250.343 22.1309 250.507 22.3691C250.671 22.6074 250.753 22.8965 250.753 23.2363C250.753 23.5137 250.694 23.7676 250.577 23.998C250.464 24.2285 250.298 24.4277 250.079 24.5957C249.864 24.7598 249.606 24.8887 249.306 24.9824C249.009 25.0723 248.675 25.1172 248.304 25.1172C247.745 25.1172 247.272 25.0176 246.886 24.8184C246.499 24.6191 246.206 24.3613 246.007 24.0449C245.808 23.7285 245.708 23.3945 245.708 23.043H246.798C246.814 23.3398 246.899 23.5762 247.056 23.752C247.212 23.9238 247.403 24.0469 247.63 24.1211C247.856 24.1914 248.081 24.2266 248.304 24.2266C248.601 24.2266 248.849 24.1875 249.048 24.1094C249.251 24.0312 249.405 23.9238 249.511 23.7871C249.616 23.6504 249.669 23.4941 249.669 23.3184Z" fill="#686868"/>
<path d="M266.6 16.4688L263.043 25.7324H262.111L265.674 16.4688H266.6Z" fill="#686868"/>
<path d="M281.137 21.6543H278.857V20.7344H281.137C281.578 20.7344 281.936 20.6641 282.209 20.5234C282.482 20.3828 282.682 20.1875 282.807 19.9375C282.936 19.6875 283 19.4023 283 19.082C283 18.7891 282.936 18.5137 282.807 18.2559C282.682 17.998 282.482 17.791 282.209 17.6348C281.936 17.4746 281.578 17.3945 281.137 17.3945H279.121V25H277.99V16.4688H281.137C281.781 16.4688 282.326 16.5801 282.771 16.8027C283.217 17.0254 283.555 17.334 283.785 17.7285C284.016 18.1191 284.131 18.5664 284.131 19.0703C284.131 19.6172 284.016 20.084 283.785 20.4707C283.555 20.8574 283.217 21.1523 282.771 21.3555C282.326 21.5547 281.781 21.6543 281.137 21.6543ZM289.515 23.5352V18.6602H290.605V25H289.568L289.515 23.5352ZM289.72 22.1992L290.172 22.1875C290.172 22.6094 290.127 23 290.037 23.3594C289.951 23.7148 289.81 24.0234 289.615 24.2852C289.42 24.5469 289.164 24.752 288.847 24.9004C288.531 25.0449 288.146 25.1172 287.693 25.1172C287.385 25.1172 287.101 25.0723 286.844 24.9824C286.59 24.8926 286.371 24.7539 286.187 24.5664C286.004 24.3789 285.861 24.1348 285.76 23.834C285.662 23.5332 285.613 23.1719 285.613 22.75V18.6602H286.697V22.7617C286.697 23.0469 286.728 23.2832 286.791 23.4707C286.857 23.6543 286.945 23.8008 287.054 23.9102C287.168 24.0156 287.293 24.0898 287.429 24.1328C287.57 24.1758 287.715 24.1973 287.863 24.1973C288.324 24.1973 288.689 24.1094 288.959 23.9336C289.228 23.7539 289.422 23.5137 289.539 23.2129C289.66 22.9082 289.72 22.5703 289.72 22.1992ZM293.582 19.8789V27.4375H292.492V18.6602H293.488L293.582 19.8789ZM297.853 21.7773V21.9004C297.853 22.3613 297.798 22.7891 297.689 23.1836C297.58 23.5742 297.419 23.9141 297.209 24.2031C297.001 24.4922 296.746 24.7168 296.441 24.877C296.136 25.0371 295.787 25.1172 295.392 25.1172C294.99 25.1172 294.634 25.0508 294.326 24.918C294.017 24.7852 293.755 24.5918 293.541 24.3379C293.326 24.084 293.154 23.7793 293.025 23.4238C292.9 23.0684 292.814 22.668 292.767 22.2227V21.5664C292.814 21.0977 292.902 20.6777 293.031 20.3066C293.16 19.9355 293.33 19.6191 293.541 19.3574C293.755 19.0918 294.015 18.8906 294.32 18.7539C294.625 18.6133 294.976 18.543 295.375 18.543C295.773 18.543 296.126 18.6211 296.435 18.7773C296.744 18.9297 297.003 19.1484 297.214 19.4336C297.425 19.7188 297.584 20.0605 297.689 20.459C297.798 20.8535 297.853 21.293 297.853 21.7773ZM296.763 21.9004V21.7773C296.763 21.4609 296.73 21.1641 296.664 20.8867C296.597 20.6055 296.494 20.3594 296.353 20.1484C296.216 19.9336 296.041 19.7656 295.826 19.6445C295.611 19.5195 295.355 19.457 295.058 19.457C294.785 19.457 294.546 19.5039 294.343 19.5977C294.144 19.6914 293.974 19.8184 293.834 19.9785C293.693 20.1348 293.578 20.3145 293.488 20.5176C293.402 20.7168 293.337 20.9238 293.294 21.1387V22.6562C293.373 22.9297 293.482 23.1875 293.623 23.4297C293.763 23.668 293.951 23.8613 294.185 24.0098C294.419 24.1543 294.714 24.2266 295.07 24.2266C295.363 24.2266 295.615 24.166 295.826 24.0449C296.041 23.9199 296.216 23.75 296.353 23.5352C296.494 23.3203 296.597 23.0742 296.664 22.7969C296.73 22.5156 296.763 22.2168 296.763 21.9004ZM300.654 18.6602V25H299.564V18.6602H300.654ZM299.482 16.9785C299.482 16.8027 299.534 16.6543 299.64 16.5332C299.749 16.4121 299.909 16.3516 300.12 16.3516C300.327 16.3516 300.486 16.4121 300.595 16.5332C300.708 16.6543 300.765 16.8027 300.765 16.9785C300.765 17.1465 300.708 17.291 300.595 17.4121C300.486 17.5293 300.327 17.5879 300.12 17.5879C299.909 17.5879 299.749 17.5293 299.64 17.4121C299.534 17.291 299.482 17.1465 299.482 16.9785ZM306.325 23.3184C306.325 23.1621 306.29 23.0176 306.22 22.8848C306.153 22.748 306.015 22.625 305.804 22.5156C305.597 22.4023 305.284 22.3047 304.866 22.2227C304.515 22.1484 304.196 22.0605 303.911 21.959C303.63 21.8574 303.39 21.7344 303.19 21.5898C302.995 21.4453 302.845 21.2754 302.739 21.0801C302.634 20.8848 302.581 20.6562 302.581 20.3945C302.581 20.1445 302.636 19.9082 302.745 19.6855C302.858 19.4629 303.017 19.2656 303.22 19.0938C303.427 18.9219 303.675 18.7871 303.964 18.6895C304.253 18.5918 304.575 18.543 304.931 18.543C305.439 18.543 305.872 18.6328 306.231 18.8125C306.591 18.9922 306.866 19.2324 307.058 19.5332C307.249 19.8301 307.345 20.1602 307.345 20.5234H306.261C306.261 20.3477 306.208 20.1777 306.103 20.0137C306.001 19.8457 305.851 19.707 305.651 19.5977C305.456 19.4883 305.216 19.4336 304.931 19.4336C304.63 19.4336 304.386 19.4805 304.198 19.5742C304.015 19.6641 303.88 19.7793 303.794 19.9199C303.712 20.0605 303.671 20.209 303.671 20.3652C303.671 20.4824 303.69 20.5879 303.73 20.6816C303.772 20.7715 303.847 20.8555 303.952 20.9336C304.058 21.0078 304.206 21.0781 304.397 21.1445C304.589 21.2109 304.833 21.2773 305.13 21.3438C305.649 21.4609 306.077 21.6016 306.413 21.7656C306.749 21.9297 306.999 22.1309 307.163 22.3691C307.327 22.6074 307.409 22.8965 307.409 23.2363C307.409 23.5137 307.351 23.7676 307.233 23.998C307.12 24.2285 306.954 24.4277 306.735 24.5957C306.521 24.7598 306.263 24.8887 305.962 24.9824C305.665 25.0723 305.331 25.1172 304.96 25.1172C304.401 25.1172 303.929 25.0176 303.542 24.8184C303.155 24.6191 302.862 24.3613 302.663 24.0449C302.464 23.7285 302.364 23.3945 302.364 23.043H303.454C303.47 23.3398 303.556 23.5762 303.712 23.752C303.868 23.9238 304.06 24.0469 304.286 24.1211C304.513 24.1914 304.737 24.2266 304.96 24.2266C305.257 24.2266 305.505 24.1875 305.704 24.1094C305.907 24.0312 306.062 23.9238 306.167 23.7871C306.272 23.6504 306.325 23.4941 306.325 23.3184Z" fill="#686868"/>
<path d="M323.6 16.4688L320.043 25.7324H319.111L322.674 16.4688H323.6Z" fill="#686868"/>
<path d="M340.141 22.2871H341.266C341.207 22.8262 341.053 23.3086 340.803 23.7344C340.553 24.1602 340.199 24.498 339.742 24.748C339.285 24.9941 338.715 25.1172 338.031 25.1172C337.531 25.1172 337.076 25.0234 336.666 24.8359C336.26 24.6484 335.91 24.3828 335.617 24.0391C335.324 23.6914 335.098 23.2754 334.938 22.791C334.781 22.3027 334.703 21.7598 334.703 21.1621V20.3125C334.703 19.7148 334.781 19.1738 334.938 18.6895C335.098 18.2012 335.326 17.7832 335.623 17.4355C335.924 17.0879 336.285 16.8203 336.707 16.6328C337.129 16.4453 337.604 16.3516 338.131 16.3516C338.775 16.3516 339.32 16.4727 339.766 16.7148C340.211 16.957 340.557 17.293 340.803 17.7227C341.053 18.1484 341.207 18.6426 341.266 19.2051H340.141C340.086 18.8066 339.984 18.4648 339.836 18.1797C339.688 17.8906 339.477 17.668 339.203 17.5117C338.93 17.3555 338.572 17.2773 338.131 17.2773C337.752 17.2773 337.418 17.3496 337.129 17.4941C336.844 17.6387 336.604 17.8438 336.408 18.1094C336.217 18.375 336.072 18.6934 335.975 19.0645C335.877 19.4355 335.828 19.8477 335.828 20.3008V21.1621C335.828 21.5801 335.871 21.9727 335.957 22.3398C336.047 22.707 336.182 23.0293 336.361 23.3066C336.541 23.584 336.77 23.8027 337.047 23.9629C337.324 24.1191 337.652 24.1973 338.031 24.1973C338.512 24.1973 338.895 24.1211 339.18 23.9688C339.465 23.8164 339.68 23.5977 339.824 23.3125C339.973 23.0273 340.078 22.6855 340.141 22.2871ZM342.595 21.9004V21.7656C342.595 21.3086 342.662 20.8848 342.795 20.4941C342.927 20.0996 343.119 19.7578 343.369 19.4688C343.619 19.1758 343.922 18.9492 344.277 18.7891C344.633 18.625 345.031 18.543 345.472 18.543C345.918 18.543 346.318 18.625 346.674 18.7891C347.033 18.9492 347.338 19.1758 347.588 19.4688C347.842 19.7578 348.035 20.0996 348.168 20.4941C348.301 20.8848 348.367 21.3086 348.367 21.7656V21.9004C348.367 22.3574 348.301 22.7812 348.168 23.1719C348.035 23.5625 347.842 23.9043 347.588 24.1973C347.338 24.4863 347.035 24.7129 346.679 24.877C346.328 25.0371 345.929 25.1172 345.484 25.1172C345.039 25.1172 344.638 25.0371 344.283 24.877C343.927 24.7129 343.623 24.4863 343.369 24.1973C343.119 23.9043 342.927 23.5625 342.795 23.1719C342.662 22.7812 342.595 22.3574 342.595 21.9004ZM343.679 21.7656V21.9004C343.679 22.2168 343.717 22.5156 343.791 22.7969C343.865 23.0742 343.976 23.3203 344.125 23.5352C344.277 23.75 344.467 23.9199 344.693 24.0449C344.92 24.166 345.183 24.2266 345.484 24.2266C345.781 24.2266 346.041 24.166 346.263 24.0449C346.49 23.9199 346.677 23.75 346.826 23.5352C346.974 23.3203 347.086 23.0742 347.16 22.7969C347.238 22.5156 347.277 22.2168 347.277 21.9004V21.7656C347.277 21.4531 347.238 21.1582 347.16 20.8809C347.086 20.5996 346.972 20.3516 346.82 20.1367C346.672 19.918 346.484 19.7461 346.258 19.6211C346.035 19.4961 345.773 19.4336 345.472 19.4336C345.176 19.4336 344.914 19.4961 344.687 19.6211C344.465 19.7461 344.277 19.918 344.125 20.1367C343.976 20.3516 343.865 20.5996 343.791 20.8809C343.717 21.1582 343.679 21.4531 343.679 21.7656ZM353.845 23.5352V18.6602H354.935V25H353.898L353.845 23.5352ZM354.05 22.1992L354.501 22.1875C354.501 22.6094 354.457 23 354.367 23.3594C354.281 23.7148 354.14 24.0234 353.945 24.2852C353.75 24.5469 353.494 24.752 353.177 24.9004C352.861 25.0449 352.476 25.1172 352.023 25.1172C351.714 25.1172 351.431 25.0723 351.173 24.9824C350.919 24.8926 350.701 24.7539 350.517 24.5664C350.334 24.3789 350.191 24.1348 350.089 23.834C349.992 23.5332 349.943 23.1719 349.943 22.75V18.6602H351.027V22.7617C351.027 23.0469 351.058 23.2832 351.121 23.4707C351.187 23.6543 351.275 23.8008 351.384 23.9102C351.498 24.0156 351.623 24.0898 351.759 24.1328C351.9 24.1758 352.044 24.1973 352.193 24.1973C352.654 24.1973 353.019 24.1094 353.289 23.9336C353.558 23.7539 353.751 23.5137 353.869 23.2129C353.99 22.9082 354.05 22.5703 354.05 22.1992ZM357.911 19.8789V27.4375H356.822V18.6602H357.818L357.911 19.8789ZM362.183 21.7773V21.9004C362.183 22.3613 362.128 22.7891 362.019 23.1836C361.909 23.5742 361.749 23.9141 361.538 24.2031C361.331 24.4922 361.075 24.7168 360.771 24.877C360.466 25.0371 360.116 25.1172 359.722 25.1172C359.32 25.1172 358.964 25.0508 358.656 24.918C358.347 24.7852 358.085 24.5918 357.87 24.3379C357.656 24.084 357.484 23.7793 357.355 23.4238C357.23 23.0684 357.144 22.668 357.097 22.2227V21.5664C357.144 21.0977 357.232 20.6777 357.361 20.3066C357.49 19.9355 357.659 19.6191 357.87 19.3574C358.085 19.0918 358.345 18.8906 358.65 18.7539C358.954 18.6133 359.306 18.543 359.704 18.543C360.103 18.543 360.456 18.6211 360.765 18.7773C361.074 18.9297 361.333 19.1484 361.544 19.4336C361.755 19.7188 361.913 20.0605 362.019 20.459C362.128 20.8535 362.183 21.293 362.183 21.7773ZM361.093 21.9004V21.7773C361.093 21.4609 361.06 21.1641 360.993 20.8867C360.927 20.6055 360.824 20.3594 360.683 20.1484C360.546 19.9336 360.37 19.7656 360.156 19.6445C359.941 19.5195 359.685 19.457 359.388 19.457C359.115 19.457 358.876 19.5039 358.673 19.5977C358.474 19.6914 358.304 19.8184 358.163 19.9785C358.023 20.1348 357.907 20.3145 357.818 20.5176C357.732 20.7168 357.667 20.9238 357.624 21.1387V22.6562C357.702 22.9297 357.812 23.1875 357.952 23.4297C358.093 23.668 358.281 23.8613 358.515 24.0098C358.749 24.1543 359.044 24.2266 359.4 24.2266C359.693 24.2266 359.945 24.166 360.156 24.0449C360.37 23.9199 360.546 23.75 360.683 23.5352C360.824 23.3203 360.927 23.0742 360.993 22.7969C361.06 22.5156 361.093 22.2168 361.093 21.9004ZM366.437 25.1172C365.995 25.1172 365.595 25.043 365.235 24.8945C364.88 24.7422 364.573 24.5293 364.315 24.2559C364.062 23.9824 363.866 23.6582 363.73 23.2832C363.593 22.9082 363.524 22.498 363.524 22.0527V21.8066C363.524 21.291 363.601 20.832 363.753 20.4297C363.905 20.0234 364.112 19.6797 364.374 19.3984C364.636 19.1172 364.933 18.9043 365.265 18.7598C365.597 18.6152 365.94 18.543 366.296 18.543C366.749 18.543 367.14 18.6211 367.468 18.7773C367.8 18.9336 368.071 19.1523 368.282 19.4336C368.493 19.7109 368.649 20.0391 368.751 20.418C368.853 20.793 368.903 21.2031 368.903 21.6484V22.1348H364.169V21.25H367.819V21.168C367.804 20.8867 367.745 20.6133 367.644 20.3477C367.546 20.082 367.39 19.8633 367.175 19.6914C366.96 19.5195 366.667 19.4336 366.296 19.4336C366.05 19.4336 365.823 19.4863 365.616 19.5918C365.409 19.6934 365.231 19.8457 365.083 20.0488C364.935 20.252 364.819 20.5 364.737 20.793C364.655 21.0859 364.614 21.4238 364.614 21.8066V22.0527C364.614 22.3535 364.655 22.6367 364.737 22.9023C364.823 23.1641 364.946 23.3945 365.106 23.5938C365.271 23.793 365.468 23.9492 365.698 24.0625C365.933 24.1758 366.198 24.2324 366.495 24.2324C366.878 24.2324 367.202 24.1543 367.468 23.998C367.733 23.8418 367.966 23.6328 368.165 23.3711L368.821 23.8926C368.685 24.0996 368.511 24.2969 368.3 24.4844C368.089 24.6719 367.829 24.8242 367.521 24.9414C367.216 25.0586 366.855 25.1172 366.437 25.1172Z" fill="#686868"/>
</svg>
