<svg width="1500" height="40" viewBox="0 0 1500 40" fill="none" xmlns="http://www.w3.org/2000/svg">
<rect width="1500" height="40" fill="white"/>
<path d="M104.203 15.9688V24.5H103.072V15.9688H104.203ZM107.42 19.5137V24.5H106.336V18.1602H107.361L107.42 19.5137ZM107.162 21.0898L106.711 21.0723C106.715 20.6387 106.779 20.2383 106.904 19.8711C107.029 19.5 107.205 19.1777 107.431 18.9043C107.658 18.6309 107.928 18.4199 108.24 18.2715C108.556 18.1191 108.906 18.043 109.289 18.043C109.601 18.043 109.883 18.0859 110.133 18.1719C110.383 18.2539 110.595 18.3867 110.771 18.5703C110.951 18.7539 111.088 18.9922 111.181 19.2852C111.275 19.5742 111.322 19.9277 111.322 20.3457V24.5H110.232V20.334C110.232 20.002 110.183 19.7363 110.086 19.5371C109.988 19.334 109.845 19.1875 109.658 19.0977C109.47 19.0039 109.24 18.957 108.967 18.957C108.697 18.957 108.451 19.0137 108.228 19.127C108.01 19.2402 107.82 19.3965 107.66 19.5957C107.504 19.7949 107.381 20.0234 107.291 20.2812C107.205 20.5352 107.162 20.8047 107.162 21.0898ZM114.386 18.1602V24.5H113.296V18.1602H114.386ZM113.214 16.4785C113.214 16.3027 113.267 16.1543 113.373 16.0332C113.482 15.9121 113.642 15.8516 113.853 15.8516C114.06 15.8516 114.218 15.9121 114.328 16.0332C114.441 16.1543 114.498 16.3027 114.498 16.4785C114.498 16.6465 114.441 16.791 114.328 16.9121C114.218 17.0293 114.06 17.0879 113.853 17.0879C113.642 17.0879 113.482 17.0293 113.373 16.9121C113.267 16.791 113.214 16.6465 113.214 16.4785ZM118.904 23.7266C119.161 23.7266 119.4 23.6738 119.618 23.5684C119.837 23.4629 120.017 23.3184 120.158 23.1348C120.298 22.9473 120.378 22.7344 120.398 22.4961H121.429C121.409 22.8711 121.283 23.2207 121.048 23.5449C120.818 23.8652 120.515 24.125 120.14 24.3242C119.765 24.5195 119.353 24.6172 118.904 24.6172C118.427 24.6172 118.011 24.5332 117.656 24.3652C117.304 24.1973 117.011 23.9668 116.777 23.6738C116.546 23.3809 116.372 23.0449 116.255 22.666C116.142 22.2832 116.085 21.8789 116.085 21.4531V21.207C116.085 20.7812 116.142 20.3789 116.255 20C116.372 19.6172 116.546 19.2793 116.777 18.9863C117.011 18.6934 117.304 18.4629 117.656 18.2949C118.011 18.127 118.427 18.043 118.904 18.043C119.4 18.043 119.833 18.1445 120.204 18.3477C120.575 18.5469 120.866 18.8203 121.077 19.168C121.292 19.5117 121.409 19.9023 121.429 20.3398H120.398C120.378 20.0781 120.304 19.8418 120.175 19.6309C120.05 19.4199 119.878 19.252 119.659 19.127C119.445 18.998 119.193 18.9336 118.904 18.9336C118.572 18.9336 118.292 19 118.066 19.1328C117.843 19.2617 117.665 19.4375 117.533 19.6602C117.404 19.8789 117.31 20.123 117.251 20.3926C117.197 20.6582 117.169 20.9297 117.169 21.207V21.4531C117.169 21.7305 117.197 22.0039 117.251 22.2734C117.306 22.543 117.398 22.7871 117.527 23.0059C117.659 23.2246 117.837 23.4004 118.06 23.5332C118.286 23.6621 118.568 23.7266 118.904 23.7266ZM124.065 18.1602V24.5H122.976V18.1602H124.065ZM122.894 16.4785C122.894 16.3027 122.946 16.1543 123.052 16.0332C123.161 15.9121 123.321 15.8516 123.532 15.8516C123.739 15.8516 123.897 15.9121 124.007 16.0332C124.12 16.1543 124.177 16.3027 124.177 16.4785C124.177 16.6465 124.12 16.791 124.007 16.9121C123.897 17.0293 123.739 17.0879 123.532 17.0879C123.321 17.0879 123.161 17.0293 123.052 16.9121C122.946 16.791 122.894 16.6465 122.894 16.4785ZM125.759 21.4004V21.2656C125.759 20.8086 125.825 20.3848 125.958 19.9941C126.091 19.5996 126.282 19.2578 126.532 18.9688C126.782 18.6758 127.085 18.4492 127.44 18.2891C127.796 18.125 128.194 18.043 128.636 18.043C129.081 18.043 129.481 18.125 129.837 18.2891C130.196 18.4492 130.501 18.6758 130.751 18.9688C131.005 19.2578 131.198 19.5996 131.331 19.9941C131.464 20.3848 131.53 20.8086 131.53 21.2656V21.4004C131.53 21.8574 131.464 22.2812 131.331 22.6719C131.198 23.0625 131.005 23.4043 130.751 23.6973C130.501 23.9863 130.198 24.2129 129.843 24.377C129.491 24.5371 129.093 24.6172 128.647 24.6172C128.202 24.6172 127.802 24.5371 127.446 24.377C127.091 24.2129 126.786 23.9863 126.532 23.6973C126.282 23.4043 126.091 23.0625 125.958 22.6719C125.825 22.2812 125.759 21.8574 125.759 21.4004ZM126.843 21.2656V21.4004C126.843 21.7168 126.88 22.0156 126.954 22.2969C127.028 22.5742 127.139 22.8203 127.288 23.0352C127.44 23.25 127.63 23.4199 127.856 23.5449C128.083 23.666 128.346 23.7266 128.647 23.7266C128.944 23.7266 129.204 23.666 129.427 23.5449C129.653 23.4199 129.841 23.25 129.989 23.0352C130.138 22.8203 130.249 22.5742 130.323 22.2969C130.401 22.0156 130.44 21.7168 130.44 21.4004V21.2656C130.44 20.9531 130.401 20.6582 130.323 20.3809C130.249 20.0996 130.136 19.8516 129.983 19.6367C129.835 19.418 129.647 19.2461 129.421 19.1211C129.198 18.9961 128.936 18.9336 128.636 18.9336C128.339 18.9336 128.077 18.9961 127.85 19.1211C127.628 19.2461 127.44 19.418 127.288 19.6367C127.139 19.8516 127.028 20.0996 126.954 20.3809C126.88 20.6582 126.843 20.9531 126.843 21.2656Z" fill="#686868"/>
<path d="M147.6 15.9688L144.043 25.2324H143.111L146.674 15.9688H147.6Z" fill="#686868"/>
<path d="M162.148 16.7246L159.324 24.5H158.17L161.422 15.9688H162.166L162.148 16.7246ZM164.516 24.5L161.686 16.7246L161.668 15.9688H162.412L165.676 24.5H164.516ZM164.369 21.3418V22.2676H159.576V21.3418H164.369ZM170.89 23.2695V15.5H171.98V24.5H170.984L170.89 23.2695ZM166.625 21.4004V21.2773C166.625 20.793 166.683 20.3535 166.801 19.959C166.922 19.5605 167.092 19.2188 167.31 18.9336C167.533 18.6484 167.797 18.4297 168.101 18.2773C168.41 18.1211 168.754 18.043 169.133 18.043C169.531 18.043 169.879 18.1133 170.176 18.2539C170.476 18.3906 170.73 18.5918 170.937 18.8574C171.148 19.1191 171.314 19.4355 171.435 19.8066C171.556 20.1777 171.64 20.5977 171.687 21.0664V21.6055C171.644 22.0703 171.56 22.4883 171.435 22.8594C171.314 23.2305 171.148 23.5469 170.937 23.8086C170.73 24.0703 170.476 24.2715 170.176 24.4121C169.875 24.5488 169.523 24.6172 169.121 24.6172C168.75 24.6172 168.41 24.5371 168.101 24.377C167.797 24.2168 167.533 23.9922 167.31 23.7031C167.092 23.4141 166.922 23.0742 166.801 22.6836C166.683 22.2891 166.625 21.8613 166.625 21.4004ZM167.715 21.2773V21.4004C167.715 21.7168 167.746 22.0137 167.808 22.291C167.875 22.5684 167.976 22.8125 168.113 23.0234C168.25 23.2344 168.424 23.4004 168.635 23.5215C168.845 23.6387 169.097 23.6973 169.39 23.6973C169.75 23.6973 170.045 23.6211 170.275 23.4688C170.51 23.3164 170.697 23.1152 170.838 22.8652C170.978 22.6152 171.088 22.3438 171.166 22.0508V20.6387C171.119 20.4238 171.051 20.2168 170.961 20.0176C170.875 19.8145 170.761 19.6348 170.621 19.4785C170.484 19.3184 170.314 19.1914 170.111 19.0977C169.912 19.0039 169.676 18.957 169.402 18.957C169.105 18.957 168.849 19.0195 168.635 19.1445C168.424 19.2656 168.25 19.4336 168.113 19.6484C167.976 19.8594 167.875 20.1055 167.808 20.3867C167.746 20.6641 167.715 20.9609 167.715 21.2773ZM175.085 18.1602V24.5H173.996V18.1602H175.085ZM173.914 16.4785C173.914 16.3027 173.966 16.1543 174.072 16.0332C174.181 15.9121 174.341 15.8516 174.552 15.8516C174.759 15.8516 174.917 15.9121 175.027 16.0332C175.14 16.1543 175.197 16.3027 175.197 16.4785C175.197 16.6465 175.14 16.791 175.027 16.9121C174.917 17.0293 174.759 17.0879 174.552 17.0879C174.341 17.0879 174.181 17.0293 174.072 16.9121C173.966 16.791 173.914 16.6465 173.914 16.4785ZM178.15 19.3789V26.9375H177.06V18.1602H178.056L178.15 19.3789ZM182.421 21.2773V21.4004C182.421 21.8613 182.366 22.2891 182.257 22.6836C182.148 23.0742 181.988 23.4141 181.777 23.7031C181.57 23.9922 181.314 24.2168 181.009 24.377C180.704 24.5371 180.355 24.6172 179.96 24.6172C179.558 24.6172 179.202 24.5508 178.894 24.418C178.585 24.2852 178.324 24.0918 178.109 23.8379C177.894 23.584 177.722 23.2793 177.593 22.9238C177.468 22.5684 177.382 22.168 177.335 21.7227V21.0664C177.382 20.5977 177.47 20.1777 177.599 19.8066C177.728 19.4355 177.898 19.1191 178.109 18.8574C178.324 18.5918 178.583 18.3906 178.888 18.2539C179.193 18.1133 179.544 18.043 179.943 18.043C180.341 18.043 180.695 18.1211 181.003 18.2773C181.312 18.4297 181.572 18.6484 181.782 18.9336C181.993 19.2188 182.152 19.5605 182.257 19.959C182.366 20.3535 182.421 20.793 182.421 21.2773ZM181.331 21.4004V21.2773C181.331 20.9609 181.298 20.6641 181.232 20.3867C181.165 20.1055 181.062 19.8594 180.921 19.6484C180.784 19.4336 180.609 19.2656 180.394 19.1445C180.179 19.0195 179.923 18.957 179.626 18.957C179.353 18.957 179.115 19.0039 178.911 19.0977C178.712 19.1914 178.542 19.3184 178.402 19.4785C178.261 19.6348 178.146 19.8145 178.056 20.0176C177.97 20.2168 177.906 20.4238 177.863 20.6387V22.1562C177.941 22.4297 178.05 22.6875 178.191 22.9297C178.331 23.168 178.519 23.3613 178.753 23.5098C178.988 23.6543 179.282 23.7266 179.638 23.7266C179.931 23.7266 180.183 23.666 180.394 23.5449C180.609 23.4199 180.784 23.25 180.921 23.0352C181.062 22.8203 181.165 22.5742 181.232 22.2969C181.298 22.0156 181.331 21.7168 181.331 21.4004ZM185.222 18.1602V24.5H184.132V18.1602H185.222ZM184.05 16.4785C184.05 16.3027 184.103 16.1543 184.208 16.0332C184.317 15.9121 184.478 15.8516 184.689 15.8516C184.896 15.8516 185.054 15.9121 185.163 16.0332C185.276 16.1543 185.333 16.3027 185.333 16.4785C185.333 16.6465 185.276 16.791 185.163 16.9121C185.054 17.0293 184.896 17.0879 184.689 17.0879C184.478 17.0879 184.317 17.0293 184.208 16.9121C184.103 16.791 184.05 16.6465 184.05 16.4785ZM190.893 22.8184C190.893 22.6621 190.858 22.5176 190.788 22.3848C190.721 22.248 190.583 22.125 190.372 22.0156C190.165 21.9023 189.852 21.8047 189.434 21.7227C189.083 21.6484 188.764 21.5605 188.479 21.459C188.198 21.3574 187.958 21.2344 187.759 21.0898C187.563 20.9453 187.413 20.7754 187.307 20.5801C187.202 20.3848 187.149 20.1562 187.149 19.8945C187.149 19.6445 187.204 19.4082 187.313 19.1855C187.427 18.9629 187.585 18.7656 187.788 18.5938C187.995 18.4219 188.243 18.2871 188.532 18.1895C188.821 18.0918 189.143 18.043 189.499 18.043C190.007 18.043 190.44 18.1328 190.8 18.3125C191.159 18.4922 191.434 18.7324 191.626 19.0332C191.817 19.3301 191.913 19.6602 191.913 20.0234H190.829C190.829 19.8477 190.776 19.6777 190.671 19.5137C190.569 19.3457 190.419 19.207 190.22 19.0977C190.024 18.9883 189.784 18.9336 189.499 18.9336C189.198 18.9336 188.954 18.9805 188.766 19.0742C188.583 19.1641 188.448 19.2793 188.362 19.4199C188.28 19.5605 188.239 19.709 188.239 19.8652C188.239 19.9824 188.259 20.0879 188.298 20.1816C188.341 20.2715 188.415 20.3555 188.52 20.4336C188.626 20.5078 188.774 20.5781 188.966 20.6445C189.157 20.7109 189.401 20.7773 189.698 20.8438C190.218 20.9609 190.645 21.1016 190.981 21.2656C191.317 21.4297 191.567 21.6309 191.731 21.8691C191.895 22.1074 191.977 22.3965 191.977 22.7363C191.977 23.0137 191.919 23.2676 191.802 23.498C191.688 23.7285 191.522 23.9277 191.304 24.0957C191.089 24.2598 190.831 24.3887 190.53 24.4824C190.233 24.5723 189.899 24.6172 189.528 24.6172C188.97 24.6172 188.497 24.5176 188.11 24.3184C187.723 24.1191 187.43 23.8613 187.231 23.5449C187.032 23.2285 186.932 22.8945 186.932 22.543H188.022C188.038 22.8398 188.124 23.0762 188.28 23.252C188.436 23.4238 188.628 23.5469 188.854 23.6211C189.081 23.6914 189.305 23.7266 189.528 23.7266C189.825 23.7266 190.073 23.6875 190.272 23.6094C190.475 23.5312 190.63 23.4238 190.735 23.2871C190.841 23.1504 190.893 22.9941 190.893 22.8184Z" fill="#686868"/>
<path d="M207.6 15.9688L204.043 25.2324H203.111L206.674 15.9688H207.6Z" fill="#686868"/>
<path d="M224.164 23.5801V24.5H219.898V23.5801H224.164ZM220.121 15.9688V24.5H218.99V15.9688H220.121ZM229.156 23.0352V18.1602H230.246V24.5H229.209L229.156 23.0352ZM229.361 21.6992L229.812 21.6875C229.812 22.1094 229.767 22.5 229.677 22.8594C229.592 23.2148 229.451 23.5234 229.256 23.7852C229.06 24.0469 228.804 24.252 228.488 24.4004C228.172 24.5449 227.787 24.6172 227.334 24.6172C227.025 24.6172 226.742 24.5723 226.484 24.4824C226.23 24.3926 226.011 24.2539 225.828 24.0664C225.644 23.8789 225.502 23.6348 225.4 23.334C225.302 23.0332 225.254 22.6719 225.254 22.25V18.1602H226.338V22.2617C226.338 22.5469 226.369 22.7832 226.431 22.9707C226.498 23.1543 226.586 23.3008 226.695 23.4102C226.808 23.5156 226.933 23.5898 227.07 23.6328C227.211 23.6758 227.355 23.6973 227.504 23.6973C227.965 23.6973 228.33 23.6094 228.599 23.4336C228.869 23.2539 229.062 23.0137 229.179 22.7129C229.301 22.4082 229.361 22.0703 229.361 21.6992ZM233.222 19.3789V26.9375H232.132V18.1602H233.128L233.222 19.3789ZM237.494 21.2773V21.4004C237.494 21.8613 237.439 22.2891 237.33 22.6836C237.22 23.0742 237.06 23.4141 236.849 23.7031C236.642 23.9922 236.386 24.2168 236.082 24.377C235.777 24.5371 235.427 24.6172 235.033 24.6172C234.63 24.6172 234.275 24.5508 233.966 24.418C233.658 24.2852 233.396 24.0918 233.181 23.8379C232.966 23.584 232.794 23.2793 232.666 22.9238C232.541 22.5684 232.455 22.168 232.408 21.7227V21.0664C232.455 20.5977 232.542 20.1777 232.671 19.8066C232.8 19.4355 232.97 19.1191 233.181 18.8574C233.396 18.5918 233.656 18.3906 233.96 18.2539C234.265 18.1133 234.617 18.043 235.015 18.043C235.414 18.043 235.767 18.1211 236.076 18.2773C236.384 18.4297 236.644 18.6484 236.855 18.9336C237.066 19.2188 237.224 19.5605 237.33 19.959C237.439 20.3535 237.494 20.793 237.494 21.2773ZM236.404 21.4004V21.2773C236.404 20.9609 236.371 20.6641 236.304 20.3867C236.238 20.1055 236.134 19.8594 235.994 19.6484C235.857 19.4336 235.681 19.2656 235.466 19.1445C235.251 19.0195 234.996 18.957 234.699 18.957C234.425 18.957 234.187 19.0039 233.984 19.0977C233.785 19.1914 233.615 19.3184 233.474 19.4785C233.334 19.6348 233.218 19.8145 233.128 20.0176C233.042 20.2168 232.978 20.4238 232.935 20.6387V22.1562C233.013 22.4297 233.123 22.6875 233.263 22.9297C233.404 23.168 233.591 23.3613 233.826 23.5098C234.06 23.6543 234.355 23.7266 234.71 23.7266C235.003 23.7266 235.255 23.666 235.466 23.5449C235.681 23.4199 235.857 23.25 235.994 23.0352C236.134 22.8203 236.238 22.5742 236.304 22.2969C236.371 22.0156 236.404 21.7168 236.404 21.4004ZM242.995 23.0352V18.1602H244.085V24.5H243.048L242.995 23.0352ZM243.2 21.6992L243.652 21.6875C243.652 22.1094 243.607 22.5 243.517 22.8594C243.431 23.2148 243.29 23.5234 243.095 23.7852C242.9 24.0469 242.644 24.252 242.327 24.4004C242.011 24.5449 241.626 24.6172 241.173 24.6172C240.865 24.6172 240.581 24.5723 240.324 24.4824C240.07 24.3926 239.851 24.2539 239.667 24.0664C239.484 23.8789 239.341 23.6348 239.24 23.334C239.142 23.0332 239.093 22.6719 239.093 22.25V18.1602H240.177V22.2617C240.177 22.5469 240.208 22.7832 240.271 22.9707C240.337 23.1543 240.425 23.3008 240.534 23.4102C240.648 23.5156 240.773 23.5898 240.909 23.6328C241.05 23.6758 241.195 23.6973 241.343 23.6973C241.804 23.6973 242.169 23.6094 242.439 23.4336C242.708 23.2539 242.902 23.0137 243.019 22.7129C243.14 22.4082 243.2 22.0703 243.2 21.6992ZM249.669 22.8184C249.669 22.6621 249.634 22.5176 249.564 22.3848C249.497 22.248 249.358 22.125 249.147 22.0156C248.94 21.9023 248.628 21.8047 248.21 21.7227C247.858 21.6484 247.54 21.5605 247.255 21.459C246.974 21.3574 246.733 21.2344 246.534 21.0898C246.339 20.9453 246.189 20.7754 246.083 20.5801C245.978 20.3848 245.925 20.1562 245.925 19.8945C245.925 19.6445 245.98 19.4082 246.089 19.1855C246.202 18.9629 246.36 18.7656 246.564 18.5938C246.771 18.4219 247.019 18.2871 247.308 18.1895C247.597 18.0918 247.919 18.043 248.274 18.043C248.782 18.043 249.216 18.1328 249.575 18.3125C249.935 18.4922 250.21 18.7324 250.401 19.0332C250.593 19.3301 250.689 19.6602 250.689 20.0234H249.605C249.605 19.8477 249.552 19.6777 249.446 19.5137C249.345 19.3457 249.194 19.207 248.995 19.0977C248.8 18.9883 248.56 18.9336 248.274 18.9336C247.974 18.9336 247.73 18.9805 247.542 19.0742C247.358 19.1641 247.224 19.2793 247.138 19.4199C247.056 19.5605 247.015 19.709 247.015 19.8652C247.015 19.9824 247.034 20.0879 247.073 20.1816C247.116 20.2715 247.19 20.3555 247.296 20.4336C247.401 20.5078 247.55 20.5781 247.741 20.6445C247.933 20.7109 248.177 20.7773 248.474 20.8438C248.993 20.9609 249.421 21.1016 249.757 21.2656C250.093 21.4297 250.343 21.6309 250.507 21.8691C250.671 22.1074 250.753 22.3965 250.753 22.7363C250.753 23.0137 250.694 23.2676 250.577 23.498C250.464 23.7285 250.298 23.9277 250.079 24.0957C249.864 24.2598 249.606 24.3887 249.306 24.4824C249.009 24.5723 248.675 24.6172 248.304 24.6172C247.745 24.6172 247.272 24.5176 246.886 24.3184C246.499 24.1191 246.206 23.8613 246.007 23.5449C245.808 23.2285 245.708 22.8945 245.708 22.543H246.798C246.814 22.8398 246.899 23.0762 247.056 23.252C247.212 23.4238 247.403 23.5469 247.63 23.6211C247.856 23.6914 248.081 23.7266 248.304 23.7266C248.601 23.7266 248.849 23.6875 249.048 23.6094C249.251 23.5312 249.405 23.4238 249.511 23.2871C249.616 23.1504 249.669 22.9941 249.669 22.8184Z" fill="#686868"/>
<path d="M266.6 15.9688L263.043 25.2324H262.111L265.674 15.9688H266.6Z" fill="#686868"/>
<path d="M281.137 21.1543H278.857V20.2344H281.137C281.578 20.2344 281.936 20.1641 282.209 20.0234C282.482 19.8828 282.682 19.6875 282.807 19.4375C282.936 19.1875 283 18.9023 283 18.582C283 18.2891 282.936 18.0137 282.807 17.7559C282.682 17.498 282.482 17.291 282.209 17.1348C281.936 16.9746 281.578 16.8945 281.137 16.8945H279.121V24.5H277.99V15.9688H281.137C281.781 15.9688 282.326 16.0801 282.771 16.3027C283.217 16.5254 283.555 16.834 283.785 17.2285C284.016 17.6191 284.131 18.0664 284.131 18.5703C284.131 19.1172 284.016 19.584 283.785 19.9707C283.555 20.3574 283.217 20.6523 282.771 20.8555C282.326 21.0547 281.781 21.1543 281.137 21.1543ZM289.515 23.0352V18.1602H290.605V24.5H289.568L289.515 23.0352ZM289.72 21.6992L290.172 21.6875C290.172 22.1094 290.127 22.5 290.037 22.8594C289.951 23.2148 289.81 23.5234 289.615 23.7852C289.42 24.0469 289.164 24.252 288.847 24.4004C288.531 24.5449 288.146 24.6172 287.693 24.6172C287.385 24.6172 287.101 24.5723 286.844 24.4824C286.59 24.3926 286.371 24.2539 286.187 24.0664C286.004 23.8789 285.861 23.6348 285.76 23.334C285.662 23.0332 285.613 22.6719 285.613 22.25V18.1602H286.697V22.2617C286.697 22.5469 286.728 22.7832 286.791 22.9707C286.857 23.1543 286.945 23.3008 287.054 23.4102C287.168 23.5156 287.293 23.5898 287.429 23.6328C287.57 23.6758 287.715 23.6973 287.863 23.6973C288.324 23.6973 288.689 23.6094 288.959 23.4336C289.228 23.2539 289.422 23.0137 289.539 22.7129C289.66 22.4082 289.72 22.0703 289.72 21.6992ZM293.582 19.3789V26.9375H292.492V18.1602H293.488L293.582 19.3789ZM297.853 21.2773V21.4004C297.853 21.8613 297.798 22.2891 297.689 22.6836C297.58 23.0742 297.419 23.4141 297.209 23.7031C297.001 23.9922 296.746 24.2168 296.441 24.377C296.136 24.5371 295.787 24.6172 295.392 24.6172C294.99 24.6172 294.634 24.5508 294.326 24.418C294.017 24.2852 293.755 24.0918 293.541 23.8379C293.326 23.584 293.154 23.2793 293.025 22.9238C292.9 22.5684 292.814 22.168 292.767 21.7227V21.0664C292.814 20.5977 292.902 20.1777 293.031 19.8066C293.16 19.4355 293.33 19.1191 293.541 18.8574C293.755 18.5918 294.015 18.3906 294.32 18.2539C294.625 18.1133 294.976 18.043 295.375 18.043C295.773 18.043 296.126 18.1211 296.435 18.2773C296.744 18.4297 297.003 18.6484 297.214 18.9336C297.425 19.2188 297.584 19.5605 297.689 19.959C297.798 20.3535 297.853 20.793 297.853 21.2773ZM296.763 21.4004V21.2773C296.763 20.9609 296.73 20.6641 296.664 20.3867C296.597 20.1055 296.494 19.8594 296.353 19.6484C296.216 19.4336 296.041 19.2656 295.826 19.1445C295.611 19.0195 295.355 18.957 295.058 18.957C294.785 18.957 294.546 19.0039 294.343 19.0977C294.144 19.1914 293.974 19.3184 293.834 19.4785C293.693 19.6348 293.578 19.8145 293.488 20.0176C293.402 20.2168 293.337 20.4238 293.294 20.6387V22.1562C293.373 22.4297 293.482 22.6875 293.623 22.9297C293.763 23.168 293.951 23.3613 294.185 23.5098C294.419 23.6543 294.714 23.7266 295.07 23.7266C295.363 23.7266 295.615 23.666 295.826 23.5449C296.041 23.4199 296.216 23.25 296.353 23.0352C296.494 22.8203 296.597 22.5742 296.664 22.2969C296.73 22.0156 296.763 21.7168 296.763 21.4004ZM300.654 18.1602V24.5H299.564V18.1602H300.654ZM299.482 16.4785C299.482 16.3027 299.534 16.1543 299.64 16.0332C299.749 15.9121 299.909 15.8516 300.12 15.8516C300.327 15.8516 300.486 15.9121 300.595 16.0332C300.708 16.1543 300.765 16.3027 300.765 16.4785C300.765 16.6465 300.708 16.791 300.595 16.9121C300.486 17.0293 300.327 17.0879 300.12 17.0879C299.909 17.0879 299.749 17.0293 299.64 16.9121C299.534 16.791 299.482 16.6465 299.482 16.4785ZM306.325 22.8184C306.325 22.6621 306.29 22.5176 306.22 22.3848C306.153 22.248 306.015 22.125 305.804 22.0156C305.597 21.9023 305.284 21.8047 304.866 21.7227C304.515 21.6484 304.196 21.5605 303.911 21.459C303.63 21.3574 303.39 21.2344 303.19 21.0898C302.995 20.9453 302.845 20.7754 302.739 20.5801C302.634 20.3848 302.581 20.1562 302.581 19.8945C302.581 19.6445 302.636 19.4082 302.745 19.1855C302.858 18.9629 303.017 18.7656 303.22 18.5938C303.427 18.4219 303.675 18.2871 303.964 18.1895C304.253 18.0918 304.575 18.043 304.931 18.043C305.439 18.043 305.872 18.1328 306.231 18.3125C306.591 18.4922 306.866 18.7324 307.058 19.0332C307.249 19.3301 307.345 19.6602 307.345 20.0234H306.261C306.261 19.8477 306.208 19.6777 306.103 19.5137C306.001 19.3457 305.851 19.207 305.651 19.0977C305.456 18.9883 305.216 18.9336 304.931 18.9336C304.63 18.9336 304.386 18.9805 304.198 19.0742C304.015 19.1641 303.88 19.2793 303.794 19.4199C303.712 19.5605 303.671 19.709 303.671 19.8652C303.671 19.9824 303.69 20.0879 303.73 20.1816C303.772 20.2715 303.847 20.3555 303.952 20.4336C304.058 20.5078 304.206 20.5781 304.397 20.6445C304.589 20.7109 304.833 20.7773 305.13 20.8438C305.649 20.9609 306.077 21.1016 306.413 21.2656C306.749 21.4297 306.999 21.6309 307.163 21.8691C307.327 22.1074 307.409 22.3965 307.409 22.7363C307.409 23.0137 307.351 23.2676 307.233 23.498C307.12 23.7285 306.954 23.9277 306.735 24.0957C306.521 24.2598 306.263 24.3887 305.962 24.4824C305.665 24.5723 305.331 24.6172 304.96 24.6172C304.401 24.6172 303.929 24.5176 303.542 24.3184C303.155 24.1191 302.862 23.8613 302.663 23.5449C302.464 23.2285 302.364 22.8945 302.364 22.543H303.454C303.47 22.8398 303.556 23.0762 303.712 23.252C303.868 23.4238 304.06 23.5469 304.286 23.6211C304.513 23.6914 304.737 23.7266 304.96 23.7266C305.257 23.7266 305.505 23.6875 305.704 23.6094C305.907 23.5312 306.062 23.4238 306.167 23.2871C306.272 23.1504 306.325 22.9941 306.325 22.8184Z" fill="#686868"/>
<path d="M323.6 15.9688L320.043 25.2324H319.111L322.674 15.9688H323.6Z" fill="#686868"/>
<path d="M340.141 21.7871H341.266C341.207 22.3262 341.053 22.8086 340.803 23.2344C340.553 23.6602 340.199 23.998 339.742 24.248C339.285 24.4941 338.715 24.6172 338.031 24.6172C337.531 24.6172 337.076 24.5234 336.666 24.3359C336.26 24.1484 335.91 23.8828 335.617 23.5391C335.324 23.1914 335.098 22.7754 334.938 22.291C334.781 21.8027 334.703 21.2598 334.703 20.6621V19.8125C334.703 19.2148 334.781 18.6738 334.938 18.1895C335.098 17.7012 335.326 17.2832 335.623 16.9355C335.924 16.5879 336.285 16.3203 336.707 16.1328C337.129 15.9453 337.604 15.8516 338.131 15.8516C338.775 15.8516 339.32 15.9727 339.766 16.2148C340.211 16.457 340.557 16.793 340.803 17.2227C341.053 17.6484 341.207 18.1426 341.266 18.7051H340.141C340.086 18.3066 339.984 17.9648 339.836 17.6797C339.688 17.3906 339.477 17.168 339.203 17.0117C338.93 16.8555 338.572 16.7773 338.131 16.7773C337.752 16.7773 337.418 16.8496 337.129 16.9941C336.844 17.1387 336.604 17.3438 336.408 17.6094C336.217 17.875 336.072 18.1934 335.975 18.5645C335.877 18.9355 335.828 19.3477 335.828 19.8008V20.6621C335.828 21.0801 335.871 21.4727 335.957 21.8398C336.047 22.207 336.182 22.5293 336.361 22.8066C336.541 23.084 336.77 23.3027 337.047 23.4629C337.324 23.6191 337.652 23.6973 338.031 23.6973C338.512 23.6973 338.895 23.6211 339.18 23.4688C339.465 23.3164 339.68 23.0977 339.824 22.8125C339.973 22.5273 340.078 22.1855 340.141 21.7871ZM342.595 21.4004V21.2656C342.595 20.8086 342.662 20.3848 342.795 19.9941C342.927 19.5996 343.119 19.2578 343.369 18.9688C343.619 18.6758 343.922 18.4492 344.277 18.2891C344.633 18.125 345.031 18.043 345.472 18.043C345.918 18.043 346.318 18.125 346.674 18.2891C347.033 18.4492 347.338 18.6758 347.588 18.9688C347.842 19.2578 348.035 19.5996 348.168 19.9941C348.301 20.3848 348.367 20.8086 348.367 21.2656V21.4004C348.367 21.8574 348.301 22.2812 348.168 22.6719C348.035 23.0625 347.842 23.4043 347.588 23.6973C347.338 23.9863 347.035 24.2129 346.679 24.377C346.328 24.5371 345.929 24.6172 345.484 24.6172C345.039 24.6172 344.638 24.5371 344.283 24.377C343.927 24.2129 343.623 23.9863 343.369 23.6973C343.119 23.4043 342.927 23.0625 342.795 22.6719C342.662 22.2812 342.595 21.8574 342.595 21.4004ZM343.679 21.2656V21.4004C343.679 21.7168 343.717 22.0156 343.791 22.2969C343.865 22.5742 343.976 22.8203 344.125 23.0352C344.277 23.25 344.467 23.4199 344.693 23.5449C344.92 23.666 345.183 23.7266 345.484 23.7266C345.781 23.7266 346.041 23.666 346.263 23.5449C346.49 23.4199 346.677 23.25 346.826 23.0352C346.974 22.8203 347.086 22.5742 347.16 22.2969C347.238 22.0156 347.277 21.7168 347.277 21.4004V21.2656C347.277 20.9531 347.238 20.6582 347.16 20.3809C347.086 20.0996 346.972 19.8516 346.82 19.6367C346.672 19.418 346.484 19.2461 346.258 19.1211C346.035 18.9961 345.773 18.9336 345.472 18.9336C345.176 18.9336 344.914 18.9961 344.687 19.1211C344.465 19.2461 344.277 19.418 344.125 19.6367C343.976 19.8516 343.865 20.0996 343.791 20.3809C343.717 20.6582 343.679 20.9531 343.679 21.2656ZM353.845 23.0352V18.1602H354.935V24.5H353.898L353.845 23.0352ZM354.05 21.6992L354.501 21.6875C354.501 22.1094 354.457 22.5 354.367 22.8594C354.281 23.2148 354.14 23.5234 353.945 23.7852C353.75 24.0469 353.494 24.252 353.177 24.4004C352.861 24.5449 352.476 24.6172 352.023 24.6172C351.714 24.6172 351.431 24.5723 351.173 24.4824C350.919 24.3926 350.701 24.2539 350.517 24.0664C350.334 23.8789 350.191 23.6348 350.089 23.334C349.992 23.0332 349.943 22.6719 349.943 22.25V18.1602H351.027V22.2617C351.027 22.5469 351.058 22.7832 351.121 22.9707C351.187 23.1543 351.275 23.3008 351.384 23.4102C351.498 23.5156 351.623 23.5898 351.759 23.6328C351.9 23.6758 352.044 23.6973 352.193 23.6973C352.654 23.6973 353.019 23.6094 353.289 23.4336C353.558 23.2539 353.751 23.0137 353.869 22.7129C353.99 22.4082 354.05 22.0703 354.05 21.6992ZM357.911 19.3789V26.9375H356.822V18.1602H357.818L357.911 19.3789ZM362.183 21.2773V21.4004C362.183 21.8613 362.128 22.2891 362.019 22.6836C361.909 23.0742 361.749 23.4141 361.538 23.7031C361.331 23.9922 361.075 24.2168 360.771 24.377C360.466 24.5371 360.116 24.6172 359.722 24.6172C359.32 24.6172 358.964 24.5508 358.656 24.418C358.347 24.2852 358.085 24.0918 357.87 23.8379C357.656 23.584 357.484 23.2793 357.355 22.9238C357.23 22.5684 357.144 22.168 357.097 21.7227V21.0664C357.144 20.5977 357.232 20.1777 357.361 19.8066C357.49 19.4355 357.659 19.1191 357.87 18.8574C358.085 18.5918 358.345 18.3906 358.65 18.2539C358.954 18.1133 359.306 18.043 359.704 18.043C360.103 18.043 360.456 18.1211 360.765 18.2773C361.074 18.4297 361.333 18.6484 361.544 18.9336C361.755 19.2188 361.913 19.5605 362.019 19.959C362.128 20.3535 362.183 20.793 362.183 21.2773ZM361.093 21.4004V21.2773C361.093 20.9609 361.06 20.6641 360.993 20.3867C360.927 20.1055 360.824 19.8594 360.683 19.6484C360.546 19.4336 360.37 19.2656 360.156 19.1445C359.941 19.0195 359.685 18.957 359.388 18.957C359.115 18.957 358.876 19.0039 358.673 19.0977C358.474 19.1914 358.304 19.3184 358.163 19.4785C358.023 19.6348 357.907 19.8145 357.818 20.0176C357.732 20.2168 357.667 20.4238 357.624 20.6387V22.1562C357.702 22.4297 357.812 22.6875 357.952 22.9297C358.093 23.168 358.281 23.3613 358.515 23.5098C358.749 23.6543 359.044 23.7266 359.4 23.7266C359.693 23.7266 359.945 23.666 360.156 23.5449C360.37 23.4199 360.546 23.25 360.683 23.0352C360.824 22.8203 360.927 22.5742 360.993 22.2969C361.06 22.0156 361.093 21.7168 361.093 21.4004ZM366.437 24.6172C365.995 24.6172 365.595 24.543 365.235 24.3945C364.88 24.2422 364.573 24.0293 364.315 23.7559C364.062 23.4824 363.866 23.1582 363.73 22.7832C363.593 22.4082 363.524 21.998 363.524 21.5527V21.3066C363.524 20.791 363.601 20.332 363.753 19.9297C363.905 19.5234 364.112 19.1797 364.374 18.8984C364.636 18.6172 364.933 18.4043 365.265 18.2598C365.597 18.1152 365.94 18.043 366.296 18.043C366.749 18.043 367.14 18.1211 367.468 18.2773C367.8 18.4336 368.071 18.6523 368.282 18.9336C368.493 19.2109 368.649 19.5391 368.751 19.918C368.853 20.293 368.903 20.7031 368.903 21.1484V21.6348H364.169V20.75H367.819V20.668C367.804 20.3867 367.745 20.1133 367.644 19.8477C367.546 19.582 367.39 19.3633 367.175 19.1914C366.96 19.0195 366.667 18.9336 366.296 18.9336C366.05 18.9336 365.823 18.9863 365.616 19.0918C365.409 19.1934 365.231 19.3457 365.083 19.5488C364.935 19.752 364.819 20 364.737 20.293C364.655 20.5859 364.614 20.9238 364.614 21.3066V21.5527C364.614 21.8535 364.655 22.1367 364.737 22.4023C364.823 22.6641 364.946 22.8945 365.106 23.0938C365.271 23.293 365.468 23.4492 365.698 23.5625C365.933 23.6758 366.198 23.7324 366.495 23.7324C366.878 23.7324 367.202 23.6543 367.468 23.498C367.733 23.3418 367.966 23.1328 368.165 22.8711L368.821 23.3926C368.685 23.5996 368.511 23.7969 368.3 23.9844C368.089 24.1719 367.829 24.3242 367.521 24.4414C367.216 24.5586 366.855 24.6172 366.437 24.6172Z" fill="#686868"/>
</svg>
