<svg width="360" height="124" viewBox="0 0 360 124" fill="none" xmlns="http://www.w3.org/2000/svg">
<rect width="360" height="124" fill="white"/>
<rect width="360" height="28" fill="#F4F4F4"/>
<path d="M22.7049 14L26.7049 18L25.9999 18.705L21.2949 14L25.9999 9.29498L26.7049 9.99998L22.7049 14Z" fill="#686868"/>
<path d="M110.349 9.04688H111.627L114.888 17.1611L118.142 9.04688H119.427L115.38 19H114.382L110.349 9.04688ZM109.932 9.04688H111.06L111.244 15.1172V19H109.932V9.04688ZM118.709 9.04688H119.837V19H118.524V15.1172L118.709 9.04688ZM125.032 19.1367C124.517 19.1367 124.05 19.0501 123.631 18.877C123.216 18.6992 122.858 18.4508 122.558 18.1318C122.261 17.8128 122.034 17.4346 121.874 16.9971C121.715 16.5596 121.635 16.0811 121.635 15.5615V15.2744C121.635 14.6729 121.724 14.1374 121.901 13.668C122.079 13.194 122.321 12.793 122.626 12.4648C122.931 12.1367 123.278 11.8883 123.665 11.7197C124.052 11.5511 124.453 11.4668 124.868 11.4668C125.397 11.4668 125.853 11.5579 126.235 11.7402C126.623 11.9225 126.939 12.1777 127.186 12.5059C127.432 12.8294 127.614 13.2122 127.732 13.6543C127.851 14.0918 127.91 14.5703 127.91 15.0898V15.6572H122.387V14.625H126.646V14.5293C126.627 14.2012 126.559 13.8822 126.44 13.5723C126.326 13.2624 126.144 13.0072 125.894 12.8066C125.643 12.6061 125.301 12.5059 124.868 12.5059C124.581 12.5059 124.317 12.5674 124.075 12.6904C123.834 12.8089 123.626 12.9867 123.453 13.2236C123.28 13.4606 123.146 13.75 123.05 14.0918C122.954 14.4336 122.906 14.8278 122.906 15.2744V15.5615C122.906 15.9124 122.954 16.2428 123.05 16.5527C123.15 16.8581 123.294 17.127 123.48 17.3594C123.672 17.5918 123.902 17.7741 124.171 17.9062C124.444 18.0384 124.754 18.1045 125.101 18.1045C125.547 18.1045 125.925 18.0133 126.235 17.8311C126.545 17.6488 126.816 17.4049 127.049 17.0996L127.814 17.708C127.655 17.9495 127.452 18.1797 127.206 18.3984C126.96 18.6172 126.657 18.7949 126.297 18.9316C125.941 19.0684 125.52 19.1367 125.032 19.1367ZM130.651 13.1826V19H129.387V11.6035H130.583L130.651 13.1826ZM130.351 15.0215L129.824 15.001C129.829 14.4951 129.904 14.028 130.05 13.5996C130.196 13.1667 130.401 12.7907 130.665 12.4717C130.929 12.1527 131.244 11.9066 131.608 11.7334C131.978 11.5557 132.385 11.4668 132.832 11.4668C133.197 11.4668 133.525 11.5169 133.816 11.6172C134.108 11.7129 134.356 11.8678 134.562 12.082C134.771 12.2962 134.931 12.5742 135.04 12.916C135.149 13.2533 135.204 13.6657 135.204 14.1533V19H133.933V14.1396C133.933 13.7523 133.876 13.4424 133.762 13.21C133.648 12.973 133.481 12.8021 133.263 12.6973C133.044 12.5879 132.775 12.5332 132.456 12.5332C132.142 12.5332 131.854 12.5993 131.595 12.7314C131.34 12.8636 131.118 13.0459 130.932 13.2783C130.749 13.5107 130.606 13.7773 130.501 14.0781C130.401 14.3743 130.351 14.6888 130.351 15.0215ZM141.432 17.0381C141.432 16.8558 141.391 16.6872 141.309 16.5322C141.231 16.3727 141.069 16.2292 140.823 16.1016C140.582 15.9694 140.217 15.8555 139.729 15.7598C139.319 15.6732 138.948 15.5706 138.615 15.4521C138.287 15.3337 138.007 15.1901 137.774 15.0215C137.547 14.8529 137.371 14.6546 137.248 14.4268C137.125 14.1989 137.063 13.9323 137.063 13.627C137.063 13.3353 137.127 13.0596 137.255 12.7998C137.387 12.54 137.572 12.3099 137.809 12.1094C138.05 11.9089 138.34 11.7516 138.677 11.6377C139.014 11.5238 139.39 11.4668 139.805 11.4668C140.397 11.4668 140.903 11.5716 141.322 11.7812C141.742 11.9909 142.063 12.2712 142.286 12.6221C142.509 12.9684 142.621 13.3535 142.621 13.7773H141.356C141.356 13.5723 141.295 13.374 141.172 13.1826C141.053 12.9867 140.878 12.8249 140.646 12.6973C140.418 12.5697 140.137 12.5059 139.805 12.5059C139.454 12.5059 139.169 12.5605 138.95 12.6699C138.736 12.7747 138.579 12.9092 138.479 13.0732C138.383 13.2373 138.335 13.4105 138.335 13.5928C138.335 13.7295 138.358 13.8525 138.403 13.9619C138.453 14.0667 138.54 14.1647 138.663 14.2559C138.786 14.3424 138.959 14.4245 139.183 14.502C139.406 14.5794 139.691 14.6569 140.037 14.7344C140.643 14.8711 141.142 15.0352 141.534 15.2266C141.926 15.418 142.218 15.6527 142.409 15.9307C142.601 16.2087 142.696 16.5459 142.696 16.9424C142.696 17.266 142.628 17.5622 142.491 17.8311C142.359 18.0999 142.165 18.3324 141.91 18.5283C141.66 18.7197 141.359 18.8701 141.008 18.9795C140.661 19.0843 140.272 19.1367 139.839 19.1367C139.187 19.1367 138.636 19.0205 138.185 18.7881C137.733 18.5557 137.392 18.2549 137.159 17.8857C136.927 17.5166 136.811 17.127 136.811 16.7168H138.082C138.1 17.0632 138.201 17.3389 138.383 17.5439C138.565 17.7445 138.788 17.888 139.053 17.9746C139.317 18.0566 139.579 18.0977 139.839 18.0977C140.185 18.0977 140.475 18.0521 140.707 17.9609C140.944 17.8698 141.124 17.7445 141.247 17.585C141.37 17.4255 141.432 17.2432 141.432 17.0381ZM148.719 17.7354V13.9277C148.719 13.6361 148.66 13.3831 148.541 13.1689C148.427 12.9502 148.254 12.7816 148.021 12.6631C147.789 12.5446 147.502 12.4854 147.16 12.4854C146.841 12.4854 146.561 12.54 146.319 12.6494C146.082 12.7588 145.896 12.9023 145.759 13.0801C145.627 13.2578 145.561 13.4492 145.561 13.6543H144.296C144.296 13.39 144.364 13.1279 144.501 12.8682C144.638 12.6084 144.834 12.3737 145.089 12.1641C145.349 11.9499 145.659 11.7812 146.019 11.6582C146.383 11.5306 146.789 11.4668 147.235 11.4668C147.773 11.4668 148.247 11.5579 148.657 11.7402C149.072 11.9225 149.396 12.1982 149.628 12.5674C149.865 12.932 149.983 13.39 149.983 13.9414V17.3867C149.983 17.6328 150.004 17.8949 150.045 18.1729C150.09 18.4508 150.157 18.6901 150.243 18.8906V19H148.924C148.86 18.8542 148.81 18.6605 148.773 18.4189C148.737 18.1729 148.719 17.945 148.719 17.7354ZM148.938 14.5156L148.951 15.4043H147.673C147.313 15.4043 146.992 15.4339 146.709 15.4932C146.426 15.5479 146.189 15.6322 145.998 15.7461C145.807 15.86 145.661 16.0036 145.561 16.1768C145.46 16.3454 145.41 16.5436 145.41 16.7715C145.41 17.0039 145.463 17.2158 145.567 17.4072C145.672 17.5986 145.829 17.7513 146.039 17.8652C146.253 17.9746 146.515 18.0293 146.825 18.0293C147.213 18.0293 147.554 17.9473 147.851 17.7832C148.147 17.6191 148.382 17.4186 148.555 17.1816C148.732 16.9447 148.828 16.7145 148.842 16.4912L149.382 17.0996C149.35 17.291 149.263 17.5029 149.122 17.7354C148.981 17.9678 148.792 18.1911 148.555 18.4053C148.322 18.6149 148.044 18.7904 147.721 18.9316C147.402 19.0684 147.042 19.1367 146.641 19.1367C146.139 19.1367 145.7 19.0387 145.321 18.8428C144.948 18.6468 144.656 18.3848 144.446 18.0566C144.241 17.724 144.139 17.3525 144.139 16.9424C144.139 16.5459 144.216 16.1973 144.371 15.8965C144.526 15.5911 144.749 15.3382 145.041 15.1377C145.333 14.9326 145.684 14.7777 146.094 14.6729C146.504 14.568 146.962 14.5156 147.468 14.5156H148.938ZM152.007 11.6035H153.278V19.8818C153.278 20.333 153.205 20.7158 153.06 21.0303C152.918 21.3447 152.704 21.5817 152.417 21.7412C152.134 21.9053 151.777 21.9873 151.344 21.9873C151.23 21.9873 151.098 21.9759 150.947 21.9531C150.792 21.9303 150.662 21.903 150.558 21.8711L150.564 20.8525C150.651 20.8708 150.749 20.8844 150.858 20.8936C150.968 20.9072 151.063 20.9141 151.146 20.9141C151.332 20.9141 151.49 20.8799 151.617 20.8115C151.745 20.7432 151.84 20.6338 151.904 20.4834C151.973 20.333 152.007 20.1325 152.007 19.8818V11.6035ZM151.877 9.6416C151.877 9.43652 151.941 9.26335 152.068 9.12207C152.196 8.98079 152.381 8.91016 152.622 8.91016C152.868 8.91016 153.055 8.98079 153.183 9.12207C153.31 9.26335 153.374 9.43652 153.374 9.6416C153.374 9.83757 153.31 10.0062 153.183 10.1475C153.055 10.2842 152.868 10.3525 152.622 10.3525C152.381 10.3525 152.196 10.2842 152.068 10.1475C151.941 10.0062 151.877 9.83757 151.877 9.6416ZM158.392 19.1367C157.877 19.1367 157.41 19.0501 156.99 18.877C156.576 18.6992 156.218 18.4508 155.917 18.1318C155.621 17.8128 155.393 17.4346 155.233 16.9971C155.074 16.5596 154.994 16.0811 154.994 15.5615V15.2744C154.994 14.6729 155.083 14.1374 155.261 13.668C155.438 13.194 155.68 12.793 155.985 12.4648C156.291 12.1367 156.637 11.8883 157.024 11.7197C157.412 11.5511 157.813 11.4668 158.228 11.4668C158.756 11.4668 159.212 11.5579 159.595 11.7402C159.982 11.9225 160.299 12.1777 160.545 12.5059C160.791 12.8294 160.973 13.2122 161.092 13.6543C161.21 14.0918 161.27 14.5703 161.27 15.0898V15.6572H155.746V14.625H160.005V14.5293C159.987 14.2012 159.918 13.8822 159.8 13.5723C159.686 13.2624 159.504 13.0072 159.253 12.8066C159.002 12.6061 158.66 12.5059 158.228 12.5059C157.94 12.5059 157.676 12.5674 157.435 12.6904C157.193 12.8089 156.986 12.9867 156.812 13.2236C156.639 13.4606 156.505 13.75 156.409 14.0918C156.313 14.4336 156.266 14.8278 156.266 15.2744V15.5615C156.266 15.9124 156.313 16.2428 156.409 16.5527C156.509 16.8581 156.653 17.127 156.84 17.3594C157.031 17.5918 157.261 17.7741 157.53 17.9062C157.804 18.0384 158.114 18.1045 158.46 18.1045C158.907 18.1045 159.285 18.0133 159.595 17.8311C159.905 17.6488 160.176 17.4049 160.408 17.0996L161.174 17.708C161.014 17.9495 160.812 18.1797 160.565 18.3984C160.319 18.6172 160.016 18.7949 159.656 18.9316C159.301 19.0684 158.879 19.1367 158.392 19.1367ZM170.881 17.5645V8.5H172.152V19H170.99L170.881 17.5645ZM165.904 15.3838V15.2402C165.904 14.6751 165.973 14.1624 166.109 13.7021C166.251 13.2373 166.449 12.8385 166.704 12.5059C166.964 12.1732 167.271 11.918 167.627 11.7402C167.987 11.5579 168.388 11.4668 168.83 11.4668C169.295 11.4668 169.701 11.5488 170.047 11.7129C170.398 11.8724 170.694 12.1071 170.936 12.417C171.182 12.7223 171.375 13.0915 171.517 13.5244C171.658 13.9574 171.756 14.4473 171.811 14.9941V15.623C171.76 16.1654 171.662 16.653 171.517 17.0859C171.375 17.5189 171.182 17.888 170.936 18.1934C170.694 18.4987 170.398 18.7334 170.047 18.8975C169.696 19.057 169.286 19.1367 168.816 19.1367C168.383 19.1367 167.987 19.0433 167.627 18.8564C167.271 18.6696 166.964 18.4076 166.704 18.0703C166.449 17.7331 166.251 17.3366 166.109 16.8809C165.973 16.4206 165.904 15.9215 165.904 15.3838ZM167.176 15.2402V15.3838C167.176 15.7529 167.212 16.0993 167.285 16.4229C167.363 16.7464 167.481 17.0312 167.641 17.2773C167.8 17.5234 168.003 17.7171 168.249 17.8584C168.495 17.9951 168.789 18.0635 169.131 18.0635C169.55 18.0635 169.894 17.9746 170.163 17.7969C170.437 17.6191 170.655 17.3844 170.819 17.0928C170.983 16.8011 171.111 16.4844 171.202 16.1426V14.4951C171.147 14.2445 171.068 14.0029 170.963 13.7705C170.863 13.5335 170.73 13.3239 170.566 13.1416C170.407 12.9548 170.209 12.8066 169.972 12.6973C169.739 12.5879 169.464 12.5332 169.145 12.5332C168.798 12.5332 168.5 12.6061 168.249 12.752C168.003 12.8932 167.8 13.0892 167.641 13.3398C167.481 13.5859 167.363 13.873 167.285 14.2012C167.212 14.5247 167.176 14.8711 167.176 15.2402ZM177.19 19.1367C176.675 19.1367 176.208 19.0501 175.789 18.877C175.374 18.6992 175.017 18.4508 174.716 18.1318C174.42 17.8128 174.192 17.4346 174.032 16.9971C173.873 16.5596 173.793 16.0811 173.793 15.5615V15.2744C173.793 14.6729 173.882 14.1374 174.06 13.668C174.237 13.194 174.479 12.793 174.784 12.4648C175.09 12.1367 175.436 11.8883 175.823 11.7197C176.211 11.5511 176.612 11.4668 177.026 11.4668C177.555 11.4668 178.011 11.5579 178.394 11.7402C178.781 11.9225 179.098 12.1777 179.344 12.5059C179.59 12.8294 179.772 13.2122 179.891 13.6543C180.009 14.0918 180.068 14.5703 180.068 15.0898V15.6572H174.545V14.625H178.804V14.5293C178.785 14.2012 178.717 13.8822 178.599 13.5723C178.485 13.2624 178.302 13.0072 178.052 12.8066C177.801 12.6061 177.459 12.5059 177.026 12.5059C176.739 12.5059 176.475 12.5674 176.233 12.6904C175.992 12.8089 175.785 12.9867 175.611 13.2236C175.438 13.4606 175.304 13.75 175.208 14.0918C175.112 14.4336 175.064 14.8278 175.064 15.2744V15.5615C175.064 15.9124 175.112 16.2428 175.208 16.5527C175.308 16.8581 175.452 17.127 175.639 17.3594C175.83 17.5918 176.06 17.7741 176.329 17.9062C176.603 18.0384 176.912 18.1045 177.259 18.1045C177.705 18.1045 178.084 18.0133 178.394 17.8311C178.703 17.6488 178.975 17.4049 179.207 17.0996L179.973 17.708C179.813 17.9495 179.61 18.1797 179.364 18.3984C179.118 18.6172 178.815 18.7949 178.455 18.9316C178.1 19.0684 177.678 19.1367 177.19 19.1367ZM186.282 13.0254V21.8438H185.011V11.6035H186.173L186.282 13.0254ZM191.266 15.2402V15.3838C191.266 15.9215 191.202 16.4206 191.074 16.8809C190.947 17.3366 190.76 17.7331 190.514 18.0703C190.272 18.4076 189.974 18.6696 189.618 18.8564C189.263 19.0433 188.855 19.1367 188.395 19.1367C187.925 19.1367 187.51 19.0592 187.15 18.9043C186.79 18.7493 186.485 18.5238 186.234 18.2275C185.984 17.9313 185.783 17.5758 185.633 17.1611C185.487 16.7464 185.387 16.2793 185.332 15.7598V14.9941C185.387 14.4473 185.489 13.9574 185.64 13.5244C185.79 13.0915 185.988 12.7223 186.234 12.417C186.485 12.1071 186.788 11.8724 187.144 11.7129C187.499 11.5488 187.909 11.4668 188.374 11.4668C188.839 11.4668 189.251 11.5579 189.611 11.7402C189.971 11.918 190.274 12.1732 190.521 12.5059C190.767 12.8385 190.951 13.2373 191.074 13.7021C191.202 14.1624 191.266 14.6751 191.266 15.2402ZM189.994 15.3838V15.2402C189.994 14.8711 189.955 14.5247 189.878 14.2012C189.8 13.873 189.68 13.5859 189.516 13.3398C189.356 13.0892 189.151 12.8932 188.9 12.752C188.65 12.6061 188.351 12.5332 188.005 12.5332C187.686 12.5332 187.408 12.5879 187.171 12.6973C186.938 12.8066 186.74 12.9548 186.576 13.1416C186.412 13.3239 186.278 13.5335 186.173 13.7705C186.073 14.0029 185.997 14.2445 185.947 14.4951V16.2656C186.038 16.5846 186.166 16.8854 186.33 17.168C186.494 17.446 186.713 17.6715 186.986 17.8447C187.26 18.0133 187.604 18.0977 188.019 18.0977C188.36 18.0977 188.654 18.027 188.9 17.8857C189.151 17.7399 189.356 17.5417 189.516 17.291C189.68 17.0404 189.8 16.7533 189.878 16.4297C189.955 16.1016 189.994 15.7529 189.994 15.3838ZM194.144 12.7656V19H192.879V11.6035H194.109L194.144 12.7656ZM196.454 11.5625L196.447 12.7383C196.342 12.7155 196.242 12.7018 196.146 12.6973C196.055 12.6882 195.951 12.6836 195.832 12.6836C195.54 12.6836 195.283 12.7292 195.06 12.8203C194.836 12.9115 194.647 13.0391 194.492 13.2031C194.337 13.3672 194.214 13.5632 194.123 13.791C194.036 14.0143 193.979 14.2604 193.952 14.5293L193.597 14.7344C193.597 14.2878 193.64 13.8685 193.727 13.4766C193.818 13.0846 193.957 12.7383 194.144 12.4375C194.33 12.1322 194.567 11.8952 194.854 11.7266C195.146 11.5534 195.493 11.4668 195.894 11.4668C195.985 11.4668 196.09 11.4782 196.208 11.501C196.326 11.5192 196.409 11.5397 196.454 11.5625ZM197.151 15.3838V15.2266C197.151 14.6934 197.229 14.1989 197.384 13.7432C197.539 13.2829 197.762 12.8841 198.054 12.5469C198.345 12.2051 198.699 11.9408 199.113 11.7539C199.528 11.5625 199.993 11.4668 200.508 11.4668C201.027 11.4668 201.494 11.5625 201.909 11.7539C202.328 11.9408 202.684 12.2051 202.976 12.5469C203.272 12.8841 203.497 13.2829 203.652 13.7432C203.807 14.1989 203.885 14.6934 203.885 15.2266V15.3838C203.885 15.917 203.807 16.4115 203.652 16.8672C203.497 17.3229 203.272 17.7217 202.976 18.0635C202.684 18.4007 202.331 18.665 201.916 18.8564C201.506 19.0433 201.041 19.1367 200.521 19.1367C200.002 19.1367 199.535 19.0433 199.12 18.8564C198.705 18.665 198.35 18.4007 198.054 18.0635C197.762 17.7217 197.539 17.3229 197.384 16.8672C197.229 16.4115 197.151 15.917 197.151 15.3838ZM198.416 15.2266V15.3838C198.416 15.7529 198.459 16.1016 198.546 16.4297C198.632 16.7533 198.762 17.0404 198.936 17.291C199.113 17.5417 199.334 17.7399 199.599 17.8857C199.863 18.027 200.171 18.0977 200.521 18.0977C200.868 18.0977 201.171 18.027 201.431 17.8857C201.695 17.7399 201.914 17.5417 202.087 17.291C202.26 17.0404 202.39 16.7533 202.477 16.4297C202.568 16.1016 202.613 15.7529 202.613 15.3838V15.2266C202.613 14.862 202.568 14.5179 202.477 14.1943C202.39 13.8662 202.258 13.5768 202.08 13.3262C201.907 13.071 201.688 12.8704 201.424 12.7246C201.164 12.5788 200.859 12.5059 200.508 12.5059C200.161 12.5059 199.856 12.5788 199.592 12.7246C199.332 12.8704 199.113 13.071 198.936 13.3262C198.762 13.5768 198.632 13.8662 198.546 14.1943C198.459 14.5179 198.416 14.862 198.416 15.2266ZM206.729 13.0732V19H205.457V11.6035H206.66L206.729 13.0732ZM206.469 15.0215L205.881 15.001C205.885 14.4951 205.951 14.028 206.079 13.5996C206.207 13.1667 206.396 12.7907 206.646 12.4717C206.897 12.1527 207.209 11.9066 207.583 11.7334C207.957 11.5557 208.39 11.4668 208.882 11.4668C209.228 11.4668 209.547 11.5169 209.839 11.6172C210.131 11.7129 210.383 11.8656 210.598 12.0752C210.812 12.2848 210.978 12.5537 211.097 12.8818C211.215 13.21 211.274 13.6064 211.274 14.0713V19H210.01V14.1328C210.01 13.7454 209.944 13.4355 209.812 13.2031C209.684 12.9707 209.502 12.8021 209.265 12.6973C209.028 12.5879 208.75 12.5332 208.431 12.5332C208.057 12.5332 207.745 12.5993 207.494 12.7314C207.243 12.8636 207.043 13.0459 206.893 13.2783C206.742 13.5107 206.633 13.7773 206.564 14.0781C206.501 14.3743 206.469 14.6888 206.469 15.0215ZM211.261 14.3242L210.413 14.584C210.418 14.1784 210.484 13.7887 210.611 13.415C210.743 13.0413 210.933 12.7087 211.179 12.417C211.429 12.1253 211.737 11.8952 212.102 11.7266C212.466 11.5534 212.883 11.4668 213.353 11.4668C213.749 11.4668 214.1 11.5192 214.405 11.624C214.715 11.7288 214.975 11.8906 215.185 12.1094C215.399 12.3236 215.561 12.5993 215.67 12.9365C215.779 13.2738 215.834 13.6748 215.834 14.1396V19H214.562V14.126C214.562 13.7113 214.496 13.39 214.364 13.1621C214.237 12.9297 214.054 12.7679 213.817 12.6768C213.585 12.5811 213.307 12.5332 212.983 12.5332C212.705 12.5332 212.459 12.5811 212.245 12.6768C212.031 12.7725 211.851 12.9046 211.705 13.0732C211.559 13.2373 211.448 13.4264 211.37 13.6406C211.297 13.8548 211.261 14.0827 211.261 14.3242ZM217.413 15.3838V15.2266C217.413 14.6934 217.491 14.1989 217.646 13.7432C217.8 13.2829 218.024 12.8841 218.315 12.5469C218.607 12.2051 218.96 11.9408 219.375 11.7539C219.79 11.5625 220.255 11.4668 220.77 11.4668C221.289 11.4668 221.756 11.5625 222.171 11.7539C222.59 11.9408 222.946 12.2051 223.237 12.5469C223.534 12.8841 223.759 13.2829 223.914 13.7432C224.069 14.1989 224.146 14.6934 224.146 15.2266V15.3838C224.146 15.917 224.069 16.4115 223.914 16.8672C223.759 17.3229 223.534 17.7217 223.237 18.0635C222.946 18.4007 222.592 18.665 222.178 18.8564C221.768 19.0433 221.303 19.1367 220.783 19.1367C220.264 19.1367 219.797 19.0433 219.382 18.8564C218.967 18.665 218.612 18.4007 218.315 18.0635C218.024 17.7217 217.8 17.3229 217.646 16.8672C217.491 16.4115 217.413 15.917 217.413 15.3838ZM218.678 15.2266V15.3838C218.678 15.7529 218.721 16.1016 218.808 16.4297C218.894 16.7533 219.024 17.0404 219.197 17.291C219.375 17.5417 219.596 17.7399 219.86 17.8857C220.125 18.027 220.432 18.0977 220.783 18.0977C221.13 18.0977 221.433 18.027 221.692 17.8857C221.957 17.7399 222.175 17.5417 222.349 17.291C222.522 17.0404 222.652 16.7533 222.738 16.4297C222.829 16.1016 222.875 15.7529 222.875 15.3838V15.2266C222.875 14.862 222.829 14.5179 222.738 14.1943C222.652 13.8662 222.52 13.5768 222.342 13.3262C222.169 13.071 221.95 12.8704 221.686 12.7246C221.426 12.5788 221.12 12.5059 220.77 12.5059C220.423 12.5059 220.118 12.5788 219.854 12.7246C219.594 12.8704 219.375 13.071 219.197 13.3262C219.024 13.5768 218.894 13.8662 218.808 14.1943C218.721 14.5179 218.678 14.862 218.678 15.2266ZM228.692 18.0977C228.993 18.0977 229.271 18.0361 229.526 17.9131C229.782 17.79 229.991 17.6214 230.155 17.4072C230.319 17.1885 230.413 16.9401 230.436 16.6621H231.639C231.616 17.0996 231.468 17.5075 231.194 17.8857C230.925 18.2594 230.572 18.5625 230.135 18.7949C229.697 19.0228 229.216 19.1367 228.692 19.1367C228.136 19.1367 227.651 19.0387 227.236 18.8428C226.826 18.6468 226.484 18.3779 226.211 18.0361C225.942 17.6943 225.739 17.3024 225.603 16.8604C225.47 16.4137 225.404 15.9421 225.404 15.4453V15.1582C225.404 14.6615 225.47 14.1921 225.603 13.75C225.739 13.3034 225.942 12.9092 226.211 12.5674C226.484 12.2256 226.826 11.9567 227.236 11.7607C227.651 11.5648 228.136 11.4668 228.692 11.4668C229.271 11.4668 229.777 11.5853 230.21 11.8223C230.643 12.0547 230.982 12.3737 231.229 12.7793C231.479 13.1803 231.616 13.6361 231.639 14.1465H230.436C230.413 13.8411 230.326 13.5654 230.176 13.3193C230.03 13.0732 229.829 12.8773 229.574 12.7314C229.324 12.5811 229.03 12.5059 228.692 12.5059C228.305 12.5059 227.979 12.5833 227.715 12.7383C227.455 12.8887 227.248 13.0938 227.093 13.3535C226.942 13.6087 226.833 13.8936 226.765 14.208C226.701 14.5179 226.669 14.8346 226.669 15.1582V15.4453C226.669 15.7689 226.701 16.0879 226.765 16.4023C226.828 16.7168 226.936 17.0016 227.086 17.2568C227.241 17.512 227.448 17.7171 227.708 17.8721C227.972 18.0225 228.3 18.0977 228.692 18.0977ZM234.435 11.6035V19H233.163V11.6035H234.435ZM233.067 9.6416C233.067 9.43652 233.129 9.26335 233.252 9.12207C233.38 8.98079 233.566 8.91016 233.812 8.91016C234.054 8.91016 234.239 8.98079 234.366 9.12207C234.498 9.26335 234.564 9.43652 234.564 9.6416C234.564 9.83757 234.498 10.0062 234.366 10.1475C234.239 10.2842 234.054 10.3525 233.812 10.3525C233.566 10.3525 233.38 10.2842 233.252 10.1475C233.129 10.0062 233.067 9.83757 233.067 9.6416ZM236.13 15.3838V15.2266C236.13 14.6934 236.207 14.1989 236.362 13.7432C236.517 13.2829 236.741 12.8841 237.032 12.5469C237.324 12.2051 237.677 11.9408 238.092 11.7539C238.507 11.5625 238.971 11.4668 239.486 11.4668C240.006 11.4668 240.473 11.5625 240.888 11.7539C241.307 11.9408 241.662 12.2051 241.954 12.5469C242.25 12.8841 242.476 13.2829 242.631 13.7432C242.786 14.1989 242.863 14.6934 242.863 15.2266V15.3838C242.863 15.917 242.786 16.4115 242.631 16.8672C242.476 17.3229 242.25 17.7217 241.954 18.0635C241.662 18.4007 241.309 18.665 240.895 18.8564C240.484 19.0433 240.02 19.1367 239.5 19.1367C238.98 19.1367 238.513 19.0433 238.099 18.8564C237.684 18.665 237.328 18.4007 237.032 18.0635C236.741 17.7217 236.517 17.3229 236.362 16.8672C236.207 16.4115 236.13 15.917 236.13 15.3838ZM237.395 15.2266V15.3838C237.395 15.7529 237.438 16.1016 237.524 16.4297C237.611 16.7533 237.741 17.0404 237.914 17.291C238.092 17.5417 238.313 17.7399 238.577 17.8857C238.841 18.027 239.149 18.0977 239.5 18.0977C239.846 18.0977 240.149 18.027 240.409 17.8857C240.674 17.7399 240.892 17.5417 241.065 17.291C241.239 17.0404 241.368 16.7533 241.455 16.4297C241.546 16.1016 241.592 15.7529 241.592 15.3838V15.2266C241.592 14.862 241.546 14.5179 241.455 14.1943C241.368 13.8662 241.236 13.5768 241.059 13.3262C240.885 13.071 240.667 12.8704 240.402 12.7246C240.143 12.5788 239.837 12.5059 239.486 12.5059C239.14 12.5059 238.835 12.5788 238.57 12.7246C238.311 12.8704 238.092 13.071 237.914 13.3262C237.741 13.5768 237.611 13.8662 237.524 14.1943C237.438 14.5179 237.395 14.862 237.395 15.2266ZM238.734 10.5098L240.061 8.5H241.585L239.753 10.5098H238.734ZM245.714 13.1826V19H244.449V11.6035H245.646L245.714 13.1826ZM245.413 15.0215L244.887 15.001C244.891 14.4951 244.966 14.028 245.112 13.5996C245.258 13.1667 245.463 12.7907 245.728 12.4717C245.992 12.1527 246.306 11.9066 246.671 11.7334C247.04 11.5557 247.448 11.4668 247.895 11.4668C248.259 11.4668 248.587 11.5169 248.879 11.6172C249.171 11.7129 249.419 11.8678 249.624 12.082C249.834 12.2962 249.993 12.5742 250.103 12.916C250.212 13.2533 250.267 13.6657 250.267 14.1533V19H248.995V14.1396C248.995 13.7523 248.938 13.4424 248.824 13.21C248.71 12.973 248.544 12.8021 248.325 12.6973C248.106 12.5879 247.838 12.5332 247.519 12.5332C247.204 12.5332 246.917 12.5993 246.657 12.7314C246.402 12.8636 246.181 13.0459 245.994 13.2783C245.812 13.5107 245.668 13.7773 245.563 14.0781C245.463 14.3743 245.413 14.6888 245.413 15.0215Z" fill="#686868"/>
<path d="M338.705 14L334 18.705L333.295 18L337.295 14L333.295 9.99998L334 9.29498L338.705 14Z" fill="#686868"/>
<g clip-path="url(#clip0_17058_9444)">
<g clip-path="url(#clip1_17058_9444)">
<path d="M217.233 44.6161L215.179 46.6696C213.706 45.6429 211.965 45.0179 210 45.0179C204.688 45.0179 200.804 49.0804 200.804 54.7054C200.804 60.1964 204.777 64.3929 210 64.3929C210.09 64.3929 210.134 64.3929 210.224 64.3929C210.224 64.3929 210.893 64.3929 211.518 64.5268C211.965 64.5714 212.411 64.7054 212.679 64.8393C214.42 65.5982 214.822 67.2946 214.866 68.0982C214.911 70.0625 212.634 71.5804 209.956 71.5804C207.59 71.5804 204.733 70.8661 204.733 67.3393H200.715C200.715 72.6964 204.241 76 209.956 76C214.777 76 218.616 72.9196 219.063 68.6339C219.286 66.5357 218.304 63.8571 216.116 62.0268C217.947 60.2857 219.063 57.7411 219.063 54.75C219.063 53.0536 218.706 51.4464 218.036 50.0625L220.358 47.7411L217.233 44.6161ZM209.956 59.9732C207.366 59.9732 205.179 58.0536 205.179 54.75C205.179 51.2232 207.366 49.4821 209.956 49.4821C212.545 49.4821 214.643 51.5357 214.643 54.75C214.643 58.0089 212.545 59.9732 209.956 59.9732ZM195.402 47.7857C194.599 46.9375 193.661 46.2679 192.5 45.8214C191.384 45.375 190.134 45.1071 188.84 45.1071C187.5 45.1071 186.295 45.3304 185.179 45.8214C184.063 46.2679 183.125 46.9375 182.277 47.7857C181.474 48.6339 180.849 49.6607 180.402 50.8661C179.956 52.0714 179.733 53.4107 179.733 54.8839C179.733 56.3571 179.956 57.6964 180.402 58.9464C180.849 60.1518 181.474 61.1786 182.277 62.0714C183.081 62.9196 184.018 63.5893 185.134 64.0804C186.25 64.5714 187.5 64.7946 188.84 64.7946C190.179 64.7946 191.429 64.5714 192.545 64.0804C193.661 63.5893 194.643 62.9196 195.447 62.0714C196.25 61.2232 196.875 60.1964 197.277 58.9464C197.724 57.7411 197.947 56.4018 197.947 54.8839C197.947 53.4107 197.724 52.0714 197.277 50.8661C196.831 49.6607 196.206 48.6339 195.402 47.7857ZM193.125 57.4732C192.902 58.1429 192.59 58.6786 192.188 59.0804C191.831 59.4821 191.384 59.7946 190.804 60.0179C190.224 60.2411 189.599 60.375 188.84 60.375C188.081 60.375 187.456 60.2411 186.92 60.0179C186.384 59.7946 185.938 59.4821 185.536 59.0804C185.134 58.6339 184.822 58.0982 184.554 57.4286C184.286 56.7143 184.152 55.8214 184.152 54.8839C184.152 53.9464 184.286 53.0536 184.554 52.3393C184.822 51.6696 185.134 51.1339 185.536 50.7321C185.938 50.3304 186.384 50.0179 186.92 49.7946C187.5 49.5714 188.125 49.4375 188.884 49.4375C189.643 49.4375 190.268 49.5714 190.849 49.7946C191.384 50.0179 191.831 50.3304 192.188 50.6875C192.59 51.1339 192.902 51.6696 193.17 52.3393C193.438 53.0536 193.572 53.9018 193.572 54.8839C193.527 55.8661 193.393 56.7589 193.125 57.4732ZM142.411 60.2411L143.125 63.7679C142.634 63.9911 141.92 64.2143 141.116 64.4375C140.268 64.6607 139.331 64.7946 138.17 64.7946C136.786 64.7946 135.67 64.6161 134.733 64.2589C133.84 63.9018 133.081 63.3661 132.545 62.6518C132.009 61.9375 131.652 61.1339 131.429 60.1071C131.25 59.125 131.161 57.9643 131.161 56.7143V40.1518L135.581 39.4375V45.2411H142.366V48.9464H135.581V56.7589C135.581 58.2768 135.804 59.3929 136.295 60.0625C136.786 60.7321 137.59 61.0446 138.795 61.0446C139.599 61.0446 140.313 60.9554 140.938 60.7768C141.563 60.5536 142.054 60.375 142.411 60.2411ZM157.59 45.0179C157.947 45.1071 158.259 45.1964 158.483 45.2411L157.724 48.9911C157.366 48.8571 156.831 48.7232 156.206 48.5893C155.536 48.4554 154.822 48.3661 153.929 48.3661C153.438 48.3661 152.902 48.4107 152.366 48.5C151.831 48.5893 151.429 48.6786 151.206 48.7679V64.2143H146.786V45.9554C147.634 45.6429 148.706 45.3304 150 45.0625C151.295 44.7946 152.724 44.6607 154.286 44.6607C154.599 44.6607 154.911 44.6607 155.313 44.7054C155.715 44.75 156.116 44.7946 156.474 44.8393C156.831 44.8839 157.233 44.9732 157.59 45.0179ZM165.625 37.5625C166.161 38.0536 166.429 38.7232 166.429 39.6161C166.429 40.4643 166.161 41.1339 165.625 41.625C165.09 42.1161 164.42 42.3839 163.706 42.3839C162.947 42.3839 162.277 42.1161 161.741 41.625C161.206 41.1339 160.938 40.4643 160.938 39.6161C160.938 38.7679 161.206 38.0536 161.741 37.5625C162.277 37.0714 162.947 36.8036 163.706 36.8036C164.42 36.8036 165.045 37.0714 165.625 37.5625ZM161.384 45.1071H165.938V64.3036H161.384V45.1071ZM177.366 60.7768C177.724 60.9107 178.215 61 178.795 61.0893L178.17 64.75C176.831 64.7054 175.759 64.5714 174.911 64.3036C174.063 64.0357 173.349 63.6339 172.858 63.1429C172.366 62.6518 171.965 62.0268 171.786 61.2679C171.608 60.5089 171.474 59.6607 171.474 58.7232V36.7143L175.893 36V57.9196C175.893 58.4554 175.938 58.9018 176.027 59.2589C176.116 59.6161 176.25 59.9286 176.474 60.1964C176.697 60.4643 177.009 60.6429 177.366 60.7768ZM228.036 37.5625C228.572 38.0536 228.84 38.7232 228.84 39.6161C228.84 40.4643 228.572 41.1339 228.036 41.625C227.5 42.1161 226.831 42.3839 226.116 42.3839C225.358 42.3839 224.688 42.1161 224.152 41.625C223.616 41.1339 223.349 40.4643 223.349 39.6161C223.349 38.7679 223.616 38.0536 224.152 37.5625C224.688 37.0714 225.358 36.8036 226.116 36.8036C226.831 36.8036 227.456 37.0714 228.036 37.5625ZM223.795 45.1071H228.349V64.3036H223.795V45.1071Z" fill="black"/>
</g>
</g>
<mask id="path-5-outside-1_17058_9444" maskUnits="userSpaceOnUse" x="0" y="83" width="360" height="41" fill="black">
<rect fill="white" y="83" width="360" height="41"/>
<path d="M0 84H360V124H0V84Z"/>
</mask>
<path d="M0 85H360V83H0V85Z" fill="#C9C9C9" mask="url(#path-5-outside-1_17058_9444)"/>
<path d="M27 107H45V108.5H27V107ZM27 99.5V101H45V99.5H27Z" fill="#686868"/>
<path d="M108 93.5C102.21 93.5 97.5 98.21 97.5 104C97.5 109.79 102.21 114.5 108 114.5C113.79 114.5 118.5 109.79 118.5 104C118.5 98.21 113.79 93.5 108 93.5ZM115.785 99.5H112.08C111.773 97.925 111.3 96.5225 110.7 95.4125C112.86 96.095 114.667 97.5725 115.785 99.5ZM108.63 95.03C109.47 95.9525 110.137 97.55 110.55 99.5H105.457C105.87 97.55 106.545 95.9525 107.378 95.03C107.588 95.015 107.79 95 108 95C108.21 95 108.42 95.015 108.622 95.03H108.63ZM111.008 104C111.008 105.035 110.94 106.04 110.812 107H105.203C105.075 106.04 105.008 105.035 105.008 104C105.008 102.965 105.075 101.96 105.203 101H110.812C110.94 101.96 111.008 102.965 111.008 104ZM105.307 95.4125C104.707 96.515 104.242 97.9175 103.927 99.5H100.215C101.332 97.5725 103.14 96.095 105.3 95.4125H105.307ZM99.525 101H103.688C103.568 101.96 103.5 102.965 103.5 104C103.5 105.035 103.568 106.04 103.688 107H99.525C99.1875 106.062 99 105.05 99 104C99 102.95 99.1875 101.938 99.525 101ZM100.215 108.5H103.92C104.228 110.075 104.7 111.478 105.293 112.588C103.133 111.905 101.325 110.427 100.208 108.5H100.215ZM107.362 112.97C106.53 112.04 105.863 110.442 105.45 108.5H110.542C110.13 110.435 109.463 112.04 108.63 112.97C108.42 112.985 108.21 113 107.992 113C107.775 113 107.565 112.985 107.355 112.97H107.362ZM110.7 112.588C111.293 111.478 111.765 110.075 112.073 108.5H115.778C114.66 110.427 112.853 111.905 110.693 112.588H110.7ZM116.475 107H112.312C112.432 106.04 112.5 105.028 112.5 104C112.5 102.972 112.432 101.96 112.312 101H116.475C116.812 101.938 117 102.95 117 104C117 105.05 116.812 106.062 116.475 107Z" fill="#686868"/>
<path d="M190.282 113.218L184.088 107.023C185.28 105.59 186 103.753 186 101.75C186 97.1975 182.303 93.5 177.75 93.5C173.197 93.5 169.5 97.1975 169.5 101.75C169.5 106.303 173.197 110 177.75 110C179.753 110 181.598 109.28 183.023 108.088L189.218 114.282L190.275 113.225L190.282 113.218ZM171 101.75C171 98.03 174.03 95 177.75 95C181.47 95 184.5 98.03 184.5 101.75C184.5 105.47 181.47 108.5 177.75 108.5C174.03 108.5 171 105.47 171 101.75Z" fill="#686868"/>
<path d="M252 104C254.895 104 257.25 101.645 257.25 98.75C257.25 95.855 254.895 93.5 252 93.5C249.105 93.5 246.75 95.855 246.75 98.75C246.75 101.645 249.105 104 252 104ZM252 95C254.07 95 255.75 96.68 255.75 98.75C255.75 100.82 254.07 102.5 252 102.5C249.93 102.5 248.25 100.82 248.25 98.75C248.25 96.68 249.93 95 252 95ZM260.25 113.75V114.5H258.75V113.75C258.75 110.03 255.72 107 252 107C248.28 107 245.25 110.03 245.25 113.75V114.5H243.75V113.75C243.75 109.197 247.447 105.5 252 105.5C256.553 105.5 260.25 109.197 260.25 113.75Z" fill="#686868"/>
<path d="M332.22 106.445L334.47 98.195C334.53 97.97 334.485 97.73 334.343 97.5425C334.2 97.355 333.983 97.25 333.75 97.25H318C317.955 97.25 317.918 97.265 317.88 97.2725L317.497 95.2475C317.265 94.2125 316.358 93.5 315.3 93.5H313.5V95H315.3C315.653 95 315.952 95.24 316.027 95.555L318.652 109.565C317.82 110.008 317.25 110.87 317.25 111.875C317.25 113.322 318.428 114.5 319.875 114.5C321.322 114.5 322.5 113.322 322.5 111.875C322.5 111.47 322.402 111.095 322.237 110.75H327.263C327.098 111.095 327 111.47 327 111.875C327 113.322 328.178 114.5 329.625 114.5C331.072 114.5 332.25 113.322 332.25 111.875C332.25 110.555 331.268 109.475 330 109.287V109.25H320.122L319.703 107H331.5C331.837 107 332.137 106.775 332.22 106.445ZM321 111.875C321 112.497 320.497 113 319.875 113C319.253 113 318.75 112.497 318.75 111.875C318.75 111.253 319.253 110.75 319.875 110.75C320.497 110.75 321 111.253 321 111.875ZM330.75 111.875C330.75 112.497 330.247 113 329.625 113C329.003 113 328.5 112.497 328.5 111.875C328.5 111.253 329.003 110.75 329.625 110.75C330.247 110.75 330.75 111.253 330.75 111.875ZM319.5 105.5C319.5 105.5 319.447 105.515 319.425 105.515L318.158 98.75H332.768L330.93 105.5H319.5Z" fill="#686868"/>
<defs>
<clipPath id="clip0_17058_9444">
<rect width="360" height="56" fill="white" transform="translate(0 28)"/>
</clipPath>
<clipPath id="clip1_17058_9444">
<rect width="97.6786" height="40" fill="white" transform="translate(131.161 36)"/>
</clipPath>
</defs>
</svg>
