<svg width="1500" height="104" viewBox="0 0 1500 104" fill="none" xmlns="http://www.w3.org/2000/svg">
<rect width="1500" height="104" fill="white"/>
<g clip-path="url(#clip0_17084_11956)">
<path d="M152.5 36.0625L149.625 38.9375C147.562 37.5 145.125 36.625 142.375 36.625C134.938 36.625 129.5 42.3125 129.5 50.1875C129.5 57.875 135.062 63.75 142.375 63.75C142.5 63.75 142.562 63.75 142.688 63.75C142.688 63.75 143.625 63.75 144.5 63.9375C145.125 64 145.75 64.1875 146.125 64.375C148.562 65.4375 149.125 67.8125 149.188 68.9375C149.25 71.6875 146.062 73.8125 142.312 73.8125C139 73.8125 135 72.8125 135 67.875H129.375C129.375 75.375 134.312 80 142.312 80C149.062 80 154.438 75.6875 155.062 69.6875C155.375 66.75 154 63 150.938 60.4375C153.5 58 155.062 54.4375 155.062 50.25C155.062 47.875 154.562 45.625 153.625 43.6875L156.875 40.4375L152.5 36.0625ZM142.312 57.5625C138.688 57.5625 135.625 54.875 135.625 50.25C135.625 45.3125 138.688 42.875 142.312 42.875C145.938 42.875 148.875 45.75 148.875 50.25C148.875 54.8125 145.938 57.5625 142.312 57.5625ZM121.938 40.5C120.812 39.3125 119.5 38.375 117.875 37.75C116.312 37.125 114.562 36.75 112.75 36.75C110.875 36.75 109.188 37.0625 107.625 37.75C106.062 38.375 104.75 39.3125 103.562 40.5C102.438 41.6875 101.562 43.125 100.938 44.8125C100.312 46.5 100 48.375 100 50.4375C100 52.5 100.312 54.375 100.938 56.125C101.562 57.8125 102.438 59.25 103.562 60.5C104.688 61.6875 106 62.625 107.562 63.3125C109.125 64 110.875 64.3125 112.75 64.3125C114.625 64.3125 116.375 64 117.938 63.3125C119.5 62.625 120.875 61.6875 122 60.5C123.125 59.3125 124 57.875 124.562 56.125C125.188 54.4375 125.5 52.5625 125.5 50.4375C125.5 48.375 125.188 46.5 124.562 44.8125C123.938 43.125 123.062 41.6875 121.938 40.5ZM118.75 54.0625C118.438 55 118 55.75 117.438 56.3125C116.938 56.875 116.312 57.3125 115.5 57.625C114.688 57.9375 113.812 58.125 112.75 58.125C111.688 58.125 110.812 57.9375 110.062 57.625C109.312 57.3125 108.688 56.875 108.125 56.3125C107.562 55.6875 107.125 54.9375 106.75 54C106.375 53 106.188 51.75 106.188 50.4375C106.188 49.125 106.375 47.875 106.75 46.875C107.125 45.9375 107.562 45.1875 108.125 44.625C108.688 44.0625 109.312 43.625 110.062 43.3125C110.875 43 111.75 42.8125 112.812 42.8125C113.875 42.8125 114.75 43 115.562 43.3125C116.312 43.625 116.938 44.0625 117.438 44.5625C118 45.1875 118.438 45.9375 118.812 46.875C119.188 47.875 119.375 49.0625 119.375 50.4375C119.312 51.8125 119.125 53.0625 118.75 54.0625ZM47.75 57.9375L48.75 62.875C48.0625 63.1875 47.0625 63.5 45.9375 63.8125C44.75 64.125 43.4375 64.3125 41.8125 64.3125C39.875 64.3125 38.3125 64.0625 37 63.5625C35.75 63.0625 34.6875 62.3125 33.9375 61.3125C33.1875 60.3125 32.6875 59.1875 32.375 57.75C32.125 56.375 32 54.75 32 53V29.8125L38.1875 28.8125V36.9375H47.6875V42.125H38.1875V53.0625C38.1875 55.1875 38.5 56.75 39.1875 57.6875C39.875 58.625 41 59.0625 42.6875 59.0625C43.8125 59.0625 44.8125 58.9375 45.6875 58.6875C46.5625 58.375 47.25 58.125 47.75 57.9375ZM69 36.625C69.5 36.75 69.9375 36.875 70.25 36.9375L69.1875 42.1875C68.6875 42 67.9375 41.8125 67.0625 41.625C66.125 41.4375 65.125 41.3125 63.875 41.3125C63.1875 41.3125 62.4375 41.375 61.6875 41.5C60.9375 41.625 60.375 41.75 60.0625 41.875V63.5H53.875V37.9375C55.0625 37.5 56.5625 37.0625 58.375 36.6875C60.1875 36.3125 62.1875 36.125 64.375 36.125C64.8125 36.125 65.25 36.125 65.8125 36.1875C66.375 36.25 66.9375 36.3125 67.4375 36.375C67.9375 36.4375 68.5 36.5625 69 36.625ZM80.25 26.1875C81 26.875 81.375 27.8125 81.375 29.0625C81.375 30.25 81 31.1875 80.25 31.875C79.5 32.5625 78.5625 32.9375 77.5625 32.9375C76.5 32.9375 75.5625 32.5625 74.8125 31.875C74.0625 31.1875 73.6875 30.25 73.6875 29.0625C73.6875 27.875 74.0625 26.875 74.8125 26.1875C75.5625 25.5 76.5 25.125 77.5625 25.125C78.5625 25.125 79.4375 25.5 80.25 26.1875ZM74.3125 36.75H80.6875V63.625H74.3125V36.75ZM96.6875 58.6875C97.1875 58.875 97.875 59 98.6875 59.125L97.8125 64.25C95.9375 64.1875 94.4375 64 93.25 63.625C92.0625 63.25 91.0625 62.6875 90.375 62C89.6875 61.3125 89.125 60.4375 88.875 59.375C88.625 58.3125 88.4375 57.125 88.4375 55.8125V25L94.625 24V54.6875C94.625 55.4375 94.6875 56.0625 94.8125 56.5625C94.9375 57.0625 95.125 57.5 95.4375 57.875C95.75 58.25 96.1875 58.5 96.6875 58.6875ZM167.625 26.1875C168.375 26.875 168.75 27.8125 168.75 29.0625C168.75 30.25 168.375 31.1875 167.625 31.875C166.875 32.5625 165.938 32.9375 164.938 32.9375C163.875 32.9375 162.938 32.5625 162.188 31.875C161.438 31.1875 161.062 30.25 161.062 29.0625C161.062 27.875 161.438 26.875 162.188 26.1875C162.938 25.5 163.875 25.125 164.938 25.125C165.938 25.125 166.812 25.5 167.625 26.1875ZM161.688 36.75H168.062V63.625H161.688V36.75Z" fill="black"/>
</g>
<path d="M364.992 55.2734L368.344 45.625H369.977L365.766 57H364.602L364.992 55.2734ZM361.859 45.625L365.18 55.2734L365.594 57H364.43L360.227 45.625H361.859ZM372.859 48.5469V57H371.406V48.5469H372.859ZM371.297 46.3047C371.297 46.0703 371.367 45.8724 371.508 45.7109C371.654 45.5495 371.867 45.4688 372.148 45.4688C372.424 45.4688 372.635 45.5495 372.781 45.7109C372.932 45.8724 373.008 46.0703 373.008 46.3047C373.008 46.5286 372.932 46.7214 372.781 46.8828C372.635 47.0391 372.424 47.1172 372.148 47.1172C371.867 47.1172 371.654 47.0391 371.508 46.8828C371.367 46.7214 371.297 46.5286 371.297 46.3047ZM378.719 48.5469V49.6562H374.148V48.5469H378.719ZM375.695 46.4922H377.141V54.9062C377.141 55.1927 377.185 55.4089 377.273 55.5547C377.362 55.7005 377.477 55.7969 377.617 55.8438C377.758 55.8906 377.909 55.9141 378.07 55.9141C378.19 55.9141 378.315 55.9036 378.445 55.8828C378.581 55.8568 378.682 55.8359 378.75 55.8203L378.758 57C378.643 57.0365 378.492 57.0703 378.305 57.1016C378.122 57.138 377.901 57.1562 377.641 57.1562C377.286 57.1562 376.961 57.0859 376.664 56.9453C376.367 56.8047 376.13 56.5703 375.953 56.2422C375.781 55.9089 375.695 55.4609 375.695 54.8984V46.4922ZM385.398 55.5547V51.2031C385.398 50.8698 385.331 50.5807 385.195 50.3359C385.065 50.0859 384.867 49.8932 384.602 49.7578C384.336 49.6224 384.008 49.5547 383.617 49.5547C383.253 49.5547 382.932 49.6172 382.656 49.7422C382.385 49.8672 382.172 50.0312 382.016 50.2344C381.865 50.4375 381.789 50.6562 381.789 50.8906H380.344C380.344 50.5885 380.422 50.2891 380.578 49.9922C380.734 49.6953 380.958 49.4271 381.25 49.1875C381.547 48.9427 381.901 48.75 382.312 48.6094C382.729 48.4635 383.193 48.3906 383.703 48.3906C384.318 48.3906 384.859 48.4948 385.328 48.7031C385.802 48.9115 386.172 49.2266 386.438 49.6484C386.708 50.0651 386.844 50.5885 386.844 51.2188V55.1562C386.844 55.4375 386.867 55.737 386.914 56.0547C386.966 56.3724 387.042 56.6458 387.141 56.875V57H385.633C385.56 56.8333 385.503 56.612 385.461 56.3359C385.419 56.0547 385.398 55.7943 385.398 55.5547ZM385.648 51.875L385.664 52.8906H384.203C383.792 52.8906 383.424 52.9245 383.102 52.9922C382.779 53.0547 382.508 53.151 382.289 53.2812C382.07 53.4115 381.904 53.5755 381.789 53.7734C381.674 53.9661 381.617 54.1927 381.617 54.4531C381.617 54.7188 381.677 54.9609 381.797 55.1797C381.917 55.3984 382.096 55.5729 382.336 55.7031C382.581 55.8281 382.88 55.8906 383.234 55.8906C383.677 55.8906 384.068 55.7969 384.406 55.6094C384.745 55.4219 385.013 55.1927 385.211 54.9219C385.414 54.651 385.523 54.388 385.539 54.1328L386.156 54.8281C386.12 55.0469 386.021 55.2891 385.859 55.5547C385.698 55.8203 385.482 56.0755 385.211 56.3203C384.945 56.5599 384.628 56.7604 384.258 56.9219C383.893 57.0781 383.482 57.1562 383.023 57.1562C382.451 57.1562 381.948 57.0443 381.516 56.8203C381.089 56.5964 380.755 56.2969 380.516 55.9219C380.281 55.5417 380.164 55.1172 380.164 54.6484C380.164 54.1953 380.253 53.7969 380.43 53.4531C380.607 53.1042 380.862 52.8151 381.195 52.5859C381.529 52.3516 381.93 52.1745 382.398 52.0547C382.867 51.9349 383.391 51.875 383.969 51.875H385.648ZM392.625 57.1562C392.036 57.1562 391.503 57.0573 391.023 56.8594C390.549 56.6562 390.141 56.3724 389.797 56.0078C389.458 55.6432 389.198 55.2109 389.016 54.7109C388.833 54.2109 388.742 53.6641 388.742 53.0703V52.7422C388.742 52.0547 388.844 51.4427 389.047 50.9062C389.25 50.3646 389.526 49.9062 389.875 49.5312C390.224 49.1562 390.62 48.8724 391.062 48.6797C391.505 48.487 391.964 48.3906 392.438 48.3906C393.042 48.3906 393.562 48.4948 394 48.7031C394.443 48.9115 394.805 49.2031 395.086 49.5781C395.367 49.9479 395.576 50.3854 395.711 50.8906C395.846 51.3906 395.914 51.9375 395.914 52.5312V53.1797H389.602V52H394.469V51.8906C394.448 51.5156 394.37 51.151 394.234 50.7969C394.104 50.4427 393.896 50.151 393.609 49.9219C393.323 49.6927 392.932 49.5781 392.438 49.5781C392.109 49.5781 391.807 49.6484 391.531 49.7891C391.255 49.9245 391.018 50.1276 390.82 50.3984C390.622 50.6693 390.469 51 390.359 51.3906C390.25 51.7812 390.195 52.2318 390.195 52.7422V53.0703C390.195 53.4714 390.25 53.849 390.359 54.2031C390.474 54.5521 390.638 54.8594 390.852 55.125C391.07 55.3906 391.333 55.599 391.641 55.75C391.953 55.901 392.307 55.9766 392.703 55.9766C393.214 55.9766 393.646 55.8724 394 55.6641C394.354 55.4557 394.664 55.1771 394.93 54.8281L395.805 55.5234C395.622 55.7995 395.391 56.0625 395.109 56.3125C394.828 56.5625 394.482 56.7656 394.07 56.9219C393.664 57.0781 393.182 57.1562 392.625 57.1562ZM406.891 60.25V50.1719L407.016 48.5469H408.344V60.25H406.891ZM401.211 52.8672V52.7031C401.211 52.0573 401.286 51.4714 401.438 50.9453C401.589 50.4141 401.81 49.9583 402.102 49.5781C402.393 49.1979 402.745 48.9062 403.156 48.7031C403.573 48.4948 404.047 48.3906 404.578 48.3906C405.109 48.3906 405.576 48.4844 405.977 48.6719C406.383 48.8542 406.727 49.1224 407.008 49.4766C407.294 49.8255 407.521 50.2474 407.688 50.7422C407.854 51.237 407.969 51.7969 408.031 52.4219V53.1406C407.974 53.7604 407.862 54.3177 407.695 54.8125C407.529 55.3073 407.302 55.7292 407.016 56.0781C406.734 56.4271 406.388 56.6953 405.977 56.8828C405.57 57.0651 405.099 57.1562 404.562 57.1562C404.042 57.1562 403.573 57.0495 403.156 56.8359C402.745 56.6224 402.393 56.3229 402.102 55.9375C401.815 55.5521 401.594 55.099 401.438 54.5781C401.286 54.0521 401.211 53.4818 401.211 52.8672ZM402.664 52.7031V52.8672C402.664 53.2891 402.708 53.6875 402.797 54.0625C402.885 54.4323 403.021 54.7604 403.203 55.0469C403.391 55.3333 403.625 55.5599 403.906 55.7266C404.193 55.888 404.531 55.9688 404.922 55.9688C405.401 55.9688 405.799 55.8646 406.117 55.6562C406.44 55.4479 406.698 55.1745 406.891 54.8359C407.083 54.4922 407.232 54.125 407.336 53.7344V51.8516C407.279 51.5651 407.188 51.2865 407.062 51.0156C406.943 50.7448 406.786 50.5026 406.594 50.2891C406.401 50.0703 406.167 49.8984 405.891 49.7734C405.62 49.6432 405.302 49.5781 404.938 49.5781C404.542 49.5781 404.201 49.6615 403.914 49.8281C403.628 49.9948 403.391 50.224 403.203 50.5156C403.021 50.8021 402.885 51.1328 402.797 51.5078C402.708 51.8828 402.664 52.2812 402.664 52.7031ZM415.836 55.0469V48.5469H417.289V57H415.906L415.836 55.0469ZM416.109 53.2656L416.711 53.25C416.711 53.8125 416.651 54.3333 416.531 54.8125C416.417 55.2865 416.229 55.6979 415.969 56.0469C415.708 56.3958 415.367 56.6693 414.945 56.8672C414.523 57.0599 414.01 57.1562 413.406 57.1562C412.995 57.1562 412.617 57.0964 412.273 56.9766C411.935 56.8568 411.643 56.6719 411.398 56.4219C411.154 56.1719 410.964 55.8464 410.828 55.4453C410.698 55.0443 410.633 54.5625 410.633 54V48.5469H412.078V54.0156C412.078 54.3958 412.12 54.7109 412.203 54.9609C412.292 55.2057 412.409 55.401 412.555 55.5469C412.706 55.6875 412.872 55.7865 413.055 55.8438C413.242 55.901 413.435 55.9297 413.633 55.9297C414.247 55.9297 414.734 55.8125 415.094 55.5781C415.453 55.3385 415.711 55.0182 415.867 54.6172C416.029 54.2109 416.109 53.7604 416.109 53.2656ZM421.062 48.5469V57H419.609V48.5469H421.062ZM419.5 46.3047C419.5 46.0703 419.57 45.8724 419.711 45.7109C419.857 45.5495 420.07 45.4688 420.352 45.4688C420.628 45.4688 420.839 45.5495 420.984 45.7109C421.135 45.8724 421.211 46.0703 421.211 46.3047C421.211 46.5286 421.135 46.7214 420.984 46.8828C420.839 47.0391 420.628 47.1172 420.352 47.1172C420.07 47.1172 419.857 47.0391 419.711 46.8828C419.57 46.7214 419.5 46.5286 419.5 46.3047ZM428.305 54.7578C428.305 54.5495 428.258 54.3568 428.164 54.1797C428.076 53.9974 427.891 53.8333 427.609 53.6875C427.333 53.5365 426.917 53.4062 426.359 53.2969C425.891 53.1979 425.466 53.0807 425.086 52.9453C424.711 52.8099 424.391 52.6458 424.125 52.4531C423.865 52.2604 423.664 52.0339 423.523 51.7734C423.383 51.513 423.312 51.2083 423.312 50.8594C423.312 50.526 423.385 50.2109 423.531 49.9141C423.682 49.6172 423.893 49.3542 424.164 49.125C424.44 48.8958 424.771 48.7161 425.156 48.5859C425.542 48.4557 425.971 48.3906 426.445 48.3906C427.122 48.3906 427.701 48.5104 428.18 48.75C428.659 48.9896 429.026 49.3099 429.281 49.7109C429.536 50.1068 429.664 50.5469 429.664 51.0312H428.219C428.219 50.7969 428.148 50.5703 428.008 50.3516C427.872 50.1276 427.672 49.9427 427.406 49.7969C427.146 49.651 426.826 49.5781 426.445 49.5781C426.044 49.5781 425.719 49.6406 425.469 49.7656C425.224 49.8854 425.044 50.0391 424.93 50.2266C424.82 50.4141 424.766 50.612 424.766 50.8203C424.766 50.9766 424.792 51.1172 424.844 51.2422C424.901 51.362 425 51.474 425.141 51.5781C425.281 51.6771 425.479 51.7708 425.734 51.8594C425.99 51.9479 426.315 52.0365 426.711 52.125C427.404 52.2812 427.974 52.4688 428.422 52.6875C428.87 52.9062 429.203 53.1745 429.422 53.4922C429.641 53.8099 429.75 54.1953 429.75 54.6484C429.75 55.0182 429.672 55.3568 429.516 55.6641C429.365 55.9714 429.143 56.237 428.852 56.4609C428.565 56.6797 428.221 56.8516 427.82 56.9766C427.424 57.0964 426.979 57.1562 426.484 57.1562C425.74 57.1562 425.109 57.0234 424.594 56.7578C424.078 56.4922 423.688 56.1484 423.422 55.7266C423.156 55.3047 423.023 54.8594 423.023 54.3906H424.477C424.497 54.7865 424.612 55.1016 424.82 55.3359C425.029 55.5651 425.284 55.7292 425.586 55.8281C425.888 55.9219 426.188 55.9688 426.484 55.9688C426.88 55.9688 427.211 55.9167 427.477 55.8125C427.747 55.7083 427.953 55.5651 428.094 55.3828C428.234 55.2005 428.305 54.9922 428.305 54.7578ZM438.188 55.6953L440.5 48.5469H441.977L438.938 57H437.969L438.188 55.6953ZM436.258 48.5469L438.641 55.7344L438.805 57H437.836L434.773 48.5469H436.258ZM448.539 55.0469V48.5469H449.992V57H448.609L448.539 55.0469ZM448.812 53.2656L449.414 53.25C449.414 53.8125 449.354 54.3333 449.234 54.8125C449.12 55.2865 448.932 55.6979 448.672 56.0469C448.411 56.3958 448.07 56.6693 447.648 56.8672C447.227 57.0599 446.714 57.1562 446.109 57.1562C445.698 57.1562 445.32 57.0964 444.977 56.9766C444.638 56.8568 444.346 56.6719 444.102 56.4219C443.857 56.1719 443.667 55.8464 443.531 55.4453C443.401 55.0443 443.336 54.5625 443.336 54V48.5469H444.781V54.0156C444.781 54.3958 444.823 54.7109 444.906 54.9609C444.995 55.2057 445.112 55.401 445.258 55.5469C445.409 55.6875 445.576 55.7865 445.758 55.8438C445.945 55.901 446.138 55.9297 446.336 55.9297C446.951 55.9297 447.438 55.8125 447.797 55.5781C448.156 55.3385 448.414 55.0182 448.57 54.6172C448.732 54.2109 448.812 53.7604 448.812 53.2656ZM453.766 45V57H452.312V45H453.766ZM457.531 50.1719V60.25H456.078V48.5469H457.406L457.531 50.1719ZM463.227 52.7031V52.8672C463.227 53.4818 463.154 54.0521 463.008 54.5781C462.862 55.099 462.648 55.5521 462.367 55.9375C462.091 56.3229 461.75 56.6224 461.344 56.8359C460.938 57.0495 460.471 57.1562 459.945 57.1562C459.409 57.1562 458.935 57.0677 458.523 56.8906C458.112 56.7135 457.763 56.4557 457.477 56.1172C457.19 55.7786 456.961 55.3724 456.789 54.8984C456.622 54.4245 456.508 53.8906 456.445 53.2969V52.4219C456.508 51.7969 456.625 51.237 456.797 50.7422C456.969 50.2474 457.195 49.8255 457.477 49.4766C457.763 49.1224 458.109 48.8542 458.516 48.6719C458.922 48.4844 459.391 48.3906 459.922 48.3906C460.453 48.3906 460.924 48.4948 461.336 48.7031C461.747 48.9062 462.094 49.1979 462.375 49.5781C462.656 49.9583 462.867 50.4141 463.008 50.9453C463.154 51.4714 463.227 52.0573 463.227 52.7031ZM461.773 52.8672V52.7031C461.773 52.2812 461.729 51.8854 461.641 51.5156C461.552 51.1406 461.414 50.8125 461.227 50.5312C461.044 50.2448 460.81 50.0208 460.523 49.8594C460.237 49.6927 459.896 49.6094 459.5 49.6094C459.135 49.6094 458.818 49.6719 458.547 49.7969C458.281 49.9219 458.055 50.0911 457.867 50.3047C457.68 50.513 457.526 50.7526 457.406 51.0234C457.292 51.2891 457.206 51.5651 457.148 51.8516V53.875C457.253 54.2396 457.398 54.5833 457.586 54.9062C457.773 55.224 458.023 55.4818 458.336 55.6797C458.648 55.8724 459.042 55.9688 459.516 55.9688C459.906 55.9688 460.242 55.888 460.523 55.7266C460.81 55.5599 461.044 55.3333 461.227 55.0469C461.414 54.7604 461.552 54.4323 461.641 54.0625C461.729 53.6875 461.773 53.2891 461.773 52.8672ZM470.242 55.0469V48.5469H471.695V57H470.312L470.242 55.0469ZM470.516 53.2656L471.117 53.25C471.117 53.8125 471.057 54.3333 470.938 54.8125C470.823 55.2865 470.635 55.6979 470.375 56.0469C470.115 56.3958 469.773 56.6693 469.352 56.8672C468.93 57.0599 468.417 57.1562 467.812 57.1562C467.401 57.1562 467.023 57.0964 466.68 56.9766C466.341 56.8568 466.049 56.6719 465.805 56.4219C465.56 56.1719 465.37 55.8464 465.234 55.4453C465.104 55.0443 465.039 54.5625 465.039 54V48.5469H466.484V54.0156C466.484 54.3958 466.526 54.7109 466.609 54.9609C466.698 55.2057 466.815 55.401 466.961 55.5469C467.112 55.6875 467.279 55.7865 467.461 55.8438C467.648 55.901 467.841 55.9297 468.039 55.9297C468.654 55.9297 469.141 55.8125 469.5 55.5781C469.859 55.3385 470.117 55.0182 470.273 54.6172C470.435 54.2109 470.516 53.7604 470.516 53.2656ZM477.438 48.5469V49.6562H472.867V48.5469H477.438ZM474.414 46.4922H475.859V54.9062C475.859 55.1927 475.904 55.4089 475.992 55.5547C476.081 55.7005 476.195 55.7969 476.336 55.8438C476.477 55.8906 476.628 55.9141 476.789 55.9141C476.909 55.9141 477.034 55.9036 477.164 55.8828C477.299 55.8568 477.401 55.8359 477.469 55.8203L477.477 57C477.362 57.0365 477.211 57.0703 477.023 57.1016C476.841 57.138 476.62 57.1562 476.359 57.1562C476.005 57.1562 475.68 57.0859 475.383 56.9453C475.086 56.8047 474.849 56.5703 474.672 56.2422C474.5 55.9089 474.414 55.4609 474.414 54.8984V46.4922ZM484.117 55.5547V51.2031C484.117 50.8698 484.049 50.5807 483.914 50.3359C483.784 50.0859 483.586 49.8932 483.32 49.7578C483.055 49.6224 482.727 49.5547 482.336 49.5547C481.971 49.5547 481.651 49.6172 481.375 49.7422C481.104 49.8672 480.891 50.0312 480.734 50.2344C480.583 50.4375 480.508 50.6562 480.508 50.8906H479.062C479.062 50.5885 479.141 50.2891 479.297 49.9922C479.453 49.6953 479.677 49.4271 479.969 49.1875C480.266 48.9427 480.62 48.75 481.031 48.6094C481.448 48.4635 481.911 48.3906 482.422 48.3906C483.036 48.3906 483.578 48.4948 484.047 48.7031C484.521 48.9115 484.891 49.2266 485.156 49.6484C485.427 50.0651 485.562 50.5885 485.562 51.2188V55.1562C485.562 55.4375 485.586 55.737 485.633 56.0547C485.685 56.3724 485.76 56.6458 485.859 56.875V57H484.352C484.279 56.8333 484.221 56.612 484.18 56.3359C484.138 56.0547 484.117 55.7943 484.117 55.5547ZM484.367 51.875L484.383 52.8906H482.922C482.51 52.8906 482.143 52.9245 481.82 52.9922C481.497 53.0547 481.227 53.151 481.008 53.2812C480.789 53.4115 480.622 53.5755 480.508 53.7734C480.393 53.9661 480.336 54.1927 480.336 54.4531C480.336 54.7188 480.396 54.9609 480.516 55.1797C480.635 55.3984 480.815 55.5729 481.055 55.7031C481.299 55.8281 481.599 55.8906 481.953 55.8906C482.396 55.8906 482.786 55.7969 483.125 55.6094C483.464 55.4219 483.732 55.1927 483.93 54.9219C484.133 54.651 484.242 54.388 484.258 54.1328L484.875 54.8281C484.839 55.0469 484.74 55.2891 484.578 55.5547C484.417 55.8203 484.201 56.0755 483.93 56.3203C483.664 56.5599 483.346 56.7604 482.977 56.9219C482.612 57.0781 482.201 57.1562 481.742 57.1562C481.169 57.1562 480.667 57.0443 480.234 56.8203C479.807 56.5964 479.474 56.2969 479.234 55.9219C479 55.5417 478.883 55.1172 478.883 54.6484C478.883 54.1953 478.971 53.7969 479.148 53.4531C479.326 53.1042 479.581 52.8151 479.914 52.5859C480.247 52.3516 480.648 52.1745 481.117 52.0547C481.586 51.9349 482.109 51.875 482.688 51.875H484.367ZM491.375 48.5469V49.6562H486.805V48.5469H491.375ZM488.352 46.4922H489.797V54.9062C489.797 55.1927 489.841 55.4089 489.93 55.5547C490.018 55.7005 490.133 55.7969 490.273 55.8438C490.414 55.8906 490.565 55.9141 490.727 55.9141C490.846 55.9141 490.971 55.9036 491.102 55.8828C491.237 55.8568 491.339 55.8359 491.406 55.8203L491.414 57C491.299 57.0365 491.148 57.0703 490.961 57.1016C490.779 57.138 490.557 57.1562 490.297 57.1562C489.943 57.1562 489.617 57.0859 489.32 56.9453C489.023 56.8047 488.786 56.5703 488.609 56.2422C488.438 55.9089 488.352 55.4609 488.352 54.8984V46.4922ZM496.578 57.1562C495.99 57.1562 495.456 57.0573 494.977 56.8594C494.503 56.6562 494.094 56.3724 493.75 56.0078C493.411 55.6432 493.151 55.2109 492.969 54.7109C492.786 54.2109 492.695 53.6641 492.695 53.0703V52.7422C492.695 52.0547 492.797 51.4427 493 50.9062C493.203 50.3646 493.479 49.9062 493.828 49.5312C494.177 49.1562 494.573 48.8724 495.016 48.6797C495.458 48.487 495.917 48.3906 496.391 48.3906C496.995 48.3906 497.516 48.4948 497.953 48.7031C498.396 48.9115 498.758 49.2031 499.039 49.5781C499.32 49.9479 499.529 50.3854 499.664 50.8906C499.799 51.3906 499.867 51.9375 499.867 52.5312V53.1797H493.555V52H498.422V51.8906C498.401 51.5156 498.323 51.151 498.188 50.7969C498.057 50.4427 497.849 50.151 497.562 49.9219C497.276 49.6927 496.885 49.5781 496.391 49.5781C496.062 49.5781 495.76 49.6484 495.484 49.7891C495.208 49.9245 494.971 50.1276 494.773 50.3984C494.576 50.6693 494.422 51 494.312 51.3906C494.203 51.7812 494.148 52.2318 494.148 52.7422V53.0703C494.148 53.4714 494.203 53.849 494.312 54.2031C494.427 54.5521 494.591 54.8594 494.805 55.125C495.023 55.3906 495.286 55.599 495.594 55.75C495.906 55.901 496.26 55.9766 496.656 55.9766C497.167 55.9766 497.599 55.8724 497.953 55.6641C498.307 55.4557 498.617 55.1771 498.883 54.8281L499.758 55.5234C499.576 55.7995 499.344 56.0625 499.062 56.3125C498.781 56.5625 498.435 56.7656 498.023 56.9219C497.617 57.0781 497.135 57.1562 496.578 57.1562Z" fill="#686868"/>
<path d="M573.547 55.7734V57H567.523V55.7734H573.547ZM567.828 45.625V57H566.32V45.625H567.828ZM572.75 50.5156V51.7422H567.523V50.5156H572.75ZM573.469 45.625V46.8594H567.523V45.625H573.469ZM580.516 48.5469H581.828V56.8203C581.828 57.5651 581.677 58.2005 581.375 58.7266C581.073 59.2526 580.651 59.651 580.109 59.9219C579.573 60.1979 578.953 60.3359 578.25 60.3359C577.958 60.3359 577.615 60.2891 577.219 60.1953C576.828 60.1068 576.443 59.9531 576.062 59.7344C575.688 59.5208 575.372 59.2318 575.117 58.8672L575.875 58.0078C576.229 58.4349 576.599 58.7318 576.984 58.8984C577.375 59.0651 577.76 59.1484 578.141 59.1484C578.599 59.1484 578.995 59.0625 579.328 58.8906C579.661 58.7188 579.919 58.4635 580.102 58.125C580.289 57.7917 580.383 57.3802 580.383 56.8906V50.4062L580.516 48.5469ZM574.695 52.8672V52.7031C574.695 52.0573 574.771 51.4714 574.922 50.9453C575.078 50.4141 575.299 49.9583 575.586 49.5781C575.878 49.1979 576.229 48.9062 576.641 48.7031C577.052 48.4948 577.516 48.3906 578.031 48.3906C578.562 48.3906 579.026 48.4844 579.422 48.6719C579.823 48.8542 580.161 49.1224 580.438 49.4766C580.719 49.8255 580.94 50.2474 581.102 50.7422C581.263 51.237 581.375 51.7969 581.438 52.4219V53.1406C581.38 53.7604 581.268 54.3177 581.102 54.8125C580.94 55.3073 580.719 55.7292 580.438 56.0781C580.161 56.4271 579.823 56.6953 579.422 56.8828C579.021 57.0651 578.552 57.1562 578.016 57.1562C577.51 57.1562 577.052 57.0495 576.641 56.8359C576.234 56.6224 575.885 56.3229 575.594 55.9375C575.302 55.5521 575.078 55.099 574.922 54.5781C574.771 54.0521 574.695 53.4818 574.695 52.8672ZM576.141 52.7031V52.8672C576.141 53.2891 576.182 53.6849 576.266 54.0547C576.354 54.4245 576.487 54.75 576.664 55.0312C576.846 55.3125 577.078 55.5339 577.359 55.6953C577.641 55.8516 577.977 55.9297 578.367 55.9297C578.846 55.9297 579.242 55.8281 579.555 55.625C579.867 55.4219 580.115 55.1536 580.297 54.8203C580.484 54.487 580.63 54.125 580.734 53.7344V51.8516C580.677 51.5651 580.589 51.2891 580.469 51.0234C580.354 50.7526 580.203 50.513 580.016 50.3047C579.833 50.0911 579.607 49.9219 579.336 49.7969C579.065 49.6719 578.747 49.6094 578.383 49.6094C577.987 49.6094 577.646 49.6927 577.359 49.8594C577.078 50.0208 576.846 50.2448 576.664 50.5312C576.487 50.8125 576.354 51.1406 576.266 51.5156C576.182 51.8854 576.141 52.2812 576.141 52.7031ZM587.531 57.1562C586.943 57.1562 586.409 57.0573 585.93 56.8594C585.456 56.6562 585.047 56.3724 584.703 56.0078C584.365 55.6432 584.104 55.2109 583.922 54.7109C583.74 54.2109 583.648 53.6641 583.648 53.0703V52.7422C583.648 52.0547 583.75 51.4427 583.953 50.9062C584.156 50.3646 584.432 49.9062 584.781 49.5312C585.13 49.1562 585.526 48.8724 585.969 48.6797C586.411 48.487 586.87 48.3906 587.344 48.3906C587.948 48.3906 588.469 48.4948 588.906 48.7031C589.349 48.9115 589.711 49.2031 589.992 49.5781C590.273 49.9479 590.482 50.3854 590.617 50.8906C590.753 51.3906 590.82 51.9375 590.82 52.5312V53.1797H584.508V52H589.375V51.8906C589.354 51.5156 589.276 51.151 589.141 50.7969C589.01 50.4427 588.802 50.151 588.516 49.9219C588.229 49.6927 587.839 49.5781 587.344 49.5781C587.016 49.5781 586.714 49.6484 586.438 49.7891C586.161 49.9245 585.924 50.1276 585.727 50.3984C585.529 50.6693 585.375 51 585.266 51.3906C585.156 51.7812 585.102 52.2318 585.102 52.7422V53.0703C585.102 53.4714 585.156 53.849 585.266 54.2031C585.38 54.5521 585.544 54.8594 585.758 55.125C585.977 55.3906 586.24 55.599 586.547 55.75C586.859 55.901 587.214 55.9766 587.609 55.9766C588.12 55.9766 588.552 55.8724 588.906 55.6641C589.26 55.4557 589.57 55.1771 589.836 54.8281L590.711 55.5234C590.529 55.7995 590.297 56.0625 590.016 56.3125C589.734 56.5625 589.388 56.7656 588.977 56.9219C588.57 57.0781 588.089 57.1562 587.531 57.1562ZM596.047 48.5469V49.6562H591.477V48.5469H596.047ZM593.023 46.4922H594.469V54.9062C594.469 55.1927 594.513 55.4089 594.602 55.5547C594.69 55.7005 594.805 55.7969 594.945 55.8438C595.086 55.8906 595.237 55.9141 595.398 55.9141C595.518 55.9141 595.643 55.9036 595.773 55.8828C595.909 55.8568 596.01 55.8359 596.078 55.8203L596.086 57C595.971 57.0365 595.82 57.0703 595.633 57.1016C595.451 57.138 595.229 57.1562 594.969 57.1562C594.615 57.1562 594.289 57.0859 593.992 56.9453C593.695 56.8047 593.458 56.5703 593.281 56.2422C593.109 55.9089 593.023 55.4609 593.023 54.8984V46.4922ZM606.633 54.7578C606.633 54.5495 606.586 54.3568 606.492 54.1797C606.404 53.9974 606.219 53.8333 605.938 53.6875C605.661 53.5365 605.245 53.4062 604.688 53.2969C604.219 53.1979 603.794 53.0807 603.414 52.9453C603.039 52.8099 602.719 52.6458 602.453 52.4531C602.193 52.2604 601.992 52.0339 601.852 51.7734C601.711 51.513 601.641 51.2083 601.641 50.8594C601.641 50.526 601.714 50.2109 601.859 49.9141C602.01 49.6172 602.221 49.3542 602.492 49.125C602.768 48.8958 603.099 48.7161 603.484 48.5859C603.87 48.4557 604.299 48.3906 604.773 48.3906C605.451 48.3906 606.029 48.5104 606.508 48.75C606.987 48.9896 607.354 49.3099 607.609 49.7109C607.865 50.1068 607.992 50.5469 607.992 51.0312H606.547C606.547 50.7969 606.477 50.5703 606.336 50.3516C606.201 50.1276 606 49.9427 605.734 49.7969C605.474 49.651 605.154 49.5781 604.773 49.5781C604.372 49.5781 604.047 49.6406 603.797 49.7656C603.552 49.8854 603.372 50.0391 603.258 50.2266C603.148 50.4141 603.094 50.612 603.094 50.8203C603.094 50.9766 603.12 51.1172 603.172 51.2422C603.229 51.362 603.328 51.474 603.469 51.5781C603.609 51.6771 603.807 51.7708 604.062 51.8594C604.318 51.9479 604.643 52.0365 605.039 52.125C605.732 52.2812 606.302 52.4688 606.75 52.6875C607.198 52.9062 607.531 53.1745 607.75 53.4922C607.969 53.8099 608.078 54.1953 608.078 54.6484C608.078 55.0182 608 55.3568 607.844 55.6641C607.693 55.9714 607.471 56.237 607.18 56.4609C606.893 56.6797 606.549 56.8516 606.148 56.9766C605.753 57.0964 605.307 57.1562 604.812 57.1562C604.068 57.1562 603.438 57.0234 602.922 56.7578C602.406 56.4922 602.016 56.1484 601.75 55.7266C601.484 55.3047 601.352 54.8594 601.352 54.3906H602.805C602.826 54.7865 602.94 55.1016 603.148 55.3359C603.357 55.5651 603.612 55.7292 603.914 55.8281C604.216 55.9219 604.516 55.9688 604.812 55.9688C605.208 55.9688 605.539 55.9167 605.805 55.8125C606.076 55.7083 606.281 55.5651 606.422 55.3828C606.562 55.2005 606.633 54.9922 606.633 54.7578ZM611.547 48.5469V57H610.094V48.5469H611.547ZM609.984 46.3047C609.984 46.0703 610.055 45.8724 610.195 45.7109C610.341 45.5495 610.555 45.4688 610.836 45.4688C611.112 45.4688 611.323 45.5495 611.469 45.7109C611.62 45.8724 611.695 46.0703 611.695 46.3047C611.695 46.5286 611.62 46.7214 611.469 46.8828C611.323 47.0391 611.112 47.1172 610.836 47.1172C610.555 47.1172 610.341 47.0391 610.195 46.8828C610.055 46.7214 609.984 46.5286 609.984 46.3047ZM617.406 48.5469V49.6562H612.836V48.5469H617.406ZM614.383 46.4922H615.828V54.9062C615.828 55.1927 615.872 55.4089 615.961 55.5547C616.049 55.7005 616.164 55.7969 616.305 55.8438C616.445 55.8906 616.596 55.9141 616.758 55.9141C616.878 55.9141 617.003 55.9036 617.133 55.8828C617.268 55.8568 617.37 55.8359 617.438 55.8203L617.445 57C617.331 57.0365 617.18 57.0703 616.992 57.1016C616.81 57.138 616.589 57.1562 616.328 57.1562C615.974 57.1562 615.648 57.0859 615.352 56.9453C615.055 56.8047 614.818 56.5703 614.641 56.2422C614.469 55.9089 614.383 55.4609 614.383 54.8984V46.4922ZM628.055 55.5547V51.2031C628.055 50.8698 627.987 50.5807 627.852 50.3359C627.721 50.0859 627.523 49.8932 627.258 49.7578C626.992 49.6224 626.664 49.5547 626.273 49.5547C625.909 49.5547 625.589 49.6172 625.312 49.7422C625.042 49.8672 624.828 50.0312 624.672 50.2344C624.521 50.4375 624.445 50.6562 624.445 50.8906H623C623 50.5885 623.078 50.2891 623.234 49.9922C623.391 49.6953 623.615 49.4271 623.906 49.1875C624.203 48.9427 624.557 48.75 624.969 48.6094C625.385 48.4635 625.849 48.3906 626.359 48.3906C626.974 48.3906 627.516 48.4948 627.984 48.7031C628.458 48.9115 628.828 49.2266 629.094 49.6484C629.365 50.0651 629.5 50.5885 629.5 51.2188V55.1562C629.5 55.4375 629.523 55.737 629.57 56.0547C629.622 56.3724 629.698 56.6458 629.797 56.875V57H628.289C628.216 56.8333 628.159 56.612 628.117 56.3359C628.076 56.0547 628.055 55.7943 628.055 55.5547ZM628.305 51.875L628.32 52.8906H626.859C626.448 52.8906 626.081 52.9245 625.758 52.9922C625.435 53.0547 625.164 53.151 624.945 53.2812C624.727 53.4115 624.56 53.5755 624.445 53.7734C624.331 53.9661 624.273 54.1927 624.273 54.4531C624.273 54.7188 624.333 54.9609 624.453 55.1797C624.573 55.3984 624.753 55.5729 624.992 55.7031C625.237 55.8281 625.536 55.8906 625.891 55.8906C626.333 55.8906 626.724 55.7969 627.062 55.6094C627.401 55.4219 627.669 55.1927 627.867 54.9219C628.07 54.651 628.18 54.388 628.195 54.1328L628.812 54.8281C628.776 55.0469 628.677 55.2891 628.516 55.5547C628.354 55.8203 628.138 56.0755 627.867 56.3203C627.602 56.5599 627.284 56.7604 626.914 56.9219C626.549 57.0781 626.138 57.1562 625.68 57.1562C625.107 57.1562 624.604 57.0443 624.172 56.8203C623.745 56.5964 623.411 56.2969 623.172 55.9219C622.938 55.5417 622.82 55.1172 622.82 54.6484C622.82 54.1953 622.909 53.7969 623.086 53.4531C623.263 53.1042 623.518 52.8151 623.852 52.5859C624.185 52.3516 624.586 52.1745 625.055 52.0547C625.523 51.9349 626.047 51.875 626.625 51.875H628.305ZM633.211 50.2266V57H631.758V48.5469H633.133L633.211 50.2266ZM632.914 52.4531L632.242 52.4297C632.247 51.8516 632.323 51.3177 632.469 50.8281C632.615 50.3333 632.831 49.9036 633.117 49.5391C633.404 49.1745 633.76 48.8932 634.188 48.6953C634.615 48.4922 635.109 48.3906 635.672 48.3906C636.068 48.3906 636.432 48.4479 636.766 48.5625C637.099 48.6719 637.388 48.8464 637.633 49.0859C637.878 49.3255 638.068 49.6328 638.203 50.0078C638.339 50.3828 638.406 50.8359 638.406 51.3672V57H636.961V51.4375C636.961 50.9948 636.885 50.6406 636.734 50.375C636.589 50.1094 636.38 49.9167 636.109 49.7969C635.839 49.6719 635.521 49.6094 635.156 49.6094C634.729 49.6094 634.372 49.6849 634.086 49.8359C633.799 49.987 633.57 50.1953 633.398 50.4609C633.227 50.7266 633.102 51.0312 633.023 51.375C632.951 51.7135 632.914 52.0729 632.914 52.4531ZM638.391 51.6562L637.422 51.9531C637.427 51.4896 637.503 51.0443 637.648 50.6172C637.799 50.1901 638.016 49.8099 638.297 49.4766C638.583 49.1432 638.935 48.8802 639.352 48.6875C639.768 48.4896 640.245 48.3906 640.781 48.3906C641.234 48.3906 641.635 48.4505 641.984 48.5703C642.339 48.6901 642.635 48.875 642.875 49.125C643.12 49.3698 643.305 49.6849 643.43 50.0703C643.555 50.4557 643.617 50.9141 643.617 51.4453V57H642.164V51.4297C642.164 50.9557 642.089 50.5885 641.938 50.3281C641.792 50.0625 641.583 49.8776 641.312 49.7734C641.047 49.6641 640.729 49.6094 640.359 49.6094C640.042 49.6094 639.76 49.6641 639.516 49.7734C639.271 49.8828 639.065 50.0339 638.898 50.2266C638.732 50.4141 638.604 50.6302 638.516 50.875C638.432 51.1198 638.391 51.3802 638.391 51.6562ZM649.312 57.1562C648.724 57.1562 648.19 57.0573 647.711 56.8594C647.237 56.6562 646.828 56.3724 646.484 56.0078C646.146 55.6432 645.885 55.2109 645.703 54.7109C645.521 54.2109 645.43 53.6641 645.43 53.0703V52.7422C645.43 52.0547 645.531 51.4427 645.734 50.9062C645.938 50.3646 646.214 49.9062 646.562 49.5312C646.911 49.1562 647.307 48.8724 647.75 48.6797C648.193 48.487 648.651 48.3906 649.125 48.3906C649.729 48.3906 650.25 48.4948 650.688 48.7031C651.13 48.9115 651.492 49.2031 651.773 49.5781C652.055 49.9479 652.263 50.3854 652.398 50.8906C652.534 51.3906 652.602 51.9375 652.602 52.5312V53.1797H646.289V52H651.156V51.8906C651.135 51.5156 651.057 51.151 650.922 50.7969C650.792 50.4427 650.583 50.151 650.297 49.9219C650.01 49.6927 649.62 49.5781 649.125 49.5781C648.797 49.5781 648.495 49.6484 648.219 49.7891C647.943 49.9245 647.706 50.1276 647.508 50.3984C647.31 50.6693 647.156 51 647.047 51.3906C646.938 51.7812 646.883 52.2318 646.883 52.7422V53.0703C646.883 53.4714 646.938 53.849 647.047 54.2031C647.161 54.5521 647.326 54.8594 647.539 55.125C647.758 55.3906 648.021 55.599 648.328 55.75C648.641 55.901 648.995 55.9766 649.391 55.9766C649.901 55.9766 650.333 55.8724 650.688 55.6641C651.042 55.4557 651.352 55.1771 651.617 54.8281L652.492 55.5234C652.31 55.7995 652.078 56.0625 651.797 56.3125C651.516 56.5625 651.169 56.7656 650.758 56.9219C650.352 57.0781 649.87 57.1562 649.312 57.1562ZM657.828 48.5469V49.6562H653.258V48.5469H657.828ZM654.805 46.4922H656.25V54.9062C656.25 55.1927 656.294 55.4089 656.383 55.5547C656.471 55.7005 656.586 55.7969 656.727 55.8438C656.867 55.8906 657.018 55.9141 657.18 55.9141C657.299 55.9141 657.424 55.9036 657.555 55.8828C657.69 55.8568 657.792 55.8359 657.859 55.8203L657.867 57C657.753 57.0365 657.602 57.0703 657.414 57.1016C657.232 57.138 657.01 57.1562 656.75 57.1562C656.396 57.1562 656.07 57.0859 655.773 56.9453C655.477 56.8047 655.24 56.5703 655.062 56.2422C654.891 55.9089 654.805 55.4609 654.805 54.8984V46.4922Z" fill="#686868"/>
<path d="M725.938 45.625V57H724.43V45.625H725.938ZM733.789 55.3594V45H735.242V57H733.914L733.789 55.3594ZM728.102 52.8672V52.7031C728.102 52.0573 728.18 51.4714 728.336 50.9453C728.497 50.4141 728.724 49.9583 729.016 49.5781C729.312 49.1979 729.664 48.9062 730.07 48.7031C730.482 48.4948 730.94 48.3906 731.445 48.3906C731.977 48.3906 732.44 48.4844 732.836 48.6719C733.237 48.8542 733.576 49.1224 733.852 49.4766C734.133 49.8255 734.354 50.2474 734.516 50.7422C734.677 51.237 734.789 51.7969 734.852 52.4219V53.1406C734.794 53.7604 734.682 54.3177 734.516 54.8125C734.354 55.3073 734.133 55.7292 733.852 56.0781C733.576 56.4271 733.237 56.6953 732.836 56.8828C732.435 57.0651 731.966 57.1562 731.43 57.1562C730.935 57.1562 730.482 57.0495 730.07 56.8359C729.664 56.6224 729.312 56.3229 729.016 55.9375C728.724 55.5521 728.497 55.099 728.336 54.5781C728.18 54.0521 728.102 53.4818 728.102 52.8672ZM729.555 52.7031V52.8672C729.555 53.2891 729.596 53.6849 729.68 54.0547C729.768 54.4245 729.904 54.75 730.086 55.0312C730.268 55.3125 730.5 55.5339 730.781 55.6953C731.062 55.8516 731.398 55.9297 731.789 55.9297C732.268 55.9297 732.661 55.8281 732.969 55.625C733.281 55.4219 733.531 55.1536 733.719 54.8203C733.906 54.487 734.052 54.125 734.156 53.7344V51.8516C734.094 51.5651 734.003 51.2891 733.883 51.0234C733.768 50.7526 733.617 50.513 733.43 50.3047C733.247 50.0911 733.021 49.9219 732.75 49.7969C732.484 49.6719 732.169 49.6094 731.805 49.6094C731.409 49.6094 731.068 49.6927 730.781 49.8594C730.5 50.0208 730.268 50.2448 730.086 50.5312C729.904 50.8125 729.768 51.1406 729.68 51.5156C729.596 51.8854 729.555 52.2812 729.555 52.7031ZM746.383 54.7578C746.383 54.5495 746.336 54.3568 746.242 54.1797C746.154 53.9974 745.969 53.8333 745.688 53.6875C745.411 53.5365 744.995 53.4062 744.438 53.2969C743.969 53.1979 743.544 53.0807 743.164 52.9453C742.789 52.8099 742.469 52.6458 742.203 52.4531C741.943 52.2604 741.742 52.0339 741.602 51.7734C741.461 51.513 741.391 51.2083 741.391 50.8594C741.391 50.526 741.464 50.2109 741.609 49.9141C741.76 49.6172 741.971 49.3542 742.242 49.125C742.518 48.8958 742.849 48.7161 743.234 48.5859C743.62 48.4557 744.049 48.3906 744.523 48.3906C745.201 48.3906 745.779 48.5104 746.258 48.75C746.737 48.9896 747.104 49.3099 747.359 49.7109C747.615 50.1068 747.742 50.5469 747.742 51.0312H746.297C746.297 50.7969 746.227 50.5703 746.086 50.3516C745.951 50.1276 745.75 49.9427 745.484 49.7969C745.224 49.651 744.904 49.5781 744.523 49.5781C744.122 49.5781 743.797 49.6406 743.547 49.7656C743.302 49.8854 743.122 50.0391 743.008 50.2266C742.898 50.4141 742.844 50.612 742.844 50.8203C742.844 50.9766 742.87 51.1172 742.922 51.2422C742.979 51.362 743.078 51.474 743.219 51.5781C743.359 51.6771 743.557 51.7708 743.812 51.8594C744.068 51.9479 744.393 52.0365 744.789 52.125C745.482 52.2812 746.052 52.4688 746.5 52.6875C746.948 52.9062 747.281 53.1745 747.5 53.4922C747.719 53.8099 747.828 54.1953 747.828 54.6484C747.828 55.0182 747.75 55.3568 747.594 55.6641C747.443 55.9714 747.221 56.237 746.93 56.4609C746.643 56.6797 746.299 56.8516 745.898 56.9766C745.503 57.0964 745.057 57.1562 744.562 57.1562C743.818 57.1562 743.188 57.0234 742.672 56.7578C742.156 56.4922 741.766 56.1484 741.5 55.7266C741.234 55.3047 741.102 54.8594 741.102 54.3906H742.555C742.576 54.7865 742.69 55.1016 742.898 55.3359C743.107 55.5651 743.362 55.7292 743.664 55.8281C743.966 55.9219 744.266 55.9688 744.562 55.9688C744.958 55.9688 745.289 55.9167 745.555 55.8125C745.826 55.7083 746.031 55.5651 746.172 55.3828C746.312 55.2005 746.383 54.9922 746.383 54.7578ZM751.297 48.5469V57H749.844V48.5469H751.297ZM749.734 46.3047C749.734 46.0703 749.805 45.8724 749.945 45.7109C750.091 45.5495 750.305 45.4688 750.586 45.4688C750.862 45.4688 751.073 45.5495 751.219 45.7109C751.37 45.8724 751.445 46.0703 751.445 46.3047C751.445 46.5286 751.37 46.7214 751.219 46.8828C751.073 47.0391 750.862 47.1172 750.586 47.1172C750.305 47.1172 750.091 47.0391 749.945 46.8828C749.805 46.7214 749.734 46.5286 749.734 46.3047ZM757.156 48.5469V49.6562H752.586V48.5469H757.156ZM754.133 46.4922H755.578V54.9062C755.578 55.1927 755.622 55.4089 755.711 55.5547C755.799 55.7005 755.914 55.7969 756.055 55.8438C756.195 55.8906 756.346 55.9141 756.508 55.9141C756.628 55.9141 756.753 55.9036 756.883 55.8828C757.018 55.8568 757.12 55.8359 757.188 55.8203L757.195 57C757.081 57.0365 756.93 57.0703 756.742 57.1016C756.56 57.138 756.339 57.1562 756.078 57.1562C755.724 57.1562 755.398 57.0859 755.102 56.9453C754.805 56.8047 754.568 56.5703 754.391 56.2422C754.219 55.9089 754.133 55.4609 754.133 54.8984V46.4922ZM766.328 57.1562C765.74 57.1562 765.206 57.0573 764.727 56.8594C764.253 56.6562 763.844 56.3724 763.5 56.0078C763.161 55.6432 762.901 55.2109 762.719 54.7109C762.536 54.2109 762.445 53.6641 762.445 53.0703V52.7422C762.445 52.0547 762.547 51.4427 762.75 50.9062C762.953 50.3646 763.229 49.9062 763.578 49.5312C763.927 49.1562 764.323 48.8724 764.766 48.6797C765.208 48.487 765.667 48.3906 766.141 48.3906C766.745 48.3906 767.266 48.4948 767.703 48.7031C768.146 48.9115 768.508 49.2031 768.789 49.5781C769.07 49.9479 769.279 50.3854 769.414 50.8906C769.549 51.3906 769.617 51.9375 769.617 52.5312V53.1797H763.305V52H768.172V51.8906C768.151 51.5156 768.073 51.151 767.938 50.7969C767.807 50.4427 767.599 50.151 767.312 49.9219C767.026 49.6927 766.635 49.5781 766.141 49.5781C765.812 49.5781 765.51 49.6484 765.234 49.7891C764.958 49.9245 764.721 50.1276 764.523 50.3984C764.326 50.6693 764.172 51 764.062 51.3906C763.953 51.7812 763.898 52.2318 763.898 52.7422V53.0703C763.898 53.4714 763.953 53.849 764.062 54.2031C764.177 54.5521 764.341 54.8594 764.555 55.125C764.773 55.3906 765.036 55.599 765.344 55.75C765.656 55.901 766.01 55.9766 766.406 55.9766C766.917 55.9766 767.349 55.8724 767.703 55.6641C768.057 55.4557 768.367 55.1771 768.633 54.8281L769.508 55.5234C769.326 55.7995 769.094 56.0625 768.812 56.3125C768.531 56.5625 768.185 56.7656 767.773 56.9219C767.367 57.0781 766.885 57.1562 766.328 57.1562ZM772.875 45V57H771.422V45H772.875ZM778.703 57.1562C778.115 57.1562 777.581 57.0573 777.102 56.8594C776.628 56.6562 776.219 56.3724 775.875 56.0078C775.536 55.6432 775.276 55.2109 775.094 54.7109C774.911 54.2109 774.82 53.6641 774.82 53.0703V52.7422C774.82 52.0547 774.922 51.4427 775.125 50.9062C775.328 50.3646 775.604 49.9062 775.953 49.5312C776.302 49.1562 776.698 48.8724 777.141 48.6797C777.583 48.487 778.042 48.3906 778.516 48.3906C779.12 48.3906 779.641 48.4948 780.078 48.7031C780.521 48.9115 780.883 49.2031 781.164 49.5781C781.445 49.9479 781.654 50.3854 781.789 50.8906C781.924 51.3906 781.992 51.9375 781.992 52.5312V53.1797H775.68V52H780.547V51.8906C780.526 51.5156 780.448 51.151 780.312 50.7969C780.182 50.4427 779.974 50.151 779.688 49.9219C779.401 49.6927 779.01 49.5781 778.516 49.5781C778.188 49.5781 777.885 49.6484 777.609 49.7891C777.333 49.9245 777.096 50.1276 776.898 50.3984C776.701 50.6693 776.547 51 776.438 51.3906C776.328 51.7812 776.273 52.2318 776.273 52.7422V53.0703C776.273 53.4714 776.328 53.849 776.438 54.2031C776.552 54.5521 776.716 54.8594 776.93 55.125C777.148 55.3906 777.411 55.599 777.719 55.75C778.031 55.901 778.385 55.9766 778.781 55.9766C779.292 55.9766 779.724 55.8724 780.078 55.6641C780.432 55.4557 780.742 55.1771 781.008 54.8281L781.883 55.5234C781.701 55.7995 781.469 56.0625 781.188 56.3125C780.906 56.5625 780.56 56.7656 780.148 56.9219C779.742 57.0781 779.26 57.1562 778.703 57.1562ZM785.117 50.2266V57H783.664V48.5469H785.039L785.117 50.2266ZM784.82 52.4531L784.148 52.4297C784.154 51.8516 784.229 51.3177 784.375 50.8281C784.521 50.3333 784.737 49.9036 785.023 49.5391C785.31 49.1745 785.667 48.8932 786.094 48.6953C786.521 48.4922 787.016 48.3906 787.578 48.3906C787.974 48.3906 788.339 48.4479 788.672 48.5625C789.005 48.6719 789.294 48.8464 789.539 49.0859C789.784 49.3255 789.974 49.6328 790.109 50.0078C790.245 50.3828 790.312 50.8359 790.312 51.3672V57H788.867V51.4375C788.867 50.9948 788.792 50.6406 788.641 50.375C788.495 50.1094 788.286 49.9167 788.016 49.7969C787.745 49.6719 787.427 49.6094 787.062 49.6094C786.635 49.6094 786.279 49.6849 785.992 49.8359C785.706 49.987 785.477 50.1953 785.305 50.4609C785.133 50.7266 785.008 51.0312 784.93 51.375C784.857 51.7135 784.82 52.0729 784.82 52.4531ZM790.297 51.6562L789.328 51.9531C789.333 51.4896 789.409 51.0443 789.555 50.6172C789.706 50.1901 789.922 49.8099 790.203 49.4766C790.49 49.1432 790.841 48.8802 791.258 48.6875C791.674 48.4896 792.151 48.3906 792.688 48.3906C793.141 48.3906 793.542 48.4505 793.891 48.5703C794.245 48.6901 794.542 48.875 794.781 49.125C795.026 49.3698 795.211 49.6849 795.336 50.0703C795.461 50.4557 795.523 50.9141 795.523 51.4453V57H794.07V51.4297C794.07 50.9557 793.995 50.5885 793.844 50.3281C793.698 50.0625 793.49 49.8776 793.219 49.7734C792.953 49.6641 792.635 49.6094 792.266 49.6094C791.948 49.6094 791.667 49.6641 791.422 49.7734C791.177 49.8828 790.971 50.0339 790.805 50.2266C790.638 50.4141 790.51 50.6302 790.422 50.875C790.339 51.1198 790.297 51.3802 790.297 51.6562ZM801.219 57.1562C800.63 57.1562 800.096 57.0573 799.617 56.8594C799.143 56.6562 798.734 56.3724 798.391 56.0078C798.052 55.6432 797.792 55.2109 797.609 54.7109C797.427 54.2109 797.336 53.6641 797.336 53.0703V52.7422C797.336 52.0547 797.438 51.4427 797.641 50.9062C797.844 50.3646 798.12 49.9062 798.469 49.5312C798.818 49.1562 799.214 48.8724 799.656 48.6797C800.099 48.487 800.557 48.3906 801.031 48.3906C801.635 48.3906 802.156 48.4948 802.594 48.7031C803.036 48.9115 803.398 49.2031 803.68 49.5781C803.961 49.9479 804.169 50.3854 804.305 50.8906C804.44 51.3906 804.508 51.9375 804.508 52.5312V53.1797H798.195V52H803.062V51.8906C803.042 51.5156 802.964 51.151 802.828 50.7969C802.698 50.4427 802.49 50.151 802.203 49.9219C801.917 49.6927 801.526 49.5781 801.031 49.5781C800.703 49.5781 800.401 49.6484 800.125 49.7891C799.849 49.9245 799.612 50.1276 799.414 50.3984C799.216 50.6693 799.062 51 798.953 51.3906C798.844 51.7812 798.789 52.2318 798.789 52.7422V53.0703C798.789 53.4714 798.844 53.849 798.953 54.2031C799.068 54.5521 799.232 54.8594 799.445 55.125C799.664 55.3906 799.927 55.599 800.234 55.75C800.547 55.901 800.901 55.9766 801.297 55.9766C801.807 55.9766 802.24 55.8724 802.594 55.6641C802.948 55.4557 803.258 55.1771 803.523 54.8281L804.398 55.5234C804.216 55.7995 803.984 56.0625 803.703 56.3125C803.422 56.5625 803.076 56.7656 802.664 56.9219C802.258 57.0781 801.776 57.1562 801.219 57.1562ZM807.641 50.3516V57H806.195V48.5469H807.562L807.641 50.3516ZM807.297 52.4531L806.695 52.4297C806.701 51.8516 806.786 51.3177 806.953 50.8281C807.12 50.3333 807.354 49.9036 807.656 49.5391C807.958 49.1745 808.318 48.8932 808.734 48.6953C809.156 48.4922 809.622 48.3906 810.133 48.3906C810.549 48.3906 810.924 48.4479 811.258 48.5625C811.591 48.6719 811.875 48.849 812.109 49.0938C812.349 49.3385 812.531 49.6562 812.656 50.0469C812.781 50.4323 812.844 50.9036 812.844 51.4609V57H811.391V51.4453C811.391 51.0026 811.326 50.6484 811.195 50.3828C811.065 50.112 810.875 49.9167 810.625 49.7969C810.375 49.6719 810.068 49.6094 809.703 49.6094C809.344 49.6094 809.016 49.6849 808.719 49.8359C808.427 49.987 808.174 50.1953 807.961 50.4609C807.753 50.7266 807.589 51.0312 807.469 51.375C807.354 51.7135 807.297 52.0729 807.297 52.4531ZM818.578 48.5469V49.6562H814.008V48.5469H818.578ZM815.555 46.4922H817V54.9062C817 55.1927 817.044 55.4089 817.133 55.5547C817.221 55.7005 817.336 55.7969 817.477 55.8438C817.617 55.8906 817.768 55.9141 817.93 55.9141C818.049 55.9141 818.174 55.9036 818.305 55.8828C818.44 55.8568 818.542 55.8359 818.609 55.8203L818.617 57C818.503 57.0365 818.352 57.0703 818.164 57.1016C817.982 57.138 817.76 57.1562 817.5 57.1562C817.146 57.1562 816.82 57.0859 816.523 56.9453C816.227 56.8047 815.99 56.5703 815.812 56.2422C815.641 55.9089 815.555 55.4609 815.555 54.8984V46.4922ZM825.445 55.0469V48.5469H826.898V57H825.516L825.445 55.0469ZM825.719 53.2656L826.32 53.25C826.32 53.8125 826.26 54.3333 826.141 54.8125C826.026 55.2865 825.839 55.6979 825.578 56.0469C825.318 56.3958 824.977 56.6693 824.555 56.8672C824.133 57.0599 823.62 57.1562 823.016 57.1562C822.604 57.1562 822.227 57.0964 821.883 56.9766C821.544 56.8568 821.253 56.6719 821.008 56.4219C820.763 56.1719 820.573 55.8464 820.438 55.4453C820.307 55.0443 820.242 54.5625 820.242 54V48.5469H821.688V54.0156C821.688 54.3958 821.729 54.7109 821.812 54.9609C821.901 55.2057 822.018 55.401 822.164 55.5469C822.315 55.6875 822.482 55.7865 822.664 55.8438C822.852 55.901 823.044 55.9297 823.242 55.9297C823.857 55.9297 824.344 55.8125 824.703 55.5781C825.062 55.3385 825.32 55.0182 825.477 54.6172C825.638 54.2109 825.719 53.7604 825.719 53.2656ZM830.539 50.2266V57H829.086V48.5469H830.461L830.539 50.2266ZM830.242 52.4531L829.57 52.4297C829.576 51.8516 829.651 51.3177 829.797 50.8281C829.943 50.3333 830.159 49.9036 830.445 49.5391C830.732 49.1745 831.089 48.8932 831.516 48.6953C831.943 48.4922 832.438 48.3906 833 48.3906C833.396 48.3906 833.76 48.4479 834.094 48.5625C834.427 48.6719 834.716 48.8464 834.961 49.0859C835.206 49.3255 835.396 49.6328 835.531 50.0078C835.667 50.3828 835.734 50.8359 835.734 51.3672V57H834.289V51.4375C834.289 50.9948 834.214 50.6406 834.062 50.375C833.917 50.1094 833.708 49.9167 833.438 49.7969C833.167 49.6719 832.849 49.6094 832.484 49.6094C832.057 49.6094 831.701 49.6849 831.414 49.8359C831.128 49.987 830.898 50.1953 830.727 50.4609C830.555 50.7266 830.43 51.0312 830.352 51.375C830.279 51.7135 830.242 52.0729 830.242 52.4531ZM835.719 51.6562L834.75 51.9531C834.755 51.4896 834.831 51.0443 834.977 50.6172C835.128 50.1901 835.344 49.8099 835.625 49.4766C835.911 49.1432 836.263 48.8802 836.68 48.6875C837.096 48.4896 837.573 48.3906 838.109 48.3906C838.562 48.3906 838.964 48.4505 839.312 48.5703C839.667 48.6901 839.964 48.875 840.203 49.125C840.448 49.3698 840.633 49.6849 840.758 50.0703C840.883 50.4557 840.945 50.9141 840.945 51.4453V57H839.492V51.4297C839.492 50.9557 839.417 50.5885 839.266 50.3281C839.12 50.0625 838.911 49.8776 838.641 49.7734C838.375 49.6641 838.057 49.6094 837.688 49.6094C837.37 49.6094 837.089 49.6641 836.844 49.7734C836.599 49.8828 836.393 50.0339 836.227 50.2266C836.06 50.4141 835.932 50.6302 835.844 50.875C835.76 51.1198 835.719 51.3802 835.719 51.6562Z" fill="#686868"/>
<path d="M914.383 54.125C914.383 53.8594 914.341 53.625 914.258 53.4219C914.18 53.2135 914.039 53.026 913.836 52.8594C913.638 52.6927 913.362 52.5339 913.008 52.3828C912.659 52.2318 912.216 52.0781 911.68 51.9219C911.117 51.7552 910.609 51.5703 910.156 51.3672C909.703 51.1589 909.315 50.9219 908.992 50.6562C908.669 50.3906 908.422 50.0859 908.25 49.7422C908.078 49.3984 907.992 49.0052 907.992 48.5625C907.992 48.1198 908.083 47.7109 908.266 47.3359C908.448 46.9609 908.708 46.6354 909.047 46.3594C909.391 46.0781 909.799 45.8594 910.273 45.7031C910.747 45.5469 911.276 45.4688 911.859 45.4688C912.714 45.4688 913.438 45.6328 914.031 45.9609C914.63 46.2839 915.086 46.7083 915.398 47.2344C915.711 47.7552 915.867 48.3125 915.867 48.9062H914.367C914.367 48.4792 914.276 48.1016 914.094 47.7734C913.911 47.4401 913.635 47.1797 913.266 46.9922C912.896 46.7995 912.427 46.7031 911.859 46.7031C911.323 46.7031 910.88 46.7839 910.531 46.9453C910.182 47.1068 909.922 47.3255 909.75 47.6016C909.583 47.8776 909.5 48.1927 909.5 48.5469C909.5 48.7865 909.549 49.0052 909.648 49.2031C909.753 49.3958 909.911 49.5755 910.125 49.7422C910.344 49.9089 910.62 50.0625 910.953 50.2031C911.292 50.3438 911.695 50.4792 912.164 50.6094C912.81 50.7917 913.367 50.9948 913.836 51.2188C914.305 51.4427 914.69 51.6953 914.992 51.9766C915.299 52.2526 915.526 52.5677 915.672 52.9219C915.823 53.2708 915.898 53.6667 915.898 54.1094C915.898 54.5729 915.805 54.9922 915.617 55.3672C915.43 55.7422 915.161 56.0625 914.812 56.3281C914.464 56.5938 914.044 56.7995 913.555 56.9453C913.07 57.0859 912.529 57.1562 911.93 57.1562C911.404 57.1562 910.885 57.0833 910.375 56.9375C909.87 56.7917 909.409 56.5729 908.992 56.2812C908.581 55.9896 908.25 55.6302 908 55.2031C907.755 54.7708 907.633 54.2708 907.633 53.7031H909.133C909.133 54.0938 909.208 54.4297 909.359 54.7109C909.51 54.987 909.716 55.2161 909.977 55.3984C910.242 55.5807 910.542 55.7161 910.875 55.8047C911.214 55.888 911.565 55.9297 911.93 55.9297C912.456 55.9297 912.901 55.8568 913.266 55.7109C913.63 55.5651 913.906 55.3568 914.094 55.0859C914.286 54.8151 914.383 54.4948 914.383 54.125ZM921.109 57.1562C920.521 57.1562 919.987 57.0573 919.508 56.8594C919.034 56.6562 918.625 56.3724 918.281 56.0078C917.943 55.6432 917.682 55.2109 917.5 54.7109C917.318 54.2109 917.227 53.6641 917.227 53.0703V52.7422C917.227 52.0547 917.328 51.4427 917.531 50.9062C917.734 50.3646 918.01 49.9062 918.359 49.5312C918.708 49.1562 919.104 48.8724 919.547 48.6797C919.99 48.487 920.448 48.3906 920.922 48.3906C921.526 48.3906 922.047 48.4948 922.484 48.7031C922.927 48.9115 923.289 49.2031 923.57 49.5781C923.852 49.9479 924.06 50.3854 924.195 50.8906C924.331 51.3906 924.398 51.9375 924.398 52.5312V53.1797H918.086V52H922.953V51.8906C922.932 51.5156 922.854 51.151 922.719 50.7969C922.589 50.4427 922.38 50.151 922.094 49.9219C921.807 49.6927 921.417 49.5781 920.922 49.5781C920.594 49.5781 920.292 49.6484 920.016 49.7891C919.74 49.9245 919.503 50.1276 919.305 50.3984C919.107 50.6693 918.953 51 918.844 51.3906C918.734 51.7812 918.68 52.2318 918.68 52.7422V53.0703C918.68 53.4714 918.734 53.849 918.844 54.2031C918.958 54.5521 919.122 54.8594 919.336 55.125C919.555 55.3906 919.818 55.599 920.125 55.75C920.438 55.901 920.792 55.9766 921.188 55.9766C921.698 55.9766 922.13 55.8724 922.484 55.6641C922.839 55.4557 923.148 55.1771 923.414 54.8281L924.289 55.5234C924.107 55.7995 923.875 56.0625 923.594 56.3125C923.312 56.5625 922.966 56.7656 922.555 56.9219C922.148 57.0781 921.667 57.1562 921.109 57.1562ZM931.414 55.3594V45H932.867V57H931.539L931.414 55.3594ZM925.727 52.8672V52.7031C925.727 52.0573 925.805 51.4714 925.961 50.9453C926.122 50.4141 926.349 49.9583 926.641 49.5781C926.938 49.1979 927.289 48.9062 927.695 48.7031C928.107 48.4948 928.565 48.3906 929.07 48.3906C929.602 48.3906 930.065 48.4844 930.461 48.6719C930.862 48.8542 931.201 49.1224 931.477 49.4766C931.758 49.8255 931.979 50.2474 932.141 50.7422C932.302 51.237 932.414 51.7969 932.477 52.4219V53.1406C932.419 53.7604 932.307 54.3177 932.141 54.8125C931.979 55.3073 931.758 55.7292 931.477 56.0781C931.201 56.4271 930.862 56.6953 930.461 56.8828C930.06 57.0651 929.591 57.1562 929.055 57.1562C928.56 57.1562 928.107 57.0495 927.695 56.8359C927.289 56.6224 926.938 56.3229 926.641 55.9375C926.349 55.5521 926.122 55.099 925.961 54.5781C925.805 54.0521 925.727 53.4818 925.727 52.8672ZM927.18 52.7031V52.8672C927.18 53.2891 927.221 53.6849 927.305 54.0547C927.393 54.4245 927.529 54.75 927.711 55.0312C927.893 55.3125 928.125 55.5339 928.406 55.6953C928.688 55.8516 929.023 55.9297 929.414 55.9297C929.893 55.9297 930.286 55.8281 930.594 55.625C930.906 55.4219 931.156 55.1536 931.344 54.8203C931.531 54.487 931.677 54.125 931.781 53.7344V51.8516C931.719 51.5651 931.628 51.2891 931.508 51.0234C931.393 50.7526 931.242 50.513 931.055 50.3047C930.872 50.0911 930.646 49.9219 930.375 49.7969C930.109 49.6719 929.794 49.6094 929.43 49.6094C929.034 49.6094 928.693 49.6927 928.406 49.8594C928.125 50.0208 927.893 50.2448 927.711 50.5312C927.529 50.8125 927.393 51.1406 927.305 51.5156C927.221 51.8854 927.18 52.2812 927.18 52.7031ZM940.656 45V57H939.203V45H940.656ZM942.594 52.8672V52.6875C942.594 52.0781 942.682 51.513 942.859 50.9922C943.036 50.4661 943.292 50.0104 943.625 49.625C943.958 49.2344 944.362 48.9323 944.836 48.7188C945.31 48.5 945.841 48.3906 946.43 48.3906C947.023 48.3906 947.557 48.5 948.031 48.7188C948.51 48.9323 948.917 49.2344 949.25 49.625C949.589 50.0104 949.846 50.4661 950.023 50.9922C950.201 51.513 950.289 52.0781 950.289 52.6875V52.8672C950.289 53.4766 950.201 54.0417 950.023 54.5625C949.846 55.0833 949.589 55.5391 949.25 55.9297C948.917 56.3151 948.513 56.6172 948.039 56.8359C947.57 57.0495 947.039 57.1562 946.445 57.1562C945.852 57.1562 945.318 57.0495 944.844 56.8359C944.37 56.6172 943.964 56.3151 943.625 55.9297C943.292 55.5391 943.036 55.0833 942.859 54.5625C942.682 54.0417 942.594 53.4766 942.594 52.8672ZM944.039 52.6875V52.8672C944.039 53.2891 944.089 53.6875 944.188 54.0625C944.286 54.4323 944.435 54.7604 944.633 55.0469C944.836 55.3333 945.089 55.5599 945.391 55.7266C945.693 55.888 946.044 55.9688 946.445 55.9688C946.841 55.9688 947.188 55.888 947.484 55.7266C947.786 55.5599 948.036 55.3333 948.234 55.0469C948.432 54.7604 948.581 54.4323 948.68 54.0625C948.784 53.6875 948.836 53.2891 948.836 52.8672V52.6875C948.836 52.2708 948.784 51.8776 948.68 51.5078C948.581 51.1328 948.43 50.8021 948.227 50.5156C948.029 50.224 947.779 49.9948 947.477 49.8281C947.18 49.6615 946.831 49.5781 946.43 49.5781C946.034 49.5781 945.685 49.6615 945.383 49.8281C945.086 49.9948 944.836 50.224 944.633 50.5156C944.435 50.8021 944.286 51.1328 944.188 51.5078C944.089 51.8776 944.039 52.2708 944.039 52.6875ZM953.547 49.875V57H952.102V48.5469H953.508L953.547 49.875ZM956.188 48.5L956.18 49.8438C956.06 49.8177 955.945 49.8021 955.836 49.7969C955.732 49.7865 955.612 49.7812 955.477 49.7812C955.143 49.7812 954.849 49.8333 954.594 49.9375C954.339 50.0417 954.122 50.1875 953.945 50.375C953.768 50.5625 953.628 50.7865 953.523 51.0469C953.424 51.3021 953.359 51.5833 953.328 51.8906L952.922 52.125C952.922 51.6146 952.971 51.1354 953.07 50.6875C953.174 50.2396 953.333 49.8438 953.547 49.5C953.76 49.151 954.031 48.8802 954.359 48.6875C954.693 48.4896 955.089 48.3906 955.547 48.3906C955.651 48.3906 955.771 48.4036 955.906 48.4297C956.042 48.4505 956.135 48.474 956.188 48.5ZM960.875 57.1562C960.286 57.1562 959.753 57.0573 959.273 56.8594C958.799 56.6562 958.391 56.3724 958.047 56.0078C957.708 55.6432 957.448 55.2109 957.266 54.7109C957.083 54.2109 956.992 53.6641 956.992 53.0703V52.7422C956.992 52.0547 957.094 51.4427 957.297 50.9062C957.5 50.3646 957.776 49.9062 958.125 49.5312C958.474 49.1562 958.87 48.8724 959.312 48.6797C959.755 48.487 960.214 48.3906 960.688 48.3906C961.292 48.3906 961.812 48.4948 962.25 48.7031C962.693 48.9115 963.055 49.2031 963.336 49.5781C963.617 49.9479 963.826 50.3854 963.961 50.8906C964.096 51.3906 964.164 51.9375 964.164 52.5312V53.1797H957.852V52H962.719V51.8906C962.698 51.5156 962.62 51.151 962.484 50.7969C962.354 50.4427 962.146 50.151 961.859 49.9219C961.573 49.6927 961.182 49.5781 960.688 49.5781C960.359 49.5781 960.057 49.6484 959.781 49.7891C959.505 49.9245 959.268 50.1276 959.07 50.3984C958.872 50.6693 958.719 51 958.609 51.3906C958.5 51.7812 958.445 52.2318 958.445 52.7422V53.0703C958.445 53.4714 958.5 53.849 958.609 54.2031C958.724 54.5521 958.888 54.8594 959.102 55.125C959.32 55.3906 959.583 55.599 959.891 55.75C960.203 55.901 960.557 55.9766 960.953 55.9766C961.464 55.9766 961.896 55.8724 962.25 55.6641C962.604 55.4557 962.914 55.1771 963.18 54.8281L964.055 55.5234C963.872 55.7995 963.641 56.0625 963.359 56.3125C963.078 56.5625 962.732 56.7656 962.32 56.9219C961.914 57.0781 961.432 57.1562 960.875 57.1562ZM967.289 50.2266V57H965.836V48.5469H967.211L967.289 50.2266ZM966.992 52.4531L966.32 52.4297C966.326 51.8516 966.401 51.3177 966.547 50.8281C966.693 50.3333 966.909 49.9036 967.195 49.5391C967.482 49.1745 967.839 48.8932 968.266 48.6953C968.693 48.4922 969.188 48.3906 969.75 48.3906C970.146 48.3906 970.51 48.4479 970.844 48.5625C971.177 48.6719 971.466 48.8464 971.711 49.0859C971.956 49.3255 972.146 49.6328 972.281 50.0078C972.417 50.3828 972.484 50.8359 972.484 51.3672V57H971.039V51.4375C971.039 50.9948 970.964 50.6406 970.812 50.375C970.667 50.1094 970.458 49.9167 970.188 49.7969C969.917 49.6719 969.599 49.6094 969.234 49.6094C968.807 49.6094 968.451 49.6849 968.164 49.8359C967.878 49.987 967.648 50.1953 967.477 50.4609C967.305 50.7266 967.18 51.0312 967.102 51.375C967.029 51.7135 966.992 52.0729 966.992 52.4531ZM972.469 51.6562L971.5 51.9531C971.505 51.4896 971.581 51.0443 971.727 50.6172C971.878 50.1901 972.094 49.8099 972.375 49.4766C972.661 49.1432 973.013 48.8802 973.43 48.6875C973.846 48.4896 974.323 48.3906 974.859 48.3906C975.312 48.3906 975.714 48.4505 976.062 48.5703C976.417 48.6901 976.714 48.875 976.953 49.125C977.198 49.3698 977.383 49.6849 977.508 50.0703C977.633 50.4557 977.695 50.9141 977.695 51.4453V57H976.242V51.4297C976.242 50.9557 976.167 50.5885 976.016 50.3281C975.87 50.0625 975.661 49.8776 975.391 49.7734C975.125 49.6641 974.807 49.6094 974.438 49.6094C974.12 49.6094 973.839 49.6641 973.594 49.7734C973.349 49.8828 973.143 50.0339 972.977 50.2266C972.81 50.4141 972.682 50.6302 972.594 50.875C972.51 51.1198 972.469 51.3802 972.469 51.6562ZM988.836 55.5547V51.2031C988.836 50.8698 988.768 50.5807 988.633 50.3359C988.503 50.0859 988.305 49.8932 988.039 49.7578C987.773 49.6224 987.445 49.5547 987.055 49.5547C986.69 49.5547 986.37 49.6172 986.094 49.7422C985.823 49.8672 985.609 50.0312 985.453 50.2344C985.302 50.4375 985.227 50.6562 985.227 50.8906H983.781C983.781 50.5885 983.859 50.2891 984.016 49.9922C984.172 49.6953 984.396 49.4271 984.688 49.1875C984.984 48.9427 985.339 48.75 985.75 48.6094C986.167 48.4635 986.63 48.3906 987.141 48.3906C987.755 48.3906 988.297 48.4948 988.766 48.7031C989.24 48.9115 989.609 49.2266 989.875 49.6484C990.146 50.0651 990.281 50.5885 990.281 51.2188V55.1562C990.281 55.4375 990.305 55.737 990.352 56.0547C990.404 56.3724 990.479 56.6458 990.578 56.875V57H989.07C988.997 56.8333 988.94 56.612 988.898 56.3359C988.857 56.0547 988.836 55.7943 988.836 55.5547ZM989.086 51.875L989.102 52.8906H987.641C987.229 52.8906 986.862 52.9245 986.539 52.9922C986.216 53.0547 985.945 53.151 985.727 53.2812C985.508 53.4115 985.341 53.5755 985.227 53.7734C985.112 53.9661 985.055 54.1927 985.055 54.4531C985.055 54.7188 985.115 54.9609 985.234 55.1797C985.354 55.3984 985.534 55.5729 985.773 55.7031C986.018 55.8281 986.318 55.8906 986.672 55.8906C987.115 55.8906 987.505 55.7969 987.844 55.6094C988.182 55.4219 988.451 55.1927 988.648 54.9219C988.852 54.651 988.961 54.388 988.977 54.1328L989.594 54.8281C989.557 55.0469 989.458 55.2891 989.297 55.5547C989.135 55.8203 988.919 56.0755 988.648 56.3203C988.383 56.5599 988.065 56.7604 987.695 56.9219C987.331 57.0781 986.919 57.1562 986.461 57.1562C985.888 57.1562 985.385 57.0443 984.953 56.8203C984.526 56.5964 984.193 56.2969 983.953 55.9219C983.719 55.5417 983.602 55.1172 983.602 54.6484C983.602 54.1953 983.69 53.7969 983.867 53.4531C984.044 53.1042 984.299 52.8151 984.633 52.5859C984.966 52.3516 985.367 52.1745 985.836 52.0547C986.305 51.9349 986.828 51.875 987.406 51.875H989.086ZM994 49.875V57H992.555V48.5469H993.961L994 49.875ZM996.641 48.5L996.633 49.8438C996.513 49.8177 996.398 49.8021 996.289 49.7969C996.185 49.7865 996.065 49.7812 995.93 49.7812C995.596 49.7812 995.302 49.8333 995.047 49.9375C994.792 50.0417 994.576 50.1875 994.398 50.375C994.221 50.5625 994.081 50.7865 993.977 51.0469C993.878 51.3021 993.812 51.5833 993.781 51.8906L993.375 52.125C993.375 51.6146 993.424 51.1354 993.523 50.6875C993.628 50.2396 993.786 49.8438 994 49.5C994.214 49.151 994.484 48.8802 994.812 48.6875C995.146 48.4896 995.542 48.3906 996 48.3906C996.104 48.3906 996.224 48.4036 996.359 48.4297C996.495 48.4505 996.589 48.474 996.641 48.5ZM1001.2 55.9688C1001.55 55.9688 1001.86 55.8984 1002.16 55.7578C1002.45 55.6172 1002.69 55.4245 1002.88 55.1797C1003.06 54.9297 1003.17 54.6458 1003.2 54.3281H1004.57C1004.54 54.8281 1004.38 55.2943 1004.06 55.7266C1003.76 56.1536 1003.35 56.5 1002.85 56.7656C1002.35 57.026 1001.8 57.1562 1001.2 57.1562C1000.57 57.1562 1000.01 57.0443 999.539 56.8203C999.07 56.5964 998.68 56.2891 998.367 55.8984C998.06 55.5078 997.828 55.0599 997.672 54.5547C997.521 54.0443 997.445 53.5052 997.445 52.9375V52.6094C997.445 52.0417 997.521 51.5052 997.672 51C997.828 50.4896 998.06 50.0391 998.367 49.6484C998.68 49.2578 999.07 48.9505 999.539 48.7266C1000.01 48.5026 1000.57 48.3906 1001.2 48.3906C1001.86 48.3906 1002.44 48.526 1002.94 48.7969C1003.43 49.0625 1003.82 49.4271 1004.1 49.8906C1004.39 50.349 1004.54 50.8698 1004.57 51.4531H1003.2C1003.17 51.1042 1003.07 50.7891 1002.9 50.5078C1002.73 50.2266 1002.5 50.0026 1002.21 49.8359C1001.92 49.6641 1001.59 49.5781 1001.2 49.5781C1000.76 49.5781 1000.39 49.6667 1000.09 49.8438C999.789 50.0156 999.552 50.25 999.375 50.5469C999.203 50.8385 999.078 51.1641 999 51.5234C998.927 51.8776 998.891 52.2396 998.891 52.6094V52.9375C998.891 53.3073 998.927 53.6719 999 54.0312C999.073 54.3906 999.195 54.7161 999.367 55.0078C999.544 55.2995 999.781 55.5339 1000.08 55.7109C1000.38 55.8828 1000.76 55.9688 1001.2 55.9688ZM1011.37 55.0469V48.5469H1012.82V57H1011.44L1011.37 55.0469ZM1011.64 53.2656L1012.24 53.25C1012.24 53.8125 1012.18 54.3333 1012.06 54.8125C1011.95 55.2865 1011.76 55.6979 1011.5 56.0469C1011.24 56.3958 1010.9 56.6693 1010.48 56.8672C1010.05 57.0599 1009.54 57.1562 1008.94 57.1562C1008.53 57.1562 1008.15 57.0964 1007.8 56.9766C1007.47 56.8568 1007.17 56.6719 1006.93 56.4219C1006.68 56.1719 1006.49 55.8464 1006.36 55.4453C1006.23 55.0443 1006.16 54.5625 1006.16 54V48.5469H1007.61V54.0156C1007.61 54.3958 1007.65 54.7109 1007.73 54.9609C1007.82 55.2057 1007.94 55.401 1008.09 55.5469C1008.24 55.6875 1008.4 55.7865 1008.59 55.8438C1008.77 55.901 1008.97 55.9297 1009.16 55.9297C1009.78 55.9297 1010.27 55.8125 1010.62 55.5781C1010.98 55.3385 1011.24 55.0182 1011.4 54.6172C1011.56 54.2109 1011.64 53.7604 1011.64 53.2656Z" fill="#686868"/>
<path d="M1083.53 46.6328L1079.77 57H1078.23L1082.56 45.625H1083.55L1083.53 46.6328ZM1086.69 57L1082.91 46.6328L1082.89 45.625H1083.88L1088.23 57H1086.69ZM1086.49 52.7891V54.0234H1080.1V52.7891H1086.49ZM1098.43 54.7578C1098.43 54.5495 1098.38 54.3568 1098.29 54.1797C1098.2 53.9974 1098.02 53.8333 1097.73 53.6875C1097.46 53.5365 1097.04 53.4062 1096.48 53.2969C1096.02 53.1979 1095.59 53.0807 1095.21 52.9453C1094.84 52.8099 1094.52 52.6458 1094.25 52.4531C1093.99 52.2604 1093.79 52.0339 1093.65 51.7734C1093.51 51.513 1093.44 51.2083 1093.44 50.8594C1093.44 50.526 1093.51 50.2109 1093.66 49.9141C1093.81 49.6172 1094.02 49.3542 1094.29 49.125C1094.57 48.8958 1094.9 48.7161 1095.28 48.5859C1095.67 48.4557 1096.1 48.3906 1096.57 48.3906C1097.25 48.3906 1097.83 48.5104 1098.3 48.75C1098.78 48.9896 1099.15 49.3099 1099.41 49.7109C1099.66 50.1068 1099.79 50.5469 1099.79 51.0312H1098.34C1098.34 50.7969 1098.27 50.5703 1098.13 50.3516C1098 50.1276 1097.8 49.9427 1097.53 49.7969C1097.27 49.651 1096.95 49.5781 1096.57 49.5781C1096.17 49.5781 1095.84 49.6406 1095.59 49.7656C1095.35 49.8854 1095.17 50.0391 1095.05 50.2266C1094.95 50.4141 1094.89 50.612 1094.89 50.8203C1094.89 50.9766 1094.92 51.1172 1094.97 51.2422C1095.03 51.362 1095.12 51.474 1095.27 51.5781C1095.41 51.6771 1095.6 51.7708 1095.86 51.8594C1096.11 51.9479 1096.44 52.0365 1096.84 52.125C1097.53 52.2812 1098.1 52.4688 1098.55 52.6875C1098.99 52.9062 1099.33 53.1745 1099.55 53.4922C1099.77 53.8099 1099.88 54.1953 1099.88 54.6484C1099.88 55.0182 1099.8 55.3568 1099.64 55.6641C1099.49 55.9714 1099.27 56.237 1098.98 56.4609C1098.69 56.6797 1098.35 56.8516 1097.95 56.9766C1097.55 57.0964 1097.1 57.1562 1096.61 57.1562C1095.86 57.1562 1095.23 57.0234 1094.72 56.7578C1094.2 56.4922 1093.81 56.1484 1093.55 55.7266C1093.28 55.3047 1093.15 54.8594 1093.15 54.3906H1094.6C1094.62 54.7865 1094.74 55.1016 1094.95 55.3359C1095.15 55.5651 1095.41 55.7292 1095.71 55.8281C1096.01 55.9219 1096.31 55.9688 1096.61 55.9688C1097.01 55.9688 1097.34 55.9167 1097.6 55.8125C1097.87 55.7083 1098.08 55.5651 1098.22 55.3828C1098.36 55.2005 1098.43 54.9922 1098.43 54.7578ZM1105.28 57.1562C1104.69 57.1562 1104.16 57.0573 1103.68 56.8594C1103.21 56.6562 1102.8 56.3724 1102.45 56.0078C1102.11 55.6432 1101.85 55.2109 1101.67 54.7109C1101.49 54.2109 1101.4 53.6641 1101.4 53.0703V52.7422C1101.4 52.0547 1101.5 51.4427 1101.7 50.9062C1101.91 50.3646 1102.18 49.9062 1102.53 49.5312C1102.88 49.1562 1103.28 48.8724 1103.72 48.6797C1104.16 48.487 1104.62 48.3906 1105.09 48.3906C1105.7 48.3906 1106.22 48.4948 1106.66 48.7031C1107.1 48.9115 1107.46 49.2031 1107.74 49.5781C1108.02 49.9479 1108.23 50.3854 1108.37 50.8906C1108.5 51.3906 1108.57 51.9375 1108.57 52.5312V53.1797H1102.26V52H1107.12V51.8906C1107.1 51.5156 1107.03 51.151 1106.89 50.7969C1106.76 50.4427 1106.55 50.151 1106.27 49.9219C1105.98 49.6927 1105.59 49.5781 1105.09 49.5781C1104.77 49.5781 1104.46 49.6484 1104.19 49.7891C1103.91 49.9245 1103.67 50.1276 1103.48 50.3984C1103.28 50.6693 1103.12 51 1103.02 51.3906C1102.91 51.7812 1102.85 52.2318 1102.85 52.7422V53.0703C1102.85 53.4714 1102.91 53.849 1103.02 54.2031C1103.13 54.5521 1103.29 54.8594 1103.51 55.125C1103.73 55.3906 1103.99 55.599 1104.3 55.75C1104.61 55.901 1104.96 55.9766 1105.36 55.9766C1105.87 55.9766 1106.3 55.8724 1106.66 55.6641C1107.01 55.4557 1107.32 55.1771 1107.59 54.8281L1108.46 55.5234C1108.28 55.7995 1108.05 56.0625 1107.77 56.3125C1107.48 56.5625 1107.14 56.7656 1106.73 56.9219C1106.32 57.0781 1105.84 57.1562 1105.28 57.1562ZM1115.59 55.3594V45H1117.04V57H1115.71L1115.59 55.3594ZM1109.9 52.8672V52.7031C1109.9 52.0573 1109.98 51.4714 1110.13 50.9453C1110.29 50.4141 1110.52 49.9583 1110.81 49.5781C1111.11 49.1979 1111.46 48.9062 1111.87 48.7031C1112.28 48.4948 1112.74 48.3906 1113.24 48.3906C1113.77 48.3906 1114.24 48.4844 1114.63 48.6719C1115.03 48.8542 1115.37 49.1224 1115.65 49.4766C1115.93 49.8255 1116.15 50.2474 1116.31 50.7422C1116.47 51.237 1116.59 51.7969 1116.65 52.4219V53.1406C1116.59 53.7604 1116.48 54.3177 1116.31 54.8125C1116.15 55.3073 1115.93 55.7292 1115.65 56.0781C1115.37 56.4271 1115.03 56.6953 1114.63 56.8828C1114.23 57.0651 1113.76 57.1562 1113.23 57.1562C1112.73 57.1562 1112.28 57.0495 1111.87 56.8359C1111.46 56.6224 1111.11 56.3229 1110.81 55.9375C1110.52 55.5521 1110.29 55.099 1110.13 54.5781C1109.98 54.0521 1109.9 53.4818 1109.9 52.8672ZM1111.35 52.7031V52.8672C1111.35 53.2891 1111.39 53.6849 1111.48 54.0547C1111.57 54.4245 1111.7 54.75 1111.88 55.0312C1112.07 55.3125 1112.3 55.5339 1112.58 55.6953C1112.86 55.8516 1113.2 55.9297 1113.59 55.9297C1114.07 55.9297 1114.46 55.8281 1114.77 55.625C1115.08 55.4219 1115.33 55.1536 1115.52 54.8203C1115.7 54.487 1115.85 54.125 1115.95 53.7344V51.8516C1115.89 51.5651 1115.8 51.2891 1115.68 51.0234C1115.57 50.7526 1115.41 50.513 1115.23 50.3047C1115.04 50.0911 1114.82 49.9219 1114.55 49.7969C1114.28 49.6719 1113.97 49.6094 1113.6 49.6094C1113.21 49.6094 1112.86 49.6927 1112.58 49.8594C1112.3 50.0208 1112.07 50.2448 1111.88 50.5312C1111.7 50.8125 1111.57 51.1406 1111.48 51.5156C1111.39 51.8854 1111.35 52.2812 1111.35 52.7031ZM1128.18 54.7578C1128.18 54.5495 1128.13 54.3568 1128.04 54.1797C1127.95 53.9974 1127.77 53.8333 1127.48 53.6875C1127.21 53.5365 1126.79 53.4062 1126.23 53.2969C1125.77 53.1979 1125.34 53.0807 1124.96 52.9453C1124.59 52.8099 1124.27 52.6458 1124 52.4531C1123.74 52.2604 1123.54 52.0339 1123.4 51.7734C1123.26 51.513 1123.19 51.2083 1123.19 50.8594C1123.19 50.526 1123.26 50.2109 1123.41 49.9141C1123.56 49.6172 1123.77 49.3542 1124.04 49.125C1124.32 48.8958 1124.65 48.7161 1125.03 48.5859C1125.42 48.4557 1125.85 48.3906 1126.32 48.3906C1127 48.3906 1127.58 48.5104 1128.05 48.75C1128.53 48.9896 1128.9 49.3099 1129.16 49.7109C1129.41 50.1068 1129.54 50.5469 1129.54 51.0312H1128.09C1128.09 50.7969 1128.02 50.5703 1127.88 50.3516C1127.75 50.1276 1127.55 49.9427 1127.28 49.7969C1127.02 49.651 1126.7 49.5781 1126.32 49.5781C1125.92 49.5781 1125.59 49.6406 1125.34 49.7656C1125.1 49.8854 1124.92 50.0391 1124.8 50.2266C1124.7 50.4141 1124.64 50.612 1124.64 50.8203C1124.64 50.9766 1124.67 51.1172 1124.72 51.2422C1124.78 51.362 1124.88 51.474 1125.02 51.5781C1125.16 51.6771 1125.35 51.7708 1125.61 51.8594C1125.86 51.9479 1126.19 52.0365 1126.59 52.125C1127.28 52.2812 1127.85 52.4688 1128.3 52.6875C1128.74 52.9062 1129.08 53.1745 1129.3 53.4922C1129.52 53.8099 1129.62 54.1953 1129.62 54.6484C1129.62 55.0182 1129.55 55.3568 1129.39 55.6641C1129.24 55.9714 1129.02 56.237 1128.73 56.4609C1128.44 56.6797 1128.1 56.8516 1127.7 56.9766C1127.3 57.0964 1126.85 57.1562 1126.36 57.1562C1125.61 57.1562 1124.98 57.0234 1124.47 56.7578C1123.95 56.4922 1123.56 56.1484 1123.3 55.7266C1123.03 55.3047 1122.9 54.8594 1122.9 54.3906H1124.35C1124.37 54.7865 1124.49 55.1016 1124.7 55.3359C1124.9 55.5651 1125.16 55.7292 1125.46 55.8281C1125.76 55.9219 1126.06 55.9688 1126.36 55.9688C1126.76 55.9688 1127.09 55.9167 1127.35 55.8125C1127.62 55.7083 1127.83 55.5651 1127.97 55.3828C1128.11 55.2005 1128.18 54.9922 1128.18 54.7578ZM1133.09 48.5469V57H1131.64V48.5469H1133.09ZM1131.53 46.3047C1131.53 46.0703 1131.6 45.8724 1131.74 45.7109C1131.89 45.5495 1132.1 45.4688 1132.38 45.4688C1132.66 45.4688 1132.87 45.5495 1133.02 45.7109C1133.17 45.8724 1133.24 46.0703 1133.24 46.3047C1133.24 46.5286 1133.17 46.7214 1133.02 46.8828C1132.87 47.0391 1132.66 47.1172 1132.38 47.1172C1132.1 47.1172 1131.89 47.0391 1131.74 46.8828C1131.6 46.7214 1131.53 46.5286 1131.53 46.3047ZM1138.95 48.5469V49.6562H1134.38V48.5469H1138.95ZM1135.93 46.4922H1137.38V54.9062C1137.38 55.1927 1137.42 55.4089 1137.51 55.5547C1137.6 55.7005 1137.71 55.7969 1137.85 55.8438C1137.99 55.8906 1138.14 55.9141 1138.3 55.9141C1138.42 55.9141 1138.55 55.9036 1138.68 55.8828C1138.82 55.8568 1138.92 55.8359 1138.98 55.8203L1138.99 57C1138.88 57.0365 1138.73 57.0703 1138.54 57.1016C1138.36 57.138 1138.14 57.1562 1137.88 57.1562C1137.52 57.1562 1137.2 57.0859 1136.9 56.9453C1136.6 56.8047 1136.36 56.5703 1136.19 56.2422C1136.02 55.9089 1135.93 55.4609 1135.93 54.8984V46.4922Z" fill="#686868"/>
<path d="M1326.28 61.2175L1320.09 55.0225C1321.28 53.59 1322 51.7525 1322 49.75C1322 45.1975 1318.3 41.5 1313.75 41.5C1309.2 41.5 1305.5 45.1975 1305.5 49.75C1305.5 54.3025 1309.2 58 1313.75 58C1315.75 58 1317.6 57.28 1319.02 56.0875L1325.22 62.2825L1326.28 61.225L1326.28 61.2175ZM1307 49.75C1307 46.03 1310.03 43 1313.75 43C1317.47 43 1320.5 46.03 1320.5 49.75C1320.5 53.47 1317.47 56.5 1313.75 56.5C1310.03 56.5 1307 53.47 1307 49.75Z" fill="#686868"/>
<path d="M1380 52C1382.89 52 1385.25 49.645 1385.25 46.75C1385.25 43.855 1382.89 41.5 1380 41.5C1377.11 41.5 1374.75 43.855 1374.75 46.75C1374.75 49.645 1377.11 52 1380 52ZM1380 43C1382.07 43 1383.75 44.68 1383.75 46.75C1383.75 48.82 1382.07 50.5 1380 50.5C1377.93 50.5 1376.25 48.82 1376.25 46.75C1376.25 44.68 1377.93 43 1380 43ZM1388.25 61.75V62.5H1386.75V61.75C1386.75 58.03 1383.72 55 1380 55C1376.28 55 1373.25 58.03 1373.25 61.75V62.5H1371.75V61.75C1371.75 57.1975 1375.45 53.5 1380 53.5C1384.55 53.5 1388.25 57.1975 1388.25 61.75Z" fill="#686868"/>
<path d="M1452.22 54.445L1454.47 46.195C1454.53 45.97 1454.49 45.73 1454.34 45.5425C1454.2 45.355 1453.98 45.25 1453.75 45.25H1438C1437.96 45.25 1437.92 45.265 1437.88 45.2725L1437.5 43.2475C1437.26 42.2125 1436.36 41.5 1435.3 41.5H1433.5V43H1435.3C1435.65 43 1435.95 43.24 1436.03 43.555L1438.65 57.565C1437.82 58.0075 1437.25 58.87 1437.25 59.875C1437.25 61.3225 1438.43 62.5 1439.88 62.5C1441.32 62.5 1442.5 61.3225 1442.5 59.875C1442.5 59.47 1442.4 59.095 1442.24 58.75H1447.26C1447.1 59.095 1447 59.47 1447 59.875C1447 61.3225 1448.18 62.5 1449.62 62.5C1451.07 62.5 1452.25 61.3225 1452.25 59.875C1452.25 58.555 1451.27 57.475 1450 57.2875V57.25H1440.12L1439.7 55H1451.5C1451.84 55 1452.14 54.775 1452.22 54.445ZM1441 59.875C1441 60.4975 1440.5 61 1439.88 61C1439.25 61 1438.75 60.4975 1438.75 59.875C1438.75 59.2525 1439.25 58.75 1439.88 58.75C1440.5 58.75 1441 59.2525 1441 59.875ZM1450.75 59.875C1450.75 60.4975 1450.25 61 1449.62 61C1449 61 1448.5 60.4975 1448.5 59.875C1448.5 59.2525 1449 58.75 1449.62 58.75C1450.25 58.75 1450.75 59.2525 1450.75 59.875ZM1439.5 53.5C1439.5 53.5 1439.45 53.515 1439.42 53.515L1438.16 46.75H1452.77L1450.93 53.5H1439.5Z" fill="#686868"/>
<defs>
<clipPath id="clip0_17084_11956">
<rect width="136.75" height="56" fill="white" transform="translate(32 24)"/>
</clipPath>
</defs>
</svg>
