<svg width="1296" height="151" viewBox="0 0 1296 151" fill="none" xmlns="http://www.w3.org/2000/svg">
<g clip-path="url(#clip0_17087_12991)">
<rect width="200" height="150" transform="translate(0 0.500488)" fill="#E3E3E3"/>
</g>
<path d="M226.234 22.979H228.109C228.012 23.8774 227.755 24.6815 227.338 25.3911C226.921 26.1007 226.332 26.6639 225.57 27.0806C224.809 27.4907 223.858 27.6958 222.719 27.6958C221.885 27.6958 221.127 27.5396 220.443 27.2271C219.766 26.9146 219.184 26.4718 218.695 25.8989C218.207 25.3195 217.829 24.6261 217.562 23.8188C217.302 23.005 217.172 22.1001 217.172 21.104V19.688C217.172 18.6919 217.302 17.7902 217.562 16.9829C217.829 16.1691 218.21 15.4725 218.705 14.8931C219.206 14.3136 219.809 13.8677 220.512 13.5552C221.215 13.2427 222.006 13.0864 222.885 13.0864C223.959 13.0864 224.867 13.2882 225.609 13.6919C226.352 14.0955 226.928 14.6554 227.338 15.3716C227.755 16.0812 228.012 16.9048 228.109 17.8423H226.234C226.143 17.1782 225.974 16.6086 225.727 16.1333C225.479 15.6515 225.128 15.2804 224.672 15.02C224.216 14.7596 223.62 14.6294 222.885 14.6294C222.253 14.6294 221.697 14.7498 221.215 14.9907C220.74 15.2316 220.339 15.5734 220.014 16.0161C219.695 16.4588 219.454 16.9894 219.291 17.6079C219.128 18.2264 219.047 18.9132 219.047 19.6685V21.104C219.047 21.8006 219.118 22.4549 219.262 23.0669C219.411 23.6789 219.636 24.216 219.936 24.6782C220.235 25.1405 220.616 25.505 221.078 25.772C221.54 26.0324 222.087 26.1626 222.719 26.1626C223.52 26.1626 224.158 26.0356 224.633 25.7817C225.108 25.5278 225.466 25.1632 225.707 24.688C225.954 24.2127 226.13 23.6431 226.234 22.979ZM236.635 25.6938V20.2544C236.635 19.8377 236.55 19.4764 236.381 19.1704C236.218 18.8579 235.971 18.617 235.639 18.4478C235.307 18.2785 234.896 18.1938 234.408 18.1938C233.952 18.1938 233.552 18.272 233.207 18.4282C232.868 18.5845 232.602 18.7896 232.406 19.0435C232.217 19.2974 232.123 19.5708 232.123 19.8638H230.316C230.316 19.4862 230.414 19.1118 230.609 18.7407C230.805 18.3696 231.085 18.0343 231.449 17.7349C231.82 17.4289 232.263 17.188 232.777 17.0122C233.298 16.8299 233.878 16.7388 234.516 16.7388C235.284 16.7388 235.961 16.869 236.547 17.1294C237.139 17.3898 237.602 17.7837 237.934 18.311C238.272 18.8319 238.441 19.4862 238.441 20.2739V25.1958C238.441 25.5474 238.471 25.9217 238.529 26.3188C238.594 26.716 238.689 27.0578 238.812 27.3442V27.5005H236.928C236.837 27.2922 236.765 27.0155 236.713 26.6704C236.661 26.3188 236.635 25.9933 236.635 25.6938ZM236.947 21.0942L236.967 22.3638H235.141C234.626 22.3638 234.167 22.4061 233.764 22.4907C233.36 22.5688 233.021 22.6893 232.748 22.8521C232.475 23.0148 232.266 23.2199 232.123 23.4673C231.98 23.7082 231.908 23.9914 231.908 24.3169C231.908 24.6489 231.983 24.9517 232.133 25.2251C232.283 25.4985 232.507 25.7166 232.807 25.8794C233.113 26.0356 233.487 26.1138 233.93 26.1138C234.483 26.1138 234.971 25.9966 235.395 25.7622C235.818 25.5278 236.153 25.2414 236.4 24.9028C236.654 24.5643 236.791 24.2355 236.811 23.9165L237.582 24.7856C237.536 25.0591 237.413 25.3618 237.211 25.6938C237.009 26.0259 236.739 26.3449 236.4 26.6509C236.068 26.9504 235.671 27.201 235.209 27.4028C234.753 27.5981 234.239 27.6958 233.666 27.6958C232.95 27.6958 232.322 27.5558 231.781 27.2759C231.247 26.9959 230.831 26.6216 230.531 26.1528C230.238 25.6776 230.092 25.147 230.092 24.561C230.092 23.9946 230.202 23.4966 230.424 23.0669C230.645 22.6307 230.964 22.2694 231.381 21.9829C231.798 21.6899 232.299 21.4686 232.885 21.3188C233.471 21.1691 234.125 21.0942 234.848 21.0942H236.947ZM245.707 16.9341V18.3208H239.994V16.9341H245.707ZM241.928 14.3657H243.734V24.8833C243.734 25.2414 243.79 25.5116 243.9 25.6938C244.011 25.8761 244.154 25.9966 244.33 26.0552C244.506 26.1138 244.695 26.1431 244.896 26.1431C245.046 26.1431 245.202 26.13 245.365 26.104C245.535 26.0715 245.661 26.0454 245.746 26.0259L245.756 27.5005C245.613 27.5461 245.424 27.5884 245.189 27.6274C244.962 27.673 244.685 27.6958 244.359 27.6958C243.917 27.6958 243.51 27.6079 243.139 27.4321C242.768 27.2563 242.471 26.9634 242.25 26.5532C242.035 26.1366 241.928 25.5767 241.928 24.8735V14.3657ZM252.211 27.6958C251.475 27.6958 250.808 27.5721 250.209 27.3247C249.617 27.0708 249.105 26.716 248.676 26.2603C248.253 25.8045 247.927 25.2642 247.699 24.6392C247.471 24.0142 247.357 23.3306 247.357 22.5884V22.1782C247.357 21.3188 247.484 20.5539 247.738 19.8833C247.992 19.2062 248.337 18.6333 248.773 18.1646C249.21 17.6958 249.704 17.341 250.258 17.1001C250.811 16.8592 251.384 16.7388 251.977 16.7388C252.732 16.7388 253.383 16.869 253.93 17.1294C254.483 17.3898 254.936 17.7544 255.287 18.2231C255.639 18.6854 255.899 19.2323 256.068 19.8638C256.238 20.4888 256.322 21.1724 256.322 21.9146V22.7251H248.432V21.2505H254.516V21.1138C254.49 20.645 254.392 20.1893 254.223 19.7466C254.06 19.3039 253.799 18.9393 253.441 18.6528C253.083 18.3664 252.595 18.2231 251.977 18.2231C251.566 18.2231 251.189 18.311 250.844 18.4868C250.499 18.6561 250.202 18.91 249.955 19.2485C249.708 19.5871 249.516 20.0005 249.379 20.4888C249.242 20.9771 249.174 21.5402 249.174 22.1782V22.5884C249.174 23.0897 249.242 23.5617 249.379 24.0044C249.522 24.4406 249.727 24.8247 249.994 25.1567C250.268 25.4888 250.596 25.7492 250.98 25.938C251.371 26.1268 251.814 26.2212 252.309 26.2212C252.947 26.2212 253.487 26.091 253.93 25.8306C254.372 25.5701 254.76 25.2218 255.092 24.7856L256.186 25.6548C255.958 25.9998 255.668 26.3286 255.316 26.6411C254.965 26.9536 254.532 27.2075 254.018 27.4028C253.51 27.5981 252.908 27.6958 252.211 27.6958ZM265.277 16.9341H266.918V27.2759C266.918 28.2069 266.729 29.0011 266.352 29.6587C265.974 30.3162 265.447 30.8143 264.77 31.1528C264.099 31.4979 263.324 31.6704 262.445 31.6704C262.081 31.6704 261.651 31.6118 261.156 31.4946C260.668 31.384 260.186 31.1919 259.711 30.9185C259.242 30.6515 258.848 30.2902 258.529 29.8345L259.477 28.7603C259.919 29.2941 260.382 29.6652 260.863 29.8735C261.352 30.0819 261.833 30.186 262.309 30.186C262.882 30.186 263.376 30.0786 263.793 29.8638C264.21 29.6489 264.532 29.3299 264.76 28.9067C264.994 28.4901 265.111 27.9757 265.111 27.3638V19.2583L265.277 16.9341ZM258.002 22.3345V22.1294C258.002 21.3221 258.096 20.5897 258.285 19.9321C258.48 19.2681 258.757 18.6984 259.115 18.2231C259.48 17.7479 259.919 17.3833 260.434 17.1294C260.948 16.869 261.527 16.7388 262.172 16.7388C262.836 16.7388 263.415 16.856 263.91 17.0903C264.411 17.3182 264.835 17.6535 265.18 18.0962C265.531 18.5324 265.808 19.0597 266.01 19.6782C266.212 20.2967 266.352 20.9966 266.43 21.7778V22.6763C266.358 23.451 266.218 24.1476 266.01 24.7661C265.808 25.3846 265.531 25.9119 265.18 26.3481C264.835 26.7843 264.411 27.1196 263.91 27.354C263.409 27.5819 262.823 27.6958 262.152 27.6958C261.521 27.6958 260.948 27.5623 260.434 27.2954C259.926 27.0285 259.49 26.6541 259.125 26.1724C258.76 25.6906 258.48 25.1242 258.285 24.4731C258.096 23.8156 258.002 23.1027 258.002 22.3345ZM259.809 22.1294V22.3345C259.809 22.8618 259.861 23.3566 259.965 23.8188C260.076 24.2811 260.242 24.688 260.463 25.0396C260.691 25.3911 260.98 25.6678 261.332 25.8696C261.684 26.0649 262.104 26.1626 262.592 26.1626C263.191 26.1626 263.686 26.0356 264.076 25.7817C264.467 25.5278 264.776 25.1925 265.004 24.7759C265.238 24.3592 265.421 23.9067 265.551 23.4185V21.0649C265.479 20.7069 265.368 20.3618 265.219 20.0298C265.076 19.6912 264.887 19.3918 264.652 19.1313C264.424 18.8644 264.141 18.6528 263.803 18.4966C263.464 18.3403 263.067 18.2622 262.611 18.2622C262.117 18.2622 261.69 18.3664 261.332 18.5747C260.98 18.7765 260.691 19.0565 260.463 19.4146C260.242 19.7661 260.076 20.1763 259.965 20.645C259.861 21.1073 259.809 21.6021 259.809 22.1294ZM269.184 22.3345V22.1099C269.184 21.3481 269.294 20.6418 269.516 19.9907C269.737 19.3332 270.056 18.7635 270.473 18.2817C270.889 17.7935 271.394 17.4159 271.986 17.1489C272.579 16.8755 273.243 16.7388 273.979 16.7388C274.721 16.7388 275.388 16.8755 275.98 17.1489C276.579 17.4159 277.087 17.7935 277.504 18.2817C277.927 18.7635 278.249 19.3332 278.471 19.9907C278.692 20.6418 278.803 21.3481 278.803 22.1099V22.3345C278.803 23.0962 278.692 23.8026 278.471 24.4536C278.249 25.1047 277.927 25.6743 277.504 26.1626C277.087 26.6444 276.583 27.022 275.99 27.2954C275.404 27.5623 274.74 27.6958 273.998 27.6958C273.256 27.6958 272.589 27.5623 271.996 27.2954C271.404 27.022 270.896 26.6444 270.473 26.1626C270.056 25.6743 269.737 25.1047 269.516 24.4536C269.294 23.8026 269.184 23.0962 269.184 22.3345ZM270.99 22.1099V22.3345C270.99 22.8618 271.052 23.3599 271.176 23.8286C271.299 24.2909 271.485 24.701 271.732 25.0591C271.986 25.4172 272.302 25.7004 272.68 25.9087C273.057 26.1105 273.497 26.2114 273.998 26.2114C274.493 26.2114 274.926 26.1105 275.297 25.9087C275.674 25.7004 275.987 25.4172 276.234 25.0591C276.482 24.701 276.667 24.2909 276.791 23.8286C276.921 23.3599 276.986 22.8618 276.986 22.3345V22.1099C276.986 21.589 276.921 21.0975 276.791 20.6353C276.667 20.1665 276.479 19.7531 276.225 19.395C275.977 19.0304 275.665 18.744 275.287 18.5356C274.916 18.3273 274.48 18.2231 273.979 18.2231C273.484 18.2231 273.048 18.3273 272.67 18.5356C272.299 18.744 271.986 19.0304 271.732 19.395C271.485 19.7531 271.299 20.1665 271.176 20.6353C271.052 21.0975 270.99 21.589 270.99 22.1099ZM282.875 18.5942V27.5005H281.068V16.9341H282.826L282.875 18.5942ZM286.176 16.8755L286.166 18.5552C286.016 18.5226 285.873 18.5031 285.736 18.4966C285.606 18.4836 285.456 18.4771 285.287 18.4771C284.87 18.4771 284.503 18.5422 284.184 18.6724C283.865 18.8026 283.594 18.9849 283.373 19.2192C283.152 19.4536 282.976 19.7336 282.846 20.0591C282.722 20.3781 282.641 20.7297 282.602 21.1138L282.094 21.4067C282.094 20.7687 282.156 20.1698 282.279 19.6099C282.41 19.05 282.608 18.5552 282.875 18.1255C283.142 17.6893 283.48 17.3507 283.891 17.1099C284.307 16.8625 284.802 16.7388 285.375 16.7388C285.505 16.7388 285.655 16.755 285.824 16.7876C285.993 16.8136 286.111 16.8429 286.176 16.8755ZM290.99 26.4067L293.93 16.9341H295.863L291.625 29.1313C291.527 29.3918 291.397 29.6717 291.234 29.9712C291.078 30.2772 290.876 30.5669 290.629 30.8403C290.382 31.1138 290.082 31.3351 289.73 31.5044C289.385 31.6802 288.972 31.7681 288.49 31.7681C288.347 31.7681 288.165 31.7485 287.943 31.7095C287.722 31.6704 287.566 31.6379 287.475 31.6118L287.465 30.147C287.517 30.1535 287.598 30.16 287.709 30.1665C287.826 30.1795 287.908 30.186 287.953 30.186C288.363 30.186 288.712 30.1307 288.998 30.02C289.285 29.9159 289.525 29.7368 289.721 29.4829C289.923 29.2355 290.095 28.8937 290.238 28.4575L290.99 26.4067ZM288.832 16.9341L291.576 25.1372L292.045 27.0415L290.746 27.7056L286.859 16.9341H288.832Z" fill="#686868"/>
<g clip-path="url(#clip1_17087_12991)">
<rect width="200" height="150" transform="translate(440 0.500488)" fill="#E3E3E3"/>
</g>
<path d="M666.234 22.979H668.109C668.012 23.8774 667.755 24.6815 667.338 25.3911C666.921 26.1007 666.332 26.6639 665.57 27.0806C664.809 27.4907 663.858 27.6958 662.719 27.6958C661.885 27.6958 661.127 27.5396 660.443 27.2271C659.766 26.9146 659.184 26.4718 658.695 25.8989C658.207 25.3195 657.829 24.6261 657.562 23.8188C657.302 23.005 657.172 22.1001 657.172 21.104V19.688C657.172 18.6919 657.302 17.7902 657.562 16.9829C657.829 16.1691 658.21 15.4725 658.705 14.8931C659.206 14.3136 659.809 13.8677 660.512 13.5552C661.215 13.2427 662.006 13.0864 662.885 13.0864C663.959 13.0864 664.867 13.2882 665.609 13.6919C666.352 14.0955 666.928 14.6554 667.338 15.3716C667.755 16.0812 668.012 16.9048 668.109 17.8423H666.234C666.143 17.1782 665.974 16.6086 665.727 16.1333C665.479 15.6515 665.128 15.2804 664.672 15.02C664.216 14.7596 663.62 14.6294 662.885 14.6294C662.253 14.6294 661.697 14.7498 661.215 14.9907C660.74 15.2316 660.339 15.5734 660.014 16.0161C659.695 16.4588 659.454 16.9894 659.291 17.6079C659.128 18.2264 659.047 18.9132 659.047 19.6685V21.104C659.047 21.8006 659.118 22.4549 659.262 23.0669C659.411 23.6789 659.636 24.216 659.936 24.6782C660.235 25.1405 660.616 25.505 661.078 25.772C661.54 26.0324 662.087 26.1626 662.719 26.1626C663.52 26.1626 664.158 26.0356 664.633 25.7817C665.108 25.5278 665.466 25.1632 665.707 24.688C665.954 24.2127 666.13 23.6431 666.234 22.979ZM676.635 25.6938V20.2544C676.635 19.8377 676.55 19.4764 676.381 19.1704C676.218 18.8579 675.971 18.617 675.639 18.4478C675.307 18.2785 674.896 18.1938 674.408 18.1938C673.952 18.1938 673.552 18.272 673.207 18.4282C672.868 18.5845 672.602 18.7896 672.406 19.0435C672.217 19.2974 672.123 19.5708 672.123 19.8638H670.316C670.316 19.4862 670.414 19.1118 670.609 18.7407C670.805 18.3696 671.085 18.0343 671.449 17.7349C671.82 17.4289 672.263 17.188 672.777 17.0122C673.298 16.8299 673.878 16.7388 674.516 16.7388C675.284 16.7388 675.961 16.869 676.547 17.1294C677.139 17.3898 677.602 17.7837 677.934 18.311C678.272 18.8319 678.441 19.4862 678.441 20.2739V25.1958C678.441 25.5474 678.471 25.9217 678.529 26.3188C678.594 26.716 678.689 27.0578 678.812 27.3442V27.5005H676.928C676.837 27.2922 676.765 27.0155 676.713 26.6704C676.661 26.3188 676.635 25.9933 676.635 25.6938ZM676.947 21.0942L676.967 22.3638H675.141C674.626 22.3638 674.167 22.4061 673.764 22.4907C673.36 22.5688 673.021 22.6893 672.748 22.8521C672.475 23.0148 672.266 23.2199 672.123 23.4673C671.98 23.7082 671.908 23.9914 671.908 24.3169C671.908 24.6489 671.983 24.9517 672.133 25.2251C672.283 25.4985 672.507 25.7166 672.807 25.8794C673.113 26.0356 673.487 26.1138 673.93 26.1138C674.483 26.1138 674.971 25.9966 675.395 25.7622C675.818 25.5278 676.153 25.2414 676.4 24.9028C676.654 24.5643 676.791 24.2355 676.811 23.9165L677.582 24.7856C677.536 25.0591 677.413 25.3618 677.211 25.6938C677.009 26.0259 676.739 26.3449 676.4 26.6509C676.068 26.9504 675.671 27.201 675.209 27.4028C674.753 27.5981 674.239 27.6958 673.666 27.6958C672.95 27.6958 672.322 27.5558 671.781 27.2759C671.247 26.9959 670.831 26.6216 670.531 26.1528C670.238 25.6776 670.092 25.147 670.092 24.561C670.092 23.9946 670.202 23.4966 670.424 23.0669C670.645 22.6307 670.964 22.2694 671.381 21.9829C671.798 21.6899 672.299 21.4686 672.885 21.3188C673.471 21.1691 674.125 21.0942 674.848 21.0942H676.947ZM685.707 16.9341V18.3208H679.994V16.9341H685.707ZM681.928 14.3657H683.734V24.8833C683.734 25.2414 683.79 25.5116 683.9 25.6938C684.011 25.8761 684.154 25.9966 684.33 26.0552C684.506 26.1138 684.695 26.1431 684.896 26.1431C685.046 26.1431 685.202 26.13 685.365 26.104C685.535 26.0715 685.661 26.0454 685.746 26.0259L685.756 27.5005C685.613 27.5461 685.424 27.5884 685.189 27.6274C684.962 27.673 684.685 27.6958 684.359 27.6958C683.917 27.6958 683.51 27.6079 683.139 27.4321C682.768 27.2563 682.471 26.9634 682.25 26.5532C682.035 26.1366 681.928 25.5767 681.928 24.8735V14.3657ZM692.211 27.6958C691.475 27.6958 690.808 27.5721 690.209 27.3247C689.617 27.0708 689.105 26.716 688.676 26.2603C688.253 25.8045 687.927 25.2642 687.699 24.6392C687.471 24.0142 687.357 23.3306 687.357 22.5884V22.1782C687.357 21.3188 687.484 20.5539 687.738 19.8833C687.992 19.2062 688.337 18.6333 688.773 18.1646C689.21 17.6958 689.704 17.341 690.258 17.1001C690.811 16.8592 691.384 16.7388 691.977 16.7388C692.732 16.7388 693.383 16.869 693.93 17.1294C694.483 17.3898 694.936 17.7544 695.287 18.2231C695.639 18.6854 695.899 19.2323 696.068 19.8638C696.238 20.4888 696.322 21.1724 696.322 21.9146V22.7251H688.432V21.2505H694.516V21.1138C694.49 20.645 694.392 20.1893 694.223 19.7466C694.06 19.3039 693.799 18.9393 693.441 18.6528C693.083 18.3664 692.595 18.2231 691.977 18.2231C691.566 18.2231 691.189 18.311 690.844 18.4868C690.499 18.6561 690.202 18.91 689.955 19.2485C689.708 19.5871 689.516 20.0005 689.379 20.4888C689.242 20.9771 689.174 21.5402 689.174 22.1782V22.5884C689.174 23.0897 689.242 23.5617 689.379 24.0044C689.522 24.4406 689.727 24.8247 689.994 25.1567C690.268 25.4888 690.596 25.7492 690.98 25.938C691.371 26.1268 691.814 26.2212 692.309 26.2212C692.947 26.2212 693.487 26.091 693.93 25.8306C694.372 25.5701 694.76 25.2218 695.092 24.7856L696.186 25.6548C695.958 25.9998 695.668 26.3286 695.316 26.6411C694.965 26.9536 694.532 27.2075 694.018 27.4028C693.51 27.5981 692.908 27.6958 692.211 27.6958ZM705.277 16.9341H706.918V27.2759C706.918 28.2069 706.729 29.0011 706.352 29.6587C705.974 30.3162 705.447 30.8143 704.77 31.1528C704.099 31.4979 703.324 31.6704 702.445 31.6704C702.081 31.6704 701.651 31.6118 701.156 31.4946C700.668 31.384 700.186 31.1919 699.711 30.9185C699.242 30.6515 698.848 30.2902 698.529 29.8345L699.477 28.7603C699.919 29.2941 700.382 29.6652 700.863 29.8735C701.352 30.0819 701.833 30.186 702.309 30.186C702.882 30.186 703.376 30.0786 703.793 29.8638C704.21 29.6489 704.532 29.3299 704.76 28.9067C704.994 28.4901 705.111 27.9757 705.111 27.3638V19.2583L705.277 16.9341ZM698.002 22.3345V22.1294C698.002 21.3221 698.096 20.5897 698.285 19.9321C698.48 19.2681 698.757 18.6984 699.115 18.2231C699.48 17.7479 699.919 17.3833 700.434 17.1294C700.948 16.869 701.527 16.7388 702.172 16.7388C702.836 16.7388 703.415 16.856 703.91 17.0903C704.411 17.3182 704.835 17.6535 705.18 18.0962C705.531 18.5324 705.808 19.0597 706.01 19.6782C706.212 20.2967 706.352 20.9966 706.43 21.7778V22.6763C706.358 23.451 706.218 24.1476 706.01 24.7661C705.808 25.3846 705.531 25.9119 705.18 26.3481C704.835 26.7843 704.411 27.1196 703.91 27.354C703.409 27.5819 702.823 27.6958 702.152 27.6958C701.521 27.6958 700.948 27.5623 700.434 27.2954C699.926 27.0285 699.49 26.6541 699.125 26.1724C698.76 25.6906 698.48 25.1242 698.285 24.4731C698.096 23.8156 698.002 23.1027 698.002 22.3345ZM699.809 22.1294V22.3345C699.809 22.8618 699.861 23.3566 699.965 23.8188C700.076 24.2811 700.242 24.688 700.463 25.0396C700.691 25.3911 700.98 25.6678 701.332 25.8696C701.684 26.0649 702.104 26.1626 702.592 26.1626C703.191 26.1626 703.686 26.0356 704.076 25.7817C704.467 25.5278 704.776 25.1925 705.004 24.7759C705.238 24.3592 705.421 23.9067 705.551 23.4185V21.0649C705.479 20.7069 705.368 20.3618 705.219 20.0298C705.076 19.6912 704.887 19.3918 704.652 19.1313C704.424 18.8644 704.141 18.6528 703.803 18.4966C703.464 18.3403 703.067 18.2622 702.611 18.2622C702.117 18.2622 701.69 18.3664 701.332 18.5747C700.98 18.7765 700.691 19.0565 700.463 19.4146C700.242 19.7661 700.076 20.1763 699.965 20.645C699.861 21.1073 699.809 21.6021 699.809 22.1294ZM709.184 22.3345V22.1099C709.184 21.3481 709.294 20.6418 709.516 19.9907C709.737 19.3332 710.056 18.7635 710.473 18.2817C710.889 17.7935 711.394 17.4159 711.986 17.1489C712.579 16.8755 713.243 16.7388 713.979 16.7388C714.721 16.7388 715.388 16.8755 715.98 17.1489C716.579 17.4159 717.087 17.7935 717.504 18.2817C717.927 18.7635 718.249 19.3332 718.471 19.9907C718.692 20.6418 718.803 21.3481 718.803 22.1099V22.3345C718.803 23.0962 718.692 23.8026 718.471 24.4536C718.249 25.1047 717.927 25.6743 717.504 26.1626C717.087 26.6444 716.583 27.022 715.99 27.2954C715.404 27.5623 714.74 27.6958 713.998 27.6958C713.256 27.6958 712.589 27.5623 711.996 27.2954C711.404 27.022 710.896 26.6444 710.473 26.1626C710.056 25.6743 709.737 25.1047 709.516 24.4536C709.294 23.8026 709.184 23.0962 709.184 22.3345ZM710.99 22.1099V22.3345C710.99 22.8618 711.052 23.3599 711.176 23.8286C711.299 24.2909 711.485 24.701 711.732 25.0591C711.986 25.4172 712.302 25.7004 712.68 25.9087C713.057 26.1105 713.497 26.2114 713.998 26.2114C714.493 26.2114 714.926 26.1105 715.297 25.9087C715.674 25.7004 715.987 25.4172 716.234 25.0591C716.482 24.701 716.667 24.2909 716.791 23.8286C716.921 23.3599 716.986 22.8618 716.986 22.3345V22.1099C716.986 21.589 716.921 21.0975 716.791 20.6353C716.667 20.1665 716.479 19.7531 716.225 19.395C715.977 19.0304 715.665 18.744 715.287 18.5356C714.916 18.3273 714.48 18.2231 713.979 18.2231C713.484 18.2231 713.048 18.3273 712.67 18.5356C712.299 18.744 711.986 19.0304 711.732 19.395C711.485 19.7531 711.299 20.1665 711.176 20.6353C711.052 21.0975 710.99 21.589 710.99 22.1099ZM722.875 18.5942V27.5005H721.068V16.9341H722.826L722.875 18.5942ZM726.176 16.8755L726.166 18.5552C726.016 18.5226 725.873 18.5031 725.736 18.4966C725.606 18.4836 725.456 18.4771 725.287 18.4771C724.87 18.4771 724.503 18.5422 724.184 18.6724C723.865 18.8026 723.594 18.9849 723.373 19.2192C723.152 19.4536 722.976 19.7336 722.846 20.0591C722.722 20.3781 722.641 20.7297 722.602 21.1138L722.094 21.4067C722.094 20.7687 722.156 20.1698 722.279 19.6099C722.41 19.05 722.608 18.5552 722.875 18.1255C723.142 17.6893 723.48 17.3507 723.891 17.1099C724.307 16.8625 724.802 16.7388 725.375 16.7388C725.505 16.7388 725.655 16.755 725.824 16.7876C725.993 16.8136 726.111 16.8429 726.176 16.8755ZM730.99 26.4067L733.93 16.9341H735.863L731.625 29.1313C731.527 29.3918 731.397 29.6717 731.234 29.9712C731.078 30.2772 730.876 30.5669 730.629 30.8403C730.382 31.1138 730.082 31.3351 729.73 31.5044C729.385 31.6802 728.972 31.7681 728.49 31.7681C728.347 31.7681 728.165 31.7485 727.943 31.7095C727.722 31.6704 727.566 31.6379 727.475 31.6118L727.465 30.147C727.517 30.1535 727.598 30.16 727.709 30.1665C727.826 30.1795 727.908 30.186 727.953 30.186C728.363 30.186 728.712 30.1307 728.998 30.02C729.285 29.9159 729.525 29.7368 729.721 29.4829C729.923 29.2355 730.095 28.8937 730.238 28.4575L730.99 26.4067ZM728.832 16.9341L731.576 25.1372L732.045 27.0415L730.746 27.7056L726.859 16.9341H728.832Z" fill="#686868"/>
<g clip-path="url(#clip2_17087_12991)">
<rect width="200" height="150" transform="translate(880 0.500488)" fill="#E3E3E3"/>
</g>
<path d="M1106.23 22.979H1108.11C1108.01 23.8774 1107.75 24.6815 1107.34 25.3911C1106.92 26.1007 1106.33 26.6639 1105.57 27.0806C1104.81 27.4907 1103.86 27.6958 1102.72 27.6958C1101.89 27.6958 1101.13 27.5396 1100.44 27.2271C1099.77 26.9146 1099.18 26.4718 1098.7 25.8989C1098.21 25.3195 1097.83 24.6261 1097.56 23.8188C1097.3 23.005 1097.17 22.1001 1097.17 21.104V19.688C1097.17 18.6919 1097.3 17.7902 1097.56 16.9829C1097.83 16.1691 1098.21 15.4725 1098.71 14.8931C1099.21 14.3136 1099.81 13.8677 1100.51 13.5552C1101.21 13.2427 1102.01 13.0864 1102.88 13.0864C1103.96 13.0864 1104.87 13.2882 1105.61 13.6919C1106.35 14.0955 1106.93 14.6554 1107.34 15.3716C1107.75 16.0812 1108.01 16.9048 1108.11 17.8423H1106.23C1106.14 17.1782 1105.97 16.6086 1105.73 16.1333C1105.48 15.6515 1105.13 15.2804 1104.67 15.02C1104.22 14.7596 1103.62 14.6294 1102.88 14.6294C1102.25 14.6294 1101.7 14.7498 1101.21 14.9907C1100.74 15.2316 1100.34 15.5734 1100.01 16.0161C1099.69 16.4588 1099.45 16.9894 1099.29 17.6079C1099.13 18.2264 1099.05 18.9132 1099.05 19.6685V21.104C1099.05 21.8006 1099.12 22.4549 1099.26 23.0669C1099.41 23.6789 1099.64 24.216 1099.94 24.6782C1100.24 25.1405 1100.62 25.505 1101.08 25.772C1101.54 26.0324 1102.09 26.1626 1102.72 26.1626C1103.52 26.1626 1104.16 26.0356 1104.63 25.7817C1105.11 25.5278 1105.47 25.1632 1105.71 24.688C1105.95 24.2127 1106.13 23.6431 1106.23 22.979ZM1116.63 25.6938V20.2544C1116.63 19.8377 1116.55 19.4764 1116.38 19.1704C1116.22 18.8579 1115.97 18.617 1115.64 18.4478C1115.31 18.2785 1114.9 18.1938 1114.41 18.1938C1113.95 18.1938 1113.55 18.272 1113.21 18.4282C1112.87 18.5845 1112.6 18.7896 1112.41 19.0435C1112.22 19.2974 1112.12 19.5708 1112.12 19.8638H1110.32C1110.32 19.4862 1110.41 19.1118 1110.61 18.7407C1110.8 18.3696 1111.08 18.0343 1111.45 17.7349C1111.82 17.4289 1112.26 17.188 1112.78 17.0122C1113.3 16.8299 1113.88 16.7388 1114.52 16.7388C1115.28 16.7388 1115.96 16.869 1116.55 17.1294C1117.14 17.3898 1117.6 17.7837 1117.93 18.311C1118.27 18.8319 1118.44 19.4862 1118.44 20.2739V25.1958C1118.44 25.5474 1118.47 25.9217 1118.53 26.3188C1118.59 26.716 1118.69 27.0578 1118.81 27.3442V27.5005H1116.93C1116.84 27.2922 1116.76 27.0155 1116.71 26.6704C1116.66 26.3188 1116.63 25.9933 1116.63 25.6938ZM1116.95 21.0942L1116.97 22.3638H1115.14C1114.63 22.3638 1114.17 22.4061 1113.76 22.4907C1113.36 22.5688 1113.02 22.6893 1112.75 22.8521C1112.47 23.0148 1112.27 23.2199 1112.12 23.4673C1111.98 23.7082 1111.91 23.9914 1111.91 24.3169C1111.91 24.6489 1111.98 24.9517 1112.13 25.2251C1112.28 25.4985 1112.51 25.7166 1112.81 25.8794C1113.11 26.0356 1113.49 26.1138 1113.93 26.1138C1114.48 26.1138 1114.97 25.9966 1115.39 25.7622C1115.82 25.5278 1116.15 25.2414 1116.4 24.9028C1116.65 24.5643 1116.79 24.2355 1116.81 23.9165L1117.58 24.7856C1117.54 25.0591 1117.41 25.3618 1117.21 25.6938C1117.01 26.0259 1116.74 26.3449 1116.4 26.6509C1116.07 26.9504 1115.67 27.201 1115.21 27.4028C1114.75 27.5981 1114.24 27.6958 1113.67 27.6958C1112.95 27.6958 1112.32 27.5558 1111.78 27.2759C1111.25 26.9959 1110.83 26.6216 1110.53 26.1528C1110.24 25.6776 1110.09 25.147 1110.09 24.561C1110.09 23.9946 1110.2 23.4966 1110.42 23.0669C1110.65 22.6307 1110.96 22.2694 1111.38 21.9829C1111.8 21.6899 1112.3 21.4686 1112.88 21.3188C1113.47 21.1691 1114.12 21.0942 1114.85 21.0942H1116.95ZM1125.71 16.9341V18.3208H1119.99V16.9341H1125.71ZM1121.93 14.3657H1123.73V24.8833C1123.73 25.2414 1123.79 25.5116 1123.9 25.6938C1124.01 25.8761 1124.15 25.9966 1124.33 26.0552C1124.51 26.1138 1124.69 26.1431 1124.9 26.1431C1125.05 26.1431 1125.2 26.13 1125.37 26.104C1125.53 26.0715 1125.66 26.0454 1125.75 26.0259L1125.76 27.5005C1125.61 27.5461 1125.42 27.5884 1125.19 27.6274C1124.96 27.673 1124.68 27.6958 1124.36 27.6958C1123.92 27.6958 1123.51 27.6079 1123.14 27.4321C1122.77 27.2563 1122.47 26.9634 1122.25 26.5532C1122.04 26.1366 1121.93 25.5767 1121.93 24.8735V14.3657ZM1132.21 27.6958C1131.48 27.6958 1130.81 27.5721 1130.21 27.3247C1129.62 27.0708 1129.11 26.716 1128.68 26.2603C1128.25 25.8045 1127.93 25.2642 1127.7 24.6392C1127.47 24.0142 1127.36 23.3306 1127.36 22.5884V22.1782C1127.36 21.3188 1127.48 20.5539 1127.74 19.8833C1127.99 19.2062 1128.34 18.6333 1128.77 18.1646C1129.21 17.6958 1129.7 17.341 1130.26 17.1001C1130.81 16.8592 1131.38 16.7388 1131.98 16.7388C1132.73 16.7388 1133.38 16.869 1133.93 17.1294C1134.48 17.3898 1134.94 17.7544 1135.29 18.2231C1135.64 18.6854 1135.9 19.2323 1136.07 19.8638C1136.24 20.4888 1136.32 21.1724 1136.32 21.9146V22.7251H1128.43V21.2505H1134.52V21.1138C1134.49 20.645 1134.39 20.1893 1134.22 19.7466C1134.06 19.3039 1133.8 18.9393 1133.44 18.6528C1133.08 18.3664 1132.6 18.2231 1131.98 18.2231C1131.57 18.2231 1131.19 18.311 1130.84 18.4868C1130.5 18.6561 1130.2 18.91 1129.96 19.2485C1129.71 19.5871 1129.52 20.0005 1129.38 20.4888C1129.24 20.9771 1129.17 21.5402 1129.17 22.1782V22.5884C1129.17 23.0897 1129.24 23.5617 1129.38 24.0044C1129.52 24.4406 1129.73 24.8247 1129.99 25.1567C1130.27 25.4888 1130.6 25.7492 1130.98 25.938C1131.37 26.1268 1131.81 26.2212 1132.31 26.2212C1132.95 26.2212 1133.49 26.091 1133.93 25.8306C1134.37 25.5701 1134.76 25.2218 1135.09 24.7856L1136.19 25.6548C1135.96 25.9998 1135.67 26.3286 1135.32 26.6411C1134.96 26.9536 1134.53 27.2075 1134.02 27.4028C1133.51 27.5981 1132.91 27.6958 1132.21 27.6958ZM1145.28 16.9341H1146.92V27.2759C1146.92 28.2069 1146.73 29.0011 1146.35 29.6587C1145.97 30.3162 1145.45 30.8143 1144.77 31.1528C1144.1 31.4979 1143.32 31.6704 1142.45 31.6704C1142.08 31.6704 1141.65 31.6118 1141.16 31.4946C1140.67 31.384 1140.19 31.1919 1139.71 30.9185C1139.24 30.6515 1138.85 30.2902 1138.53 29.8345L1139.48 28.7603C1139.92 29.2941 1140.38 29.6652 1140.86 29.8735C1141.35 30.0819 1141.83 30.186 1142.31 30.186C1142.88 30.186 1143.38 30.0786 1143.79 29.8638C1144.21 29.6489 1144.53 29.3299 1144.76 28.9067C1144.99 28.4901 1145.11 27.9757 1145.11 27.3638V19.2583L1145.28 16.9341ZM1138 22.3345V22.1294C1138 21.3221 1138.1 20.5897 1138.29 19.9321C1138.48 19.2681 1138.76 18.6984 1139.12 18.2231C1139.48 17.7479 1139.92 17.3833 1140.43 17.1294C1140.95 16.869 1141.53 16.7388 1142.17 16.7388C1142.84 16.7388 1143.42 16.856 1143.91 17.0903C1144.41 17.3182 1144.83 17.6535 1145.18 18.0962C1145.53 18.5324 1145.81 19.0597 1146.01 19.6782C1146.21 20.2967 1146.35 20.9966 1146.43 21.7778V22.6763C1146.36 23.451 1146.22 24.1476 1146.01 24.7661C1145.81 25.3846 1145.53 25.9119 1145.18 26.3481C1144.83 26.7843 1144.41 27.1196 1143.91 27.354C1143.41 27.5819 1142.82 27.6958 1142.15 27.6958C1141.52 27.6958 1140.95 27.5623 1140.43 27.2954C1139.93 27.0285 1139.49 26.6541 1139.12 26.1724C1138.76 25.6906 1138.48 25.1242 1138.29 24.4731C1138.1 23.8156 1138 23.1027 1138 22.3345ZM1139.81 22.1294V22.3345C1139.81 22.8618 1139.86 23.3566 1139.96 23.8188C1140.08 24.2811 1140.24 24.688 1140.46 25.0396C1140.69 25.3911 1140.98 25.6678 1141.33 25.8696C1141.68 26.0649 1142.1 26.1626 1142.59 26.1626C1143.19 26.1626 1143.69 26.0356 1144.08 25.7817C1144.47 25.5278 1144.78 25.1925 1145 24.7759C1145.24 24.3592 1145.42 23.9067 1145.55 23.4185V21.0649C1145.48 20.7069 1145.37 20.3618 1145.22 20.0298C1145.08 19.6912 1144.89 19.3918 1144.65 19.1313C1144.42 18.8644 1144.14 18.6528 1143.8 18.4966C1143.46 18.3403 1143.07 18.2622 1142.61 18.2622C1142.12 18.2622 1141.69 18.3664 1141.33 18.5747C1140.98 18.7765 1140.69 19.0565 1140.46 19.4146C1140.24 19.7661 1140.08 20.1763 1139.96 20.645C1139.86 21.1073 1139.81 21.6021 1139.81 22.1294ZM1149.18 22.3345V22.1099C1149.18 21.3481 1149.29 20.6418 1149.52 19.9907C1149.74 19.3332 1150.06 18.7635 1150.47 18.2817C1150.89 17.7935 1151.39 17.4159 1151.99 17.1489C1152.58 16.8755 1153.24 16.7388 1153.98 16.7388C1154.72 16.7388 1155.39 16.8755 1155.98 17.1489C1156.58 17.4159 1157.09 17.7935 1157.5 18.2817C1157.93 18.7635 1158.25 19.3332 1158.47 19.9907C1158.69 20.6418 1158.8 21.3481 1158.8 22.1099V22.3345C1158.8 23.0962 1158.69 23.8026 1158.47 24.4536C1158.25 25.1047 1157.93 25.6743 1157.5 26.1626C1157.09 26.6444 1156.58 27.022 1155.99 27.2954C1155.4 27.5623 1154.74 27.6958 1154 27.6958C1153.26 27.6958 1152.59 27.5623 1152 27.2954C1151.4 27.022 1150.9 26.6444 1150.47 26.1626C1150.06 25.6743 1149.74 25.1047 1149.52 24.4536C1149.29 23.8026 1149.18 23.0962 1149.18 22.3345ZM1150.99 22.1099V22.3345C1150.99 22.8618 1151.05 23.3599 1151.18 23.8286C1151.3 24.2909 1151.49 24.701 1151.73 25.0591C1151.99 25.4172 1152.3 25.7004 1152.68 25.9087C1153.06 26.1105 1153.5 26.2114 1154 26.2114C1154.49 26.2114 1154.93 26.1105 1155.3 25.9087C1155.67 25.7004 1155.99 25.4172 1156.23 25.0591C1156.48 24.701 1156.67 24.2909 1156.79 23.8286C1156.92 23.3599 1156.99 22.8618 1156.99 22.3345V22.1099C1156.99 21.589 1156.92 21.0975 1156.79 20.6353C1156.67 20.1665 1156.48 19.7531 1156.22 19.395C1155.98 19.0304 1155.66 18.744 1155.29 18.5356C1154.92 18.3273 1154.48 18.2231 1153.98 18.2231C1153.48 18.2231 1153.05 18.3273 1152.67 18.5356C1152.3 18.744 1151.99 19.0304 1151.73 19.395C1151.49 19.7531 1151.3 20.1665 1151.18 20.6353C1151.05 21.0975 1150.99 21.589 1150.99 22.1099ZM1162.88 18.5942V27.5005H1161.07V16.9341H1162.83L1162.88 18.5942ZM1166.18 16.8755L1166.17 18.5552C1166.02 18.5226 1165.87 18.5031 1165.74 18.4966C1165.61 18.4836 1165.46 18.4771 1165.29 18.4771C1164.87 18.4771 1164.5 18.5422 1164.18 18.6724C1163.86 18.8026 1163.59 18.9849 1163.37 19.2192C1163.15 19.4536 1162.98 19.7336 1162.85 20.0591C1162.72 20.3781 1162.64 20.7297 1162.6 21.1138L1162.09 21.4067C1162.09 20.7687 1162.16 20.1698 1162.28 19.6099C1162.41 19.05 1162.61 18.5552 1162.88 18.1255C1163.14 17.6893 1163.48 17.3507 1163.89 17.1099C1164.31 16.8625 1164.8 16.7388 1165.38 16.7388C1165.51 16.7388 1165.65 16.755 1165.82 16.7876C1165.99 16.8136 1166.11 16.8429 1166.18 16.8755ZM1170.99 26.4067L1173.93 16.9341H1175.86L1171.62 29.1313C1171.53 29.3918 1171.4 29.6717 1171.23 29.9712C1171.08 30.2772 1170.88 30.5669 1170.63 30.8403C1170.38 31.1138 1170.08 31.3351 1169.73 31.5044C1169.39 31.6802 1168.97 31.7681 1168.49 31.7681C1168.35 31.7681 1168.16 31.7485 1167.94 31.7095C1167.72 31.6704 1167.57 31.6379 1167.47 31.6118L1167.46 30.147C1167.52 30.1535 1167.6 30.16 1167.71 30.1665C1167.83 30.1795 1167.91 30.186 1167.95 30.186C1168.36 30.186 1168.71 30.1307 1169 30.02C1169.28 29.9159 1169.53 29.7368 1169.72 29.4829C1169.92 29.2355 1170.1 28.8937 1170.24 28.4575L1170.99 26.4067ZM1168.83 16.9341L1171.58 25.1372L1172.04 27.0415L1170.75 27.7056L1166.86 16.9341H1168.83Z" fill="#686868"/>
<defs>
<clipPath id="clip0_17087_12991">
<rect width="200" height="150" fill="white" transform="translate(0 0.500488)"/>
</clipPath>
<clipPath id="clip1_17087_12991">
<rect width="200" height="150" fill="white" transform="translate(440 0.500488)"/>
</clipPath>
<clipPath id="clip2_17087_12991">
<rect width="200" height="150" fill="white" transform="translate(880 0.500488)"/>
</clipPath>
</defs>
</svg>
