<svg width="98" height="40" viewBox="0 0 98 40" fill="none" xmlns="http://www.w3.org/2000/svg">
<g clip-path="url(#clip0_30648_2233)">
<path d="M86.3547 8.61607L84.2943 10.6696C82.8163 9.64286 81.0695 9.01786 79.0987 9.01786C73.7687 9.01786 69.872 13.0804 69.872 18.7054C69.872 24.1964 73.8583 28.3929 79.0987 28.3929C79.1883 28.3929 79.2331 28.3929 79.3227 28.3929C79.3227 28.3929 79.9945 28.3929 80.6216 28.5268C81.0695 28.5714 81.5174 28.7054 81.7861 28.8393C83.5329 29.5982 83.936 31.2946 83.9808 32.0982C84.0256 34.0625 81.7413 35.5804 79.0539 35.5804C76.6801 35.5804 73.8135 34.8661 73.8135 31.3393H69.7824C69.7824 36.6964 73.3208 40 79.0539 40C83.8912 40 87.7431 36.9196 88.191 32.6339C88.415 30.5357 87.4296 27.8571 85.2349 26.0268C87.0713 24.2857 88.191 21.7411 88.191 18.75C88.191 17.0536 87.8327 15.4464 87.1609 14.0625L89.4899 11.7411L86.3547 8.61607ZM79.0539 23.9732C76.4561 23.9732 74.2614 22.0536 74.2614 18.75C74.2614 15.2232 76.4561 13.4821 79.0539 13.4821C81.6517 13.4821 83.7569 15.5357 83.7569 18.75C83.7569 22.0089 81.6517 23.9732 79.0539 23.9732ZM64.4525 11.7857C63.6463 10.9375 62.7057 10.2679 61.5411 9.82143C60.4214 9.375 59.1673 9.10714 57.8684 9.10714C56.5247 9.10714 55.3154 9.33036 54.1956 9.82143C53.0759 10.2679 52.1353 10.9375 51.2843 11.7857C50.4781 12.6339 49.851 13.6607 49.4031 14.8661C48.9552 16.0714 48.7313 17.4107 48.7313 18.8839C48.7313 20.3571 48.9552 21.6964 49.4031 22.9464C49.851 24.1518 50.4781 25.1786 51.2843 26.0714C52.0905 26.9196 53.0311 27.5893 54.1508 28.0804C55.2706 28.5714 56.5247 28.7946 57.8684 28.7946C59.2121 28.7946 60.4662 28.5714 61.5859 28.0804C62.7057 27.5893 63.691 26.9196 64.4973 26.0714C65.3035 25.2232 65.9305 24.1964 66.3336 22.9464C66.7815 21.7411 67.0055 20.4018 67.0055 18.8839C67.0055 17.4107 66.7815 16.0714 66.3336 14.8661C65.8857 13.6607 65.2587 12.6339 64.4525 11.7857ZM62.1682 21.4732C61.9442 22.1429 61.6307 22.6786 61.2276 23.0804C60.8693 23.4821 60.4214 23.7946 59.8391 24.0179C59.2569 24.2411 58.6298 24.375 57.8684 24.375C57.1069 24.375 56.4799 24.2411 55.9424 24.0179C55.4049 23.7946 54.957 23.4821 54.5539 23.0804C54.1508 22.6339 53.8373 22.0982 53.5686 21.4286C53.2998 20.7143 53.1654 19.8214 53.1654 18.8839C53.1654 17.9464 53.2998 17.0536 53.5686 16.3393C53.8373 15.6696 54.1508 15.1339 54.5539 14.7321C54.957 14.3304 55.4049 14.0179 55.9424 13.7946C56.5247 13.5714 57.1517 13.4375 57.9132 13.4375C58.6746 13.4375 59.3016 13.5714 59.8839 13.7946C60.4214 14.0179 60.8693 14.3304 61.2276 14.6875C61.6307 15.1339 61.9442 15.6696 62.213 16.3393C62.4817 17.0536 62.6161 17.9018 62.6161 18.8839C62.5713 19.8661 62.4369 20.7589 62.1682 21.4732ZM11.287 24.2411L12.0037 27.7679C11.511 27.9911 10.7943 28.2143 9.98812 28.4375C9.13711 28.6607 8.19653 28.7946 7.03199 28.7946C5.64351 28.7946 4.52377 28.6161 3.58318 28.2589C2.68739 27.9018 1.92596 27.3661 1.38848 26.6518C0.851005 25.9375 0.492687 25.1339 0.268739 24.1071C0.0895795 23.125 0 21.9643 0 20.7143V4.15179L4.43419 3.4375V9.24107H11.2422V12.9464H4.43419V20.7589C4.43419 22.2768 4.65814 23.3929 5.15082 24.0625C5.64351 24.7321 6.44973 25.0446 7.65905 25.0446C8.46526 25.0446 9.1819 24.9554 9.80896 24.7768C10.436 24.5536 10.9287 24.375 11.287 24.2411ZM26.5155 9.01786C26.8739 9.10714 27.1874 9.19643 27.4113 9.24107L26.6499 12.9911C26.2916 12.8571 25.7541 12.7232 25.1271 12.5893C24.4552 12.4554 23.7386 12.3661 22.8428 12.3661C22.3501 12.3661 21.8126 12.4107 21.2751 12.5C20.7377 12.5893 20.3346 12.6786 20.1106 12.7679V28.2143H15.6764V9.95536C16.5274 9.64286 17.6024 9.33036 18.9013 9.0625C20.2002 8.79464 21.6335 8.66071 23.2011 8.66071C23.5146 8.66071 23.8282 8.66071 24.2313 8.70536C24.6344 8.75 25.0375 8.79464 25.3958 8.83929C25.7541 8.88393 26.1572 8.97321 26.5155 9.01786ZM34.5777 1.5625C35.1152 2.05357 35.3839 2.72321 35.3839 3.61607C35.3839 4.46429 35.1152 5.13393 34.5777 5.625C34.0402 6.11607 33.3684 6.38393 32.6517 6.38393C31.8903 6.38393 31.2185 6.11607 30.681 5.625C30.1435 5.13393 29.8748 4.46429 29.8748 3.61607C29.8748 2.76786 30.1435 2.05357 30.681 1.5625C31.2185 1.07143 31.8903 0.803571 32.6517 0.803571C33.3684 0.803571 33.9954 1.07143 34.5777 1.5625ZM30.3227 9.10714H34.8912V28.3036H30.3227V9.10714ZM46.3574 24.7768C46.7157 24.9107 47.2084 25 47.7907 25.0893L47.1636 28.75C45.8199 28.7054 44.745 28.5714 43.894 28.3036C43.043 28.0357 42.3263 27.6339 41.8336 27.1429C41.3409 26.6518 40.9378 26.0268 40.7587 25.2679C40.5795 24.5089 40.4452 23.6607 40.4452 22.7232V0.714286L44.8793 0V21.9196C44.8793 22.4554 44.9241 22.9018 45.0137 23.2589C45.1033 23.6161 45.2377 23.9286 45.4616 24.1964C45.6856 24.4643 45.9991 24.6429 46.3574 24.7768ZM97.1938 1.5625C97.7313 2.05357 98 2.72321 98 3.61607C98 4.46429 97.7313 5.13393 97.1938 5.625C96.6563 6.11607 95.9845 6.38393 95.2678 6.38393C94.5064 6.38393 93.8345 6.11607 93.2971 5.625C92.7596 5.13393 92.4909 4.46429 92.4909 3.61607C92.4909 2.76786 92.7596 2.05357 93.2971 1.5625C93.8345 1.07143 94.5064 0.803571 95.2678 0.803571C95.9845 0.803571 96.6115 1.07143 97.1938 1.5625ZM92.9388 9.10714H97.5073V28.3036H92.9388V9.10714Z" fill="white"/>
</g>
<defs>
<clipPath id="clip0_30648_2233">
<rect width="98" height="40" fill="white"/>
</clipPath>
</defs>
</svg>
