<svg width="1500" height="116" viewBox="0 0 1500 116" fill="none" xmlns="http://www.w3.org/2000/svg">
<rect width="1500" height="116" fill="white"/>
<rect width="1500" height="28" fill="#F4F4F4"/>
<path d="M541.205 14L545.205 18L544.5 18.705L539.795 14L544.5 9.29504L545.205 10L541.205 14Z" fill="#686868"/>
<path d="M680.349 9.04688H681.627L684.888 17.1611L688.142 9.04688H689.427L685.38 19H684.382L680.349 9.04688ZM679.932 9.04688H681.06L681.244 15.1172V19H679.932V9.04688ZM688.709 9.04688H689.837V19H688.524V15.1172L688.709 9.04688ZM695.032 19.1367C694.517 19.1367 694.05 19.0501 693.631 18.877C693.216 18.6992 692.858 18.4508 692.558 18.1318C692.261 17.8128 692.034 17.4346 691.874 16.9971C691.715 16.5596 691.635 16.0811 691.635 15.5615V15.2744C691.635 14.6729 691.724 14.1374 691.901 13.668C692.079 13.194 692.321 12.793 692.626 12.4648C692.931 12.1367 693.278 11.8883 693.665 11.7197C694.052 11.5511 694.453 11.4668 694.868 11.4668C695.397 11.4668 695.853 11.5579 696.235 11.7402C696.623 11.9225 696.939 12.1777 697.186 12.5059C697.432 12.8294 697.614 13.2122 697.732 13.6543C697.851 14.0918 697.91 14.5703 697.91 15.0898V15.6572H692.387V14.625H696.646V14.5293C696.627 14.2012 696.559 13.8822 696.44 13.5723C696.326 13.2624 696.144 13.0072 695.894 12.8066C695.643 12.6061 695.301 12.5059 694.868 12.5059C694.581 12.5059 694.317 12.5674 694.075 12.6904C693.834 12.8089 693.626 12.9867 693.453 13.2236C693.28 13.4606 693.146 13.75 693.05 14.0918C692.954 14.4336 692.906 14.8278 692.906 15.2744V15.5615C692.906 15.9124 692.954 16.2428 693.05 16.5527C693.15 16.8581 693.294 17.127 693.48 17.3594C693.672 17.5918 693.902 17.7741 694.171 17.9062C694.444 18.0384 694.754 18.1045 695.101 18.1045C695.547 18.1045 695.925 18.0133 696.235 17.8311C696.545 17.6488 696.816 17.4049 697.049 17.0996L697.814 17.708C697.655 17.9495 697.452 18.1797 697.206 18.3984C696.96 18.6172 696.657 18.7949 696.297 18.9316C695.941 19.0684 695.52 19.1367 695.032 19.1367ZM700.651 13.1826V19H699.387V11.6035H700.583L700.651 13.1826ZM700.351 15.0215L699.824 15.001C699.829 14.4951 699.904 14.028 700.05 13.5996C700.196 13.1667 700.401 12.7907 700.665 12.4717C700.929 12.1527 701.244 11.9066 701.608 11.7334C701.978 11.5557 702.385 11.4668 702.832 11.4668C703.197 11.4668 703.525 11.5169 703.816 11.6172C704.108 11.7129 704.356 11.8678 704.562 12.082C704.771 12.2962 704.931 12.5742 705.04 12.916C705.149 13.2533 705.204 13.6657 705.204 14.1533V19H703.933V14.1396C703.933 13.7523 703.876 13.4424 703.762 13.21C703.648 12.973 703.481 12.8021 703.263 12.6973C703.044 12.5879 702.775 12.5332 702.456 12.5332C702.142 12.5332 701.854 12.5993 701.595 12.7314C701.34 12.8636 701.118 13.0459 700.932 13.2783C700.749 13.5107 700.606 13.7773 700.501 14.0781C700.401 14.3743 700.351 14.6888 700.351 15.0215ZM711.432 17.0381C711.432 16.8558 711.391 16.6872 711.309 16.5322C711.231 16.3727 711.069 16.2292 710.823 16.1016C710.582 15.9694 710.217 15.8555 709.729 15.7598C709.319 15.6732 708.948 15.5706 708.615 15.4521C708.287 15.3337 708.007 15.1901 707.774 15.0215C707.547 14.8529 707.371 14.6546 707.248 14.4268C707.125 14.1989 707.063 13.9323 707.063 13.627C707.063 13.3353 707.127 13.0596 707.255 12.7998C707.387 12.54 707.572 12.3099 707.809 12.1094C708.05 11.9089 708.34 11.7516 708.677 11.6377C709.014 11.5238 709.39 11.4668 709.805 11.4668C710.397 11.4668 710.903 11.5716 711.322 11.7812C711.742 11.9909 712.063 12.2712 712.286 12.6221C712.509 12.9684 712.621 13.3535 712.621 13.7773H711.356C711.356 13.5723 711.295 13.374 711.172 13.1826C711.053 12.9867 710.878 12.8249 710.646 12.6973C710.418 12.5697 710.137 12.5059 709.805 12.5059C709.454 12.5059 709.169 12.5605 708.95 12.6699C708.736 12.7747 708.579 12.9092 708.479 13.0732C708.383 13.2373 708.335 13.4105 708.335 13.5928C708.335 13.7295 708.358 13.8525 708.403 13.9619C708.453 14.0667 708.54 14.1647 708.663 14.2559C708.786 14.3424 708.959 14.4245 709.183 14.502C709.406 14.5794 709.691 14.6569 710.037 14.7344C710.643 14.8711 711.142 15.0352 711.534 15.2266C711.926 15.418 712.218 15.6527 712.409 15.9307C712.601 16.2087 712.696 16.5459 712.696 16.9424C712.696 17.266 712.628 17.5622 712.491 17.8311C712.359 18.0999 712.165 18.3324 711.91 18.5283C711.66 18.7197 711.359 18.8701 711.008 18.9795C710.661 19.0843 710.272 19.1367 709.839 19.1367C709.187 19.1367 708.636 19.0205 708.185 18.7881C707.733 18.5557 707.392 18.2549 707.159 17.8857C706.927 17.5166 706.811 17.127 706.811 16.7168H708.082C708.1 17.0632 708.201 17.3389 708.383 17.5439C708.565 17.7445 708.788 17.888 709.053 17.9746C709.317 18.0566 709.579 18.0977 709.839 18.0977C710.185 18.0977 710.475 18.0521 710.707 17.9609C710.944 17.8698 711.124 17.7445 711.247 17.585C711.37 17.4255 711.432 17.2432 711.432 17.0381ZM718.719 17.7354V13.9277C718.719 13.6361 718.66 13.3831 718.541 13.1689C718.427 12.9502 718.254 12.7816 718.021 12.6631C717.789 12.5446 717.502 12.4854 717.16 12.4854C716.841 12.4854 716.561 12.54 716.319 12.6494C716.082 12.7588 715.896 12.9023 715.759 13.0801C715.627 13.2578 715.561 13.4492 715.561 13.6543H714.296C714.296 13.39 714.364 13.1279 714.501 12.8682C714.638 12.6084 714.834 12.3737 715.089 12.1641C715.349 11.9499 715.659 11.7812 716.019 11.6582C716.383 11.5306 716.789 11.4668 717.235 11.4668C717.773 11.4668 718.247 11.5579 718.657 11.7402C719.072 11.9225 719.396 12.1982 719.628 12.5674C719.865 12.932 719.983 13.39 719.983 13.9414V17.3867C719.983 17.6328 720.004 17.8949 720.045 18.1729C720.09 18.4508 720.157 18.6901 720.243 18.8906V19H718.924C718.86 18.8542 718.81 18.6605 718.773 18.4189C718.737 18.1729 718.719 17.945 718.719 17.7354ZM718.938 14.5156L718.951 15.4043H717.673C717.313 15.4043 716.992 15.4339 716.709 15.4932C716.426 15.5479 716.189 15.6322 715.998 15.7461C715.807 15.86 715.661 16.0036 715.561 16.1768C715.46 16.3454 715.41 16.5436 715.41 16.7715C715.41 17.0039 715.463 17.2158 715.567 17.4072C715.672 17.5986 715.829 17.7513 716.039 17.8652C716.253 17.9746 716.515 18.0293 716.825 18.0293C717.213 18.0293 717.554 17.9473 717.851 17.7832C718.147 17.6191 718.382 17.4186 718.555 17.1816C718.732 16.9447 718.828 16.7145 718.842 16.4912L719.382 17.0996C719.35 17.291 719.263 17.5029 719.122 17.7354C718.981 17.9678 718.792 18.1911 718.555 18.4053C718.322 18.6149 718.044 18.7904 717.721 18.9316C717.402 19.0684 717.042 19.1367 716.641 19.1367C716.139 19.1367 715.7 19.0387 715.321 18.8428C714.948 18.6468 714.656 18.3848 714.446 18.0566C714.241 17.724 714.139 17.3525 714.139 16.9424C714.139 16.5459 714.216 16.1973 714.371 15.8965C714.526 15.5911 714.749 15.3382 715.041 15.1377C715.333 14.9326 715.684 14.7777 716.094 14.6729C716.504 14.568 716.962 14.5156 717.468 14.5156H718.938ZM722.007 11.6035H723.278V19.8818C723.278 20.333 723.205 20.7158 723.06 21.0303C722.918 21.3447 722.704 21.5817 722.417 21.7412C722.134 21.9053 721.777 21.9873 721.344 21.9873C721.23 21.9873 721.098 21.9759 720.947 21.9531C720.792 21.9303 720.662 21.903 720.558 21.8711L720.564 20.8525C720.651 20.8708 720.749 20.8844 720.858 20.8936C720.968 20.9072 721.063 20.9141 721.146 20.9141C721.332 20.9141 721.49 20.8799 721.617 20.8115C721.745 20.7432 721.84 20.6338 721.904 20.4834C721.973 20.333 722.007 20.1325 722.007 19.8818V11.6035ZM721.877 9.6416C721.877 9.43652 721.941 9.26335 722.068 9.12207C722.196 8.98079 722.381 8.91016 722.622 8.91016C722.868 8.91016 723.055 8.98079 723.183 9.12207C723.31 9.26335 723.374 9.43652 723.374 9.6416C723.374 9.83757 723.31 10.0062 723.183 10.1475C723.055 10.2842 722.868 10.3525 722.622 10.3525C722.381 10.3525 722.196 10.2842 722.068 10.1475C721.941 10.0062 721.877 9.83757 721.877 9.6416ZM728.392 19.1367C727.877 19.1367 727.41 19.0501 726.99 18.877C726.576 18.6992 726.218 18.4508 725.917 18.1318C725.621 17.8128 725.393 17.4346 725.233 16.9971C725.074 16.5596 724.994 16.0811 724.994 15.5615V15.2744C724.994 14.6729 725.083 14.1374 725.261 13.668C725.438 13.194 725.68 12.793 725.985 12.4648C726.291 12.1367 726.637 11.8883 727.024 11.7197C727.412 11.5511 727.813 11.4668 728.228 11.4668C728.756 11.4668 729.212 11.5579 729.595 11.7402C729.982 11.9225 730.299 12.1777 730.545 12.5059C730.791 12.8294 730.973 13.2122 731.092 13.6543C731.21 14.0918 731.27 14.5703 731.27 15.0898V15.6572H725.746V14.625H730.005V14.5293C729.987 14.2012 729.918 13.8822 729.8 13.5723C729.686 13.2624 729.504 13.0072 729.253 12.8066C729.002 12.6061 728.66 12.5059 728.228 12.5059C727.94 12.5059 727.676 12.5674 727.435 12.6904C727.193 12.8089 726.986 12.9867 726.812 13.2236C726.639 13.4606 726.505 13.75 726.409 14.0918C726.313 14.4336 726.266 14.8278 726.266 15.2744V15.5615C726.266 15.9124 726.313 16.2428 726.409 16.5527C726.509 16.8581 726.653 17.127 726.84 17.3594C727.031 17.5918 727.261 17.7741 727.53 17.9062C727.804 18.0384 728.114 18.1045 728.46 18.1045C728.907 18.1045 729.285 18.0133 729.595 17.8311C729.905 17.6488 730.176 17.4049 730.408 17.0996L731.174 17.708C731.014 17.9495 730.812 18.1797 730.565 18.3984C730.319 18.6172 730.016 18.7949 729.656 18.9316C729.301 19.0684 728.879 19.1367 728.392 19.1367ZM740.881 17.5645V8.5H742.152V19H740.99L740.881 17.5645ZM735.904 15.3838V15.2402C735.904 14.6751 735.973 14.1624 736.109 13.7021C736.251 13.2373 736.449 12.8385 736.704 12.5059C736.964 12.1732 737.271 11.918 737.627 11.7402C737.987 11.5579 738.388 11.4668 738.83 11.4668C739.295 11.4668 739.701 11.5488 740.047 11.7129C740.398 11.8724 740.694 12.1071 740.936 12.417C741.182 12.7223 741.375 13.0915 741.517 13.5244C741.658 13.9574 741.756 14.4473 741.811 14.9941V15.623C741.76 16.1654 741.662 16.653 741.517 17.0859C741.375 17.5189 741.182 17.888 740.936 18.1934C740.694 18.4987 740.398 18.7334 740.047 18.8975C739.696 19.057 739.286 19.1367 738.816 19.1367C738.383 19.1367 737.987 19.0433 737.627 18.8564C737.271 18.6696 736.964 18.4076 736.704 18.0703C736.449 17.7331 736.251 17.3366 736.109 16.8809C735.973 16.4206 735.904 15.9215 735.904 15.3838ZM737.176 15.2402V15.3838C737.176 15.7529 737.212 16.0993 737.285 16.4229C737.363 16.7464 737.481 17.0312 737.641 17.2773C737.8 17.5234 738.003 17.7171 738.249 17.8584C738.495 17.9951 738.789 18.0635 739.131 18.0635C739.55 18.0635 739.894 17.9746 740.163 17.7969C740.437 17.6191 740.655 17.3844 740.819 17.0928C740.983 16.8011 741.111 16.4844 741.202 16.1426V14.4951C741.147 14.2445 741.068 14.0029 740.963 13.7705C740.863 13.5335 740.73 13.3239 740.566 13.1416C740.407 12.9548 740.209 12.8066 739.972 12.6973C739.739 12.5879 739.464 12.5332 739.145 12.5332C738.798 12.5332 738.5 12.6061 738.249 12.752C738.003 12.8932 737.8 13.0892 737.641 13.3398C737.481 13.5859 737.363 13.873 737.285 14.2012C737.212 14.5247 737.176 14.8711 737.176 15.2402ZM747.19 19.1367C746.675 19.1367 746.208 19.0501 745.789 18.877C745.374 18.6992 745.017 18.4508 744.716 18.1318C744.42 17.8128 744.192 17.4346 744.032 16.9971C743.873 16.5596 743.793 16.0811 743.793 15.5615V15.2744C743.793 14.6729 743.882 14.1374 744.06 13.668C744.237 13.194 744.479 12.793 744.784 12.4648C745.09 12.1367 745.436 11.8883 745.823 11.7197C746.211 11.5511 746.612 11.4668 747.026 11.4668C747.555 11.4668 748.011 11.5579 748.394 11.7402C748.781 11.9225 749.098 12.1777 749.344 12.5059C749.59 12.8294 749.772 13.2122 749.891 13.6543C750.009 14.0918 750.068 14.5703 750.068 15.0898V15.6572H744.545V14.625H748.804V14.5293C748.785 14.2012 748.717 13.8822 748.599 13.5723C748.485 13.2624 748.302 13.0072 748.052 12.8066C747.801 12.6061 747.459 12.5059 747.026 12.5059C746.739 12.5059 746.475 12.5674 746.233 12.6904C745.992 12.8089 745.785 12.9867 745.611 13.2236C745.438 13.4606 745.304 13.75 745.208 14.0918C745.112 14.4336 745.064 14.8278 745.064 15.2744V15.5615C745.064 15.9124 745.112 16.2428 745.208 16.5527C745.308 16.8581 745.452 17.127 745.639 17.3594C745.83 17.5918 746.06 17.7741 746.329 17.9062C746.603 18.0384 746.912 18.1045 747.259 18.1045C747.705 18.1045 748.084 18.0133 748.394 17.8311C748.703 17.6488 748.975 17.4049 749.207 17.0996L749.973 17.708C749.813 17.9495 749.61 18.1797 749.364 18.3984C749.118 18.6172 748.815 18.7949 748.455 18.9316C748.1 19.0684 747.678 19.1367 747.19 19.1367ZM756.282 13.0254V21.8438H755.011V11.6035H756.173L756.282 13.0254ZM761.266 15.2402V15.3838C761.266 15.9215 761.202 16.4206 761.074 16.8809C760.947 17.3366 760.76 17.7331 760.514 18.0703C760.272 18.4076 759.974 18.6696 759.618 18.8564C759.263 19.0433 758.855 19.1367 758.395 19.1367C757.925 19.1367 757.51 19.0592 757.15 18.9043C756.79 18.7493 756.485 18.5238 756.234 18.2275C755.984 17.9313 755.783 17.5758 755.633 17.1611C755.487 16.7464 755.387 16.2793 755.332 15.7598V14.9941C755.387 14.4473 755.489 13.9574 755.64 13.5244C755.79 13.0915 755.988 12.7223 756.234 12.417C756.485 12.1071 756.788 11.8724 757.144 11.7129C757.499 11.5488 757.909 11.4668 758.374 11.4668C758.839 11.4668 759.251 11.5579 759.611 11.7402C759.971 11.918 760.274 12.1732 760.521 12.5059C760.767 12.8385 760.951 13.2373 761.074 13.7021C761.202 14.1624 761.266 14.6751 761.266 15.2402ZM759.994 15.3838V15.2402C759.994 14.8711 759.955 14.5247 759.878 14.2012C759.8 13.873 759.68 13.5859 759.516 13.3398C759.356 13.0892 759.151 12.8932 758.9 12.752C758.65 12.6061 758.351 12.5332 758.005 12.5332C757.686 12.5332 757.408 12.5879 757.171 12.6973C756.938 12.8066 756.74 12.9548 756.576 13.1416C756.412 13.3239 756.278 13.5335 756.173 13.7705C756.073 14.0029 755.997 14.2445 755.947 14.4951V16.2656C756.038 16.5846 756.166 16.8854 756.33 17.168C756.494 17.446 756.713 17.6715 756.986 17.8447C757.26 18.0133 757.604 18.0977 758.019 18.0977C758.36 18.0977 758.654 18.027 758.9 17.8857C759.151 17.7399 759.356 17.5417 759.516 17.291C759.68 17.0404 759.8 16.7533 759.878 16.4297C759.955 16.1016 759.994 15.7529 759.994 15.3838ZM764.144 12.7656V19H762.879V11.6035H764.109L764.144 12.7656ZM766.454 11.5625L766.447 12.7383C766.342 12.7155 766.242 12.7018 766.146 12.6973C766.055 12.6882 765.951 12.6836 765.832 12.6836C765.54 12.6836 765.283 12.7292 765.06 12.8203C764.836 12.9115 764.647 13.0391 764.492 13.2031C764.337 13.3672 764.214 13.5632 764.123 13.791C764.036 14.0143 763.979 14.2604 763.952 14.5293L763.597 14.7344C763.597 14.2878 763.64 13.8685 763.727 13.4766C763.818 13.0846 763.957 12.7383 764.144 12.4375C764.33 12.1322 764.567 11.8952 764.854 11.7266C765.146 11.5534 765.493 11.4668 765.894 11.4668C765.985 11.4668 766.09 11.4782 766.208 11.501C766.326 11.5192 766.409 11.5397 766.454 11.5625ZM767.151 15.3838V15.2266C767.151 14.6934 767.229 14.1989 767.384 13.7432C767.539 13.2829 767.762 12.8841 768.054 12.5469C768.345 12.2051 768.699 11.9408 769.113 11.7539C769.528 11.5625 769.993 11.4668 770.508 11.4668C771.027 11.4668 771.494 11.5625 771.909 11.7539C772.328 11.9408 772.684 12.2051 772.976 12.5469C773.272 12.8841 773.497 13.2829 773.652 13.7432C773.807 14.1989 773.885 14.6934 773.885 15.2266V15.3838C773.885 15.917 773.807 16.4115 773.652 16.8672C773.497 17.3229 773.272 17.7217 772.976 18.0635C772.684 18.4007 772.331 18.665 771.916 18.8564C771.506 19.0433 771.041 19.1367 770.521 19.1367C770.002 19.1367 769.535 19.0433 769.12 18.8564C768.705 18.665 768.35 18.4007 768.054 18.0635C767.762 17.7217 767.539 17.3229 767.384 16.8672C767.229 16.4115 767.151 15.917 767.151 15.3838ZM768.416 15.2266V15.3838C768.416 15.7529 768.459 16.1016 768.546 16.4297C768.632 16.7533 768.762 17.0404 768.936 17.291C769.113 17.5417 769.334 17.7399 769.599 17.8857C769.863 18.027 770.171 18.0977 770.521 18.0977C770.868 18.0977 771.171 18.027 771.431 17.8857C771.695 17.7399 771.914 17.5417 772.087 17.291C772.26 17.0404 772.39 16.7533 772.477 16.4297C772.568 16.1016 772.613 15.7529 772.613 15.3838V15.2266C772.613 14.862 772.568 14.5179 772.477 14.1943C772.39 13.8662 772.258 13.5768 772.08 13.3262C771.907 13.071 771.688 12.8704 771.424 12.7246C771.164 12.5788 770.859 12.5059 770.508 12.5059C770.161 12.5059 769.856 12.5788 769.592 12.7246C769.332 12.8704 769.113 13.071 768.936 13.3262C768.762 13.5768 768.632 13.8662 768.546 14.1943C768.459 14.5179 768.416 14.862 768.416 15.2266ZM776.729 13.0732V19H775.457V11.6035H776.66L776.729 13.0732ZM776.469 15.0215L775.881 15.001C775.885 14.4951 775.951 14.028 776.079 13.5996C776.207 13.1667 776.396 12.7907 776.646 12.4717C776.897 12.1527 777.209 11.9066 777.583 11.7334C777.957 11.5557 778.39 11.4668 778.882 11.4668C779.228 11.4668 779.547 11.5169 779.839 11.6172C780.131 11.7129 780.383 11.8656 780.598 12.0752C780.812 12.2848 780.978 12.5537 781.097 12.8818C781.215 13.21 781.274 13.6064 781.274 14.0713V19H780.01V14.1328C780.01 13.7454 779.944 13.4355 779.812 13.2031C779.684 12.9707 779.502 12.8021 779.265 12.6973C779.028 12.5879 778.75 12.5332 778.431 12.5332C778.057 12.5332 777.745 12.5993 777.494 12.7314C777.243 12.8636 777.043 13.0459 776.893 13.2783C776.742 13.5107 776.633 13.7773 776.564 14.0781C776.501 14.3743 776.469 14.6888 776.469 15.0215ZM781.261 14.3242L780.413 14.584C780.418 14.1784 780.484 13.7887 780.611 13.415C780.743 13.0413 780.933 12.7087 781.179 12.417C781.429 12.1253 781.737 11.8952 782.102 11.7266C782.466 11.5534 782.883 11.4668 783.353 11.4668C783.749 11.4668 784.1 11.5192 784.405 11.624C784.715 11.7288 784.975 11.8906 785.185 12.1094C785.399 12.3236 785.561 12.5993 785.67 12.9365C785.779 13.2738 785.834 13.6748 785.834 14.1396V19H784.562V14.126C784.562 13.7113 784.496 13.39 784.364 13.1621C784.237 12.9297 784.054 12.7679 783.817 12.6768C783.585 12.5811 783.307 12.5332 782.983 12.5332C782.705 12.5332 782.459 12.5811 782.245 12.6768C782.031 12.7725 781.851 12.9046 781.705 13.0732C781.559 13.2373 781.448 13.4264 781.37 13.6406C781.297 13.8548 781.261 14.0827 781.261 14.3242ZM787.413 15.3838V15.2266C787.413 14.6934 787.491 14.1989 787.646 13.7432C787.8 13.2829 788.024 12.8841 788.315 12.5469C788.607 12.2051 788.96 11.9408 789.375 11.7539C789.79 11.5625 790.255 11.4668 790.77 11.4668C791.289 11.4668 791.756 11.5625 792.171 11.7539C792.59 11.9408 792.946 12.2051 793.237 12.5469C793.534 12.8841 793.759 13.2829 793.914 13.7432C794.069 14.1989 794.146 14.6934 794.146 15.2266V15.3838C794.146 15.917 794.069 16.4115 793.914 16.8672C793.759 17.3229 793.534 17.7217 793.237 18.0635C792.946 18.4007 792.592 18.665 792.178 18.8564C791.768 19.0433 791.303 19.1367 790.783 19.1367C790.264 19.1367 789.797 19.0433 789.382 18.8564C788.967 18.665 788.612 18.4007 788.315 18.0635C788.024 17.7217 787.8 17.3229 787.646 16.8672C787.491 16.4115 787.413 15.917 787.413 15.3838ZM788.678 15.2266V15.3838C788.678 15.7529 788.721 16.1016 788.808 16.4297C788.894 16.7533 789.024 17.0404 789.197 17.291C789.375 17.5417 789.596 17.7399 789.86 17.8857C790.125 18.027 790.432 18.0977 790.783 18.0977C791.13 18.0977 791.433 18.027 791.692 17.8857C791.957 17.7399 792.175 17.5417 792.349 17.291C792.522 17.0404 792.652 16.7533 792.738 16.4297C792.829 16.1016 792.875 15.7529 792.875 15.3838V15.2266C792.875 14.862 792.829 14.5179 792.738 14.1943C792.652 13.8662 792.52 13.5768 792.342 13.3262C792.169 13.071 791.95 12.8704 791.686 12.7246C791.426 12.5788 791.12 12.5059 790.77 12.5059C790.423 12.5059 790.118 12.5788 789.854 12.7246C789.594 12.8704 789.375 13.071 789.197 13.3262C789.024 13.5768 788.894 13.8662 788.808 14.1943C788.721 14.5179 788.678 14.862 788.678 15.2266ZM798.692 18.0977C798.993 18.0977 799.271 18.0361 799.526 17.9131C799.782 17.79 799.991 17.6214 800.155 17.4072C800.319 17.1885 800.413 16.9401 800.436 16.6621H801.639C801.616 17.0996 801.468 17.5075 801.194 17.8857C800.925 18.2594 800.572 18.5625 800.135 18.7949C799.697 19.0228 799.216 19.1367 798.692 19.1367C798.136 19.1367 797.651 19.0387 797.236 18.8428C796.826 18.6468 796.484 18.3779 796.211 18.0361C795.942 17.6943 795.739 17.3024 795.603 16.8604C795.47 16.4137 795.404 15.9421 795.404 15.4453V15.1582C795.404 14.6615 795.47 14.1921 795.603 13.75C795.739 13.3034 795.942 12.9092 796.211 12.5674C796.484 12.2256 796.826 11.9567 797.236 11.7607C797.651 11.5648 798.136 11.4668 798.692 11.4668C799.271 11.4668 799.777 11.5853 800.21 11.8223C800.643 12.0547 800.982 12.3737 801.229 12.7793C801.479 13.1803 801.616 13.6361 801.639 14.1465H800.436C800.413 13.8411 800.326 13.5654 800.176 13.3193C800.03 13.0732 799.829 12.8773 799.574 12.7314C799.324 12.5811 799.03 12.5059 798.692 12.5059C798.305 12.5059 797.979 12.5833 797.715 12.7383C797.455 12.8887 797.248 13.0938 797.093 13.3535C796.942 13.6087 796.833 13.8936 796.765 14.208C796.701 14.5179 796.669 14.8346 796.669 15.1582V15.4453C796.669 15.7689 796.701 16.0879 796.765 16.4023C796.828 16.7168 796.936 17.0016 797.086 17.2568C797.241 17.512 797.448 17.7171 797.708 17.8721C797.972 18.0225 798.3 18.0977 798.692 18.0977ZM804.435 11.6035V19H803.163V11.6035H804.435ZM803.067 9.6416C803.067 9.43652 803.129 9.26335 803.252 9.12207C803.38 8.98079 803.566 8.91016 803.812 8.91016C804.054 8.91016 804.239 8.98079 804.366 9.12207C804.498 9.26335 804.564 9.43652 804.564 9.6416C804.564 9.83757 804.498 10.0062 804.366 10.1475C804.239 10.2842 804.054 10.3525 803.812 10.3525C803.566 10.3525 803.38 10.2842 803.252 10.1475C803.129 10.0062 803.067 9.83757 803.067 9.6416ZM806.13 15.3838V15.2266C806.13 14.6934 806.207 14.1989 806.362 13.7432C806.517 13.2829 806.741 12.8841 807.032 12.5469C807.324 12.2051 807.677 11.9408 808.092 11.7539C808.507 11.5625 808.971 11.4668 809.486 11.4668C810.006 11.4668 810.473 11.5625 810.888 11.7539C811.307 11.9408 811.662 12.2051 811.954 12.5469C812.25 12.8841 812.476 13.2829 812.631 13.7432C812.786 14.1989 812.863 14.6934 812.863 15.2266V15.3838C812.863 15.917 812.786 16.4115 812.631 16.8672C812.476 17.3229 812.25 17.7217 811.954 18.0635C811.662 18.4007 811.309 18.665 810.895 18.8564C810.484 19.0433 810.02 19.1367 809.5 19.1367C808.98 19.1367 808.513 19.0433 808.099 18.8564C807.684 18.665 807.328 18.4007 807.032 18.0635C806.741 17.7217 806.517 17.3229 806.362 16.8672C806.207 16.4115 806.13 15.917 806.13 15.3838ZM807.395 15.2266V15.3838C807.395 15.7529 807.438 16.1016 807.524 16.4297C807.611 16.7533 807.741 17.0404 807.914 17.291C808.092 17.5417 808.313 17.7399 808.577 17.8857C808.841 18.027 809.149 18.0977 809.5 18.0977C809.846 18.0977 810.149 18.027 810.409 17.8857C810.674 17.7399 810.892 17.5417 811.065 17.291C811.239 17.0404 811.368 16.7533 811.455 16.4297C811.546 16.1016 811.592 15.7529 811.592 15.3838V15.2266C811.592 14.862 811.546 14.5179 811.455 14.1943C811.368 13.8662 811.236 13.5768 811.059 13.3262C810.885 13.071 810.667 12.8704 810.402 12.7246C810.143 12.5788 809.837 12.5059 809.486 12.5059C809.14 12.5059 808.835 12.5788 808.57 12.7246C808.311 12.8704 808.092 13.071 807.914 13.3262C807.741 13.5768 807.611 13.8662 807.524 14.1943C807.438 14.5179 807.395 14.862 807.395 15.2266ZM808.734 10.5098L810.061 8.5H811.585L809.753 10.5098H808.734ZM815.714 13.1826V19H814.449V11.6035H815.646L815.714 13.1826ZM815.413 15.0215L814.887 15.001C814.891 14.4951 814.966 14.028 815.112 13.5996C815.258 13.1667 815.463 12.7907 815.728 12.4717C815.992 12.1527 816.306 11.9066 816.671 11.7334C817.04 11.5557 817.448 11.4668 817.895 11.4668C818.259 11.4668 818.587 11.5169 818.879 11.6172C819.171 11.7129 819.419 11.8678 819.624 12.082C819.834 12.2962 819.993 12.5742 820.103 12.916C820.212 13.2533 820.267 13.6657 820.267 14.1533V19H818.995V14.1396C818.995 13.7523 818.938 13.4424 818.824 13.21C818.71 12.973 818.544 12.8021 818.325 12.6973C818.106 12.5879 817.838 12.5332 817.519 12.5332C817.204 12.5332 816.917 12.5993 816.657 12.7314C816.402 12.8636 816.181 13.0459 815.994 13.2783C815.812 13.5107 815.668 13.7773 815.563 14.0781C815.463 14.3743 815.413 14.6888 815.413 15.0215Z" fill="#686868"/>
<path d="M960.205 14L955.5 18.705L954.795 18L958.795 14L954.795 10L955.5 9.29504L960.205 14Z" fill="#686868"/>
<path d="M104.57 67.0469V77H103.251V67.0469H104.57ZM111.44 75.5645V66.5H112.712V77H111.55L111.44 75.5645ZM106.464 73.3838V73.2402C106.464 72.6751 106.532 72.1624 106.669 71.7021C106.81 71.2373 107.008 70.8385 107.264 70.5059C107.523 70.1732 107.831 69.918 108.187 69.7402C108.547 69.5579 108.948 69.4668 109.39 69.4668C109.854 69.4668 110.26 69.5488 110.606 69.7129C110.957 69.8724 111.254 70.1071 111.495 70.417C111.741 70.7223 111.935 71.0915 112.076 71.5244C112.217 71.9574 112.315 72.4473 112.37 72.9941V73.623C112.32 74.1654 112.222 74.653 112.076 75.0859C111.935 75.5189 111.741 75.888 111.495 76.1934C111.254 76.4987 110.957 76.7334 110.606 76.8975C110.256 77.057 109.845 77.1367 109.376 77.1367C108.943 77.1367 108.547 77.0433 108.187 76.8564C107.831 76.6696 107.523 76.4076 107.264 76.0703C107.008 75.7331 106.81 75.3366 106.669 74.8809C106.532 74.4206 106.464 73.9215 106.464 73.3838ZM107.735 73.2402V73.3838C107.735 73.7529 107.772 74.0993 107.845 74.4229C107.922 74.7464 108.041 75.0312 108.2 75.2773C108.36 75.5234 108.562 75.7171 108.809 75.8584C109.055 75.9951 109.349 76.0635 109.69 76.0635C110.11 76.0635 110.454 75.9746 110.723 75.7969C110.996 75.6191 111.215 75.3844 111.379 75.0928C111.543 74.8011 111.671 74.4844 111.762 74.1426V72.4951C111.707 72.2445 111.627 72.0029 111.522 71.7705C111.422 71.5335 111.29 71.3239 111.126 71.1416C110.966 70.9548 110.768 70.8066 110.531 70.6973C110.299 70.5879 110.023 70.5332 109.704 70.5332C109.358 70.5332 109.059 70.6061 108.809 70.752C108.562 70.8932 108.36 71.0892 108.2 71.3398C108.041 71.5859 107.922 71.873 107.845 72.2012C107.772 72.5247 107.735 72.8711 107.735 73.2402ZM116.055 69.6035V77H114.783V69.6035H116.055ZM114.688 67.6416C114.688 67.4365 114.749 67.2633 114.872 67.1221C115 66.9808 115.187 66.9102 115.433 66.9102C115.674 66.9102 115.859 66.9808 115.986 67.1221C116.118 67.2633 116.185 67.4365 116.185 67.6416C116.185 67.8376 116.118 68.0062 115.986 68.1475C115.859 68.2842 115.674 68.3525 115.433 68.3525C115.187 68.3525 115 68.2842 114.872 68.1475C114.749 68.0062 114.688 67.8376 114.688 67.6416ZM117.75 73.3838V73.2266C117.75 72.6934 117.827 72.1989 117.982 71.7432C118.137 71.2829 118.361 70.8841 118.652 70.5469C118.944 70.2051 119.297 69.9408 119.712 69.7539C120.127 69.5625 120.591 69.4668 121.106 69.4668C121.626 69.4668 122.093 69.5625 122.508 69.7539C122.927 69.9408 123.283 70.2051 123.574 70.5469C123.87 70.8841 124.096 71.2829 124.251 71.7432C124.406 72.1989 124.483 72.6934 124.483 73.2266V73.3838C124.483 73.917 124.406 74.4115 124.251 74.8672C124.096 75.3229 123.87 75.7217 123.574 76.0635C123.283 76.4007 122.929 76.665 122.515 76.8564C122.104 77.0433 121.64 77.1367 121.12 77.1367C120.601 77.1367 120.133 77.0433 119.719 76.8564C119.304 76.665 118.949 76.4007 118.652 76.0635C118.361 75.7217 118.137 75.3229 117.982 74.8672C117.827 74.4115 117.75 73.917 117.75 73.3838ZM119.015 73.2266V73.3838C119.015 73.7529 119.058 74.1016 119.145 74.4297C119.231 74.7533 119.361 75.0404 119.534 75.291C119.712 75.5417 119.933 75.7399 120.197 75.8857C120.462 76.027 120.769 76.0977 121.12 76.0977C121.466 76.0977 121.77 76.027 122.029 75.8857C122.294 75.7399 122.512 75.5417 122.686 75.291C122.859 75.0404 122.989 74.7533 123.075 74.4297C123.166 74.1016 123.212 73.7529 123.212 73.3838V73.2266C123.212 72.862 123.166 72.5179 123.075 72.1943C122.989 71.8662 122.856 71.5768 122.679 71.3262C122.506 71.071 122.287 70.8704 122.022 70.7246C121.763 70.5788 121.457 70.5059 121.106 70.5059C120.76 70.5059 120.455 70.5788 120.19 70.7246C119.931 70.8704 119.712 71.071 119.534 71.3262C119.361 71.5768 119.231 71.8662 119.145 72.1943C119.058 72.5179 119.015 72.862 119.015 73.2266ZM127.327 71.0732V77H126.056V69.6035H127.259L127.327 71.0732ZM127.067 73.0215L126.479 73.001C126.484 72.4951 126.55 72.028 126.678 71.5996C126.805 71.1667 126.994 70.7907 127.245 70.4717C127.496 70.1527 127.808 69.9066 128.182 69.7334C128.555 69.5557 128.988 69.4668 129.48 69.4668C129.827 69.4668 130.146 69.5169 130.438 69.6172C130.729 69.7129 130.982 69.8656 131.196 70.0752C131.41 70.2848 131.577 70.5537 131.695 70.8818C131.814 71.21 131.873 71.6064 131.873 72.0713V77H130.608V72.1328C130.608 71.7454 130.542 71.4355 130.41 71.2031C130.283 70.9707 130.1 70.8021 129.863 70.6973C129.626 70.5879 129.348 70.5332 129.029 70.5332C128.656 70.5332 128.343 70.5993 128.093 70.7314C127.842 70.8636 127.642 71.0459 127.491 71.2783C127.341 71.5107 127.231 71.7773 127.163 72.0781C127.099 72.3743 127.067 72.6888 127.067 73.0215ZM131.859 72.3242L131.012 72.584C131.016 72.1784 131.082 71.7887 131.21 71.415C131.342 71.0413 131.531 70.7087 131.777 70.417C132.028 70.1253 132.336 69.8952 132.7 69.7266C133.065 69.5534 133.482 69.4668 133.951 69.4668C134.348 69.4668 134.699 69.5192 135.004 69.624C135.314 69.7288 135.574 69.8906 135.783 70.1094C135.997 70.3236 136.159 70.5993 136.269 70.9365C136.378 71.2738 136.433 71.6748 136.433 72.1396V77H135.161V72.126C135.161 71.7113 135.095 71.39 134.963 71.1621C134.835 70.9297 134.653 70.7679 134.416 70.6768C134.184 70.5811 133.906 70.5332 133.582 70.5332C133.304 70.5332 133.058 70.5811 132.844 70.6768C132.63 70.7725 132.45 70.9046 132.304 71.0732C132.158 71.2373 132.046 71.4264 131.969 71.6406C131.896 71.8548 131.859 72.0827 131.859 72.3242ZM142.708 75.7354V71.9277C142.708 71.6361 142.649 71.3831 142.53 71.1689C142.416 70.9502 142.243 70.7816 142.011 70.6631C141.778 70.5446 141.491 70.4854 141.149 70.4854C140.83 70.4854 140.55 70.54 140.309 70.6494C140.072 70.7588 139.885 70.9023 139.748 71.0801C139.616 71.2578 139.55 71.4492 139.55 71.6543H138.285C138.285 71.39 138.354 71.1279 138.49 70.8682C138.627 70.6084 138.823 70.3737 139.078 70.1641C139.338 69.9499 139.648 69.7812 140.008 69.6582C140.372 69.5306 140.778 69.4668 141.225 69.4668C141.762 69.4668 142.236 69.5579 142.646 69.7402C143.061 69.9225 143.385 70.1982 143.617 70.5674C143.854 70.932 143.973 71.39 143.973 71.9414V75.3867C143.973 75.6328 143.993 75.8949 144.034 76.1729C144.08 76.4508 144.146 76.6901 144.232 76.8906V77H142.913C142.849 76.8542 142.799 76.6605 142.763 76.4189C142.726 76.1729 142.708 75.945 142.708 75.7354ZM142.927 72.5156L142.94 73.4043H141.662C141.302 73.4043 140.981 73.4339 140.698 73.4932C140.416 73.5479 140.179 73.6322 139.987 73.7461C139.796 73.86 139.65 74.0036 139.55 74.1768C139.45 74.3454 139.399 74.5436 139.399 74.7715C139.399 75.0039 139.452 75.2158 139.557 75.4072C139.661 75.5986 139.819 75.7513 140.028 75.8652C140.243 75.9746 140.505 76.0293 140.814 76.0293C141.202 76.0293 141.544 75.9473 141.84 75.7832C142.136 75.6191 142.371 75.4186 142.544 75.1816C142.722 74.9447 142.817 74.7145 142.831 74.4912L143.371 75.0996C143.339 75.291 143.253 75.5029 143.111 75.7354C142.97 75.9678 142.781 76.1911 142.544 76.4053C142.312 76.6149 142.034 76.7904 141.71 76.9316C141.391 77.0684 141.031 77.1367 140.63 77.1367C140.129 77.1367 139.689 77.0387 139.311 76.8428C138.937 76.6468 138.645 76.3848 138.436 76.0566C138.23 75.724 138.128 75.3525 138.128 74.9424C138.128 74.5459 138.205 74.1973 138.36 73.8965C138.515 73.5911 138.739 73.3382 139.03 73.1377C139.322 72.9326 139.673 72.7777 140.083 72.6729C140.493 72.568 140.951 72.5156 141.457 72.5156H142.927Z" fill="#686868"/>
<path d="M161.705 70L157 74.705L152.295 70L153 69.295L157 73.295L161 69.295L161.705 70Z" fill="#686868"/>
<path d="M182.572 67.0469H183.851L187.111 75.1611L190.365 67.0469H191.65L187.604 77H186.605L182.572 67.0469ZM182.155 67.0469H183.283L183.468 73.1172V77H182.155V67.0469ZM190.933 67.0469H192.061V77H190.748V73.1172L190.933 67.0469ZM193.852 73.3838V73.2266C193.852 72.6934 193.929 72.1989 194.084 71.7432C194.239 71.2829 194.462 70.8841 194.754 70.5469C195.046 70.2051 195.399 69.9408 195.813 69.7539C196.228 69.5625 196.693 69.4668 197.208 69.4668C197.728 69.4668 198.195 69.5625 198.609 69.7539C199.029 69.9408 199.384 70.2051 199.676 70.5469C199.972 70.8841 200.198 71.2829 200.353 71.7432C200.507 72.1989 200.585 72.6934 200.585 73.2266V73.3838C200.585 73.917 200.507 74.4115 200.353 74.8672C200.198 75.3229 199.972 75.7217 199.676 76.0635C199.384 76.4007 199.031 76.665 198.616 76.8564C198.206 77.0433 197.741 77.1367 197.222 77.1367C196.702 77.1367 196.235 77.0433 195.82 76.8564C195.406 76.665 195.05 76.4007 194.754 76.0635C194.462 75.7217 194.239 75.3229 194.084 74.8672C193.929 74.4115 193.852 73.917 193.852 73.3838ZM195.116 73.2266V73.3838C195.116 73.7529 195.16 74.1016 195.246 74.4297C195.333 74.7533 195.463 75.0404 195.636 75.291C195.813 75.5417 196.035 75.7399 196.299 75.8857C196.563 76.027 196.871 76.0977 197.222 76.0977C197.568 76.0977 197.871 76.027 198.131 75.8857C198.395 75.7399 198.614 75.5417 198.787 75.291C198.96 75.0404 199.09 74.7533 199.177 74.4297C199.268 74.1016 199.313 73.7529 199.313 73.3838V73.2266C199.313 72.862 199.268 72.5179 199.177 72.1943C199.09 71.8662 198.958 71.5768 198.78 71.3262C198.607 71.071 198.388 70.8704 198.124 70.7246C197.864 70.5788 197.559 70.5059 197.208 70.5059C196.862 70.5059 196.556 70.5788 196.292 70.7246C196.032 70.8704 195.813 71.071 195.636 71.3262C195.463 71.5768 195.333 71.8662 195.246 72.1943C195.16 72.5179 195.116 72.862 195.116 73.2266ZM203.436 71.1826V77H202.171V69.6035H203.367L203.436 71.1826ZM203.135 73.0215L202.608 73.001C202.613 72.4951 202.688 72.028 202.834 71.5996C202.98 71.1667 203.185 70.7907 203.449 70.4717C203.714 70.1527 204.028 69.9066 204.393 69.7334C204.762 69.5557 205.17 69.4668 205.616 69.4668C205.981 69.4668 206.309 69.5169 206.601 69.6172C206.892 69.7129 207.141 69.8678 207.346 70.082C207.555 70.2962 207.715 70.5742 207.824 70.916C207.934 71.2533 207.988 71.6657 207.988 72.1533V77H206.717V72.1396C206.717 71.7523 206.66 71.4424 206.546 71.21C206.432 70.973 206.266 70.8021 206.047 70.6973C205.828 70.5879 205.559 70.5332 205.24 70.5332C204.926 70.5332 204.639 70.5993 204.379 70.7314C204.124 70.8636 203.903 71.0459 203.716 71.2783C203.534 71.5107 203.39 71.7773 203.285 72.0781C203.185 72.3743 203.135 72.6888 203.135 73.0215ZM212.979 77.1367C212.464 77.1367 211.996 77.0501 211.577 76.877C211.162 76.6992 210.805 76.4508 210.504 76.1318C210.208 75.8128 209.98 75.4346 209.82 74.9971C209.661 74.5596 209.581 74.0811 209.581 73.5615V73.2744C209.581 72.6729 209.67 72.1374 209.848 71.668C210.025 71.194 210.267 70.793 210.572 70.4648C210.878 70.1367 211.224 69.8883 211.611 69.7197C211.999 69.5511 212.4 69.4668 212.814 69.4668C213.343 69.4668 213.799 69.5579 214.182 69.7402C214.569 69.9225 214.886 70.1777 215.132 70.5059C215.378 70.8294 215.56 71.2122 215.679 71.6543C215.797 72.0918 215.856 72.5703 215.856 73.0898V73.6572H210.333V72.625H214.592V72.5293C214.574 72.2012 214.505 71.8822 214.387 71.5723C214.273 71.2624 214.09 71.0072 213.84 70.8066C213.589 70.6061 213.247 70.5059 212.814 70.5059C212.527 70.5059 212.263 70.5674 212.021 70.6904C211.78 70.8089 211.573 70.9867 211.399 71.2236C211.226 71.4606 211.092 71.75 210.996 72.0918C210.9 72.4336 210.853 72.8278 210.853 73.2744V73.5615C210.853 73.9124 210.9 74.2428 210.996 74.5527C211.096 74.8581 211.24 75.127 211.427 75.3594C211.618 75.5918 211.848 75.7741 212.117 75.9062C212.391 76.0384 212.701 76.1045 213.047 76.1045C213.493 76.1045 213.872 76.0133 214.182 75.8311C214.492 75.6488 214.763 75.4049 214.995 75.0996L215.761 75.708C215.601 75.9495 215.398 76.1797 215.152 76.3984C214.906 76.6172 214.603 76.7949 214.243 76.9316C213.888 77.0684 213.466 77.1367 212.979 77.1367ZM221.995 75.5645V66.5H223.267V77H222.104L221.995 75.5645ZM217.019 73.3838V73.2402C217.019 72.6751 217.087 72.1624 217.224 71.7021C217.365 71.2373 217.563 70.8385 217.818 70.5059C218.078 70.1732 218.386 69.918 218.741 69.7402C219.101 69.5579 219.502 69.4668 219.944 69.4668C220.409 69.4668 220.815 69.5488 221.161 69.7129C221.512 69.8724 221.808 70.1071 222.05 70.417C222.296 70.7223 222.49 71.0915 222.631 71.5244C222.772 71.9574 222.87 72.4473 222.925 72.9941V73.623C222.875 74.1654 222.777 74.653 222.631 75.0859C222.49 75.5189 222.296 75.888 222.05 76.1934C221.808 76.4987 221.512 76.7334 221.161 76.8975C220.81 77.057 220.4 77.1367 219.931 77.1367C219.498 77.1367 219.101 77.0433 218.741 76.8564C218.386 76.6696 218.078 76.4076 217.818 76.0703C217.563 75.7331 217.365 75.3366 217.224 74.8809C217.087 74.4206 217.019 73.9215 217.019 73.3838ZM218.29 73.2402V73.3838C218.29 73.7529 218.326 74.0993 218.399 74.4229C218.477 74.7464 218.595 75.0312 218.755 75.2773C218.914 75.5234 219.117 75.7171 219.363 75.8584C219.609 75.9951 219.903 76.0635 220.245 76.0635C220.664 76.0635 221.008 75.9746 221.277 75.7969C221.551 75.6191 221.77 75.3844 221.934 75.0928C222.098 74.8011 222.225 74.4844 222.316 74.1426V72.4951C222.262 72.2445 222.182 72.0029 222.077 71.7705C221.977 71.5335 221.845 71.3239 221.681 71.1416C221.521 70.9548 221.323 70.8066 221.086 70.6973C220.854 70.5879 220.578 70.5332 220.259 70.5332C219.912 70.5332 219.614 70.6061 219.363 70.752C219.117 70.8932 218.914 71.0892 218.755 71.3398C218.595 71.5859 218.477 71.873 218.399 72.2012C218.326 72.5247 218.29 72.8711 218.29 73.2402ZM229.597 75.7354V71.9277C229.597 71.6361 229.537 71.3831 229.419 71.1689C229.305 70.9502 229.132 70.7816 228.899 70.6631C228.667 70.5446 228.38 70.4854 228.038 70.4854C227.719 70.4854 227.439 70.54 227.197 70.6494C226.96 70.7588 226.773 70.9023 226.637 71.0801C226.505 71.2578 226.438 71.4492 226.438 71.6543H225.174C225.174 71.39 225.242 71.1279 225.379 70.8682C225.516 70.6084 225.712 70.3737 225.967 70.1641C226.227 69.9499 226.536 69.7812 226.896 69.6582C227.261 69.5306 227.667 69.4668 228.113 69.4668C228.651 69.4668 229.125 69.5579 229.535 69.7402C229.95 69.9225 230.273 70.1982 230.506 70.5674C230.743 70.932 230.861 71.39 230.861 71.9414V75.3867C230.861 75.6328 230.882 75.8949 230.923 76.1729C230.968 76.4508 231.035 76.6901 231.121 76.8906V77H229.802C229.738 76.8542 229.688 76.6605 229.651 76.4189C229.615 76.1729 229.597 75.945 229.597 75.7354ZM229.815 72.5156L229.829 73.4043H228.551C228.191 73.4043 227.869 73.4339 227.587 73.4932C227.304 73.5479 227.067 73.6322 226.876 73.7461C226.685 73.86 226.539 74.0036 226.438 74.1768C226.338 74.3454 226.288 74.5436 226.288 74.7715C226.288 75.0039 226.34 75.2158 226.445 75.4072C226.55 75.5986 226.707 75.7513 226.917 75.8652C227.131 75.9746 227.393 76.0293 227.703 76.0293C228.09 76.0293 228.432 75.9473 228.729 75.7832C229.025 75.6191 229.259 75.4186 229.433 75.1816C229.61 74.9447 229.706 74.7145 229.72 74.4912L230.26 75.0996C230.228 75.291 230.141 75.5029 230 75.7354C229.859 75.9678 229.67 76.1911 229.433 76.4053C229.2 76.6149 228.922 76.7904 228.599 76.9316C228.28 77.0684 227.92 77.1367 227.519 77.1367C227.017 77.1367 226.577 77.0387 226.199 76.8428C225.826 76.6468 225.534 76.3848 225.324 76.0566C225.119 75.724 225.017 75.3525 225.017 74.9424C225.017 74.5459 225.094 74.1973 225.249 73.8965C225.404 73.5911 225.627 73.3382 225.919 73.1377C226.211 72.9326 226.562 72.7777 226.972 72.6729C227.382 72.568 227.84 72.5156 228.346 72.5156H229.815Z" fill="#686868"/>
<path d="M248.705 70L244 74.705L239.295 70L240 69.295L244 73.295L248 69.295L248.705 70Z" fill="#686868"/>
<path d="M275.656 71.3262V72.3994H270.27V71.3262H275.656ZM270.475 67.0469V77H269.155V67.0469H270.475ZM276.805 67.0469V77H275.492V67.0469H276.805ZM282.027 77.1367C281.512 77.1367 281.045 77.0501 280.626 76.877C280.211 76.6992 279.854 76.4508 279.553 76.1318C279.257 75.8128 279.029 75.4346 278.869 74.9971C278.71 74.5596 278.63 74.0811 278.63 73.5615V73.2744C278.63 72.6729 278.719 72.1374 278.896 71.668C279.074 71.194 279.316 70.793 279.621 70.4648C279.926 70.1367 280.273 69.8883 280.66 69.7197C281.048 69.5511 281.449 69.4668 281.863 69.4668C282.392 69.4668 282.848 69.5579 283.23 69.7402C283.618 69.9225 283.935 70.1777 284.181 70.5059C284.427 70.8294 284.609 71.2122 284.728 71.6543C284.846 72.0918 284.905 72.5703 284.905 73.0898V73.6572H279.382V72.625H283.641V72.5293C283.622 72.2012 283.554 71.8822 283.436 71.5723C283.322 71.2624 283.139 71.0072 282.889 70.8066C282.638 70.6061 282.296 70.5059 281.863 70.5059C281.576 70.5059 281.312 70.5674 281.07 70.6904C280.829 70.8089 280.621 70.9867 280.448 71.2236C280.275 71.4606 280.141 71.75 280.045 72.0918C279.949 72.4336 279.901 72.8278 279.901 73.2744V73.5615C279.901 73.9124 279.949 74.2428 280.045 74.5527C280.145 74.8581 280.289 75.127 280.476 75.3594C280.667 75.5918 280.897 75.7741 281.166 75.9062C281.439 76.0384 281.749 76.1045 282.096 76.1045C282.542 76.1045 282.921 76.0133 283.23 75.8311C283.54 75.6488 283.812 75.4049 284.044 75.0996L284.81 75.708C284.65 75.9495 284.447 76.1797 284.201 76.3984C283.955 76.6172 283.652 76.7949 283.292 76.9316C282.937 77.0684 282.515 77.1367 282.027 77.1367ZM287.756 66.5V77H286.484V66.5H287.756ZM291.051 71.0254V79.8438H289.779V69.6035H290.941L291.051 71.0254ZM296.034 73.2402V73.3838C296.034 73.9215 295.97 74.4206 295.843 74.8809C295.715 75.3366 295.528 75.7331 295.282 76.0703C295.041 76.4076 294.742 76.6696 294.387 76.8564C294.031 77.0433 293.623 77.1367 293.163 77.1367C292.694 77.1367 292.279 77.0592 291.919 76.9043C291.559 76.7493 291.254 76.5238 291.003 76.2275C290.752 75.9313 290.552 75.5758 290.401 75.1611C290.256 74.7464 290.155 74.2793 290.101 73.7598V72.9941C290.155 72.4473 290.258 71.9574 290.408 71.5244C290.559 71.0915 290.757 70.7223 291.003 70.417C291.254 70.1071 291.557 69.8724 291.912 69.7129C292.268 69.5488 292.678 69.4668 293.143 69.4668C293.607 69.4668 294.02 69.5579 294.38 69.7402C294.74 69.918 295.043 70.1732 295.289 70.5059C295.535 70.8385 295.72 71.2373 295.843 71.7021C295.97 72.1624 296.034 72.6751 296.034 73.2402ZM294.763 73.3838V73.2402C294.763 72.8711 294.724 72.5247 294.646 72.2012C294.569 71.873 294.448 71.5859 294.284 71.3398C294.125 71.0892 293.92 70.8932 293.669 70.752C293.418 70.6061 293.12 70.5332 292.773 70.5332C292.454 70.5332 292.176 70.5879 291.939 70.6973C291.707 70.8066 291.509 70.9548 291.345 71.1416C291.181 71.3239 291.046 71.5335 290.941 71.7705C290.841 72.0029 290.766 72.2445 290.716 72.4951V74.2656C290.807 74.5846 290.935 74.8854 291.099 75.168C291.263 75.446 291.481 75.6715 291.755 75.8447C292.028 76.0133 292.372 76.0977 292.787 76.0977C293.129 76.0977 293.423 76.027 293.669 75.8857C293.92 75.7399 294.125 75.5417 294.284 75.291C294.448 75.0404 294.569 74.7533 294.646 74.4297C294.724 74.1016 294.763 73.7529 294.763 73.3838Z" fill="#686868"/>
<path d="M313.705 70L309 74.705L304.295 70L305 69.295L309 73.295L313 69.295L313.705 70Z" fill="#686868"/>
<g clip-path="url(#clip0_17082_9028)">
<path d="M802.125 56.0625L799.25 58.9375C797.188 57.5 794.75 56.625 792 56.625C784.562 56.625 779.125 62.3125 779.125 70.1875C779.125 77.875 784.688 83.75 792 83.75C792.125 83.75 792.188 83.75 792.312 83.75C792.312 83.75 793.25 83.75 794.125 83.9375C794.75 84 795.375 84.1875 795.75 84.375C798.188 85.4375 798.75 87.8125 798.812 88.9375C798.875 91.6875 795.688 93.8125 791.938 93.8125C788.625 93.8125 784.625 92.8125 784.625 87.875H779C779 95.375 783.938 100 791.938 100C798.688 100 804.062 95.6875 804.688 89.6875C805 86.75 803.625 83 800.562 80.4375C803.125 78 804.688 74.4375 804.688 70.25C804.688 67.875 804.188 65.625 803.25 63.6875L806.5 60.4375L802.125 56.0625ZM791.938 77.5625C788.312 77.5625 785.25 74.875 785.25 70.25C785.25 65.3125 788.312 62.875 791.938 62.875C795.562 62.875 798.5 65.75 798.5 70.25C798.5 74.8125 795.562 77.5625 791.938 77.5625ZM771.562 60.5C770.438 59.3125 769.125 58.375 767.5 57.75C765.938 57.125 764.188 56.75 762.375 56.75C760.5 56.75 758.812 57.0625 757.25 57.75C755.688 58.375 754.375 59.3125 753.188 60.5C752.062 61.6875 751.188 63.125 750.562 64.8125C749.938 66.5 749.625 68.375 749.625 70.4375C749.625 72.5 749.938 74.375 750.562 76.125C751.188 77.8125 752.062 79.25 753.188 80.5C754.312 81.6875 755.625 82.625 757.188 83.3125C758.75 84 760.5 84.3125 762.375 84.3125C764.25 84.3125 766 84 767.562 83.3125C769.125 82.625 770.5 81.6875 771.625 80.5C772.75 79.3125 773.625 77.875 774.188 76.125C774.812 74.4375 775.125 72.5625 775.125 70.4375C775.125 68.375 774.812 66.5 774.188 64.8125C773.562 63.125 772.688 61.6875 771.562 60.5ZM768.375 74.0625C768.062 75 767.625 75.75 767.062 76.3125C766.562 76.875 765.938 77.3125 765.125 77.625C764.312 77.9375 763.438 78.125 762.375 78.125C761.312 78.125 760.438 77.9375 759.688 77.625C758.938 77.3125 758.312 76.875 757.75 76.3125C757.188 75.6875 756.75 74.9375 756.375 74C756 73 755.812 71.75 755.812 70.4375C755.812 69.125 756 67.875 756.375 66.875C756.75 65.9375 757.188 65.1875 757.75 64.625C758.312 64.0625 758.938 63.625 759.688 63.3125C760.5 63 761.375 62.8125 762.438 62.8125C763.5 62.8125 764.375 63 765.188 63.3125C765.938 63.625 766.562 64.0625 767.062 64.5625C767.625 65.1875 768.062 65.9375 768.438 66.875C768.812 67.875 769 69.0625 769 70.4375C768.938 71.8125 768.75 73.0625 768.375 74.0625ZM697.375 77.9375L698.375 82.875C697.688 83.1875 696.688 83.5 695.562 83.8125C694.375 84.125 693.062 84.3125 691.438 84.3125C689.5 84.3125 687.938 84.0625 686.625 83.5625C685.375 83.0625 684.312 82.3125 683.562 81.3125C682.812 80.3125 682.312 79.1875 682 77.75C681.75 76.375 681.625 74.75 681.625 73V49.8125L687.812 48.8125V56.9375H697.312V62.125H687.812V73.0625C687.812 75.1875 688.125 76.75 688.812 77.6875C689.5 78.625 690.625 79.0625 692.312 79.0625C693.438 79.0625 694.438 78.9375 695.312 78.6875C696.188 78.375 696.875 78.125 697.375 77.9375ZM718.625 56.625C719.125 56.75 719.562 56.875 719.875 56.9375L718.812 62.1875C718.312 62 717.562 61.8125 716.688 61.625C715.75 61.4375 714.75 61.3125 713.5 61.3125C712.812 61.3125 712.062 61.375 711.312 61.5C710.562 61.625 710 61.75 709.688 61.875V83.5H703.5V57.9375C704.688 57.5 706.188 57.0625 708 56.6875C709.812 56.3125 711.812 56.125 714 56.125C714.438 56.125 714.875 56.125 715.438 56.1875C716 56.25 716.562 56.3125 717.062 56.375C717.562 56.4375 718.125 56.5625 718.625 56.625ZM729.875 46.1875C730.625 46.875 731 47.8125 731 49.0625C731 50.25 730.625 51.1875 729.875 51.875C729.125 52.5625 728.188 52.9375 727.188 52.9375C726.125 52.9375 725.188 52.5625 724.438 51.875C723.688 51.1875 723.312 50.25 723.312 49.0625C723.312 47.875 723.688 46.875 724.438 46.1875C725.188 45.5 726.125 45.125 727.188 45.125C728.188 45.125 729.062 45.5 729.875 46.1875ZM723.938 56.75H730.312V83.625H723.938V56.75ZM746.312 78.6875C746.812 78.875 747.5 79 748.312 79.125L747.438 84.25C745.562 84.1875 744.062 84 742.875 83.625C741.688 83.25 740.688 82.6875 740 82C739.312 81.3125 738.75 80.4375 738.5 79.375C738.25 78.3125 738.062 77.125 738.062 75.8125V45L744.25 44V74.6875C744.25 75.4375 744.312 76.0625 744.438 76.5625C744.562 77.0625 744.75 77.5 745.062 77.875C745.375 78.25 745.812 78.5 746.312 78.6875ZM817.25 46.1875C818 46.875 818.375 47.8125 818.375 49.0625C818.375 50.25 818 51.1875 817.25 51.875C816.5 52.5625 815.562 52.9375 814.562 52.9375C813.5 52.9375 812.562 52.5625 811.812 51.875C811.062 51.1875 810.688 50.25 810.688 49.0625C810.688 47.875 811.062 46.875 811.812 46.1875C812.562 45.5 813.5 45.125 814.562 45.125C815.562 45.125 816.438 45.5 817.25 46.1875ZM811.312 56.75H817.688V83.625H811.312V56.75Z" fill="black"/>
</g>
<path d="M1123.85 78.145L1119.73 74.015C1120.52 73.06 1121 71.835 1121 70.5C1121 67.465 1118.54 65 1115.5 65C1112.46 65 1110 67.465 1110 70.5C1110 73.535 1112.46 76 1115.5 76C1116.84 76 1118.07 75.52 1119.02 74.725L1123.15 78.855L1123.85 78.15L1123.85 78.145ZM1111 70.5C1111 68.02 1113.02 66 1115.5 66C1117.98 66 1120 68.02 1120 70.5C1120 72.98 1117.98 75 1115.5 75C1113.02 75 1111 72.98 1111 70.5Z" fill="#686868"/>
<path d="M1133.7 72.3447H1131.18L1131.17 71.2852H1133.46C1133.84 71.2852 1134.17 71.2214 1134.45 71.0938C1134.73 70.9661 1134.95 70.7839 1135.1 70.5469C1135.26 70.3053 1135.34 70.0182 1135.34 69.6855C1135.34 69.321 1135.27 69.0247 1135.13 68.7969C1135 68.5645 1134.78 68.3958 1134.5 68.291C1134.21 68.1816 1133.85 68.127 1133.42 68.127H1131.47V77H1130.16V67.0469H1133.42C1133.93 67.0469 1134.38 67.0993 1134.78 67.2041C1135.18 67.3044 1135.52 67.4639 1135.8 67.6826C1136.08 67.8968 1136.3 68.1702 1136.44 68.5029C1136.59 68.8356 1136.66 69.2344 1136.66 69.6992C1136.66 70.1094 1136.56 70.4808 1136.35 70.8135C1136.14 71.1416 1135.85 71.4105 1135.47 71.6201C1135.1 71.8298 1134.67 71.9642 1134.17 72.0234L1133.7 72.3447ZM1133.64 77H1130.66L1131.41 75.9268H1133.64C1134.06 75.9268 1134.42 75.8538 1134.71 75.708C1135 75.5622 1135.23 75.3571 1135.38 75.0928C1135.54 74.8239 1135.62 74.5072 1135.62 74.1426C1135.62 73.7734 1135.55 73.4544 1135.42 73.1855C1135.29 72.9167 1135.08 72.7093 1134.8 72.5635C1134.51 72.4176 1134.15 72.3447 1133.7 72.3447H1131.82L1131.84 71.2852H1134.41L1134.69 71.668C1135.17 71.709 1135.57 71.8457 1135.9 72.0781C1136.24 72.306 1136.49 72.5977 1136.66 72.9531C1136.84 73.3086 1136.93 73.7005 1136.93 74.1289C1136.93 74.7487 1136.79 75.2728 1136.52 75.7012C1136.25 76.125 1135.87 76.4486 1135.38 76.6719C1134.89 76.8906 1134.31 77 1133.64 77ZM1143.21 75.291V69.6035H1144.48V77H1143.27L1143.21 75.291ZM1143.45 73.7324L1143.98 73.7188C1143.98 74.2109 1143.93 74.6667 1143.82 75.0859C1143.72 75.5007 1143.56 75.8607 1143.33 76.166C1143.1 76.4714 1142.8 76.7106 1142.43 76.8838C1142.06 77.0524 1141.61 77.1367 1141.09 77.1367C1140.73 77.1367 1140.4 77.0843 1140.09 76.9795C1139.8 76.8747 1139.54 76.7129 1139.33 76.4941C1139.11 76.2754 1138.95 75.9906 1138.83 75.6396C1138.72 75.2887 1138.66 74.8672 1138.66 74.375V69.6035H1139.92V74.3887C1139.92 74.7214 1139.96 74.9971 1140.03 75.2158C1140.11 75.43 1140.21 75.6009 1140.34 75.7285C1140.47 75.8516 1140.62 75.9382 1140.78 75.9883C1140.94 76.0384 1141.11 76.0635 1141.28 76.0635C1141.82 76.0635 1142.25 75.9609 1142.56 75.7559C1142.88 75.5462 1143.1 75.266 1143.24 74.915C1143.38 74.5596 1143.45 74.1654 1143.45 73.7324ZM1150.72 75.0381C1150.72 74.8558 1150.68 74.6872 1150.59 74.5322C1150.52 74.3727 1150.36 74.2292 1150.11 74.1016C1149.87 73.9694 1149.5 73.8555 1149.02 73.7598C1148.61 73.6732 1148.23 73.5706 1147.9 73.4521C1147.57 73.3337 1147.29 73.1901 1147.06 73.0215C1146.83 72.8529 1146.66 72.6546 1146.53 72.4268C1146.41 72.1989 1146.35 71.9323 1146.35 71.627C1146.35 71.3353 1146.41 71.0596 1146.54 70.7998C1146.67 70.54 1146.86 70.3099 1147.09 70.1094C1147.34 69.9089 1147.63 69.7516 1147.96 69.6377C1148.3 69.5238 1148.68 69.4668 1149.09 69.4668C1149.68 69.4668 1150.19 69.5716 1150.61 69.7812C1151.03 69.9909 1151.35 70.2712 1151.57 70.6221C1151.8 70.9684 1151.91 71.3535 1151.91 71.7773H1150.64C1150.64 71.5723 1150.58 71.374 1150.46 71.1826C1150.34 70.9867 1150.16 70.8249 1149.93 70.6973C1149.7 70.5697 1149.42 70.5059 1149.09 70.5059C1148.74 70.5059 1148.46 70.5605 1148.24 70.6699C1148.02 70.7747 1147.86 70.9092 1147.76 71.0732C1147.67 71.2373 1147.62 71.4105 1147.62 71.5928C1147.62 71.7295 1147.64 71.8525 1147.69 71.9619C1147.74 72.0667 1147.83 72.1647 1147.95 72.2559C1148.07 72.3424 1148.25 72.4245 1148.47 72.502C1148.69 72.5794 1148.98 72.6569 1149.32 72.7344C1149.93 72.8711 1150.43 73.0352 1150.82 73.2266C1151.21 73.418 1151.5 73.6527 1151.7 73.9307C1151.89 74.2087 1151.98 74.5459 1151.98 74.9424C1151.98 75.266 1151.91 75.5622 1151.78 75.8311C1151.65 76.0999 1151.45 76.3324 1151.2 76.5283C1150.95 76.7197 1150.64 76.8701 1150.29 76.9795C1149.95 77.0843 1149.56 77.1367 1149.12 77.1367C1148.47 77.1367 1147.92 77.0205 1147.47 76.7881C1147.02 76.5557 1146.68 76.2549 1146.45 75.8857C1146.21 75.5166 1146.1 75.127 1146.1 74.7168H1147.37C1147.39 75.0632 1147.49 75.3389 1147.67 75.5439C1147.85 75.7445 1148.07 75.888 1148.34 75.9746C1148.6 76.0566 1148.87 76.0977 1149.12 76.0977C1149.47 76.0977 1149.76 76.0521 1149.99 75.9609C1150.23 75.8698 1150.41 75.7445 1150.53 75.585C1150.66 75.4255 1150.72 75.2432 1150.72 75.0381ZM1156.6 76.0977C1156.9 76.0977 1157.18 76.0361 1157.44 75.9131C1157.69 75.79 1157.9 75.6214 1158.07 75.4072C1158.23 75.1885 1158.32 74.9401 1158.35 74.6621H1159.55C1159.53 75.0996 1159.38 75.5075 1159.11 75.8857C1158.84 76.2594 1158.48 76.5625 1158.05 76.7949C1157.61 77.0228 1157.13 77.1367 1156.6 77.1367C1156.05 77.1367 1155.56 77.0387 1155.15 76.8428C1154.74 76.6468 1154.4 76.3779 1154.12 76.0361C1153.85 75.6943 1153.65 75.3024 1153.51 74.8604C1153.38 74.4137 1153.32 73.9421 1153.32 73.4453V73.1582C1153.32 72.6615 1153.38 72.1921 1153.51 71.75C1153.65 71.3034 1153.85 70.9092 1154.12 70.5674C1154.4 70.2256 1154.74 69.9567 1155.15 69.7607C1155.56 69.5648 1156.05 69.4668 1156.6 69.4668C1157.18 69.4668 1157.69 69.5853 1158.12 69.8223C1158.55 70.0547 1158.89 70.3737 1159.14 70.7793C1159.39 71.1803 1159.53 71.6361 1159.55 72.1465H1158.35C1158.32 71.8411 1158.24 71.5654 1158.09 71.3193C1157.94 71.0732 1157.74 70.8773 1157.49 70.7314C1157.23 70.5811 1156.94 70.5059 1156.6 70.5059C1156.22 70.5059 1155.89 70.5833 1155.63 70.7383C1155.37 70.8887 1155.16 71.0938 1155 71.3535C1154.85 71.6087 1154.74 71.8936 1154.68 72.208C1154.61 72.5179 1154.58 72.8346 1154.58 73.1582V73.4453C1154.58 73.7689 1154.61 74.0879 1154.68 74.4023C1154.74 74.7168 1154.85 75.0016 1155 75.2568C1155.15 75.512 1155.36 75.7171 1155.62 75.8721C1155.88 76.0225 1156.21 76.0977 1156.6 76.0977ZM1165.33 75.7354V71.9277C1165.33 71.6361 1165.27 71.3831 1165.16 71.1689C1165.04 70.9502 1164.87 70.7816 1164.64 70.6631C1164.4 70.5446 1164.12 70.4854 1163.77 70.4854C1163.46 70.4854 1163.18 70.54 1162.93 70.6494C1162.7 70.7588 1162.51 70.9023 1162.37 71.0801C1162.24 71.2578 1162.17 71.4492 1162.17 71.6543H1160.91C1160.91 71.39 1160.98 71.1279 1161.12 70.8682C1161.25 70.6084 1161.45 70.3737 1161.7 70.1641C1161.96 69.9499 1162.27 69.7812 1162.63 69.6582C1163 69.5306 1163.4 69.4668 1163.85 69.4668C1164.39 69.4668 1164.86 69.5579 1165.27 69.7402C1165.69 69.9225 1166.01 70.1982 1166.24 70.5674C1166.48 70.932 1166.6 71.39 1166.6 71.9414V75.3867C1166.6 75.6328 1166.62 75.8949 1166.66 76.1729C1166.7 76.4508 1166.77 76.6901 1166.86 76.8906V77H1165.54C1165.47 76.8542 1165.42 76.6605 1165.39 76.4189C1165.35 76.1729 1165.33 75.945 1165.33 75.7354ZM1165.55 72.5156L1165.57 73.4043H1164.29C1163.93 73.4043 1163.61 73.4339 1163.32 73.4932C1163.04 73.5479 1162.8 73.6322 1162.61 73.7461C1162.42 73.86 1162.28 74.0036 1162.17 74.1768C1162.07 74.3454 1162.02 74.5436 1162.02 74.7715C1162.02 75.0039 1162.08 75.2158 1162.18 75.4072C1162.29 75.5986 1162.44 75.7513 1162.65 75.8652C1162.87 75.9746 1163.13 76.0293 1163.44 76.0293C1163.83 76.0293 1164.17 75.9473 1164.46 75.7832C1164.76 75.6191 1165 75.4186 1165.17 75.1816C1165.35 74.9447 1165.44 74.7145 1165.46 74.4912L1166 75.0996C1165.96 75.291 1165.88 75.5029 1165.74 75.7354C1165.6 75.9678 1165.41 76.1911 1165.17 76.4053C1164.94 76.6149 1164.66 76.7904 1164.33 76.9316C1164.02 77.0684 1163.66 77.1367 1163.25 77.1367C1162.75 77.1367 1162.31 77.0387 1161.94 76.8428C1161.56 76.6468 1161.27 76.3848 1161.06 76.0566C1160.86 75.724 1160.75 75.3525 1160.75 74.9424C1160.75 74.5459 1160.83 74.1973 1160.99 73.8965C1161.14 73.5911 1161.36 73.3382 1161.66 73.1377C1161.95 72.9326 1162.3 72.7777 1162.71 72.6729C1163.12 72.568 1163.58 72.5156 1164.08 72.5156H1165.55ZM1169.85 70.7656V77H1168.59V69.6035H1169.82L1169.85 70.7656ZM1172.16 69.5625L1172.16 70.7383C1172.05 70.7155 1171.95 70.7018 1171.85 70.6973C1171.76 70.6882 1171.66 70.6836 1171.54 70.6836C1171.25 70.6836 1170.99 70.7292 1170.77 70.8203C1170.54 70.9115 1170.36 71.0391 1170.2 71.2031C1170.05 71.3672 1169.92 71.5632 1169.83 71.791C1169.74 72.0143 1169.69 72.2604 1169.66 72.5293L1169.3 72.7344C1169.3 72.2878 1169.35 71.8685 1169.43 71.4766C1169.53 71.0846 1169.66 70.7383 1169.85 70.4375C1170.04 70.1322 1170.28 69.8952 1170.56 69.7266C1170.85 69.5534 1171.2 69.4668 1171.6 69.4668C1171.69 69.4668 1171.8 69.4782 1171.92 69.501C1172.03 69.5192 1172.12 69.5397 1172.16 69.5625Z" fill="#686868"/>
<path d="M1197 72C1198.93 72 1200.5 70.43 1200.5 68.5C1200.5 66.57 1198.93 65 1197 65C1195.07 65 1193.5 66.57 1193.5 68.5C1193.5 70.43 1195.07 72 1197 72ZM1197 66C1198.38 66 1199.5 67.12 1199.5 68.5C1199.5 69.88 1198.38 71 1197 71C1195.62 71 1194.5 69.88 1194.5 68.5C1194.5 67.12 1195.62 66 1197 66ZM1202.5 78.5V79H1201.5V78.5C1201.5 76.02 1199.48 74 1197 74C1194.52 74 1192.5 76.02 1192.5 78.5V79H1191.5V78.5C1191.5 75.465 1193.96 73 1197 73C1200.04 73 1202.5 75.465 1202.5 78.5Z" fill="#686868"/>
<path d="M1211.57 67.0469V77H1210.25V67.0469H1211.57ZM1218.44 75.5645V66.5H1219.71V77H1218.55L1218.44 75.5645ZM1213.46 73.3838V73.2402C1213.46 72.6751 1213.53 72.1624 1213.67 71.7021C1213.81 71.2373 1214.01 70.8385 1214.26 70.5059C1214.52 70.1732 1214.83 69.918 1215.19 69.7402C1215.55 69.5579 1215.95 69.4668 1216.39 69.4668C1216.85 69.4668 1217.26 69.5488 1217.61 69.7129C1217.96 69.8724 1218.25 70.1071 1218.5 70.417C1218.74 70.7223 1218.93 71.0915 1219.08 71.5244C1219.22 71.9574 1219.32 72.4473 1219.37 72.9941V73.623C1219.32 74.1654 1219.22 74.653 1219.08 75.0859C1218.93 75.5189 1218.74 75.888 1218.5 76.1934C1218.25 76.4987 1217.96 76.7334 1217.61 76.8975C1217.26 77.057 1216.85 77.1367 1216.38 77.1367C1215.94 77.1367 1215.55 77.0433 1215.19 76.8564C1214.83 76.6696 1214.52 76.4076 1214.26 76.0703C1214.01 75.7331 1213.81 75.3366 1213.67 74.8809C1213.53 74.4206 1213.46 73.9215 1213.46 73.3838ZM1214.74 73.2402V73.3838C1214.74 73.7529 1214.77 74.0993 1214.84 74.4229C1214.92 74.7464 1215.04 75.0312 1215.2 75.2773C1215.36 75.5234 1215.56 75.7171 1215.81 75.8584C1216.05 75.9951 1216.35 76.0635 1216.69 76.0635C1217.11 76.0635 1217.45 75.9746 1217.72 75.7969C1218 75.6191 1218.21 75.3844 1218.38 75.0928C1218.54 74.8011 1218.67 74.4844 1218.76 74.1426V72.4951C1218.71 72.2445 1218.63 72.0029 1218.52 71.7705C1218.42 71.5335 1218.29 71.3239 1218.13 71.1416C1217.97 70.9548 1217.77 70.8066 1217.53 70.6973C1217.3 70.5879 1217.02 70.5332 1216.7 70.5332C1216.36 70.5332 1216.06 70.6061 1215.81 70.752C1215.56 70.8932 1215.36 71.0892 1215.2 71.3398C1215.04 71.5859 1214.92 71.873 1214.84 72.2012C1214.77 72.5247 1214.74 72.8711 1214.74 73.2402ZM1224.75 77.1367C1224.24 77.1367 1223.77 77.0501 1223.35 76.877C1222.93 76.6992 1222.58 76.4508 1222.28 76.1318C1221.98 75.8128 1221.75 75.4346 1221.59 74.9971C1221.43 74.5596 1221.35 74.0811 1221.35 73.5615V73.2744C1221.35 72.6729 1221.44 72.1374 1221.62 71.668C1221.8 71.194 1222.04 70.793 1222.34 70.4648C1222.65 70.1367 1223 69.8883 1223.38 69.7197C1223.77 69.5511 1224.17 69.4668 1224.59 69.4668C1225.11 69.4668 1225.57 69.5579 1225.95 69.7402C1226.34 69.9225 1226.66 70.1777 1226.9 70.5059C1227.15 70.8294 1227.33 71.2122 1227.45 71.6543C1227.57 72.0918 1227.63 72.5703 1227.63 73.0898V73.6572H1222.1V72.625H1226.36V72.5293C1226.35 72.2012 1226.28 71.8822 1226.16 71.5723C1226.04 71.2624 1225.86 71.0072 1225.61 70.8066C1225.36 70.6061 1225.02 70.5059 1224.59 70.5059C1224.3 70.5059 1224.03 70.5674 1223.79 70.6904C1223.55 70.8089 1223.34 70.9867 1223.17 71.2236C1223 71.4606 1222.86 71.75 1222.77 72.0918C1222.67 72.4336 1222.62 72.8278 1222.62 73.2744V73.5615C1222.62 73.9124 1222.67 74.2428 1222.77 74.5527C1222.87 74.8581 1223.01 75.127 1223.2 75.3594C1223.39 75.5918 1223.62 75.7741 1223.89 75.9062C1224.16 76.0384 1224.47 76.1045 1224.82 76.1045C1225.26 76.1045 1225.64 76.0133 1225.95 75.8311C1226.26 75.6488 1226.53 75.4049 1226.77 75.0996L1227.53 75.708C1227.37 75.9495 1227.17 76.1797 1226.92 76.3984C1226.68 76.6172 1226.37 76.7949 1226.01 76.9316C1225.66 77.0684 1225.24 77.1367 1224.75 77.1367ZM1230.37 71.1826V77H1229.1V69.6035H1230.3L1230.37 71.1826ZM1230.07 73.0215L1229.54 73.001C1229.55 72.4951 1229.62 72.028 1229.77 71.5996C1229.91 71.1667 1230.12 70.7907 1230.38 70.4717C1230.65 70.1527 1230.96 69.9066 1231.33 69.7334C1231.7 69.5557 1232.1 69.4668 1232.55 69.4668C1232.91 69.4668 1233.24 69.5169 1233.53 69.6172C1233.83 69.7129 1234.07 69.8678 1234.28 70.082C1234.49 70.2962 1234.65 70.5742 1234.76 70.916C1234.87 71.2533 1234.92 71.6657 1234.92 72.1533V77H1233.65V72.1396C1233.65 71.7523 1233.59 71.4424 1233.48 71.21C1233.37 70.973 1233.2 70.8021 1232.98 70.6973C1232.76 70.5879 1232.49 70.5332 1232.17 70.5332C1231.86 70.5332 1231.57 70.5993 1231.31 70.7314C1231.06 70.8636 1230.84 71.0459 1230.65 71.2783C1230.47 71.5107 1230.32 71.7773 1230.22 72.0781C1230.12 72.3743 1230.07 72.6888 1230.07 73.0215ZM1239.94 69.6035V70.5742H1235.94V69.6035H1239.94ZM1237.29 67.8057H1238.56V75.168C1238.56 75.4186 1238.6 75.6077 1238.67 75.7354C1238.75 75.863 1238.85 75.9473 1238.98 75.9883C1239.1 76.0293 1239.23 76.0498 1239.37 76.0498C1239.48 76.0498 1239.59 76.0407 1239.7 76.0225C1239.82 75.9997 1239.91 75.9814 1239.97 75.9678L1239.97 77C1239.87 77.0319 1239.74 77.0615 1239.58 77.0889C1239.42 77.1208 1239.22 77.1367 1239 77.1367C1238.69 77.1367 1238.4 77.0752 1238.14 76.9521C1237.88 76.8291 1237.67 76.624 1237.52 76.3369C1237.37 76.0452 1237.29 75.6533 1237.29 75.1611V67.8057ZM1242.8 69.6035V77H1241.53V69.6035H1242.8ZM1241.43 67.6416C1241.43 67.4365 1241.49 67.2633 1241.61 67.1221C1241.74 66.9808 1241.93 66.9102 1242.17 66.9102C1242.42 66.9102 1242.6 66.9808 1242.73 67.1221C1242.86 67.2633 1242.93 67.4365 1242.93 67.6416C1242.93 67.8376 1242.86 68.0062 1242.73 68.1475C1242.6 68.2842 1242.42 68.3525 1242.17 68.3525C1241.93 68.3525 1241.74 68.2842 1241.61 68.1475C1241.49 68.0062 1241.43 67.8376 1241.43 67.6416ZM1246.71 77H1245.45V68.8242C1245.45 68.291 1245.54 67.8421 1245.74 67.4775C1245.93 67.1084 1246.21 66.8304 1246.58 66.6436C1246.94 66.4521 1247.37 66.3564 1247.88 66.3564C1248.02 66.3564 1248.17 66.3656 1248.31 66.3838C1248.46 66.402 1248.61 66.4294 1248.75 66.4658L1248.68 67.498C1248.59 67.4753 1248.48 67.4593 1248.35 67.4502C1248.24 67.4411 1248.12 67.4365 1248 67.4365C1247.73 67.4365 1247.5 67.4912 1247.3 67.6006C1247.11 67.7054 1246.96 67.8604 1246.86 68.0654C1246.76 68.2705 1246.71 68.5234 1246.71 68.8242V77ZM1248.29 69.6035V70.5742H1244.28V69.6035H1248.29ZM1251.06 69.6035V77H1249.8V69.6035H1251.06ZM1249.76 68.5234L1251.08 66.5137H1252.61L1250.77 68.5234H1249.76ZM1256.13 76.0977C1256.43 76.0977 1256.71 76.0361 1256.96 75.9131C1257.22 75.79 1257.43 75.6214 1257.59 75.4072C1257.75 75.1885 1257.85 74.9401 1257.87 74.6621H1259.07C1259.05 75.0996 1258.9 75.5075 1258.63 75.8857C1258.36 76.2594 1258.01 76.5625 1257.57 76.7949C1257.13 77.0228 1256.65 77.1367 1256.13 77.1367C1255.57 77.1367 1255.09 77.0387 1254.67 76.8428C1254.26 76.6468 1253.92 76.3779 1253.65 76.0361C1253.38 75.6943 1253.17 75.3024 1253.04 74.8604C1252.9 74.4137 1252.84 73.9421 1252.84 73.4453V73.1582C1252.84 72.6615 1252.9 72.1921 1253.04 71.75C1253.17 71.3034 1253.38 70.9092 1253.65 70.5674C1253.92 70.2256 1254.26 69.9567 1254.67 69.7607C1255.09 69.5648 1255.57 69.4668 1256.13 69.4668C1256.71 69.4668 1257.21 69.5853 1257.64 69.8223C1258.08 70.0547 1258.42 70.3737 1258.66 70.7793C1258.91 71.1803 1259.05 71.6361 1259.07 72.1465H1257.87C1257.85 71.8411 1257.76 71.5654 1257.61 71.3193C1257.46 71.0732 1257.26 70.8773 1257.01 70.7314C1256.76 70.5811 1256.46 70.5059 1256.13 70.5059C1255.74 70.5059 1255.41 70.5833 1255.15 70.7383C1254.89 70.8887 1254.68 71.0938 1254.53 71.3535C1254.38 71.6087 1254.27 71.8936 1254.2 72.208C1254.14 72.5179 1254.1 72.8346 1254.1 73.1582V73.4453C1254.1 73.7689 1254.14 74.0879 1254.2 74.4023C1254.26 74.7168 1254.37 75.0016 1254.52 75.2568C1254.68 75.512 1254.88 75.7171 1255.14 75.8721C1255.41 76.0225 1255.74 76.0977 1256.13 76.0977ZM1264.86 75.7354V71.9277C1264.86 71.6361 1264.8 71.3831 1264.68 71.1689C1264.56 70.9502 1264.39 70.7816 1264.16 70.6631C1263.93 70.5446 1263.64 70.4854 1263.3 70.4854C1262.98 70.4854 1262.7 70.54 1262.46 70.6494C1262.22 70.7588 1262.03 70.9023 1261.9 71.0801C1261.76 71.2578 1261.7 71.4492 1261.7 71.6543H1260.43C1260.43 71.39 1260.5 71.1279 1260.64 70.8682C1260.78 70.6084 1260.97 70.3737 1261.23 70.1641C1261.49 69.9499 1261.8 69.7812 1262.16 69.6582C1262.52 69.5306 1262.93 69.4668 1263.37 69.4668C1263.91 69.4668 1264.38 69.5579 1264.79 69.7402C1265.21 69.9225 1265.53 70.1982 1265.77 70.5674C1266 70.932 1266.12 71.39 1266.12 71.9414V75.3867C1266.12 75.6328 1266.14 75.8949 1266.18 76.1729C1266.23 76.4508 1266.29 76.6901 1266.38 76.8906V77H1265.06C1265 76.8542 1264.95 76.6605 1264.91 76.4189C1264.87 76.1729 1264.86 75.945 1264.86 75.7354ZM1265.08 72.5156L1265.09 73.4043H1263.81C1263.45 73.4043 1263.13 73.4339 1262.85 73.4932C1262.56 73.5479 1262.33 73.6322 1262.14 73.7461C1261.94 73.86 1261.8 74.0036 1261.7 74.1768C1261.6 74.3454 1261.55 74.5436 1261.55 74.7715C1261.55 75.0039 1261.6 75.2158 1261.71 75.4072C1261.81 75.5986 1261.97 75.7513 1262.18 75.8652C1262.39 75.9746 1262.65 76.0293 1262.96 76.0293C1263.35 76.0293 1263.69 75.9473 1263.99 75.7832C1264.28 75.6191 1264.52 75.4186 1264.69 75.1816C1264.87 74.9447 1264.97 74.7145 1264.98 74.4912L1265.52 75.0996C1265.49 75.291 1265.4 75.5029 1265.26 75.7354C1265.12 75.9678 1264.93 76.1911 1264.69 76.4053C1264.46 76.6149 1264.18 76.7904 1263.86 76.9316C1263.54 77.0684 1263.18 77.1367 1262.78 77.1367C1262.28 77.1367 1261.84 77.0387 1261.46 76.8428C1261.09 76.6468 1260.79 76.3848 1260.58 76.0566C1260.38 75.724 1260.28 75.3525 1260.28 74.9424C1260.28 74.5459 1260.35 74.1973 1260.51 73.8965C1260.66 73.5911 1260.89 73.3382 1261.18 73.1377C1261.47 72.9326 1261.82 72.7777 1262.23 72.6729C1262.64 72.568 1263.1 72.5156 1263.61 72.5156H1265.08ZM1271.21 69.6035V70.5742H1267.21V69.6035H1271.21ZM1268.56 67.8057H1269.83V75.168C1269.83 75.4186 1269.86 75.6077 1269.94 75.7354C1270.02 75.863 1270.12 75.9473 1270.24 75.9883C1270.37 76.0293 1270.5 76.0498 1270.64 76.0498C1270.74 76.0498 1270.85 76.0407 1270.97 76.0225C1271.09 75.9997 1271.18 75.9814 1271.23 75.9678L1271.24 77C1271.14 77.0319 1271.01 77.0615 1270.84 77.0889C1270.69 77.1208 1270.49 77.1367 1270.26 77.1367C1269.95 77.1367 1269.67 77.0752 1269.41 76.9521C1269.15 76.8291 1268.94 76.624 1268.79 76.3369C1268.64 76.0452 1268.56 75.6533 1268.56 75.1611V67.8057ZM1275.76 77.1367C1275.24 77.1367 1274.78 77.0501 1274.36 76.877C1273.94 76.6992 1273.59 76.4508 1273.29 76.1318C1272.99 75.8128 1272.76 75.4346 1272.6 74.9971C1272.44 74.5596 1272.36 74.0811 1272.36 73.5615V73.2744C1272.36 72.6729 1272.45 72.1374 1272.63 71.668C1272.81 71.194 1273.05 70.793 1273.35 70.4648C1273.66 70.1367 1274.01 69.8883 1274.39 69.7197C1274.78 69.5511 1275.18 69.4668 1275.6 69.4668C1276.12 69.4668 1276.58 69.5579 1276.96 69.7402C1277.35 69.9225 1277.67 70.1777 1277.91 70.5059C1278.16 70.8294 1278.34 71.2122 1278.46 71.6543C1278.58 72.0918 1278.64 72.5703 1278.64 73.0898V73.6572H1273.11V72.625H1277.37V72.5293C1277.35 72.2012 1277.29 71.8822 1277.17 71.5723C1277.05 71.2624 1276.87 71.0072 1276.62 70.8066C1276.37 70.6061 1276.03 70.5059 1275.6 70.5059C1275.31 70.5059 1275.04 70.5674 1274.8 70.6904C1274.56 70.8089 1274.35 70.9867 1274.18 71.2236C1274.01 71.4606 1273.87 71.75 1273.78 72.0918C1273.68 72.4336 1273.63 72.8278 1273.63 73.2744V73.5615C1273.63 73.9124 1273.68 74.2428 1273.78 74.5527C1273.88 74.8581 1274.02 75.127 1274.21 75.3594C1274.4 75.5918 1274.63 75.7741 1274.9 75.9062C1275.17 76.0384 1275.48 76.1045 1275.83 76.1045C1276.27 76.1045 1276.65 76.0133 1276.96 75.8311C1277.27 75.6488 1277.54 75.4049 1277.78 75.0996L1278.54 75.708C1278.38 75.9495 1278.18 76.1797 1277.93 76.3984C1277.69 76.6172 1277.38 76.7949 1277.02 76.9316C1276.67 77.0684 1276.25 77.1367 1275.76 77.1367Z" fill="#686868"/>
<path d="M1309.5 69H1307V68C1307 66.2 1305.8 65 1304 65C1302.2 65 1301 66.2 1301 68V69H1298.5C1298.2 69 1298 69.2 1298 69.5V76.5C1298 77.9 1299.1 79 1300.5 79H1307.5C1308.9 79 1310 77.9 1310 76.5V69.5C1310 69.2 1309.8 69 1309.5 69ZM1302 68C1302 66.75 1302.75 66 1304 66C1305.25 66 1306 66.75 1306 68V69H1302V68ZM1309 76.5C1309 77.35 1308.35 78 1307.5 78H1300.5C1299.65 78 1299 77.35 1299 76.5V70H1309V76.5Z" fill="#686868"/>
<path d="M1316.92 73.0215V72.9531C1316.92 71.9596 1317.03 71.0618 1317.25 70.2598C1317.47 69.4531 1317.76 68.7467 1318.11 68.1406C1318.45 67.5345 1318.82 67.0332 1319.2 66.6367C1319.58 66.2357 1319.94 65.9463 1320.26 65.7686L1320.53 66.6025C1320.26 66.8076 1319.98 67.0902 1319.71 67.4502C1319.43 67.8102 1319.18 68.2523 1318.95 68.7764C1318.72 69.3005 1318.53 69.9089 1318.39 70.6016C1318.25 71.2943 1318.18 72.0736 1318.18 72.9395V73.0352C1318.18 73.901 1318.25 74.6826 1318.39 75.3799C1318.53 76.0726 1318.72 76.6833 1318.95 77.2119C1319.18 77.7406 1319.43 78.1895 1319.71 78.5586C1319.98 78.9323 1320.26 79.2285 1320.53 79.4473L1320.26 80.2129C1319.94 80.0352 1319.58 79.7458 1319.2 79.3447C1318.82 78.9482 1318.45 78.4469 1318.11 77.8408C1317.76 77.2393 1317.47 76.5352 1317.25 75.7285C1317.03 74.9219 1316.92 74.0195 1316.92 73.0215ZM1327.87 71.2305V72.748C1327.87 73.5638 1327.8 74.252 1327.66 74.8125C1327.51 75.373 1327.3 75.8242 1327.03 76.166C1326.75 76.5078 1326.42 76.7562 1326.04 76.9111C1325.65 77.0615 1325.22 77.1367 1324.74 77.1367C1324.35 77.1367 1324 77.0889 1323.68 76.9932C1323.35 76.8975 1323.06 76.7448 1322.8 76.5352C1322.55 76.321 1322.33 76.043 1322.15 75.7012C1321.96 75.3594 1321.82 74.9447 1321.73 74.457C1321.63 73.9694 1321.58 73.3997 1321.58 72.748V71.2305C1321.58 70.4147 1321.66 69.7311 1321.8 69.1797C1321.95 68.6283 1322.17 68.1862 1322.44 67.8535C1322.71 67.5163 1323.04 67.2747 1323.42 67.1289C1323.81 66.9831 1324.24 66.9102 1324.72 66.9102C1325.11 66.9102 1325.47 66.958 1325.79 67.0537C1326.12 67.1449 1326.41 67.293 1326.66 67.498C1326.92 67.6986 1327.14 67.9674 1327.31 68.3047C1327.5 68.6374 1327.63 69.0452 1327.73 69.5283C1327.83 70.0114 1327.87 70.5788 1327.87 71.2305ZM1326.6 72.9531V71.0186C1326.6 70.5719 1326.58 70.18 1326.52 69.8428C1326.47 69.501 1326.4 69.2093 1326.29 68.9678C1326.19 68.7262 1326.07 68.5303 1325.91 68.3799C1325.76 68.2295 1325.59 68.1201 1325.39 68.0518C1325.19 67.9788 1324.97 67.9424 1324.72 67.9424C1324.42 67.9424 1324.16 67.9993 1323.92 68.1133C1323.69 68.2227 1323.49 68.3981 1323.33 68.6396C1323.18 68.8812 1323.06 69.1979 1322.98 69.5898C1322.9 69.9818 1322.86 70.458 1322.86 71.0186V72.9531C1322.86 73.3997 1322.88 73.7939 1322.93 74.1357C1322.99 74.4775 1323.07 74.7738 1323.17 75.0244C1323.28 75.2705 1323.4 75.4733 1323.55 75.6328C1323.7 75.7923 1323.88 75.9108 1324.07 75.9883C1324.27 76.0612 1324.49 76.0977 1324.74 76.0977C1325.05 76.0977 1325.32 76.0384 1325.55 75.9199C1325.78 75.8014 1325.98 75.6169 1326.13 75.3662C1326.29 75.111 1326.41 74.7852 1326.49 74.3887C1326.56 73.9876 1326.6 73.5091 1326.6 72.9531ZM1332.55 72.9531V73.0215C1332.55 74.0195 1332.44 74.9219 1332.21 75.7285C1331.99 76.5352 1331.71 77.2393 1331.36 77.8408C1331.01 78.4469 1330.65 78.9482 1330.27 79.3447C1329.88 79.7458 1329.53 80.0352 1329.21 80.2129L1328.94 79.4473C1329.21 79.2422 1329.48 78.9551 1329.75 78.5859C1330.03 78.2214 1330.28 77.7702 1330.51 77.2324C1330.75 76.6992 1330.93 76.084 1331.07 75.3867C1331.21 74.6849 1331.29 73.901 1331.29 73.0352V72.9395C1331.29 72.0736 1331.21 71.292 1331.06 70.5947C1330.91 69.8929 1330.71 69.2754 1330.47 68.7422C1330.23 68.209 1329.98 67.7601 1329.71 67.3955C1329.44 67.0264 1329.18 66.7415 1328.94 66.541L1329.21 65.7686C1329.53 65.9463 1329.88 66.2357 1330.27 66.6367C1330.65 67.0332 1331.01 67.5345 1331.36 68.1406C1331.71 68.7467 1331.99 69.4531 1332.21 70.2598C1332.44 71.0618 1332.55 71.9596 1332.55 72.9531ZM1341.87 67.9287L1338.57 77H1337.23L1341.02 67.0469H1341.89L1341.87 67.9287ZM1344.63 77L1341.33 67.9287L1341.31 67.0469H1342.17L1345.98 77H1344.63ZM1344.46 73.3154V74.3955H1338.87V73.3154H1344.46ZM1348.39 70.7656V77H1347.12V69.6035H1348.35L1348.39 70.7656ZM1350.7 69.5625L1350.69 70.7383C1350.59 70.7155 1350.49 70.7018 1350.39 70.6973C1350.3 70.6882 1350.2 70.6836 1350.08 70.6836C1349.79 70.6836 1349.53 70.7292 1349.3 70.8203C1349.08 70.9115 1348.89 71.0391 1348.74 71.2031C1348.58 71.3672 1348.46 71.5632 1348.37 71.791C1348.28 72.0143 1348.22 72.2604 1348.2 72.5293L1347.84 72.7344C1347.84 72.2878 1347.89 71.8685 1347.97 71.4766C1348.06 71.0846 1348.2 70.7383 1348.39 70.4375C1348.58 70.1322 1348.81 69.8952 1349.1 69.7266C1349.39 69.5534 1349.74 69.4668 1350.14 69.4668C1350.23 69.4668 1350.33 69.4782 1350.45 69.501C1350.57 69.5192 1350.65 69.5397 1350.7 69.5625ZM1355.31 69.6035V70.5742H1351.31V69.6035H1355.31ZM1352.66 67.8057H1353.93V75.168C1353.93 75.4186 1353.96 75.6077 1354.04 75.7354C1354.12 75.863 1354.22 75.9473 1354.34 75.9883C1354.47 76.0293 1354.6 76.0498 1354.74 76.0498C1354.84 76.0498 1354.95 76.0407 1355.07 76.0225C1355.19 75.9997 1355.27 75.9814 1355.33 75.9678L1355.34 77C1355.24 77.0319 1355.11 77.0615 1354.94 77.0889C1354.78 77.1208 1354.59 77.1367 1354.36 77.1367C1354.05 77.1367 1353.77 77.0752 1353.51 76.9521C1353.25 76.8291 1353.04 76.624 1352.89 76.3369C1352.74 76.0452 1352.66 75.6533 1352.66 75.1611V67.8057ZM1356.81 76.3301C1356.81 76.1159 1356.88 75.9359 1357.01 75.79C1357.15 75.6396 1357.34 75.5645 1357.6 75.5645C1357.85 75.5645 1358.05 75.6396 1358.18 75.79C1358.31 75.9359 1358.38 76.1159 1358.38 76.3301C1358.38 76.5397 1358.31 76.7174 1358.18 76.8633C1358.05 77.0091 1357.85 77.082 1357.6 77.082C1357.34 77.082 1357.15 77.0091 1357.01 76.8633C1356.88 76.7174 1356.81 76.5397 1356.81 76.3301ZM1370.07 71.2305V72.748C1370.07 73.5638 1369.99 74.252 1369.85 74.8125C1369.7 75.373 1369.49 75.8242 1369.22 76.166C1368.94 76.5078 1368.61 76.7562 1368.23 76.9111C1367.84 77.0615 1367.41 77.1367 1366.93 77.1367C1366.54 77.1367 1366.19 77.0889 1365.87 76.9932C1365.54 76.8975 1365.25 76.7448 1364.99 76.5352C1364.74 76.321 1364.52 76.043 1364.34 75.7012C1364.15 75.3594 1364.02 74.9447 1363.92 74.457C1363.82 73.9694 1363.78 73.3997 1363.78 72.748V71.2305C1363.78 70.4147 1363.85 69.7311 1364 69.1797C1364.15 68.6283 1364.36 68.1862 1364.63 67.8535C1364.9 67.5163 1365.23 67.2747 1365.62 67.1289C1366 66.9831 1366.44 66.9102 1366.91 66.9102C1367.3 66.9102 1367.66 66.958 1367.98 67.0537C1368.31 67.1449 1368.6 67.293 1368.86 67.498C1369.11 67.6986 1369.33 67.9674 1369.5 68.3047C1369.69 68.6374 1369.83 69.0452 1369.92 69.5283C1370.02 70.0114 1370.07 70.5788 1370.07 71.2305ZM1368.79 72.9531V71.0186C1368.79 70.5719 1368.77 70.18 1368.71 69.8428C1368.66 69.501 1368.59 69.2093 1368.49 68.9678C1368.39 68.7262 1368.26 68.5303 1368.1 68.3799C1367.95 68.2295 1367.78 68.1201 1367.58 68.0518C1367.38 67.9788 1367.16 67.9424 1366.91 67.9424C1366.61 67.9424 1366.35 67.9993 1366.11 68.1133C1365.88 68.2227 1365.69 68.3981 1365.53 68.6396C1365.37 68.8812 1365.25 69.1979 1365.17 69.5898C1365.09 69.9818 1365.05 70.458 1365.05 71.0186V72.9531C1365.05 73.3997 1365.07 73.7939 1365.12 74.1357C1365.18 74.4775 1365.26 74.7738 1365.36 75.0244C1365.47 75.2705 1365.59 75.4733 1365.75 75.6328C1365.9 75.7923 1366.07 75.9108 1366.26 75.9883C1366.47 76.0612 1366.69 76.0977 1366.93 76.0977C1367.24 76.0977 1367.51 76.0384 1367.74 75.9199C1367.97 75.8014 1368.17 75.6169 1368.32 75.3662C1368.48 75.111 1368.6 74.7852 1368.68 74.3887C1368.76 73.9876 1368.79 73.5091 1368.79 72.9531ZM1372.98 75.4961V76.5146C1372.98 76.9294 1372.87 77.3669 1372.66 77.8271C1372.45 78.292 1372.16 78.6794 1371.78 78.9893L1371.06 78.4902C1371.21 78.2897 1371.33 78.0846 1371.43 77.875C1371.53 77.6699 1371.61 77.4557 1371.66 77.2324C1371.71 77.0137 1371.74 76.7812 1371.74 76.5352V75.4961H1372.98ZM1380.7 71.2305V72.748C1380.7 73.5638 1380.63 74.252 1380.48 74.8125C1380.34 75.373 1380.13 75.8242 1379.85 76.166C1379.58 76.5078 1379.25 76.7562 1378.86 76.9111C1378.48 77.0615 1378.05 77.1367 1377.56 77.1367C1377.18 77.1367 1376.83 77.0889 1376.5 76.9932C1376.18 76.8975 1375.89 76.7448 1375.63 76.5352C1375.37 76.321 1375.16 76.043 1374.97 75.7012C1374.79 75.3594 1374.65 74.9447 1374.56 74.457C1374.46 73.9694 1374.41 73.3997 1374.41 72.748V71.2305C1374.41 70.4147 1374.49 69.7311 1374.63 69.1797C1374.78 68.6283 1374.99 68.1862 1375.27 67.8535C1375.54 67.5163 1375.87 67.2747 1376.25 67.1289C1376.64 66.9831 1377.07 66.9102 1377.55 66.9102C1377.94 66.9102 1378.29 66.958 1378.62 67.0537C1378.95 67.1449 1379.24 67.293 1379.49 67.498C1379.75 67.6986 1379.96 67.9674 1380.14 68.3047C1380.32 68.6374 1380.46 69.0452 1380.56 69.5283C1380.65 70.0114 1380.7 70.5788 1380.7 71.2305ZM1379.43 72.9531V71.0186C1379.43 70.5719 1379.4 70.18 1379.35 69.8428C1379.3 69.501 1379.22 69.2093 1379.12 68.9678C1379.02 68.7262 1378.9 68.5303 1378.74 68.3799C1378.59 68.2295 1378.41 68.1201 1378.21 68.0518C1378.02 67.9788 1377.8 67.9424 1377.55 67.9424C1377.25 67.9424 1376.98 67.9993 1376.75 68.1133C1376.52 68.2227 1376.32 68.3981 1376.16 68.6396C1376.01 68.8812 1375.89 69.1979 1375.81 69.5898C1375.73 69.9818 1375.68 70.458 1375.68 71.0186V72.9531C1375.68 73.3997 1375.71 73.7939 1375.76 74.1357C1375.81 74.4775 1375.89 74.7738 1376 75.0244C1376.1 75.2705 1376.23 75.4733 1376.38 75.6328C1376.53 75.7923 1376.71 75.9108 1376.9 75.9883C1377.1 76.0612 1377.32 76.0977 1377.56 76.0977C1377.87 76.0977 1378.15 76.0384 1378.38 75.9199C1378.61 75.8014 1378.8 75.6169 1378.96 75.3662C1379.12 75.111 1379.24 74.7852 1379.31 74.3887C1379.39 73.9876 1379.43 73.5091 1379.43 72.9531ZM1388.58 71.2305V72.748C1388.58 73.5638 1388.5 74.252 1388.36 74.8125C1388.21 75.373 1388 75.8242 1387.73 76.166C1387.46 76.5078 1387.13 76.7562 1386.74 76.9111C1386.36 77.0615 1385.92 77.1367 1385.44 77.1367C1385.06 77.1367 1384.7 77.0889 1384.38 76.9932C1384.06 76.8975 1383.76 76.7448 1383.5 76.5352C1383.25 76.321 1383.03 76.043 1382.85 75.7012C1382.67 75.3594 1382.53 74.9447 1382.43 74.457C1382.34 73.9694 1382.29 73.3997 1382.29 72.748V71.2305C1382.29 70.4147 1382.36 69.7311 1382.51 69.1797C1382.66 68.6283 1382.87 68.1862 1383.14 67.8535C1383.42 67.5163 1383.74 67.2747 1384.13 67.1289C1384.51 66.9831 1384.95 66.9102 1385.43 66.9102C1385.81 66.9102 1386.17 66.958 1386.49 67.0537C1386.82 67.1449 1387.11 67.293 1387.37 67.498C1387.62 67.6986 1387.84 67.9674 1388.02 68.3047C1388.2 68.6374 1388.34 69.0452 1388.43 69.5283C1388.53 70.0114 1388.58 70.5788 1388.58 71.2305ZM1387.31 72.9531V71.0186C1387.31 70.5719 1387.28 70.18 1387.22 69.8428C1387.17 69.501 1387.1 69.2093 1387 68.9678C1386.9 68.7262 1386.77 68.5303 1386.62 68.3799C1386.46 68.2295 1386.29 68.1201 1386.09 68.0518C1385.89 67.9788 1385.67 67.9424 1385.43 67.9424C1385.12 67.9424 1384.86 67.9993 1384.63 68.1133C1384.39 68.2227 1384.2 68.3981 1384.04 68.6396C1383.88 68.8812 1383.76 69.1979 1383.68 69.5898C1383.6 69.9818 1383.56 70.458 1383.56 71.0186V72.9531C1383.56 73.3997 1383.58 73.7939 1383.63 74.1357C1383.69 74.4775 1383.77 74.7738 1383.87 75.0244C1383.98 75.2705 1384.11 75.4733 1384.26 75.6328C1384.41 75.7923 1384.58 75.9108 1384.78 75.9883C1384.98 76.0612 1385.2 76.0977 1385.44 76.0977C1385.75 76.0977 1386.02 76.0384 1386.25 75.9199C1386.49 75.8014 1386.68 75.6169 1386.83 75.3662C1386.99 75.111 1387.11 74.7852 1387.19 74.3887C1387.27 73.9876 1387.31 73.5091 1387.31 72.9531ZM1394.95 76.0703C1395.21 76.0703 1395.47 76.0498 1395.72 76.0088C1395.97 75.9678 1396.21 75.9108 1396.44 75.8379L1396.58 76.9316C1396.32 76.9954 1396.05 77.0456 1395.78 77.082C1395.5 77.1185 1395.22 77.1367 1394.93 77.1367C1394.39 77.1367 1393.9 77.0547 1393.44 76.8906C1392.99 76.722 1392.6 76.4736 1392.28 76.1455C1391.95 75.8128 1391.69 75.4004 1391.51 74.9082C1391.33 74.4115 1391.24 73.8327 1391.24 73.1719V70.8955C1391.24 70.2301 1391.33 69.6491 1391.51 69.1523C1391.69 68.6556 1391.94 68.2409 1392.27 67.9082C1392.6 67.5755 1392.98 67.3271 1393.43 67.1631C1393.88 66.9945 1394.38 66.9102 1394.93 66.9102C1395.21 66.9102 1395.49 66.9307 1395.75 66.9717C1396.02 67.0081 1396.3 67.0583 1396.58 67.1221L1396.44 68.2227C1396.22 68.1497 1395.98 68.0928 1395.72 68.0518C1395.47 68.0062 1395.21 67.9834 1394.94 67.9834C1394.58 67.9834 1394.25 68.0426 1393.95 68.1611C1393.66 68.2796 1393.41 68.4574 1393.2 68.6943C1392.99 68.9313 1392.84 69.2321 1392.73 69.5967C1392.62 69.9613 1392.56 70.3896 1392.56 70.8818V73.1719C1392.56 73.6641 1392.62 74.0924 1392.73 74.457C1392.84 74.8216 1393 75.1224 1393.21 75.3594C1393.42 75.5964 1393.67 75.7741 1393.96 75.8926C1394.26 76.0111 1394.59 76.0703 1394.95 76.0703ZM1395.19 70.6631V71.5176H1390.03V70.6631H1395.19ZM1395.19 72.4473V73.2949H1390.03V72.4473H1395.19Z" fill="#686868"/>
<defs>
<clipPath id="clip0_17082_9028">
<rect width="136.75" height="56" fill="white" transform="translate(681.625 44)"/>
</clipPath>
</defs>
</svg>
