<svg width="1500" height="124" viewBox="0 0 1500 124" fill="none" xmlns="http://www.w3.org/2000/svg">
<rect width="1500" height="124" fill="white"/>
<rect width="1500" height="28" fill="#F4F4F4"/>
<path d="M541.205 14L545.205 18L544.5 18.705L539.795 14L544.5 9.29498L545.205 9.99998L541.205 14Z" fill="#686868"/>
<path d="M680.349 9.04688H681.627L684.888 17.1611L688.142 9.04688H689.427L685.38 19H684.382L680.349 9.04688ZM679.932 9.04688H681.06L681.244 15.1172V19H679.932V9.04688ZM688.709 9.04688H689.837V19H688.524V15.1172L688.709 9.04688ZM695.032 19.1367C694.517 19.1367 694.05 19.0501 693.631 18.877C693.216 18.6992 692.858 18.4508 692.558 18.1318C692.261 17.8128 692.034 17.4346 691.874 16.9971C691.715 16.5596 691.635 16.0811 691.635 15.5615V15.2744C691.635 14.6729 691.724 14.1374 691.901 13.668C692.079 13.194 692.321 12.793 692.626 12.4648C692.931 12.1367 693.278 11.8883 693.665 11.7197C694.052 11.5511 694.453 11.4668 694.868 11.4668C695.397 11.4668 695.853 11.5579 696.235 11.7402C696.623 11.9225 696.939 12.1777 697.186 12.5059C697.432 12.8294 697.614 13.2122 697.732 13.6543C697.851 14.0918 697.91 14.5703 697.91 15.0898V15.6572H692.387V14.625H696.646V14.5293C696.627 14.2012 696.559 13.8822 696.44 13.5723C696.326 13.2624 696.144 13.0072 695.894 12.8066C695.643 12.6061 695.301 12.5059 694.868 12.5059C694.581 12.5059 694.317 12.5674 694.075 12.6904C693.834 12.8089 693.626 12.9867 693.453 13.2236C693.28 13.4606 693.146 13.75 693.05 14.0918C692.954 14.4336 692.906 14.8278 692.906 15.2744V15.5615C692.906 15.9124 692.954 16.2428 693.05 16.5527C693.15 16.8581 693.294 17.127 693.48 17.3594C693.672 17.5918 693.902 17.7741 694.171 17.9062C694.444 18.0384 694.754 18.1045 695.101 18.1045C695.547 18.1045 695.925 18.0133 696.235 17.8311C696.545 17.6488 696.816 17.4049 697.049 17.0996L697.814 17.708C697.655 17.9495 697.452 18.1797 697.206 18.3984C696.96 18.6172 696.657 18.7949 696.297 18.9316C695.941 19.0684 695.52 19.1367 695.032 19.1367ZM700.651 13.1826V19H699.387V11.6035H700.583L700.651 13.1826ZM700.351 15.0215L699.824 15.001C699.829 14.4951 699.904 14.028 700.05 13.5996C700.196 13.1667 700.401 12.7907 700.665 12.4717C700.929 12.1527 701.244 11.9066 701.608 11.7334C701.978 11.5557 702.385 11.4668 702.832 11.4668C703.197 11.4668 703.525 11.5169 703.816 11.6172C704.108 11.7129 704.356 11.8678 704.562 12.082C704.771 12.2962 704.931 12.5742 705.04 12.916C705.149 13.2533 705.204 13.6657 705.204 14.1533V19H703.933V14.1396C703.933 13.7523 703.876 13.4424 703.762 13.21C703.648 12.973 703.481 12.8021 703.263 12.6973C703.044 12.5879 702.775 12.5332 702.456 12.5332C702.142 12.5332 701.854 12.5993 701.595 12.7314C701.34 12.8636 701.118 13.0459 700.932 13.2783C700.749 13.5107 700.606 13.7773 700.501 14.0781C700.401 14.3743 700.351 14.6888 700.351 15.0215ZM711.432 17.0381C711.432 16.8558 711.391 16.6872 711.309 16.5322C711.231 16.3727 711.069 16.2292 710.823 16.1016C710.582 15.9694 710.217 15.8555 709.729 15.7598C709.319 15.6732 708.948 15.5706 708.615 15.4521C708.287 15.3337 708.007 15.1901 707.774 15.0215C707.547 14.8529 707.371 14.6546 707.248 14.4268C707.125 14.1989 707.063 13.9323 707.063 13.627C707.063 13.3353 707.127 13.0596 707.255 12.7998C707.387 12.54 707.572 12.3099 707.809 12.1094C708.05 11.9089 708.34 11.7516 708.677 11.6377C709.014 11.5238 709.39 11.4668 709.805 11.4668C710.397 11.4668 710.903 11.5716 711.322 11.7812C711.742 11.9909 712.063 12.2712 712.286 12.6221C712.509 12.9684 712.621 13.3535 712.621 13.7773H711.356C711.356 13.5723 711.295 13.374 711.172 13.1826C711.053 12.9867 710.878 12.8249 710.646 12.6973C710.418 12.5697 710.137 12.5059 709.805 12.5059C709.454 12.5059 709.169 12.5605 708.95 12.6699C708.736 12.7747 708.579 12.9092 708.479 13.0732C708.383 13.2373 708.335 13.4105 708.335 13.5928C708.335 13.7295 708.358 13.8525 708.403 13.9619C708.453 14.0667 708.54 14.1647 708.663 14.2559C708.786 14.3424 708.959 14.4245 709.183 14.502C709.406 14.5794 709.691 14.6569 710.037 14.7344C710.643 14.8711 711.142 15.0352 711.534 15.2266C711.926 15.418 712.218 15.6527 712.409 15.9307C712.601 16.2087 712.696 16.5459 712.696 16.9424C712.696 17.266 712.628 17.5622 712.491 17.8311C712.359 18.0999 712.165 18.3324 711.91 18.5283C711.66 18.7197 711.359 18.8701 711.008 18.9795C710.661 19.0843 710.272 19.1367 709.839 19.1367C709.187 19.1367 708.636 19.0205 708.185 18.7881C707.733 18.5557 707.392 18.2549 707.159 17.8857C706.927 17.5166 706.811 17.127 706.811 16.7168H708.082C708.1 17.0632 708.201 17.3389 708.383 17.5439C708.565 17.7445 708.788 17.888 709.053 17.9746C709.317 18.0566 709.579 18.0977 709.839 18.0977C710.185 18.0977 710.475 18.0521 710.707 17.9609C710.944 17.8698 711.124 17.7445 711.247 17.585C711.37 17.4255 711.432 17.2432 711.432 17.0381ZM718.719 17.7354V13.9277C718.719 13.6361 718.66 13.3831 718.541 13.1689C718.427 12.9502 718.254 12.7816 718.021 12.6631C717.789 12.5446 717.502 12.4854 717.16 12.4854C716.841 12.4854 716.561 12.54 716.319 12.6494C716.082 12.7588 715.896 12.9023 715.759 13.0801C715.627 13.2578 715.561 13.4492 715.561 13.6543H714.296C714.296 13.39 714.364 13.1279 714.501 12.8682C714.638 12.6084 714.834 12.3737 715.089 12.1641C715.349 11.9499 715.659 11.7812 716.019 11.6582C716.383 11.5306 716.789 11.4668 717.235 11.4668C717.773 11.4668 718.247 11.5579 718.657 11.7402C719.072 11.9225 719.396 12.1982 719.628 12.5674C719.865 12.932 719.983 13.39 719.983 13.9414V17.3867C719.983 17.6328 720.004 17.8949 720.045 18.1729C720.09 18.4508 720.157 18.6901 720.243 18.8906V19H718.924C718.86 18.8542 718.81 18.6605 718.773 18.4189C718.737 18.1729 718.719 17.945 718.719 17.7354ZM718.938 14.5156L718.951 15.4043H717.673C717.313 15.4043 716.992 15.4339 716.709 15.4932C716.426 15.5479 716.189 15.6322 715.998 15.7461C715.807 15.86 715.661 16.0036 715.561 16.1768C715.46 16.3454 715.41 16.5436 715.41 16.7715C715.41 17.0039 715.463 17.2158 715.567 17.4072C715.672 17.5986 715.829 17.7513 716.039 17.8652C716.253 17.9746 716.515 18.0293 716.825 18.0293C717.213 18.0293 717.554 17.9473 717.851 17.7832C718.147 17.6191 718.382 17.4186 718.555 17.1816C718.732 16.9447 718.828 16.7145 718.842 16.4912L719.382 17.0996C719.35 17.291 719.263 17.5029 719.122 17.7354C718.981 17.9678 718.792 18.1911 718.555 18.4053C718.322 18.6149 718.044 18.7904 717.721 18.9316C717.402 19.0684 717.042 19.1367 716.641 19.1367C716.139 19.1367 715.7 19.0387 715.321 18.8428C714.948 18.6468 714.656 18.3848 714.446 18.0566C714.241 17.724 714.139 17.3525 714.139 16.9424C714.139 16.5459 714.216 16.1973 714.371 15.8965C714.526 15.5911 714.749 15.3382 715.041 15.1377C715.333 14.9326 715.684 14.7777 716.094 14.6729C716.504 14.568 716.962 14.5156 717.468 14.5156H718.938ZM722.007 11.6035H723.278V19.8818C723.278 20.333 723.205 20.7158 723.06 21.0303C722.918 21.3447 722.704 21.5817 722.417 21.7412C722.134 21.9053 721.777 21.9873 721.344 21.9873C721.23 21.9873 721.098 21.9759 720.947 21.9531C720.792 21.9303 720.662 21.903 720.558 21.8711L720.564 20.8525C720.651 20.8708 720.749 20.8844 720.858 20.8936C720.968 20.9072 721.063 20.9141 721.146 20.9141C721.332 20.9141 721.49 20.8799 721.617 20.8115C721.745 20.7432 721.84 20.6338 721.904 20.4834C721.973 20.333 722.007 20.1325 722.007 19.8818V11.6035ZM721.877 9.6416C721.877 9.43652 721.941 9.26335 722.068 9.12207C722.196 8.98079 722.381 8.91016 722.622 8.91016C722.868 8.91016 723.055 8.98079 723.183 9.12207C723.31 9.26335 723.374 9.43652 723.374 9.6416C723.374 9.83757 723.31 10.0062 723.183 10.1475C723.055 10.2842 722.868 10.3525 722.622 10.3525C722.381 10.3525 722.196 10.2842 722.068 10.1475C721.941 10.0062 721.877 9.83757 721.877 9.6416ZM728.392 19.1367C727.877 19.1367 727.41 19.0501 726.99 18.877C726.576 18.6992 726.218 18.4508 725.917 18.1318C725.621 17.8128 725.393 17.4346 725.233 16.9971C725.074 16.5596 724.994 16.0811 724.994 15.5615V15.2744C724.994 14.6729 725.083 14.1374 725.261 13.668C725.438 13.194 725.68 12.793 725.985 12.4648C726.291 12.1367 726.637 11.8883 727.024 11.7197C727.412 11.5511 727.813 11.4668 728.228 11.4668C728.756 11.4668 729.212 11.5579 729.595 11.7402C729.982 11.9225 730.299 12.1777 730.545 12.5059C730.791 12.8294 730.973 13.2122 731.092 13.6543C731.21 14.0918 731.27 14.5703 731.27 15.0898V15.6572H725.746V14.625H730.005V14.5293C729.987 14.2012 729.918 13.8822 729.8 13.5723C729.686 13.2624 729.504 13.0072 729.253 12.8066C729.002 12.6061 728.66 12.5059 728.228 12.5059C727.94 12.5059 727.676 12.5674 727.435 12.6904C727.193 12.8089 726.986 12.9867 726.812 13.2236C726.639 13.4606 726.505 13.75 726.409 14.0918C726.313 14.4336 726.266 14.8278 726.266 15.2744V15.5615C726.266 15.9124 726.313 16.2428 726.409 16.5527C726.509 16.8581 726.653 17.127 726.84 17.3594C727.031 17.5918 727.261 17.7741 727.53 17.9062C727.804 18.0384 728.114 18.1045 728.46 18.1045C728.907 18.1045 729.285 18.0133 729.595 17.8311C729.905 17.6488 730.176 17.4049 730.408 17.0996L731.174 17.708C731.014 17.9495 730.812 18.1797 730.565 18.3984C730.319 18.6172 730.016 18.7949 729.656 18.9316C729.301 19.0684 728.879 19.1367 728.392 19.1367ZM740.881 17.5645V8.5H742.152V19H740.99L740.881 17.5645ZM735.904 15.3838V15.2402C735.904 14.6751 735.973 14.1624 736.109 13.7021C736.251 13.2373 736.449 12.8385 736.704 12.5059C736.964 12.1732 737.271 11.918 737.627 11.7402C737.987 11.5579 738.388 11.4668 738.83 11.4668C739.295 11.4668 739.701 11.5488 740.047 11.7129C740.398 11.8724 740.694 12.1071 740.936 12.417C741.182 12.7223 741.375 13.0915 741.517 13.5244C741.658 13.9574 741.756 14.4473 741.811 14.9941V15.623C741.76 16.1654 741.662 16.653 741.517 17.0859C741.375 17.5189 741.182 17.888 740.936 18.1934C740.694 18.4987 740.398 18.7334 740.047 18.8975C739.696 19.057 739.286 19.1367 738.816 19.1367C738.383 19.1367 737.987 19.0433 737.627 18.8564C737.271 18.6696 736.964 18.4076 736.704 18.0703C736.449 17.7331 736.251 17.3366 736.109 16.8809C735.973 16.4206 735.904 15.9215 735.904 15.3838ZM737.176 15.2402V15.3838C737.176 15.7529 737.212 16.0993 737.285 16.4229C737.363 16.7464 737.481 17.0312 737.641 17.2773C737.8 17.5234 738.003 17.7171 738.249 17.8584C738.495 17.9951 738.789 18.0635 739.131 18.0635C739.55 18.0635 739.894 17.9746 740.163 17.7969C740.437 17.6191 740.655 17.3844 740.819 17.0928C740.983 16.8011 741.111 16.4844 741.202 16.1426V14.4951C741.147 14.2445 741.068 14.0029 740.963 13.7705C740.863 13.5335 740.73 13.3239 740.566 13.1416C740.407 12.9548 740.209 12.8066 739.972 12.6973C739.739 12.5879 739.464 12.5332 739.145 12.5332C738.798 12.5332 738.5 12.6061 738.249 12.752C738.003 12.8932 737.8 13.0892 737.641 13.3398C737.481 13.5859 737.363 13.873 737.285 14.2012C737.212 14.5247 737.176 14.8711 737.176 15.2402ZM747.19 19.1367C746.675 19.1367 746.208 19.0501 745.789 18.877C745.374 18.6992 745.017 18.4508 744.716 18.1318C744.42 17.8128 744.192 17.4346 744.032 16.9971C743.873 16.5596 743.793 16.0811 743.793 15.5615V15.2744C743.793 14.6729 743.882 14.1374 744.06 13.668C744.237 13.194 744.479 12.793 744.784 12.4648C745.09 12.1367 745.436 11.8883 745.823 11.7197C746.211 11.5511 746.612 11.4668 747.026 11.4668C747.555 11.4668 748.011 11.5579 748.394 11.7402C748.781 11.9225 749.098 12.1777 749.344 12.5059C749.59 12.8294 749.772 13.2122 749.891 13.6543C750.009 14.0918 750.068 14.5703 750.068 15.0898V15.6572H744.545V14.625H748.804V14.5293C748.785 14.2012 748.717 13.8822 748.599 13.5723C748.485 13.2624 748.302 13.0072 748.052 12.8066C747.801 12.6061 747.459 12.5059 747.026 12.5059C746.739 12.5059 746.475 12.5674 746.233 12.6904C745.992 12.8089 745.785 12.9867 745.611 13.2236C745.438 13.4606 745.304 13.75 745.208 14.0918C745.112 14.4336 745.064 14.8278 745.064 15.2744V15.5615C745.064 15.9124 745.112 16.2428 745.208 16.5527C745.308 16.8581 745.452 17.127 745.639 17.3594C745.83 17.5918 746.06 17.7741 746.329 17.9062C746.603 18.0384 746.912 18.1045 747.259 18.1045C747.705 18.1045 748.084 18.0133 748.394 17.8311C748.703 17.6488 748.975 17.4049 749.207 17.0996L749.973 17.708C749.813 17.9495 749.61 18.1797 749.364 18.3984C749.118 18.6172 748.815 18.7949 748.455 18.9316C748.1 19.0684 747.678 19.1367 747.19 19.1367ZM756.282 13.0254V21.8438H755.011V11.6035H756.173L756.282 13.0254ZM761.266 15.2402V15.3838C761.266 15.9215 761.202 16.4206 761.074 16.8809C760.947 17.3366 760.76 17.7331 760.514 18.0703C760.272 18.4076 759.974 18.6696 759.618 18.8564C759.263 19.0433 758.855 19.1367 758.395 19.1367C757.925 19.1367 757.51 19.0592 757.15 18.9043C756.79 18.7493 756.485 18.5238 756.234 18.2275C755.984 17.9313 755.783 17.5758 755.633 17.1611C755.487 16.7464 755.387 16.2793 755.332 15.7598V14.9941C755.387 14.4473 755.489 13.9574 755.64 13.5244C755.79 13.0915 755.988 12.7223 756.234 12.417C756.485 12.1071 756.788 11.8724 757.144 11.7129C757.499 11.5488 757.909 11.4668 758.374 11.4668C758.839 11.4668 759.251 11.5579 759.611 11.7402C759.971 11.918 760.274 12.1732 760.521 12.5059C760.767 12.8385 760.951 13.2373 761.074 13.7021C761.202 14.1624 761.266 14.6751 761.266 15.2402ZM759.994 15.3838V15.2402C759.994 14.8711 759.955 14.5247 759.878 14.2012C759.8 13.873 759.68 13.5859 759.516 13.3398C759.356 13.0892 759.151 12.8932 758.9 12.752C758.65 12.6061 758.351 12.5332 758.005 12.5332C757.686 12.5332 757.408 12.5879 757.171 12.6973C756.938 12.8066 756.74 12.9548 756.576 13.1416C756.412 13.3239 756.278 13.5335 756.173 13.7705C756.073 14.0029 755.997 14.2445 755.947 14.4951V16.2656C756.038 16.5846 756.166 16.8854 756.33 17.168C756.494 17.446 756.713 17.6715 756.986 17.8447C757.26 18.0133 757.604 18.0977 758.019 18.0977C758.36 18.0977 758.654 18.027 758.9 17.8857C759.151 17.7399 759.356 17.5417 759.516 17.291C759.68 17.0404 759.8 16.7533 759.878 16.4297C759.955 16.1016 759.994 15.7529 759.994 15.3838ZM764.144 12.7656V19H762.879V11.6035H764.109L764.144 12.7656ZM766.454 11.5625L766.447 12.7383C766.342 12.7155 766.242 12.7018 766.146 12.6973C766.055 12.6882 765.951 12.6836 765.832 12.6836C765.54 12.6836 765.283 12.7292 765.06 12.8203C764.836 12.9115 764.647 13.0391 764.492 13.2031C764.337 13.3672 764.214 13.5632 764.123 13.791C764.036 14.0143 763.979 14.2604 763.952 14.5293L763.597 14.7344C763.597 14.2878 763.64 13.8685 763.727 13.4766C763.818 13.0846 763.957 12.7383 764.144 12.4375C764.33 12.1322 764.567 11.8952 764.854 11.7266C765.146 11.5534 765.493 11.4668 765.894 11.4668C765.985 11.4668 766.09 11.4782 766.208 11.501C766.326 11.5192 766.409 11.5397 766.454 11.5625ZM767.151 15.3838V15.2266C767.151 14.6934 767.229 14.1989 767.384 13.7432C767.539 13.2829 767.762 12.8841 768.054 12.5469C768.345 12.2051 768.699 11.9408 769.113 11.7539C769.528 11.5625 769.993 11.4668 770.508 11.4668C771.027 11.4668 771.494 11.5625 771.909 11.7539C772.328 11.9408 772.684 12.2051 772.976 12.5469C773.272 12.8841 773.497 13.2829 773.652 13.7432C773.807 14.1989 773.885 14.6934 773.885 15.2266V15.3838C773.885 15.917 773.807 16.4115 773.652 16.8672C773.497 17.3229 773.272 17.7217 772.976 18.0635C772.684 18.4007 772.331 18.665 771.916 18.8564C771.506 19.0433 771.041 19.1367 770.521 19.1367C770.002 19.1367 769.535 19.0433 769.12 18.8564C768.705 18.665 768.35 18.4007 768.054 18.0635C767.762 17.7217 767.539 17.3229 767.384 16.8672C767.229 16.4115 767.151 15.917 767.151 15.3838ZM768.416 15.2266V15.3838C768.416 15.7529 768.459 16.1016 768.546 16.4297C768.632 16.7533 768.762 17.0404 768.936 17.291C769.113 17.5417 769.334 17.7399 769.599 17.8857C769.863 18.027 770.171 18.0977 770.521 18.0977C770.868 18.0977 771.171 18.027 771.431 17.8857C771.695 17.7399 771.914 17.5417 772.087 17.291C772.26 17.0404 772.39 16.7533 772.477 16.4297C772.568 16.1016 772.613 15.7529 772.613 15.3838V15.2266C772.613 14.862 772.568 14.5179 772.477 14.1943C772.39 13.8662 772.258 13.5768 772.08 13.3262C771.907 13.071 771.688 12.8704 771.424 12.7246C771.164 12.5788 770.859 12.5059 770.508 12.5059C770.161 12.5059 769.856 12.5788 769.592 12.7246C769.332 12.8704 769.113 13.071 768.936 13.3262C768.762 13.5768 768.632 13.8662 768.546 14.1943C768.459 14.5179 768.416 14.862 768.416 15.2266ZM776.729 13.0732V19H775.457V11.6035H776.66L776.729 13.0732ZM776.469 15.0215L775.881 15.001C775.885 14.4951 775.951 14.028 776.079 13.5996C776.207 13.1667 776.396 12.7907 776.646 12.4717C776.897 12.1527 777.209 11.9066 777.583 11.7334C777.957 11.5557 778.39 11.4668 778.882 11.4668C779.228 11.4668 779.547 11.5169 779.839 11.6172C780.131 11.7129 780.383 11.8656 780.598 12.0752C780.812 12.2848 780.978 12.5537 781.097 12.8818C781.215 13.21 781.274 13.6064 781.274 14.0713V19H780.01V14.1328C780.01 13.7454 779.944 13.4355 779.812 13.2031C779.684 12.9707 779.502 12.8021 779.265 12.6973C779.028 12.5879 778.75 12.5332 778.431 12.5332C778.057 12.5332 777.745 12.5993 777.494 12.7314C777.243 12.8636 777.043 13.0459 776.893 13.2783C776.742 13.5107 776.633 13.7773 776.564 14.0781C776.501 14.3743 776.469 14.6888 776.469 15.0215ZM781.261 14.3242L780.413 14.584C780.418 14.1784 780.484 13.7887 780.611 13.415C780.743 13.0413 780.933 12.7087 781.179 12.417C781.429 12.1253 781.737 11.8952 782.102 11.7266C782.466 11.5534 782.883 11.4668 783.353 11.4668C783.749 11.4668 784.1 11.5192 784.405 11.624C784.715 11.7288 784.975 11.8906 785.185 12.1094C785.399 12.3236 785.561 12.5993 785.67 12.9365C785.779 13.2738 785.834 13.6748 785.834 14.1396V19H784.562V14.126C784.562 13.7113 784.496 13.39 784.364 13.1621C784.237 12.9297 784.054 12.7679 783.817 12.6768C783.585 12.5811 783.307 12.5332 782.983 12.5332C782.705 12.5332 782.459 12.5811 782.245 12.6768C782.031 12.7725 781.851 12.9046 781.705 13.0732C781.559 13.2373 781.448 13.4264 781.37 13.6406C781.297 13.8548 781.261 14.0827 781.261 14.3242ZM787.413 15.3838V15.2266C787.413 14.6934 787.491 14.1989 787.646 13.7432C787.8 13.2829 788.024 12.8841 788.315 12.5469C788.607 12.2051 788.96 11.9408 789.375 11.7539C789.79 11.5625 790.255 11.4668 790.77 11.4668C791.289 11.4668 791.756 11.5625 792.171 11.7539C792.59 11.9408 792.946 12.2051 793.237 12.5469C793.534 12.8841 793.759 13.2829 793.914 13.7432C794.069 14.1989 794.146 14.6934 794.146 15.2266V15.3838C794.146 15.917 794.069 16.4115 793.914 16.8672C793.759 17.3229 793.534 17.7217 793.237 18.0635C792.946 18.4007 792.592 18.665 792.178 18.8564C791.768 19.0433 791.303 19.1367 790.783 19.1367C790.264 19.1367 789.797 19.0433 789.382 18.8564C788.967 18.665 788.612 18.4007 788.315 18.0635C788.024 17.7217 787.8 17.3229 787.646 16.8672C787.491 16.4115 787.413 15.917 787.413 15.3838ZM788.678 15.2266V15.3838C788.678 15.7529 788.721 16.1016 788.808 16.4297C788.894 16.7533 789.024 17.0404 789.197 17.291C789.375 17.5417 789.596 17.7399 789.86 17.8857C790.125 18.027 790.432 18.0977 790.783 18.0977C791.13 18.0977 791.433 18.027 791.692 17.8857C791.957 17.7399 792.175 17.5417 792.349 17.291C792.522 17.0404 792.652 16.7533 792.738 16.4297C792.829 16.1016 792.875 15.7529 792.875 15.3838V15.2266C792.875 14.862 792.829 14.5179 792.738 14.1943C792.652 13.8662 792.52 13.5768 792.342 13.3262C792.169 13.071 791.95 12.8704 791.686 12.7246C791.426 12.5788 791.12 12.5059 790.77 12.5059C790.423 12.5059 790.118 12.5788 789.854 12.7246C789.594 12.8704 789.375 13.071 789.197 13.3262C789.024 13.5768 788.894 13.8662 788.808 14.1943C788.721 14.5179 788.678 14.862 788.678 15.2266ZM798.692 18.0977C798.993 18.0977 799.271 18.0361 799.526 17.9131C799.782 17.79 799.991 17.6214 800.155 17.4072C800.319 17.1885 800.413 16.9401 800.436 16.6621H801.639C801.616 17.0996 801.468 17.5075 801.194 17.8857C800.925 18.2594 800.572 18.5625 800.135 18.7949C799.697 19.0228 799.216 19.1367 798.692 19.1367C798.136 19.1367 797.651 19.0387 797.236 18.8428C796.826 18.6468 796.484 18.3779 796.211 18.0361C795.942 17.6943 795.739 17.3024 795.603 16.8604C795.47 16.4137 795.404 15.9421 795.404 15.4453V15.1582C795.404 14.6615 795.47 14.1921 795.603 13.75C795.739 13.3034 795.942 12.9092 796.211 12.5674C796.484 12.2256 796.826 11.9567 797.236 11.7607C797.651 11.5648 798.136 11.4668 798.692 11.4668C799.271 11.4668 799.777 11.5853 800.21 11.8223C800.643 12.0547 800.982 12.3737 801.229 12.7793C801.479 13.1803 801.616 13.6361 801.639 14.1465H800.436C800.413 13.8411 800.326 13.5654 800.176 13.3193C800.03 13.0732 799.829 12.8773 799.574 12.7314C799.324 12.5811 799.03 12.5059 798.692 12.5059C798.305 12.5059 797.979 12.5833 797.715 12.7383C797.455 12.8887 797.248 13.0938 797.093 13.3535C796.942 13.6087 796.833 13.8936 796.765 14.208C796.701 14.5179 796.669 14.8346 796.669 15.1582V15.4453C796.669 15.7689 796.701 16.0879 796.765 16.4023C796.828 16.7168 796.936 17.0016 797.086 17.2568C797.241 17.512 797.448 17.7171 797.708 17.8721C797.972 18.0225 798.3 18.0977 798.692 18.0977ZM804.435 11.6035V19H803.163V11.6035H804.435ZM803.067 9.6416C803.067 9.43652 803.129 9.26335 803.252 9.12207C803.38 8.98079 803.566 8.91016 803.812 8.91016C804.054 8.91016 804.239 8.98079 804.366 9.12207C804.498 9.26335 804.564 9.43652 804.564 9.6416C804.564 9.83757 804.498 10.0062 804.366 10.1475C804.239 10.2842 804.054 10.3525 803.812 10.3525C803.566 10.3525 803.38 10.2842 803.252 10.1475C803.129 10.0062 803.067 9.83757 803.067 9.6416ZM806.13 15.3838V15.2266C806.13 14.6934 806.207 14.1989 806.362 13.7432C806.517 13.2829 806.741 12.8841 807.032 12.5469C807.324 12.2051 807.677 11.9408 808.092 11.7539C808.507 11.5625 808.971 11.4668 809.486 11.4668C810.006 11.4668 810.473 11.5625 810.888 11.7539C811.307 11.9408 811.662 12.2051 811.954 12.5469C812.25 12.8841 812.476 13.2829 812.631 13.7432C812.786 14.1989 812.863 14.6934 812.863 15.2266V15.3838C812.863 15.917 812.786 16.4115 812.631 16.8672C812.476 17.3229 812.25 17.7217 811.954 18.0635C811.662 18.4007 811.309 18.665 810.895 18.8564C810.484 19.0433 810.02 19.1367 809.5 19.1367C808.98 19.1367 808.513 19.0433 808.099 18.8564C807.684 18.665 807.328 18.4007 807.032 18.0635C806.741 17.7217 806.517 17.3229 806.362 16.8672C806.207 16.4115 806.13 15.917 806.13 15.3838ZM807.395 15.2266V15.3838C807.395 15.7529 807.438 16.1016 807.524 16.4297C807.611 16.7533 807.741 17.0404 807.914 17.291C808.092 17.5417 808.313 17.7399 808.577 17.8857C808.841 18.027 809.149 18.0977 809.5 18.0977C809.846 18.0977 810.149 18.027 810.409 17.8857C810.674 17.7399 810.892 17.5417 811.065 17.291C811.239 17.0404 811.368 16.7533 811.455 16.4297C811.546 16.1016 811.592 15.7529 811.592 15.3838V15.2266C811.592 14.862 811.546 14.5179 811.455 14.1943C811.368 13.8662 811.236 13.5768 811.059 13.3262C810.885 13.071 810.667 12.8704 810.402 12.7246C810.143 12.5788 809.837 12.5059 809.486 12.5059C809.14 12.5059 808.835 12.5788 808.57 12.7246C808.311 12.8704 808.092 13.071 807.914 13.3262C807.741 13.5768 807.611 13.8662 807.524 14.1943C807.438 14.5179 807.395 14.862 807.395 15.2266ZM808.734 10.5098L810.061 8.5H811.585L809.753 10.5098H808.734ZM815.714 13.1826V19H814.449V11.6035H815.646L815.714 13.1826ZM815.413 15.0215L814.887 15.001C814.891 14.4951 814.966 14.028 815.112 13.5996C815.258 13.1667 815.463 12.7907 815.728 12.4717C815.992 12.1527 816.306 11.9066 816.671 11.7334C817.04 11.5557 817.448 11.4668 817.895 11.4668C818.259 11.4668 818.587 11.5169 818.879 11.6172C819.171 11.7129 819.419 11.8678 819.624 12.082C819.834 12.2962 819.993 12.5742 820.103 12.916C820.212 13.2533 820.267 13.6657 820.267 14.1533V19H818.995V14.1396C818.995 13.7523 818.938 13.4424 818.824 13.21C818.71 12.973 818.544 12.8021 818.325 12.6973C818.106 12.5879 817.838 12.5332 817.519 12.5332C817.204 12.5332 816.917 12.5993 816.657 12.7314C816.402 12.8636 816.181 13.0459 815.994 13.2783C815.812 13.5107 815.668 13.7773 815.563 14.0781C815.463 14.3743 815.413 14.6888 815.413 15.0215Z" fill="#686868"/>
<path d="M960.205 14L955.5 18.705L954.795 18L958.795 14L954.795 9.99998L955.5 9.29498L960.205 14Z" fill="#686868"/>
<g clip-path="url(#clip0_17082_9027)">
<g clip-path="url(#clip1_17082_9027)">
<path d="M222.5 60.0625L219.625 62.9375C217.562 61.5 215.125 60.625 212.375 60.625C204.938 60.625 199.5 66.3125 199.5 74.1875C199.5 81.875 205.062 87.75 212.375 87.75C212.5 87.75 212.562 87.75 212.688 87.75C212.688 87.75 213.625 87.75 214.5 87.9375C215.125 88 215.75 88.1875 216.125 88.375C218.562 89.4375 219.125 91.8125 219.188 92.9375C219.25 95.6875 216.062 97.8125 212.312 97.8125C209 97.8125 205 96.8125 205 91.875H199.375C199.375 99.375 204.312 104 212.312 104C219.062 104 224.438 99.6875 225.062 93.6875C225.375 90.75 224 87 220.938 84.4375C223.5 82 225.062 78.4375 225.062 74.25C225.062 71.875 224.562 69.625 223.625 67.6875L226.875 64.4375L222.5 60.0625ZM212.312 81.5625C208.688 81.5625 205.625 78.875 205.625 74.25C205.625 69.3125 208.688 66.875 212.312 66.875C215.938 66.875 218.875 69.75 218.875 74.25C218.875 78.8125 215.938 81.5625 212.312 81.5625ZM191.938 64.5C190.812 63.3125 189.5 62.375 187.875 61.75C186.312 61.125 184.562 60.75 182.75 60.75C180.875 60.75 179.188 61.0625 177.625 61.75C176.062 62.375 174.75 63.3125 173.562 64.5C172.438 65.6875 171.562 67.125 170.938 68.8125C170.312 70.5 170 72.375 170 74.4375C170 76.5 170.312 78.375 170.938 80.125C171.562 81.8125 172.438 83.25 173.562 84.5C174.688 85.6875 176 86.625 177.562 87.3125C179.125 88 180.875 88.3125 182.75 88.3125C184.625 88.3125 186.375 88 187.938 87.3125C189.5 86.625 190.875 85.6875 192 84.5C193.125 83.3125 194 81.875 194.562 80.125C195.188 78.4375 195.5 76.5625 195.5 74.4375C195.5 72.375 195.188 70.5 194.562 68.8125C193.938 67.125 193.062 65.6875 191.938 64.5ZM188.75 78.0625C188.438 79 188 79.75 187.438 80.3125C186.938 80.875 186.312 81.3125 185.5 81.625C184.688 81.9375 183.812 82.125 182.75 82.125C181.688 82.125 180.812 81.9375 180.062 81.625C179.312 81.3125 178.688 80.875 178.125 80.3125C177.562 79.6875 177.125 78.9375 176.75 78C176.375 77 176.188 75.75 176.188 74.4375C176.188 73.125 176.375 71.875 176.75 70.875C177.125 69.9375 177.562 69.1875 178.125 68.625C178.688 68.0625 179.312 67.625 180.062 67.3125C180.875 67 181.75 66.8125 182.812 66.8125C183.875 66.8125 184.75 67 185.562 67.3125C186.312 67.625 186.938 68.0625 187.438 68.5625C188 69.1875 188.438 69.9375 188.812 70.875C189.188 71.875 189.375 73.0625 189.375 74.4375C189.312 75.8125 189.125 77.0625 188.75 78.0625ZM117.75 81.9375L118.75 86.875C118.062 87.1875 117.062 87.5 115.938 87.8125C114.75 88.125 113.438 88.3125 111.812 88.3125C109.875 88.3125 108.312 88.0625 107 87.5625C105.75 87.0625 104.688 86.3125 103.938 85.3125C103.188 84.3125 102.688 83.1875 102.375 81.75C102.125 80.375 102 78.75 102 77V53.8125L108.188 52.8125V60.9375H117.688V66.125H108.188V77.0625C108.188 79.1875 108.5 80.75 109.188 81.6875C109.875 82.625 111 83.0625 112.688 83.0625C113.812 83.0625 114.812 82.9375 115.688 82.6875C116.562 82.375 117.25 82.125 117.75 81.9375ZM139 60.625C139.5 60.75 139.938 60.875 140.25 60.9375L139.188 66.1875C138.688 66 137.938 65.8125 137.062 65.625C136.125 65.4375 135.125 65.3125 133.875 65.3125C133.188 65.3125 132.438 65.375 131.688 65.5C130.938 65.625 130.375 65.75 130.062 65.875V87.5H123.875V61.9375C125.062 61.5 126.562 61.0625 128.375 60.6875C130.188 60.3125 132.188 60.125 134.375 60.125C134.812 60.125 135.25 60.125 135.812 60.1875C136.375 60.25 136.938 60.3125 137.438 60.375C137.938 60.4375 138.5 60.5625 139 60.625ZM150.25 50.1875C151 50.875 151.375 51.8125 151.375 53.0625C151.375 54.25 151 55.1875 150.25 55.875C149.5 56.5625 148.562 56.9375 147.562 56.9375C146.5 56.9375 145.562 56.5625 144.812 55.875C144.062 55.1875 143.688 54.25 143.688 53.0625C143.688 51.875 144.062 50.875 144.812 50.1875C145.562 49.5 146.5 49.125 147.562 49.125C148.562 49.125 149.438 49.5 150.25 50.1875ZM144.312 60.75H150.688V87.625H144.312V60.75ZM166.688 82.6875C167.188 82.875 167.875 83 168.688 83.125L167.812 88.25C165.938 88.1875 164.438 88 163.25 87.625C162.062 87.25 161.062 86.6875 160.375 86C159.688 85.3125 159.125 84.4375 158.875 83.375C158.625 82.3125 158.438 81.125 158.438 79.8125V49L164.625 48V78.6875C164.625 79.4375 164.688 80.0625 164.812 80.5625C164.938 81.0625 165.125 81.5 165.438 81.875C165.75 82.25 166.188 82.5 166.688 82.6875ZM237.625 50.1875C238.375 50.875 238.75 51.8125 238.75 53.0625C238.75 54.25 238.375 55.1875 237.625 55.875C236.875 56.5625 235.938 56.9375 234.938 56.9375C233.875 56.9375 232.938 56.5625 232.188 55.875C231.438 55.1875 231.062 54.25 231.062 53.0625C231.062 51.875 231.438 50.875 232.188 50.1875C232.938 49.5 233.875 49.125 234.938 49.125C235.938 49.125 236.812 49.5 237.625 50.1875ZM231.688 60.75H238.062V87.625H231.688V60.75Z" fill="black"/>
</g>
</g>
<g clip-path="url(#clip2_17082_9027)">
<path d="M1190.66 51.3262V52.3994H1185.27V51.3262H1190.66ZM1185.47 47.0469V57H1184.16V47.0469H1185.47ZM1191.8 47.0469V57H1190.49V47.0469H1191.8ZM1197.03 57.1367C1196.51 57.1367 1196.05 57.0501 1195.63 56.877C1195.21 56.6992 1194.85 56.4508 1194.55 56.1318C1194.26 55.8128 1194.03 55.4346 1193.87 54.9971C1193.71 54.5596 1193.63 54.0811 1193.63 53.5615V53.2744C1193.63 52.6729 1193.72 52.1374 1193.9 51.668C1194.07 51.194 1194.32 50.793 1194.62 50.4648C1194.93 50.1367 1195.27 49.8883 1195.66 49.7197C1196.05 49.5511 1196.45 49.4668 1196.86 49.4668C1197.39 49.4668 1197.85 49.5579 1198.23 49.7402C1198.62 49.9225 1198.93 50.1777 1199.18 50.5059C1199.43 50.8294 1199.61 51.2122 1199.73 51.6543C1199.85 52.0918 1199.91 52.5703 1199.91 53.0898V53.6572H1194.38V52.625H1198.64V52.5293C1198.62 52.2012 1198.55 51.8822 1198.44 51.5723C1198.32 51.2624 1198.14 51.0072 1197.89 50.8066C1197.64 50.6061 1197.3 50.5059 1196.86 50.5059C1196.58 50.5059 1196.31 50.5674 1196.07 50.6904C1195.83 50.8089 1195.62 50.9867 1195.45 51.2236C1195.28 51.4606 1195.14 51.75 1195.04 52.0918C1194.95 52.4336 1194.9 52.8278 1194.9 53.2744V53.5615C1194.9 53.9124 1194.95 54.2428 1195.04 54.5527C1195.15 54.8581 1195.29 55.127 1195.48 55.3594C1195.67 55.5918 1195.9 55.7741 1196.17 55.9062C1196.44 56.0384 1196.75 56.1045 1197.1 56.1045C1197.54 56.1045 1197.92 56.0133 1198.23 55.8311C1198.54 55.6488 1198.81 55.4049 1199.04 55.0996L1199.81 55.708C1199.65 55.9495 1199.45 56.1797 1199.2 56.3984C1198.96 56.6172 1198.65 56.7949 1198.29 56.9316C1197.94 57.0684 1197.51 57.1367 1197.03 57.1367ZM1202.76 46.5V57H1201.48V46.5H1202.76ZM1206.05 51.0254V59.8438H1204.78V49.6035H1205.94L1206.05 51.0254ZM1211.03 53.2402V53.3838C1211.03 53.9215 1210.97 54.4206 1210.84 54.8809C1210.72 55.3366 1210.53 55.7331 1210.28 56.0703C1210.04 56.4076 1209.74 56.6696 1209.39 56.8564C1209.03 57.0433 1208.62 57.1367 1208.16 57.1367C1207.69 57.1367 1207.28 57.0592 1206.92 56.9043C1206.56 56.7493 1206.25 56.5238 1206 56.2275C1205.75 55.9313 1205.55 55.5758 1205.4 55.1611C1205.26 54.7464 1205.16 54.2793 1205.1 53.7598V52.9941C1205.16 52.4473 1205.26 51.9574 1205.41 51.5244C1205.56 51.0915 1205.76 50.7223 1206 50.417C1206.25 50.1071 1206.56 49.8724 1206.91 49.7129C1207.27 49.5488 1207.68 49.4668 1208.14 49.4668C1208.61 49.4668 1209.02 49.5579 1209.38 49.7402C1209.74 49.918 1210.04 50.1732 1210.29 50.5059C1210.54 50.8385 1210.72 51.2373 1210.84 51.7021C1210.97 52.1624 1211.03 52.6751 1211.03 53.2402ZM1209.76 53.3838V53.2402C1209.76 52.8711 1209.72 52.5247 1209.65 52.2012C1209.57 51.873 1209.45 51.5859 1209.28 51.3398C1209.12 51.0892 1208.92 50.8932 1208.67 50.752C1208.42 50.6061 1208.12 50.5332 1207.77 50.5332C1207.45 50.5332 1207.18 50.5879 1206.94 50.6973C1206.71 50.8066 1206.51 50.9548 1206.34 51.1416C1206.18 51.3239 1206.05 51.5335 1205.94 51.7705C1205.84 52.0029 1205.77 52.2445 1205.72 52.4951V54.2656C1205.81 54.5846 1205.93 54.8854 1206.1 55.168C1206.26 55.446 1206.48 55.6715 1206.75 55.8447C1207.03 56.0133 1207.37 56.0977 1207.79 56.0977C1208.13 56.0977 1208.42 56.027 1208.67 55.8857C1208.92 55.7399 1209.12 55.5417 1209.28 55.291C1209.45 55.0404 1209.57 54.7533 1209.65 54.4297C1209.72 54.1016 1209.76 53.7529 1209.76 53.3838Z" fill="#686868"/>
<path d="M1228.7 50L1224 54.705L1219.29 50L1220 49.295L1224 53.295L1228 49.295L1228.7 50Z" fill="#686868"/>
<path d="M1250.57 47.0469V57H1249.25V47.0469H1250.57ZM1257.44 55.5645V46.5H1258.71V57H1257.55L1257.44 55.5645ZM1252.46 53.3838V53.2402C1252.46 52.6751 1252.53 52.1624 1252.67 51.7021C1252.81 51.2373 1253.01 50.8385 1253.26 50.5059C1253.52 50.1732 1253.83 49.918 1254.19 49.7402C1254.55 49.5579 1254.95 49.4668 1255.39 49.4668C1255.85 49.4668 1256.26 49.5488 1256.61 49.7129C1256.96 49.8724 1257.25 50.1071 1257.5 50.417C1257.74 50.7223 1257.93 51.0915 1258.08 51.5244C1258.22 51.9574 1258.32 52.4473 1258.37 52.9941V53.623C1258.32 54.1654 1258.22 54.653 1258.08 55.0859C1257.93 55.5189 1257.74 55.888 1257.5 56.1934C1257.25 56.4987 1256.96 56.7334 1256.61 56.8975C1256.26 57.057 1255.85 57.1367 1255.38 57.1367C1254.94 57.1367 1254.55 57.0433 1254.19 56.8564C1253.83 56.6696 1253.52 56.4076 1253.26 56.0703C1253.01 55.7331 1252.81 55.3366 1252.67 54.8809C1252.53 54.4206 1252.46 53.9215 1252.46 53.3838ZM1253.74 53.2402V53.3838C1253.74 53.7529 1253.77 54.0993 1253.84 54.4229C1253.92 54.7464 1254.04 55.0312 1254.2 55.2773C1254.36 55.5234 1254.56 55.7171 1254.81 55.8584C1255.05 55.9951 1255.35 56.0635 1255.69 56.0635C1256.11 56.0635 1256.45 55.9746 1256.72 55.7969C1257 55.6191 1257.21 55.3844 1257.38 55.0928C1257.54 54.8011 1257.67 54.4844 1257.76 54.1426V52.4951C1257.71 52.2445 1257.63 52.0029 1257.52 51.7705C1257.42 51.5335 1257.29 51.3239 1257.13 51.1416C1256.97 50.9548 1256.77 50.8066 1256.53 50.6973C1256.3 50.5879 1256.02 50.5332 1255.7 50.5332C1255.36 50.5332 1255.06 50.6061 1254.81 50.752C1254.56 50.8932 1254.36 51.0892 1254.2 51.3398C1254.04 51.5859 1253.92 51.873 1253.84 52.2012C1253.77 52.5247 1253.74 52.8711 1253.74 53.2402ZM1262.05 49.6035V57H1260.78V49.6035H1262.05ZM1260.69 47.6416C1260.69 47.4365 1260.75 47.2633 1260.87 47.1221C1261 46.9808 1261.19 46.9102 1261.43 46.9102C1261.67 46.9102 1261.86 46.9808 1261.99 47.1221C1262.12 47.2633 1262.18 47.4365 1262.18 47.6416C1262.18 47.8376 1262.12 48.0062 1261.99 48.1475C1261.86 48.2842 1261.67 48.3525 1261.43 48.3525C1261.19 48.3525 1261 48.2842 1260.87 48.1475C1260.75 48.0062 1260.69 47.8376 1260.69 47.6416ZM1263.75 53.3838V53.2266C1263.75 52.6934 1263.83 52.1989 1263.98 51.7432C1264.14 51.2829 1264.36 50.8841 1264.65 50.5469C1264.94 50.2051 1265.3 49.9408 1265.71 49.7539C1266.13 49.5625 1266.59 49.4668 1267.11 49.4668C1267.63 49.4668 1268.09 49.5625 1268.51 49.7539C1268.93 49.9408 1269.28 50.2051 1269.57 50.5469C1269.87 50.8841 1270.1 51.2829 1270.25 51.7432C1270.41 52.1989 1270.48 52.6934 1270.48 53.2266V53.3838C1270.48 53.917 1270.41 54.4115 1270.25 54.8672C1270.1 55.3229 1269.87 55.7217 1269.57 56.0635C1269.28 56.4007 1268.93 56.665 1268.51 56.8564C1268.1 57.0433 1267.64 57.1367 1267.12 57.1367C1266.6 57.1367 1266.13 57.0433 1265.72 56.8564C1265.3 56.665 1264.95 56.4007 1264.65 56.0635C1264.36 55.7217 1264.14 55.3229 1263.98 54.8672C1263.83 54.4115 1263.75 53.917 1263.75 53.3838ZM1265.01 53.2266V53.3838C1265.01 53.7529 1265.06 54.1016 1265.14 54.4297C1265.23 54.7533 1265.36 55.0404 1265.53 55.291C1265.71 55.5417 1265.93 55.7399 1266.2 55.8857C1266.46 56.027 1266.77 56.0977 1267.12 56.0977C1267.47 56.0977 1267.77 56.027 1268.03 55.8857C1268.29 55.7399 1268.51 55.5417 1268.69 55.291C1268.86 55.0404 1268.99 54.7533 1269.08 54.4297C1269.17 54.1016 1269.21 53.7529 1269.21 53.3838V53.2266C1269.21 52.862 1269.17 52.5179 1269.08 52.1943C1268.99 51.8662 1268.86 51.5768 1268.68 51.3262C1268.51 51.071 1268.29 50.8704 1268.02 50.7246C1267.76 50.5788 1267.46 50.5059 1267.11 50.5059C1266.76 50.5059 1266.45 50.5788 1266.19 50.7246C1265.93 50.8704 1265.71 51.071 1265.53 51.3262C1265.36 51.5768 1265.23 51.8662 1265.14 52.1943C1265.06 52.5179 1265.01 52.862 1265.01 53.2266ZM1273.33 51.0732V57H1272.06V49.6035H1273.26L1273.33 51.0732ZM1273.07 53.0215L1272.48 53.001C1272.48 52.4951 1272.55 52.028 1272.68 51.5996C1272.81 51.1667 1272.99 50.7907 1273.25 50.4717C1273.5 50.1527 1273.81 49.9066 1274.18 49.7334C1274.56 49.5557 1274.99 49.4668 1275.48 49.4668C1275.83 49.4668 1276.15 49.5169 1276.44 49.6172C1276.73 49.7129 1276.98 49.8656 1277.2 50.0752C1277.41 50.2848 1277.58 50.5537 1277.7 50.8818C1277.81 51.21 1277.87 51.6064 1277.87 52.0713V57H1276.61V52.1328C1276.61 51.7454 1276.54 51.4355 1276.41 51.2031C1276.28 50.9707 1276.1 50.8021 1275.86 50.6973C1275.63 50.5879 1275.35 50.5332 1275.03 50.5332C1274.66 50.5332 1274.34 50.5993 1274.09 50.7314C1273.84 50.8636 1273.64 51.0459 1273.49 51.2783C1273.34 51.5107 1273.23 51.7773 1273.16 52.0781C1273.1 52.3743 1273.07 52.6888 1273.07 53.0215ZM1277.86 52.3242L1277.01 52.584C1277.02 52.1784 1277.08 51.7887 1277.21 51.415C1277.34 51.0413 1277.53 50.7087 1277.78 50.417C1278.03 50.1253 1278.34 49.8952 1278.7 49.7266C1279.06 49.5534 1279.48 49.4668 1279.95 49.4668C1280.35 49.4668 1280.7 49.5192 1281 49.624C1281.31 49.7288 1281.57 49.8906 1281.78 50.1094C1282 50.3236 1282.16 50.5993 1282.27 50.9365C1282.38 51.2738 1282.43 51.6748 1282.43 52.1396V57H1281.16V52.126C1281.16 51.7113 1281.1 51.39 1280.96 51.1621C1280.84 50.9297 1280.65 50.7679 1280.42 50.6768C1280.18 50.5811 1279.91 50.5332 1279.58 50.5332C1279.3 50.5332 1279.06 50.5811 1278.84 50.6768C1278.63 50.7725 1278.45 50.9046 1278.3 51.0732C1278.16 51.2373 1278.05 51.4264 1277.97 51.6406C1277.9 51.8548 1277.86 52.0827 1277.86 52.3242ZM1288.71 55.7354V51.9277C1288.71 51.6361 1288.65 51.3831 1288.53 51.1689C1288.42 50.9502 1288.24 50.7816 1288.01 50.6631C1287.78 50.5446 1287.49 50.4854 1287.15 50.4854C1286.83 50.4854 1286.55 50.54 1286.31 50.6494C1286.07 50.7588 1285.88 50.9023 1285.75 51.0801C1285.62 51.2578 1285.55 51.4492 1285.55 51.6543H1284.29C1284.29 51.39 1284.35 51.1279 1284.49 50.8682C1284.63 50.6084 1284.82 50.3737 1285.08 50.1641C1285.34 49.9499 1285.65 49.7812 1286.01 49.6582C1286.37 49.5306 1286.78 49.4668 1287.22 49.4668C1287.76 49.4668 1288.24 49.5579 1288.65 49.7402C1289.06 49.9225 1289.38 50.1982 1289.62 50.5674C1289.85 50.932 1289.97 51.39 1289.97 51.9414V55.3867C1289.97 55.6328 1289.99 55.8949 1290.03 56.1729C1290.08 56.4508 1290.15 56.6901 1290.23 56.8906V57H1288.91C1288.85 56.8542 1288.8 56.6605 1288.76 56.4189C1288.73 56.1729 1288.71 55.945 1288.71 55.7354ZM1288.93 52.5156L1288.94 53.4043H1287.66C1287.3 53.4043 1286.98 53.4339 1286.7 53.4932C1286.42 53.5479 1286.18 53.6322 1285.99 53.7461C1285.8 53.86 1285.65 54.0036 1285.55 54.1768C1285.45 54.3454 1285.4 54.5436 1285.4 54.7715C1285.4 55.0039 1285.45 55.2158 1285.56 55.4072C1285.66 55.5986 1285.82 55.7513 1286.03 55.8652C1286.24 55.9746 1286.5 56.0293 1286.81 56.0293C1287.2 56.0293 1287.54 55.9473 1287.84 55.7832C1288.14 55.6191 1288.37 55.4186 1288.54 55.1816C1288.72 54.9447 1288.82 54.7145 1288.83 54.4912L1289.37 55.0996C1289.34 55.291 1289.25 55.5029 1289.11 55.7354C1288.97 55.9678 1288.78 56.1911 1288.54 56.4053C1288.31 56.6149 1288.03 56.7904 1287.71 56.9316C1287.39 57.0684 1287.03 57.1367 1286.63 57.1367C1286.13 57.1367 1285.69 57.0387 1285.31 56.8428C1284.94 56.6468 1284.65 56.3848 1284.44 56.0566C1284.23 55.724 1284.13 55.3525 1284.13 54.9424C1284.13 54.5459 1284.21 54.1973 1284.36 53.8965C1284.52 53.5911 1284.74 53.3382 1285.03 53.1377C1285.32 52.9326 1285.67 52.7777 1286.08 52.6729C1286.49 52.568 1286.95 52.5156 1287.46 52.5156H1288.93Z" fill="#686868"/>
<path d="M1307.7 50L1303 54.705L1298.29 50L1299 49.295L1303 53.295L1307 49.295L1307.7 50Z" fill="#686868"/>
<path d="M1328.57 47.0469H1329.85L1333.11 55.1611L1336.37 47.0469H1337.65L1333.6 57H1332.61L1328.57 47.0469ZM1328.16 47.0469H1329.28L1329.47 53.1172V57H1328.16V47.0469ZM1336.93 47.0469H1338.06V57H1336.75V53.1172L1336.93 47.0469ZM1339.85 53.3838V53.2266C1339.85 52.6934 1339.93 52.1989 1340.08 51.7432C1340.24 51.2829 1340.46 50.8841 1340.75 50.5469C1341.05 50.2051 1341.4 49.9408 1341.81 49.7539C1342.23 49.5625 1342.69 49.4668 1343.21 49.4668C1343.73 49.4668 1344.19 49.5625 1344.61 49.7539C1345.03 49.9408 1345.38 50.2051 1345.68 50.5469C1345.97 50.8841 1346.2 51.2829 1346.35 51.7432C1346.51 52.1989 1346.58 52.6934 1346.58 53.2266V53.3838C1346.58 53.917 1346.51 54.4115 1346.35 54.8672C1346.2 55.3229 1345.97 55.7217 1345.68 56.0635C1345.38 56.4007 1345.03 56.665 1344.62 56.8564C1344.21 57.0433 1343.74 57.1367 1343.22 57.1367C1342.7 57.1367 1342.24 57.0433 1341.82 56.8564C1341.41 56.665 1341.05 56.4007 1340.75 56.0635C1340.46 55.7217 1340.24 55.3229 1340.08 54.8672C1339.93 54.4115 1339.85 53.917 1339.85 53.3838ZM1341.12 53.2266V53.3838C1341.12 53.7529 1341.16 54.1016 1341.25 54.4297C1341.33 54.7533 1341.46 55.0404 1341.64 55.291C1341.81 55.5417 1342.03 55.7399 1342.3 55.8857C1342.56 56.027 1342.87 56.0977 1343.22 56.0977C1343.57 56.0977 1343.87 56.027 1344.13 55.8857C1344.4 55.7399 1344.61 55.5417 1344.79 55.291C1344.96 55.0404 1345.09 54.7533 1345.18 54.4297C1345.27 54.1016 1345.31 53.7529 1345.31 53.3838V53.2266C1345.31 52.862 1345.27 52.5179 1345.18 52.1943C1345.09 51.8662 1344.96 51.5768 1344.78 51.3262C1344.61 51.071 1344.39 50.8704 1344.12 50.7246C1343.86 50.5788 1343.56 50.5059 1343.21 50.5059C1342.86 50.5059 1342.56 50.5788 1342.29 50.7246C1342.03 50.8704 1341.81 51.071 1341.64 51.3262C1341.46 51.5768 1341.33 51.8662 1341.25 52.1943C1341.16 52.5179 1341.12 52.862 1341.12 53.2266ZM1349.44 51.1826V57H1348.17V49.6035H1349.37L1349.44 51.1826ZM1349.13 53.0215L1348.61 53.001C1348.61 52.4951 1348.69 52.028 1348.83 51.5996C1348.98 51.1667 1349.18 50.7907 1349.45 50.4717C1349.71 50.1527 1350.03 49.9066 1350.39 49.7334C1350.76 49.5557 1351.17 49.4668 1351.62 49.4668C1351.98 49.4668 1352.31 49.5169 1352.6 49.6172C1352.89 49.7129 1353.14 49.8678 1353.35 50.082C1353.56 50.2962 1353.71 50.5742 1353.82 50.916C1353.93 51.2533 1353.99 51.6657 1353.99 52.1533V57H1352.72V52.1396C1352.72 51.7523 1352.66 51.4424 1352.55 51.21C1352.43 50.973 1352.27 50.8021 1352.05 50.6973C1351.83 50.5879 1351.56 50.5332 1351.24 50.5332C1350.93 50.5332 1350.64 50.5993 1350.38 50.7314C1350.12 50.8636 1349.9 51.0459 1349.72 51.2783C1349.53 51.5107 1349.39 51.7773 1349.29 52.0781C1349.18 52.3743 1349.13 52.6888 1349.13 53.0215ZM1358.98 57.1367C1358.46 57.1367 1358 57.0501 1357.58 56.877C1357.16 56.6992 1356.8 56.4508 1356.5 56.1318C1356.21 55.8128 1355.98 55.4346 1355.82 54.9971C1355.66 54.5596 1355.58 54.0811 1355.58 53.5615V53.2744C1355.58 52.6729 1355.67 52.1374 1355.85 51.668C1356.03 51.194 1356.27 50.793 1356.57 50.4648C1356.88 50.1367 1357.22 49.8883 1357.61 49.7197C1358 49.5511 1358.4 49.4668 1358.81 49.4668C1359.34 49.4668 1359.8 49.5579 1360.18 49.7402C1360.57 49.9225 1360.89 50.1777 1361.13 50.5059C1361.38 50.8294 1361.56 51.2122 1361.68 51.6543C1361.8 52.0918 1361.86 52.5703 1361.86 53.0898V53.6572H1356.33V52.625H1360.59V52.5293C1360.57 52.2012 1360.51 51.8822 1360.39 51.5723C1360.27 51.2624 1360.09 51.0072 1359.84 50.8066C1359.59 50.6061 1359.25 50.5059 1358.81 50.5059C1358.53 50.5059 1358.26 50.5674 1358.02 50.6904C1357.78 50.8089 1357.57 50.9867 1357.4 51.2236C1357.23 51.4606 1357.09 51.75 1357 52.0918C1356.9 52.4336 1356.85 52.8278 1356.85 53.2744V53.5615C1356.85 53.9124 1356.9 54.2428 1357 54.5527C1357.1 54.8581 1357.24 55.127 1357.43 55.3594C1357.62 55.5918 1357.85 55.7741 1358.12 55.9062C1358.39 56.0384 1358.7 56.1045 1359.05 56.1045C1359.49 56.1045 1359.87 56.0133 1360.18 55.8311C1360.49 55.6488 1360.76 55.4049 1361 55.0996L1361.76 55.708C1361.6 55.9495 1361.4 56.1797 1361.15 56.3984C1360.91 56.6172 1360.6 56.7949 1360.24 56.9316C1359.89 57.0684 1359.47 57.1367 1358.98 57.1367ZM1368 55.5645V46.5H1369.27V57H1368.1L1368 55.5645ZM1363.02 53.3838V53.2402C1363.02 52.6751 1363.09 52.1624 1363.22 51.7021C1363.36 51.2373 1363.56 50.8385 1363.82 50.5059C1364.08 50.1732 1364.39 49.918 1364.74 49.7402C1365.1 49.5579 1365.5 49.4668 1365.94 49.4668C1366.41 49.4668 1366.81 49.5488 1367.16 49.7129C1367.51 49.8724 1367.81 50.1071 1368.05 50.417C1368.3 50.7223 1368.49 51.0915 1368.63 51.5244C1368.77 51.9574 1368.87 52.4473 1368.92 52.9941V53.623C1368.87 54.1654 1368.78 54.653 1368.63 55.0859C1368.49 55.5189 1368.3 55.888 1368.05 56.1934C1367.81 56.4987 1367.51 56.7334 1367.16 56.8975C1366.81 57.057 1366.4 57.1367 1365.93 57.1367C1365.5 57.1367 1365.1 57.0433 1364.74 56.8564C1364.39 56.6696 1364.08 56.4076 1363.82 56.0703C1363.56 55.7331 1363.36 55.3366 1363.22 54.8809C1363.09 54.4206 1363.02 53.9215 1363.02 53.3838ZM1364.29 53.2402V53.3838C1364.29 53.7529 1364.33 54.0993 1364.4 54.4229C1364.48 54.7464 1364.6 55.0312 1364.75 55.2773C1364.91 55.5234 1365.12 55.7171 1365.36 55.8584C1365.61 55.9951 1365.9 56.0635 1366.25 56.0635C1366.66 56.0635 1367.01 55.9746 1367.28 55.7969C1367.55 55.6191 1367.77 55.3844 1367.93 55.0928C1368.1 54.8011 1368.23 54.4844 1368.32 54.1426V52.4951C1368.26 52.2445 1368.18 52.0029 1368.08 51.7705C1367.98 51.5335 1367.84 51.3239 1367.68 51.1416C1367.52 50.9548 1367.32 50.8066 1367.09 50.6973C1366.85 50.5879 1366.58 50.5332 1366.26 50.5332C1365.91 50.5332 1365.61 50.6061 1365.36 50.752C1365.12 50.8932 1364.91 51.0892 1364.75 51.3398C1364.6 51.5859 1364.48 51.873 1364.4 52.2012C1364.33 52.5247 1364.29 52.8711 1364.29 53.2402ZM1375.6 55.7354V51.9277C1375.6 51.6361 1375.54 51.3831 1375.42 51.1689C1375.31 50.9502 1375.13 50.7816 1374.9 50.6631C1374.67 50.5446 1374.38 50.4854 1374.04 50.4854C1373.72 50.4854 1373.44 50.54 1373.2 50.6494C1372.96 50.7588 1372.77 50.9023 1372.64 51.0801C1372.5 51.2578 1372.44 51.4492 1372.44 51.6543H1371.17C1371.17 51.39 1371.24 51.1279 1371.38 50.8682C1371.52 50.6084 1371.71 50.3737 1371.97 50.1641C1372.23 49.9499 1372.54 49.7812 1372.9 49.6582C1373.26 49.5306 1373.67 49.4668 1374.11 49.4668C1374.65 49.4668 1375.12 49.5579 1375.54 49.7402C1375.95 49.9225 1376.27 50.1982 1376.51 50.5674C1376.74 50.932 1376.86 51.39 1376.86 51.9414V55.3867C1376.86 55.6328 1376.88 55.8949 1376.92 56.1729C1376.97 56.4508 1377.03 56.6901 1377.12 56.8906V57H1375.8C1375.74 56.8542 1375.69 56.6605 1375.65 56.4189C1375.61 56.1729 1375.6 55.945 1375.6 55.7354ZM1375.82 52.5156L1375.83 53.4043H1374.55C1374.19 53.4043 1373.87 53.4339 1373.59 53.4932C1373.3 53.5479 1373.07 53.6322 1372.88 53.7461C1372.68 53.86 1372.54 54.0036 1372.44 54.1768C1372.34 54.3454 1372.29 54.5436 1372.29 54.7715C1372.29 55.0039 1372.34 55.2158 1372.45 55.4072C1372.55 55.5986 1372.71 55.7513 1372.92 55.8652C1373.13 55.9746 1373.39 56.0293 1373.7 56.0293C1374.09 56.0293 1374.43 55.9473 1374.73 55.7832C1375.02 55.6191 1375.26 55.4186 1375.43 55.1816C1375.61 54.9447 1375.71 54.7145 1375.72 54.4912L1376.26 55.0996C1376.23 55.291 1376.14 55.5029 1376 55.7354C1375.86 55.9678 1375.67 56.1911 1375.43 56.4053C1375.2 56.6149 1374.92 56.7904 1374.6 56.9316C1374.28 57.0684 1373.92 57.1367 1373.52 57.1367C1373.02 57.1367 1372.58 57.0387 1372.2 56.8428C1371.83 56.6468 1371.53 56.3848 1371.32 56.0566C1371.12 55.724 1371.02 55.3525 1371.02 54.9424C1371.02 54.5459 1371.09 54.1973 1371.25 53.8965C1371.4 53.5911 1371.63 53.3382 1371.92 53.1377C1372.21 52.9326 1372.56 52.7777 1372.97 52.6729C1373.38 52.568 1373.84 52.5156 1374.35 52.5156H1375.82Z" fill="#686868"/>
<path d="M1394.7 50L1390 54.705L1385.29 50L1386 49.295L1390 53.295L1394 49.295L1394.7 50Z" fill="#686868"/>
<rect x="887.5" y="68.5" width="269" height="39" rx="5.5" stroke="#C9C9C9"/>
<path d="M917.855 94.145L913.725 90.015C914.52 89.06 915 87.835 915 86.5C915 83.465 912.535 81 909.5 81C906.465 81 904 83.465 904 86.5C904 89.535 906.465 92 909.5 92C910.835 92 912.065 91.52 913.015 90.725L917.145 94.855L917.85 94.15L917.855 94.145ZM905 86.5C905 84.02 907.02 82 909.5 82C911.98 82 914 84.02 914 86.5C914 88.98 911.98 91 909.5 91C907.02 91 905 88.98 905 86.5Z" fill="#686868"/>
<path d="M927.703 88.3447H925.181L925.167 87.2852H927.457C927.835 87.2852 928.166 87.2214 928.448 87.0938C928.731 86.9661 928.95 86.7839 929.104 86.5469C929.264 86.3053 929.344 86.0182 929.344 85.6855C929.344 85.321 929.273 85.0247 929.132 84.7969C928.995 84.5645 928.783 84.3958 928.496 84.291C928.214 84.1816 927.854 84.127 927.416 84.127H925.475V93H924.155V83.0469H927.416C927.926 83.0469 928.382 83.0993 928.783 83.2041C929.184 83.3044 929.524 83.4639 929.802 83.6826C930.084 83.8968 930.299 84.1702 930.444 84.5029C930.59 84.8356 930.663 85.2344 930.663 85.6992C930.663 86.1094 930.558 86.4808 930.349 86.8135C930.139 87.1416 929.847 87.4105 929.474 87.6201C929.104 87.8298 928.672 87.9642 928.175 88.0234L927.703 88.3447ZM927.642 93H924.661L925.406 91.9268H927.642C928.061 91.9268 928.416 91.8538 928.708 91.708C929.004 91.5622 929.23 91.3571 929.385 91.0928C929.54 90.8239 929.617 90.5072 929.617 90.1426C929.617 89.7734 929.551 89.4544 929.419 89.1855C929.287 88.9167 929.079 88.7093 928.797 88.5635C928.514 88.4176 928.15 88.3447 927.703 88.3447H925.823L925.837 87.2852H928.407L928.688 87.668C929.166 87.709 929.572 87.8457 929.904 88.0781C930.237 88.306 930.49 88.5977 930.663 88.9531C930.841 89.3086 930.93 89.7005 930.93 90.1289C930.93 90.7487 930.793 91.2728 930.52 91.7012C930.251 92.125 929.87 92.4486 929.378 92.6719C928.886 92.8906 928.307 93 927.642 93ZM937.212 91.291V85.6035H938.483V93H937.273L937.212 91.291ZM937.451 89.7324L937.978 89.7188C937.978 90.2109 937.925 90.6667 937.82 91.0859C937.72 91.5007 937.556 91.8607 937.328 92.166C937.1 92.4714 936.802 92.7106 936.433 92.8838C936.063 93.0524 935.615 93.1367 935.086 93.1367C934.726 93.1367 934.396 93.0843 934.095 92.9795C933.799 92.8747 933.543 92.7129 933.329 92.4941C933.115 92.2754 932.949 91.9906 932.83 91.6396C932.716 91.2887 932.659 90.8672 932.659 90.375V85.6035H933.924V90.3887C933.924 90.7214 933.96 90.9971 934.033 91.2158C934.111 91.43 934.213 91.6009 934.341 91.7285C934.473 91.8516 934.619 91.9382 934.778 91.9883C934.942 92.0384 935.111 92.0635 935.284 92.0635C935.822 92.0635 936.248 91.9609 936.562 91.7559C936.877 91.5462 937.103 91.266 937.239 90.915C937.381 90.5596 937.451 90.1654 937.451 89.7324ZM944.718 91.0381C944.718 90.8558 944.677 90.6872 944.595 90.5322C944.517 90.3727 944.355 90.2292 944.109 90.1016C943.868 89.9694 943.503 89.8555 943.016 89.7598C942.605 89.6732 942.234 89.5706 941.901 89.4521C941.573 89.3337 941.293 89.1901 941.061 89.0215C940.833 88.8529 940.657 88.6546 940.534 88.4268C940.411 88.1989 940.35 87.9323 940.35 87.627C940.35 87.3353 940.413 87.0596 940.541 86.7998C940.673 86.54 940.858 86.3099 941.095 86.1094C941.336 85.9089 941.626 85.7516 941.963 85.6377C942.3 85.5238 942.676 85.4668 943.091 85.4668C943.683 85.4668 944.189 85.5716 944.608 85.7812C945.028 85.9909 945.349 86.2712 945.572 86.6221C945.796 86.9684 945.907 87.3535 945.907 87.7773H944.643C944.643 87.5723 944.581 87.374 944.458 87.1826C944.34 86.9867 944.164 86.8249 943.932 86.6973C943.704 86.5697 943.424 86.5059 943.091 86.5059C942.74 86.5059 942.455 86.5605 942.236 86.6699C942.022 86.7747 941.865 86.9092 941.765 87.0732C941.669 87.2373 941.621 87.4105 941.621 87.5928C941.621 87.7295 941.644 87.8525 941.689 87.9619C941.74 88.0667 941.826 88.1647 941.949 88.2559C942.072 88.3424 942.245 88.4245 942.469 88.502C942.692 88.5794 942.977 88.6569 943.323 88.7344C943.929 88.8711 944.428 89.0352 944.82 89.2266C945.212 89.418 945.504 89.6527 945.695 89.9307C945.887 90.2087 945.982 90.5459 945.982 90.9424C945.982 91.266 945.914 91.5622 945.777 91.8311C945.645 92.0999 945.451 92.3324 945.196 92.5283C944.946 92.7197 944.645 92.8701 944.294 92.9795C943.948 93.0843 943.558 93.1367 943.125 93.1367C942.473 93.1367 941.922 93.0205 941.471 92.7881C941.02 92.5557 940.678 92.2549 940.445 91.8857C940.213 91.5166 940.097 91.127 940.097 90.7168H941.368C941.386 91.0632 941.487 91.3389 941.669 91.5439C941.851 91.7445 942.075 91.888 942.339 91.9746C942.603 92.0566 942.865 92.0977 943.125 92.0977C943.471 92.0977 943.761 92.0521 943.993 91.9609C944.23 91.8698 944.41 91.7445 944.533 91.585C944.656 91.4255 944.718 91.2432 944.718 91.0381ZM950.604 92.0977C950.904 92.0977 951.182 92.0361 951.438 91.9131C951.693 91.79 951.902 91.6214 952.066 91.4072C952.23 91.1885 952.324 90.9401 952.347 90.6621H953.55C953.527 91.0996 953.379 91.5075 953.105 91.8857C952.837 92.2594 952.483 92.5625 952.046 92.7949C951.608 93.0228 951.128 93.1367 950.604 93.1367C950.048 93.1367 949.562 93.0387 949.147 92.8428C948.737 92.6468 948.396 92.3779 948.122 92.0361C947.853 91.6943 947.65 91.3024 947.514 90.8604C947.382 90.4137 947.315 89.9421 947.315 89.4453V89.1582C947.315 88.6615 947.382 88.1921 947.514 87.75C947.65 87.3034 947.853 86.9092 948.122 86.5674C948.396 86.2256 948.737 85.9567 949.147 85.7607C949.562 85.5648 950.048 85.4668 950.604 85.4668C951.182 85.4668 951.688 85.5853 952.121 85.8223C952.554 86.0547 952.894 86.3737 953.14 86.7793C953.39 87.1803 953.527 87.6361 953.55 88.1465H952.347C952.324 87.8411 952.237 87.5654 952.087 87.3193C951.941 87.0732 951.741 86.8773 951.485 86.7314C951.235 86.5811 950.941 86.5059 950.604 86.5059C950.216 86.5059 949.89 86.5833 949.626 86.7383C949.366 86.8887 949.159 87.0938 949.004 87.3535C948.854 87.6087 948.744 87.8936 948.676 88.208C948.612 88.5179 948.58 88.8346 948.58 89.1582V89.4453C948.58 89.7689 948.612 90.0879 948.676 90.4023C948.74 90.7168 948.847 91.0016 948.997 91.2568C949.152 91.512 949.359 91.7171 949.619 91.8721C949.883 92.0225 950.212 92.0977 950.604 92.0977ZM959.333 91.7354V87.9277C959.333 87.6361 959.274 87.3831 959.155 87.1689C959.041 86.9502 958.868 86.7816 958.636 86.6631C958.403 86.5446 958.116 86.4854 957.774 86.4854C957.455 86.4854 957.175 86.54 956.934 86.6494C956.697 86.7588 956.51 86.9023 956.373 87.0801C956.241 87.2578 956.175 87.4492 956.175 87.6543H954.91C954.91 87.39 954.979 87.1279 955.115 86.8682C955.252 86.6084 955.448 86.3737 955.703 86.1641C955.963 85.9499 956.273 85.7812 956.633 85.6582C956.997 85.5306 957.403 85.4668 957.85 85.4668C958.387 85.4668 958.861 85.5579 959.271 85.7402C959.686 85.9225 960.01 86.1982 960.242 86.5674C960.479 86.932 960.598 87.39 960.598 87.9414V91.3867C960.598 91.6328 960.618 91.8949 960.659 92.1729C960.705 92.4508 960.771 92.6901 960.857 92.8906V93H959.538C959.474 92.8542 959.424 92.6605 959.388 92.4189C959.351 92.1729 959.333 91.945 959.333 91.7354ZM959.552 88.5156L959.565 89.4043H958.287C957.927 89.4043 957.606 89.4339 957.323 89.4932C957.041 89.5479 956.804 89.6322 956.612 89.7461C956.421 89.86 956.275 90.0036 956.175 90.1768C956.075 90.3454 956.024 90.5436 956.024 90.7715C956.024 91.0039 956.077 91.2158 956.182 91.4072C956.286 91.5986 956.444 91.7513 956.653 91.8652C956.868 91.9746 957.13 92.0293 957.439 92.0293C957.827 92.0293 958.169 91.9473 958.465 91.7832C958.761 91.6191 958.996 91.4186 959.169 91.1816C959.347 90.9447 959.442 90.7145 959.456 90.4912L959.996 91.0996C959.964 91.291 959.878 91.5029 959.736 91.7354C959.595 91.9678 959.406 92.1911 959.169 92.4053C958.937 92.6149 958.659 92.7904 958.335 92.9316C958.016 93.0684 957.656 93.1367 957.255 93.1367C956.754 93.1367 956.314 93.0387 955.936 92.8428C955.562 92.6468 955.27 92.3848 955.061 92.0566C954.855 91.724 954.753 91.3525 954.753 90.9424C954.753 90.5459 954.83 90.1973 954.985 89.8965C955.14 89.5911 955.364 89.3382 955.655 89.1377C955.947 88.9326 956.298 88.7777 956.708 88.6729C957.118 88.568 957.576 88.5156 958.082 88.5156H959.552ZM963.852 86.7656V93H962.587V85.6035H963.817L963.852 86.7656ZM966.162 85.5625L966.155 86.7383C966.05 86.7155 965.95 86.7018 965.854 86.6973C965.763 86.6882 965.659 86.6836 965.54 86.6836C965.248 86.6836 964.991 86.7292 964.768 86.8203C964.544 86.9115 964.355 87.0391 964.2 87.2031C964.045 87.3672 963.922 87.5632 963.831 87.791C963.744 88.0143 963.688 88.2604 963.66 88.5293L963.305 88.7344C963.305 88.2878 963.348 87.8685 963.435 87.4766C963.526 87.0846 963.665 86.7383 963.852 86.4375C964.038 86.1322 964.275 85.8952 964.562 85.7266C964.854 85.5534 965.201 85.4668 965.602 85.4668C965.693 85.4668 965.798 85.4782 965.916 85.501C966.035 85.5192 966.117 85.5397 966.162 85.5625ZM970.824 92.3301C970.824 92.1159 970.89 91.9359 971.022 91.79C971.159 91.6396 971.355 91.5645 971.61 91.5645C971.866 91.5645 972.059 91.6396 972.191 91.79C972.328 91.9359 972.396 92.1159 972.396 92.3301C972.396 92.5397 972.328 92.7174 972.191 92.8633C972.059 93.0091 971.866 93.082 971.61 93.082C971.355 93.082 971.159 93.0091 971.022 92.8633C970.89 92.7174 970.824 92.5397 970.824 92.3301ZM974.516 92.3301C974.516 92.1159 974.582 91.9359 974.714 91.79C974.851 91.6396 975.047 91.5645 975.302 91.5645C975.557 91.5645 975.751 91.6396 975.883 91.79C976.02 91.9359 976.088 92.1159 976.088 92.3301C976.088 92.5397 976.02 92.7174 975.883 92.8633C975.751 93.0091 975.557 93.082 975.302 93.082C975.047 93.082 974.851 93.0091 974.714 92.8633C974.582 92.7174 974.516 92.5397 974.516 92.3301ZM978.207 92.3301C978.207 92.1159 978.273 91.9359 978.405 91.79C978.542 91.6396 978.738 91.5645 978.993 91.5645C979.248 91.5645 979.442 91.6396 979.574 91.79C979.711 91.9359 979.779 92.1159 979.779 92.3301C979.779 92.5397 979.711 92.7174 979.574 92.8633C979.442 93.0091 979.248 93.082 978.993 93.082C978.738 93.082 978.542 93.0091 978.405 92.8633C978.273 92.7174 978.207 92.5397 978.207 92.3301Z" fill="#686868"/>
<path d="M1197 88C1198.93 88 1200.5 86.43 1200.5 84.5C1200.5 82.57 1198.93 81 1197 81C1195.07 81 1193.5 82.57 1193.5 84.5C1193.5 86.43 1195.07 88 1197 88ZM1197 82C1198.38 82 1199.5 83.12 1199.5 84.5C1199.5 85.88 1198.38 87 1197 87C1195.62 87 1194.5 85.88 1194.5 84.5C1194.5 83.12 1195.62 82 1197 82ZM1202.5 94.5V95H1201.5V94.5C1201.5 92.02 1199.48 90 1197 90C1194.52 90 1192.5 92.02 1192.5 94.5V95H1191.5V94.5C1191.5 91.465 1193.96 89 1197 89C1200.04 89 1202.5 91.465 1202.5 94.5Z" fill="#686868"/>
<path d="M1211.57 83.0469V93H1210.25V83.0469H1211.57ZM1218.44 91.5645V82.5H1219.71V93H1218.55L1218.44 91.5645ZM1213.46 89.3838V89.2402C1213.46 88.6751 1213.53 88.1624 1213.67 87.7021C1213.81 87.2373 1214.01 86.8385 1214.26 86.5059C1214.52 86.1732 1214.83 85.918 1215.19 85.7402C1215.55 85.5579 1215.95 85.4668 1216.39 85.4668C1216.85 85.4668 1217.26 85.5488 1217.61 85.7129C1217.96 85.8724 1218.25 86.1071 1218.5 86.417C1218.74 86.7223 1218.93 87.0915 1219.08 87.5244C1219.22 87.9574 1219.32 88.4473 1219.37 88.9941V89.623C1219.32 90.1654 1219.22 90.653 1219.08 91.0859C1218.93 91.5189 1218.74 91.888 1218.5 92.1934C1218.25 92.4987 1217.96 92.7334 1217.61 92.8975C1217.26 93.057 1216.85 93.1367 1216.38 93.1367C1215.94 93.1367 1215.55 93.0433 1215.19 92.8564C1214.83 92.6696 1214.52 92.4076 1214.26 92.0703C1214.01 91.7331 1213.81 91.3366 1213.67 90.8809C1213.53 90.4206 1213.46 89.9215 1213.46 89.3838ZM1214.74 89.2402V89.3838C1214.74 89.7529 1214.77 90.0993 1214.84 90.4229C1214.92 90.7464 1215.04 91.0312 1215.2 91.2773C1215.36 91.5234 1215.56 91.7171 1215.81 91.8584C1216.05 91.9951 1216.35 92.0635 1216.69 92.0635C1217.11 92.0635 1217.45 91.9746 1217.72 91.7969C1218 91.6191 1218.21 91.3844 1218.38 91.0928C1218.54 90.8011 1218.67 90.4844 1218.76 90.1426V88.4951C1218.71 88.2445 1218.63 88.0029 1218.52 87.7705C1218.42 87.5335 1218.29 87.3239 1218.13 87.1416C1217.97 86.9548 1217.77 86.8066 1217.53 86.6973C1217.3 86.5879 1217.02 86.5332 1216.7 86.5332C1216.36 86.5332 1216.06 86.6061 1215.81 86.752C1215.56 86.8932 1215.36 87.0892 1215.2 87.3398C1215.04 87.5859 1214.92 87.873 1214.84 88.2012C1214.77 88.5247 1214.74 88.8711 1214.74 89.2402ZM1224.75 93.1367C1224.24 93.1367 1223.77 93.0501 1223.35 92.877C1222.93 92.6992 1222.58 92.4508 1222.28 92.1318C1221.98 91.8128 1221.75 91.4346 1221.59 90.9971C1221.43 90.5596 1221.35 90.0811 1221.35 89.5615V89.2744C1221.35 88.6729 1221.44 88.1374 1221.62 87.668C1221.8 87.194 1222.04 86.793 1222.34 86.4648C1222.65 86.1367 1223 85.8883 1223.38 85.7197C1223.77 85.5511 1224.17 85.4668 1224.59 85.4668C1225.11 85.4668 1225.57 85.5579 1225.95 85.7402C1226.34 85.9225 1226.66 86.1777 1226.9 86.5059C1227.15 86.8294 1227.33 87.2122 1227.45 87.6543C1227.57 88.0918 1227.63 88.5703 1227.63 89.0898V89.6572H1222.1V88.625H1226.36V88.5293C1226.35 88.2012 1226.28 87.8822 1226.16 87.5723C1226.04 87.2624 1225.86 87.0072 1225.61 86.8066C1225.36 86.6061 1225.02 86.5059 1224.59 86.5059C1224.3 86.5059 1224.03 86.5674 1223.79 86.6904C1223.55 86.8089 1223.34 86.9867 1223.17 87.2236C1223 87.4606 1222.86 87.75 1222.77 88.0918C1222.67 88.4336 1222.62 88.8278 1222.62 89.2744V89.5615C1222.62 89.9124 1222.67 90.2428 1222.77 90.5527C1222.87 90.8581 1223.01 91.127 1223.2 91.3594C1223.39 91.5918 1223.62 91.7741 1223.89 91.9062C1224.16 92.0384 1224.47 92.1045 1224.82 92.1045C1225.26 92.1045 1225.64 92.0133 1225.95 91.8311C1226.26 91.6488 1226.53 91.4049 1226.77 91.0996L1227.53 91.708C1227.37 91.9495 1227.17 92.1797 1226.92 92.3984C1226.68 92.6172 1226.37 92.7949 1226.01 92.9316C1225.66 93.0684 1225.24 93.1367 1224.75 93.1367ZM1230.37 87.1826V93H1229.1V85.6035H1230.3L1230.37 87.1826ZM1230.07 89.0215L1229.54 89.001C1229.55 88.4951 1229.62 88.028 1229.77 87.5996C1229.91 87.1667 1230.12 86.7907 1230.38 86.4717C1230.65 86.1527 1230.96 85.9066 1231.33 85.7334C1231.7 85.5557 1232.1 85.4668 1232.55 85.4668C1232.91 85.4668 1233.24 85.5169 1233.53 85.6172C1233.83 85.7129 1234.07 85.8678 1234.28 86.082C1234.49 86.2962 1234.65 86.5742 1234.76 86.916C1234.87 87.2533 1234.92 87.6657 1234.92 88.1533V93H1233.65V88.1396C1233.65 87.7523 1233.59 87.4424 1233.48 87.21C1233.37 86.973 1233.2 86.8021 1232.98 86.6973C1232.76 86.5879 1232.49 86.5332 1232.17 86.5332C1231.86 86.5332 1231.57 86.5993 1231.31 86.7314C1231.06 86.8636 1230.84 87.0459 1230.65 87.2783C1230.47 87.5107 1230.32 87.7773 1230.22 88.0781C1230.12 88.3743 1230.07 88.6888 1230.07 89.0215ZM1239.94 85.6035V86.5742H1235.94V85.6035H1239.94ZM1237.29 83.8057H1238.56V91.168C1238.56 91.4186 1238.6 91.6077 1238.67 91.7354C1238.75 91.863 1238.85 91.9473 1238.98 91.9883C1239.1 92.0293 1239.23 92.0498 1239.37 92.0498C1239.48 92.0498 1239.59 92.0407 1239.7 92.0225C1239.82 91.9997 1239.91 91.9814 1239.97 91.9678L1239.97 93C1239.87 93.0319 1239.74 93.0615 1239.58 93.0889C1239.42 93.1208 1239.22 93.1367 1239 93.1367C1238.69 93.1367 1238.4 93.0752 1238.14 92.9521C1237.88 92.8291 1237.67 92.624 1237.52 92.3369C1237.37 92.0452 1237.29 91.6533 1237.29 91.1611V83.8057ZM1242.8 85.6035V93H1241.53V85.6035H1242.8ZM1241.43 83.6416C1241.43 83.4365 1241.49 83.2633 1241.61 83.1221C1241.74 82.9808 1241.93 82.9102 1242.17 82.9102C1242.42 82.9102 1242.6 82.9808 1242.73 83.1221C1242.86 83.2633 1242.93 83.4365 1242.93 83.6416C1242.93 83.8376 1242.86 84.0062 1242.73 84.1475C1242.6 84.2842 1242.42 84.3525 1242.17 84.3525C1241.93 84.3525 1241.74 84.2842 1241.61 84.1475C1241.49 84.0062 1241.43 83.8376 1241.43 83.6416ZM1246.71 93H1245.45V84.8242C1245.45 84.291 1245.54 83.8421 1245.74 83.4775C1245.93 83.1084 1246.21 82.8304 1246.58 82.6436C1246.94 82.4521 1247.37 82.3564 1247.88 82.3564C1248.02 82.3564 1248.17 82.3656 1248.31 82.3838C1248.46 82.402 1248.61 82.4294 1248.75 82.4658L1248.68 83.498C1248.59 83.4753 1248.48 83.4593 1248.35 83.4502C1248.24 83.4411 1248.12 83.4365 1248 83.4365C1247.73 83.4365 1247.5 83.4912 1247.3 83.6006C1247.11 83.7054 1246.96 83.8604 1246.86 84.0654C1246.76 84.2705 1246.71 84.5234 1246.71 84.8242V93ZM1248.29 85.6035V86.5742H1244.28V85.6035H1248.29ZM1251.06 85.6035V93H1249.8V85.6035H1251.06ZM1249.76 84.5234L1251.08 82.5137H1252.61L1250.77 84.5234H1249.76ZM1256.13 92.0977C1256.43 92.0977 1256.71 92.0361 1256.96 91.9131C1257.22 91.79 1257.43 91.6214 1257.59 91.4072C1257.75 91.1885 1257.85 90.9401 1257.87 90.6621H1259.07C1259.05 91.0996 1258.9 91.5075 1258.63 91.8857C1258.36 92.2594 1258.01 92.5625 1257.57 92.7949C1257.13 93.0228 1256.65 93.1367 1256.13 93.1367C1255.57 93.1367 1255.09 93.0387 1254.67 92.8428C1254.26 92.6468 1253.92 92.3779 1253.65 92.0361C1253.38 91.6943 1253.17 91.3024 1253.04 90.8604C1252.9 90.4137 1252.84 89.9421 1252.84 89.4453V89.1582C1252.84 88.6615 1252.9 88.1921 1253.04 87.75C1253.17 87.3034 1253.38 86.9092 1253.65 86.5674C1253.92 86.2256 1254.26 85.9567 1254.67 85.7607C1255.09 85.5648 1255.57 85.4668 1256.13 85.4668C1256.71 85.4668 1257.21 85.5853 1257.64 85.8223C1258.08 86.0547 1258.42 86.3737 1258.66 86.7793C1258.91 87.1803 1259.05 87.6361 1259.07 88.1465H1257.87C1257.85 87.8411 1257.76 87.5654 1257.61 87.3193C1257.46 87.0732 1257.26 86.8773 1257.01 86.7314C1256.76 86.5811 1256.46 86.5059 1256.13 86.5059C1255.74 86.5059 1255.41 86.5833 1255.15 86.7383C1254.89 86.8887 1254.68 87.0938 1254.53 87.3535C1254.38 87.6087 1254.27 87.8936 1254.2 88.208C1254.14 88.5179 1254.1 88.8346 1254.1 89.1582V89.4453C1254.1 89.7689 1254.14 90.0879 1254.2 90.4023C1254.26 90.7168 1254.37 91.0016 1254.52 91.2568C1254.68 91.512 1254.88 91.7171 1255.14 91.8721C1255.41 92.0225 1255.74 92.0977 1256.13 92.0977ZM1264.86 91.7354V87.9277C1264.86 87.6361 1264.8 87.3831 1264.68 87.1689C1264.56 86.9502 1264.39 86.7816 1264.16 86.6631C1263.93 86.5446 1263.64 86.4854 1263.3 86.4854C1262.98 86.4854 1262.7 86.54 1262.46 86.6494C1262.22 86.7588 1262.03 86.9023 1261.9 87.0801C1261.76 87.2578 1261.7 87.4492 1261.7 87.6543H1260.43C1260.43 87.39 1260.5 87.1279 1260.64 86.8682C1260.78 86.6084 1260.97 86.3737 1261.23 86.1641C1261.49 85.9499 1261.8 85.7812 1262.16 85.6582C1262.52 85.5306 1262.93 85.4668 1263.37 85.4668C1263.91 85.4668 1264.38 85.5579 1264.79 85.7402C1265.21 85.9225 1265.53 86.1982 1265.77 86.5674C1266 86.932 1266.12 87.39 1266.12 87.9414V91.3867C1266.12 91.6328 1266.14 91.8949 1266.18 92.1729C1266.23 92.4508 1266.29 92.6901 1266.38 92.8906V93H1265.06C1265 92.8542 1264.95 92.6605 1264.91 92.4189C1264.87 92.1729 1264.86 91.945 1264.86 91.7354ZM1265.08 88.5156L1265.09 89.4043H1263.81C1263.45 89.4043 1263.13 89.4339 1262.85 89.4932C1262.56 89.5479 1262.33 89.6322 1262.14 89.7461C1261.94 89.86 1261.8 90.0036 1261.7 90.1768C1261.6 90.3454 1261.55 90.5436 1261.55 90.7715C1261.55 91.0039 1261.6 91.2158 1261.71 91.4072C1261.81 91.5986 1261.97 91.7513 1262.18 91.8652C1262.39 91.9746 1262.65 92.0293 1262.96 92.0293C1263.35 92.0293 1263.69 91.9473 1263.99 91.7832C1264.28 91.6191 1264.52 91.4186 1264.69 91.1816C1264.87 90.9447 1264.97 90.7145 1264.98 90.4912L1265.52 91.0996C1265.49 91.291 1265.4 91.5029 1265.26 91.7354C1265.12 91.9678 1264.93 92.1911 1264.69 92.4053C1264.46 92.6149 1264.18 92.7904 1263.86 92.9316C1263.54 93.0684 1263.18 93.1367 1262.78 93.1367C1262.28 93.1367 1261.84 93.0387 1261.46 92.8428C1261.09 92.6468 1260.79 92.3848 1260.58 92.0566C1260.38 91.724 1260.28 91.3525 1260.28 90.9424C1260.28 90.5459 1260.35 90.1973 1260.51 89.8965C1260.66 89.5911 1260.89 89.3382 1261.18 89.1377C1261.47 88.9326 1261.82 88.7777 1262.23 88.6729C1262.64 88.568 1263.1 88.5156 1263.61 88.5156H1265.08ZM1271.21 85.6035V86.5742H1267.21V85.6035H1271.21ZM1268.56 83.8057H1269.83V91.168C1269.83 91.4186 1269.86 91.6077 1269.94 91.7354C1270.02 91.863 1270.12 91.9473 1270.24 91.9883C1270.37 92.0293 1270.5 92.0498 1270.64 92.0498C1270.74 92.0498 1270.85 92.0407 1270.97 92.0225C1271.09 91.9997 1271.18 91.9814 1271.23 91.9678L1271.24 93C1271.14 93.0319 1271.01 93.0615 1270.84 93.0889C1270.69 93.1208 1270.49 93.1367 1270.26 93.1367C1269.95 93.1367 1269.67 93.0752 1269.41 92.9521C1269.15 92.8291 1268.94 92.624 1268.79 92.3369C1268.64 92.0452 1268.56 91.6533 1268.56 91.1611V83.8057ZM1275.76 93.1367C1275.24 93.1367 1274.78 93.0501 1274.36 92.877C1273.94 92.6992 1273.59 92.4508 1273.29 92.1318C1272.99 91.8128 1272.76 91.4346 1272.6 90.9971C1272.44 90.5596 1272.36 90.0811 1272.36 89.5615V89.2744C1272.36 88.6729 1272.45 88.1374 1272.63 87.668C1272.81 87.194 1273.05 86.793 1273.35 86.4648C1273.66 86.1367 1274.01 85.8883 1274.39 85.7197C1274.78 85.5511 1275.18 85.4668 1275.6 85.4668C1276.12 85.4668 1276.58 85.5579 1276.96 85.7402C1277.35 85.9225 1277.67 86.1777 1277.91 86.5059C1278.16 86.8294 1278.34 87.2122 1278.46 87.6543C1278.58 88.0918 1278.64 88.5703 1278.64 89.0898V89.6572H1273.11V88.625H1277.37V88.5293C1277.35 88.2012 1277.29 87.8822 1277.17 87.5723C1277.05 87.2624 1276.87 87.0072 1276.62 86.8066C1276.37 86.6061 1276.03 86.5059 1275.6 86.5059C1275.31 86.5059 1275.04 86.5674 1274.8 86.6904C1274.56 86.8089 1274.35 86.9867 1274.18 87.2236C1274.01 87.4606 1273.87 87.75 1273.78 88.0918C1273.68 88.4336 1273.63 88.8278 1273.63 89.2744V89.5615C1273.63 89.9124 1273.68 90.2428 1273.78 90.5527C1273.88 90.8581 1274.02 91.127 1274.21 91.3594C1274.4 91.5918 1274.63 91.7741 1274.9 91.9062C1275.17 92.0384 1275.48 92.1045 1275.83 92.1045C1276.27 92.1045 1276.65 92.0133 1276.96 91.8311C1277.27 91.6488 1277.54 91.4049 1277.78 91.0996L1278.54 91.708C1278.38 91.9495 1278.18 92.1797 1277.93 92.3984C1277.69 92.6172 1277.38 92.7949 1277.02 92.9316C1276.67 93.0684 1276.25 93.1367 1275.76 93.1367Z" fill="#686868"/>
<path d="M1309.5 85H1307V84C1307 82.2 1305.8 81 1304 81C1302.2 81 1301 82.2 1301 84V85H1298.5C1298.2 85 1298 85.2 1298 85.5V92.5C1298 93.9 1299.1 95 1300.5 95H1307.5C1308.9 95 1310 93.9 1310 92.5V85.5C1310 85.2 1309.8 85 1309.5 85ZM1302 84C1302 82.75 1302.75 82 1304 82C1305.25 82 1306 82.75 1306 84V85H1302V84ZM1309 92.5C1309 93.35 1308.35 94 1307.5 94H1300.5C1299.65 94 1299 93.35 1299 92.5V86H1309V92.5Z" fill="#686868"/>
<path d="M1316.92 89.0215V88.9531C1316.92 87.9596 1317.03 87.0618 1317.25 86.2598C1317.47 85.4531 1317.76 84.7467 1318.11 84.1406C1318.45 83.5345 1318.82 83.0332 1319.2 82.6367C1319.58 82.2357 1319.94 81.9463 1320.26 81.7686L1320.53 82.6025C1320.26 82.8076 1319.98 83.0902 1319.71 83.4502C1319.43 83.8102 1319.18 84.2523 1318.95 84.7764C1318.72 85.3005 1318.53 85.9089 1318.39 86.6016C1318.25 87.2943 1318.18 88.0736 1318.18 88.9395V89.0352C1318.18 89.901 1318.25 90.6826 1318.39 91.3799C1318.53 92.0726 1318.72 92.6833 1318.95 93.2119C1319.18 93.7406 1319.43 94.1895 1319.71 94.5586C1319.98 94.9323 1320.26 95.2285 1320.53 95.4473L1320.26 96.2129C1319.94 96.0352 1319.58 95.7458 1319.2 95.3447C1318.82 94.9482 1318.45 94.4469 1318.11 93.8408C1317.76 93.2393 1317.47 92.5352 1317.25 91.7285C1317.03 90.9219 1316.92 90.0195 1316.92 89.0215ZM1327.87 87.2305V88.748C1327.87 89.5638 1327.8 90.252 1327.66 90.8125C1327.51 91.373 1327.3 91.8242 1327.03 92.166C1326.75 92.5078 1326.42 92.7562 1326.04 92.9111C1325.65 93.0615 1325.22 93.1367 1324.74 93.1367C1324.35 93.1367 1324 93.0889 1323.68 92.9932C1323.35 92.8975 1323.06 92.7448 1322.8 92.5352C1322.55 92.321 1322.33 92.043 1322.15 91.7012C1321.96 91.3594 1321.82 90.9447 1321.73 90.457C1321.63 89.9694 1321.58 89.3997 1321.58 88.748V87.2305C1321.58 86.4147 1321.66 85.7311 1321.8 85.1797C1321.95 84.6283 1322.17 84.1862 1322.44 83.8535C1322.71 83.5163 1323.04 83.2747 1323.42 83.1289C1323.81 82.9831 1324.24 82.9102 1324.72 82.9102C1325.11 82.9102 1325.47 82.958 1325.79 83.0537C1326.12 83.1449 1326.41 83.293 1326.66 83.498C1326.92 83.6986 1327.14 83.9674 1327.31 84.3047C1327.5 84.6374 1327.63 85.0452 1327.73 85.5283C1327.83 86.0114 1327.87 86.5788 1327.87 87.2305ZM1326.6 88.9531V87.0186C1326.6 86.5719 1326.58 86.18 1326.52 85.8428C1326.47 85.501 1326.4 85.2093 1326.29 84.9678C1326.19 84.7262 1326.07 84.5303 1325.91 84.3799C1325.76 84.2295 1325.59 84.1201 1325.39 84.0518C1325.19 83.9788 1324.97 83.9424 1324.72 83.9424C1324.42 83.9424 1324.16 83.9993 1323.92 84.1133C1323.69 84.2227 1323.49 84.3981 1323.33 84.6396C1323.18 84.8812 1323.06 85.1979 1322.98 85.5898C1322.9 85.9818 1322.86 86.458 1322.86 87.0186V88.9531C1322.86 89.3997 1322.88 89.7939 1322.93 90.1357C1322.99 90.4775 1323.07 90.7738 1323.17 91.0244C1323.28 91.2705 1323.4 91.4733 1323.55 91.6328C1323.7 91.7923 1323.88 91.9108 1324.07 91.9883C1324.27 92.0612 1324.49 92.0977 1324.74 92.0977C1325.05 92.0977 1325.32 92.0384 1325.55 91.9199C1325.78 91.8014 1325.98 91.6169 1326.13 91.3662C1326.29 91.111 1326.41 90.7852 1326.49 90.3887C1326.56 89.9876 1326.6 89.5091 1326.6 88.9531ZM1332.55 88.9531V89.0215C1332.55 90.0195 1332.44 90.9219 1332.21 91.7285C1331.99 92.5352 1331.71 93.2393 1331.36 93.8408C1331.01 94.4469 1330.65 94.9482 1330.27 95.3447C1329.88 95.7458 1329.53 96.0352 1329.21 96.2129L1328.94 95.4473C1329.21 95.2422 1329.48 94.9551 1329.75 94.5859C1330.03 94.2214 1330.28 93.7702 1330.51 93.2324C1330.75 92.6992 1330.93 92.084 1331.07 91.3867C1331.21 90.6849 1331.29 89.901 1331.29 89.0352V88.9395C1331.29 88.0736 1331.21 87.292 1331.06 86.5947C1330.91 85.8929 1330.71 85.2754 1330.47 84.7422C1330.23 84.209 1329.98 83.7601 1329.71 83.3955C1329.44 83.0264 1329.18 82.7415 1328.94 82.541L1329.21 81.7686C1329.53 81.9463 1329.88 82.2357 1330.27 82.6367C1330.65 83.0332 1331.01 83.5345 1331.36 84.1406C1331.71 84.7467 1331.99 85.4531 1332.21 86.2598C1332.44 87.0618 1332.55 87.9596 1332.55 88.9531ZM1341.87 83.9287L1338.57 93H1337.23L1341.02 83.0469H1341.89L1341.87 83.9287ZM1344.63 93L1341.33 83.9287L1341.31 83.0469H1342.17L1345.98 93H1344.63ZM1344.46 89.3154V90.3955H1338.87V89.3154H1344.46ZM1348.39 86.7656V93H1347.12V85.6035H1348.35L1348.39 86.7656ZM1350.7 85.5625L1350.69 86.7383C1350.59 86.7155 1350.49 86.7018 1350.39 86.6973C1350.3 86.6882 1350.2 86.6836 1350.08 86.6836C1349.79 86.6836 1349.53 86.7292 1349.3 86.8203C1349.08 86.9115 1348.89 87.0391 1348.74 87.2031C1348.58 87.3672 1348.46 87.5632 1348.37 87.791C1348.28 88.0143 1348.22 88.2604 1348.2 88.5293L1347.84 88.7344C1347.84 88.2878 1347.89 87.8685 1347.97 87.4766C1348.06 87.0846 1348.2 86.7383 1348.39 86.4375C1348.58 86.1322 1348.81 85.8952 1349.1 85.7266C1349.39 85.5534 1349.74 85.4668 1350.14 85.4668C1350.23 85.4668 1350.33 85.4782 1350.45 85.501C1350.57 85.5192 1350.65 85.5397 1350.7 85.5625ZM1355.31 85.6035V86.5742H1351.31V85.6035H1355.31ZM1352.66 83.8057H1353.93V91.168C1353.93 91.4186 1353.96 91.6077 1354.04 91.7354C1354.12 91.863 1354.22 91.9473 1354.34 91.9883C1354.47 92.0293 1354.6 92.0498 1354.74 92.0498C1354.84 92.0498 1354.95 92.0407 1355.07 92.0225C1355.19 91.9997 1355.27 91.9814 1355.33 91.9678L1355.34 93C1355.24 93.0319 1355.11 93.0615 1354.94 93.0889C1354.78 93.1208 1354.59 93.1367 1354.36 93.1367C1354.05 93.1367 1353.77 93.0752 1353.51 92.9521C1353.25 92.8291 1353.04 92.624 1352.89 92.3369C1352.74 92.0452 1352.66 91.6533 1352.66 91.1611V83.8057ZM1356.81 92.3301C1356.81 92.1159 1356.88 91.9359 1357.01 91.79C1357.15 91.6396 1357.34 91.5645 1357.6 91.5645C1357.85 91.5645 1358.05 91.6396 1358.18 91.79C1358.31 91.9359 1358.38 92.1159 1358.38 92.3301C1358.38 92.5397 1358.31 92.7174 1358.18 92.8633C1358.05 93.0091 1357.85 93.082 1357.6 93.082C1357.34 93.082 1357.15 93.0091 1357.01 92.8633C1356.88 92.7174 1356.81 92.5397 1356.81 92.3301ZM1370.07 87.2305V88.748C1370.07 89.5638 1369.99 90.252 1369.85 90.8125C1369.7 91.373 1369.49 91.8242 1369.22 92.166C1368.94 92.5078 1368.61 92.7562 1368.23 92.9111C1367.84 93.0615 1367.41 93.1367 1366.93 93.1367C1366.54 93.1367 1366.19 93.0889 1365.87 92.9932C1365.54 92.8975 1365.25 92.7448 1364.99 92.5352C1364.74 92.321 1364.52 92.043 1364.34 91.7012C1364.15 91.3594 1364.02 90.9447 1363.92 90.457C1363.82 89.9694 1363.78 89.3997 1363.78 88.748V87.2305C1363.78 86.4147 1363.85 85.7311 1364 85.1797C1364.15 84.6283 1364.36 84.1862 1364.63 83.8535C1364.9 83.5163 1365.23 83.2747 1365.62 83.1289C1366 82.9831 1366.44 82.9102 1366.91 82.9102C1367.3 82.9102 1367.66 82.958 1367.98 83.0537C1368.31 83.1449 1368.6 83.293 1368.86 83.498C1369.11 83.6986 1369.33 83.9674 1369.5 84.3047C1369.69 84.6374 1369.83 85.0452 1369.92 85.5283C1370.02 86.0114 1370.07 86.5788 1370.07 87.2305ZM1368.79 88.9531V87.0186C1368.79 86.5719 1368.77 86.18 1368.71 85.8428C1368.66 85.501 1368.59 85.2093 1368.49 84.9678C1368.39 84.7262 1368.26 84.5303 1368.1 84.3799C1367.95 84.2295 1367.78 84.1201 1367.58 84.0518C1367.38 83.9788 1367.16 83.9424 1366.91 83.9424C1366.61 83.9424 1366.35 83.9993 1366.11 84.1133C1365.88 84.2227 1365.69 84.3981 1365.53 84.6396C1365.37 84.8812 1365.25 85.1979 1365.17 85.5898C1365.09 85.9818 1365.05 86.458 1365.05 87.0186V88.9531C1365.05 89.3997 1365.07 89.7939 1365.12 90.1357C1365.18 90.4775 1365.26 90.7738 1365.36 91.0244C1365.47 91.2705 1365.59 91.4733 1365.75 91.6328C1365.9 91.7923 1366.07 91.9108 1366.26 91.9883C1366.47 92.0612 1366.69 92.0977 1366.93 92.0977C1367.24 92.0977 1367.51 92.0384 1367.74 91.9199C1367.97 91.8014 1368.17 91.6169 1368.32 91.3662C1368.48 91.111 1368.6 90.7852 1368.68 90.3887C1368.76 89.9876 1368.79 89.5091 1368.79 88.9531ZM1372.98 91.4961V92.5146C1372.98 92.9294 1372.87 93.3669 1372.66 93.8271C1372.45 94.292 1372.16 94.6794 1371.78 94.9893L1371.06 94.4902C1371.21 94.2897 1371.33 94.0846 1371.43 93.875C1371.53 93.6699 1371.61 93.4557 1371.66 93.2324C1371.71 93.0137 1371.74 92.7812 1371.74 92.5352V91.4961H1372.98ZM1380.7 87.2305V88.748C1380.7 89.5638 1380.63 90.252 1380.48 90.8125C1380.34 91.373 1380.13 91.8242 1379.85 92.166C1379.58 92.5078 1379.25 92.7562 1378.86 92.9111C1378.48 93.0615 1378.05 93.1367 1377.56 93.1367C1377.18 93.1367 1376.83 93.0889 1376.5 92.9932C1376.18 92.8975 1375.89 92.7448 1375.63 92.5352C1375.37 92.321 1375.16 92.043 1374.97 91.7012C1374.79 91.3594 1374.65 90.9447 1374.56 90.457C1374.46 89.9694 1374.41 89.3997 1374.41 88.748V87.2305C1374.41 86.4147 1374.49 85.7311 1374.63 85.1797C1374.78 84.6283 1374.99 84.1862 1375.27 83.8535C1375.54 83.5163 1375.87 83.2747 1376.25 83.1289C1376.64 82.9831 1377.07 82.9102 1377.55 82.9102C1377.94 82.9102 1378.29 82.958 1378.62 83.0537C1378.95 83.1449 1379.24 83.293 1379.49 83.498C1379.75 83.6986 1379.96 83.9674 1380.14 84.3047C1380.32 84.6374 1380.46 85.0452 1380.56 85.5283C1380.65 86.0114 1380.7 86.5788 1380.7 87.2305ZM1379.43 88.9531V87.0186C1379.43 86.5719 1379.4 86.18 1379.35 85.8428C1379.3 85.501 1379.22 85.2093 1379.12 84.9678C1379.02 84.7262 1378.9 84.5303 1378.74 84.3799C1378.59 84.2295 1378.41 84.1201 1378.21 84.0518C1378.02 83.9788 1377.8 83.9424 1377.55 83.9424C1377.25 83.9424 1376.98 83.9993 1376.75 84.1133C1376.52 84.2227 1376.32 84.3981 1376.16 84.6396C1376.01 84.8812 1375.89 85.1979 1375.81 85.5898C1375.73 85.9818 1375.68 86.458 1375.68 87.0186V88.9531C1375.68 89.3997 1375.71 89.7939 1375.76 90.1357C1375.81 90.4775 1375.89 90.7738 1376 91.0244C1376.1 91.2705 1376.23 91.4733 1376.38 91.6328C1376.53 91.7923 1376.71 91.9108 1376.9 91.9883C1377.1 92.0612 1377.32 92.0977 1377.56 92.0977C1377.87 92.0977 1378.15 92.0384 1378.38 91.9199C1378.61 91.8014 1378.8 91.6169 1378.96 91.3662C1379.12 91.111 1379.24 90.7852 1379.31 90.3887C1379.39 89.9876 1379.43 89.5091 1379.43 88.9531ZM1388.58 87.2305V88.748C1388.58 89.5638 1388.5 90.252 1388.36 90.8125C1388.21 91.373 1388 91.8242 1387.73 92.166C1387.46 92.5078 1387.13 92.7562 1386.74 92.9111C1386.36 93.0615 1385.92 93.1367 1385.44 93.1367C1385.06 93.1367 1384.7 93.0889 1384.38 92.9932C1384.06 92.8975 1383.76 92.7448 1383.5 92.5352C1383.25 92.321 1383.03 92.043 1382.85 91.7012C1382.67 91.3594 1382.53 90.9447 1382.43 90.457C1382.34 89.9694 1382.29 89.3997 1382.29 88.748V87.2305C1382.29 86.4147 1382.36 85.7311 1382.51 85.1797C1382.66 84.6283 1382.87 84.1862 1383.14 83.8535C1383.42 83.5163 1383.74 83.2747 1384.13 83.1289C1384.51 82.9831 1384.95 82.9102 1385.43 82.9102C1385.81 82.9102 1386.17 82.958 1386.49 83.0537C1386.82 83.1449 1387.11 83.293 1387.37 83.498C1387.62 83.6986 1387.84 83.9674 1388.02 84.3047C1388.2 84.6374 1388.34 85.0452 1388.43 85.5283C1388.53 86.0114 1388.58 86.5788 1388.58 87.2305ZM1387.31 88.9531V87.0186C1387.31 86.5719 1387.28 86.18 1387.22 85.8428C1387.17 85.501 1387.1 85.2093 1387 84.9678C1386.9 84.7262 1386.77 84.5303 1386.62 84.3799C1386.46 84.2295 1386.29 84.1201 1386.09 84.0518C1385.89 83.9788 1385.67 83.9424 1385.43 83.9424C1385.12 83.9424 1384.86 83.9993 1384.63 84.1133C1384.39 84.2227 1384.2 84.3981 1384.04 84.6396C1383.88 84.8812 1383.76 85.1979 1383.68 85.5898C1383.6 85.9818 1383.56 86.458 1383.56 87.0186V88.9531C1383.56 89.3997 1383.58 89.7939 1383.63 90.1357C1383.69 90.4775 1383.77 90.7738 1383.87 91.0244C1383.98 91.2705 1384.11 91.4733 1384.26 91.6328C1384.41 91.7923 1384.58 91.9108 1384.78 91.9883C1384.98 92.0612 1385.2 92.0977 1385.44 92.0977C1385.75 92.0977 1386.02 92.0384 1386.25 91.9199C1386.49 91.8014 1386.68 91.6169 1386.83 91.3662C1386.99 91.111 1387.11 90.7852 1387.19 90.3887C1387.27 89.9876 1387.31 89.5091 1387.31 88.9531ZM1394.95 92.0703C1395.21 92.0703 1395.47 92.0498 1395.72 92.0088C1395.97 91.9678 1396.21 91.9108 1396.44 91.8379L1396.58 92.9316C1396.32 92.9954 1396.05 93.0456 1395.78 93.082C1395.5 93.1185 1395.22 93.1367 1394.93 93.1367C1394.39 93.1367 1393.9 93.0547 1393.44 92.8906C1392.99 92.722 1392.6 92.4736 1392.28 92.1455C1391.95 91.8128 1391.69 91.4004 1391.51 90.9082C1391.33 90.4115 1391.24 89.8327 1391.24 89.1719V86.8955C1391.24 86.2301 1391.33 85.6491 1391.51 85.1523C1391.69 84.6556 1391.94 84.2409 1392.27 83.9082C1392.6 83.5755 1392.98 83.3271 1393.43 83.1631C1393.88 82.9945 1394.38 82.9102 1394.93 82.9102C1395.21 82.9102 1395.49 82.9307 1395.75 82.9717C1396.02 83.0081 1396.3 83.0583 1396.58 83.1221L1396.44 84.2227C1396.22 84.1497 1395.98 84.0928 1395.72 84.0518C1395.47 84.0062 1395.21 83.9834 1394.94 83.9834C1394.58 83.9834 1394.25 84.0426 1393.95 84.1611C1393.66 84.2796 1393.41 84.4574 1393.2 84.6943C1392.99 84.9313 1392.84 85.2321 1392.73 85.5967C1392.62 85.9613 1392.56 86.3896 1392.56 86.8818V89.1719C1392.56 89.6641 1392.62 90.0924 1392.73 90.457C1392.84 90.8216 1393 91.1224 1393.21 91.3594C1393.42 91.5964 1393.67 91.7741 1393.96 91.8926C1394.26 92.0111 1394.59 92.0703 1394.95 92.0703ZM1395.19 86.6631V87.5176H1390.03V86.6631H1395.19ZM1395.19 88.4473V89.2949H1390.03V88.4473H1395.19Z" fill="#686868"/>
</g>
<defs>
<clipPath id="clip0_17082_9027">
<rect width="136.75" height="64" fill="white" transform="translate(102 44)"/>
</clipPath>
<clipPath id="clip1_17082_9027">
<rect width="136.75" height="56" fill="white" transform="translate(102 48)"/>
</clipPath>
<clipPath id="clip2_17082_9027">
<rect width="511" height="64" fill="white" transform="translate(887 44)"/>
</clipPath>
</defs>
</svg>
