<svg width="1500" height="116" viewBox="0 0 1500 116" fill="none" xmlns="http://www.w3.org/2000/svg">
<rect width="1500" height="116" fill="white"/>
<rect width="1500" height="28" fill="#F4F4F4"/>
<path d="M541.205 13.9999L545.205 17.9999L544.5 18.7049L539.795 13.9999L544.5 9.29492L545.205 9.99992L541.205 13.9999Z" fill="#686868"/>
<path d="M680.349 9.04688H681.627L684.888 17.1611L688.142 9.04688H689.427L685.38 19H684.382L680.349 9.04688ZM679.932 9.04688H681.06L681.244 15.1172V19H679.932V9.04688ZM688.709 9.04688H689.837V19H688.524V15.1172L688.709 9.04688ZM695.032 19.1367C694.517 19.1367 694.05 19.0501 693.631 18.877C693.216 18.6992 692.858 18.4508 692.558 18.1318C692.261 17.8128 692.034 17.4346 691.874 16.9971C691.715 16.5596 691.635 16.0811 691.635 15.5615V15.2744C691.635 14.6729 691.724 14.1374 691.901 13.668C692.079 13.194 692.321 12.793 692.626 12.4648C692.931 12.1367 693.278 11.8883 693.665 11.7197C694.052 11.5511 694.453 11.4668 694.868 11.4668C695.397 11.4668 695.853 11.5579 696.235 11.7402C696.623 11.9225 696.939 12.1777 697.186 12.5059C697.432 12.8294 697.614 13.2122 697.732 13.6543C697.851 14.0918 697.91 14.5703 697.91 15.0898V15.6572H692.387V14.625H696.646V14.5293C696.627 14.2012 696.559 13.8822 696.44 13.5723C696.326 13.2624 696.144 13.0072 695.894 12.8066C695.643 12.6061 695.301 12.5059 694.868 12.5059C694.581 12.5059 694.317 12.5674 694.075 12.6904C693.834 12.8089 693.626 12.9867 693.453 13.2236C693.28 13.4606 693.146 13.75 693.05 14.0918C692.954 14.4336 692.906 14.8278 692.906 15.2744V15.5615C692.906 15.9124 692.954 16.2428 693.05 16.5527C693.15 16.8581 693.294 17.127 693.48 17.3594C693.672 17.5918 693.902 17.7741 694.171 17.9062C694.444 18.0384 694.754 18.1045 695.101 18.1045C695.547 18.1045 695.925 18.0133 696.235 17.8311C696.545 17.6488 696.816 17.4049 697.049 17.0996L697.814 17.708C697.655 17.9495 697.452 18.1797 697.206 18.3984C696.96 18.6172 696.657 18.7949 696.297 18.9316C695.941 19.0684 695.52 19.1367 695.032 19.1367ZM700.651 13.1826V19H699.387V11.6035H700.583L700.651 13.1826ZM700.351 15.0215L699.824 15.001C699.829 14.4951 699.904 14.028 700.05 13.5996C700.196 13.1667 700.401 12.7907 700.665 12.4717C700.929 12.1527 701.244 11.9066 701.608 11.7334C701.978 11.5557 702.385 11.4668 702.832 11.4668C703.197 11.4668 703.525 11.5169 703.816 11.6172C704.108 11.7129 704.356 11.8678 704.562 12.082C704.771 12.2962 704.931 12.5742 705.04 12.916C705.149 13.2533 705.204 13.6657 705.204 14.1533V19H703.933V14.1396C703.933 13.7523 703.876 13.4424 703.762 13.21C703.648 12.973 703.481 12.8021 703.263 12.6973C703.044 12.5879 702.775 12.5332 702.456 12.5332C702.142 12.5332 701.854 12.5993 701.595 12.7314C701.34 12.8636 701.118 13.0459 700.932 13.2783C700.749 13.5107 700.606 13.7773 700.501 14.0781C700.401 14.3743 700.351 14.6888 700.351 15.0215ZM711.432 17.0381C711.432 16.8558 711.391 16.6872 711.309 16.5322C711.231 16.3727 711.069 16.2292 710.823 16.1016C710.582 15.9694 710.217 15.8555 709.729 15.7598C709.319 15.6732 708.948 15.5706 708.615 15.4521C708.287 15.3337 708.007 15.1901 707.774 15.0215C707.547 14.8529 707.371 14.6546 707.248 14.4268C707.125 14.1989 707.063 13.9323 707.063 13.627C707.063 13.3353 707.127 13.0596 707.255 12.7998C707.387 12.54 707.572 12.3099 707.809 12.1094C708.05 11.9089 708.34 11.7516 708.677 11.6377C709.014 11.5238 709.39 11.4668 709.805 11.4668C710.397 11.4668 710.903 11.5716 711.322 11.7812C711.742 11.9909 712.063 12.2712 712.286 12.6221C712.509 12.9684 712.621 13.3535 712.621 13.7773H711.356C711.356 13.5723 711.295 13.374 711.172 13.1826C711.053 12.9867 710.878 12.8249 710.646 12.6973C710.418 12.5697 710.137 12.5059 709.805 12.5059C709.454 12.5059 709.169 12.5605 708.95 12.6699C708.736 12.7747 708.579 12.9092 708.479 13.0732C708.383 13.2373 708.335 13.4105 708.335 13.5928C708.335 13.7295 708.358 13.8525 708.403 13.9619C708.453 14.0667 708.54 14.1647 708.663 14.2559C708.786 14.3424 708.959 14.4245 709.183 14.502C709.406 14.5794 709.691 14.6569 710.037 14.7344C710.643 14.8711 711.142 15.0352 711.534 15.2266C711.926 15.418 712.218 15.6527 712.409 15.9307C712.601 16.2087 712.696 16.5459 712.696 16.9424C712.696 17.266 712.628 17.5622 712.491 17.8311C712.359 18.0999 712.165 18.3324 711.91 18.5283C711.66 18.7197 711.359 18.8701 711.008 18.9795C710.661 19.0843 710.272 19.1367 709.839 19.1367C709.187 19.1367 708.636 19.0205 708.185 18.7881C707.733 18.5557 707.392 18.2549 707.159 17.8857C706.927 17.5166 706.811 17.127 706.811 16.7168H708.082C708.1 17.0632 708.201 17.3389 708.383 17.5439C708.565 17.7445 708.788 17.888 709.053 17.9746C709.317 18.0566 709.579 18.0977 709.839 18.0977C710.185 18.0977 710.475 18.0521 710.707 17.9609C710.944 17.8698 711.124 17.7445 711.247 17.585C711.37 17.4255 711.432 17.2432 711.432 17.0381ZM718.719 17.7354V13.9277C718.719 13.6361 718.66 13.3831 718.541 13.1689C718.427 12.9502 718.254 12.7816 718.021 12.6631C717.789 12.5446 717.502 12.4854 717.16 12.4854C716.841 12.4854 716.561 12.54 716.319 12.6494C716.082 12.7588 715.896 12.9023 715.759 13.0801C715.627 13.2578 715.561 13.4492 715.561 13.6543H714.296C714.296 13.39 714.364 13.1279 714.501 12.8682C714.638 12.6084 714.834 12.3737 715.089 12.1641C715.349 11.9499 715.659 11.7812 716.019 11.6582C716.383 11.5306 716.789 11.4668 717.235 11.4668C717.773 11.4668 718.247 11.5579 718.657 11.7402C719.072 11.9225 719.396 12.1982 719.628 12.5674C719.865 12.932 719.983 13.39 719.983 13.9414V17.3867C719.983 17.6328 720.004 17.8949 720.045 18.1729C720.09 18.4508 720.157 18.6901 720.243 18.8906V19H718.924C718.86 18.8542 718.81 18.6605 718.773 18.4189C718.737 18.1729 718.719 17.945 718.719 17.7354ZM718.938 14.5156L718.951 15.4043H717.673C717.313 15.4043 716.992 15.4339 716.709 15.4932C716.426 15.5479 716.189 15.6322 715.998 15.7461C715.807 15.86 715.661 16.0036 715.561 16.1768C715.46 16.3454 715.41 16.5436 715.41 16.7715C715.41 17.0039 715.463 17.2158 715.567 17.4072C715.672 17.5986 715.829 17.7513 716.039 17.8652C716.253 17.9746 716.515 18.0293 716.825 18.0293C717.213 18.0293 717.554 17.9473 717.851 17.7832C718.147 17.6191 718.382 17.4186 718.555 17.1816C718.732 16.9447 718.828 16.7145 718.842 16.4912L719.382 17.0996C719.35 17.291 719.263 17.5029 719.122 17.7354C718.981 17.9678 718.792 18.1911 718.555 18.4053C718.322 18.6149 718.044 18.7904 717.721 18.9316C717.402 19.0684 717.042 19.1367 716.641 19.1367C716.139 19.1367 715.7 19.0387 715.321 18.8428C714.948 18.6468 714.656 18.3848 714.446 18.0566C714.241 17.724 714.139 17.3525 714.139 16.9424C714.139 16.5459 714.216 16.1973 714.371 15.8965C714.526 15.5911 714.749 15.3382 715.041 15.1377C715.333 14.9326 715.684 14.7777 716.094 14.6729C716.504 14.568 716.962 14.5156 717.468 14.5156H718.938ZM722.007 11.6035H723.278V19.8818C723.278 20.333 723.205 20.7158 723.06 21.0303C722.918 21.3447 722.704 21.5817 722.417 21.7412C722.134 21.9053 721.777 21.9873 721.344 21.9873C721.23 21.9873 721.098 21.9759 720.947 21.9531C720.792 21.9303 720.662 21.903 720.558 21.8711L720.564 20.8525C720.651 20.8708 720.749 20.8844 720.858 20.8936C720.968 20.9072 721.063 20.9141 721.146 20.9141C721.332 20.9141 721.49 20.8799 721.617 20.8115C721.745 20.7432 721.84 20.6338 721.904 20.4834C721.973 20.333 722.007 20.1325 722.007 19.8818V11.6035ZM721.877 9.6416C721.877 9.43652 721.941 9.26335 722.068 9.12207C722.196 8.98079 722.381 8.91016 722.622 8.91016C722.868 8.91016 723.055 8.98079 723.183 9.12207C723.31 9.26335 723.374 9.43652 723.374 9.6416C723.374 9.83757 723.31 10.0062 723.183 10.1475C723.055 10.2842 722.868 10.3525 722.622 10.3525C722.381 10.3525 722.196 10.2842 722.068 10.1475C721.941 10.0062 721.877 9.83757 721.877 9.6416ZM728.392 19.1367C727.877 19.1367 727.41 19.0501 726.99 18.877C726.576 18.6992 726.218 18.4508 725.917 18.1318C725.621 17.8128 725.393 17.4346 725.233 16.9971C725.074 16.5596 724.994 16.0811 724.994 15.5615V15.2744C724.994 14.6729 725.083 14.1374 725.261 13.668C725.438 13.194 725.68 12.793 725.985 12.4648C726.291 12.1367 726.637 11.8883 727.024 11.7197C727.412 11.5511 727.813 11.4668 728.228 11.4668C728.756 11.4668 729.212 11.5579 729.595 11.7402C729.982 11.9225 730.299 12.1777 730.545 12.5059C730.791 12.8294 730.973 13.2122 731.092 13.6543C731.21 14.0918 731.27 14.5703 731.27 15.0898V15.6572H725.746V14.625H730.005V14.5293C729.987 14.2012 729.918 13.8822 729.8 13.5723C729.686 13.2624 729.504 13.0072 729.253 12.8066C729.002 12.6061 728.66 12.5059 728.228 12.5059C727.94 12.5059 727.676 12.5674 727.435 12.6904C727.193 12.8089 726.986 12.9867 726.812 13.2236C726.639 13.4606 726.505 13.75 726.409 14.0918C726.313 14.4336 726.266 14.8278 726.266 15.2744V15.5615C726.266 15.9124 726.313 16.2428 726.409 16.5527C726.509 16.8581 726.653 17.127 726.84 17.3594C727.031 17.5918 727.261 17.7741 727.53 17.9062C727.804 18.0384 728.114 18.1045 728.46 18.1045C728.907 18.1045 729.285 18.0133 729.595 17.8311C729.905 17.6488 730.176 17.4049 730.408 17.0996L731.174 17.708C731.014 17.9495 730.812 18.1797 730.565 18.3984C730.319 18.6172 730.016 18.7949 729.656 18.9316C729.301 19.0684 728.879 19.1367 728.392 19.1367ZM740.881 17.5645V8.5H742.152V19H740.99L740.881 17.5645ZM735.904 15.3838V15.2402C735.904 14.6751 735.973 14.1624 736.109 13.7021C736.251 13.2373 736.449 12.8385 736.704 12.5059C736.964 12.1732 737.271 11.918 737.627 11.7402C737.987 11.5579 738.388 11.4668 738.83 11.4668C739.295 11.4668 739.701 11.5488 740.047 11.7129C740.398 11.8724 740.694 12.1071 740.936 12.417C741.182 12.7223 741.375 13.0915 741.517 13.5244C741.658 13.9574 741.756 14.4473 741.811 14.9941V15.623C741.76 16.1654 741.662 16.653 741.517 17.0859C741.375 17.5189 741.182 17.888 740.936 18.1934C740.694 18.4987 740.398 18.7334 740.047 18.8975C739.696 19.057 739.286 19.1367 738.816 19.1367C738.383 19.1367 737.987 19.0433 737.627 18.8564C737.271 18.6696 736.964 18.4076 736.704 18.0703C736.449 17.7331 736.251 17.3366 736.109 16.8809C735.973 16.4206 735.904 15.9215 735.904 15.3838ZM737.176 15.2402V15.3838C737.176 15.7529 737.212 16.0993 737.285 16.4229C737.363 16.7464 737.481 17.0312 737.641 17.2773C737.8 17.5234 738.003 17.7171 738.249 17.8584C738.495 17.9951 738.789 18.0635 739.131 18.0635C739.55 18.0635 739.894 17.9746 740.163 17.7969C740.437 17.6191 740.655 17.3844 740.819 17.0928C740.983 16.8011 741.111 16.4844 741.202 16.1426V14.4951C741.147 14.2445 741.068 14.0029 740.963 13.7705C740.863 13.5335 740.73 13.3239 740.566 13.1416C740.407 12.9548 740.209 12.8066 739.972 12.6973C739.739 12.5879 739.464 12.5332 739.145 12.5332C738.798 12.5332 738.5 12.6061 738.249 12.752C738.003 12.8932 737.8 13.0892 737.641 13.3398C737.481 13.5859 737.363 13.873 737.285 14.2012C737.212 14.5247 737.176 14.8711 737.176 15.2402ZM747.19 19.1367C746.675 19.1367 746.208 19.0501 745.789 18.877C745.374 18.6992 745.017 18.4508 744.716 18.1318C744.42 17.8128 744.192 17.4346 744.032 16.9971C743.873 16.5596 743.793 16.0811 743.793 15.5615V15.2744C743.793 14.6729 743.882 14.1374 744.06 13.668C744.237 13.194 744.479 12.793 744.784 12.4648C745.09 12.1367 745.436 11.8883 745.823 11.7197C746.211 11.5511 746.612 11.4668 747.026 11.4668C747.555 11.4668 748.011 11.5579 748.394 11.7402C748.781 11.9225 749.098 12.1777 749.344 12.5059C749.59 12.8294 749.772 13.2122 749.891 13.6543C750.009 14.0918 750.068 14.5703 750.068 15.0898V15.6572H744.545V14.625H748.804V14.5293C748.785 14.2012 748.717 13.8822 748.599 13.5723C748.485 13.2624 748.302 13.0072 748.052 12.8066C747.801 12.6061 747.459 12.5059 747.026 12.5059C746.739 12.5059 746.475 12.5674 746.233 12.6904C745.992 12.8089 745.785 12.9867 745.611 13.2236C745.438 13.4606 745.304 13.75 745.208 14.0918C745.112 14.4336 745.064 14.8278 745.064 15.2744V15.5615C745.064 15.9124 745.112 16.2428 745.208 16.5527C745.308 16.8581 745.452 17.127 745.639 17.3594C745.83 17.5918 746.06 17.7741 746.329 17.9062C746.603 18.0384 746.912 18.1045 747.259 18.1045C747.705 18.1045 748.084 18.0133 748.394 17.8311C748.703 17.6488 748.975 17.4049 749.207 17.0996L749.973 17.708C749.813 17.9495 749.61 18.1797 749.364 18.3984C749.118 18.6172 748.815 18.7949 748.455 18.9316C748.1 19.0684 747.678 19.1367 747.19 19.1367ZM756.282 13.0254V21.8438H755.011V11.6035H756.173L756.282 13.0254ZM761.266 15.2402V15.3838C761.266 15.9215 761.202 16.4206 761.074 16.8809C760.947 17.3366 760.76 17.7331 760.514 18.0703C760.272 18.4076 759.974 18.6696 759.618 18.8564C759.263 19.0433 758.855 19.1367 758.395 19.1367C757.925 19.1367 757.51 19.0592 757.15 18.9043C756.79 18.7493 756.485 18.5238 756.234 18.2275C755.984 17.9313 755.783 17.5758 755.633 17.1611C755.487 16.7464 755.387 16.2793 755.332 15.7598V14.9941C755.387 14.4473 755.489 13.9574 755.64 13.5244C755.79 13.0915 755.988 12.7223 756.234 12.417C756.485 12.1071 756.788 11.8724 757.144 11.7129C757.499 11.5488 757.909 11.4668 758.374 11.4668C758.839 11.4668 759.251 11.5579 759.611 11.7402C759.971 11.918 760.274 12.1732 760.521 12.5059C760.767 12.8385 760.951 13.2373 761.074 13.7021C761.202 14.1624 761.266 14.6751 761.266 15.2402ZM759.994 15.3838V15.2402C759.994 14.8711 759.955 14.5247 759.878 14.2012C759.8 13.873 759.68 13.5859 759.516 13.3398C759.356 13.0892 759.151 12.8932 758.9 12.752C758.65 12.6061 758.351 12.5332 758.005 12.5332C757.686 12.5332 757.408 12.5879 757.171 12.6973C756.938 12.8066 756.74 12.9548 756.576 13.1416C756.412 13.3239 756.278 13.5335 756.173 13.7705C756.073 14.0029 755.997 14.2445 755.947 14.4951V16.2656C756.038 16.5846 756.166 16.8854 756.33 17.168C756.494 17.446 756.713 17.6715 756.986 17.8447C757.26 18.0133 757.604 18.0977 758.019 18.0977C758.36 18.0977 758.654 18.027 758.9 17.8857C759.151 17.7399 759.356 17.5417 759.516 17.291C759.68 17.0404 759.8 16.7533 759.878 16.4297C759.955 16.1016 759.994 15.7529 759.994 15.3838ZM764.144 12.7656V19H762.879V11.6035H764.109L764.144 12.7656ZM766.454 11.5625L766.447 12.7383C766.342 12.7155 766.242 12.7018 766.146 12.6973C766.055 12.6882 765.951 12.6836 765.832 12.6836C765.54 12.6836 765.283 12.7292 765.06 12.8203C764.836 12.9115 764.647 13.0391 764.492 13.2031C764.337 13.3672 764.214 13.5632 764.123 13.791C764.036 14.0143 763.979 14.2604 763.952 14.5293L763.597 14.7344C763.597 14.2878 763.64 13.8685 763.727 13.4766C763.818 13.0846 763.957 12.7383 764.144 12.4375C764.33 12.1322 764.567 11.8952 764.854 11.7266C765.146 11.5534 765.493 11.4668 765.894 11.4668C765.985 11.4668 766.09 11.4782 766.208 11.501C766.326 11.5192 766.409 11.5397 766.454 11.5625ZM767.151 15.3838V15.2266C767.151 14.6934 767.229 14.1989 767.384 13.7432C767.539 13.2829 767.762 12.8841 768.054 12.5469C768.345 12.2051 768.699 11.9408 769.113 11.7539C769.528 11.5625 769.993 11.4668 770.508 11.4668C771.027 11.4668 771.494 11.5625 771.909 11.7539C772.328 11.9408 772.684 12.2051 772.976 12.5469C773.272 12.8841 773.497 13.2829 773.652 13.7432C773.807 14.1989 773.885 14.6934 773.885 15.2266V15.3838C773.885 15.917 773.807 16.4115 773.652 16.8672C773.497 17.3229 773.272 17.7217 772.976 18.0635C772.684 18.4007 772.331 18.665 771.916 18.8564C771.506 19.0433 771.041 19.1367 770.521 19.1367C770.002 19.1367 769.535 19.0433 769.12 18.8564C768.705 18.665 768.35 18.4007 768.054 18.0635C767.762 17.7217 767.539 17.3229 767.384 16.8672C767.229 16.4115 767.151 15.917 767.151 15.3838ZM768.416 15.2266V15.3838C768.416 15.7529 768.459 16.1016 768.546 16.4297C768.632 16.7533 768.762 17.0404 768.936 17.291C769.113 17.5417 769.334 17.7399 769.599 17.8857C769.863 18.027 770.171 18.0977 770.521 18.0977C770.868 18.0977 771.171 18.027 771.431 17.8857C771.695 17.7399 771.914 17.5417 772.087 17.291C772.26 17.0404 772.39 16.7533 772.477 16.4297C772.568 16.1016 772.613 15.7529 772.613 15.3838V15.2266C772.613 14.862 772.568 14.5179 772.477 14.1943C772.39 13.8662 772.258 13.5768 772.08 13.3262C771.907 13.071 771.688 12.8704 771.424 12.7246C771.164 12.5788 770.859 12.5059 770.508 12.5059C770.161 12.5059 769.856 12.5788 769.592 12.7246C769.332 12.8704 769.113 13.071 768.936 13.3262C768.762 13.5768 768.632 13.8662 768.546 14.1943C768.459 14.5179 768.416 14.862 768.416 15.2266ZM776.729 13.0732V19H775.457V11.6035H776.66L776.729 13.0732ZM776.469 15.0215L775.881 15.001C775.885 14.4951 775.951 14.028 776.079 13.5996C776.207 13.1667 776.396 12.7907 776.646 12.4717C776.897 12.1527 777.209 11.9066 777.583 11.7334C777.957 11.5557 778.39 11.4668 778.882 11.4668C779.228 11.4668 779.547 11.5169 779.839 11.6172C780.131 11.7129 780.383 11.8656 780.598 12.0752C780.812 12.2848 780.978 12.5537 781.097 12.8818C781.215 13.21 781.274 13.6064 781.274 14.0713V19H780.01V14.1328C780.01 13.7454 779.944 13.4355 779.812 13.2031C779.684 12.9707 779.502 12.8021 779.265 12.6973C779.028 12.5879 778.75 12.5332 778.431 12.5332C778.057 12.5332 777.745 12.5993 777.494 12.7314C777.243 12.8636 777.043 13.0459 776.893 13.2783C776.742 13.5107 776.633 13.7773 776.564 14.0781C776.501 14.3743 776.469 14.6888 776.469 15.0215ZM781.261 14.3242L780.413 14.584C780.418 14.1784 780.484 13.7887 780.611 13.415C780.743 13.0413 780.933 12.7087 781.179 12.417C781.429 12.1253 781.737 11.8952 782.102 11.7266C782.466 11.5534 782.883 11.4668 783.353 11.4668C783.749 11.4668 784.1 11.5192 784.405 11.624C784.715 11.7288 784.975 11.8906 785.185 12.1094C785.399 12.3236 785.561 12.5993 785.67 12.9365C785.779 13.2738 785.834 13.6748 785.834 14.1396V19H784.562V14.126C784.562 13.7113 784.496 13.39 784.364 13.1621C784.237 12.9297 784.054 12.7679 783.817 12.6768C783.585 12.5811 783.307 12.5332 782.983 12.5332C782.705 12.5332 782.459 12.5811 782.245 12.6768C782.031 12.7725 781.851 12.9046 781.705 13.0732C781.559 13.2373 781.448 13.4264 781.37 13.6406C781.297 13.8548 781.261 14.0827 781.261 14.3242ZM787.413 15.3838V15.2266C787.413 14.6934 787.491 14.1989 787.646 13.7432C787.8 13.2829 788.024 12.8841 788.315 12.5469C788.607 12.2051 788.96 11.9408 789.375 11.7539C789.79 11.5625 790.255 11.4668 790.77 11.4668C791.289 11.4668 791.756 11.5625 792.171 11.7539C792.59 11.9408 792.946 12.2051 793.237 12.5469C793.534 12.8841 793.759 13.2829 793.914 13.7432C794.069 14.1989 794.146 14.6934 794.146 15.2266V15.3838C794.146 15.917 794.069 16.4115 793.914 16.8672C793.759 17.3229 793.534 17.7217 793.237 18.0635C792.946 18.4007 792.592 18.665 792.178 18.8564C791.768 19.0433 791.303 19.1367 790.783 19.1367C790.264 19.1367 789.797 19.0433 789.382 18.8564C788.967 18.665 788.612 18.4007 788.315 18.0635C788.024 17.7217 787.8 17.3229 787.646 16.8672C787.491 16.4115 787.413 15.917 787.413 15.3838ZM788.678 15.2266V15.3838C788.678 15.7529 788.721 16.1016 788.808 16.4297C788.894 16.7533 789.024 17.0404 789.197 17.291C789.375 17.5417 789.596 17.7399 789.86 17.8857C790.125 18.027 790.432 18.0977 790.783 18.0977C791.13 18.0977 791.433 18.027 791.692 17.8857C791.957 17.7399 792.175 17.5417 792.349 17.291C792.522 17.0404 792.652 16.7533 792.738 16.4297C792.829 16.1016 792.875 15.7529 792.875 15.3838V15.2266C792.875 14.862 792.829 14.5179 792.738 14.1943C792.652 13.8662 792.52 13.5768 792.342 13.3262C792.169 13.071 791.95 12.8704 791.686 12.7246C791.426 12.5788 791.12 12.5059 790.77 12.5059C790.423 12.5059 790.118 12.5788 789.854 12.7246C789.594 12.8704 789.375 13.071 789.197 13.3262C789.024 13.5768 788.894 13.8662 788.808 14.1943C788.721 14.5179 788.678 14.862 788.678 15.2266ZM798.692 18.0977C798.993 18.0977 799.271 18.0361 799.526 17.9131C799.782 17.79 799.991 17.6214 800.155 17.4072C800.319 17.1885 800.413 16.9401 800.436 16.6621H801.639C801.616 17.0996 801.468 17.5075 801.194 17.8857C800.925 18.2594 800.572 18.5625 800.135 18.7949C799.697 19.0228 799.216 19.1367 798.692 19.1367C798.136 19.1367 797.651 19.0387 797.236 18.8428C796.826 18.6468 796.484 18.3779 796.211 18.0361C795.942 17.6943 795.739 17.3024 795.603 16.8604C795.47 16.4137 795.404 15.9421 795.404 15.4453V15.1582C795.404 14.6615 795.47 14.1921 795.603 13.75C795.739 13.3034 795.942 12.9092 796.211 12.5674C796.484 12.2256 796.826 11.9567 797.236 11.7607C797.651 11.5648 798.136 11.4668 798.692 11.4668C799.271 11.4668 799.777 11.5853 800.21 11.8223C800.643 12.0547 800.982 12.3737 801.229 12.7793C801.479 13.1803 801.616 13.6361 801.639 14.1465H800.436C800.413 13.8411 800.326 13.5654 800.176 13.3193C800.03 13.0732 799.829 12.8773 799.574 12.7314C799.324 12.5811 799.03 12.5059 798.692 12.5059C798.305 12.5059 797.979 12.5833 797.715 12.7383C797.455 12.8887 797.248 13.0938 797.093 13.3535C796.942 13.6087 796.833 13.8936 796.765 14.208C796.701 14.5179 796.669 14.8346 796.669 15.1582V15.4453C796.669 15.7689 796.701 16.0879 796.765 16.4023C796.828 16.7168 796.936 17.0016 797.086 17.2568C797.241 17.512 797.448 17.7171 797.708 17.8721C797.972 18.0225 798.3 18.0977 798.692 18.0977ZM804.435 11.6035V19H803.163V11.6035H804.435ZM803.067 9.6416C803.067 9.43652 803.129 9.26335 803.252 9.12207C803.38 8.98079 803.566 8.91016 803.812 8.91016C804.054 8.91016 804.239 8.98079 804.366 9.12207C804.498 9.26335 804.564 9.43652 804.564 9.6416C804.564 9.83757 804.498 10.0062 804.366 10.1475C804.239 10.2842 804.054 10.3525 803.812 10.3525C803.566 10.3525 803.38 10.2842 803.252 10.1475C803.129 10.0062 803.067 9.83757 803.067 9.6416ZM806.13 15.3838V15.2266C806.13 14.6934 806.207 14.1989 806.362 13.7432C806.517 13.2829 806.741 12.8841 807.032 12.5469C807.324 12.2051 807.677 11.9408 808.092 11.7539C808.507 11.5625 808.971 11.4668 809.486 11.4668C810.006 11.4668 810.473 11.5625 810.888 11.7539C811.307 11.9408 811.662 12.2051 811.954 12.5469C812.25 12.8841 812.476 13.2829 812.631 13.7432C812.786 14.1989 812.863 14.6934 812.863 15.2266V15.3838C812.863 15.917 812.786 16.4115 812.631 16.8672C812.476 17.3229 812.25 17.7217 811.954 18.0635C811.662 18.4007 811.309 18.665 810.895 18.8564C810.484 19.0433 810.02 19.1367 809.5 19.1367C808.98 19.1367 808.513 19.0433 808.099 18.8564C807.684 18.665 807.328 18.4007 807.032 18.0635C806.741 17.7217 806.517 17.3229 806.362 16.8672C806.207 16.4115 806.13 15.917 806.13 15.3838ZM807.395 15.2266V15.3838C807.395 15.7529 807.438 16.1016 807.524 16.4297C807.611 16.7533 807.741 17.0404 807.914 17.291C808.092 17.5417 808.313 17.7399 808.577 17.8857C808.841 18.027 809.149 18.0977 809.5 18.0977C809.846 18.0977 810.149 18.027 810.409 17.8857C810.674 17.7399 810.892 17.5417 811.065 17.291C811.239 17.0404 811.368 16.7533 811.455 16.4297C811.546 16.1016 811.592 15.7529 811.592 15.3838V15.2266C811.592 14.862 811.546 14.5179 811.455 14.1943C811.368 13.8662 811.236 13.5768 811.059 13.3262C810.885 13.071 810.667 12.8704 810.402 12.7246C810.143 12.5788 809.837 12.5059 809.486 12.5059C809.14 12.5059 808.835 12.5788 808.57 12.7246C808.311 12.8704 808.092 13.071 807.914 13.3262C807.741 13.5768 807.611 13.8662 807.524 14.1943C807.438 14.5179 807.395 14.862 807.395 15.2266ZM808.734 10.5098L810.061 8.5H811.585L809.753 10.5098H808.734ZM815.714 13.1826V19H814.449V11.6035H815.646L815.714 13.1826ZM815.413 15.0215L814.887 15.001C814.891 14.4951 814.966 14.028 815.112 13.5996C815.258 13.1667 815.463 12.7907 815.728 12.4717C815.992 12.1527 816.306 11.9066 816.671 11.7334C817.04 11.5557 817.448 11.4668 817.895 11.4668C818.259 11.4668 818.587 11.5169 818.879 11.6172C819.171 11.7129 819.419 11.8678 819.624 12.082C819.834 12.2962 819.993 12.5742 820.103 12.916C820.212 13.2533 820.267 13.6657 820.267 14.1533V19H818.995V14.1396C818.995 13.7523 818.938 13.4424 818.824 13.21C818.71 12.973 818.544 12.8021 818.325 12.6973C818.106 12.5879 817.838 12.5332 817.519 12.5332C817.204 12.5332 816.917 12.5993 816.657 12.7314C816.402 12.8636 816.181 13.0459 815.994 13.2783C815.812 13.5107 815.668 13.7773 815.563 14.0781C815.463 14.3743 815.413 14.6888 815.413 15.0215Z" fill="#686868"/>
<path d="M960.205 13.9999L955.5 18.7049L954.795 17.9999L958.795 13.9999L954.795 9.99992L955.5 9.29492L960.205 13.9999Z" fill="#686868"/>
<path d="M117 71.25H135V72.75H117V71.25ZM117 65.25V66.75H135V65.25H117ZM117 78.75H135V77.25H117V78.75Z" fill="#686868"/>
<g clip-path="url(#clip0_17084_11957)">
<path d="M802.125 56.0625L799.25 58.9375C797.188 57.5 794.75 56.625 792 56.625C784.562 56.625 779.125 62.3125 779.125 70.1875C779.125 77.875 784.688 83.75 792 83.75C792.125 83.75 792.188 83.75 792.312 83.75C792.312 83.75 793.25 83.75 794.125 83.9375C794.75 84 795.375 84.1875 795.75 84.375C798.188 85.4375 798.75 87.8125 798.812 88.9375C798.875 91.6875 795.688 93.8125 791.938 93.8125C788.625 93.8125 784.625 92.8125 784.625 87.875H779C779 95.375 783.938 100 791.938 100C798.688 100 804.062 95.6875 804.688 89.6875C805 86.75 803.625 83 800.562 80.4375C803.125 78 804.688 74.4375 804.688 70.25C804.688 67.875 804.188 65.625 803.25 63.6875L806.5 60.4375L802.125 56.0625ZM791.938 77.5625C788.312 77.5625 785.25 74.875 785.25 70.25C785.25 65.3125 788.312 62.875 791.938 62.875C795.562 62.875 798.5 65.75 798.5 70.25C798.5 74.8125 795.562 77.5625 791.938 77.5625ZM771.562 60.5C770.438 59.3125 769.125 58.375 767.5 57.75C765.938 57.125 764.188 56.75 762.375 56.75C760.5 56.75 758.812 57.0625 757.25 57.75C755.688 58.375 754.375 59.3125 753.188 60.5C752.062 61.6875 751.188 63.125 750.562 64.8125C749.938 66.5 749.625 68.375 749.625 70.4375C749.625 72.5 749.938 74.375 750.562 76.125C751.188 77.8125 752.062 79.25 753.188 80.5C754.312 81.6875 755.625 82.625 757.188 83.3125C758.75 84 760.5 84.3125 762.375 84.3125C764.25 84.3125 766 84 767.562 83.3125C769.125 82.625 770.5 81.6875 771.625 80.5C772.75 79.3125 773.625 77.875 774.188 76.125C774.812 74.4375 775.125 72.5625 775.125 70.4375C775.125 68.375 774.812 66.5 774.188 64.8125C773.562 63.125 772.688 61.6875 771.562 60.5ZM768.375 74.0625C768.062 75 767.625 75.75 767.062 76.3125C766.562 76.875 765.938 77.3125 765.125 77.625C764.312 77.9375 763.438 78.125 762.375 78.125C761.312 78.125 760.438 77.9375 759.688 77.625C758.938 77.3125 758.312 76.875 757.75 76.3125C757.188 75.6875 756.75 74.9375 756.375 74C756 73 755.812 71.75 755.812 70.4375C755.812 69.125 756 67.875 756.375 66.875C756.75 65.9375 757.188 65.1875 757.75 64.625C758.312 64.0625 758.938 63.625 759.688 63.3125C760.5 63 761.375 62.8125 762.438 62.8125C763.5 62.8125 764.375 63 765.188 63.3125C765.938 63.625 766.562 64.0625 767.062 64.5625C767.625 65.1875 768.062 65.9375 768.438 66.875C768.812 67.875 769 69.0625 769 70.4375C768.938 71.8125 768.75 73.0625 768.375 74.0625ZM697.375 77.9375L698.375 82.875C697.688 83.1875 696.688 83.5 695.562 83.8125C694.375 84.125 693.062 84.3125 691.438 84.3125C689.5 84.3125 687.938 84.0625 686.625 83.5625C685.375 83.0625 684.312 82.3125 683.562 81.3125C682.812 80.3125 682.312 79.1875 682 77.75C681.75 76.375 681.625 74.75 681.625 73V49.8125L687.812 48.8125V56.9375H697.312V62.125H687.812V73.0625C687.812 75.1875 688.125 76.75 688.812 77.6875C689.5 78.625 690.625 79.0625 692.312 79.0625C693.438 79.0625 694.438 78.9375 695.312 78.6875C696.188 78.375 696.875 78.125 697.375 77.9375ZM718.625 56.625C719.125 56.75 719.562 56.875 719.875 56.9375L718.812 62.1875C718.312 62 717.562 61.8125 716.688 61.625C715.75 61.4375 714.75 61.3125 713.5 61.3125C712.812 61.3125 712.062 61.375 711.312 61.5C710.562 61.625 710 61.75 709.688 61.875V83.5H703.5V57.9375C704.688 57.5 706.188 57.0625 708 56.6875C709.812 56.3125 711.812 56.125 714 56.125C714.438 56.125 714.875 56.125 715.438 56.1875C716 56.25 716.562 56.3125 717.062 56.375C717.562 56.4375 718.125 56.5625 718.625 56.625ZM729.875 46.1875C730.625 46.875 731 47.8125 731 49.0625C731 50.25 730.625 51.1875 729.875 51.875C729.125 52.5625 728.188 52.9375 727.188 52.9375C726.125 52.9375 725.188 52.5625 724.438 51.875C723.688 51.1875 723.312 50.25 723.312 49.0625C723.312 47.875 723.688 46.875 724.438 46.1875C725.188 45.5 726.125 45.125 727.188 45.125C728.188 45.125 729.062 45.5 729.875 46.1875ZM723.938 56.75H730.312V83.625H723.938V56.75ZM746.312 78.6875C746.812 78.875 747.5 79 748.312 79.125L747.438 84.25C745.562 84.1875 744.062 84 742.875 83.625C741.688 83.25 740.688 82.6875 740 82C739.312 81.3125 738.75 80.4375 738.5 79.375C738.25 78.3125 738.062 77.125 738.062 75.8125V45L744.25 44V74.6875C744.25 75.4375 744.312 76.0625 744.438 76.5625C744.562 77.0625 744.75 77.5 745.062 77.875C745.375 78.25 745.812 78.5 746.312 78.6875ZM817.25 46.1875C818 46.875 818.375 47.8125 818.375 49.0625C818.375 50.25 818 51.1875 817.25 51.875C816.5 52.5625 815.562 52.9375 814.562 52.9375C813.5 52.9375 812.562 52.5625 811.812 51.875C811.062 51.1875 810.688 50.25 810.688 49.0625C810.688 47.875 811.062 46.875 811.812 46.1875C812.562 45.5 813.5 45.125 814.562 45.125C815.562 45.125 816.438 45.5 817.25 46.1875ZM811.312 56.75H817.688V83.625H811.312V56.75Z" fill="black"/>
</g>
<path d="M1288.28 81.2175L1282.09 75.0225C1283.28 73.59 1284 71.7525 1284 69.75C1284 65.1975 1280.3 61.5 1275.75 61.5C1271.2 61.5 1267.5 65.1975 1267.5 69.75C1267.5 74.3025 1271.2 78 1275.75 78C1277.75 78 1279.6 77.28 1281.02 76.0875L1287.22 82.2825L1288.28 81.225L1288.28 81.2175ZM1269 69.75C1269 66.03 1272.03 63 1275.75 63C1279.47 63 1282.5 66.03 1282.5 69.75C1282.5 73.47 1279.47 76.5 1275.75 76.5C1272.03 76.5 1269 73.47 1269 69.75Z" fill="#686868"/>
<path d="M1326 72C1328.89 72 1331.25 69.645 1331.25 66.75C1331.25 63.855 1328.89 61.5 1326 61.5C1323.11 61.5 1320.75 63.855 1320.75 66.75C1320.75 69.645 1323.11 72 1326 72ZM1326 63C1328.07 63 1329.75 64.68 1329.75 66.75C1329.75 68.82 1328.07 70.5 1326 70.5C1323.93 70.5 1322.25 68.82 1322.25 66.75C1322.25 64.68 1323.93 63 1326 63ZM1334.25 81.75V82.5H1332.75V81.75C1332.75 78.03 1329.72 75 1326 75C1322.28 75 1319.25 78.03 1319.25 81.75V82.5H1317.75V81.75C1317.75 77.1975 1321.45 73.5 1326 73.5C1330.55 73.5 1334.25 77.1975 1334.25 81.75Z" fill="#686868"/>
<path d="M1382.22 74.445L1384.47 66.195C1384.53 65.97 1384.49 65.73 1384.34 65.5425C1384.2 65.355 1383.98 65.25 1383.75 65.25H1368C1367.96 65.25 1367.92 65.265 1367.88 65.2725L1367.5 63.2475C1367.26 62.2125 1366.36 61.5 1365.3 61.5H1363.5V63H1365.3C1365.65 63 1365.95 63.24 1366.03 63.555L1368.65 77.565C1367.82 78.0075 1367.25 78.87 1367.25 79.875C1367.25 81.3225 1368.43 82.5 1369.88 82.5C1371.32 82.5 1372.5 81.3225 1372.5 79.875C1372.5 79.47 1372.4 79.095 1372.24 78.75H1377.26C1377.1 79.095 1377 79.47 1377 79.875C1377 81.3225 1378.18 82.5 1379.62 82.5C1381.07 82.5 1382.25 81.3225 1382.25 79.875C1382.25 78.555 1381.27 77.475 1380 77.2875V77.25H1370.12L1369.7 75H1381.5C1381.84 75 1382.14 74.775 1382.22 74.445ZM1371 79.875C1371 80.4975 1370.5 81 1369.88 81C1369.25 81 1368.75 80.4975 1368.75 79.875C1368.75 79.2525 1369.25 78.75 1369.88 78.75C1370.5 78.75 1371 79.2525 1371 79.875ZM1380.75 79.875C1380.75 80.4975 1380.25 81 1379.62 81C1379 81 1378.5 80.4975 1378.5 79.875C1378.5 79.2525 1379 78.75 1379.62 78.75C1380.25 78.75 1380.75 79.2525 1380.75 79.875ZM1369.5 73.5C1369.5 73.5 1369.45 73.515 1369.42 73.515L1368.16 66.75H1382.77L1380.93 73.5H1369.5Z" fill="#686868"/>
<defs>
<clipPath id="clip0_17084_11957">
<rect width="136.75" height="56" fill="white" transform="translate(681.625 44)"/>
</clipPath>
</defs>
</svg>
