<svg width="328" height="352" viewBox="0 0 328 352" fill="none" xmlns="http://www.w3.org/2000/svg">
<g clip-path="url(#clip0_17087_12684)">
<rect width="328" height="164" fill="#E3E3E3"/>
</g>
<path d="M20.1367 25.6543H17.8574V24.7344H20.1367C20.5781 24.7344 20.9355 24.6641 21.209 24.5234C21.4824 24.3828 21.6816 24.1875 21.8066 23.9375C21.9355 23.6875 22 23.4023 22 23.082C22 22.7891 21.9355 22.5137 21.8066 22.2559C21.6816 21.998 21.4824 21.791 21.209 21.6348C20.9355 21.4746 20.5781 21.3945 20.1367 21.3945H18.1211V29H16.9902V20.4688H20.1367C20.7812 20.4688 21.3262 20.5801 21.7715 20.8027C22.2168 21.0254 22.5547 21.334 22.7852 21.7285C23.0156 22.1191 23.1309 22.5664 23.1309 23.0703C23.1309 23.6172 23.0156 24.084 22.7852 24.4707C22.5547 24.8574 22.2168 25.1523 21.7715 25.3555C21.3262 25.5547 20.7812 25.6543 20.1367 25.6543ZM24.2673 25.9004V25.7656C24.2673 25.3086 24.3337 24.8848 24.4666 24.4941C24.5994 24.0996 24.7908 23.7578 25.0408 23.4688C25.2908 23.1758 25.5935 22.9492 25.949 22.7891C26.3045 22.625 26.7029 22.543 27.1443 22.543C27.5896 22.543 27.99 22.625 28.3455 22.7891C28.7048 22.9492 29.0095 23.1758 29.2595 23.4688C29.5134 23.7578 29.7068 24.0996 29.8396 24.4941C29.9724 24.8848 30.0388 25.3086 30.0388 25.7656V25.9004C30.0388 26.3574 29.9724 26.7812 29.8396 27.1719C29.7068 27.5625 29.5134 27.9043 29.2595 28.1973C29.0095 28.4863 28.7068 28.7129 28.3513 28.877C27.9998 29.0371 27.6013 29.1172 27.156 29.1172C26.7107 29.1172 26.3103 29.0371 25.9548 28.877C25.5994 28.7129 25.2947 28.4863 25.0408 28.1973C24.7908 27.9043 24.5994 27.5625 24.4666 27.1719C24.3337 26.7812 24.2673 26.3574 24.2673 25.9004ZM25.3513 25.7656V25.9004C25.3513 26.2168 25.3884 26.5156 25.4627 26.7969C25.5369 27.0742 25.6482 27.3203 25.7966 27.5352C25.949 27.75 26.1384 27.9199 26.365 28.0449C26.5916 28.166 26.8552 28.2266 27.156 28.2266C27.4529 28.2266 27.7127 28.166 27.9353 28.0449C28.1619 27.9199 28.3494 27.75 28.4978 27.5352C28.6462 27.3203 28.7576 27.0742 28.8318 26.7969C28.9099 26.5156 28.949 26.2168 28.949 25.9004V25.7656C28.949 25.4531 28.9099 25.1582 28.8318 24.8809C28.7576 24.5996 28.6443 24.3516 28.492 24.1367C28.3435 23.918 28.156 23.7461 27.9295 23.6211C27.7068 23.4961 27.4451 23.4336 27.1443 23.4336C26.8474 23.4336 26.5857 23.4961 26.3591 23.6211C26.1365 23.7461 25.949 23.918 25.7966 24.1367C25.6482 24.3516 25.5369 24.5996 25.4627 24.8809C25.3884 25.1582 25.3513 25.4531 25.3513 25.7656ZM32.7222 23.6562V29H31.6382V22.6602H32.6929L32.7222 23.6562ZM34.7027 22.625L34.6968 23.6328C34.607 23.6133 34.521 23.6016 34.439 23.5977C34.3609 23.5898 34.271 23.5859 34.1695 23.5859C33.9195 23.5859 33.6987 23.625 33.5073 23.7031C33.3159 23.7812 33.1538 23.8906 33.021 24.0312C32.8882 24.1719 32.7827 24.3398 32.7046 24.5352C32.6304 24.7266 32.5816 24.9375 32.5581 25.168L32.2534 25.3438C32.2534 24.9609 32.2905 24.6016 32.3648 24.2656C32.4429 23.9297 32.562 23.6328 32.7222 23.375C32.8823 23.1133 33.0855 22.9102 33.3316 22.7656C33.5816 22.6172 33.8784 22.543 34.2222 22.543C34.3003 22.543 34.3902 22.5527 34.4917 22.5723C34.5933 22.5879 34.6636 22.6055 34.7027 22.625ZM42.9053 26.5098V20.4688H44.0303V26.5098C44.0303 27.0723 43.9151 27.5469 43.6846 27.9336C43.4541 28.3203 43.1358 28.6152 42.7295 28.8184C42.3272 29.0176 41.8643 29.1172 41.3409 29.1172C40.8174 29.1172 40.3526 29.0273 39.9463 28.8477C39.5401 28.668 39.2217 28.3945 38.9912 28.0273C38.7608 27.6602 38.6455 27.1973 38.6455 26.6387H39.7764C39.7764 26.998 39.8428 27.293 39.9756 27.5234C40.1084 27.7539 40.292 27.9238 40.5264 28.0332C40.7647 28.1426 41.0362 28.1973 41.3409 28.1973C41.6377 28.1973 41.9034 28.1348 42.1377 28.0098C42.376 27.8809 42.5635 27.6914 42.7002 27.4414C42.837 27.1875 42.9053 26.877 42.9053 26.5098ZM47.1063 20V29H46.0223V20H47.1063ZM46.8484 25.5898L46.3973 25.5723C46.4012 25.1387 46.4656 24.7383 46.5906 24.3711C46.7156 24 46.8914 23.6777 47.118 23.4043C47.3445 23.1309 47.6141 22.9199 47.9266 22.7715C48.243 22.6191 48.5926 22.543 48.9754 22.543C49.2879 22.543 49.5691 22.5859 49.8191 22.6719C50.0691 22.7539 50.282 22.8867 50.4578 23.0703C50.6375 23.2539 50.7742 23.4922 50.868 23.7852C50.9617 24.0742 51.0086 24.4277 51.0086 24.8457V29H49.9188V24.834C49.9188 24.502 49.8699 24.2363 49.7723 24.0371C49.6746 23.834 49.532 23.6875 49.3445 23.5977C49.157 23.5039 48.9266 23.457 48.6531 23.457C48.3836 23.457 48.1375 23.5137 47.9148 23.627C47.6961 23.7402 47.5066 23.8965 47.3465 24.0957C47.1902 24.2949 47.0672 24.5234 46.9773 24.7812C46.8914 25.0352 46.8484 25.3047 46.8484 25.5898ZM52.5845 25.9004V25.7656C52.5845 25.3086 52.6509 24.8848 52.7837 24.4941C52.9166 24.0996 53.108 23.7578 53.358 23.4688C53.608 23.1758 53.9107 22.9492 54.2662 22.7891C54.6216 22.625 55.0201 22.543 55.4615 22.543C55.9068 22.543 56.3072 22.625 56.6627 22.7891C57.022 22.9492 57.3267 23.1758 57.5767 23.4688C57.8306 23.7578 58.024 24.0996 58.1568 24.4941C58.2896 24.8848 58.356 25.3086 58.356 25.7656V25.9004C58.356 26.3574 58.2896 26.7812 58.1568 27.1719C58.024 27.5625 57.8306 27.9043 57.5767 28.1973C57.3267 28.4863 57.024 28.7129 56.6685 28.877C56.317 29.0371 55.9185 29.1172 55.4732 29.1172C55.0279 29.1172 54.6275 29.0371 54.272 28.877C53.9166 28.7129 53.6119 28.4863 53.358 28.1973C53.108 27.9043 52.9166 27.5625 52.7837 27.1719C52.6509 26.7812 52.5845 26.3574 52.5845 25.9004ZM53.6685 25.7656V25.9004C53.6685 26.2168 53.7056 26.5156 53.7798 26.7969C53.8541 27.0742 53.9654 27.3203 54.1138 27.5352C54.2662 27.75 54.4556 27.9199 54.6822 28.0449C54.9087 28.166 55.1724 28.2266 55.4732 28.2266C55.7701 28.2266 56.0298 28.166 56.2525 28.0449C56.4791 27.9199 56.6666 27.75 56.815 27.5352C56.9634 27.3203 57.0748 27.0742 57.149 26.7969C57.2271 26.5156 57.2662 26.2168 57.2662 25.9004V25.7656C57.2662 25.4531 57.2271 25.1582 57.149 24.8809C57.0748 24.5996 56.9615 24.3516 56.8091 24.1367C56.6607 23.918 56.4732 23.7461 56.2466 23.6211C56.024 23.4961 55.7623 23.4336 55.4615 23.4336C55.1646 23.4336 54.9029 23.4961 54.6763 23.6211C54.4537 23.7461 54.2662 23.918 54.1138 24.1367C53.9654 24.3516 53.8541 24.5996 53.7798 24.8809C53.7056 25.1582 53.6685 25.4531 53.6685 25.7656ZM61.0394 24.0137V29H59.9554V22.6602H60.9808L61.0394 24.0137ZM60.7816 25.5898L60.3304 25.5723C60.3343 25.1387 60.3988 24.7383 60.5238 24.3711C60.6488 24 60.8245 23.6777 61.0511 23.4043C61.2777 23.1309 61.5472 22.9199 61.8597 22.7715C62.1761 22.6191 62.5257 22.543 62.9085 22.543C63.221 22.543 63.5023 22.5859 63.7523 22.6719C64.0023 22.7539 64.2152 22.8867 64.3909 23.0703C64.5706 23.2539 64.7073 23.4922 64.8011 23.7852C64.8948 24.0742 64.9417 24.4277 64.9417 24.8457V29H63.8519V24.834C63.8519 24.502 63.803 24.2363 63.7054 24.0371C63.6077 23.834 63.4652 23.6875 63.2777 23.5977C63.0902 23.5039 62.8597 23.457 62.5863 23.457C62.3167 23.457 62.0706 23.5137 61.848 23.627C61.6292 23.7402 61.4398 23.8965 61.2796 24.0957C61.1234 24.2949 61.0003 24.5234 60.9105 24.7812C60.8245 25.0352 60.7816 25.3047 60.7816 25.5898ZM72.5174 29H70.7362L70.7479 28.0801H72.5174C73.1268 28.0801 73.6346 27.9531 74.0409 27.6992C74.4471 27.4414 74.7518 27.082 74.9549 26.6211C75.162 26.1562 75.2655 25.6133 75.2655 24.9922V24.4707C75.2655 23.9824 75.2069 23.5488 75.0897 23.1699C74.9725 22.7871 74.8006 22.4648 74.5741 22.2031C74.3475 21.9375 74.0702 21.7363 73.742 21.5996C73.4178 21.4629 73.0448 21.3945 72.6229 21.3945H70.701V20.4688H72.6229C73.1815 20.4688 73.6912 20.5625 74.1522 20.75C74.6131 20.9336 75.0096 21.2012 75.3416 21.5527C75.6776 21.9004 75.9354 22.3223 76.1151 22.8184C76.2948 23.3105 76.3846 23.8652 76.3846 24.4824V24.9922C76.3846 25.6094 76.2948 26.166 76.1151 26.6621C75.9354 27.1543 75.6756 27.5742 75.3358 27.9219C74.9998 28.2695 74.5936 28.5371 74.117 28.7246C73.6444 28.9082 73.1112 29 72.5174 29ZM71.3397 20.4688V29H70.2088V20.4688H71.3397ZM77.8727 25.9004V25.7656C77.8727 25.3086 77.9391 24.8848 78.0719 24.4941C78.2047 24.0996 78.3961 23.7578 78.6461 23.4688C78.8961 23.1758 79.1988 22.9492 79.5543 22.7891C79.9098 22.625 80.3082 22.543 80.7496 22.543C81.1949 22.543 81.5953 22.625 81.9508 22.7891C82.3102 22.9492 82.6148 23.1758 82.8648 23.4688C83.1188 23.7578 83.3121 24.0996 83.4449 24.4941C83.5777 24.8848 83.6441 25.3086 83.6441 25.7656V25.9004C83.6441 26.3574 83.5777 26.7812 83.4449 27.1719C83.3121 27.5625 83.1188 27.9043 82.8648 28.1973C82.6148 28.4863 82.3121 28.7129 81.9566 28.877C81.6051 29.0371 81.2066 29.1172 80.7613 29.1172C80.316 29.1172 79.9156 29.0371 79.5602 28.877C79.2047 28.7129 78.9 28.4863 78.6461 28.1973C78.3961 27.9043 78.2047 27.5625 78.0719 27.1719C77.9391 26.7812 77.8727 26.3574 77.8727 25.9004ZM78.9566 25.7656V25.9004C78.9566 26.2168 78.9938 26.5156 79.068 26.7969C79.1422 27.0742 79.2535 27.3203 79.402 27.5352C79.5543 27.75 79.7438 27.9199 79.9703 28.0449C80.1969 28.166 80.4605 28.2266 80.7613 28.2266C81.0582 28.2266 81.318 28.166 81.5406 28.0449C81.7672 27.9199 81.9547 27.75 82.1031 27.5352C82.2516 27.3203 82.3629 27.0742 82.4371 26.7969C82.5152 26.5156 82.5543 26.2168 82.5543 25.9004V25.7656C82.5543 25.4531 82.5152 25.1582 82.4371 24.8809C82.3629 24.5996 82.2496 24.3516 82.0973 24.1367C81.9488 23.918 81.7613 23.7461 81.5348 23.6211C81.3121 23.4961 81.0504 23.4336 80.7496 23.4336C80.4527 23.4336 80.191 23.4961 79.9645 23.6211C79.7418 23.7461 79.5543 23.918 79.402 24.1367C79.2535 24.3516 79.1422 24.5996 79.068 24.8809C78.9938 25.1582 78.9566 25.4531 78.9566 25.7656ZM87.8744 29.1172C87.433 29.1172 87.0326 29.043 86.6732 28.8945C86.3177 28.7422 86.0111 28.5293 85.7533 28.2559C85.4994 27.9824 85.3041 27.6582 85.1673 27.2832C85.0306 26.9082 84.9623 26.498 84.9623 26.0527V25.8066C84.9623 25.291 85.0384 24.832 85.1908 24.4297C85.3431 24.0234 85.5502 23.6797 85.8119 23.3984C86.0736 23.1172 86.3705 22.9043 86.7025 22.7598C87.0345 22.6152 87.3783 22.543 87.7337 22.543C88.1869 22.543 88.5775 22.6211 88.9056 22.7773C89.2377 22.9336 89.5091 23.1523 89.7201 23.4336C89.931 23.7109 90.0873 24.0391 90.1888 24.418C90.2904 24.793 90.3412 25.2031 90.3412 25.6484V26.1348H85.6068V25.25H89.2572V25.168C89.2416 24.8867 89.183 24.6133 89.0814 24.3477C88.9837 24.082 88.8275 23.8633 88.6127 23.6914C88.3978 23.5195 88.1048 23.4336 87.7337 23.4336C87.4877 23.4336 87.2611 23.4863 87.0541 23.5918C86.847 23.6934 86.6693 23.8457 86.5209 24.0488C86.3724 24.252 86.2572 24.5 86.1752 24.793C86.0931 25.0859 86.0521 25.4238 86.0521 25.8066V26.0527C86.0521 26.3535 86.0931 26.6367 86.1752 26.9023C86.2611 27.1641 86.3841 27.3945 86.5443 27.5938C86.7084 27.793 86.9056 27.9492 87.1361 28.0625C87.3705 28.1758 87.6361 28.2324 87.933 28.2324C88.3158 28.2324 88.64 28.1543 88.9056 27.998C89.1712 27.8418 89.4037 27.6328 89.6029 27.3711L90.2591 27.8926C90.1224 28.0996 89.9486 28.2969 89.7377 28.4844C89.5267 28.6719 89.267 28.8242 88.9584 28.9414C88.6537 29.0586 88.2923 29.1172 87.8744 29.1172Z" fill="#686868"/>
<path d="M20.2715 37.4219V46H19.1875V38.7754L17.002 39.5723V38.5938L20.1016 37.4219H20.2715ZM29.4646 43.1289V44.0195H23.3005V43.3809L27.1209 37.4688H28.0056L27.0564 39.1797L24.531 43.1289H29.4646ZM28.2752 37.4688V46H27.1912V37.4688H28.2752ZM34.5796 37.4688L31.023 46.7324H30.0913L33.6538 37.4688H34.5796ZM41.2415 41.0547V42.3555C41.2415 43.0547 41.179 43.6445 41.054 44.125C40.929 44.6055 40.7493 44.9922 40.5149 45.2852C40.2805 45.5781 39.9973 45.791 39.6653 45.9238C39.3372 46.0527 38.9661 46.1172 38.552 46.1172C38.2239 46.1172 37.9212 46.0762 37.6438 45.9941C37.3665 45.9121 37.1165 45.7812 36.8938 45.6016C36.6751 45.418 36.4876 45.1797 36.3313 44.8867C36.1751 44.5938 36.0559 44.2383 35.9739 43.8203C35.8919 43.4023 35.8509 42.9141 35.8509 42.3555V41.0547C35.8509 40.3555 35.9134 39.7695 36.0384 39.2969C36.1673 38.8242 36.3489 38.4453 36.5833 38.1602C36.8177 37.8711 37.0989 37.6641 37.427 37.5391C37.7591 37.4141 38.1302 37.3516 38.5403 37.3516C38.8723 37.3516 39.177 37.3926 39.4544 37.4746C39.7356 37.5527 39.9856 37.6797 40.2044 37.8555C40.4231 38.0273 40.6087 38.2578 40.761 38.5469C40.9173 38.832 41.0364 39.1816 41.1184 39.5957C41.2005 40.0098 41.2415 40.4961 41.2415 41.0547ZM40.1516 42.5312V40.873C40.1516 40.4902 40.1282 40.1543 40.0813 39.8652C40.0384 39.5723 39.9739 39.3223 39.888 39.1152C39.802 38.9082 39.6927 38.7402 39.5598 38.6113C39.4309 38.4824 39.2805 38.3887 39.1087 38.3301C38.9407 38.2676 38.7512 38.2363 38.5403 38.2363C38.2825 38.2363 38.054 38.2852 37.8548 38.3828C37.6555 38.4766 37.4876 38.627 37.3509 38.834C37.218 39.041 37.1165 39.3125 37.0462 39.6484C36.9759 39.9844 36.9407 40.3926 36.9407 40.873V42.5312C36.9407 42.9141 36.9622 43.252 37.0052 43.5449C37.052 43.8379 37.1204 44.0918 37.2102 44.3066C37.3001 44.5176 37.4095 44.6914 37.5384 44.8281C37.6673 44.9648 37.8157 45.0664 37.9837 45.1328C38.1555 45.1953 38.345 45.2266 38.552 45.2266C38.8177 45.2266 39.0501 45.1758 39.2493 45.0742C39.4485 44.9727 39.6145 44.8145 39.7473 44.5996C39.8841 44.3809 39.9856 44.1016 40.052 43.7617C40.1184 43.418 40.1516 43.0078 40.1516 42.5312ZM48.3897 37.4688V38.0781L44.8565 46H43.7139L47.2412 38.3594H42.6241V37.4688H48.3897ZM53.7566 37.4688L50.2 46.7324H49.2684L52.8309 37.4688H53.7566ZM60.6529 45.1094V46H55.0689V45.2207L57.8638 42.1094C58.2076 41.7266 58.4732 41.4023 58.6607 41.1367C58.8521 40.8672 58.9849 40.627 59.0591 40.416C59.1373 40.2012 59.1763 39.9824 59.1763 39.7598C59.1763 39.4785 59.1177 39.2246 59.0005 38.998C58.8873 38.7676 58.7193 38.584 58.4966 38.4473C58.274 38.3105 58.0045 38.2422 57.688 38.2422C57.3091 38.2422 56.9927 38.3164 56.7388 38.4648C56.4888 38.6094 56.3013 38.8125 56.1763 39.0742C56.0513 39.3359 55.9888 39.6367 55.9888 39.9766H54.9048C54.9048 39.4961 55.0103 39.0566 55.2212 38.6582C55.4322 38.2598 55.7447 37.9434 56.1587 37.709C56.5728 37.4707 57.0826 37.3516 57.688 37.3516C58.2271 37.3516 58.688 37.4473 59.0709 37.6387C59.4537 37.8262 59.7466 38.0918 59.9498 38.4355C60.1568 38.7754 60.2603 39.1738 60.2603 39.6309C60.2603 39.8809 60.2173 40.1348 60.1314 40.3926C60.0494 40.6465 59.9341 40.9004 59.7857 41.1543C59.6412 41.4082 59.4712 41.6582 59.2759 41.9043C59.0845 42.1504 58.8795 42.3926 58.6607 42.6309L56.3755 45.1094H60.6529ZM67.4085 41.0547V42.3555C67.4085 43.0547 67.346 43.6445 67.221 44.125C67.096 44.6055 66.9163 44.9922 66.682 45.2852C66.4476 45.5781 66.1644 45.791 65.8323 45.9238C65.5042 46.0527 65.1331 46.1172 64.7191 46.1172C64.3909 46.1172 64.0882 46.0762 63.8109 45.9941C63.5335 45.9121 63.2835 45.7812 63.0609 45.6016C62.8421 45.418 62.6546 45.1797 62.4984 44.8867C62.3421 44.5938 62.223 44.2383 62.1409 43.8203C62.0589 43.4023 62.0179 42.9141 62.0179 42.3555V41.0547C62.0179 40.3555 62.0804 39.7695 62.2054 39.2969C62.3343 38.8242 62.5159 38.4453 62.7503 38.1602C62.9847 37.8711 63.2659 37.6641 63.5941 37.5391C63.9261 37.4141 64.2972 37.3516 64.7073 37.3516C65.0394 37.3516 65.3441 37.3926 65.6214 37.4746C65.9027 37.5527 66.1527 37.6797 66.3714 37.8555C66.5902 38.0273 66.7757 38.2578 66.928 38.5469C67.0843 38.832 67.2034 39.1816 67.2855 39.5957C67.3675 40.0098 67.4085 40.4961 67.4085 41.0547ZM66.3187 42.5312V40.873C66.3187 40.4902 66.2952 40.1543 66.2484 39.8652C66.2054 39.5723 66.1409 39.3223 66.055 39.1152C65.9691 38.9082 65.8597 38.7402 65.7269 38.6113C65.598 38.4824 65.4476 38.3887 65.2757 38.3301C65.1077 38.2676 64.9183 38.2363 64.7073 38.2363C64.4495 38.2363 64.221 38.2852 64.0218 38.3828C63.8226 38.4766 63.6546 38.627 63.5179 38.834C63.3851 39.041 63.2835 39.3125 63.2132 39.6484C63.1429 39.9844 63.1077 40.3926 63.1077 40.873V42.5312C63.1077 42.9141 63.1292 43.252 63.1722 43.5449C63.2191 43.8379 63.2874 44.0918 63.3773 44.3066C63.4671 44.5176 63.5765 44.6914 63.7054 44.8281C63.8343 44.9648 63.9827 45.0664 64.1507 45.1328C64.3226 45.1953 64.512 45.2266 64.7191 45.2266C64.9847 45.2266 65.2171 45.1758 65.4163 45.0742C65.6155 44.9727 65.7816 44.8145 65.9144 44.5996C66.0511 44.3809 66.1527 44.1016 66.2191 43.7617C66.2855 43.418 66.3187 43.0078 66.3187 42.5312ZM74.6329 45.1094V46H69.0489V45.2207L71.8438 42.1094C72.1876 41.7266 72.4532 41.4023 72.6407 41.1367C72.8321 40.8672 72.9649 40.627 73.0391 40.416C73.1173 40.2012 73.1563 39.9824 73.1563 39.7598C73.1563 39.4785 73.0977 39.2246 72.9805 38.998C72.8673 38.7676 72.6993 38.584 72.4766 38.4473C72.254 38.3105 71.9845 38.2422 71.668 38.2422C71.2891 38.2422 70.9727 38.3164 70.7188 38.4648C70.4688 38.6094 70.2813 38.8125 70.1563 39.0742C70.0313 39.3359 69.9688 39.6367 69.9688 39.9766H68.8848C68.8848 39.4961 68.9903 39.0566 69.2012 38.6582C69.4122 38.2598 69.7247 37.9434 70.1387 37.709C70.5528 37.4707 71.0626 37.3516 71.668 37.3516C72.2071 37.3516 72.668 37.4473 73.0509 37.6387C73.4337 37.8262 73.7266 38.0918 73.9298 38.4355C74.1368 38.7754 74.2403 39.1738 74.2403 39.6309C74.2403 39.8809 74.1973 40.1348 74.1114 40.3926C74.0294 40.6465 73.9141 40.9004 73.7657 41.1543C73.6212 41.4082 73.4512 41.6582 73.2559 41.9043C73.0645 42.1504 72.8595 42.3926 72.6407 42.6309L70.3555 45.1094H74.6329ZM77.6151 41.2012H78.3885C78.7674 41.2012 79.0799 41.1387 79.326 41.0137C79.576 40.8848 79.7616 40.7109 79.8827 40.4922C80.0077 40.2695 80.0702 40.0195 80.0702 39.7422C80.0702 39.4141 80.0155 39.1387 79.9061 38.916C79.7967 38.6934 79.6327 38.5254 79.4139 38.4121C79.1952 38.2988 78.9178 38.2422 78.5819 38.2422C78.2772 38.2422 78.0077 38.3027 77.7733 38.4238C77.5428 38.541 77.3612 38.709 77.2284 38.9277C77.0995 39.1465 77.035 39.4043 77.035 39.7012H75.951C75.951 39.2676 76.0604 38.873 76.2791 38.5176C76.4979 38.1621 76.8045 37.8789 77.1991 37.668C77.5975 37.457 78.0584 37.3516 78.5819 37.3516C79.0975 37.3516 79.5487 37.4434 79.9354 37.627C80.3221 37.8066 80.6229 38.0762 80.8377 38.4355C81.0526 38.791 81.16 39.2344 81.16 39.7656C81.16 39.9805 81.1092 40.2109 81.0077 40.457C80.91 40.6992 80.7557 40.9258 80.5448 41.1367C80.3377 41.3477 80.0682 41.5215 79.7362 41.6582C79.4041 41.791 79.0057 41.8574 78.5409 41.8574H77.6151V41.2012ZM77.6151 42.0918V41.4414H78.5409C79.0838 41.4414 79.533 41.5059 79.8885 41.6348C80.244 41.7637 80.5233 41.9355 80.7264 42.1504C80.9334 42.3652 81.078 42.6016 81.16 42.8594C81.2459 43.1133 81.2889 43.3672 81.2889 43.6211C81.2889 44.0195 81.2205 44.373 81.0838 44.6816C80.951 44.9902 80.7616 45.252 80.5155 45.4668C80.2733 45.6816 79.9881 45.8438 79.66 45.9531C79.3319 46.0625 78.9745 46.1172 78.5877 46.1172C78.2166 46.1172 77.867 46.0645 77.5389 45.959C77.2147 45.8535 76.9276 45.7012 76.6776 45.502C76.4276 45.2988 76.2323 45.0508 76.0916 44.7578C75.951 44.4609 75.8807 44.123 75.8807 43.7441H76.9647C76.9647 44.041 77.0291 44.3008 77.158 44.5234C77.2909 44.7461 77.4784 44.9199 77.7205 45.0449C77.9666 45.166 78.2557 45.2266 78.5877 45.2266C78.9198 45.2266 79.2049 45.1699 79.4432 45.0566C79.6854 44.9395 79.8709 44.7637 79.9998 44.5293C80.1327 44.2949 80.1991 44 80.1991 43.6445C80.1991 43.2891 80.1248 42.998 79.9764 42.7715C79.828 42.541 79.617 42.3711 79.3436 42.2617C79.0741 42.1484 78.7557 42.0918 78.3885 42.0918H77.6151Z" fill="#686868"/>
<g clip-path="url(#clip1_17087_12684)">
<path d="M22.2402 141.842L26.4297 129.781H28.4707L23.207 144H21.752L22.2402 141.842ZM18.3242 129.781L22.4746 141.842L22.9922 144H21.5371L16.2832 129.781H18.3242ZM34.0664 144.195C33.3307 144.195 32.6634 144.072 32.0645 143.824C31.472 143.57 30.9609 143.215 30.5312 142.76C30.1081 142.304 29.7826 141.764 29.5547 141.139C29.3268 140.514 29.2129 139.83 29.2129 139.088V138.678C29.2129 137.818 29.3398 137.053 29.5938 136.383C29.8477 135.706 30.1927 135.133 30.6289 134.664C31.0651 134.195 31.5599 133.84 32.1133 133.6C32.6667 133.359 33.2396 133.238 33.832 133.238C34.5872 133.238 35.2383 133.368 35.7852 133.629C36.3385 133.889 36.791 134.254 37.1426 134.723C37.4941 135.185 37.7546 135.732 37.9238 136.363C38.0931 136.988 38.1777 137.672 38.1777 138.414V139.225H30.2871V137.75H36.3711V137.613C36.3451 137.145 36.2474 136.689 36.0781 136.246C35.9154 135.803 35.6549 135.439 35.2969 135.152C34.9388 134.866 34.4505 134.723 33.832 134.723C33.4219 134.723 33.0443 134.811 32.6992 134.986C32.3542 135.156 32.0579 135.41 31.8105 135.748C31.5632 136.087 31.3711 136.5 31.2344 136.988C31.0977 137.477 31.0293 138.04 31.0293 138.678V139.088C31.0293 139.589 31.0977 140.061 31.2344 140.504C31.3776 140.94 31.5827 141.324 31.8496 141.656C32.123 141.988 32.4518 142.249 32.8359 142.438C33.2266 142.626 33.6693 142.721 34.1641 142.721C34.8021 142.721 35.3424 142.59 35.7852 142.33C36.2279 142.07 36.6152 141.721 36.9473 141.285L38.041 142.154C37.8132 142.499 37.5234 142.828 37.1719 143.141C36.8203 143.453 36.3874 143.707 35.873 143.902C35.3652 144.098 34.763 144.195 34.0664 144.195ZM42.25 129V144H40.4336V129H42.25ZM54.4961 144.195C53.7604 144.195 53.0931 144.072 52.4941 143.824C51.9017 143.57 51.3906 143.215 50.9609 142.76C50.5378 142.304 50.2122 141.764 49.9844 141.139C49.7565 140.514 49.6426 139.83 49.6426 139.088V138.678C49.6426 137.818 49.7695 137.053 50.0234 136.383C50.2773 135.706 50.6224 135.133 51.0586 134.664C51.4948 134.195 51.9896 133.84 52.543 133.6C53.0964 133.359 53.6693 133.238 54.2617 133.238C55.0169 133.238 55.668 133.368 56.2148 133.629C56.7682 133.889 57.2207 134.254 57.5723 134.723C57.9238 135.185 58.1842 135.732 58.3535 136.363C58.5228 136.988 58.6074 137.672 58.6074 138.414V139.225H50.7168V137.75H56.8008V137.613C56.7747 137.145 56.6771 136.689 56.5078 136.246C56.3451 135.803 56.0846 135.439 55.7266 135.152C55.3685 134.866 54.8802 134.723 54.2617 134.723C53.8516 134.723 53.474 134.811 53.1289 134.986C52.7839 135.156 52.4876 135.41 52.2402 135.748C51.9928 136.087 51.8008 136.5 51.6641 136.988C51.5273 137.477 51.459 138.04 51.459 138.678V139.088C51.459 139.589 51.5273 140.061 51.6641 140.504C51.8073 140.94 52.0124 141.324 52.2793 141.656C52.5527 141.988 52.8815 142.249 53.2656 142.438C53.6562 142.626 54.099 142.721 54.5938 142.721C55.2318 142.721 55.7721 142.59 56.2148 142.33C56.6576 142.07 57.0449 141.721 57.377 141.285L58.4707 142.154C58.2428 142.499 57.9531 142.828 57.6016 143.141C57.25 143.453 56.8171 143.707 56.3027 143.902C55.7949 144.098 55.1927 144.195 54.4961 144.195ZM62.5234 135.689V144H60.7168V133.434H62.4258L62.5234 135.689ZM62.0938 138.316L61.3418 138.287C61.3483 137.564 61.4557 136.897 61.6641 136.285C61.8724 135.667 62.1654 135.13 62.543 134.674C62.9206 134.218 63.3698 133.867 63.8906 133.619C64.418 133.365 65.0007 133.238 65.6387 133.238C66.1595 133.238 66.6283 133.31 67.0449 133.453C67.4616 133.59 67.8164 133.811 68.1094 134.117C68.4089 134.423 68.6367 134.82 68.793 135.309C68.9492 135.79 69.0273 136.38 69.0273 137.076V144H67.2109V137.057C67.2109 136.503 67.1296 136.061 66.9668 135.729C66.804 135.39 66.5664 135.146 66.2539 134.996C65.9414 134.84 65.5573 134.762 65.1016 134.762C64.6523 134.762 64.2422 134.856 63.8711 135.045C63.5065 135.234 63.1908 135.494 62.9238 135.826C62.6634 136.158 62.4583 136.539 62.3086 136.969C62.1654 137.392 62.0938 137.841 62.0938 138.316ZM73.7344 133.434V144H71.918V133.434H73.7344ZM71.7812 130.631C71.7812 130.338 71.8691 130.09 72.0449 129.889C72.2272 129.687 72.4941 129.586 72.8457 129.586C73.1908 129.586 73.4544 129.687 73.6367 129.889C73.8255 130.09 73.9199 130.338 73.9199 130.631C73.9199 130.911 73.8255 131.152 73.6367 131.354C73.4544 131.549 73.1908 131.646 72.8457 131.646C72.4941 131.646 72.2272 131.549 72.0449 131.354C71.8691 131.152 71.7812 130.911 71.7812 130.631ZM78.4316 135.533V144H76.6152V133.434H78.334L78.4316 135.533ZM78.0605 138.316L77.2207 138.287C77.2272 137.564 77.3216 136.897 77.5039 136.285C77.6862 135.667 77.9564 135.13 78.3145 134.674C78.6725 134.218 79.1185 133.867 79.6523 133.619C80.1862 133.365 80.8047 133.238 81.5078 133.238C82.0026 133.238 82.4583 133.31 82.875 133.453C83.2917 133.59 83.653 133.808 83.959 134.107C84.265 134.407 84.5026 134.791 84.6719 135.26C84.8411 135.729 84.9258 136.295 84.9258 136.959V144H83.1191V137.047C83.1191 136.493 83.0247 136.051 82.8359 135.719C82.6536 135.387 82.3932 135.146 82.0547 134.996C81.7161 134.84 81.319 134.762 80.8633 134.762C80.3294 134.762 79.8835 134.856 79.5254 135.045C79.1673 135.234 78.8809 135.494 78.666 135.826C78.4512 136.158 78.2949 136.539 78.1973 136.969C78.1061 137.392 78.0605 137.841 78.0605 138.316ZM84.9062 137.32L83.6953 137.691C83.7018 137.112 83.7962 136.555 83.9785 136.021C84.1673 135.488 84.4375 135.012 84.7891 134.596C85.1471 134.179 85.5866 133.85 86.1074 133.609C86.6283 133.362 87.224 133.238 87.8945 133.238C88.4609 133.238 88.9622 133.313 89.3984 133.463C89.8411 133.613 90.2122 133.844 90.5117 134.156C90.8177 134.462 91.0488 134.856 91.2051 135.338C91.3613 135.82 91.4395 136.393 91.4395 137.057V144H89.623V137.037C89.623 136.445 89.5286 135.986 89.3398 135.66C89.1576 135.328 88.8971 135.097 88.5586 134.967C88.2266 134.83 87.8294 134.762 87.3672 134.762C86.9701 134.762 86.6185 134.83 86.3125 134.967C86.0065 135.104 85.7493 135.292 85.541 135.533C85.3327 135.768 85.1732 136.038 85.0625 136.344C84.9583 136.65 84.9062 136.975 84.9062 137.32ZM105.795 141.949V129H107.611V144H105.951L105.795 141.949ZM98.6855 138.834V138.629C98.6855 137.822 98.7832 137.089 98.9785 136.432C99.1803 135.768 99.4635 135.198 99.8281 134.723C100.199 134.247 100.639 133.883 101.146 133.629C101.661 133.368 102.234 133.238 102.865 133.238C103.529 133.238 104.109 133.355 104.604 133.59C105.105 133.818 105.528 134.153 105.873 134.596C106.225 135.032 106.501 135.559 106.703 136.178C106.905 136.796 107.045 137.496 107.123 138.277V139.176C107.051 139.951 106.911 140.647 106.703 141.266C106.501 141.884 106.225 142.411 105.873 142.848C105.528 143.284 105.105 143.619 104.604 143.854C104.102 144.081 103.516 144.195 102.846 144.195C102.227 144.195 101.661 144.062 101.146 143.795C100.639 143.528 100.199 143.154 99.8281 142.672C99.4635 142.19 99.1803 141.624 98.9785 140.973C98.7832 140.315 98.6855 139.602 98.6855 138.834ZM100.502 138.629V138.834C100.502 139.361 100.554 139.856 100.658 140.318C100.769 140.781 100.938 141.188 101.166 141.539C101.394 141.891 101.684 142.167 102.035 142.369C102.387 142.564 102.807 142.662 103.295 142.662C103.894 142.662 104.385 142.535 104.77 142.281C105.16 142.027 105.473 141.692 105.707 141.275C105.941 140.859 106.124 140.406 106.254 139.918V137.564C106.176 137.206 106.062 136.861 105.912 136.529C105.769 136.191 105.58 135.891 105.346 135.631C105.118 135.364 104.835 135.152 104.496 134.996C104.164 134.84 103.77 134.762 103.314 134.762C102.82 134.762 102.393 134.866 102.035 135.074C101.684 135.276 101.394 135.556 101.166 135.914C100.938 136.266 100.769 136.676 100.658 137.145C100.554 137.607 100.502 138.102 100.502 138.629ZM109.945 138.834V138.609C109.945 137.848 110.056 137.141 110.277 136.49C110.499 135.833 110.818 135.263 111.234 134.781C111.651 134.293 112.156 133.915 112.748 133.648C113.34 133.375 114.005 133.238 114.74 133.238C115.482 133.238 116.15 133.375 116.742 133.648C117.341 133.915 117.849 134.293 118.266 134.781C118.689 135.263 119.011 135.833 119.232 136.49C119.454 137.141 119.564 137.848 119.564 138.609V138.834C119.564 139.596 119.454 140.302 119.232 140.953C119.011 141.604 118.689 142.174 118.266 142.662C117.849 143.144 117.344 143.521 116.752 143.795C116.166 144.062 115.502 144.195 114.76 144.195C114.018 144.195 113.35 144.062 112.758 143.795C112.165 143.521 111.658 143.144 111.234 142.662C110.818 142.174 110.499 141.604 110.277 140.953C110.056 140.302 109.945 139.596 109.945 138.834ZM111.752 138.609V138.834C111.752 139.361 111.814 139.859 111.938 140.328C112.061 140.79 112.247 141.201 112.494 141.559C112.748 141.917 113.064 142.2 113.441 142.408C113.819 142.61 114.258 142.711 114.76 142.711C115.255 142.711 115.688 142.61 116.059 142.408C116.436 142.2 116.749 141.917 116.996 141.559C117.243 141.201 117.429 140.79 117.553 140.328C117.683 139.859 117.748 139.361 117.748 138.834V138.609C117.748 138.089 117.683 137.597 117.553 137.135C117.429 136.666 117.24 136.253 116.986 135.895C116.739 135.53 116.426 135.243 116.049 135.035C115.678 134.827 115.242 134.723 114.74 134.723C114.245 134.723 113.809 134.827 113.432 135.035C113.061 135.243 112.748 135.53 112.494 135.895C112.247 136.253 112.061 136.666 111.938 137.135C111.814 137.597 111.752 138.089 111.752 138.609ZM123.793 129V144H121.977V129H123.793ZM126.215 138.834V138.609C126.215 137.848 126.326 137.141 126.547 136.49C126.768 135.833 127.087 135.263 127.504 134.781C127.921 134.293 128.425 133.915 129.018 133.648C129.61 133.375 130.274 133.238 131.01 133.238C131.752 133.238 132.419 133.375 133.012 133.648C133.611 133.915 134.118 134.293 134.535 134.781C134.958 135.263 135.281 135.833 135.502 136.49C135.723 137.141 135.834 137.848 135.834 138.609V138.834C135.834 139.596 135.723 140.302 135.502 140.953C135.281 141.604 134.958 142.174 134.535 142.662C134.118 143.144 133.614 143.521 133.021 143.795C132.436 144.062 131.771 144.195 131.029 144.195C130.287 144.195 129.62 144.062 129.027 143.795C128.435 143.521 127.927 143.144 127.504 142.662C127.087 142.174 126.768 141.604 126.547 140.953C126.326 140.302 126.215 139.596 126.215 138.834ZM128.021 138.609V138.834C128.021 139.361 128.083 139.859 128.207 140.328C128.331 140.79 128.516 141.201 128.764 141.559C129.018 141.917 129.333 142.2 129.711 142.408C130.089 142.61 130.528 142.711 131.029 142.711C131.524 142.711 131.957 142.61 132.328 142.408C132.706 142.2 133.018 141.917 133.266 141.559C133.513 141.201 133.699 140.79 133.822 140.328C133.952 139.859 134.018 139.361 134.018 138.834V138.609C134.018 138.089 133.952 137.597 133.822 137.135C133.699 136.666 133.51 136.253 133.256 135.895C133.008 135.53 132.696 135.243 132.318 135.035C131.947 134.827 131.511 134.723 131.01 134.723C130.515 134.723 130.079 134.827 129.701 135.035C129.33 135.243 129.018 135.53 128.764 135.895C128.516 136.253 128.331 136.666 128.207 137.135C128.083 137.597 128.021 138.089 128.021 138.609ZM139.906 135.094V144H138.1V133.434H139.857L139.906 135.094ZM143.207 133.375L143.197 135.055C143.048 135.022 142.904 135.003 142.768 134.996C142.637 134.983 142.488 134.977 142.318 134.977C141.902 134.977 141.534 135.042 141.215 135.172C140.896 135.302 140.626 135.484 140.404 135.719C140.183 135.953 140.007 136.233 139.877 136.559C139.753 136.878 139.672 137.229 139.633 137.613L139.125 137.906C139.125 137.268 139.187 136.669 139.311 136.109C139.441 135.549 139.639 135.055 139.906 134.625C140.173 134.189 140.512 133.85 140.922 133.609C141.339 133.362 141.833 133.238 142.406 133.238C142.536 133.238 142.686 133.255 142.855 133.287C143.025 133.313 143.142 133.342 143.207 133.375ZM154.223 144.195C153.487 144.195 152.82 144.072 152.221 143.824C151.628 143.57 151.117 143.215 150.688 142.76C150.264 142.304 149.939 141.764 149.711 141.139C149.483 140.514 149.369 139.83 149.369 139.088V138.678C149.369 137.818 149.496 137.053 149.75 136.383C150.004 135.706 150.349 135.133 150.785 134.664C151.221 134.195 151.716 133.84 152.27 133.6C152.823 133.359 153.396 133.238 153.988 133.238C154.743 133.238 155.395 133.368 155.941 133.629C156.495 133.889 156.947 134.254 157.299 134.723C157.65 135.185 157.911 135.732 158.08 136.363C158.249 136.988 158.334 137.672 158.334 138.414V139.225H150.443V137.75H156.527V137.613C156.501 137.145 156.404 136.689 156.234 136.246C156.072 135.803 155.811 135.439 155.453 135.152C155.095 134.866 154.607 134.723 153.988 134.723C153.578 134.723 153.201 134.811 152.855 134.986C152.51 135.156 152.214 135.41 151.967 135.748C151.719 136.087 151.527 136.5 151.391 136.988C151.254 137.477 151.186 138.04 151.186 138.678V139.088C151.186 139.589 151.254 140.061 151.391 140.504C151.534 140.94 151.739 141.324 152.006 141.656C152.279 141.988 152.608 142.249 152.992 142.438C153.383 142.626 153.826 142.721 154.32 142.721C154.958 142.721 155.499 142.59 155.941 142.33C156.384 142.07 156.771 141.721 157.104 141.285L158.197 142.154C157.969 142.499 157.68 142.828 157.328 143.141C156.977 143.453 156.544 143.707 156.029 143.902C155.521 144.098 154.919 144.195 154.223 144.195ZM167.289 133.434H168.93V143.775C168.93 144.706 168.741 145.501 168.363 146.158C167.986 146.816 167.458 147.314 166.781 147.652C166.111 147.997 165.336 148.17 164.457 148.17C164.092 148.17 163.663 148.111 163.168 147.994C162.68 147.883 162.198 147.691 161.723 147.418C161.254 147.151 160.86 146.79 160.541 146.334L161.488 145.26C161.931 145.794 162.393 146.165 162.875 146.373C163.363 146.581 163.845 146.686 164.32 146.686C164.893 146.686 165.388 146.578 165.805 146.363C166.221 146.148 166.544 145.829 166.771 145.406C167.006 144.99 167.123 144.475 167.123 143.863V135.758L167.289 133.434ZM160.014 138.834V138.629C160.014 137.822 160.108 137.089 160.297 136.432C160.492 135.768 160.769 135.198 161.127 134.723C161.492 134.247 161.931 133.883 162.445 133.629C162.96 133.368 163.539 133.238 164.184 133.238C164.848 133.238 165.427 133.355 165.922 133.59C166.423 133.818 166.846 134.153 167.191 134.596C167.543 135.032 167.82 135.559 168.021 136.178C168.223 136.796 168.363 137.496 168.441 138.277V139.176C168.37 139.951 168.23 140.647 168.021 141.266C167.82 141.884 167.543 142.411 167.191 142.848C166.846 143.284 166.423 143.619 165.922 143.854C165.421 144.081 164.835 144.195 164.164 144.195C163.533 144.195 162.96 144.062 162.445 143.795C161.938 143.528 161.501 143.154 161.137 142.672C160.772 142.19 160.492 141.624 160.297 140.973C160.108 140.315 160.014 139.602 160.014 138.834ZM161.82 138.629V138.834C161.82 139.361 161.872 139.856 161.977 140.318C162.087 140.781 162.253 141.188 162.475 141.539C162.702 141.891 162.992 142.167 163.344 142.369C163.695 142.564 164.115 142.662 164.604 142.662C165.202 142.662 165.697 142.535 166.088 142.281C166.479 142.027 166.788 141.692 167.016 141.275C167.25 140.859 167.432 140.406 167.562 139.918V137.564C167.491 137.206 167.38 136.861 167.23 136.529C167.087 136.191 166.898 135.891 166.664 135.631C166.436 135.364 166.153 135.152 165.814 134.996C165.476 134.84 165.079 134.762 164.623 134.762C164.128 134.762 163.702 134.866 163.344 135.074C162.992 135.276 162.702 135.556 162.475 135.914C162.253 136.266 162.087 136.676 161.977 137.145C161.872 137.607 161.82 138.102 161.82 138.629ZM176.059 144.195C175.323 144.195 174.656 144.072 174.057 143.824C173.464 143.57 172.953 143.215 172.523 142.76C172.1 142.304 171.775 141.764 171.547 141.139C171.319 140.514 171.205 139.83 171.205 139.088V138.678C171.205 137.818 171.332 137.053 171.586 136.383C171.84 135.706 172.185 135.133 172.621 134.664C173.057 134.195 173.552 133.84 174.105 133.6C174.659 133.359 175.232 133.238 175.824 133.238C176.579 133.238 177.23 133.368 177.777 133.629C178.331 133.889 178.783 134.254 179.135 134.723C179.486 135.185 179.747 135.732 179.916 136.363C180.085 136.988 180.17 137.672 180.17 138.414V139.225H172.279V137.75H178.363V137.613C178.337 137.145 178.24 136.689 178.07 136.246C177.908 135.803 177.647 135.439 177.289 135.152C176.931 134.866 176.443 134.723 175.824 134.723C175.414 134.723 175.036 134.811 174.691 134.986C174.346 135.156 174.05 135.41 173.803 135.748C173.555 136.087 173.363 136.5 173.227 136.988C173.09 137.477 173.021 138.04 173.021 138.678V139.088C173.021 139.589 173.09 140.061 173.227 140.504C173.37 140.94 173.575 141.324 173.842 141.656C174.115 141.988 174.444 142.249 174.828 142.438C175.219 142.626 175.661 142.721 176.156 142.721C176.794 142.721 177.335 142.59 177.777 142.33C178.22 142.07 178.607 141.721 178.939 141.285L180.033 142.154C179.805 142.499 179.516 142.828 179.164 143.141C178.812 143.453 178.38 143.707 177.865 143.902C177.357 144.098 176.755 144.195 176.059 144.195ZM186.703 133.434V134.82H180.99V133.434H186.703ZM182.924 130.865H184.73V141.383C184.73 141.741 184.786 142.011 184.896 142.193C185.007 142.376 185.15 142.496 185.326 142.555C185.502 142.613 185.691 142.643 185.893 142.643C186.042 142.643 186.199 142.63 186.361 142.604C186.531 142.571 186.658 142.545 186.742 142.525L186.752 144C186.609 144.046 186.42 144.088 186.186 144.127C185.958 144.173 185.681 144.195 185.355 144.195C184.913 144.195 184.506 144.107 184.135 143.932C183.764 143.756 183.467 143.463 183.246 143.053C183.031 142.636 182.924 142.076 182.924 141.373V130.865Z" fill="#026CD1"/>
</g>
<g clip-path="url(#clip2_17087_12684)">
<rect width="328" height="164" transform="translate(0 188)" fill="#E3E3E3"/>
</g>
<path d="M20.1367 213.654H17.8574V212.735H20.1367C20.5781 212.735 20.9355 212.664 21.209 212.524C21.4824 212.383 21.6816 212.188 21.8066 211.938C21.9355 211.688 22 211.403 22 211.082C22 210.789 21.9355 210.514 21.8066 210.256C21.6816 209.998 21.4824 209.791 21.209 209.635C20.9355 209.475 20.5781 209.395 20.1367 209.395H18.1211V217H16.9902V208.469H20.1367C20.7812 208.469 21.3262 208.58 21.7715 208.803C22.2168 209.026 22.5547 209.334 22.7852 209.729C23.0156 210.119 23.1309 210.567 23.1309 211.07C23.1309 211.617 23.0156 212.084 22.7852 212.471C22.5547 212.858 22.2168 213.153 21.7715 213.356C21.3262 213.555 20.7812 213.654 20.1367 213.654ZM24.2673 213.901V213.766C24.2673 213.309 24.3337 212.885 24.4666 212.494C24.5994 212.1 24.7908 211.758 25.0408 211.469C25.2908 211.176 25.5935 210.949 25.949 210.789C26.3045 210.625 26.7029 210.543 27.1443 210.543C27.5896 210.543 27.99 210.625 28.3455 210.789C28.7048 210.949 29.0095 211.176 29.2595 211.469C29.5134 211.758 29.7068 212.1 29.8396 212.494C29.9724 212.885 30.0388 213.309 30.0388 213.766V213.901C30.0388 214.358 29.9724 214.781 29.8396 215.172C29.7068 215.563 29.5134 215.904 29.2595 216.197C29.0095 216.486 28.7068 216.713 28.3513 216.877C27.9998 217.037 27.6013 217.117 27.156 217.117C26.7107 217.117 26.3103 217.037 25.9548 216.877C25.5994 216.713 25.2947 216.486 25.0408 216.197C24.7908 215.904 24.5994 215.563 24.4666 215.172C24.3337 214.781 24.2673 214.358 24.2673 213.901ZM25.3513 213.766V213.901C25.3513 214.217 25.3884 214.516 25.4627 214.797C25.5369 215.074 25.6482 215.32 25.7966 215.535C25.949 215.75 26.1384 215.92 26.365 216.045C26.5916 216.166 26.8552 216.227 27.156 216.227C27.4529 216.227 27.7127 216.166 27.9353 216.045C28.1619 215.92 28.3494 215.75 28.4978 215.535C28.6462 215.32 28.7576 215.074 28.8318 214.797C28.9099 214.516 28.949 214.217 28.949 213.901V213.766C28.949 213.453 28.9099 213.158 28.8318 212.881C28.7576 212.6 28.6443 212.352 28.492 212.137C28.3435 211.918 28.156 211.746 27.9295 211.621C27.7068 211.496 27.4451 211.434 27.1443 211.434C26.8474 211.434 26.5857 211.496 26.3591 211.621C26.1365 211.746 25.949 211.918 25.7966 212.137C25.6482 212.352 25.5369 212.6 25.4627 212.881C25.3884 213.158 25.3513 213.453 25.3513 213.766ZM32.7222 211.656V217H31.6382V210.66H32.6929L32.7222 211.656ZM34.7027 210.625L34.6968 211.633C34.607 211.613 34.521 211.602 34.439 211.598C34.3609 211.59 34.271 211.586 34.1695 211.586C33.9195 211.586 33.6987 211.625 33.5073 211.703C33.3159 211.781 33.1538 211.891 33.021 212.031C32.8882 212.172 32.7827 212.34 32.7046 212.535C32.6304 212.727 32.5816 212.938 32.5581 213.168L32.2534 213.344C32.2534 212.961 32.2905 212.602 32.3648 212.266C32.4429 211.93 32.562 211.633 32.7222 211.375C32.8823 211.113 33.0855 210.91 33.3316 210.766C33.5816 210.617 33.8784 210.543 34.2222 210.543C34.3003 210.543 34.3902 210.553 34.4917 210.572C34.5933 210.588 34.6636 210.606 34.7027 210.625ZM42.9053 214.51V208.469H44.0303V214.51C44.0303 215.072 43.9151 215.547 43.6846 215.934C43.4541 216.32 43.1358 216.615 42.7295 216.819C42.3272 217.018 41.8643 217.117 41.3409 217.117C40.8174 217.117 40.3526 217.028 39.9463 216.848C39.5401 216.668 39.2217 216.395 38.9912 216.028C38.7608 215.66 38.6455 215.197 38.6455 214.639H39.7764C39.7764 214.998 39.8428 215.293 39.9756 215.524C40.1084 215.754 40.292 215.924 40.5264 216.033C40.7647 216.143 41.0362 216.197 41.3409 216.197C41.6377 216.197 41.9034 216.135 42.1377 216.01C42.376 215.881 42.5635 215.692 42.7002 215.442C42.837 215.188 42.9053 214.877 42.9053 214.51ZM47.1063 208V217H46.0223V208H47.1063ZM46.8484 213.59L46.3973 213.572C46.4012 213.139 46.4656 212.738 46.5906 212.371C46.7156 212 46.8914 211.678 47.118 211.404C47.3445 211.131 47.6141 210.92 47.9266 210.772C48.243 210.619 48.5926 210.543 48.9754 210.543C49.2879 210.543 49.5691 210.586 49.8191 210.672C50.0691 210.754 50.282 210.887 50.4578 211.07C50.6375 211.254 50.7742 211.492 50.868 211.785C50.9617 212.074 51.0086 212.428 51.0086 212.846V217H49.9188V212.834C49.9188 212.502 49.8699 212.236 49.7723 212.037C49.6746 211.834 49.532 211.688 49.3445 211.598C49.157 211.504 48.9266 211.457 48.6531 211.457C48.3836 211.457 48.1375 211.514 47.9148 211.627C47.6961 211.74 47.5066 211.897 47.3465 212.096C47.1902 212.295 47.0672 212.524 46.9773 212.781C46.8914 213.035 46.8484 213.305 46.8484 213.59ZM52.5845 213.901V213.766C52.5845 213.309 52.6509 212.885 52.7837 212.494C52.9166 212.1 53.108 211.758 53.358 211.469C53.608 211.176 53.9107 210.949 54.2662 210.789C54.6216 210.625 55.0201 210.543 55.4615 210.543C55.9068 210.543 56.3072 210.625 56.6627 210.789C57.022 210.949 57.3267 211.176 57.5767 211.469C57.8306 211.758 58.024 212.1 58.1568 212.494C58.2896 212.885 58.356 213.309 58.356 213.766V213.901C58.356 214.358 58.2896 214.781 58.1568 215.172C58.024 215.563 57.8306 215.904 57.5767 216.197C57.3267 216.486 57.024 216.713 56.6685 216.877C56.317 217.037 55.9185 217.117 55.4732 217.117C55.0279 217.117 54.6275 217.037 54.272 216.877C53.9166 216.713 53.6119 216.486 53.358 216.197C53.108 215.904 52.9166 215.563 52.7837 215.172C52.6509 214.781 52.5845 214.358 52.5845 213.901ZM53.6685 213.766V213.901C53.6685 214.217 53.7056 214.516 53.7798 214.797C53.8541 215.074 53.9654 215.32 54.1138 215.535C54.2662 215.75 54.4556 215.92 54.6822 216.045C54.9087 216.166 55.1724 216.227 55.4732 216.227C55.7701 216.227 56.0298 216.166 56.2525 216.045C56.4791 215.92 56.6666 215.75 56.815 215.535C56.9634 215.32 57.0748 215.074 57.149 214.797C57.2271 214.516 57.2662 214.217 57.2662 213.901V213.766C57.2662 213.453 57.2271 213.158 57.149 212.881C57.0748 212.6 56.9615 212.352 56.8091 212.137C56.6607 211.918 56.4732 211.746 56.2466 211.621C56.024 211.496 55.7623 211.434 55.4615 211.434C55.1646 211.434 54.9029 211.496 54.6763 211.621C54.4537 211.746 54.2662 211.918 54.1138 212.137C53.9654 212.352 53.8541 212.6 53.7798 212.881C53.7056 213.158 53.6685 213.453 53.6685 213.766ZM61.0394 212.014V217H59.9554V210.66H60.9808L61.0394 212.014ZM60.7816 213.59L60.3304 213.572C60.3343 213.139 60.3988 212.738 60.5238 212.371C60.6488 212 60.8245 211.678 61.0511 211.404C61.2777 211.131 61.5472 210.92 61.8597 210.772C62.1761 210.619 62.5257 210.543 62.9085 210.543C63.221 210.543 63.5023 210.586 63.7523 210.672C64.0023 210.754 64.2152 210.887 64.3909 211.07C64.5706 211.254 64.7073 211.492 64.8011 211.785C64.8948 212.074 64.9417 212.428 64.9417 212.846V217H63.8519V212.834C63.8519 212.502 63.803 212.236 63.7054 212.037C63.6077 211.834 63.4652 211.688 63.2777 211.598C63.0902 211.504 62.8597 211.457 62.5863 211.457C62.3167 211.457 62.0706 211.514 61.848 211.627C61.6292 211.74 61.4398 211.897 61.2796 212.096C61.1234 212.295 61.0003 212.524 60.9105 212.781C60.8245 213.035 60.7816 213.305 60.7816 213.59ZM72.5174 217H70.7362L70.7479 216.08H72.5174C73.1268 216.08 73.6346 215.953 74.0409 215.699C74.4471 215.442 74.7518 215.082 74.9549 214.621C75.162 214.156 75.2655 213.613 75.2655 212.992V212.471C75.2655 211.983 75.2069 211.549 75.0897 211.17C74.9725 210.787 74.8006 210.465 74.5741 210.203C74.3475 209.938 74.0702 209.736 73.742 209.6C73.4178 209.463 73.0448 209.395 72.6229 209.395H70.701V208.469H72.6229C73.1815 208.469 73.6912 208.563 74.1522 208.75C74.6131 208.934 75.0096 209.201 75.3416 209.553C75.6776 209.901 75.9354 210.322 76.1151 210.819C76.2948 211.311 76.3846 211.865 76.3846 212.483V212.992C76.3846 213.61 76.2948 214.166 76.1151 214.662C75.9354 215.154 75.6756 215.574 75.3358 215.922C74.9998 216.27 74.5936 216.537 74.117 216.725C73.6444 216.908 73.1112 217 72.5174 217ZM71.3397 208.469V217H70.2088V208.469H71.3397ZM77.8727 213.901V213.766C77.8727 213.309 77.9391 212.885 78.0719 212.494C78.2047 212.1 78.3961 211.758 78.6461 211.469C78.8961 211.176 79.1988 210.949 79.5543 210.789C79.9098 210.625 80.3082 210.543 80.7496 210.543C81.1949 210.543 81.5953 210.625 81.9508 210.789C82.3102 210.949 82.6148 211.176 82.8648 211.469C83.1188 211.758 83.3121 212.1 83.4449 212.494C83.5777 212.885 83.6441 213.309 83.6441 213.766V213.901C83.6441 214.358 83.5777 214.781 83.4449 215.172C83.3121 215.563 83.1188 215.904 82.8648 216.197C82.6148 216.486 82.3121 216.713 81.9566 216.877C81.6051 217.037 81.2066 217.117 80.7613 217.117C80.316 217.117 79.9156 217.037 79.5602 216.877C79.2047 216.713 78.9 216.486 78.6461 216.197C78.3961 215.904 78.2047 215.563 78.0719 215.172C77.9391 214.781 77.8727 214.358 77.8727 213.901ZM78.9566 213.766V213.901C78.9566 214.217 78.9938 214.516 79.068 214.797C79.1422 215.074 79.2535 215.32 79.402 215.535C79.5543 215.75 79.7438 215.92 79.9703 216.045C80.1969 216.166 80.4605 216.227 80.7613 216.227C81.0582 216.227 81.318 216.166 81.5406 216.045C81.7672 215.92 81.9547 215.75 82.1031 215.535C82.2516 215.32 82.3629 215.074 82.4371 214.797C82.5152 214.516 82.5543 214.217 82.5543 213.901V213.766C82.5543 213.453 82.5152 213.158 82.4371 212.881C82.3629 212.6 82.2496 212.352 82.0973 212.137C81.9488 211.918 81.7613 211.746 81.5348 211.621C81.3121 211.496 81.0504 211.434 80.7496 211.434C80.4527 211.434 80.191 211.496 79.9645 211.621C79.7418 211.746 79.5543 211.918 79.402 212.137C79.2535 212.352 79.1422 212.6 79.068 212.881C78.9938 213.158 78.9566 213.453 78.9566 213.766ZM87.8744 217.117C87.433 217.117 87.0326 217.043 86.6732 216.895C86.3177 216.742 86.0111 216.529 85.7533 216.256C85.4994 215.983 85.3041 215.658 85.1673 215.283C85.0306 214.908 84.9623 214.498 84.9623 214.053V213.807C84.9623 213.291 85.0384 212.832 85.1908 212.43C85.3431 212.024 85.5502 211.68 85.8119 211.399C86.0736 211.117 86.3705 210.904 86.7025 210.76C87.0345 210.615 87.3783 210.543 87.7337 210.543C88.1869 210.543 88.5775 210.621 88.9056 210.778C89.2377 210.934 89.5091 211.153 89.7201 211.434C89.931 211.711 90.0873 212.039 90.1888 212.418C90.2904 212.793 90.3412 213.203 90.3412 213.649V214.135H85.6068V213.25H89.2572V213.168C89.2416 212.887 89.183 212.613 89.0814 212.348C88.9837 212.082 88.8275 211.863 88.6127 211.692C88.3978 211.52 88.1048 211.434 87.7337 211.434C87.4877 211.434 87.2611 211.486 87.0541 211.592C86.847 211.694 86.6693 211.846 86.5209 212.049C86.3724 212.252 86.2572 212.5 86.1752 212.793C86.0931 213.086 86.0521 213.424 86.0521 213.807V214.053C86.0521 214.354 86.0931 214.637 86.1752 214.903C86.2611 215.164 86.3841 215.395 86.5443 215.594C86.7084 215.793 86.9056 215.949 87.1361 216.063C87.3705 216.176 87.6361 216.233 87.933 216.233C88.3158 216.233 88.64 216.154 88.9056 215.998C89.1712 215.842 89.4037 215.633 89.6029 215.371L90.2591 215.893C90.1224 216.1 89.9486 216.297 89.7377 216.485C89.5267 216.672 89.267 216.824 88.9584 216.942C88.6537 217.059 88.2923 217.117 87.8744 217.117Z" fill="#686868"/>
<path d="M20.2715 225.422V234H19.1875V226.776L17.002 227.572V226.594L20.1016 225.422H20.2715ZM29.4646 231.129V232.02H23.3005V231.381L27.1209 225.469H28.0056L27.0564 227.18L24.531 231.129H29.4646ZM28.2752 225.469V234H27.1912V225.469H28.2752ZM34.5796 225.469L31.023 234.733H30.0913L33.6538 225.469H34.5796ZM41.2415 229.055V230.356C41.2415 231.055 41.179 231.645 41.054 232.125C40.929 232.606 40.7493 232.992 40.5149 233.285C40.2805 233.578 39.9973 233.791 39.6653 233.924C39.3372 234.053 38.9661 234.117 38.552 234.117C38.2239 234.117 37.9212 234.076 37.6438 233.994C37.3665 233.912 37.1165 233.781 36.8938 233.602C36.6751 233.418 36.4876 233.18 36.3313 232.887C36.1751 232.594 36.0559 232.238 35.9739 231.82C35.8919 231.403 35.8509 230.914 35.8509 230.356V229.055C35.8509 228.356 35.9134 227.77 36.0384 227.297C36.1673 226.824 36.3489 226.445 36.5833 226.16C36.8177 225.871 37.0989 225.664 37.427 225.539C37.7591 225.414 38.1302 225.352 38.5403 225.352C38.8723 225.352 39.177 225.393 39.4544 225.475C39.7356 225.553 39.9856 225.68 40.2044 225.856C40.4231 226.028 40.6087 226.258 40.761 226.547C40.9173 226.832 41.0364 227.182 41.1184 227.596C41.2005 228.01 41.2415 228.496 41.2415 229.055ZM40.1516 230.531V228.873C40.1516 228.49 40.1282 228.154 40.0813 227.865C40.0384 227.572 39.9739 227.322 39.888 227.115C39.802 226.908 39.6927 226.74 39.5598 226.611C39.4309 226.483 39.2805 226.389 39.1087 226.33C38.9407 226.268 38.7512 226.236 38.5403 226.236C38.2825 226.236 38.054 226.285 37.8548 226.383C37.6555 226.477 37.4876 226.627 37.3509 226.834C37.218 227.041 37.1165 227.313 37.0462 227.649C36.9759 227.985 36.9407 228.393 36.9407 228.873V230.531C36.9407 230.914 36.9622 231.252 37.0052 231.545C37.052 231.838 37.1204 232.092 37.2102 232.307C37.3001 232.518 37.4095 232.692 37.5384 232.828C37.6673 232.965 37.8157 233.067 37.9837 233.133C38.1555 233.195 38.345 233.227 38.552 233.227C38.8177 233.227 39.0501 233.176 39.2493 233.074C39.4485 232.973 39.6145 232.815 39.7473 232.6C39.8841 232.381 39.9856 232.102 40.052 231.762C40.1184 231.418 40.1516 231.008 40.1516 230.531ZM48.3897 225.469V226.078L44.8565 234H43.7139L47.2412 226.36H42.6241V225.469H48.3897ZM53.7566 225.469L50.2 234.733H49.2684L52.8309 225.469H53.7566ZM60.6529 233.11V234H55.0689V233.221L57.8638 230.11C58.2076 229.727 58.4732 229.403 58.6607 229.137C58.8521 228.867 58.9849 228.627 59.0591 228.416C59.1373 228.201 59.1763 227.983 59.1763 227.76C59.1763 227.479 59.1177 227.225 59.0005 226.998C58.8873 226.768 58.7193 226.584 58.4966 226.447C58.274 226.311 58.0045 226.242 57.688 226.242C57.3091 226.242 56.9927 226.317 56.7388 226.465C56.4888 226.61 56.3013 226.813 56.1763 227.074C56.0513 227.336 55.9888 227.637 55.9888 227.977H54.9048C54.9048 227.496 55.0103 227.057 55.2212 226.658C55.4322 226.26 55.7447 225.944 56.1587 225.709C56.5728 225.471 57.0826 225.352 57.688 225.352C58.2271 225.352 58.688 225.447 59.0709 225.639C59.4537 225.826 59.7466 226.092 59.9498 226.436C60.1568 226.776 60.2603 227.174 60.2603 227.631C60.2603 227.881 60.2173 228.135 60.1314 228.393C60.0494 228.647 59.9341 228.901 59.7857 229.154C59.6412 229.408 59.4712 229.658 59.2759 229.904C59.0845 230.151 58.8795 230.393 58.6607 230.631L56.3755 233.11H60.6529ZM67.4085 229.055V230.356C67.4085 231.055 67.346 231.645 67.221 232.125C67.096 232.606 66.9163 232.992 66.682 233.285C66.4476 233.578 66.1644 233.791 65.8323 233.924C65.5042 234.053 65.1331 234.117 64.7191 234.117C64.3909 234.117 64.0882 234.076 63.8109 233.994C63.5335 233.912 63.2835 233.781 63.0609 233.602C62.8421 233.418 62.6546 233.18 62.4984 232.887C62.3421 232.594 62.223 232.238 62.1409 231.82C62.0589 231.403 62.0179 230.914 62.0179 230.356V229.055C62.0179 228.356 62.0804 227.77 62.2054 227.297C62.3343 226.824 62.5159 226.445 62.7503 226.16C62.9847 225.871 63.2659 225.664 63.5941 225.539C63.9261 225.414 64.2972 225.352 64.7073 225.352C65.0394 225.352 65.3441 225.393 65.6214 225.475C65.9027 225.553 66.1527 225.68 66.3714 225.856C66.5902 226.028 66.7757 226.258 66.928 226.547C67.0843 226.832 67.2034 227.182 67.2855 227.596C67.3675 228.01 67.4085 228.496 67.4085 229.055ZM66.3187 230.531V228.873C66.3187 228.49 66.2952 228.154 66.2484 227.865C66.2054 227.572 66.1409 227.322 66.055 227.115C65.9691 226.908 65.8597 226.74 65.7269 226.611C65.598 226.483 65.4476 226.389 65.2757 226.33C65.1077 226.268 64.9183 226.236 64.7073 226.236C64.4495 226.236 64.221 226.285 64.0218 226.383C63.8226 226.477 63.6546 226.627 63.5179 226.834C63.3851 227.041 63.2835 227.313 63.2132 227.649C63.1429 227.985 63.1077 228.393 63.1077 228.873V230.531C63.1077 230.914 63.1292 231.252 63.1722 231.545C63.2191 231.838 63.2874 232.092 63.3773 232.307C63.4671 232.518 63.5765 232.692 63.7054 232.828C63.8343 232.965 63.9827 233.067 64.1507 233.133C64.3226 233.195 64.512 233.227 64.7191 233.227C64.9847 233.227 65.2171 233.176 65.4163 233.074C65.6155 232.973 65.7816 232.815 65.9144 232.6C66.0511 232.381 66.1527 232.102 66.2191 231.762C66.2855 231.418 66.3187 231.008 66.3187 230.531ZM74.6329 233.11V234H69.0489V233.221L71.8438 230.11C72.1876 229.727 72.4532 229.403 72.6407 229.137C72.8321 228.867 72.9649 228.627 73.0391 228.416C73.1173 228.201 73.1563 227.983 73.1563 227.76C73.1563 227.479 73.0977 227.225 72.9805 226.998C72.8673 226.768 72.6993 226.584 72.4766 226.447C72.254 226.311 71.9845 226.242 71.668 226.242C71.2891 226.242 70.9727 226.317 70.7188 226.465C70.4688 226.61 70.2813 226.813 70.1563 227.074C70.0313 227.336 69.9688 227.637 69.9688 227.977H68.8848C68.8848 227.496 68.9903 227.057 69.2012 226.658C69.4122 226.26 69.7247 225.944 70.1387 225.709C70.5528 225.471 71.0626 225.352 71.668 225.352C72.2071 225.352 72.668 225.447 73.0509 225.639C73.4337 225.826 73.7266 226.092 73.9298 226.436C74.1368 226.776 74.2403 227.174 74.2403 227.631C74.2403 227.881 74.1973 228.135 74.1114 228.393C74.0294 228.647 73.9141 228.901 73.7657 229.154C73.6212 229.408 73.4512 229.658 73.2559 229.904C73.0645 230.151 72.8595 230.393 72.6407 230.631L70.3555 233.11H74.6329ZM77.6151 229.201H78.3885C78.7674 229.201 79.0799 229.139 79.326 229.014C79.576 228.885 79.7616 228.711 79.8827 228.492C80.0077 228.27 80.0702 228.02 80.0702 227.742C80.0702 227.414 80.0155 227.139 79.9061 226.916C79.7967 226.694 79.6327 226.526 79.4139 226.412C79.1952 226.299 78.9178 226.242 78.5819 226.242C78.2772 226.242 78.0077 226.303 77.7733 226.424C77.5428 226.541 77.3612 226.709 77.2284 226.928C77.0995 227.147 77.035 227.404 77.035 227.701H75.951C75.951 227.268 76.0604 226.873 76.2791 226.518C76.4979 226.162 76.8045 225.879 77.1991 225.668C77.5975 225.457 78.0584 225.352 78.5819 225.352C79.0975 225.352 79.5487 225.444 79.9354 225.627C80.3221 225.807 80.6229 226.076 80.8377 226.436C81.0526 226.791 81.16 227.235 81.16 227.766C81.16 227.981 81.1092 228.211 81.0077 228.457C80.91 228.699 80.7557 228.926 80.5448 229.137C80.3377 229.348 80.0682 229.522 79.7362 229.658C79.4041 229.791 79.0057 229.858 78.5409 229.858H77.6151V229.201ZM77.6151 230.092V229.442H78.5409C79.0838 229.442 79.533 229.506 79.8885 229.635C80.244 229.764 80.5233 229.936 80.7264 230.151C80.9334 230.365 81.078 230.602 81.16 230.86C81.2459 231.113 81.2889 231.367 81.2889 231.621C81.2889 232.02 81.2205 232.373 81.0838 232.682C80.951 232.99 80.7616 233.252 80.5155 233.467C80.2733 233.682 79.9881 233.844 79.66 233.953C79.3319 234.063 78.9745 234.117 78.5877 234.117C78.2166 234.117 77.867 234.065 77.5389 233.959C77.2147 233.854 76.9276 233.701 76.6776 233.502C76.4276 233.299 76.2323 233.051 76.0916 232.758C75.951 232.461 75.8807 232.123 75.8807 231.744H76.9647C76.9647 232.041 77.0291 232.301 77.158 232.524C77.2909 232.746 77.4784 232.92 77.7205 233.045C77.9666 233.166 78.2557 233.227 78.5877 233.227C78.9198 233.227 79.2049 233.17 79.4432 233.057C79.6854 232.94 79.8709 232.764 79.9998 232.529C80.1327 232.295 80.1991 232 80.1991 231.645C80.1991 231.289 80.1248 230.998 79.9764 230.772C79.828 230.541 79.617 230.371 79.3436 230.262C79.0741 230.149 78.7557 230.092 78.3885 230.092H77.6151Z" fill="#686868"/>
<g clip-path="url(#clip3_17087_12684)">
<path d="M22.2402 329.842L26.4297 317.781H28.4707L23.207 332H21.752L22.2402 329.842ZM18.3242 317.781L22.4746 329.842L22.9922 332H21.5371L16.2832 317.781H18.3242ZM34.0664 332.195C33.3307 332.195 32.6634 332.072 32.0645 331.824C31.472 331.57 30.9609 331.216 30.5312 330.76C30.1081 330.304 29.7826 329.764 29.5547 329.139C29.3268 328.514 29.2129 327.83 29.2129 327.088V326.678C29.2129 325.819 29.3398 325.054 29.5938 324.383C29.8477 323.706 30.1927 323.133 30.6289 322.664C31.0651 322.195 31.5599 321.841 32.1133 321.6C32.6667 321.359 33.2396 321.238 33.832 321.238C34.5872 321.238 35.2383 321.369 35.7852 321.629C36.3385 321.889 36.791 322.254 37.1426 322.723C37.4941 323.185 37.7546 323.732 37.9238 324.363C38.0931 324.988 38.1777 325.672 38.1777 326.414V327.225H30.2871V325.75H36.3711V325.613C36.3451 325.145 36.2474 324.689 36.0781 324.246C35.9154 323.804 35.6549 323.439 35.2969 323.153C34.9388 322.866 34.4505 322.723 33.832 322.723C33.4219 322.723 33.0443 322.811 32.6992 322.986C32.3542 323.156 32.0579 323.41 31.8105 323.748C31.5632 324.087 31.3711 324.5 31.2344 324.988C31.0977 325.477 31.0293 326.04 31.0293 326.678V327.088C31.0293 327.589 31.0977 328.061 31.2344 328.504C31.3776 328.94 31.5827 329.324 31.8496 329.656C32.123 329.988 32.4518 330.249 32.8359 330.438C33.2266 330.626 33.6693 330.721 34.1641 330.721C34.8021 330.721 35.3424 330.591 35.7852 330.33C36.2279 330.07 36.6152 329.722 36.9473 329.285L38.041 330.154C37.8132 330.5 37.5234 330.828 37.1719 331.141C36.8203 331.453 36.3874 331.707 35.873 331.903C35.3652 332.098 34.763 332.195 34.0664 332.195ZM42.25 317V332H40.4336V317H42.25ZM54.4961 332.195C53.7604 332.195 53.0931 332.072 52.4941 331.824C51.9017 331.57 51.3906 331.216 50.9609 330.76C50.5378 330.304 50.2122 329.764 49.9844 329.139C49.7565 328.514 49.6426 327.83 49.6426 327.088V326.678C49.6426 325.819 49.7695 325.054 50.0234 324.383C50.2773 323.706 50.6224 323.133 51.0586 322.664C51.4948 322.195 51.9896 321.841 52.543 321.6C53.0964 321.359 53.6693 321.238 54.2617 321.238C55.0169 321.238 55.668 321.369 56.2148 321.629C56.7682 321.889 57.2207 322.254 57.5723 322.723C57.9238 323.185 58.1842 323.732 58.3535 324.363C58.5228 324.988 58.6074 325.672 58.6074 326.414V327.225H50.7168V325.75H56.8008V325.613C56.7747 325.145 56.6771 324.689 56.5078 324.246C56.3451 323.804 56.0846 323.439 55.7266 323.153C55.3685 322.866 54.8802 322.723 54.2617 322.723C53.8516 322.723 53.474 322.811 53.1289 322.986C52.7839 323.156 52.4876 323.41 52.2402 323.748C51.9928 324.087 51.8008 324.5 51.6641 324.988C51.5273 325.477 51.459 326.04 51.459 326.678V327.088C51.459 327.589 51.5273 328.061 51.6641 328.504C51.8073 328.94 52.0124 329.324 52.2793 329.656C52.5527 329.988 52.8815 330.249 53.2656 330.438C53.6562 330.626 54.099 330.721 54.5938 330.721C55.2318 330.721 55.7721 330.591 56.2148 330.33C56.6576 330.07 57.0449 329.722 57.377 329.285L58.4707 330.154C58.2428 330.5 57.9531 330.828 57.6016 331.141C57.25 331.453 56.8171 331.707 56.3027 331.903C55.7949 332.098 55.1927 332.195 54.4961 332.195ZM62.5234 323.69V332H60.7168V321.434H62.4258L62.5234 323.69ZM62.0938 326.317L61.3418 326.287C61.3483 325.565 61.4557 324.897 61.6641 324.285C61.8724 323.667 62.1654 323.13 62.543 322.674C62.9206 322.218 63.3698 321.867 63.8906 321.619C64.418 321.365 65.0007 321.238 65.6387 321.238C66.1595 321.238 66.6283 321.31 67.0449 321.453C67.4616 321.59 67.8164 321.811 68.1094 322.117C68.4089 322.423 68.6367 322.82 68.793 323.309C68.9492 323.791 69.0273 324.38 69.0273 325.076V332H67.2109V325.057C67.2109 324.503 67.1296 324.061 66.9668 323.729C66.804 323.39 66.5664 323.146 66.2539 322.996C65.9414 322.84 65.5573 322.762 65.1016 322.762C64.6523 322.762 64.2422 322.856 63.8711 323.045C63.5065 323.234 63.1908 323.494 62.9238 323.826C62.6634 324.158 62.4583 324.539 62.3086 324.969C62.1654 325.392 62.0938 325.841 62.0938 326.317ZM73.7344 321.434V332H71.918V321.434H73.7344ZM71.7812 318.631C71.7812 318.338 71.8691 318.091 72.0449 317.889C72.2272 317.687 72.4941 317.586 72.8457 317.586C73.1908 317.586 73.4544 317.687 73.6367 317.889C73.8255 318.091 73.9199 318.338 73.9199 318.631C73.9199 318.911 73.8255 319.152 73.6367 319.354C73.4544 319.549 73.1908 319.647 72.8457 319.647C72.4941 319.647 72.2272 319.549 72.0449 319.354C71.8691 319.152 71.7812 318.911 71.7812 318.631ZM78.4316 323.533V332H76.6152V321.434H78.334L78.4316 323.533ZM78.0605 326.317L77.2207 326.287C77.2272 325.565 77.3216 324.897 77.5039 324.285C77.6862 323.667 77.9564 323.13 78.3145 322.674C78.6725 322.218 79.1185 321.867 79.6523 321.619C80.1862 321.365 80.8047 321.238 81.5078 321.238C82.0026 321.238 82.4583 321.31 82.875 321.453C83.2917 321.59 83.653 321.808 83.959 322.108C84.265 322.407 84.5026 322.791 84.6719 323.26C84.8411 323.729 84.9258 324.295 84.9258 324.959V332H83.1191V325.047C83.1191 324.494 83.0247 324.051 82.8359 323.719C82.6536 323.387 82.3932 323.146 82.0547 322.996C81.7161 322.84 81.319 322.762 80.8633 322.762C80.3294 322.762 79.8835 322.856 79.5254 323.045C79.1673 323.234 78.8809 323.494 78.666 323.826C78.4512 324.158 78.2949 324.539 78.1973 324.969C78.1061 325.392 78.0605 325.841 78.0605 326.317ZM84.9062 325.32L83.6953 325.692C83.7018 325.112 83.7962 324.556 83.9785 324.022C84.1673 323.488 84.4375 323.013 84.7891 322.596C85.1471 322.179 85.5866 321.85 86.1074 321.61C86.6283 321.362 87.224 321.238 87.8945 321.238C88.4609 321.238 88.9622 321.313 89.3984 321.463C89.8411 321.613 90.2122 321.844 90.5117 322.156C90.8177 322.462 91.0488 322.856 91.2051 323.338C91.3613 323.82 91.4395 324.393 91.4395 325.057V332H89.623V325.037C89.623 324.445 89.5286 323.986 89.3398 323.66C89.1576 323.328 88.8971 323.097 88.5586 322.967C88.2266 322.83 87.8294 322.762 87.3672 322.762C86.9701 322.762 86.6185 322.83 86.3125 322.967C86.0065 323.104 85.7493 323.292 85.541 323.533C85.3327 323.768 85.1732 324.038 85.0625 324.344C84.9583 324.65 84.9062 324.975 84.9062 325.32ZM105.795 329.949V317H107.611V332H105.951L105.795 329.949ZM98.6855 326.834V326.629C98.6855 325.822 98.7832 325.089 98.9785 324.432C99.1803 323.768 99.4635 323.198 99.8281 322.723C100.199 322.248 100.639 321.883 101.146 321.629C101.661 321.369 102.234 321.238 102.865 321.238C103.529 321.238 104.109 321.356 104.604 321.59C105.105 321.818 105.528 322.153 105.873 322.596C106.225 323.032 106.501 323.559 106.703 324.178C106.905 324.796 107.045 325.496 107.123 326.278V327.176C107.051 327.951 106.911 328.647 106.703 329.266C106.501 329.884 106.225 330.412 105.873 330.848C105.528 331.284 105.105 331.619 104.604 331.854C104.102 332.082 103.516 332.195 102.846 332.195C102.227 332.195 101.661 332.062 101.146 331.795C100.639 331.528 100.199 331.154 99.8281 330.672C99.4635 330.19 99.1803 329.624 98.9785 328.973C98.7832 328.315 98.6855 327.602 98.6855 326.834ZM100.502 326.629V326.834C100.502 327.361 100.554 327.856 100.658 328.319C100.769 328.781 100.938 329.188 101.166 329.539C101.394 329.891 101.684 330.167 102.035 330.369C102.387 330.565 102.807 330.662 103.295 330.662C103.894 330.662 104.385 330.535 104.77 330.281C105.16 330.028 105.473 329.692 105.707 329.276C105.941 328.859 106.124 328.406 106.254 327.918V325.565C106.176 325.207 106.062 324.861 105.912 324.529C105.769 324.191 105.58 323.891 105.346 323.631C105.118 323.364 104.835 323.153 104.496 322.996C104.164 322.84 103.77 322.762 103.314 322.762C102.82 322.762 102.393 322.866 102.035 323.074C101.684 323.276 101.394 323.556 101.166 323.914C100.938 324.266 100.769 324.676 100.658 325.145C100.554 325.607 100.502 326.102 100.502 326.629ZM109.945 326.834V326.61C109.945 325.848 110.056 325.141 110.277 324.49C110.499 323.833 110.818 323.263 111.234 322.781C111.651 322.293 112.156 321.916 112.748 321.649C113.34 321.375 114.005 321.238 114.74 321.238C115.482 321.238 116.15 321.375 116.742 321.649C117.341 321.916 117.849 322.293 118.266 322.781C118.689 323.263 119.011 323.833 119.232 324.49C119.454 325.141 119.564 325.848 119.564 326.61V326.834C119.564 327.596 119.454 328.302 119.232 328.953C119.011 329.604 118.689 330.174 118.266 330.662C117.849 331.144 117.344 331.522 116.752 331.795C116.166 332.062 115.502 332.195 114.76 332.195C114.018 332.195 113.35 332.062 112.758 331.795C112.165 331.522 111.658 331.144 111.234 330.662C110.818 330.174 110.499 329.604 110.277 328.953C110.056 328.302 109.945 327.596 109.945 326.834ZM111.752 326.61V326.834C111.752 327.361 111.814 327.86 111.938 328.328C112.061 328.791 112.247 329.201 112.494 329.559C112.748 329.917 113.064 330.2 113.441 330.408C113.819 330.61 114.258 330.711 114.76 330.711C115.255 330.711 115.688 330.61 116.059 330.408C116.436 330.2 116.749 329.917 116.996 329.559C117.243 329.201 117.429 328.791 117.553 328.328C117.683 327.86 117.748 327.361 117.748 326.834V326.61C117.748 326.089 117.683 325.597 117.553 325.135C117.429 324.666 117.24 324.253 116.986 323.895C116.739 323.53 116.426 323.244 116.049 323.035C115.678 322.827 115.242 322.723 114.74 322.723C114.245 322.723 113.809 322.827 113.432 323.035C113.061 323.244 112.748 323.53 112.494 323.895C112.247 324.253 112.061 324.666 111.938 325.135C111.814 325.597 111.752 326.089 111.752 326.61ZM123.793 317V332H121.977V317H123.793ZM126.215 326.834V326.61C126.215 325.848 126.326 325.141 126.547 324.49C126.768 323.833 127.087 323.263 127.504 322.781C127.921 322.293 128.425 321.916 129.018 321.649C129.61 321.375 130.274 321.238 131.01 321.238C131.752 321.238 132.419 321.375 133.012 321.649C133.611 321.916 134.118 322.293 134.535 322.781C134.958 323.263 135.281 323.833 135.502 324.49C135.723 325.141 135.834 325.848 135.834 326.61V326.834C135.834 327.596 135.723 328.302 135.502 328.953C135.281 329.604 134.958 330.174 134.535 330.662C134.118 331.144 133.614 331.522 133.021 331.795C132.436 332.062 131.771 332.195 131.029 332.195C130.287 332.195 129.62 332.062 129.027 331.795C128.435 331.522 127.927 331.144 127.504 330.662C127.087 330.174 126.768 329.604 126.547 328.953C126.326 328.302 126.215 327.596 126.215 326.834ZM128.021 326.61V326.834C128.021 327.361 128.083 327.86 128.207 328.328C128.331 328.791 128.516 329.201 128.764 329.559C129.018 329.917 129.333 330.2 129.711 330.408C130.089 330.61 130.528 330.711 131.029 330.711C131.524 330.711 131.957 330.61 132.328 330.408C132.706 330.2 133.018 329.917 133.266 329.559C133.513 329.201 133.699 328.791 133.822 328.328C133.952 327.86 134.018 327.361 134.018 326.834V326.61C134.018 326.089 133.952 325.597 133.822 325.135C133.699 324.666 133.51 324.253 133.256 323.895C133.008 323.53 132.696 323.244 132.318 323.035C131.947 322.827 131.511 322.723 131.01 322.723C130.515 322.723 130.079 322.827 129.701 323.035C129.33 323.244 129.018 323.53 128.764 323.895C128.516 324.253 128.331 324.666 128.207 325.135C128.083 325.597 128.021 326.089 128.021 326.61ZM139.906 323.094V332H138.1V321.434H139.857L139.906 323.094ZM143.207 321.375L143.197 323.055C143.048 323.022 142.904 323.003 142.768 322.996C142.637 322.983 142.488 322.977 142.318 322.977C141.902 322.977 141.534 323.042 141.215 323.172C140.896 323.302 140.626 323.485 140.404 323.719C140.183 323.953 140.007 324.233 139.877 324.559C139.753 324.878 139.672 325.229 139.633 325.613L139.125 325.906C139.125 325.268 139.187 324.669 139.311 324.11C139.441 323.55 139.639 323.055 139.906 322.625C140.173 322.189 140.512 321.85 140.922 321.61C141.339 321.362 141.833 321.238 142.406 321.238C142.536 321.238 142.686 321.255 142.855 321.287C143.025 321.313 143.142 321.343 143.207 321.375ZM154.223 332.195C153.487 332.195 152.82 332.072 152.221 331.824C151.628 331.57 151.117 331.216 150.688 330.76C150.264 330.304 149.939 329.764 149.711 329.139C149.483 328.514 149.369 327.83 149.369 327.088V326.678C149.369 325.819 149.496 325.054 149.75 324.383C150.004 323.706 150.349 323.133 150.785 322.664C151.221 322.195 151.716 321.841 152.27 321.6C152.823 321.359 153.396 321.238 153.988 321.238C154.743 321.238 155.395 321.369 155.941 321.629C156.495 321.889 156.947 322.254 157.299 322.723C157.65 323.185 157.911 323.732 158.08 324.363C158.249 324.988 158.334 325.672 158.334 326.414V327.225H150.443V325.75H156.527V325.613C156.501 325.145 156.404 324.689 156.234 324.246C156.072 323.804 155.811 323.439 155.453 323.153C155.095 322.866 154.607 322.723 153.988 322.723C153.578 322.723 153.201 322.811 152.855 322.986C152.51 323.156 152.214 323.41 151.967 323.748C151.719 324.087 151.527 324.5 151.391 324.988C151.254 325.477 151.186 326.04 151.186 326.678V327.088C151.186 327.589 151.254 328.061 151.391 328.504C151.534 328.94 151.739 329.324 152.006 329.656C152.279 329.988 152.608 330.249 152.992 330.438C153.383 330.626 153.826 330.721 154.32 330.721C154.958 330.721 155.499 330.591 155.941 330.33C156.384 330.07 156.771 329.722 157.104 329.285L158.197 330.154C157.969 330.5 157.68 330.828 157.328 331.141C156.977 331.453 156.544 331.707 156.029 331.903C155.521 332.098 154.919 332.195 154.223 332.195ZM167.289 321.434H168.93V331.776C168.93 332.707 168.741 333.501 168.363 334.158C167.986 334.816 167.458 335.314 166.781 335.653C166.111 335.998 165.336 336.17 164.457 336.17C164.092 336.17 163.663 336.111 163.168 335.994C162.68 335.884 162.198 335.692 161.723 335.418C161.254 335.151 160.86 334.79 160.541 334.334L161.488 333.26C161.931 333.794 162.393 334.165 162.875 334.373C163.363 334.582 163.845 334.686 164.32 334.686C164.893 334.686 165.388 334.578 165.805 334.363C166.221 334.149 166.544 333.83 166.771 333.406C167.006 332.99 167.123 332.475 167.123 331.863V323.758L167.289 321.434ZM160.014 326.834V326.629C160.014 325.822 160.108 325.089 160.297 324.432C160.492 323.768 160.769 323.198 161.127 322.723C161.492 322.248 161.931 321.883 162.445 321.629C162.96 321.369 163.539 321.238 164.184 321.238C164.848 321.238 165.427 321.356 165.922 321.59C166.423 321.818 166.846 322.153 167.191 322.596C167.543 323.032 167.82 323.559 168.021 324.178C168.223 324.796 168.363 325.496 168.441 326.278V327.176C168.37 327.951 168.23 328.647 168.021 329.266C167.82 329.884 167.543 330.412 167.191 330.848C166.846 331.284 166.423 331.619 165.922 331.854C165.421 332.082 164.835 332.195 164.164 332.195C163.533 332.195 162.96 332.062 162.445 331.795C161.938 331.528 161.501 331.154 161.137 330.672C160.772 330.19 160.492 329.624 160.297 328.973C160.108 328.315 160.014 327.602 160.014 326.834ZM161.82 326.629V326.834C161.82 327.361 161.872 327.856 161.977 328.319C162.087 328.781 162.253 329.188 162.475 329.539C162.702 329.891 162.992 330.167 163.344 330.369C163.695 330.565 164.115 330.662 164.604 330.662C165.202 330.662 165.697 330.535 166.088 330.281C166.479 330.028 166.788 329.692 167.016 329.276C167.25 328.859 167.432 328.406 167.562 327.918V325.565C167.491 325.207 167.38 324.861 167.23 324.529C167.087 324.191 166.898 323.891 166.664 323.631C166.436 323.364 166.153 323.153 165.814 322.996C165.476 322.84 165.079 322.762 164.623 322.762C164.128 322.762 163.702 322.866 163.344 323.074C162.992 323.276 162.702 323.556 162.475 323.914C162.253 324.266 162.087 324.676 161.977 325.145C161.872 325.607 161.82 326.102 161.82 326.629ZM176.059 332.195C175.323 332.195 174.656 332.072 174.057 331.824C173.464 331.57 172.953 331.216 172.523 330.76C172.1 330.304 171.775 329.764 171.547 329.139C171.319 328.514 171.205 327.83 171.205 327.088V326.678C171.205 325.819 171.332 325.054 171.586 324.383C171.84 323.706 172.185 323.133 172.621 322.664C173.057 322.195 173.552 321.841 174.105 321.6C174.659 321.359 175.232 321.238 175.824 321.238C176.579 321.238 177.23 321.369 177.777 321.629C178.331 321.889 178.783 322.254 179.135 322.723C179.486 323.185 179.747 323.732 179.916 324.363C180.085 324.988 180.17 325.672 180.17 326.414V327.225H172.279V325.75H178.363V325.613C178.337 325.145 178.24 324.689 178.07 324.246C177.908 323.804 177.647 323.439 177.289 323.153C176.931 322.866 176.443 322.723 175.824 322.723C175.414 322.723 175.036 322.811 174.691 322.986C174.346 323.156 174.05 323.41 173.803 323.748C173.555 324.087 173.363 324.5 173.227 324.988C173.09 325.477 173.021 326.04 173.021 326.678V327.088C173.021 327.589 173.09 328.061 173.227 328.504C173.37 328.94 173.575 329.324 173.842 329.656C174.115 329.988 174.444 330.249 174.828 330.438C175.219 330.626 175.661 330.721 176.156 330.721C176.794 330.721 177.335 330.591 177.777 330.33C178.22 330.07 178.607 329.722 178.939 329.285L180.033 330.154C179.805 330.5 179.516 330.828 179.164 331.141C178.812 331.453 178.38 331.707 177.865 331.903C177.357 332.098 176.755 332.195 176.059 332.195ZM186.703 321.434V322.82H180.99V321.434H186.703ZM182.924 318.865H184.73V329.383C184.73 329.741 184.786 330.011 184.896 330.194C185.007 330.376 185.15 330.496 185.326 330.555C185.502 330.613 185.691 330.643 185.893 330.643C186.042 330.643 186.199 330.63 186.361 330.604C186.531 330.571 186.658 330.545 186.742 330.526L186.752 332C186.609 332.046 186.42 332.088 186.186 332.127C185.958 332.173 185.681 332.195 185.355 332.195C184.913 332.195 184.506 332.108 184.135 331.932C183.764 331.756 183.467 331.463 183.246 331.053C183.031 330.636 182.924 330.076 182.924 329.373V318.865Z" fill="#026CD1"/>
</g>
<defs>
<clipPath id="clip0_17087_12684">
<rect width="328" height="164" fill="white"/>
</clipPath>
<clipPath id="clip1_17087_12684">
<rect width="296" height="23" fill="white" transform="translate(16 125)"/>
</clipPath>
<clipPath id="clip2_17087_12684">
<rect width="328" height="164" fill="white" transform="translate(0 188)"/>
</clipPath>
<clipPath id="clip3_17087_12684">
<rect width="296" height="23" fill="white" transform="translate(16 313)"/>
</clipPath>
</defs>
</svg>
