<svg width="328" height="384" viewBox="0 0 328 384" fill="none" xmlns="http://www.w3.org/2000/svg">
<g clip-path="url(#clip0_17087_12996)">
<rect width="156" height="117" transform="translate(0 0.501953)" fill="#E3E3E3"/>
</g>
<path d="M180.188 20.8848H181.688C181.609 21.6035 181.404 22.2467 181.07 22.8145C180.737 23.3822 180.266 23.8327 179.656 24.166C179.047 24.4941 178.286 24.6582 177.375 24.6582C176.708 24.6582 176.102 24.5332 175.555 24.2832C175.013 24.0332 174.547 23.679 174.156 23.2207C173.766 22.7572 173.464 22.2025 173.25 21.5566C173.042 20.9056 172.938 20.1816 172.938 19.3848V18.252C172.938 17.4551 173.042 16.7337 173.25 16.0879C173.464 15.4368 173.768 14.8796 174.164 14.416C174.565 13.9525 175.047 13.5957 175.609 13.3457C176.172 13.0957 176.805 12.9707 177.508 12.9707C178.367 12.9707 179.094 13.1322 179.688 13.4551C180.281 13.778 180.742 14.2259 181.07 14.7988C181.404 15.3665 181.609 16.0254 181.688 16.7754H180.188C180.115 16.2441 179.979 15.7884 179.781 15.4082C179.583 15.0228 179.302 14.7259 178.938 14.5176C178.573 14.3092 178.096 14.2051 177.508 14.2051C177.003 14.2051 176.557 14.3014 176.172 14.4941C175.792 14.6868 175.471 14.9603 175.211 15.3145C174.956 15.6686 174.763 16.0931 174.633 16.5879C174.503 17.0827 174.438 17.6322 174.438 18.2363V19.3848C174.438 19.9421 174.495 20.4655 174.609 20.9551C174.729 21.4447 174.909 21.8743 175.148 22.2441C175.388 22.6139 175.693 22.9056 176.062 23.1191C176.432 23.3275 176.87 23.4316 177.375 23.4316C178.016 23.4316 178.526 23.3301 178.906 23.127C179.286 22.9238 179.573 22.6322 179.766 22.252C179.964 21.8717 180.104 21.416 180.188 20.8848ZM188.508 23.0566V18.7051C188.508 18.3717 188.44 18.0827 188.305 17.8379C188.174 17.5879 187.977 17.3952 187.711 17.2598C187.445 17.1243 187.117 17.0566 186.727 17.0566C186.362 17.0566 186.042 17.1191 185.766 17.2441C185.495 17.3691 185.281 17.5332 185.125 17.7363C184.974 17.9395 184.898 18.1582 184.898 18.3926H183.453C183.453 18.0905 183.531 17.791 183.688 17.4941C183.844 17.1973 184.068 16.929 184.359 16.6895C184.656 16.4447 185.01 16.252 185.422 16.1113C185.839 15.9655 186.302 15.8926 186.812 15.8926C187.427 15.8926 187.969 15.9967 188.438 16.2051C188.911 16.4134 189.281 16.7285 189.547 17.1504C189.818 17.5671 189.953 18.0905 189.953 18.7207V22.6582C189.953 22.9395 189.977 23.2389 190.023 23.5566C190.076 23.8743 190.151 24.1478 190.25 24.377V24.502H188.742C188.669 24.3353 188.612 24.1139 188.57 23.8379C188.529 23.5566 188.508 23.2962 188.508 23.0566ZM188.758 19.377L188.773 20.3926H187.312C186.901 20.3926 186.534 20.4264 186.211 20.4941C185.888 20.5566 185.617 20.653 185.398 20.7832C185.18 20.9134 185.013 21.0775 184.898 21.2754C184.784 21.4681 184.727 21.6947 184.727 21.9551C184.727 22.2207 184.786 22.4629 184.906 22.6816C185.026 22.9004 185.206 23.0749 185.445 23.2051C185.69 23.3301 185.99 23.3926 186.344 23.3926C186.786 23.3926 187.177 23.2988 187.516 23.1113C187.854 22.9238 188.122 22.6947 188.32 22.4238C188.523 22.153 188.633 21.89 188.648 21.6348L189.266 22.3301C189.229 22.5488 189.13 22.791 188.969 23.0566C188.807 23.3223 188.591 23.5775 188.32 23.8223C188.055 24.0618 187.737 24.2624 187.367 24.4238C187.003 24.5801 186.591 24.6582 186.133 24.6582C185.56 24.6582 185.057 24.5462 184.625 24.3223C184.198 24.0983 183.865 23.7988 183.625 23.4238C183.391 23.0436 183.273 22.6191 183.273 22.1504C183.273 21.6973 183.362 21.2988 183.539 20.9551C183.716 20.6061 183.971 20.3171 184.305 20.0879C184.638 19.8535 185.039 19.6764 185.508 19.5566C185.977 19.4368 186.5 19.377 187.078 19.377H188.758ZM195.766 16.0488V17.1582H191.195V16.0488H195.766ZM192.742 13.9941H194.188V22.4082C194.188 22.6947 194.232 22.9108 194.32 23.0566C194.409 23.2025 194.523 23.2988 194.664 23.3457C194.805 23.3926 194.956 23.416 195.117 23.416C195.237 23.416 195.362 23.4056 195.492 23.3848C195.628 23.3587 195.729 23.3379 195.797 23.3223L195.805 24.502C195.69 24.5384 195.539 24.5723 195.352 24.6035C195.169 24.64 194.948 24.6582 194.688 24.6582C194.333 24.6582 194.008 24.5879 193.711 24.4473C193.414 24.3066 193.177 24.0723 193 23.7441C192.828 23.4108 192.742 22.9629 192.742 22.4004V13.9941ZM200.969 24.6582C200.38 24.6582 199.846 24.5592 199.367 24.3613C198.893 24.1582 198.484 23.8743 198.141 23.5098C197.802 23.1452 197.542 22.7129 197.359 22.2129C197.177 21.7129 197.086 21.166 197.086 20.5723V20.2441C197.086 19.5566 197.188 18.9447 197.391 18.4082C197.594 17.8665 197.87 17.4082 198.219 17.0332C198.568 16.6582 198.964 16.3743 199.406 16.1816C199.849 15.9889 200.307 15.8926 200.781 15.8926C201.385 15.8926 201.906 15.9967 202.344 16.2051C202.786 16.4134 203.148 16.7051 203.43 17.0801C203.711 17.4499 203.919 17.8874 204.055 18.3926C204.19 18.8926 204.258 19.4395 204.258 20.0332V20.6816H197.945V19.502H202.812V19.3926C202.792 19.0176 202.714 18.653 202.578 18.2988C202.448 17.9447 202.24 17.653 201.953 17.4238C201.667 17.1947 201.276 17.0801 200.781 17.0801C200.453 17.0801 200.151 17.1504 199.875 17.291C199.599 17.4264 199.362 17.6296 199.164 17.9004C198.966 18.1712 198.812 18.502 198.703 18.8926C198.594 19.2832 198.539 19.7337 198.539 20.2441V20.5723C198.539 20.9733 198.594 21.3509 198.703 21.7051C198.818 22.054 198.982 22.3613 199.195 22.627C199.414 22.8926 199.677 23.1009 199.984 23.252C200.297 23.403 200.651 23.4785 201.047 23.4785C201.557 23.4785 201.99 23.3743 202.344 23.166C202.698 22.9577 203.008 22.679 203.273 22.3301L204.148 23.0254C203.966 23.3014 203.734 23.5645 203.453 23.8145C203.172 24.0645 202.826 24.2676 202.414 24.4238C202.008 24.5801 201.526 24.6582 200.969 24.6582ZM211.422 16.0488H212.734V24.3223C212.734 25.0671 212.583 25.7025 212.281 26.2285C211.979 26.7546 211.557 27.153 211.016 27.4238C210.479 27.6999 209.859 27.8379 209.156 27.8379C208.865 27.8379 208.521 27.791 208.125 27.6973C207.734 27.6087 207.349 27.4551 206.969 27.2363C206.594 27.0228 206.279 26.7337 206.023 26.3691L206.781 25.5098C207.135 25.9368 207.505 26.2337 207.891 26.4004C208.281 26.5671 208.667 26.6504 209.047 26.6504C209.505 26.6504 209.901 26.5645 210.234 26.3926C210.568 26.2207 210.826 25.9655 211.008 25.627C211.195 25.2936 211.289 24.8822 211.289 24.3926V17.9082L211.422 16.0488ZM205.602 20.3691V20.2051C205.602 19.5592 205.677 18.9733 205.828 18.4473C205.984 17.916 206.206 17.4603 206.492 17.0801C206.784 16.6999 207.135 16.4082 207.547 16.2051C207.958 15.9967 208.422 15.8926 208.938 15.8926C209.469 15.8926 209.932 15.9863 210.328 16.1738C210.729 16.3561 211.068 16.6243 211.344 16.9785C211.625 17.3275 211.846 17.7493 212.008 18.2441C212.169 18.7389 212.281 19.2988 212.344 19.9238V20.6426C212.286 21.2624 212.174 21.8197 212.008 22.3145C211.846 22.8092 211.625 23.2311 211.344 23.5801C211.068 23.929 210.729 24.1973 210.328 24.3848C209.927 24.5671 209.458 24.6582 208.922 24.6582C208.417 24.6582 207.958 24.5514 207.547 24.3379C207.141 24.1243 206.792 23.8249 206.5 23.4395C206.208 23.054 205.984 22.6009 205.828 22.0801C205.677 21.554 205.602 20.9837 205.602 20.3691ZM207.047 20.2051V20.3691C207.047 20.791 207.089 21.1868 207.172 21.5566C207.26 21.9264 207.393 22.252 207.57 22.5332C207.753 22.8145 207.984 23.0358 208.266 23.1973C208.547 23.3535 208.883 23.4316 209.273 23.4316C209.753 23.4316 210.148 23.3301 210.461 23.127C210.773 22.9238 211.021 22.6556 211.203 22.3223C211.391 21.9889 211.536 21.627 211.641 21.2363V19.3535C211.583 19.0671 211.495 18.791 211.375 18.5254C211.26 18.2546 211.109 18.015 210.922 17.8066C210.74 17.5931 210.513 17.4238 210.242 17.2988C209.971 17.1738 209.654 17.1113 209.289 17.1113C208.893 17.1113 208.552 17.1947 208.266 17.3613C207.984 17.5228 207.753 17.7467 207.57 18.0332C207.393 18.3145 207.26 18.6426 207.172 19.0176C207.089 19.3874 207.047 19.7832 207.047 20.2051ZM214.547 20.3691V20.1895C214.547 19.5801 214.635 19.015 214.812 18.4941C214.99 17.9681 215.245 17.5124 215.578 17.127C215.911 16.7363 216.315 16.4342 216.789 16.2207C217.263 16.002 217.794 15.8926 218.383 15.8926C218.977 15.8926 219.51 16.002 219.984 16.2207C220.464 16.4342 220.87 16.7363 221.203 17.127C221.542 17.5124 221.799 17.9681 221.977 18.4941C222.154 19.015 222.242 19.5801 222.242 20.1895V20.3691C222.242 20.9785 222.154 21.5436 221.977 22.0645C221.799 22.5853 221.542 23.041 221.203 23.4316C220.87 23.8171 220.466 24.1191 219.992 24.3379C219.523 24.5514 218.992 24.6582 218.398 24.6582C217.805 24.6582 217.271 24.5514 216.797 24.3379C216.323 24.1191 215.917 23.8171 215.578 23.4316C215.245 23.041 214.99 22.5853 214.812 22.0645C214.635 21.5436 214.547 20.9785 214.547 20.3691ZM215.992 20.1895V20.3691C215.992 20.791 216.042 21.1895 216.141 21.5645C216.24 21.9342 216.388 22.2624 216.586 22.5488C216.789 22.8353 217.042 23.0618 217.344 23.2285C217.646 23.39 217.997 23.4707 218.398 23.4707C218.794 23.4707 219.141 23.39 219.438 23.2285C219.74 23.0618 219.99 22.8353 220.188 22.5488C220.385 22.2624 220.534 21.9342 220.633 21.5645C220.737 21.1895 220.789 20.791 220.789 20.3691V20.1895C220.789 19.7728 220.737 19.3796 220.633 19.0098C220.534 18.6348 220.383 18.304 220.18 18.0176C219.982 17.7259 219.732 17.4967 219.43 17.3301C219.133 17.1634 218.784 17.0801 218.383 17.0801C217.987 17.0801 217.638 17.1634 217.336 17.3301C217.039 17.4967 216.789 17.7259 216.586 18.0176C216.388 18.304 216.24 18.6348 216.141 19.0098C216.042 19.3796 215.992 19.7728 215.992 20.1895ZM225.5 17.377V24.502H224.055V16.0488H225.461L225.5 17.377ZM228.141 16.002L228.133 17.3457C228.013 17.3197 227.898 17.304 227.789 17.2988C227.685 17.2884 227.565 17.2832 227.43 17.2832C227.096 17.2832 226.802 17.3353 226.547 17.4395C226.292 17.5436 226.076 17.6895 225.898 17.877C225.721 18.0645 225.581 18.2884 225.477 18.5488C225.378 18.804 225.312 19.0853 225.281 19.3926L224.875 19.627C224.875 19.1165 224.924 18.6374 225.023 18.1895C225.128 17.7415 225.286 17.3457 225.5 17.002C225.714 16.653 225.984 16.3822 226.312 16.1895C226.646 15.9915 227.042 15.8926 227.5 15.8926C227.604 15.8926 227.724 15.9056 227.859 15.9316C227.995 15.9525 228.089 15.9759 228.141 16.002ZM231.992 23.627L234.344 16.0488H235.891L232.5 25.8066C232.422 26.015 232.318 26.2389 232.188 26.4785C232.062 26.7233 231.901 26.9551 231.703 27.1738C231.505 27.3926 231.266 27.5697 230.984 27.7051C230.708 27.8457 230.378 27.916 229.992 27.916C229.878 27.916 229.732 27.9004 229.555 27.8691C229.378 27.8379 229.253 27.8118 229.18 27.791L229.172 26.6191C229.214 26.6243 229.279 26.6296 229.367 26.6348C229.461 26.6452 229.526 26.6504 229.562 26.6504C229.891 26.6504 230.169 26.6061 230.398 26.5176C230.628 26.4342 230.82 26.291 230.977 26.0879C231.138 25.89 231.276 25.6165 231.391 25.2676L231.992 23.627ZM230.266 16.0488L232.461 22.6113L232.836 24.1348L231.797 24.666L228.688 16.0488H230.266Z" fill="#686868"/>
<g clip-path="url(#clip1_17087_12996)">
<rect width="156" height="117" transform="translate(0 133.502)" fill="#E3E3E3"/>
</g>
<path d="M180.188 153.885H181.688C181.609 154.604 181.404 155.247 181.07 155.815C180.737 156.382 180.266 156.833 179.656 157.166C179.047 157.494 178.286 157.658 177.375 157.658C176.708 157.658 176.102 157.533 175.555 157.283C175.013 157.033 174.547 156.679 174.156 156.221C173.766 155.757 173.464 155.203 173.25 154.557C173.042 153.906 172.938 153.182 172.938 152.385V151.252C172.938 150.455 173.042 149.734 173.25 149.088C173.464 148.437 173.768 147.88 174.164 147.416C174.565 146.953 175.047 146.596 175.609 146.346C176.172 146.096 176.805 145.971 177.508 145.971C178.367 145.971 179.094 146.132 179.688 146.455C180.281 146.778 180.742 147.226 181.07 147.799C181.404 148.367 181.609 149.026 181.688 149.776H180.188C180.115 149.244 179.979 148.789 179.781 148.408C179.583 148.023 179.302 147.726 178.938 147.518C178.573 147.309 178.096 147.205 177.508 147.205C177.003 147.205 176.557 147.302 176.172 147.494C175.792 147.687 175.471 147.96 175.211 148.315C174.956 148.669 174.763 149.093 174.633 149.588C174.503 150.083 174.438 150.632 174.438 151.236V152.385C174.438 152.942 174.495 153.466 174.609 153.955C174.729 154.445 174.909 154.874 175.148 155.244C175.388 155.614 175.693 155.906 176.062 156.119C176.432 156.328 176.87 156.432 177.375 156.432C178.016 156.432 178.526 156.33 178.906 156.127C179.286 155.924 179.573 155.632 179.766 155.252C179.964 154.872 180.104 154.416 180.188 153.885ZM188.508 156.057V151.705C188.508 151.372 188.44 151.083 188.305 150.838C188.174 150.588 187.977 150.395 187.711 150.26C187.445 150.124 187.117 150.057 186.727 150.057C186.362 150.057 186.042 150.119 185.766 150.244C185.495 150.369 185.281 150.533 185.125 150.736C184.974 150.94 184.898 151.158 184.898 151.393H183.453C183.453 151.091 183.531 150.791 183.688 150.494C183.844 150.197 184.068 149.929 184.359 149.69C184.656 149.445 185.01 149.252 185.422 149.111C185.839 148.966 186.302 148.893 186.812 148.893C187.427 148.893 187.969 148.997 188.438 149.205C188.911 149.414 189.281 149.729 189.547 150.151C189.818 150.567 189.953 151.091 189.953 151.721V155.658C189.953 155.94 189.977 156.239 190.023 156.557C190.076 156.874 190.151 157.148 190.25 157.377V157.502H188.742C188.669 157.335 188.612 157.114 188.57 156.838C188.529 156.557 188.508 156.296 188.508 156.057ZM188.758 152.377L188.773 153.393H187.312C186.901 153.393 186.534 153.427 186.211 153.494C185.888 153.557 185.617 153.653 185.398 153.783C185.18 153.914 185.013 154.078 184.898 154.276C184.784 154.468 184.727 154.695 184.727 154.955C184.727 155.221 184.786 155.463 184.906 155.682C185.026 155.901 185.206 156.075 185.445 156.205C185.69 156.33 185.99 156.393 186.344 156.393C186.786 156.393 187.177 156.299 187.516 156.111C187.854 155.924 188.122 155.695 188.32 155.424C188.523 155.153 188.633 154.89 188.648 154.635L189.266 155.33C189.229 155.549 189.13 155.791 188.969 156.057C188.807 156.322 188.591 156.578 188.32 156.822C188.055 157.062 187.737 157.262 187.367 157.424C187.003 157.58 186.591 157.658 186.133 157.658C185.56 157.658 185.057 157.546 184.625 157.322C184.198 157.098 183.865 156.799 183.625 156.424C183.391 156.044 183.273 155.619 183.273 155.151C183.273 154.697 183.362 154.299 183.539 153.955C183.716 153.606 183.971 153.317 184.305 153.088C184.638 152.854 185.039 152.677 185.508 152.557C185.977 152.437 186.5 152.377 187.078 152.377H188.758ZM195.766 149.049V150.158H191.195V149.049H195.766ZM192.742 146.994H194.188V155.408C194.188 155.695 194.232 155.911 194.32 156.057C194.409 156.203 194.523 156.299 194.664 156.346C194.805 156.393 194.956 156.416 195.117 156.416C195.237 156.416 195.362 156.406 195.492 156.385C195.628 156.359 195.729 156.338 195.797 156.322L195.805 157.502C195.69 157.539 195.539 157.572 195.352 157.604C195.169 157.64 194.948 157.658 194.688 157.658C194.333 157.658 194.008 157.588 193.711 157.447C193.414 157.307 193.177 157.072 193 156.744C192.828 156.411 192.742 155.963 192.742 155.401V146.994ZM200.969 157.658C200.38 157.658 199.846 157.559 199.367 157.361C198.893 157.158 198.484 156.874 198.141 156.51C197.802 156.145 197.542 155.713 197.359 155.213C197.177 154.713 197.086 154.166 197.086 153.572V153.244C197.086 152.557 197.188 151.945 197.391 151.408C197.594 150.867 197.87 150.408 198.219 150.033C198.568 149.658 198.964 149.374 199.406 149.182C199.849 148.989 200.307 148.893 200.781 148.893C201.385 148.893 201.906 148.997 202.344 149.205C202.786 149.414 203.148 149.705 203.43 150.08C203.711 150.45 203.919 150.887 204.055 151.393C204.19 151.893 204.258 152.44 204.258 153.033V153.682H197.945V152.502H202.812V152.393C202.792 152.018 202.714 151.653 202.578 151.299C202.448 150.945 202.24 150.653 201.953 150.424C201.667 150.195 201.276 150.08 200.781 150.08C200.453 150.08 200.151 150.151 199.875 150.291C199.599 150.427 199.362 150.63 199.164 150.901C198.966 151.171 198.812 151.502 198.703 151.893C198.594 152.283 198.539 152.734 198.539 153.244V153.572C198.539 153.973 198.594 154.351 198.703 154.705C198.818 155.054 198.982 155.361 199.195 155.627C199.414 155.893 199.677 156.101 199.984 156.252C200.297 156.403 200.651 156.479 201.047 156.479C201.557 156.479 201.99 156.374 202.344 156.166C202.698 155.958 203.008 155.679 203.273 155.33L204.148 156.026C203.966 156.302 203.734 156.565 203.453 156.815C203.172 157.065 202.826 157.268 202.414 157.424C202.008 157.58 201.526 157.658 200.969 157.658ZM211.422 149.049H212.734V157.322C212.734 158.067 212.583 158.703 212.281 159.229C211.979 159.755 211.557 160.153 211.016 160.424C210.479 160.7 209.859 160.838 209.156 160.838C208.865 160.838 208.521 160.791 208.125 160.697C207.734 160.609 207.349 160.455 206.969 160.236C206.594 160.023 206.279 159.734 206.023 159.369L206.781 158.51C207.135 158.937 207.505 159.234 207.891 159.401C208.281 159.567 208.667 159.651 209.047 159.651C209.505 159.651 209.901 159.565 210.234 159.393C210.568 159.221 210.826 158.966 211.008 158.627C211.195 158.294 211.289 157.882 211.289 157.393V150.908L211.422 149.049ZM205.602 153.369V153.205C205.602 152.559 205.677 151.973 205.828 151.447C205.984 150.916 206.206 150.46 206.492 150.08C206.784 149.7 207.135 149.408 207.547 149.205C207.958 148.997 208.422 148.893 208.938 148.893C209.469 148.893 209.932 148.986 210.328 149.174C210.729 149.356 211.068 149.624 211.344 149.979C211.625 150.328 211.846 150.749 212.008 151.244C212.169 151.739 212.281 152.299 212.344 152.924V153.643C212.286 154.262 212.174 154.82 212.008 155.315C211.846 155.809 211.625 156.231 211.344 156.58C211.068 156.929 210.729 157.197 210.328 157.385C209.927 157.567 209.458 157.658 208.922 157.658C208.417 157.658 207.958 157.552 207.547 157.338C207.141 157.124 206.792 156.825 206.5 156.44C206.208 156.054 205.984 155.601 205.828 155.08C205.677 154.554 205.602 153.984 205.602 153.369ZM207.047 153.205V153.369C207.047 153.791 207.089 154.187 207.172 154.557C207.26 154.927 207.393 155.252 207.57 155.533C207.753 155.815 207.984 156.036 208.266 156.197C208.547 156.354 208.883 156.432 209.273 156.432C209.753 156.432 210.148 156.33 210.461 156.127C210.773 155.924 211.021 155.656 211.203 155.322C211.391 154.989 211.536 154.627 211.641 154.236V152.354C211.583 152.067 211.495 151.791 211.375 151.526C211.26 151.255 211.109 151.015 210.922 150.807C210.74 150.593 210.513 150.424 210.242 150.299C209.971 150.174 209.654 150.111 209.289 150.111C208.893 150.111 208.552 150.195 208.266 150.361C207.984 150.523 207.753 150.747 207.57 151.033C207.393 151.315 207.26 151.643 207.172 152.018C207.089 152.387 207.047 152.783 207.047 153.205ZM214.547 153.369V153.19C214.547 152.58 214.635 152.015 214.812 151.494C214.99 150.968 215.245 150.512 215.578 150.127C215.911 149.736 216.315 149.434 216.789 149.221C217.263 149.002 217.794 148.893 218.383 148.893C218.977 148.893 219.51 149.002 219.984 149.221C220.464 149.434 220.87 149.736 221.203 150.127C221.542 150.512 221.799 150.968 221.977 151.494C222.154 152.015 222.242 152.58 222.242 153.19V153.369C222.242 153.979 222.154 154.544 221.977 155.065C221.799 155.585 221.542 156.041 221.203 156.432C220.87 156.817 220.466 157.119 219.992 157.338C219.523 157.552 218.992 157.658 218.398 157.658C217.805 157.658 217.271 157.552 216.797 157.338C216.323 157.119 215.917 156.817 215.578 156.432C215.245 156.041 214.99 155.585 214.812 155.065C214.635 154.544 214.547 153.979 214.547 153.369ZM215.992 153.19V153.369C215.992 153.791 216.042 154.19 216.141 154.565C216.24 154.934 216.388 155.262 216.586 155.549C216.789 155.835 217.042 156.062 217.344 156.229C217.646 156.39 217.997 156.471 218.398 156.471C218.794 156.471 219.141 156.39 219.438 156.229C219.74 156.062 219.99 155.835 220.188 155.549C220.385 155.262 220.534 154.934 220.633 154.565C220.737 154.19 220.789 153.791 220.789 153.369V153.19C220.789 152.773 220.737 152.38 220.633 152.01C220.534 151.635 220.383 151.304 220.18 151.018C219.982 150.726 219.732 150.497 219.43 150.33C219.133 150.164 218.784 150.08 218.383 150.08C217.987 150.08 217.638 150.164 217.336 150.33C217.039 150.497 216.789 150.726 216.586 151.018C216.388 151.304 216.24 151.635 216.141 152.01C216.042 152.38 215.992 152.773 215.992 153.19ZM225.5 150.377V157.502H224.055V149.049H225.461L225.5 150.377ZM228.141 149.002L228.133 150.346C228.013 150.32 227.898 150.304 227.789 150.299C227.685 150.289 227.565 150.283 227.43 150.283C227.096 150.283 226.802 150.335 226.547 150.44C226.292 150.544 226.076 150.69 225.898 150.877C225.721 151.065 225.581 151.289 225.477 151.549C225.378 151.804 225.312 152.085 225.281 152.393L224.875 152.627C224.875 152.117 224.924 151.637 225.023 151.19C225.128 150.742 225.286 150.346 225.5 150.002C225.714 149.653 225.984 149.382 226.312 149.19C226.646 148.992 227.042 148.893 227.5 148.893C227.604 148.893 227.724 148.906 227.859 148.932C227.995 148.953 228.089 148.976 228.141 149.002ZM231.992 156.627L234.344 149.049H235.891L232.5 158.807C232.422 159.015 232.318 159.239 232.188 159.479C232.062 159.723 231.901 159.955 231.703 160.174C231.505 160.393 231.266 160.57 230.984 160.705C230.708 160.846 230.378 160.916 229.992 160.916C229.878 160.916 229.732 160.901 229.555 160.869C229.378 160.838 229.253 160.812 229.18 160.791L229.172 159.619C229.214 159.624 229.279 159.63 229.367 159.635C229.461 159.645 229.526 159.651 229.562 159.651C229.891 159.651 230.169 159.606 230.398 159.518C230.628 159.434 230.82 159.291 230.977 159.088C231.138 158.89 231.276 158.617 231.391 158.268L231.992 156.627ZM230.266 149.049L232.461 155.611L232.836 157.135L231.797 157.666L228.688 149.049H230.266Z" fill="#686868"/>
<g clip-path="url(#clip2_17087_12996)">
<rect width="156" height="117" transform="translate(0 266.502)" fill="#E3E3E3"/>
</g>
<path d="M180.188 286.885H181.688C181.609 287.604 181.404 288.247 181.07 288.815C180.737 289.383 180.266 289.833 179.656 290.166C179.047 290.495 178.286 290.659 177.375 290.659C176.708 290.659 176.102 290.534 175.555 290.284C175.013 290.034 174.547 289.679 174.156 289.221C173.766 288.758 173.464 288.203 173.25 287.557C173.042 286.906 172.938 286.182 172.938 285.385V284.252C172.938 283.455 173.042 282.734 173.25 282.088C173.464 281.437 173.768 280.88 174.164 280.416C174.565 279.953 175.047 279.596 175.609 279.346C176.172 279.096 176.805 278.971 177.508 278.971C178.367 278.971 179.094 279.133 179.688 279.455C180.281 279.778 180.742 280.226 181.07 280.799C181.404 281.367 181.609 282.026 181.688 282.776H180.188C180.115 282.245 179.979 281.789 179.781 281.409C179.583 281.023 179.302 280.726 178.938 280.518C178.573 280.31 178.096 280.205 177.508 280.205C177.003 280.205 176.557 280.302 176.172 280.495C175.792 280.687 175.471 280.961 175.211 281.315C174.956 281.669 174.763 282.093 174.633 282.588C174.503 283.083 174.438 283.633 174.438 284.237V285.385C174.438 285.942 174.495 286.466 174.609 286.955C174.729 287.445 174.909 287.875 175.148 288.245C175.388 288.614 175.693 288.906 176.062 289.12C176.432 289.328 176.87 289.432 177.375 289.432C178.016 289.432 178.526 289.33 178.906 289.127C179.286 288.924 179.573 288.633 179.766 288.252C179.964 287.872 180.104 287.416 180.188 286.885ZM188.508 289.057V284.705C188.508 284.372 188.44 284.083 188.305 283.838C188.174 283.588 187.977 283.396 187.711 283.26C187.445 283.125 187.117 283.057 186.727 283.057C186.362 283.057 186.042 283.12 185.766 283.245C185.495 283.37 185.281 283.534 185.125 283.737C184.974 283.94 184.898 284.159 184.898 284.393H183.453C183.453 284.091 183.531 283.791 183.688 283.495C183.844 283.198 184.068 282.929 184.359 282.69C184.656 282.445 185.01 282.252 185.422 282.112C185.839 281.966 186.302 281.893 186.812 281.893C187.427 281.893 187.969 281.997 188.438 282.205C188.911 282.414 189.281 282.729 189.547 283.151C189.818 283.567 189.953 284.091 189.953 284.721V288.659C189.953 288.94 189.977 289.239 190.023 289.557C190.076 289.875 190.151 290.148 190.25 290.377V290.502H188.742C188.669 290.336 188.612 290.114 188.57 289.838C188.529 289.557 188.508 289.297 188.508 289.057ZM188.758 285.377L188.773 286.393H187.312C186.901 286.393 186.534 286.427 186.211 286.495C185.888 286.557 185.617 286.653 185.398 286.784C185.18 286.914 185.013 287.078 184.898 287.276C184.784 287.468 184.727 287.695 184.727 287.955C184.727 288.221 184.786 288.463 184.906 288.682C185.026 288.901 185.206 289.075 185.445 289.205C185.69 289.33 185.99 289.393 186.344 289.393C186.786 289.393 187.177 289.299 187.516 289.112C187.854 288.924 188.122 288.695 188.32 288.424C188.523 288.153 188.633 287.89 188.648 287.635L189.266 288.33C189.229 288.549 189.13 288.791 188.969 289.057C188.807 289.323 188.591 289.578 188.32 289.823C188.055 290.062 187.737 290.263 187.367 290.424C187.003 290.58 186.591 290.659 186.133 290.659C185.56 290.659 185.057 290.547 184.625 290.323C184.198 290.099 183.865 289.799 183.625 289.424C183.391 289.044 183.273 288.62 183.273 288.151C183.273 287.698 183.362 287.299 183.539 286.955C183.716 286.606 183.971 286.317 184.305 286.088C184.638 285.854 185.039 285.677 185.508 285.557C185.977 285.437 186.5 285.377 187.078 285.377H188.758ZM195.766 282.049V283.159H191.195V282.049H195.766ZM192.742 279.995H194.188V288.409C194.188 288.695 194.232 288.911 194.32 289.057C194.409 289.203 194.523 289.299 194.664 289.346C194.805 289.393 194.956 289.416 195.117 289.416C195.237 289.416 195.362 289.406 195.492 289.385C195.628 289.359 195.729 289.338 195.797 289.323L195.805 290.502C195.69 290.539 195.539 290.573 195.352 290.604C195.169 290.64 194.948 290.659 194.688 290.659C194.333 290.659 194.008 290.588 193.711 290.448C193.414 290.307 193.177 290.073 193 289.745C192.828 289.411 192.742 288.963 192.742 288.401V279.995ZM200.969 290.659C200.38 290.659 199.846 290.56 199.367 290.362C198.893 290.159 198.484 289.875 198.141 289.51C197.802 289.146 197.542 288.713 197.359 288.213C197.177 287.713 197.086 287.166 197.086 286.573V286.245C197.086 285.557 197.188 284.945 197.391 284.409C197.594 283.867 197.87 283.409 198.219 283.034C198.568 282.659 198.964 282.375 199.406 282.182C199.849 281.989 200.307 281.893 200.781 281.893C201.385 281.893 201.906 281.997 202.344 282.205C202.786 282.414 203.148 282.705 203.43 283.08C203.711 283.45 203.919 283.888 204.055 284.393C204.19 284.893 204.258 285.44 204.258 286.034V286.682H197.945V285.502H202.812V285.393C202.792 285.018 202.714 284.653 202.578 284.299C202.448 283.945 202.24 283.653 201.953 283.424C201.667 283.195 201.276 283.08 200.781 283.08C200.453 283.08 200.151 283.151 199.875 283.291C199.599 283.427 199.362 283.63 199.164 283.901C198.966 284.172 198.812 284.502 198.703 284.893C198.594 285.284 198.539 285.734 198.539 286.245V286.573C198.539 286.974 198.594 287.351 198.703 287.705C198.818 288.054 198.982 288.362 199.195 288.627C199.414 288.893 199.677 289.101 199.984 289.252C200.297 289.403 200.651 289.479 201.047 289.479C201.557 289.479 201.99 289.375 202.344 289.166C202.698 288.958 203.008 288.679 203.273 288.33L204.148 289.026C203.966 289.302 203.734 289.565 203.453 289.815C203.172 290.065 202.826 290.268 202.414 290.424C202.008 290.58 201.526 290.659 200.969 290.659ZM211.422 282.049H212.734V290.323C212.734 291.067 212.583 291.703 212.281 292.229C211.979 292.755 211.557 293.153 211.016 293.424C210.479 293.7 209.859 293.838 209.156 293.838C208.865 293.838 208.521 293.791 208.125 293.698C207.734 293.609 207.349 293.455 206.969 293.237C206.594 293.023 206.279 292.734 206.023 292.37L206.781 291.51C207.135 291.937 207.505 292.234 207.891 292.401C208.281 292.567 208.667 292.651 209.047 292.651C209.505 292.651 209.901 292.565 210.234 292.393C210.568 292.221 210.826 291.966 211.008 291.627C211.195 291.294 211.289 290.883 211.289 290.393V283.909L211.422 282.049ZM205.602 286.37V286.205C205.602 285.56 205.677 284.974 205.828 284.448C205.984 283.916 206.206 283.461 206.492 283.08C206.784 282.7 207.135 282.409 207.547 282.205C207.958 281.997 208.422 281.893 208.938 281.893C209.469 281.893 209.932 281.987 210.328 282.174C210.729 282.356 211.068 282.625 211.344 282.979C211.625 283.328 211.846 283.75 212.008 284.245C212.169 284.739 212.281 285.299 212.344 285.924V286.643C212.286 287.263 212.174 287.82 212.008 288.315C211.846 288.81 211.625 289.231 211.344 289.58C211.068 289.929 210.729 290.198 210.328 290.385C209.927 290.567 209.458 290.659 208.922 290.659C208.417 290.659 207.958 290.552 207.547 290.338C207.141 290.125 206.792 289.825 206.5 289.44C206.208 289.054 205.984 288.601 205.828 288.08C205.677 287.554 205.602 286.984 205.602 286.37ZM207.047 286.205V286.37C207.047 286.791 207.089 287.187 207.172 287.557C207.26 287.927 207.393 288.252 207.57 288.534C207.753 288.815 207.984 289.036 208.266 289.198C208.547 289.354 208.883 289.432 209.273 289.432C209.753 289.432 210.148 289.33 210.461 289.127C210.773 288.924 211.021 288.656 211.203 288.323C211.391 287.989 211.536 287.627 211.641 287.237V285.354C211.583 285.067 211.495 284.791 211.375 284.526C211.26 284.255 211.109 284.015 210.922 283.807C210.74 283.593 210.513 283.424 210.242 283.299C209.971 283.174 209.654 283.112 209.289 283.112C208.893 283.112 208.552 283.195 208.266 283.362C207.984 283.523 207.753 283.747 207.57 284.034C207.393 284.315 207.26 284.643 207.172 285.018C207.089 285.388 207.047 285.784 207.047 286.205ZM214.547 286.37V286.19C214.547 285.58 214.635 285.015 214.812 284.495C214.99 283.968 215.245 283.513 215.578 283.127C215.911 282.737 216.315 282.435 216.789 282.221C217.263 282.002 217.794 281.893 218.383 281.893C218.977 281.893 219.51 282.002 219.984 282.221C220.464 282.435 220.87 282.737 221.203 283.127C221.542 283.513 221.799 283.968 221.977 284.495C222.154 285.015 222.242 285.58 222.242 286.19V286.37C222.242 286.979 222.154 287.544 221.977 288.065C221.799 288.586 221.542 289.041 221.203 289.432C220.87 289.817 220.466 290.12 219.992 290.338C219.523 290.552 218.992 290.659 218.398 290.659C217.805 290.659 217.271 290.552 216.797 290.338C216.323 290.12 215.917 289.817 215.578 289.432C215.245 289.041 214.99 288.586 214.812 288.065C214.635 287.544 214.547 286.979 214.547 286.37ZM215.992 286.19V286.37C215.992 286.791 216.042 287.19 216.141 287.565C216.24 287.935 216.388 288.263 216.586 288.549C216.789 288.836 217.042 289.062 217.344 289.229C217.646 289.39 217.997 289.471 218.398 289.471C218.794 289.471 219.141 289.39 219.438 289.229C219.74 289.062 219.99 288.836 220.188 288.549C220.385 288.263 220.534 287.935 220.633 287.565C220.737 287.19 220.789 286.791 220.789 286.37V286.19C220.789 285.773 220.737 285.38 220.633 285.01C220.534 284.635 220.383 284.304 220.18 284.018C219.982 283.726 219.732 283.497 219.43 283.33C219.133 283.164 218.784 283.08 218.383 283.08C217.987 283.08 217.638 283.164 217.336 283.33C217.039 283.497 216.789 283.726 216.586 284.018C216.388 284.304 216.24 284.635 216.141 285.01C216.042 285.38 215.992 285.773 215.992 286.19ZM225.5 283.377V290.502H224.055V282.049H225.461L225.5 283.377ZM228.141 282.002L228.133 283.346C228.013 283.32 227.898 283.304 227.789 283.299C227.685 283.289 227.565 283.284 227.43 283.284C227.096 283.284 226.802 283.336 226.547 283.44C226.292 283.544 226.076 283.69 225.898 283.877C225.721 284.065 225.581 284.289 225.477 284.549C225.378 284.804 225.312 285.086 225.281 285.393L224.875 285.627C224.875 285.117 224.924 284.638 225.023 284.19C225.128 283.742 225.286 283.346 225.5 283.002C225.714 282.653 225.984 282.383 226.312 282.19C226.646 281.992 227.042 281.893 227.5 281.893C227.604 281.893 227.724 281.906 227.859 281.932C227.995 281.953 228.089 281.976 228.141 282.002ZM231.992 289.627L234.344 282.049H235.891L232.5 291.807C232.422 292.015 232.318 292.239 232.188 292.479C232.062 292.724 231.901 292.955 231.703 293.174C231.505 293.393 231.266 293.57 230.984 293.705C230.708 293.846 230.378 293.916 229.992 293.916C229.878 293.916 229.732 293.901 229.555 293.87C229.378 293.838 229.253 293.812 229.18 293.791L229.172 292.62C229.214 292.625 229.279 292.63 229.367 292.635C229.461 292.646 229.526 292.651 229.562 292.651C229.891 292.651 230.169 292.606 230.398 292.518C230.628 292.435 230.82 292.291 230.977 292.088C231.138 291.89 231.276 291.617 231.391 291.268L231.992 289.627ZM230.266 282.049L232.461 288.612L232.836 290.135L231.797 290.666L228.688 282.049H230.266Z" fill="#686868"/>
<defs>
<clipPath id="clip0_17087_12996">
<rect width="156" height="117" fill="white" transform="translate(0 0.501953)"/>
</clipPath>
<clipPath id="clip1_17087_12996">
<rect width="156" height="117" fill="white" transform="translate(0 133.502)"/>
</clipPath>
<clipPath id="clip2_17087_12996">
<rect width="156" height="117" fill="white" transform="translate(0 266.502)"/>
</clipPath>
</defs>
</svg>
