<svg width="1296" height="220" viewBox="0 0 1296 220" fill="none" xmlns="http://www.w3.org/2000/svg">
<g clip-path="url(#clip0_17087_12988)">
<rect width="240" height="180" fill="#E3E3E3"/>
</g>
<path d="M89.7344 210.479H91.6094C91.5117 211.377 91.2546 212.181 90.8379 212.891C90.4212 213.6 89.832 214.164 89.0703 214.58C88.3086 214.99 87.3581 215.195 86.2188 215.195C85.3854 215.195 84.627 215.039 83.9434 214.727C83.2663 214.414 82.6836 213.972 82.1953 213.399C81.707 212.819 81.3294 212.126 81.0625 211.319C80.8021 210.505 80.6719 209.6 80.6719 208.604V207.188C80.6719 206.192 80.8021 205.29 81.0625 204.483C81.3294 203.669 81.7103 202.972 82.2051 202.393C82.7064 201.813 83.3086 201.367 84.0117 201.055C84.7148 200.742 85.5059 200.586 86.3848 200.586C87.459 200.586 88.3672 200.788 89.1094 201.192C89.8516 201.595 90.4277 202.155 90.8379 202.871C91.2546 203.581 91.5117 204.404 91.6094 205.342H89.7344C89.6432 204.678 89.474 204.108 89.2266 203.633C88.9792 203.151 88.6276 202.78 88.1719 202.52C87.7161 202.259 87.1204 202.129 86.3848 202.129C85.7533 202.129 85.1966 202.25 84.7148 202.49C84.2396 202.731 83.8392 203.073 83.5137 203.516C83.1947 203.959 82.9538 204.489 82.791 205.108C82.6283 205.726 82.5469 206.413 82.5469 207.168V208.604C82.5469 209.3 82.6185 209.955 82.7617 210.567C82.9115 211.179 83.1361 211.716 83.4355 212.178C83.735 212.64 84.1159 213.005 84.5781 213.272C85.0404 213.532 85.5872 213.662 86.2188 213.662C87.0195 213.662 87.6576 213.535 88.1328 213.281C88.6081 213.028 88.9661 212.663 89.207 212.188C89.4544 211.712 89.6302 211.143 89.7344 210.479ZM100.135 213.194V207.754C100.135 207.337 100.05 206.976 99.8809 206.67C99.7181 206.358 99.4707 206.117 99.1387 205.947C98.8066 205.778 98.3965 205.694 97.9082 205.694C97.4525 205.694 97.0521 205.772 96.707 205.928C96.3685 206.084 96.1016 206.289 95.9062 206.543C95.7174 206.797 95.623 207.07 95.623 207.363H93.8164C93.8164 206.986 93.9141 206.612 94.1094 206.24C94.3047 205.869 94.5846 205.534 94.9492 205.235C95.3203 204.929 95.763 204.688 96.2773 204.512C96.7982 204.33 97.3776 204.238 98.0156 204.238C98.7839 204.238 99.4609 204.369 100.047 204.629C100.639 204.89 101.102 205.283 101.434 205.811C101.772 206.332 101.941 206.986 101.941 207.774V212.695C101.941 213.047 101.971 213.421 102.029 213.819C102.094 214.216 102.189 214.557 102.312 214.844V215H100.428C100.337 214.792 100.265 214.515 100.213 214.17C100.161 213.819 100.135 213.493 100.135 213.194ZM100.447 208.594L100.467 209.863H98.6406C98.1263 209.863 97.6673 209.906 97.2637 209.99C96.86 210.069 96.5215 210.189 96.248 210.352C95.9746 210.515 95.7663 210.72 95.623 210.967C95.4798 211.208 95.4082 211.491 95.4082 211.817C95.4082 212.149 95.4831 212.451 95.6328 212.725C95.7826 212.998 96.0072 213.216 96.3066 213.379C96.6126 213.535 96.987 213.613 97.4297 213.613C97.9831 213.613 98.4714 213.496 98.8945 213.262C99.3177 213.028 99.653 212.741 99.9004 212.403C100.154 212.064 100.291 211.735 100.311 211.416L101.082 212.285C101.036 212.559 100.913 212.862 100.711 213.194C100.509 213.526 100.239 213.845 99.9004 214.151C99.5684 214.45 99.1712 214.701 98.709 214.903C98.2533 215.098 97.7389 215.195 97.166 215.195C96.4499 215.195 95.8216 215.056 95.2812 214.776C94.7474 214.496 94.3307 214.121 94.0312 213.653C93.7383 213.177 93.5918 212.647 93.5918 212.061C93.5918 211.494 93.7025 210.996 93.9238 210.567C94.1452 210.13 94.4642 209.769 94.8809 209.483C95.2975 209.19 95.7988 208.968 96.3848 208.819C96.9707 208.669 97.625 208.594 98.3477 208.594H100.447ZM109.207 204.434V205.82H103.494V204.434H109.207ZM105.428 201.865H107.234V212.383C107.234 212.741 107.29 213.011 107.4 213.194C107.511 213.376 107.654 213.496 107.83 213.555C108.006 213.613 108.195 213.643 108.396 213.643C108.546 213.643 108.702 213.63 108.865 213.604C109.035 213.571 109.161 213.545 109.246 213.526L109.256 215C109.113 215.046 108.924 215.088 108.689 215.127C108.462 215.173 108.185 215.195 107.859 215.195C107.417 215.195 107.01 215.108 106.639 214.932C106.268 214.756 105.971 214.463 105.75 214.053C105.535 213.636 105.428 213.076 105.428 212.373V201.865ZM115.711 215.195C114.975 215.195 114.308 215.072 113.709 214.824C113.117 214.57 112.605 214.216 112.176 213.76C111.753 213.304 111.427 212.764 111.199 212.139C110.971 211.514 110.857 210.83 110.857 210.088V209.678C110.857 208.819 110.984 208.054 111.238 207.383C111.492 206.706 111.837 206.133 112.273 205.664C112.71 205.195 113.204 204.841 113.758 204.6C114.311 204.359 114.884 204.238 115.477 204.238C116.232 204.238 116.883 204.369 117.43 204.629C117.983 204.89 118.436 205.254 118.787 205.723C119.139 206.185 119.399 206.732 119.568 207.363C119.738 207.988 119.822 208.672 119.822 209.414V210.225H111.932V208.75H118.016V208.613C117.99 208.145 117.892 207.689 117.723 207.246C117.56 206.804 117.299 206.439 116.941 206.153C116.583 205.866 116.095 205.723 115.477 205.723C115.066 205.723 114.689 205.811 114.344 205.987C113.999 206.156 113.702 206.41 113.455 206.748C113.208 207.087 113.016 207.5 112.879 207.988C112.742 208.477 112.674 209.04 112.674 209.678V210.088C112.674 210.589 112.742 211.061 112.879 211.504C113.022 211.94 113.227 212.324 113.494 212.656C113.768 212.988 114.096 213.249 114.48 213.438C114.871 213.626 115.314 213.721 115.809 213.721C116.447 213.721 116.987 213.591 117.43 213.33C117.872 213.07 118.26 212.722 118.592 212.285L119.686 213.154C119.458 213.5 119.168 213.828 118.816 214.141C118.465 214.453 118.032 214.707 117.518 214.903C117.01 215.098 116.408 215.195 115.711 215.195ZM128.777 204.434H130.418V214.776C130.418 215.707 130.229 216.501 129.852 217.158C129.474 217.816 128.947 218.314 128.27 218.653C127.599 218.998 126.824 219.17 125.945 219.17C125.581 219.17 125.151 219.112 124.656 218.994C124.168 218.884 123.686 218.692 123.211 218.418C122.742 218.151 122.348 217.79 122.029 217.334L122.977 216.26C123.419 216.794 123.882 217.165 124.363 217.373C124.852 217.582 125.333 217.686 125.809 217.686C126.382 217.686 126.876 217.578 127.293 217.363C127.71 217.149 128.032 216.83 128.26 216.406C128.494 215.99 128.611 215.475 128.611 214.863V206.758L128.777 204.434ZM121.502 209.834V209.629C121.502 208.822 121.596 208.089 121.785 207.432C121.98 206.768 122.257 206.198 122.615 205.723C122.98 205.248 123.419 204.883 123.934 204.629C124.448 204.369 125.027 204.238 125.672 204.238C126.336 204.238 126.915 204.356 127.41 204.59C127.911 204.818 128.335 205.153 128.68 205.596C129.031 206.032 129.308 206.559 129.51 207.178C129.712 207.796 129.852 208.496 129.93 209.278V210.176C129.858 210.951 129.718 211.647 129.51 212.266C129.308 212.884 129.031 213.412 128.68 213.848C128.335 214.284 127.911 214.619 127.41 214.854C126.909 215.082 126.323 215.195 125.652 215.195C125.021 215.195 124.448 215.062 123.934 214.795C123.426 214.528 122.99 214.154 122.625 213.672C122.26 213.19 121.98 212.624 121.785 211.973C121.596 211.315 121.502 210.602 121.502 209.834ZM123.309 209.629V209.834C123.309 210.362 123.361 210.856 123.465 211.319C123.576 211.781 123.742 212.188 123.963 212.539C124.191 212.891 124.48 213.168 124.832 213.369C125.184 213.565 125.604 213.662 126.092 213.662C126.691 213.662 127.186 213.535 127.576 213.281C127.967 213.028 128.276 212.692 128.504 212.276C128.738 211.859 128.921 211.406 129.051 210.918V208.565C128.979 208.207 128.868 207.862 128.719 207.529C128.576 207.191 128.387 206.891 128.152 206.631C127.924 206.364 127.641 206.153 127.303 205.996C126.964 205.84 126.567 205.762 126.111 205.762C125.617 205.762 125.19 205.866 124.832 206.074C124.48 206.276 124.191 206.556 123.963 206.914C123.742 207.266 123.576 207.676 123.465 208.145C123.361 208.607 123.309 209.102 123.309 209.629ZM132.684 209.834V209.61C132.684 208.848 132.794 208.141 133.016 207.49C133.237 206.833 133.556 206.263 133.973 205.781C134.389 205.293 134.894 204.916 135.486 204.649C136.079 204.375 136.743 204.238 137.479 204.238C138.221 204.238 138.888 204.375 139.48 204.649C140.079 204.916 140.587 205.293 141.004 205.781C141.427 206.263 141.749 206.833 141.971 207.49C142.192 208.141 142.303 208.848 142.303 209.61V209.834C142.303 210.596 142.192 211.302 141.971 211.953C141.749 212.604 141.427 213.174 141.004 213.662C140.587 214.144 140.083 214.522 139.49 214.795C138.904 215.062 138.24 215.195 137.498 215.195C136.756 215.195 136.089 215.062 135.496 214.795C134.904 214.522 134.396 214.144 133.973 213.662C133.556 213.174 133.237 212.604 133.016 211.953C132.794 211.302 132.684 210.596 132.684 209.834ZM134.49 209.61V209.834C134.49 210.362 134.552 210.86 134.676 211.328C134.799 211.791 134.985 212.201 135.232 212.559C135.486 212.917 135.802 213.2 136.18 213.408C136.557 213.61 136.997 213.711 137.498 213.711C137.993 213.711 138.426 213.61 138.797 213.408C139.174 213.2 139.487 212.917 139.734 212.559C139.982 212.201 140.167 211.791 140.291 211.328C140.421 210.86 140.486 210.362 140.486 209.834V209.61C140.486 209.089 140.421 208.597 140.291 208.135C140.167 207.666 139.979 207.253 139.725 206.895C139.477 206.53 139.165 206.244 138.787 206.035C138.416 205.827 137.98 205.723 137.479 205.723C136.984 205.723 136.548 205.827 136.17 206.035C135.799 206.244 135.486 206.53 135.232 206.895C134.985 207.253 134.799 207.666 134.676 208.135C134.552 208.597 134.49 209.089 134.49 209.61ZM146.375 206.094V215H144.568V204.434H146.326L146.375 206.094ZM149.676 204.375L149.666 206.055C149.516 206.022 149.373 206.003 149.236 205.996C149.106 205.983 148.956 205.977 148.787 205.977C148.37 205.977 148.003 206.042 147.684 206.172C147.365 206.302 147.094 206.485 146.873 206.719C146.652 206.953 146.476 207.233 146.346 207.559C146.222 207.878 146.141 208.229 146.102 208.613L145.594 208.906C145.594 208.268 145.656 207.669 145.779 207.11C145.91 206.55 146.108 206.055 146.375 205.625C146.642 205.189 146.98 204.85 147.391 204.61C147.807 204.362 148.302 204.238 148.875 204.238C149.005 204.238 149.155 204.255 149.324 204.287C149.493 204.313 149.611 204.343 149.676 204.375ZM154.49 213.906L157.43 204.434H159.363L155.125 216.631C155.027 216.891 154.897 217.171 154.734 217.471C154.578 217.777 154.376 218.067 154.129 218.34C153.882 218.613 153.582 218.835 153.23 219.004C152.885 219.18 152.472 219.268 151.99 219.268C151.847 219.268 151.665 219.248 151.443 219.209C151.222 219.17 151.066 219.138 150.975 219.112L150.965 217.647C151.017 217.653 151.098 217.66 151.209 217.666C151.326 217.679 151.408 217.686 151.453 217.686C151.863 217.686 152.212 217.63 152.498 217.52C152.785 217.416 153.025 217.237 153.221 216.983C153.423 216.735 153.595 216.393 153.738 215.957L154.49 213.906ZM152.332 204.434L155.076 212.637L155.545 214.541L154.246 215.205L150.359 204.434H152.332Z" fill="#686868"/>
<g clip-path="url(#clip1_17087_12988)">
<rect width="240" height="180" transform="translate(264)" fill="#E3E3E3"/>
</g>
<path d="M353.734 210.479H355.609C355.512 211.377 355.255 212.181 354.838 212.891C354.421 213.6 353.832 214.164 353.07 214.58C352.309 214.99 351.358 215.195 350.219 215.195C349.385 215.195 348.627 215.039 347.943 214.727C347.266 214.414 346.684 213.972 346.195 213.399C345.707 212.819 345.329 212.126 345.062 211.319C344.802 210.505 344.672 209.6 344.672 208.604V207.188C344.672 206.192 344.802 205.29 345.062 204.483C345.329 203.669 345.71 202.972 346.205 202.393C346.706 201.813 347.309 201.367 348.012 201.055C348.715 200.742 349.506 200.586 350.385 200.586C351.459 200.586 352.367 200.788 353.109 201.192C353.852 201.595 354.428 202.155 354.838 202.871C355.255 203.581 355.512 204.404 355.609 205.342H353.734C353.643 204.678 353.474 204.108 353.227 203.633C352.979 203.151 352.628 202.78 352.172 202.52C351.716 202.259 351.12 202.129 350.385 202.129C349.753 202.129 349.197 202.25 348.715 202.49C348.24 202.731 347.839 203.073 347.514 203.516C347.195 203.959 346.954 204.489 346.791 205.108C346.628 205.726 346.547 206.413 346.547 207.168V208.604C346.547 209.3 346.618 209.955 346.762 210.567C346.911 211.179 347.136 211.716 347.436 212.178C347.735 212.64 348.116 213.005 348.578 213.272C349.04 213.532 349.587 213.662 350.219 213.662C351.02 213.662 351.658 213.535 352.133 213.281C352.608 213.028 352.966 212.663 353.207 212.188C353.454 211.712 353.63 211.143 353.734 210.479ZM364.135 213.194V207.754C364.135 207.337 364.05 206.976 363.881 206.67C363.718 206.358 363.471 206.117 363.139 205.947C362.807 205.778 362.396 205.694 361.908 205.694C361.452 205.694 361.052 205.772 360.707 205.928C360.368 206.084 360.102 206.289 359.906 206.543C359.717 206.797 359.623 207.07 359.623 207.363H357.816C357.816 206.986 357.914 206.612 358.109 206.24C358.305 205.869 358.585 205.534 358.949 205.235C359.32 204.929 359.763 204.688 360.277 204.512C360.798 204.33 361.378 204.238 362.016 204.238C362.784 204.238 363.461 204.369 364.047 204.629C364.639 204.89 365.102 205.283 365.434 205.811C365.772 206.332 365.941 206.986 365.941 207.774V212.695C365.941 213.047 365.971 213.421 366.029 213.819C366.094 214.216 366.189 214.557 366.312 214.844V215H364.428C364.337 214.792 364.265 214.515 364.213 214.17C364.161 213.819 364.135 213.493 364.135 213.194ZM364.447 208.594L364.467 209.863H362.641C362.126 209.863 361.667 209.906 361.264 209.99C360.86 210.069 360.521 210.189 360.248 210.352C359.975 210.515 359.766 210.72 359.623 210.967C359.48 211.208 359.408 211.491 359.408 211.817C359.408 212.149 359.483 212.451 359.633 212.725C359.783 212.998 360.007 213.216 360.307 213.379C360.613 213.535 360.987 213.613 361.43 213.613C361.983 213.613 362.471 213.496 362.895 213.262C363.318 213.028 363.653 212.741 363.9 212.403C364.154 212.064 364.291 211.735 364.311 211.416L365.082 212.285C365.036 212.559 364.913 212.862 364.711 213.194C364.509 213.526 364.239 213.845 363.9 214.151C363.568 214.45 363.171 214.701 362.709 214.903C362.253 215.098 361.739 215.195 361.166 215.195C360.45 215.195 359.822 215.056 359.281 214.776C358.747 214.496 358.331 214.121 358.031 213.653C357.738 213.177 357.592 212.647 357.592 212.061C357.592 211.494 357.702 210.996 357.924 210.567C358.145 210.13 358.464 209.769 358.881 209.483C359.298 209.19 359.799 208.968 360.385 208.819C360.971 208.669 361.625 208.594 362.348 208.594H364.447ZM373.207 204.434V205.82H367.494V204.434H373.207ZM369.428 201.865H371.234V212.383C371.234 212.741 371.29 213.011 371.4 213.194C371.511 213.376 371.654 213.496 371.83 213.555C372.006 213.613 372.195 213.643 372.396 213.643C372.546 213.643 372.702 213.63 372.865 213.604C373.035 213.571 373.161 213.545 373.246 213.526L373.256 215C373.113 215.046 372.924 215.088 372.689 215.127C372.462 215.173 372.185 215.195 371.859 215.195C371.417 215.195 371.01 215.108 370.639 214.932C370.268 214.756 369.971 214.463 369.75 214.053C369.535 213.636 369.428 213.076 369.428 212.373V201.865ZM379.711 215.195C378.975 215.195 378.308 215.072 377.709 214.824C377.117 214.57 376.605 214.216 376.176 213.76C375.753 213.304 375.427 212.764 375.199 212.139C374.971 211.514 374.857 210.83 374.857 210.088V209.678C374.857 208.819 374.984 208.054 375.238 207.383C375.492 206.706 375.837 206.133 376.273 205.664C376.71 205.195 377.204 204.841 377.758 204.6C378.311 204.359 378.884 204.238 379.477 204.238C380.232 204.238 380.883 204.369 381.43 204.629C381.983 204.89 382.436 205.254 382.787 205.723C383.139 206.185 383.399 206.732 383.568 207.363C383.738 207.988 383.822 208.672 383.822 209.414V210.225H375.932V208.75H382.016V208.613C381.99 208.145 381.892 207.689 381.723 207.246C381.56 206.804 381.299 206.439 380.941 206.153C380.583 205.866 380.095 205.723 379.477 205.723C379.066 205.723 378.689 205.811 378.344 205.987C377.999 206.156 377.702 206.41 377.455 206.748C377.208 207.087 377.016 207.5 376.879 207.988C376.742 208.477 376.674 209.04 376.674 209.678V210.088C376.674 210.589 376.742 211.061 376.879 211.504C377.022 211.94 377.227 212.324 377.494 212.656C377.768 212.988 378.096 213.249 378.48 213.438C378.871 213.626 379.314 213.721 379.809 213.721C380.447 213.721 380.987 213.591 381.43 213.33C381.872 213.07 382.26 212.722 382.592 212.285L383.686 213.154C383.458 213.5 383.168 213.828 382.816 214.141C382.465 214.453 382.032 214.707 381.518 214.903C381.01 215.098 380.408 215.195 379.711 215.195ZM392.777 204.434H394.418V214.776C394.418 215.707 394.229 216.501 393.852 217.158C393.474 217.816 392.947 218.314 392.27 218.653C391.599 218.998 390.824 219.17 389.945 219.17C389.581 219.17 389.151 219.112 388.656 218.994C388.168 218.884 387.686 218.692 387.211 218.418C386.742 218.151 386.348 217.79 386.029 217.334L386.977 216.26C387.419 216.794 387.882 217.165 388.363 217.373C388.852 217.582 389.333 217.686 389.809 217.686C390.382 217.686 390.876 217.578 391.293 217.363C391.71 217.149 392.032 216.83 392.26 216.406C392.494 215.99 392.611 215.475 392.611 214.863V206.758L392.777 204.434ZM385.502 209.834V209.629C385.502 208.822 385.596 208.089 385.785 207.432C385.98 206.768 386.257 206.198 386.615 205.723C386.98 205.248 387.419 204.883 387.934 204.629C388.448 204.369 389.027 204.238 389.672 204.238C390.336 204.238 390.915 204.356 391.41 204.59C391.911 204.818 392.335 205.153 392.68 205.596C393.031 206.032 393.308 206.559 393.51 207.178C393.712 207.796 393.852 208.496 393.93 209.278V210.176C393.858 210.951 393.718 211.647 393.51 212.266C393.308 212.884 393.031 213.412 392.68 213.848C392.335 214.284 391.911 214.619 391.41 214.854C390.909 215.082 390.323 215.195 389.652 215.195C389.021 215.195 388.448 215.062 387.934 214.795C387.426 214.528 386.99 214.154 386.625 213.672C386.26 213.19 385.98 212.624 385.785 211.973C385.596 211.315 385.502 210.602 385.502 209.834ZM387.309 209.629V209.834C387.309 210.362 387.361 210.856 387.465 211.319C387.576 211.781 387.742 212.188 387.963 212.539C388.191 212.891 388.48 213.168 388.832 213.369C389.184 213.565 389.604 213.662 390.092 213.662C390.691 213.662 391.186 213.535 391.576 213.281C391.967 213.028 392.276 212.692 392.504 212.276C392.738 211.859 392.921 211.406 393.051 210.918V208.565C392.979 208.207 392.868 207.862 392.719 207.529C392.576 207.191 392.387 206.891 392.152 206.631C391.924 206.364 391.641 206.153 391.303 205.996C390.964 205.84 390.567 205.762 390.111 205.762C389.617 205.762 389.19 205.866 388.832 206.074C388.48 206.276 388.191 206.556 387.963 206.914C387.742 207.266 387.576 207.676 387.465 208.145C387.361 208.607 387.309 209.102 387.309 209.629ZM396.684 209.834V209.61C396.684 208.848 396.794 208.141 397.016 207.49C397.237 206.833 397.556 206.263 397.973 205.781C398.389 205.293 398.894 204.916 399.486 204.649C400.079 204.375 400.743 204.238 401.479 204.238C402.221 204.238 402.888 204.375 403.48 204.649C404.079 204.916 404.587 205.293 405.004 205.781C405.427 206.263 405.749 206.833 405.971 207.49C406.192 208.141 406.303 208.848 406.303 209.61V209.834C406.303 210.596 406.192 211.302 405.971 211.953C405.749 212.604 405.427 213.174 405.004 213.662C404.587 214.144 404.083 214.522 403.49 214.795C402.904 215.062 402.24 215.195 401.498 215.195C400.756 215.195 400.089 215.062 399.496 214.795C398.904 214.522 398.396 214.144 397.973 213.662C397.556 213.174 397.237 212.604 397.016 211.953C396.794 211.302 396.684 210.596 396.684 209.834ZM398.49 209.61V209.834C398.49 210.362 398.552 210.86 398.676 211.328C398.799 211.791 398.985 212.201 399.232 212.559C399.486 212.917 399.802 213.2 400.18 213.408C400.557 213.61 400.997 213.711 401.498 213.711C401.993 213.711 402.426 213.61 402.797 213.408C403.174 213.2 403.487 212.917 403.734 212.559C403.982 212.201 404.167 211.791 404.291 211.328C404.421 210.86 404.486 210.362 404.486 209.834V209.61C404.486 209.089 404.421 208.597 404.291 208.135C404.167 207.666 403.979 207.253 403.725 206.895C403.477 206.53 403.165 206.244 402.787 206.035C402.416 205.827 401.98 205.723 401.479 205.723C400.984 205.723 400.548 205.827 400.17 206.035C399.799 206.244 399.486 206.53 399.232 206.895C398.985 207.253 398.799 207.666 398.676 208.135C398.552 208.597 398.49 209.089 398.49 209.61ZM410.375 206.094V215H408.568V204.434H410.326L410.375 206.094ZM413.676 204.375L413.666 206.055C413.516 206.022 413.373 206.003 413.236 205.996C413.106 205.983 412.956 205.977 412.787 205.977C412.37 205.977 412.003 206.042 411.684 206.172C411.365 206.302 411.094 206.485 410.873 206.719C410.652 206.953 410.476 207.233 410.346 207.559C410.222 207.878 410.141 208.229 410.102 208.613L409.594 208.906C409.594 208.268 409.656 207.669 409.779 207.11C409.91 206.55 410.108 206.055 410.375 205.625C410.642 205.189 410.98 204.85 411.391 204.61C411.807 204.362 412.302 204.238 412.875 204.238C413.005 204.238 413.155 204.255 413.324 204.287C413.493 204.313 413.611 204.343 413.676 204.375ZM418.49 213.906L421.43 204.434H423.363L419.125 216.631C419.027 216.891 418.897 217.171 418.734 217.471C418.578 217.777 418.376 218.067 418.129 218.34C417.882 218.613 417.582 218.835 417.23 219.004C416.885 219.18 416.472 219.268 415.99 219.268C415.847 219.268 415.665 219.248 415.443 219.209C415.222 219.17 415.066 219.138 414.975 219.112L414.965 217.647C415.017 217.653 415.098 217.66 415.209 217.666C415.326 217.679 415.408 217.686 415.453 217.686C415.863 217.686 416.212 217.63 416.498 217.52C416.785 217.416 417.025 217.237 417.221 216.983C417.423 216.735 417.595 216.393 417.738 215.957L418.49 213.906ZM416.332 204.434L419.076 212.637L419.545 214.541L418.246 215.205L414.359 204.434H416.332Z" fill="#686868"/>
<g clip-path="url(#clip2_17087_12988)">
<rect width="240" height="180" transform="translate(528)" fill="#E3E3E3"/>
</g>
<path d="M617.734 210.479H619.609C619.512 211.377 619.255 212.181 618.838 212.891C618.421 213.6 617.832 214.164 617.07 214.58C616.309 214.99 615.358 215.195 614.219 215.195C613.385 215.195 612.627 215.039 611.943 214.727C611.266 214.414 610.684 213.972 610.195 213.399C609.707 212.819 609.329 212.126 609.062 211.319C608.802 210.505 608.672 209.6 608.672 208.604V207.188C608.672 206.192 608.802 205.29 609.062 204.483C609.329 203.669 609.71 202.972 610.205 202.393C610.706 201.813 611.309 201.367 612.012 201.055C612.715 200.742 613.506 200.586 614.385 200.586C615.459 200.586 616.367 200.788 617.109 201.192C617.852 201.595 618.428 202.155 618.838 202.871C619.255 203.581 619.512 204.404 619.609 205.342H617.734C617.643 204.678 617.474 204.108 617.227 203.633C616.979 203.151 616.628 202.78 616.172 202.52C615.716 202.259 615.12 202.129 614.385 202.129C613.753 202.129 613.197 202.25 612.715 202.49C612.24 202.731 611.839 203.073 611.514 203.516C611.195 203.959 610.954 204.489 610.791 205.108C610.628 205.726 610.547 206.413 610.547 207.168V208.604C610.547 209.3 610.618 209.955 610.762 210.567C610.911 211.179 611.136 211.716 611.436 212.178C611.735 212.64 612.116 213.005 612.578 213.272C613.04 213.532 613.587 213.662 614.219 213.662C615.02 213.662 615.658 213.535 616.133 213.281C616.608 213.028 616.966 212.663 617.207 212.188C617.454 211.712 617.63 211.143 617.734 210.479ZM628.135 213.194V207.754C628.135 207.337 628.05 206.976 627.881 206.67C627.718 206.358 627.471 206.117 627.139 205.947C626.807 205.778 626.396 205.694 625.908 205.694C625.452 205.694 625.052 205.772 624.707 205.928C624.368 206.084 624.102 206.289 623.906 206.543C623.717 206.797 623.623 207.07 623.623 207.363H621.816C621.816 206.986 621.914 206.612 622.109 206.24C622.305 205.869 622.585 205.534 622.949 205.235C623.32 204.929 623.763 204.688 624.277 204.512C624.798 204.33 625.378 204.238 626.016 204.238C626.784 204.238 627.461 204.369 628.047 204.629C628.639 204.89 629.102 205.283 629.434 205.811C629.772 206.332 629.941 206.986 629.941 207.774V212.695C629.941 213.047 629.971 213.421 630.029 213.819C630.094 214.216 630.189 214.557 630.312 214.844V215H628.428C628.337 214.792 628.265 214.515 628.213 214.17C628.161 213.819 628.135 213.493 628.135 213.194ZM628.447 208.594L628.467 209.863H626.641C626.126 209.863 625.667 209.906 625.264 209.99C624.86 210.069 624.521 210.189 624.248 210.352C623.975 210.515 623.766 210.72 623.623 210.967C623.48 211.208 623.408 211.491 623.408 211.817C623.408 212.149 623.483 212.451 623.633 212.725C623.783 212.998 624.007 213.216 624.307 213.379C624.613 213.535 624.987 213.613 625.43 213.613C625.983 213.613 626.471 213.496 626.895 213.262C627.318 213.028 627.653 212.741 627.9 212.403C628.154 212.064 628.291 211.735 628.311 211.416L629.082 212.285C629.036 212.559 628.913 212.862 628.711 213.194C628.509 213.526 628.239 213.845 627.9 214.151C627.568 214.45 627.171 214.701 626.709 214.903C626.253 215.098 625.739 215.195 625.166 215.195C624.45 215.195 623.822 215.056 623.281 214.776C622.747 214.496 622.331 214.121 622.031 213.653C621.738 213.177 621.592 212.647 621.592 212.061C621.592 211.494 621.702 210.996 621.924 210.567C622.145 210.13 622.464 209.769 622.881 209.483C623.298 209.19 623.799 208.968 624.385 208.819C624.971 208.669 625.625 208.594 626.348 208.594H628.447ZM637.207 204.434V205.82H631.494V204.434H637.207ZM633.428 201.865H635.234V212.383C635.234 212.741 635.29 213.011 635.4 213.194C635.511 213.376 635.654 213.496 635.83 213.555C636.006 213.613 636.195 213.643 636.396 213.643C636.546 213.643 636.702 213.63 636.865 213.604C637.035 213.571 637.161 213.545 637.246 213.526L637.256 215C637.113 215.046 636.924 215.088 636.689 215.127C636.462 215.173 636.185 215.195 635.859 215.195C635.417 215.195 635.01 215.108 634.639 214.932C634.268 214.756 633.971 214.463 633.75 214.053C633.535 213.636 633.428 213.076 633.428 212.373V201.865ZM643.711 215.195C642.975 215.195 642.308 215.072 641.709 214.824C641.117 214.57 640.605 214.216 640.176 213.76C639.753 213.304 639.427 212.764 639.199 212.139C638.971 211.514 638.857 210.83 638.857 210.088V209.678C638.857 208.819 638.984 208.054 639.238 207.383C639.492 206.706 639.837 206.133 640.273 205.664C640.71 205.195 641.204 204.841 641.758 204.6C642.311 204.359 642.884 204.238 643.477 204.238C644.232 204.238 644.883 204.369 645.43 204.629C645.983 204.89 646.436 205.254 646.787 205.723C647.139 206.185 647.399 206.732 647.568 207.363C647.738 207.988 647.822 208.672 647.822 209.414V210.225H639.932V208.75H646.016V208.613C645.99 208.145 645.892 207.689 645.723 207.246C645.56 206.804 645.299 206.439 644.941 206.153C644.583 205.866 644.095 205.723 643.477 205.723C643.066 205.723 642.689 205.811 642.344 205.987C641.999 206.156 641.702 206.41 641.455 206.748C641.208 207.087 641.016 207.5 640.879 207.988C640.742 208.477 640.674 209.04 640.674 209.678V210.088C640.674 210.589 640.742 211.061 640.879 211.504C641.022 211.94 641.227 212.324 641.494 212.656C641.768 212.988 642.096 213.249 642.48 213.438C642.871 213.626 643.314 213.721 643.809 213.721C644.447 213.721 644.987 213.591 645.43 213.33C645.872 213.07 646.26 212.722 646.592 212.285L647.686 213.154C647.458 213.5 647.168 213.828 646.816 214.141C646.465 214.453 646.032 214.707 645.518 214.903C645.01 215.098 644.408 215.195 643.711 215.195ZM656.777 204.434H658.418V214.776C658.418 215.707 658.229 216.501 657.852 217.158C657.474 217.816 656.947 218.314 656.27 218.653C655.599 218.998 654.824 219.17 653.945 219.17C653.581 219.17 653.151 219.112 652.656 218.994C652.168 218.884 651.686 218.692 651.211 218.418C650.742 218.151 650.348 217.79 650.029 217.334L650.977 216.26C651.419 216.794 651.882 217.165 652.363 217.373C652.852 217.582 653.333 217.686 653.809 217.686C654.382 217.686 654.876 217.578 655.293 217.363C655.71 217.149 656.032 216.83 656.26 216.406C656.494 215.99 656.611 215.475 656.611 214.863V206.758L656.777 204.434ZM649.502 209.834V209.629C649.502 208.822 649.596 208.089 649.785 207.432C649.98 206.768 650.257 206.198 650.615 205.723C650.98 205.248 651.419 204.883 651.934 204.629C652.448 204.369 653.027 204.238 653.672 204.238C654.336 204.238 654.915 204.356 655.41 204.59C655.911 204.818 656.335 205.153 656.68 205.596C657.031 206.032 657.308 206.559 657.51 207.178C657.712 207.796 657.852 208.496 657.93 209.278V210.176C657.858 210.951 657.718 211.647 657.51 212.266C657.308 212.884 657.031 213.412 656.68 213.848C656.335 214.284 655.911 214.619 655.41 214.854C654.909 215.082 654.323 215.195 653.652 215.195C653.021 215.195 652.448 215.062 651.934 214.795C651.426 214.528 650.99 214.154 650.625 213.672C650.26 213.19 649.98 212.624 649.785 211.973C649.596 211.315 649.502 210.602 649.502 209.834ZM651.309 209.629V209.834C651.309 210.362 651.361 210.856 651.465 211.319C651.576 211.781 651.742 212.188 651.963 212.539C652.191 212.891 652.48 213.168 652.832 213.369C653.184 213.565 653.604 213.662 654.092 213.662C654.691 213.662 655.186 213.535 655.576 213.281C655.967 213.028 656.276 212.692 656.504 212.276C656.738 211.859 656.921 211.406 657.051 210.918V208.565C656.979 208.207 656.868 207.862 656.719 207.529C656.576 207.191 656.387 206.891 656.152 206.631C655.924 206.364 655.641 206.153 655.303 205.996C654.964 205.84 654.567 205.762 654.111 205.762C653.617 205.762 653.19 205.866 652.832 206.074C652.48 206.276 652.191 206.556 651.963 206.914C651.742 207.266 651.576 207.676 651.465 208.145C651.361 208.607 651.309 209.102 651.309 209.629ZM660.684 209.834V209.61C660.684 208.848 660.794 208.141 661.016 207.49C661.237 206.833 661.556 206.263 661.973 205.781C662.389 205.293 662.894 204.916 663.486 204.649C664.079 204.375 664.743 204.238 665.479 204.238C666.221 204.238 666.888 204.375 667.48 204.649C668.079 204.916 668.587 205.293 669.004 205.781C669.427 206.263 669.749 206.833 669.971 207.49C670.192 208.141 670.303 208.848 670.303 209.61V209.834C670.303 210.596 670.192 211.302 669.971 211.953C669.749 212.604 669.427 213.174 669.004 213.662C668.587 214.144 668.083 214.522 667.49 214.795C666.904 215.062 666.24 215.195 665.498 215.195C664.756 215.195 664.089 215.062 663.496 214.795C662.904 214.522 662.396 214.144 661.973 213.662C661.556 213.174 661.237 212.604 661.016 211.953C660.794 211.302 660.684 210.596 660.684 209.834ZM662.49 209.61V209.834C662.49 210.362 662.552 210.86 662.676 211.328C662.799 211.791 662.985 212.201 663.232 212.559C663.486 212.917 663.802 213.2 664.18 213.408C664.557 213.61 664.997 213.711 665.498 213.711C665.993 213.711 666.426 213.61 666.797 213.408C667.174 213.2 667.487 212.917 667.734 212.559C667.982 212.201 668.167 211.791 668.291 211.328C668.421 210.86 668.486 210.362 668.486 209.834V209.61C668.486 209.089 668.421 208.597 668.291 208.135C668.167 207.666 667.979 207.253 667.725 206.895C667.477 206.53 667.165 206.244 666.787 206.035C666.416 205.827 665.98 205.723 665.479 205.723C664.984 205.723 664.548 205.827 664.17 206.035C663.799 206.244 663.486 206.53 663.232 206.895C662.985 207.253 662.799 207.666 662.676 208.135C662.552 208.597 662.49 209.089 662.49 209.61ZM674.375 206.094V215H672.568V204.434H674.326L674.375 206.094ZM677.676 204.375L677.666 206.055C677.516 206.022 677.373 206.003 677.236 205.996C677.106 205.983 676.956 205.977 676.787 205.977C676.37 205.977 676.003 206.042 675.684 206.172C675.365 206.302 675.094 206.485 674.873 206.719C674.652 206.953 674.476 207.233 674.346 207.559C674.222 207.878 674.141 208.229 674.102 208.613L673.594 208.906C673.594 208.268 673.656 207.669 673.779 207.11C673.91 206.55 674.108 206.055 674.375 205.625C674.642 205.189 674.98 204.85 675.391 204.61C675.807 204.362 676.302 204.238 676.875 204.238C677.005 204.238 677.155 204.255 677.324 204.287C677.493 204.313 677.611 204.343 677.676 204.375ZM682.49 213.906L685.43 204.434H687.363L683.125 216.631C683.027 216.891 682.897 217.171 682.734 217.471C682.578 217.777 682.376 218.067 682.129 218.34C681.882 218.613 681.582 218.835 681.23 219.004C680.885 219.18 680.472 219.268 679.99 219.268C679.847 219.268 679.665 219.248 679.443 219.209C679.222 219.17 679.066 219.138 678.975 219.112L678.965 217.647C679.017 217.653 679.098 217.66 679.209 217.666C679.326 217.679 679.408 217.686 679.453 217.686C679.863 217.686 680.212 217.63 680.498 217.52C680.785 217.416 681.025 217.237 681.221 216.983C681.423 216.735 681.595 216.393 681.738 215.957L682.49 213.906ZM680.332 204.434L683.076 212.637L683.545 214.541L682.246 215.205L678.359 204.434H680.332Z" fill="#686868"/>
<g clip-path="url(#clip3_17087_12988)">
<rect width="240" height="180" transform="translate(792)" fill="#E3E3E3"/>
</g>
<path d="M881.734 210.479H883.609C883.512 211.377 883.255 212.181 882.838 212.891C882.421 213.6 881.832 214.164 881.07 214.58C880.309 214.99 879.358 215.195 878.219 215.195C877.385 215.195 876.627 215.039 875.943 214.727C875.266 214.414 874.684 213.972 874.195 213.399C873.707 212.819 873.329 212.126 873.062 211.319C872.802 210.505 872.672 209.6 872.672 208.604V207.188C872.672 206.192 872.802 205.29 873.062 204.483C873.329 203.669 873.71 202.972 874.205 202.393C874.706 201.813 875.309 201.367 876.012 201.055C876.715 200.742 877.506 200.586 878.385 200.586C879.459 200.586 880.367 200.788 881.109 201.192C881.852 201.595 882.428 202.155 882.838 202.871C883.255 203.581 883.512 204.404 883.609 205.342H881.734C881.643 204.678 881.474 204.108 881.227 203.633C880.979 203.151 880.628 202.78 880.172 202.52C879.716 202.259 879.12 202.129 878.385 202.129C877.753 202.129 877.197 202.25 876.715 202.49C876.24 202.731 875.839 203.073 875.514 203.516C875.195 203.959 874.954 204.489 874.791 205.108C874.628 205.726 874.547 206.413 874.547 207.168V208.604C874.547 209.3 874.618 209.955 874.762 210.567C874.911 211.179 875.136 211.716 875.436 212.178C875.735 212.64 876.116 213.005 876.578 213.272C877.04 213.532 877.587 213.662 878.219 213.662C879.02 213.662 879.658 213.535 880.133 213.281C880.608 213.028 880.966 212.663 881.207 212.188C881.454 211.712 881.63 211.143 881.734 210.479ZM892.135 213.194V207.754C892.135 207.337 892.05 206.976 891.881 206.67C891.718 206.358 891.471 206.117 891.139 205.947C890.807 205.778 890.396 205.694 889.908 205.694C889.452 205.694 889.052 205.772 888.707 205.928C888.368 206.084 888.102 206.289 887.906 206.543C887.717 206.797 887.623 207.07 887.623 207.363H885.816C885.816 206.986 885.914 206.612 886.109 206.24C886.305 205.869 886.585 205.534 886.949 205.235C887.32 204.929 887.763 204.688 888.277 204.512C888.798 204.33 889.378 204.238 890.016 204.238C890.784 204.238 891.461 204.369 892.047 204.629C892.639 204.89 893.102 205.283 893.434 205.811C893.772 206.332 893.941 206.986 893.941 207.774V212.695C893.941 213.047 893.971 213.421 894.029 213.819C894.094 214.216 894.189 214.557 894.312 214.844V215H892.428C892.337 214.792 892.265 214.515 892.213 214.17C892.161 213.819 892.135 213.493 892.135 213.194ZM892.447 208.594L892.467 209.863H890.641C890.126 209.863 889.667 209.906 889.264 209.99C888.86 210.069 888.521 210.189 888.248 210.352C887.975 210.515 887.766 210.72 887.623 210.967C887.48 211.208 887.408 211.491 887.408 211.817C887.408 212.149 887.483 212.451 887.633 212.725C887.783 212.998 888.007 213.216 888.307 213.379C888.613 213.535 888.987 213.613 889.43 213.613C889.983 213.613 890.471 213.496 890.895 213.262C891.318 213.028 891.653 212.741 891.9 212.403C892.154 212.064 892.291 211.735 892.311 211.416L893.082 212.285C893.036 212.559 892.913 212.862 892.711 213.194C892.509 213.526 892.239 213.845 891.9 214.151C891.568 214.45 891.171 214.701 890.709 214.903C890.253 215.098 889.739 215.195 889.166 215.195C888.45 215.195 887.822 215.056 887.281 214.776C886.747 214.496 886.331 214.121 886.031 213.653C885.738 213.177 885.592 212.647 885.592 212.061C885.592 211.494 885.702 210.996 885.924 210.567C886.145 210.13 886.464 209.769 886.881 209.483C887.298 209.19 887.799 208.968 888.385 208.819C888.971 208.669 889.625 208.594 890.348 208.594H892.447ZM901.207 204.434V205.82H895.494V204.434H901.207ZM897.428 201.865H899.234V212.383C899.234 212.741 899.29 213.011 899.4 213.194C899.511 213.376 899.654 213.496 899.83 213.555C900.006 213.613 900.195 213.643 900.396 213.643C900.546 213.643 900.702 213.63 900.865 213.604C901.035 213.571 901.161 213.545 901.246 213.526L901.256 215C901.113 215.046 900.924 215.088 900.689 215.127C900.462 215.173 900.185 215.195 899.859 215.195C899.417 215.195 899.01 215.108 898.639 214.932C898.268 214.756 897.971 214.463 897.75 214.053C897.535 213.636 897.428 213.076 897.428 212.373V201.865ZM907.711 215.195C906.975 215.195 906.308 215.072 905.709 214.824C905.117 214.57 904.605 214.216 904.176 213.76C903.753 213.304 903.427 212.764 903.199 212.139C902.971 211.514 902.857 210.83 902.857 210.088V209.678C902.857 208.819 902.984 208.054 903.238 207.383C903.492 206.706 903.837 206.133 904.273 205.664C904.71 205.195 905.204 204.841 905.758 204.6C906.311 204.359 906.884 204.238 907.477 204.238C908.232 204.238 908.883 204.369 909.43 204.629C909.983 204.89 910.436 205.254 910.787 205.723C911.139 206.185 911.399 206.732 911.568 207.363C911.738 207.988 911.822 208.672 911.822 209.414V210.225H903.932V208.75H910.016V208.613C909.99 208.145 909.892 207.689 909.723 207.246C909.56 206.804 909.299 206.439 908.941 206.153C908.583 205.866 908.095 205.723 907.477 205.723C907.066 205.723 906.689 205.811 906.344 205.987C905.999 206.156 905.702 206.41 905.455 206.748C905.208 207.087 905.016 207.5 904.879 207.988C904.742 208.477 904.674 209.04 904.674 209.678V210.088C904.674 210.589 904.742 211.061 904.879 211.504C905.022 211.94 905.227 212.324 905.494 212.656C905.768 212.988 906.096 213.249 906.48 213.438C906.871 213.626 907.314 213.721 907.809 213.721C908.447 213.721 908.987 213.591 909.43 213.33C909.872 213.07 910.26 212.722 910.592 212.285L911.686 213.154C911.458 213.5 911.168 213.828 910.816 214.141C910.465 214.453 910.032 214.707 909.518 214.903C909.01 215.098 908.408 215.195 907.711 215.195ZM920.777 204.434H922.418V214.776C922.418 215.707 922.229 216.501 921.852 217.158C921.474 217.816 920.947 218.314 920.27 218.653C919.599 218.998 918.824 219.17 917.945 219.17C917.581 219.17 917.151 219.112 916.656 218.994C916.168 218.884 915.686 218.692 915.211 218.418C914.742 218.151 914.348 217.79 914.029 217.334L914.977 216.26C915.419 216.794 915.882 217.165 916.363 217.373C916.852 217.582 917.333 217.686 917.809 217.686C918.382 217.686 918.876 217.578 919.293 217.363C919.71 217.149 920.032 216.83 920.26 216.406C920.494 215.99 920.611 215.475 920.611 214.863V206.758L920.777 204.434ZM913.502 209.834V209.629C913.502 208.822 913.596 208.089 913.785 207.432C913.98 206.768 914.257 206.198 914.615 205.723C914.98 205.248 915.419 204.883 915.934 204.629C916.448 204.369 917.027 204.238 917.672 204.238C918.336 204.238 918.915 204.356 919.41 204.59C919.911 204.818 920.335 205.153 920.68 205.596C921.031 206.032 921.308 206.559 921.51 207.178C921.712 207.796 921.852 208.496 921.93 209.278V210.176C921.858 210.951 921.718 211.647 921.51 212.266C921.308 212.884 921.031 213.412 920.68 213.848C920.335 214.284 919.911 214.619 919.41 214.854C918.909 215.082 918.323 215.195 917.652 215.195C917.021 215.195 916.448 215.062 915.934 214.795C915.426 214.528 914.99 214.154 914.625 213.672C914.26 213.19 913.98 212.624 913.785 211.973C913.596 211.315 913.502 210.602 913.502 209.834ZM915.309 209.629V209.834C915.309 210.362 915.361 210.856 915.465 211.319C915.576 211.781 915.742 212.188 915.963 212.539C916.191 212.891 916.48 213.168 916.832 213.369C917.184 213.565 917.604 213.662 918.092 213.662C918.691 213.662 919.186 213.535 919.576 213.281C919.967 213.028 920.276 212.692 920.504 212.276C920.738 211.859 920.921 211.406 921.051 210.918V208.565C920.979 208.207 920.868 207.862 920.719 207.529C920.576 207.191 920.387 206.891 920.152 206.631C919.924 206.364 919.641 206.153 919.303 205.996C918.964 205.84 918.567 205.762 918.111 205.762C917.617 205.762 917.19 205.866 916.832 206.074C916.48 206.276 916.191 206.556 915.963 206.914C915.742 207.266 915.576 207.676 915.465 208.145C915.361 208.607 915.309 209.102 915.309 209.629ZM924.684 209.834V209.61C924.684 208.848 924.794 208.141 925.016 207.49C925.237 206.833 925.556 206.263 925.973 205.781C926.389 205.293 926.894 204.916 927.486 204.649C928.079 204.375 928.743 204.238 929.479 204.238C930.221 204.238 930.888 204.375 931.48 204.649C932.079 204.916 932.587 205.293 933.004 205.781C933.427 206.263 933.749 206.833 933.971 207.49C934.192 208.141 934.303 208.848 934.303 209.61V209.834C934.303 210.596 934.192 211.302 933.971 211.953C933.749 212.604 933.427 213.174 933.004 213.662C932.587 214.144 932.083 214.522 931.49 214.795C930.904 215.062 930.24 215.195 929.498 215.195C928.756 215.195 928.089 215.062 927.496 214.795C926.904 214.522 926.396 214.144 925.973 213.662C925.556 213.174 925.237 212.604 925.016 211.953C924.794 211.302 924.684 210.596 924.684 209.834ZM926.49 209.61V209.834C926.49 210.362 926.552 210.86 926.676 211.328C926.799 211.791 926.985 212.201 927.232 212.559C927.486 212.917 927.802 213.2 928.18 213.408C928.557 213.61 928.997 213.711 929.498 213.711C929.993 213.711 930.426 213.61 930.797 213.408C931.174 213.2 931.487 212.917 931.734 212.559C931.982 212.201 932.167 211.791 932.291 211.328C932.421 210.86 932.486 210.362 932.486 209.834V209.61C932.486 209.089 932.421 208.597 932.291 208.135C932.167 207.666 931.979 207.253 931.725 206.895C931.477 206.53 931.165 206.244 930.787 206.035C930.416 205.827 929.98 205.723 929.479 205.723C928.984 205.723 928.548 205.827 928.17 206.035C927.799 206.244 927.486 206.53 927.232 206.895C926.985 207.253 926.799 207.666 926.676 208.135C926.552 208.597 926.49 209.089 926.49 209.61ZM938.375 206.094V215H936.568V204.434H938.326L938.375 206.094ZM941.676 204.375L941.666 206.055C941.516 206.022 941.373 206.003 941.236 205.996C941.106 205.983 940.956 205.977 940.787 205.977C940.37 205.977 940.003 206.042 939.684 206.172C939.365 206.302 939.094 206.485 938.873 206.719C938.652 206.953 938.476 207.233 938.346 207.559C938.222 207.878 938.141 208.229 938.102 208.613L937.594 208.906C937.594 208.268 937.656 207.669 937.779 207.11C937.91 206.55 938.108 206.055 938.375 205.625C938.642 205.189 938.98 204.85 939.391 204.61C939.807 204.362 940.302 204.238 940.875 204.238C941.005 204.238 941.155 204.255 941.324 204.287C941.493 204.313 941.611 204.343 941.676 204.375ZM946.49 213.906L949.43 204.434H951.363L947.125 216.631C947.027 216.891 946.897 217.171 946.734 217.471C946.578 217.777 946.376 218.067 946.129 218.34C945.882 218.613 945.582 218.835 945.23 219.004C944.885 219.18 944.472 219.268 943.99 219.268C943.847 219.268 943.665 219.248 943.443 219.209C943.222 219.17 943.066 219.138 942.975 219.112L942.965 217.647C943.017 217.653 943.098 217.66 943.209 217.666C943.326 217.679 943.408 217.686 943.453 217.686C943.863 217.686 944.212 217.63 944.498 217.52C944.785 217.416 945.025 217.237 945.221 216.983C945.423 216.735 945.595 216.393 945.738 215.957L946.49 213.906ZM944.332 204.434L947.076 212.637L947.545 214.541L946.246 215.205L942.359 204.434H944.332Z" fill="#686868"/>
<g clip-path="url(#clip4_17087_12988)">
<rect width="240" height="180" transform="translate(1056)" fill="#E3E3E3"/>
</g>
<path d="M1145.73 210.479H1147.61C1147.51 211.377 1147.25 212.181 1146.84 212.891C1146.42 213.6 1145.83 214.164 1145.07 214.58C1144.31 214.99 1143.36 215.195 1142.22 215.195C1141.39 215.195 1140.63 215.039 1139.94 214.727C1139.27 214.414 1138.68 213.972 1138.2 213.399C1137.71 212.819 1137.33 212.126 1137.06 211.319C1136.8 210.505 1136.67 209.6 1136.67 208.604V207.188C1136.67 206.192 1136.8 205.29 1137.06 204.483C1137.33 203.669 1137.71 202.972 1138.21 202.393C1138.71 201.813 1139.31 201.367 1140.01 201.055C1140.71 200.742 1141.51 200.586 1142.38 200.586C1143.46 200.586 1144.37 200.788 1145.11 201.192C1145.85 201.595 1146.43 202.155 1146.84 202.871C1147.25 203.581 1147.51 204.404 1147.61 205.342H1145.73C1145.64 204.678 1145.47 204.108 1145.23 203.633C1144.98 203.151 1144.63 202.78 1144.17 202.52C1143.72 202.259 1143.12 202.129 1142.38 202.129C1141.75 202.129 1141.2 202.25 1140.71 202.49C1140.24 202.731 1139.84 203.073 1139.51 203.516C1139.19 203.959 1138.95 204.489 1138.79 205.108C1138.63 205.726 1138.55 206.413 1138.55 207.168V208.604C1138.55 209.3 1138.62 209.955 1138.76 210.567C1138.91 211.179 1139.14 211.716 1139.44 212.178C1139.74 212.64 1140.12 213.005 1140.58 213.272C1141.04 213.532 1141.59 213.662 1142.22 213.662C1143.02 213.662 1143.66 213.535 1144.13 213.281C1144.61 213.028 1144.97 212.663 1145.21 212.188C1145.45 211.712 1145.63 211.143 1145.73 210.479ZM1156.13 213.194V207.754C1156.13 207.337 1156.05 206.976 1155.88 206.67C1155.72 206.358 1155.47 206.117 1155.14 205.947C1154.81 205.778 1154.4 205.694 1153.91 205.694C1153.45 205.694 1153.05 205.772 1152.71 205.928C1152.37 206.084 1152.1 206.289 1151.91 206.543C1151.72 206.797 1151.62 207.07 1151.62 207.363H1149.82C1149.82 206.986 1149.91 206.612 1150.11 206.24C1150.3 205.869 1150.58 205.534 1150.95 205.235C1151.32 204.929 1151.76 204.688 1152.28 204.512C1152.8 204.33 1153.38 204.238 1154.02 204.238C1154.78 204.238 1155.46 204.369 1156.05 204.629C1156.64 204.89 1157.1 205.283 1157.43 205.811C1157.77 206.332 1157.94 206.986 1157.94 207.774V212.695C1157.94 213.047 1157.97 213.421 1158.03 213.819C1158.09 214.216 1158.19 214.557 1158.31 214.844V215H1156.43C1156.34 214.792 1156.26 214.515 1156.21 214.17C1156.16 213.819 1156.13 213.493 1156.13 213.194ZM1156.45 208.594L1156.47 209.863H1154.64C1154.13 209.863 1153.67 209.906 1153.26 209.99C1152.86 210.069 1152.52 210.189 1152.25 210.352C1151.97 210.515 1151.77 210.72 1151.62 210.967C1151.48 211.208 1151.41 211.491 1151.41 211.817C1151.41 212.149 1151.48 212.451 1151.63 212.725C1151.78 212.998 1152.01 213.216 1152.31 213.379C1152.61 213.535 1152.99 213.613 1153.43 213.613C1153.98 213.613 1154.47 213.496 1154.89 213.262C1155.32 213.028 1155.65 212.741 1155.9 212.403C1156.15 212.064 1156.29 211.735 1156.31 211.416L1157.08 212.285C1157.04 212.559 1156.91 212.862 1156.71 213.194C1156.51 213.526 1156.24 213.845 1155.9 214.151C1155.57 214.45 1155.17 214.701 1154.71 214.903C1154.25 215.098 1153.74 215.195 1153.17 215.195C1152.45 215.195 1151.82 215.056 1151.28 214.776C1150.75 214.496 1150.33 214.121 1150.03 213.653C1149.74 213.177 1149.59 212.647 1149.59 212.061C1149.59 211.494 1149.7 210.996 1149.92 210.567C1150.15 210.13 1150.46 209.769 1150.88 209.483C1151.3 209.19 1151.8 208.968 1152.38 208.819C1152.97 208.669 1153.62 208.594 1154.35 208.594H1156.45ZM1165.21 204.434V205.82H1159.49V204.434H1165.21ZM1161.43 201.865H1163.23V212.383C1163.23 212.741 1163.29 213.011 1163.4 213.194C1163.51 213.376 1163.65 213.496 1163.83 213.555C1164.01 213.613 1164.19 213.643 1164.4 213.643C1164.55 213.643 1164.7 213.63 1164.87 213.604C1165.03 213.571 1165.16 213.545 1165.25 213.526L1165.26 215C1165.11 215.046 1164.92 215.088 1164.69 215.127C1164.46 215.173 1164.18 215.195 1163.86 215.195C1163.42 215.195 1163.01 215.108 1162.64 214.932C1162.27 214.756 1161.97 214.463 1161.75 214.053C1161.54 213.636 1161.43 213.076 1161.43 212.373V201.865ZM1171.71 215.195C1170.98 215.195 1170.31 215.072 1169.71 214.824C1169.12 214.57 1168.61 214.216 1168.18 213.76C1167.75 213.304 1167.43 212.764 1167.2 212.139C1166.97 211.514 1166.86 210.83 1166.86 210.088V209.678C1166.86 208.819 1166.98 208.054 1167.24 207.383C1167.49 206.706 1167.84 206.133 1168.27 205.664C1168.71 205.195 1169.2 204.841 1169.76 204.6C1170.31 204.359 1170.88 204.238 1171.48 204.238C1172.23 204.238 1172.88 204.369 1173.43 204.629C1173.98 204.89 1174.44 205.254 1174.79 205.723C1175.14 206.185 1175.4 206.732 1175.57 207.363C1175.74 207.988 1175.82 208.672 1175.82 209.414V210.225H1167.93V208.75H1174.02V208.613C1173.99 208.145 1173.89 207.689 1173.72 207.246C1173.56 206.804 1173.3 206.439 1172.94 206.153C1172.58 205.866 1172.1 205.723 1171.48 205.723C1171.07 205.723 1170.69 205.811 1170.34 205.987C1170 206.156 1169.7 206.41 1169.46 206.748C1169.21 207.087 1169.02 207.5 1168.88 207.988C1168.74 208.477 1168.67 209.04 1168.67 209.678V210.088C1168.67 210.589 1168.74 211.061 1168.88 211.504C1169.02 211.94 1169.23 212.324 1169.49 212.656C1169.77 212.988 1170.1 213.249 1170.48 213.438C1170.87 213.626 1171.31 213.721 1171.81 213.721C1172.45 213.721 1172.99 213.591 1173.43 213.33C1173.87 213.07 1174.26 212.722 1174.59 212.285L1175.69 213.154C1175.46 213.5 1175.17 213.828 1174.82 214.141C1174.46 214.453 1174.03 214.707 1173.52 214.903C1173.01 215.098 1172.41 215.195 1171.71 215.195ZM1184.78 204.434H1186.42V214.776C1186.42 215.707 1186.23 216.501 1185.85 217.158C1185.47 217.816 1184.95 218.314 1184.27 218.653C1183.6 218.998 1182.82 219.17 1181.95 219.17C1181.58 219.17 1181.15 219.112 1180.66 218.994C1180.17 218.884 1179.69 218.692 1179.21 218.418C1178.74 218.151 1178.35 217.79 1178.03 217.334L1178.98 216.26C1179.42 216.794 1179.88 217.165 1180.36 217.373C1180.85 217.582 1181.33 217.686 1181.81 217.686C1182.38 217.686 1182.88 217.578 1183.29 217.363C1183.71 217.149 1184.03 216.83 1184.26 216.406C1184.49 215.99 1184.61 215.475 1184.61 214.863V206.758L1184.78 204.434ZM1177.5 209.834V209.629C1177.5 208.822 1177.6 208.089 1177.79 207.432C1177.98 206.768 1178.26 206.198 1178.62 205.723C1178.98 205.248 1179.42 204.883 1179.93 204.629C1180.45 204.369 1181.03 204.238 1181.67 204.238C1182.34 204.238 1182.92 204.356 1183.41 204.59C1183.91 204.818 1184.33 205.153 1184.68 205.596C1185.03 206.032 1185.31 206.559 1185.51 207.178C1185.71 207.796 1185.85 208.496 1185.93 209.278V210.176C1185.86 210.951 1185.72 211.647 1185.51 212.266C1185.31 212.884 1185.03 213.412 1184.68 213.848C1184.33 214.284 1183.91 214.619 1183.41 214.854C1182.91 215.082 1182.32 215.195 1181.65 215.195C1181.02 215.195 1180.45 215.062 1179.93 214.795C1179.43 214.528 1178.99 214.154 1178.62 213.672C1178.26 213.19 1177.98 212.624 1177.79 211.973C1177.6 211.315 1177.5 210.602 1177.5 209.834ZM1179.31 209.629V209.834C1179.31 210.362 1179.36 210.856 1179.46 211.319C1179.58 211.781 1179.74 212.188 1179.96 212.539C1180.19 212.891 1180.48 213.168 1180.83 213.369C1181.18 213.565 1181.6 213.662 1182.09 213.662C1182.69 213.662 1183.19 213.535 1183.58 213.281C1183.97 213.028 1184.28 212.692 1184.5 212.276C1184.74 211.859 1184.92 211.406 1185.05 210.918V208.565C1184.98 208.207 1184.87 207.862 1184.72 207.529C1184.58 207.191 1184.39 206.891 1184.15 206.631C1183.92 206.364 1183.64 206.153 1183.3 205.996C1182.96 205.84 1182.57 205.762 1182.11 205.762C1181.62 205.762 1181.19 205.866 1180.83 206.074C1180.48 206.276 1180.19 206.556 1179.96 206.914C1179.74 207.266 1179.58 207.676 1179.46 208.145C1179.36 208.607 1179.31 209.102 1179.31 209.629ZM1188.68 209.834V209.61C1188.68 208.848 1188.79 208.141 1189.02 207.49C1189.24 206.833 1189.56 206.263 1189.97 205.781C1190.39 205.293 1190.89 204.916 1191.49 204.649C1192.08 204.375 1192.74 204.238 1193.48 204.238C1194.22 204.238 1194.89 204.375 1195.48 204.649C1196.08 204.916 1196.59 205.293 1197 205.781C1197.43 206.263 1197.75 206.833 1197.97 207.49C1198.19 208.141 1198.3 208.848 1198.3 209.61V209.834C1198.3 210.596 1198.19 211.302 1197.97 211.953C1197.75 212.604 1197.43 213.174 1197 213.662C1196.59 214.144 1196.08 214.522 1195.49 214.795C1194.9 215.062 1194.24 215.195 1193.5 215.195C1192.76 215.195 1192.09 215.062 1191.5 214.795C1190.9 214.522 1190.4 214.144 1189.97 213.662C1189.56 213.174 1189.24 212.604 1189.02 211.953C1188.79 211.302 1188.68 210.596 1188.68 209.834ZM1190.49 209.61V209.834C1190.49 210.362 1190.55 210.86 1190.68 211.328C1190.8 211.791 1190.99 212.201 1191.23 212.559C1191.49 212.917 1191.8 213.2 1192.18 213.408C1192.56 213.61 1193 213.711 1193.5 213.711C1193.99 213.711 1194.43 213.61 1194.8 213.408C1195.17 213.2 1195.49 212.917 1195.73 212.559C1195.98 212.201 1196.17 211.791 1196.29 211.328C1196.42 210.86 1196.49 210.362 1196.49 209.834V209.61C1196.49 209.089 1196.42 208.597 1196.29 208.135C1196.17 207.666 1195.98 207.253 1195.72 206.895C1195.48 206.53 1195.16 206.244 1194.79 206.035C1194.42 205.827 1193.98 205.723 1193.48 205.723C1192.98 205.723 1192.55 205.827 1192.17 206.035C1191.8 206.244 1191.49 206.53 1191.23 206.895C1190.99 207.253 1190.8 207.666 1190.68 208.135C1190.55 208.597 1190.49 209.089 1190.49 209.61ZM1202.38 206.094V215H1200.57V204.434H1202.33L1202.38 206.094ZM1205.68 204.375L1205.67 206.055C1205.52 206.022 1205.37 206.003 1205.24 205.996C1205.11 205.983 1204.96 205.977 1204.79 205.977C1204.37 205.977 1204 206.042 1203.68 206.172C1203.36 206.302 1203.09 206.485 1202.87 206.719C1202.65 206.953 1202.48 207.233 1202.35 207.559C1202.22 207.878 1202.14 208.229 1202.1 208.613L1201.59 208.906C1201.59 208.268 1201.66 207.669 1201.78 207.11C1201.91 206.55 1202.11 206.055 1202.38 205.625C1202.64 205.189 1202.98 204.85 1203.39 204.61C1203.81 204.362 1204.3 204.238 1204.88 204.238C1205.01 204.238 1205.15 204.255 1205.32 204.287C1205.49 204.313 1205.61 204.343 1205.68 204.375ZM1210.49 213.906L1213.43 204.434H1215.36L1211.12 216.631C1211.03 216.891 1210.9 217.171 1210.73 217.471C1210.58 217.777 1210.38 218.067 1210.13 218.34C1209.88 218.613 1209.58 218.835 1209.23 219.004C1208.89 219.18 1208.47 219.268 1207.99 219.268C1207.85 219.268 1207.66 219.248 1207.44 219.209C1207.22 219.17 1207.07 219.138 1206.97 219.112L1206.96 217.647C1207.02 217.653 1207.1 217.66 1207.21 217.666C1207.33 217.679 1207.41 217.686 1207.45 217.686C1207.86 217.686 1208.21 217.63 1208.5 217.52C1208.78 217.416 1209.03 217.237 1209.22 216.983C1209.42 216.735 1209.6 216.393 1209.74 215.957L1210.49 213.906ZM1208.33 204.434L1211.08 212.637L1211.54 214.541L1210.25 215.205L1206.36 204.434H1208.33Z" fill="#686868"/>
<defs>
<clipPath id="clip0_17087_12988">
<rect width="240" height="180" fill="white"/>
</clipPath>
<clipPath id="clip1_17087_12988">
<rect width="240" height="180" fill="white" transform="translate(264)"/>
</clipPath>
<clipPath id="clip2_17087_12988">
<rect width="240" height="180" fill="white" transform="translate(528)"/>
</clipPath>
<clipPath id="clip3_17087_12988">
<rect width="240" height="180" fill="white" transform="translate(792)"/>
</clipPath>
<clipPath id="clip4_17087_12988">
<rect width="240" height="180" fill="white" transform="translate(1056)"/>
</clipPath>
</defs>
</svg>
