<svg width="1500" height="29" viewBox="0 0 1500 29" fill="none" xmlns="http://www.w3.org/2000/svg">
<path d="M605.648 18.5352C605.648 18.2305 605.602 17.957 605.508 17.7148C605.422 17.4648 605.258 17.2383 605.016 17.0352C604.773 16.8242 604.434 16.6172 603.996 16.4141C603.559 16.2109 602.992 16 602.297 15.7812C601.523 15.5312 600.789 15.25 600.094 14.9375C599.406 14.625 598.797 14.2617 598.266 13.8477C597.742 13.4258 597.328 12.9375 597.023 12.3828C596.727 11.8281 596.578 11.1836 596.578 10.4492C596.578 9.73828 596.734 9.09375 597.047 8.51562C597.359 7.92969 597.797 7.42969 598.359 7.01562C598.922 6.59375 599.586 6.26953 600.352 6.04297C601.125 5.81641 601.973 5.70312 602.895 5.70312C604.152 5.70312 605.25 5.92969 606.188 6.38281C607.125 6.83594 607.852 7.45703 608.367 8.24609C608.891 9.03516 609.152 9.9375 609.152 10.9531H605.66C605.66 10.4531 605.555 10.0156 605.344 9.64062C605.141 9.25781 604.828 8.95703 604.406 8.73828C603.992 8.51953 603.469 8.41016 602.836 8.41016C602.227 8.41016 601.719 8.50391 601.312 8.69141C600.906 8.87109 600.602 9.11719 600.398 9.42969C600.195 9.73438 600.094 10.0781 600.094 10.4609C600.094 10.75 600.164 11.0117 600.305 11.2461C600.453 11.4805 600.672 11.6992 600.961 11.9023C601.25 12.1055 601.605 12.2969 602.027 12.4766C602.449 12.6562 602.938 12.832 603.492 13.0039C604.422 13.2852 605.238 13.6016 605.941 13.9531C606.652 14.3047 607.246 14.6992 607.723 15.1367C608.199 15.5742 608.559 16.0703 608.801 16.625C609.043 17.1797 609.164 17.8086 609.164 18.5117C609.164 19.2539 609.02 19.918 608.73 20.5039C608.441 21.0898 608.023 21.5859 607.477 21.9922C606.93 22.3984 606.277 22.707 605.52 22.918C604.762 23.1289 603.914 23.2344 602.977 23.2344C602.133 23.2344 601.301 23.125 600.48 22.9062C599.66 22.6797 598.914 22.3398 598.242 21.8867C597.578 21.4336 597.047 20.8555 596.648 20.1523C596.25 19.4492 596.051 18.6172 596.051 17.6562H599.578C599.578 18.1875 599.66 18.6367 599.824 19.0039C599.988 19.3711 600.219 19.668 600.516 19.8945C600.82 20.1211 601.18 20.2852 601.594 20.3867C602.016 20.4883 602.477 20.5391 602.977 20.5391C603.586 20.5391 604.086 20.4531 604.477 20.2812C604.875 20.1094 605.168 19.8711 605.355 19.5664C605.551 19.2617 605.648 18.918 605.648 18.5352ZM618.844 19.9648V10.3203H622.219V23H619.043L618.844 19.9648ZM619.219 17.3633L620.215 17.3398C620.215 18.1836 620.117 18.9688 619.922 19.6953C619.727 20.4141 619.434 21.0391 619.043 21.5703C618.652 22.0938 618.16 22.5039 617.566 22.8008C616.973 23.0898 616.273 23.2344 615.469 23.2344C614.852 23.2344 614.281 23.1484 613.758 22.9766C613.242 22.7969 612.797 22.5195 612.422 22.1445C612.055 21.7617 611.766 21.2734 611.555 20.6797C611.352 20.0781 611.25 19.3555 611.25 18.5117V10.3203H614.625V18.5352C614.625 18.9102 614.668 19.2266 614.754 19.4844C614.848 19.7422 614.977 19.9531 615.141 20.1172C615.305 20.2812 615.496 20.3984 615.715 20.4688C615.941 20.5391 616.191 20.5742 616.465 20.5742C617.16 20.5742 617.707 20.4336 618.105 20.1523C618.512 19.8711 618.797 19.4883 618.961 19.0039C619.133 18.5117 619.219 17.9648 619.219 17.3633ZM631.652 19.4961C631.652 19.2539 631.582 19.0352 631.441 18.8398C631.301 18.6445 631.039 18.4648 630.656 18.3008C630.281 18.1289 629.738 17.9727 629.027 17.832C628.387 17.6914 627.789 17.5156 627.234 17.3047C626.688 17.0859 626.211 16.8242 625.805 16.5195C625.406 16.2148 625.094 15.8555 624.867 15.4414C624.641 15.0195 624.527 14.5391 624.527 14C624.527 13.4688 624.641 12.9688 624.867 12.5C625.102 12.0312 625.434 11.6172 625.863 11.2578C626.301 10.8906 626.832 10.6055 627.457 10.4023C628.09 10.1914 628.801 10.0859 629.59 10.0859C630.691 10.0859 631.637 10.2617 632.426 10.6133C633.223 10.9648 633.832 11.4492 634.254 12.0664C634.684 12.6758 634.898 13.3711 634.898 14.1523H631.523C631.523 13.8242 631.453 13.5312 631.312 13.2734C631.18 13.0078 630.969 12.8008 630.68 12.6523C630.398 12.4961 630.031 12.418 629.578 12.418C629.203 12.418 628.879 12.4844 628.605 12.6172C628.332 12.7422 628.121 12.9141 627.973 13.1328C627.832 13.3438 627.762 13.5781 627.762 13.8359C627.762 14.0312 627.801 14.207 627.879 14.3633C627.965 14.5117 628.102 14.6484 628.289 14.7734C628.477 14.8984 628.719 15.0156 629.016 15.125C629.32 15.2266 629.695 15.3203 630.141 15.4062C631.055 15.5938 631.871 15.8398 632.59 16.1445C633.309 16.4414 633.879 16.8477 634.301 17.3633C634.723 17.8711 634.934 18.5391 634.934 19.3672C634.934 19.9297 634.809 20.4453 634.559 20.9141C634.309 21.3828 633.949 21.793 633.48 22.1445C633.012 22.4883 632.449 22.7578 631.793 22.9531C631.145 23.1406 630.414 23.2344 629.602 23.2344C628.422 23.2344 627.422 23.0234 626.602 22.6016C625.789 22.1797 625.172 21.6445 624.75 20.9961C624.336 20.3398 624.129 19.668 624.129 18.9805H627.328C627.344 19.4414 627.461 19.8125 627.68 20.0938C627.906 20.375 628.191 20.5781 628.535 20.7031C628.887 20.8281 629.266 20.8906 629.672 20.8906C630.109 20.8906 630.473 20.832 630.762 20.7148C631.051 20.5898 631.27 20.4258 631.418 20.2227C631.574 20.0117 631.652 19.7695 631.652 19.4961ZM640.5 12.7578V27.875H637.125V10.3203H640.254L640.5 12.7578ZM648.527 16.5195V16.7656C648.527 17.6875 648.418 18.543 648.199 19.332C647.988 20.1211 647.676 20.8086 647.262 21.3945C646.848 21.9727 646.332 22.4258 645.715 22.7539C645.105 23.0742 644.402 23.2344 643.605 23.2344C642.832 23.2344 642.16 23.0781 641.59 22.7656C641.02 22.4531 640.539 22.0156 640.148 21.4531C639.766 20.8828 639.457 20.2227 639.223 19.4727C638.988 18.7227 638.809 17.918 638.684 17.0586V16.4141C638.809 15.4922 638.988 14.6484 639.223 13.8828C639.457 13.1094 639.766 12.4414 640.148 11.8789C640.539 11.3086 641.016 10.8672 641.578 10.5547C642.148 10.2422 642.816 10.0859 643.582 10.0859C644.387 10.0859 645.094 10.2383 645.703 10.543C646.32 10.8477 646.836 11.2852 647.25 11.8555C647.672 12.4258 647.988 13.1055 648.199 13.8945C648.418 14.6836 648.527 15.5586 648.527 16.5195ZM645.141 16.7656V16.5195C645.141 15.9805 645.094 15.4844 645 15.0312C644.914 14.5703 644.773 14.168 644.578 13.8242C644.391 13.4805 644.141 13.2148 643.828 13.0273C643.523 12.832 643.152 12.7344 642.715 12.7344C642.254 12.7344 641.859 12.8086 641.531 12.957C641.211 13.1055 640.949 13.3203 640.746 13.6016C640.543 13.8828 640.391 14.2188 640.289 14.6094C640.188 15 640.125 15.4414 640.102 15.9336V17.5625C640.141 18.1406 640.25 18.6602 640.43 19.1211C640.609 19.5742 640.887 19.9336 641.262 20.1992C641.637 20.4648 642.129 20.5977 642.738 20.5977C643.184 20.5977 643.559 20.5 643.863 20.3047C644.168 20.1016 644.414 19.8242 644.602 19.4727C644.797 19.1211 644.934 18.7148 645.012 18.2539C645.098 17.793 645.141 17.2969 645.141 16.7656ZM656.461 23.2344C655.477 23.2344 654.594 23.0781 653.812 22.7656C653.031 22.4453 652.367 22.0039 651.82 21.4414C651.281 20.8789 650.867 20.2266 650.578 19.4844C650.289 18.7344 650.145 17.9375 650.145 17.0938V16.625C650.145 15.6641 650.281 14.7852 650.555 13.9883C650.828 13.1914 651.219 12.5 651.727 11.9141C652.242 11.3281 652.867 10.8789 653.602 10.5664C654.336 10.2461 655.164 10.0859 656.086 10.0859C656.984 10.0859 657.781 10.2344 658.477 10.5312C659.172 10.8281 659.754 11.25 660.223 11.7969C660.699 12.3438 661.059 13 661.301 13.7656C661.543 14.5234 661.664 15.3672 661.664 16.2969V17.7031H651.586V15.4531H658.348V15.1953C658.348 14.7266 658.262 14.3086 658.09 13.9414C657.926 13.5664 657.676 13.2695 657.34 13.0508C657.004 12.832 656.574 12.7227 656.051 12.7227C655.605 12.7227 655.223 12.8203 654.902 13.0156C654.582 13.2109 654.32 13.4844 654.117 13.8359C653.922 14.1875 653.773 14.6016 653.672 15.0781C653.578 15.5469 653.531 16.0625 653.531 16.625V17.0938C653.531 17.6016 653.602 18.0703 653.742 18.5C653.891 18.9297 654.098 19.3008 654.363 19.6133C654.637 19.9258 654.965 20.168 655.348 20.3398C655.738 20.5117 656.18 20.5977 656.672 20.5977C657.281 20.5977 657.848 20.4805 658.371 20.2461C658.902 20.0039 659.359 19.6406 659.742 19.1562L661.383 20.9375C661.117 21.3203 660.754 21.6875 660.293 22.0391C659.84 22.3906 659.293 22.6797 658.652 22.9062C658.012 23.125 657.281 23.2344 656.461 23.2344ZM666.891 13.0273V23H663.516V10.3203H666.68L666.891 13.0273ZM666.398 16.2148H665.484C665.484 15.2773 665.605 14.4336 665.848 13.6836C666.09 12.9258 666.43 12.2812 666.867 11.75C667.305 11.2109 667.824 10.8008 668.426 10.5195C669.035 10.2305 669.715 10.0859 670.465 10.0859C671.059 10.0859 671.602 10.1719 672.094 10.3438C672.586 10.5156 673.008 10.7891 673.359 11.1641C673.719 11.5391 673.992 12.0352 674.18 12.6523C674.375 13.2695 674.473 14.0234 674.473 14.9141V23H671.074V14.9023C671.074 14.3398 670.996 13.9023 670.84 13.5898C670.684 13.2773 670.453 13.0586 670.148 12.9336C669.852 12.8008 669.484 12.7344 669.047 12.7344C668.594 12.7344 668.199 12.8242 667.863 13.0039C667.535 13.1836 667.262 13.4336 667.043 13.7539C666.832 14.0664 666.672 14.4336 666.562 14.8555C666.453 15.2773 666.398 15.7305 666.398 16.2148ZM684.527 20.2344V5H687.926V23H684.867L684.527 20.2344ZM676.512 16.8125V16.5664C676.512 15.5977 676.621 14.7188 676.84 13.9297C677.059 13.1328 677.379 12.4492 677.801 11.8789C678.223 11.3086 678.742 10.8672 679.359 10.5547C679.977 10.2422 680.68 10.0859 681.469 10.0859C682.211 10.0859 682.859 10.2422 683.414 10.5547C683.977 10.8672 684.453 11.3125 684.844 11.8906C685.242 12.4609 685.562 13.1367 685.805 13.918C686.047 14.6914 686.223 15.5391 686.332 16.4609V17C686.223 17.8828 686.047 18.7031 685.805 19.4609C685.562 20.2188 685.242 20.8828 684.844 21.4531C684.453 22.0156 683.977 22.4531 683.414 22.7656C682.852 23.0781 682.195 23.2344 681.445 23.2344C680.656 23.2344 679.953 23.0742 679.336 22.7539C678.727 22.4336 678.211 21.9844 677.789 21.4062C677.375 20.8281 677.059 20.1484 676.84 19.3672C676.621 18.5859 676.512 17.7344 676.512 16.8125ZM679.887 16.5664V16.8125C679.887 17.3359 679.926 17.8242 680.004 18.2773C680.09 18.7305 680.227 19.1328 680.414 19.4844C680.609 19.8281 680.859 20.0977 681.164 20.293C681.477 20.4805 681.855 20.5742 682.301 20.5742C682.879 20.5742 683.355 20.4453 683.73 20.1875C684.105 19.9219 684.391 19.5586 684.586 19.0977C684.789 18.6367 684.906 18.1055 684.938 17.5039V15.9688C684.914 15.4766 684.844 15.0352 684.727 14.6445C684.617 14.2461 684.453 13.9062 684.234 13.625C684.023 13.3438 683.758 13.125 683.438 12.9688C683.125 12.8125 682.754 12.7344 682.324 12.7344C681.887 12.7344 681.512 12.8359 681.199 13.0391C680.887 13.2344 680.633 13.5039 680.438 13.8477C680.25 14.1914 680.109 14.5977 680.016 15.0664C679.93 15.5273 679.887 16.0273 679.887 16.5664ZM694.125 10.3203V23H690.738V10.3203H694.125ZM690.527 7.01562C690.527 6.52344 690.699 6.11719 691.043 5.79688C691.387 5.47656 691.848 5.31641 692.426 5.31641C692.996 5.31641 693.453 5.47656 693.797 5.79688C694.148 6.11719 694.324 6.52344 694.324 7.01562C694.324 7.50781 694.148 7.91406 693.797 8.23438C693.453 8.55469 692.996 8.71484 692.426 8.71484C691.848 8.71484 691.387 8.55469 691.043 8.23438C690.699 7.91406 690.527 7.50781 690.527 7.01562ZM703.77 19.4961C703.77 19.2539 703.699 19.0352 703.559 18.8398C703.418 18.6445 703.156 18.4648 702.773 18.3008C702.398 18.1289 701.855 17.9727 701.145 17.832C700.504 17.6914 699.906 17.5156 699.352 17.3047C698.805 17.0859 698.328 16.8242 697.922 16.5195C697.523 16.2148 697.211 15.8555 696.984 15.4414C696.758 15.0195 696.645 14.5391 696.645 14C696.645 13.4688 696.758 12.9688 696.984 12.5C697.219 12.0312 697.551 11.6172 697.98 11.2578C698.418 10.8906 698.949 10.6055 699.574 10.4023C700.207 10.1914 700.918 10.0859 701.707 10.0859C702.809 10.0859 703.754 10.2617 704.543 10.6133C705.34 10.9648 705.949 11.4492 706.371 12.0664C706.801 12.6758 707.016 13.3711 707.016 14.1523H703.641C703.641 13.8242 703.57 13.5312 703.43 13.2734C703.297 13.0078 703.086 12.8008 702.797 12.6523C702.516 12.4961 702.148 12.418 701.695 12.418C701.32 12.418 700.996 12.4844 700.723 12.6172C700.449 12.7422 700.238 12.9141 700.09 13.1328C699.949 13.3438 699.879 13.5781 699.879 13.8359C699.879 14.0312 699.918 14.207 699.996 14.3633C700.082 14.5117 700.219 14.6484 700.406 14.7734C700.594 14.8984 700.836 15.0156 701.133 15.125C701.438 15.2266 701.812 15.3203 702.258 15.4062C703.172 15.5938 703.988 15.8398 704.707 16.1445C705.426 16.4414 705.996 16.8477 706.418 17.3633C706.84 17.8711 707.051 18.5391 707.051 19.3672C707.051 19.9297 706.926 20.4453 706.676 20.9141C706.426 21.3828 706.066 21.793 705.598 22.1445C705.129 22.4883 704.566 22.7578 703.91 22.9531C703.262 23.1406 702.531 23.2344 701.719 23.2344C700.539 23.2344 699.539 23.0234 698.719 22.6016C697.906 22.1797 697.289 21.6445 696.867 20.9961C696.453 20.3398 696.246 19.668 696.246 18.9805H699.445C699.461 19.4414 699.578 19.8125 699.797 20.0938C700.023 20.375 700.309 20.5781 700.652 20.7031C701.004 20.8281 701.383 20.8906 701.789 20.8906C702.227 20.8906 702.59 20.832 702.879 20.7148C703.168 20.5898 703.387 20.4258 703.535 20.2227C703.691 20.0117 703.77 19.7695 703.77 19.4961ZM716.098 19.4961C716.098 19.2539 716.027 19.0352 715.887 18.8398C715.746 18.6445 715.484 18.4648 715.102 18.3008C714.727 18.1289 714.184 17.9727 713.473 17.832C712.832 17.6914 712.234 17.5156 711.68 17.3047C711.133 17.0859 710.656 16.8242 710.25 16.5195C709.852 16.2148 709.539 15.8555 709.312 15.4414C709.086 15.0195 708.973 14.5391 708.973 14C708.973 13.4688 709.086 12.9688 709.312 12.5C709.547 12.0312 709.879 11.6172 710.309 11.2578C710.746 10.8906 711.277 10.6055 711.902 10.4023C712.535 10.1914 713.246 10.0859 714.035 10.0859C715.137 10.0859 716.082 10.2617 716.871 10.6133C717.668 10.9648 718.277 11.4492 718.699 12.0664C719.129 12.6758 719.344 13.3711 719.344 14.1523H715.969C715.969 13.8242 715.898 13.5312 715.758 13.2734C715.625 13.0078 715.414 12.8008 715.125 12.6523C714.844 12.4961 714.477 12.418 714.023 12.418C713.648 12.418 713.324 12.4844 713.051 12.6172C712.777 12.7422 712.566 12.9141 712.418 13.1328C712.277 13.3438 712.207 13.5781 712.207 13.8359C712.207 14.0312 712.246 14.207 712.324 14.3633C712.41 14.5117 712.547 14.6484 712.734 14.7734C712.922 14.8984 713.164 15.0156 713.461 15.125C713.766 15.2266 714.141 15.3203 714.586 15.4062C715.5 15.5938 716.316 15.8398 717.035 16.1445C717.754 16.4414 718.324 16.8477 718.746 17.3633C719.168 17.8711 719.379 18.5391 719.379 19.3672C719.379 19.9297 719.254 20.4453 719.004 20.9141C718.754 21.3828 718.395 21.793 717.926 22.1445C717.457 22.4883 716.895 22.7578 716.238 22.9531C715.59 23.1406 714.859 23.2344 714.047 23.2344C712.867 23.2344 711.867 23.0234 711.047 22.6016C710.234 22.1797 709.617 21.6445 709.195 20.9961C708.781 20.3398 708.574 19.668 708.574 18.9805H711.773C711.789 19.4414 711.906 19.8125 712.125 20.0938C712.352 20.375 712.637 20.5781 712.98 20.7031C713.332 20.8281 713.711 20.8906 714.117 20.8906C714.555 20.8906 714.918 20.832 715.207 20.7148C715.496 20.5898 715.715 20.4258 715.863 20.2227C716.02 20.0117 716.098 19.7695 716.098 19.4961ZM727.406 23.2344C726.422 23.2344 725.539 23.0781 724.758 22.7656C723.977 22.4453 723.312 22.0039 722.766 21.4414C722.227 20.8789 721.812 20.2266 721.523 19.4844C721.234 18.7344 721.09 17.9375 721.09 17.0938V16.625C721.09 15.6641 721.227 14.7852 721.5 13.9883C721.773 13.1914 722.164 12.5 722.672 11.9141C723.188 11.3281 723.812 10.8789 724.547 10.5664C725.281 10.2461 726.109 10.0859 727.031 10.0859C727.93 10.0859 728.727 10.2344 729.422 10.5312C730.117 10.8281 730.699 11.25 731.168 11.7969C731.645 12.3438 732.004 13 732.246 13.7656C732.488 14.5234 732.609 15.3672 732.609 16.2969V17.7031H722.531V15.4531H729.293V15.1953C729.293 14.7266 729.207 14.3086 729.035 13.9414C728.871 13.5664 728.621 13.2695 728.285 13.0508C727.949 12.832 727.52 12.7227 726.996 12.7227C726.551 12.7227 726.168 12.8203 725.848 13.0156C725.527 13.2109 725.266 13.4844 725.062 13.8359C724.867 14.1875 724.719 14.6016 724.617 15.0781C724.523 15.5469 724.477 16.0625 724.477 16.625V17.0938C724.477 17.6016 724.547 18.0703 724.688 18.5C724.836 18.9297 725.043 19.3008 725.309 19.6133C725.582 19.9258 725.91 20.168 726.293 20.3398C726.684 20.5117 727.125 20.5977 727.617 20.5977C728.227 20.5977 728.793 20.4805 729.316 20.2461C729.848 20.0039 730.305 19.6406 730.688 19.1562L732.328 20.9375C732.062 21.3203 731.699 21.6875 731.238 22.0391C730.785 22.3906 730.238 22.6797 729.598 22.9062C728.957 23.125 728.227 23.2344 727.406 23.2344ZM743.883 13.0859V23H740.508V10.3203H743.684L743.883 13.0859ZM747.703 10.2383L747.645 13.3672C747.48 13.3438 747.281 13.3242 747.047 13.3086C746.82 13.2852 746.613 13.2734 746.426 13.2734C745.949 13.2734 745.535 13.3359 745.184 13.4609C744.84 13.5781 744.551 13.7539 744.316 13.9883C744.09 14.2227 743.918 14.5078 743.801 14.8438C743.691 15.1797 743.629 15.5625 743.613 15.9922L742.934 15.7812C742.934 14.9609 743.016 14.207 743.18 13.5195C743.344 12.8242 743.582 12.2188 743.895 11.7031C744.215 11.1875 744.605 10.7891 745.066 10.5078C745.527 10.2266 746.055 10.0859 746.648 10.0859C746.836 10.0859 747.027 10.1016 747.223 10.1328C747.418 10.1562 747.578 10.1914 747.703 10.2383ZM756.797 19.9648V10.3203H760.172V23H756.996L756.797 19.9648ZM757.172 17.3633L758.168 17.3398C758.168 18.1836 758.07 18.9688 757.875 19.6953C757.68 20.4141 757.387 21.0391 756.996 21.5703C756.605 22.0938 756.113 22.5039 755.52 22.8008C754.926 23.0898 754.227 23.2344 753.422 23.2344C752.805 23.2344 752.234 23.1484 751.711 22.9766C751.195 22.7969 750.75 22.5195 750.375 22.1445C750.008 21.7617 749.719 21.2734 749.508 20.6797C749.305 20.0781 749.203 19.3555 749.203 18.5117V10.3203H752.578V18.5352C752.578 18.9102 752.621 19.2266 752.707 19.4844C752.801 19.7422 752.93 19.9531 753.094 20.1172C753.258 20.2812 753.449 20.3984 753.668 20.4688C753.895 20.5391 754.145 20.5742 754.418 20.5742C755.113 20.5742 755.66 20.4336 756.059 20.1523C756.465 19.8711 756.75 19.4883 756.914 19.0039C757.086 18.5117 757.172 17.9648 757.172 17.3633ZM768.961 10.3203V12.7109H761.578V10.3203H768.961ZM763.406 7.19141H766.781V19.1797C766.781 19.5469 766.828 19.8281 766.922 20.0234C767.023 20.2188 767.172 20.3555 767.367 20.4336C767.562 20.5039 767.809 20.5391 768.105 20.5391C768.316 20.5391 768.504 20.5312 768.668 20.5156C768.84 20.4922 768.984 20.4688 769.102 20.4453L769.113 22.9297C768.824 23.0234 768.512 23.0977 768.176 23.1523C767.84 23.207 767.469 23.2344 767.062 23.2344C766.32 23.2344 765.672 23.1133 765.117 22.8711C764.57 22.6211 764.148 22.2227 763.852 21.6758C763.555 21.1289 763.406 20.4102 763.406 19.5195V7.19141ZM774.258 13.0859V23H770.883V10.3203H774.059L774.258 13.0859ZM778.078 10.2383L778.02 13.3672C777.855 13.3438 777.656 13.3242 777.422 13.3086C777.195 13.2852 776.988 13.2734 776.801 13.2734C776.324 13.2734 775.91 13.3359 775.559 13.4609C775.215 13.5781 774.926 13.7539 774.691 13.9883C774.465 14.2227 774.293 14.5078 774.176 14.8438C774.066 15.1797 774.004 15.5625 773.988 15.9922L773.309 15.7812C773.309 14.9609 773.391 14.207 773.555 13.5195C773.719 12.8242 773.957 12.2188 774.27 11.7031C774.59 11.1875 774.98 10.7891 775.441 10.5078C775.902 10.2266 776.43 10.0859 777.023 10.0859C777.211 10.0859 777.402 10.1016 777.598 10.1328C777.793 10.1562 777.953 10.1914 778.078 10.2383ZM787.172 19.9648V10.3203H790.547V23H787.371L787.172 19.9648ZM787.547 17.3633L788.543 17.3398C788.543 18.1836 788.445 18.9688 788.25 19.6953C788.055 20.4141 787.762 21.0391 787.371 21.5703C786.98 22.0938 786.488 22.5039 785.895 22.8008C785.301 23.0898 784.602 23.2344 783.797 23.2344C783.18 23.2344 782.609 23.1484 782.086 22.9766C781.57 22.7969 781.125 22.5195 780.75 22.1445C780.383 21.7617 780.094 21.2734 779.883 20.6797C779.68 20.0781 779.578 19.3555 779.578 18.5117V10.3203H782.953V18.5352C782.953 18.9102 782.996 19.2266 783.082 19.4844C783.176 19.7422 783.305 19.9531 783.469 20.1172C783.633 20.2812 783.824 20.3984 784.043 20.4688C784.27 20.5391 784.52 20.5742 784.793 20.5742C785.488 20.5742 786.035 20.4336 786.434 20.1523C786.84 19.8711 787.125 19.4883 787.289 19.0039C787.461 18.5117 787.547 17.9648 787.547 17.3633ZM796.5 12.9453V23H793.113V10.3203H796.289L796.5 12.9453ZM796.031 16.2148H795.094C795.094 15.332 795.199 14.5195 795.41 13.7773C795.629 13.0273 795.945 12.3789 796.359 11.832C796.781 11.2773 797.301 10.8477 797.918 10.543C798.535 10.2383 799.25 10.0859 800.062 10.0859C800.625 10.0859 801.141 10.1719 801.609 10.3438C802.078 10.5078 802.48 10.7695 802.816 11.1289C803.16 11.4805 803.426 11.9414 803.613 12.5117C803.801 13.0742 803.895 13.75 803.895 14.5391V23H800.52V14.9141C800.52 14.3359 800.441 13.8906 800.285 13.5781C800.129 13.2656 799.906 13.0469 799.617 12.9219C799.336 12.7969 798.996 12.7344 798.598 12.7344C798.16 12.7344 797.777 12.8242 797.449 13.0039C797.129 13.1836 796.863 13.4336 796.652 13.7539C796.441 14.0664 796.285 14.4336 796.184 14.8555C796.082 15.2773 796.031 15.7305 796.031 16.2148ZM803.578 15.8281L802.371 15.9805C802.371 15.1523 802.473 14.3828 802.676 13.6719C802.887 12.9609 803.195 12.3359 803.602 11.7969C804.016 11.2578 804.527 10.8398 805.137 10.543C805.746 10.2383 806.449 10.0859 807.246 10.0859C807.855 10.0859 808.41 10.1758 808.91 10.3555C809.41 10.5273 809.836 10.8047 810.188 11.1875C810.547 11.5625 810.82 12.0547 811.008 12.6641C811.203 13.2734 811.301 14.0195 811.301 14.9023V23H807.914V14.9023C807.914 14.3164 807.836 13.8711 807.68 13.5664C807.531 13.2539 807.312 13.0391 807.023 12.9219C806.742 12.7969 806.406 12.7344 806.016 12.7344C805.609 12.7344 805.254 12.8164 804.949 12.9805C804.645 13.1367 804.391 13.3555 804.188 13.6367C803.984 13.918 803.832 14.2461 803.73 14.6211C803.629 14.9883 803.578 15.3906 803.578 15.8281ZM826.734 20.1406V14.4922C826.734 14.0859 826.668 13.7383 826.535 13.4492C826.402 13.1523 826.195 12.9219 825.914 12.7578C825.641 12.5938 825.285 12.5117 824.848 12.5117C824.473 12.5117 824.148 12.5781 823.875 12.7109C823.602 12.8359 823.391 13.0195 823.242 13.2617C823.094 13.4961 823.02 13.7734 823.02 14.0938H819.645C819.645 13.5547 819.77 13.043 820.02 12.5586C820.27 12.0742 820.633 11.6484 821.109 11.2812C821.586 10.9062 822.152 10.6133 822.809 10.4023C823.473 10.1914 824.215 10.0859 825.035 10.0859C826.02 10.0859 826.895 10.25 827.66 10.5781C828.426 10.9062 829.027 11.3984 829.465 12.0547C829.91 12.7109 830.133 13.5312 830.133 14.5156V19.9414C830.133 20.6367 830.176 21.207 830.262 21.6523C830.348 22.0898 830.473 22.4727 830.637 22.8008V23H827.227C827.062 22.6562 826.938 22.2266 826.852 21.7109C826.773 21.1875 826.734 20.6641 826.734 20.1406ZM827.18 15.2773L827.203 17.1875H825.316C824.871 17.1875 824.484 17.2383 824.156 17.3398C823.828 17.4414 823.559 17.5859 823.348 17.7734C823.137 17.9531 822.98 18.1641 822.879 18.4062C822.785 18.6484 822.738 18.9141 822.738 19.2031C822.738 19.4922 822.805 19.7539 822.938 19.9883C823.07 20.2148 823.262 20.3945 823.512 20.5273C823.762 20.6523 824.055 20.7148 824.391 20.7148C824.898 20.7148 825.34 20.6133 825.715 20.4102C826.09 20.207 826.379 19.957 826.582 19.6602C826.793 19.3633 826.902 19.082 826.91 18.8164L827.801 20.2461C827.676 20.5664 827.504 20.8984 827.285 21.2422C827.074 21.5859 826.805 21.9102 826.477 22.2148C826.148 22.5117 825.754 22.7578 825.293 22.9531C824.832 23.1406 824.285 23.2344 823.652 23.2344C822.848 23.2344 822.117 23.0742 821.461 22.7539C820.812 22.4258 820.297 21.9766 819.914 21.4062C819.539 20.8281 819.352 20.1719 819.352 19.4375C819.352 18.7734 819.477 18.1836 819.727 17.668C819.977 17.1523 820.344 16.7188 820.828 16.3672C821.32 16.0078 821.934 15.7383 822.668 15.5586C823.402 15.3711 824.254 15.2773 825.223 15.2773H827.18ZM836.297 5V23H832.91V5H836.297ZM842.648 10.3203V23H839.262V10.3203H842.648ZM839.051 7.01562C839.051 6.52344 839.223 6.11719 839.566 5.79688C839.91 5.47656 840.371 5.31641 840.949 5.31641C841.52 5.31641 841.977 5.47656 842.32 5.79688C842.672 6.11719 842.848 6.52344 842.848 7.01562C842.848 7.50781 842.672 7.91406 842.32 8.23438C841.977 8.55469 841.52 8.71484 840.949 8.71484C840.371 8.71484 839.91 8.55469 839.566 8.23438C839.223 7.91406 839.051 7.50781 839.051 7.01562ZM852.926 27.875V12.9102L853.359 10.3203H856.324V27.875H852.926ZM844.91 16.7891V16.543C844.91 15.5742 845.016 14.6953 845.227 13.9062C845.445 13.1094 845.766 12.4297 846.188 11.8672C846.609 11.2969 847.125 10.8594 847.734 10.5547C848.352 10.2422 849.062 10.0859 849.867 10.0859C850.641 10.0859 851.309 10.2422 851.871 10.5547C852.434 10.8672 852.906 11.3086 853.289 11.8789C853.68 12.4492 853.992 13.1211 854.227 13.8945C854.461 14.668 854.641 15.5156 854.766 16.4375V16.9766C854.648 17.8594 854.469 18.6797 854.227 19.4375C853.992 20.1953 853.68 20.8594 853.289 21.4297C852.906 22 852.43 22.4453 851.859 22.7656C851.297 23.0781 850.625 23.2344 849.844 23.2344C849.055 23.2344 848.352 23.0742 847.734 22.7539C847.125 22.4258 846.609 21.9727 846.188 21.3945C845.766 20.8164 845.445 20.1367 845.227 19.3555C845.016 18.5664 844.91 17.7109 844.91 16.7891ZM848.285 16.543V16.7891C848.285 17.3125 848.328 17.8047 848.414 18.2656C848.5 18.7188 848.637 19.1211 848.824 19.4727C849.02 19.8242 849.27 20.1016 849.574 20.3047C849.879 20.5 850.254 20.5977 850.699 20.5977C851.316 20.5977 851.812 20.4648 852.188 20.1992C852.57 19.9258 852.852 19.5547 853.031 19.0859C853.219 18.6172 853.328 18.082 853.359 17.4805V15.9453C853.336 15.4531 853.27 15.0117 853.16 14.6211C853.059 14.2227 852.902 13.8828 852.691 13.6016C852.488 13.3203 852.223 13.1055 851.895 12.957C851.574 12.8008 851.184 12.7227 850.723 12.7227C850.285 12.7227 849.91 12.8203 849.598 13.0156C849.285 13.2109 849.031 13.4844 848.836 13.8359C848.648 14.1797 848.508 14.582 848.414 15.043C848.328 15.5039 848.285 16.0039 848.285 16.543ZM866.484 19.9648V10.3203H869.859V23H866.684L866.484 19.9648ZM866.859 17.3633L867.855 17.3398C867.855 18.1836 867.758 18.9688 867.562 19.6953C867.367 20.4141 867.074 21.0391 866.684 21.5703C866.293 22.0938 865.801 22.5039 865.207 22.8008C864.613 23.0898 863.914 23.2344 863.109 23.2344C862.492 23.2344 861.922 23.1484 861.398 22.9766C860.883 22.7969 860.438 22.5195 860.062 22.1445C859.695 21.7617 859.406 21.2734 859.195 20.6797C858.992 20.0781 858.891 19.3555 858.891 18.5117V10.3203H862.266V18.5352C862.266 18.9102 862.309 19.2266 862.395 19.4844C862.488 19.7422 862.617 19.9531 862.781 20.1172C862.945 20.2812 863.137 20.3984 863.355 20.4688C863.582 20.5391 863.832 20.5742 864.105 20.5742C864.801 20.5742 865.348 20.4336 865.746 20.1523C866.152 19.8711 866.438 19.4883 866.602 19.0039C866.773 18.5117 866.859 17.9648 866.859 17.3633ZM879.281 20.1406V14.4922C879.281 14.0859 879.215 13.7383 879.082 13.4492C878.949 13.1523 878.742 12.9219 878.461 12.7578C878.188 12.5938 877.832 12.5117 877.395 12.5117C877.02 12.5117 876.695 12.5781 876.422 12.7109C876.148 12.8359 875.938 13.0195 875.789 13.2617C875.641 13.4961 875.566 13.7734 875.566 14.0938H872.191C872.191 13.5547 872.316 13.043 872.566 12.5586C872.816 12.0742 873.18 11.6484 873.656 11.2812C874.133 10.9062 874.699 10.6133 875.355 10.4023C876.02 10.1914 876.762 10.0859 877.582 10.0859C878.566 10.0859 879.441 10.25 880.207 10.5781C880.973 10.9062 881.574 11.3984 882.012 12.0547C882.457 12.7109 882.68 13.5312 882.68 14.5156V19.9414C882.68 20.6367 882.723 21.207 882.809 21.6523C882.895 22.0898 883.02 22.4727 883.184 22.8008V23H879.773C879.609 22.6562 879.484 22.2266 879.398 21.7109C879.32 21.1875 879.281 20.6641 879.281 20.1406ZM879.727 15.2773L879.75 17.1875H877.863C877.418 17.1875 877.031 17.2383 876.703 17.3398C876.375 17.4414 876.105 17.5859 875.895 17.7734C875.684 17.9531 875.527 18.1641 875.426 18.4062C875.332 18.6484 875.285 18.9141 875.285 19.2031C875.285 19.4922 875.352 19.7539 875.484 19.9883C875.617 20.2148 875.809 20.3945 876.059 20.5273C876.309 20.6523 876.602 20.7148 876.938 20.7148C877.445 20.7148 877.887 20.6133 878.262 20.4102C878.637 20.207 878.926 19.957 879.129 19.6602C879.34 19.3633 879.449 19.082 879.457 18.8164L880.348 20.2461C880.223 20.5664 880.051 20.8984 879.832 21.2422C879.621 21.5859 879.352 21.9102 879.023 22.2148C878.695 22.5117 878.301 22.7578 877.84 22.9531C877.379 23.1406 876.832 23.2344 876.199 23.2344C875.395 23.2344 874.664 23.0742 874.008 22.7539C873.359 22.4258 872.844 21.9766 872.461 21.4062C872.086 20.8281 871.898 20.1719 871.898 19.4375C871.898 18.7734 872.023 18.1836 872.273 17.668C872.523 17.1523 872.891 16.7188 873.375 16.3672C873.867 16.0078 874.48 15.7383 875.215 15.5586C875.949 15.3711 876.801 15.2773 877.77 15.2773H879.727ZM888.656 12.9453V23H885.27V10.3203H888.445L888.656 12.9453ZM888.188 16.2148H887.25C887.25 15.332 887.355 14.5195 887.566 13.7773C887.785 13.0273 888.102 12.3789 888.516 11.832C888.938 11.2773 889.457 10.8477 890.074 10.543C890.691 10.2383 891.406 10.0859 892.219 10.0859C892.781 10.0859 893.297 10.1719 893.766 10.3438C894.234 10.5078 894.637 10.7695 894.973 11.1289C895.316 11.4805 895.582 11.9414 895.77 12.5117C895.957 13.0742 896.051 13.75 896.051 14.5391V23H892.676V14.9141C892.676 14.3359 892.598 13.8906 892.441 13.5781C892.285 13.2656 892.062 13.0469 891.773 12.9219C891.492 12.7969 891.152 12.7344 890.754 12.7344C890.316 12.7344 889.934 12.8242 889.605 13.0039C889.285 13.1836 889.02 13.4336 888.809 13.7539C888.598 14.0664 888.441 14.4336 888.34 14.8555C888.238 15.2773 888.188 15.7305 888.188 16.2148ZM895.734 15.8281L894.527 15.9805C894.527 15.1523 894.629 14.3828 894.832 13.6719C895.043 12.9609 895.352 12.3359 895.758 11.7969C896.172 11.2578 896.684 10.8398 897.293 10.543C897.902 10.2383 898.605 10.0859 899.402 10.0859C900.012 10.0859 900.566 10.1758 901.066 10.3555C901.566 10.5273 901.992 10.8047 902.344 11.1875C902.703 11.5625 902.977 12.0547 903.164 12.6641C903.359 13.2734 903.457 14.0195 903.457 14.9023V23H900.07V14.9023C900.07 14.3164 899.992 13.8711 899.836 13.5664C899.688 13.2539 899.469 13.0391 899.18 12.9219C898.898 12.7969 898.562 12.7344 898.172 12.7344C897.766 12.7344 897.41 12.8164 897.105 12.9805C896.801 13.1367 896.547 13.3555 896.344 13.6367C896.141 13.918 895.988 14.2461 895.887 14.6211C895.785 14.9883 895.734 15.3906 895.734 15.8281Z" fill="#1C1C1C"/>
</svg>
