<svg width="360" height="24" viewBox="0 0 360 24" fill="none" xmlns="http://www.w3.org/2000/svg">
<path d="M59.707 15.2793C59.707 15.0254 59.668 14.7975 59.5898 14.5957C59.5182 14.3874 59.3815 14.1986 59.1797 14.0293C58.9779 13.8535 58.6947 13.681 58.3301 13.5117C57.9655 13.3424 57.4935 13.1667 56.9141 12.9844C56.2695 12.776 55.6576 12.5417 55.0781 12.2812C54.5052 12.0208 53.9974 11.7181 53.5547 11.373C53.1185 11.0215 52.7734 10.6146 52.5195 10.1523C52.2721 9.6901 52.1484 9.15299 52.1484 8.54102C52.1484 7.94857 52.2786 7.41146 52.5391 6.92969C52.7995 6.44141 53.1641 6.02474 53.6328 5.67969C54.1016 5.32812 54.6549 5.05794 55.293 4.86914C55.9375 4.68034 56.6439 4.58594 57.4121 4.58594C58.4603 4.58594 59.375 4.77474 60.1562 5.15234C60.9375 5.52995 61.543 6.04753 61.9727 6.70508C62.4089 7.36263 62.627 8.11458 62.627 8.96094H59.7168C59.7168 8.54427 59.6289 8.17969 59.4531 7.86719C59.2839 7.54818 59.0234 7.29753 58.6719 7.11523C58.3268 6.93294 57.8906 6.8418 57.3633 6.8418C56.8555 6.8418 56.4323 6.91992 56.0938 7.07617C55.7552 7.22591 55.5013 7.43099 55.332 7.69141C55.1628 7.94531 55.0781 8.23177 55.0781 8.55078C55.0781 8.79167 55.1367 9.00977 55.2539 9.20508C55.3776 9.40039 55.5599 9.58268 55.8008 9.75195C56.0417 9.92122 56.3379 10.0807 56.6895 10.2305C57.041 10.3802 57.4479 10.5267 57.9102 10.6699C58.6849 10.9043 59.3652 11.168 59.9512 11.4609C60.5436 11.7539 61.0384 12.0827 61.4355 12.4473C61.8327 12.8118 62.1322 13.2253 62.334 13.6875C62.5358 14.1497 62.6367 14.6738 62.6367 15.2598C62.6367 15.8783 62.5163 16.4316 62.2754 16.9199C62.0345 17.4082 61.6862 17.8216 61.2305 18.1602C60.7747 18.4987 60.2311 18.7559 59.5996 18.9316C58.9681 19.1074 58.2617 19.1953 57.4805 19.1953C56.7773 19.1953 56.084 19.1042 55.4004 18.9219C54.7168 18.7331 54.0951 18.4499 53.5352 18.0723C52.9818 17.6947 52.5391 17.2129 52.207 16.627C51.875 16.041 51.709 15.3477 51.709 14.5469H54.6484C54.6484 14.9896 54.7168 15.3639 54.8535 15.6699C54.9902 15.9759 55.1823 16.2233 55.4297 16.4121C55.6836 16.6009 55.9831 16.7376 56.3281 16.8223C56.6797 16.9069 57.0638 16.9492 57.4805 16.9492C57.9883 16.9492 58.4049 16.8776 58.7305 16.7344C59.0625 16.5911 59.3066 16.3926 59.4629 16.1387C59.6257 15.8848 59.707 15.5983 59.707 15.2793ZM70.7031 16.4707V8.43359H73.5156V19H70.8691L70.7031 16.4707ZM71.0156 14.3027L71.8457 14.2832C71.8457 14.9863 71.7643 15.6406 71.6016 16.2461C71.4388 16.8451 71.1947 17.3659 70.8691 17.8086C70.5436 18.2448 70.1335 18.5866 69.6387 18.834C69.1439 19.0749 68.5612 19.1953 67.8906 19.1953C67.3763 19.1953 66.901 19.1237 66.4648 18.9805C66.0352 18.8307 65.6641 18.5996 65.3516 18.2871C65.0456 17.9681 64.8047 17.5612 64.6289 17.0664C64.4596 16.5651 64.375 15.9629 64.375 15.2598V8.43359H67.1875V15.2793C67.1875 15.5918 67.2233 15.8555 67.2949 16.0703C67.373 16.2852 67.4805 16.4609 67.6172 16.5977C67.7539 16.7344 67.9134 16.832 68.0957 16.8906C68.2845 16.9492 68.4928 16.9785 68.7207 16.9785C69.3001 16.9785 69.7559 16.8613 70.0879 16.627C70.4264 16.3926 70.6641 16.0736 70.8008 15.6699C70.944 15.2598 71.0156 14.804 71.0156 14.3027ZM81.377 16.0801C81.377 15.8783 81.3184 15.696 81.2012 15.5332C81.084 15.3704 80.8659 15.2207 80.5469 15.084C80.2344 14.9408 79.7819 14.8105 79.1895 14.6934C78.6556 14.5762 78.1576 14.4297 77.6953 14.2539C77.2396 14.0716 76.8424 13.8535 76.5039 13.5996C76.1719 13.3457 75.9115 13.0462 75.7227 12.7012C75.5339 12.3496 75.4395 11.9492 75.4395 11.5C75.4395 11.0573 75.5339 10.6406 75.7227 10.25C75.918 9.85938 76.1947 9.51432 76.5527 9.21484C76.9173 8.90885 77.36 8.67122 77.8809 8.50195C78.4082 8.32617 79.0007 8.23828 79.6582 8.23828C80.5762 8.23828 81.3639 8.38477 82.0215 8.67773C82.6855 8.9707 83.1934 9.37435 83.5449 9.88867C83.903 10.3965 84.082 10.9759 84.082 11.627H81.2695C81.2695 11.3535 81.2109 11.1094 81.0938 10.8945C80.9831 10.6732 80.8073 10.5007 80.5664 10.377C80.332 10.2467 80.026 10.1816 79.6484 10.1816C79.3359 10.1816 79.0658 10.237 78.8379 10.3477C78.61 10.4518 78.4342 10.5951 78.3105 10.7773C78.1934 10.9531 78.1348 11.1484 78.1348 11.3633C78.1348 11.526 78.1673 11.6725 78.2324 11.8027C78.304 11.9264 78.418 12.0404 78.5742 12.1445C78.7305 12.2487 78.9323 12.3464 79.1797 12.4375C79.4336 12.5221 79.7461 12.6003 80.1172 12.6719C80.8789 12.8281 81.5592 13.0332 82.1582 13.2871C82.7572 13.5345 83.2324 13.873 83.584 14.3027C83.9355 14.7259 84.1113 15.2826 84.1113 15.9727C84.1113 16.4414 84.0072 16.8711 83.7988 17.2617C83.5905 17.6523 83.291 17.9941 82.9004 18.2871C82.5098 18.5736 82.041 18.7982 81.4941 18.9609C80.9538 19.1172 80.3451 19.1953 79.668 19.1953C78.6849 19.1953 77.8516 19.0195 77.168 18.668C76.4909 18.3164 75.9766 17.8704 75.625 17.3301C75.2799 16.7832 75.1074 16.2233 75.1074 15.6504H77.7734C77.7865 16.0345 77.8841 16.3438 78.0664 16.5781C78.2552 16.8125 78.4928 16.9818 78.7793 17.0859C79.0723 17.1901 79.388 17.2422 79.7266 17.2422C80.0911 17.2422 80.3939 17.1934 80.6348 17.0957C80.8757 16.9915 81.0579 16.8548 81.1816 16.6855C81.3118 16.5098 81.377 16.3079 81.377 16.0801ZM88.75 10.4648V23.0625H85.9375V8.43359H88.5449L88.75 10.4648ZM95.4395 13.5996V13.8047C95.4395 14.5729 95.3483 15.2858 95.166 15.9434C94.9902 16.6009 94.7298 17.1738 94.3848 17.6621C94.0397 18.1439 93.61 18.5215 93.0957 18.7949C92.5879 19.0618 92.002 19.1953 91.3379 19.1953C90.6934 19.1953 90.1335 19.0651 89.6582 18.8047C89.1829 18.5443 88.7826 18.1797 88.457 17.7109C88.138 17.2357 87.8809 16.6855 87.6855 16.0605C87.4902 15.4355 87.3405 14.765 87.2363 14.0488V13.5117C87.3405 12.7435 87.4902 12.0404 87.6855 11.4023C87.8809 10.7578 88.138 10.2012 88.457 9.73242C88.7826 9.25716 89.1797 8.88932 89.6484 8.62891C90.1237 8.36849 90.6803 8.23828 91.3184 8.23828C91.9889 8.23828 92.5781 8.36523 93.0859 8.61914C93.6003 8.87305 94.0299 9.23763 94.375 9.71289C94.7266 10.1882 94.9902 10.7546 95.166 11.4121C95.3483 12.0697 95.4395 12.7988 95.4395 13.5996ZM92.6172 13.8047V13.5996C92.6172 13.1504 92.5781 12.737 92.5 12.3594C92.4284 11.9753 92.3112 11.64 92.1484 11.3535C91.9922 11.0671 91.7839 10.8457 91.5234 10.6895C91.2695 10.5267 90.9603 10.4453 90.5957 10.4453C90.2116 10.4453 89.8828 10.5072 89.6094 10.6309C89.3424 10.7546 89.1243 10.9336 88.9551 11.168C88.7858 11.4023 88.6589 11.6823 88.5742 12.0078C88.4896 12.3333 88.4375 12.7012 88.418 13.1113V14.4688C88.4505 14.9505 88.5417 15.3835 88.6914 15.7676C88.8411 16.1452 89.0723 16.4447 89.3848 16.666C89.6973 16.8874 90.1074 16.998 90.6152 16.998C90.9863 16.998 91.2988 16.9167 91.5527 16.7539C91.8066 16.5846 92.0117 16.3535 92.168 16.0605C92.3307 15.7676 92.4447 15.429 92.5098 15.0449C92.5814 14.6608 92.6172 14.2474 92.6172 13.8047ZM102.051 19.1953C101.23 19.1953 100.495 19.0651 99.8438 18.8047C99.1927 18.5378 98.6393 18.1699 98.1836 17.7012C97.7344 17.2324 97.3893 16.6888 97.1484 16.0703C96.9076 15.4453 96.7871 14.7812 96.7871 14.0781V13.6875C96.7871 12.8867 96.901 12.1543 97.1289 11.4902C97.3568 10.8262 97.6823 10.25 98.1055 9.76172C98.5352 9.27344 99.056 8.89909 99.668 8.63867C100.28 8.37174 100.97 8.23828 101.738 8.23828C102.487 8.23828 103.151 8.36198 103.73 8.60938C104.31 8.85677 104.795 9.20833 105.186 9.66406C105.583 10.1198 105.882 10.6667 106.084 11.3047C106.286 11.9362 106.387 12.6393 106.387 13.4141V14.5859H97.9883V12.7109H103.623V12.4961C103.623 12.1055 103.551 11.7572 103.408 11.4512C103.271 11.1387 103.063 10.8913 102.783 10.709C102.503 10.5267 102.145 10.4355 101.709 10.4355C101.338 10.4355 101.019 10.5169 100.752 10.6797C100.485 10.8424 100.267 11.0703 100.098 11.3633C99.9349 11.6562 99.8112 12.0013 99.7266 12.3984C99.6484 12.7891 99.6094 13.2188 99.6094 13.6875V14.0781C99.6094 14.5013 99.668 14.8919 99.7852 15.25C99.9089 15.6081 100.081 15.9173 100.303 16.1777C100.531 16.4382 100.804 16.64 101.123 16.7832C101.449 16.9264 101.816 16.998 102.227 16.998C102.734 16.998 103.206 16.9004 103.643 16.7051C104.085 16.5033 104.466 16.2005 104.785 15.7969L106.152 17.2812C105.931 17.6003 105.628 17.9062 105.244 18.1992C104.867 18.4922 104.411 18.7331 103.877 18.9219C103.343 19.1042 102.734 19.1953 102.051 19.1953ZM110.742 10.6895V19H107.93V8.43359H110.566L110.742 10.6895ZM110.332 13.3457H109.57C109.57 12.5645 109.671 11.8613 109.873 11.2363C110.075 10.6048 110.358 10.0677 110.723 9.625C111.087 9.17578 111.52 8.83398 112.021 8.59961C112.529 8.35872 113.096 8.23828 113.721 8.23828C114.215 8.23828 114.668 8.3099 115.078 8.45312C115.488 8.59635 115.84 8.82422 116.133 9.13672C116.432 9.44922 116.66 9.86263 116.816 10.377C116.979 10.8913 117.061 11.5195 117.061 12.2617V19H114.229V12.252C114.229 11.7832 114.163 11.4186 114.033 11.1582C113.903 10.8978 113.711 10.7155 113.457 10.6113C113.21 10.5007 112.904 10.4453 112.539 10.4453C112.161 10.4453 111.833 10.5202 111.553 10.6699C111.279 10.8197 111.051 11.028 110.869 11.2949C110.693 11.5553 110.56 11.8613 110.469 12.2129C110.378 12.5645 110.332 12.9421 110.332 13.3457ZM125.439 16.6953V4H128.271V19H125.723L125.439 16.6953ZM118.76 13.8438V13.6387C118.76 12.8314 118.851 12.099 119.033 11.4414C119.215 10.7773 119.482 10.2077 119.834 9.73242C120.186 9.25716 120.618 8.88932 121.133 8.62891C121.647 8.36849 122.233 8.23828 122.891 8.23828C123.509 8.23828 124.049 8.36849 124.512 8.62891C124.98 8.88932 125.378 9.26042 125.703 9.74219C126.035 10.2174 126.302 10.7806 126.504 11.4316C126.706 12.0762 126.852 12.7826 126.943 13.5508V14C126.852 14.7357 126.706 15.4193 126.504 16.0508C126.302 16.6823 126.035 17.2357 125.703 17.7109C125.378 18.1797 124.98 18.5443 124.512 18.8047C124.043 19.0651 123.496 19.1953 122.871 19.1953C122.214 19.1953 121.628 19.0618 121.113 18.7949C120.605 18.528 120.176 18.1536 119.824 17.6719C119.479 17.1901 119.215 16.6237 119.033 15.9727C118.851 15.3216 118.76 14.612 118.76 13.8438ZM121.572 13.6387V13.8438C121.572 14.2799 121.605 14.6868 121.67 15.0645C121.742 15.4421 121.855 15.7773 122.012 16.0703C122.174 16.3568 122.383 16.5814 122.637 16.7441C122.897 16.9004 123.213 16.9785 123.584 16.9785C124.066 16.9785 124.463 16.8711 124.775 16.6562C125.088 16.4349 125.326 16.1322 125.488 15.748C125.658 15.3639 125.755 14.9212 125.781 14.4199V13.1406C125.762 12.7305 125.703 12.3626 125.605 12.0371C125.514 11.7051 125.378 11.4219 125.195 11.1875C125.02 10.9531 124.798 10.7708 124.531 10.6406C124.271 10.5104 123.962 10.4453 123.604 10.4453C123.239 10.4453 122.926 10.5299 122.666 10.6992C122.406 10.862 122.194 11.0866 122.031 11.373C121.875 11.6595 121.758 11.998 121.68 12.3887C121.608 12.7728 121.572 13.1895 121.572 13.6387ZM133.438 8.43359V19H130.615V8.43359H133.438ZM130.439 5.67969C130.439 5.26953 130.583 4.93099 130.869 4.66406C131.156 4.39714 131.54 4.26367 132.021 4.26367C132.497 4.26367 132.878 4.39714 133.164 4.66406C133.457 4.93099 133.604 5.26953 133.604 5.67969C133.604 6.08984 133.457 6.42839 133.164 6.69531C132.878 6.96224 132.497 7.0957 132.021 7.0957C131.54 7.0957 131.156 6.96224 130.869 6.69531C130.583 6.42839 130.439 6.08984 130.439 5.67969ZM141.475 16.0801C141.475 15.8783 141.416 15.696 141.299 15.5332C141.182 15.3704 140.964 15.2207 140.645 15.084C140.332 14.9408 139.88 14.8105 139.287 14.6934C138.753 14.5762 138.255 14.4297 137.793 14.2539C137.337 14.0716 136.94 13.8535 136.602 13.5996C136.27 13.3457 136.009 13.0462 135.82 12.7012C135.632 12.3496 135.537 11.9492 135.537 11.5C135.537 11.0573 135.632 10.6406 135.82 10.25C136.016 9.85938 136.292 9.51432 136.65 9.21484C137.015 8.90885 137.458 8.67122 137.979 8.50195C138.506 8.32617 139.098 8.23828 139.756 8.23828C140.674 8.23828 141.462 8.38477 142.119 8.67773C142.783 8.9707 143.291 9.37435 143.643 9.88867C144.001 10.3965 144.18 10.9759 144.18 11.627H141.367C141.367 11.3535 141.309 11.1094 141.191 10.8945C141.081 10.6732 140.905 10.5007 140.664 10.377C140.43 10.2467 140.124 10.1816 139.746 10.1816C139.434 10.1816 139.163 10.237 138.936 10.3477C138.708 10.4518 138.532 10.5951 138.408 10.7773C138.291 10.9531 138.232 11.1484 138.232 11.3633C138.232 11.526 138.265 11.6725 138.33 11.8027C138.402 11.9264 138.516 12.0404 138.672 12.1445C138.828 12.2487 139.03 12.3464 139.277 12.4375C139.531 12.5221 139.844 12.6003 140.215 12.6719C140.977 12.8281 141.657 13.0332 142.256 13.2871C142.855 13.5345 143.33 13.873 143.682 14.3027C144.033 14.7259 144.209 15.2826 144.209 15.9727C144.209 16.4414 144.105 16.8711 143.896 17.2617C143.688 17.6523 143.389 17.9941 142.998 18.2871C142.607 18.5736 142.139 18.7982 141.592 18.9609C141.051 19.1172 140.443 19.1953 139.766 19.1953C138.783 19.1953 137.949 19.0195 137.266 18.668C136.589 18.3164 136.074 17.8704 135.723 17.3301C135.378 16.7832 135.205 16.2233 135.205 15.6504H137.871C137.884 16.0345 137.982 16.3438 138.164 16.5781C138.353 16.8125 138.59 16.9818 138.877 17.0859C139.17 17.1901 139.486 17.2422 139.824 17.2422C140.189 17.2422 140.492 17.1934 140.732 17.0957C140.973 16.9915 141.156 16.8548 141.279 16.6855C141.41 16.5098 141.475 16.3079 141.475 16.0801ZM151.748 16.0801C151.748 15.8783 151.689 15.696 151.572 15.5332C151.455 15.3704 151.237 15.2207 150.918 15.084C150.605 14.9408 150.153 14.8105 149.561 14.6934C149.027 14.5762 148.529 14.4297 148.066 14.2539C147.611 14.0716 147.214 13.8535 146.875 13.5996C146.543 13.3457 146.283 13.0462 146.094 12.7012C145.905 12.3496 145.811 11.9492 145.811 11.5C145.811 11.0573 145.905 10.6406 146.094 10.25C146.289 9.85938 146.566 9.51432 146.924 9.21484C147.288 8.90885 147.731 8.67122 148.252 8.50195C148.779 8.32617 149.372 8.23828 150.029 8.23828C150.947 8.23828 151.735 8.38477 152.393 8.67773C153.057 8.9707 153.564 9.37435 153.916 9.88867C154.274 10.3965 154.453 10.9759 154.453 11.627H151.641C151.641 11.3535 151.582 11.1094 151.465 10.8945C151.354 10.6732 151.178 10.5007 150.938 10.377C150.703 10.2467 150.397 10.1816 150.02 10.1816C149.707 10.1816 149.437 10.237 149.209 10.3477C148.981 10.4518 148.805 10.5951 148.682 10.7773C148.564 10.9531 148.506 11.1484 148.506 11.3633C148.506 11.526 148.538 11.6725 148.604 11.8027C148.675 11.9264 148.789 12.0404 148.945 12.1445C149.102 12.2487 149.303 12.3464 149.551 12.4375C149.805 12.5221 150.117 12.6003 150.488 12.6719C151.25 12.8281 151.93 13.0332 152.529 13.2871C153.128 13.5345 153.604 13.873 153.955 14.3027C154.307 14.7259 154.482 15.2826 154.482 15.9727C154.482 16.4414 154.378 16.8711 154.17 17.2617C153.962 17.6523 153.662 17.9941 153.271 18.2871C152.881 18.5736 152.412 18.7982 151.865 18.9609C151.325 19.1172 150.716 19.1953 150.039 19.1953C149.056 19.1953 148.223 19.0195 147.539 18.668C146.862 18.3164 146.348 17.8704 145.996 17.3301C145.651 16.7832 145.479 16.2233 145.479 15.6504H148.145C148.158 16.0345 148.255 16.3438 148.438 16.5781C148.626 16.8125 148.864 16.9818 149.15 17.0859C149.443 17.1901 149.759 17.2422 150.098 17.2422C150.462 17.2422 150.765 17.1934 151.006 17.0957C151.247 16.9915 151.429 16.8548 151.553 16.6855C151.683 16.5098 151.748 16.3079 151.748 16.0801ZM161.172 19.1953C160.352 19.1953 159.616 19.0651 158.965 18.8047C158.314 18.5378 157.76 18.1699 157.305 17.7012C156.855 17.2324 156.51 16.6888 156.27 16.0703C156.029 15.4453 155.908 14.7812 155.908 14.0781V13.6875C155.908 12.8867 156.022 12.1543 156.25 11.4902C156.478 10.8262 156.803 10.25 157.227 9.76172C157.656 9.27344 158.177 8.89909 158.789 8.63867C159.401 8.37174 160.091 8.23828 160.859 8.23828C161.608 8.23828 162.272 8.36198 162.852 8.60938C163.431 8.85677 163.916 9.20833 164.307 9.66406C164.704 10.1198 165.003 10.6667 165.205 11.3047C165.407 11.9362 165.508 12.6393 165.508 13.4141V14.5859H157.109V12.7109H162.744V12.4961C162.744 12.1055 162.673 11.7572 162.529 11.4512C162.393 11.1387 162.184 10.8913 161.904 10.709C161.624 10.5267 161.266 10.4355 160.83 10.4355C160.459 10.4355 160.14 10.5169 159.873 10.6797C159.606 10.8424 159.388 11.0703 159.219 11.3633C159.056 11.6562 158.932 12.0013 158.848 12.3984C158.77 12.7891 158.73 13.2188 158.73 13.6875V14.0781C158.73 14.5013 158.789 14.8919 158.906 15.25C159.03 15.6081 159.202 15.9173 159.424 16.1777C159.652 16.4382 159.925 16.64 160.244 16.7832C160.57 16.9264 160.938 16.998 161.348 16.998C161.855 16.998 162.327 16.9004 162.764 16.7051C163.206 16.5033 163.587 16.2005 163.906 15.7969L165.273 17.2812C165.052 17.6003 164.749 17.9062 164.365 18.1992C163.988 18.4922 163.532 18.7331 162.998 18.9219C162.464 19.1042 161.855 19.1953 161.172 19.1953ZM174.902 10.7383V19H172.09V8.43359H174.736L174.902 10.7383ZM178.086 8.36523L178.037 10.9727C177.9 10.9531 177.734 10.9368 177.539 10.9238C177.35 10.9043 177.178 10.8945 177.021 10.8945C176.624 10.8945 176.279 10.9466 175.986 11.0508C175.7 11.1484 175.459 11.2949 175.264 11.4902C175.075 11.6855 174.932 11.9232 174.834 12.2031C174.743 12.4831 174.691 12.8021 174.678 13.1602L174.111 12.9844C174.111 12.3008 174.18 11.6725 174.316 11.0996C174.453 10.5202 174.652 10.0156 174.912 9.58594C175.179 9.15625 175.505 8.82422 175.889 8.58984C176.273 8.35547 176.712 8.23828 177.207 8.23828C177.363 8.23828 177.523 8.2513 177.686 8.27734C177.848 8.29688 177.982 8.32617 178.086 8.36523ZM185.664 16.4707V8.43359H188.477V19H185.83L185.664 16.4707ZM185.977 14.3027L186.807 14.2832C186.807 14.9863 186.725 15.6406 186.562 16.2461C186.4 16.8451 186.156 17.3659 185.83 17.8086C185.505 18.2448 185.094 18.5866 184.6 18.834C184.105 19.0749 183.522 19.1953 182.852 19.1953C182.337 19.1953 181.862 19.1237 181.426 18.9805C180.996 18.8307 180.625 18.5996 180.312 18.2871C180.007 17.9681 179.766 17.5612 179.59 17.0664C179.421 16.5651 179.336 15.9629 179.336 15.2598V8.43359H182.148V15.2793C182.148 15.5918 182.184 15.8555 182.256 16.0703C182.334 16.2852 182.441 16.4609 182.578 16.5977C182.715 16.7344 182.874 16.832 183.057 16.8906C183.245 16.9492 183.454 16.9785 183.682 16.9785C184.261 16.9785 184.717 16.8613 185.049 16.627C185.387 16.3926 185.625 16.0736 185.762 15.6699C185.905 15.2598 185.977 14.804 185.977 14.3027ZM195.801 8.43359V10.4258H189.648V8.43359H195.801ZM191.172 5.82617H193.984V15.8164C193.984 16.1224 194.023 16.3568 194.102 16.5195C194.186 16.6823 194.31 16.7962 194.473 16.8613C194.635 16.9199 194.84 16.9492 195.088 16.9492C195.264 16.9492 195.42 16.9427 195.557 16.9297C195.7 16.9102 195.82 16.8906 195.918 16.8711L195.928 18.9414C195.687 19.0195 195.426 19.0814 195.146 19.127C194.867 19.1725 194.557 19.1953 194.219 19.1953C193.6 19.1953 193.06 19.0944 192.598 18.8926C192.142 18.6842 191.79 18.3522 191.543 17.8965C191.296 17.4408 191.172 16.8418 191.172 16.0996V5.82617ZM200.215 10.7383V19H197.402V8.43359H200.049L200.215 10.7383ZM203.398 8.36523L203.35 10.9727C203.213 10.9531 203.047 10.9368 202.852 10.9238C202.663 10.9043 202.49 10.8945 202.334 10.8945C201.937 10.8945 201.592 10.9466 201.299 11.0508C201.012 11.1484 200.771 11.2949 200.576 11.4902C200.387 11.6855 200.244 11.9232 200.146 12.2031C200.055 12.4831 200.003 12.8021 199.99 13.1602L199.424 12.9844C199.424 12.3008 199.492 11.6725 199.629 11.0996C199.766 10.5202 199.964 10.0156 200.225 9.58594C200.492 9.15625 200.817 8.82422 201.201 8.58984C201.585 8.35547 202.025 8.23828 202.52 8.23828C202.676 8.23828 202.835 8.2513 202.998 8.27734C203.161 8.29688 203.294 8.32617 203.398 8.36523ZM210.977 16.4707V8.43359H213.789V19H211.143L210.977 16.4707ZM211.289 14.3027L212.119 14.2832C212.119 14.9863 212.038 15.6406 211.875 16.2461C211.712 16.8451 211.468 17.3659 211.143 17.8086C210.817 18.2448 210.407 18.5866 209.912 18.834C209.417 19.0749 208.835 19.1953 208.164 19.1953C207.65 19.1953 207.174 19.1237 206.738 18.9805C206.309 18.8307 205.938 18.5996 205.625 18.2871C205.319 17.9681 205.078 17.5612 204.902 17.0664C204.733 16.5651 204.648 15.9629 204.648 15.2598V8.43359H207.461V15.2793C207.461 15.5918 207.497 15.8555 207.568 16.0703C207.646 16.2852 207.754 16.4609 207.891 16.5977C208.027 16.7344 208.187 16.832 208.369 16.8906C208.558 16.9492 208.766 16.9785 208.994 16.9785C209.574 16.9785 210.029 16.8613 210.361 16.627C210.7 16.3926 210.938 16.0736 211.074 15.6699C211.217 15.2598 211.289 14.804 211.289 14.3027ZM218.75 10.6211V19H215.928V8.43359H218.574L218.75 10.6211ZM218.359 13.3457H217.578C217.578 12.61 217.666 11.9329 217.842 11.3145C218.024 10.6895 218.288 10.1491 218.633 9.69336C218.984 9.23112 219.417 8.87305 219.932 8.61914C220.446 8.36523 221.042 8.23828 221.719 8.23828C222.188 8.23828 222.617 8.3099 223.008 8.45312C223.398 8.58984 223.734 8.80794 224.014 9.10742C224.3 9.40039 224.521 9.78451 224.678 10.2598C224.834 10.7285 224.912 11.2917 224.912 11.9492V19H222.1V12.2617C222.1 11.7799 222.035 11.4089 221.904 11.1484C221.774 10.888 221.589 10.7057 221.348 10.6016C221.113 10.4974 220.83 10.4453 220.498 10.4453C220.133 10.4453 219.814 10.5202 219.541 10.6699C219.274 10.8197 219.053 11.028 218.877 11.2949C218.701 11.5553 218.571 11.8613 218.486 12.2129C218.402 12.5645 218.359 12.9421 218.359 13.3457ZM224.648 13.0234L223.643 13.1504C223.643 12.4603 223.727 11.819 223.896 11.2266C224.072 10.6341 224.329 10.1133 224.668 9.66406C225.013 9.21484 225.439 8.86654 225.947 8.61914C226.455 8.36523 227.041 8.23828 227.705 8.23828C228.213 8.23828 228.675 8.31315 229.092 8.46289C229.508 8.60612 229.863 8.83724 230.156 9.15625C230.456 9.46875 230.684 9.87891 230.84 10.3867C231.003 10.8945 231.084 11.5163 231.084 12.252V19H228.262V12.252C228.262 11.7637 228.197 11.3926 228.066 11.1387C227.943 10.8783 227.76 10.6992 227.52 10.6016C227.285 10.4974 227.005 10.4453 226.68 10.4453C226.341 10.4453 226.045 10.5137 225.791 10.6504C225.537 10.7806 225.326 10.9629 225.156 11.1973C224.987 11.4316 224.86 11.7051 224.775 12.0176C224.691 12.3236 224.648 12.6589 224.648 13.0234ZM243.945 16.6172V11.9102C243.945 11.5716 243.89 11.2819 243.779 11.041C243.669 10.7936 243.496 10.6016 243.262 10.4648C243.034 10.3281 242.738 10.2598 242.373 10.2598C242.061 10.2598 241.79 10.3151 241.562 10.4258C241.335 10.5299 241.159 10.6829 241.035 10.8848C240.911 11.0801 240.85 11.3112 240.85 11.5781H238.037C238.037 11.1289 238.141 10.7025 238.35 10.2988C238.558 9.89518 238.861 9.54036 239.258 9.23438C239.655 8.92188 240.127 8.67773 240.674 8.50195C241.227 8.32617 241.846 8.23828 242.529 8.23828C243.35 8.23828 244.079 8.375 244.717 8.64844C245.355 8.92188 245.856 9.33203 246.221 9.87891C246.592 10.4258 246.777 11.1094 246.777 11.9297V16.4512C246.777 17.0306 246.813 17.5059 246.885 17.877C246.956 18.2415 247.061 18.5605 247.197 18.834V19H244.355C244.219 18.7135 244.115 18.3555 244.043 17.9258C243.978 17.4896 243.945 17.0534 243.945 16.6172ZM244.316 12.5645L244.336 14.1562H242.764C242.393 14.1562 242.07 14.1986 241.797 14.2832C241.523 14.3678 241.299 14.4883 241.123 14.6445C240.947 14.7943 240.817 14.9701 240.732 15.1719C240.654 15.3737 240.615 15.5951 240.615 15.8359C240.615 16.0768 240.671 16.2949 240.781 16.4902C240.892 16.679 241.051 16.8288 241.26 16.9395C241.468 17.0436 241.712 17.0957 241.992 17.0957C242.415 17.0957 242.783 17.0111 243.096 16.8418C243.408 16.6725 243.649 16.4642 243.818 16.2168C243.994 15.9694 244.085 15.735 244.092 15.5137L244.834 16.7051C244.73 16.972 244.587 17.2487 244.404 17.5352C244.229 17.8216 244.004 18.0918 243.73 18.3457C243.457 18.5931 243.128 18.7982 242.744 18.9609C242.36 19.1172 241.904 19.1953 241.377 19.1953C240.706 19.1953 240.098 19.0618 239.551 18.7949C239.01 18.5215 238.581 18.1471 238.262 17.6719C237.949 17.1901 237.793 16.6432 237.793 16.0312C237.793 15.4779 237.897 14.9863 238.105 14.5566C238.314 14.127 238.62 13.7656 239.023 13.4727C239.434 13.1732 239.945 12.9486 240.557 12.7988C241.169 12.6426 241.878 12.5645 242.686 12.5645H244.316ZM251.914 4V19H249.092V4H251.914ZM257.207 8.43359V19H254.385V8.43359H257.207ZM254.209 5.67969C254.209 5.26953 254.352 4.93099 254.639 4.66406C254.925 4.39714 255.309 4.26367 255.791 4.26367C256.266 4.26367 256.647 4.39714 256.934 4.66406C257.227 4.93099 257.373 5.26953 257.373 5.67969C257.373 6.08984 257.227 6.42839 256.934 6.69531C256.647 6.96224 256.266 7.0957 255.791 7.0957C255.309 7.0957 254.925 6.96224 254.639 6.69531C254.352 6.42839 254.209 6.08984 254.209 5.67969ZM265.771 23.0625V10.5918L266.133 8.43359H268.604V23.0625H265.771ZM259.092 13.8242V13.6191C259.092 12.8118 259.18 12.0794 259.355 11.4219C259.538 10.7578 259.805 10.1914 260.156 9.72266C260.508 9.2474 260.938 8.88281 261.445 8.62891C261.96 8.36849 262.552 8.23828 263.223 8.23828C263.867 8.23828 264.424 8.36849 264.893 8.62891C265.361 8.88932 265.755 9.25716 266.074 9.73242C266.4 10.2077 266.66 10.7676 266.855 11.4121C267.051 12.0566 267.201 12.763 267.305 13.5312V13.9805C267.207 14.7161 267.057 15.3997 266.855 16.0312C266.66 16.6628 266.4 17.2161 266.074 17.6914C265.755 18.1667 265.358 18.5378 264.883 18.8047C264.414 19.0651 263.854 19.1953 263.203 19.1953C262.546 19.1953 261.96 19.0618 261.445 18.7949C260.938 18.5215 260.508 18.1439 260.156 17.6621C259.805 17.1803 259.538 16.6139 259.355 15.9629C259.18 15.3053 259.092 14.5924 259.092 13.8242ZM261.904 13.6191V13.8242C261.904 14.2604 261.94 14.6706 262.012 15.0547C262.083 15.4323 262.197 15.7676 262.354 16.0605C262.516 16.3535 262.725 16.5846 262.979 16.7539C263.232 16.9167 263.545 16.998 263.916 16.998C264.43 16.998 264.844 16.8874 265.156 16.666C265.475 16.4382 265.71 16.1289 265.859 15.7383C266.016 15.3477 266.107 14.9017 266.133 14.4004V13.1211C266.113 12.7109 266.058 12.3431 265.967 12.0176C265.882 11.6855 265.752 11.4023 265.576 11.168C265.407 10.9336 265.186 10.7546 264.912 10.6309C264.645 10.5007 264.32 10.4355 263.936 10.4355C263.571 10.4355 263.258 10.5169 262.998 10.6797C262.738 10.8424 262.526 11.0703 262.363 11.3633C262.207 11.6497 262.09 11.985 262.012 12.3691C261.94 12.7533 261.904 13.1699 261.904 13.6191ZM277.07 16.4707V8.43359H279.883V19H277.236L277.07 16.4707ZM277.383 14.3027L278.213 14.2832C278.213 14.9863 278.132 15.6406 277.969 16.2461C277.806 16.8451 277.562 17.3659 277.236 17.8086C276.911 18.2448 276.501 18.5866 276.006 18.834C275.511 19.0749 274.928 19.1953 274.258 19.1953C273.743 19.1953 273.268 19.1237 272.832 18.9805C272.402 18.8307 272.031 18.5996 271.719 18.2871C271.413 17.9681 271.172 17.5612 270.996 17.0664C270.827 16.5651 270.742 15.9629 270.742 15.2598V8.43359H273.555V15.2793C273.555 15.5918 273.59 15.8555 273.662 16.0703C273.74 16.2852 273.848 16.4609 273.984 16.5977C274.121 16.7344 274.281 16.832 274.463 16.8906C274.652 16.9492 274.86 16.9785 275.088 16.9785C275.667 16.9785 276.123 16.8613 276.455 16.627C276.794 16.3926 277.031 16.0736 277.168 15.6699C277.311 15.2598 277.383 14.804 277.383 14.3027ZM287.734 16.6172V11.9102C287.734 11.5716 287.679 11.2819 287.568 11.041C287.458 10.7936 287.285 10.6016 287.051 10.4648C286.823 10.3281 286.527 10.2598 286.162 10.2598C285.85 10.2598 285.579 10.3151 285.352 10.4258C285.124 10.5299 284.948 10.6829 284.824 10.8848C284.701 11.0801 284.639 11.3112 284.639 11.5781H281.826C281.826 11.1289 281.93 10.7025 282.139 10.2988C282.347 9.89518 282.65 9.54036 283.047 9.23438C283.444 8.92188 283.916 8.67773 284.463 8.50195C285.016 8.32617 285.635 8.23828 286.318 8.23828C287.139 8.23828 287.868 8.375 288.506 8.64844C289.144 8.92188 289.645 9.33203 290.01 9.87891C290.381 10.4258 290.566 11.1094 290.566 11.9297V16.4512C290.566 17.0306 290.602 17.5059 290.674 17.877C290.745 18.2415 290.85 18.5605 290.986 18.834V19H288.145C288.008 18.7135 287.904 18.3555 287.832 17.9258C287.767 17.4896 287.734 17.0534 287.734 16.6172ZM288.105 12.5645L288.125 14.1562H286.553C286.182 14.1562 285.859 14.1986 285.586 14.2832C285.312 14.3678 285.088 14.4883 284.912 14.6445C284.736 14.7943 284.606 14.9701 284.521 15.1719C284.443 15.3737 284.404 15.5951 284.404 15.8359C284.404 16.0768 284.46 16.2949 284.57 16.4902C284.681 16.679 284.84 16.8288 285.049 16.9395C285.257 17.0436 285.501 17.0957 285.781 17.0957C286.204 17.0957 286.572 17.0111 286.885 16.8418C287.197 16.6725 287.438 16.4642 287.607 16.2168C287.783 15.9694 287.874 15.735 287.881 15.5137L288.623 16.7051C288.519 16.972 288.376 17.2487 288.193 17.5352C288.018 17.8216 287.793 18.0918 287.52 18.3457C287.246 18.5931 286.917 18.7982 286.533 18.9609C286.149 19.1172 285.693 19.1953 285.166 19.1953C284.495 19.1953 283.887 19.0618 283.34 18.7949C282.799 18.5215 282.37 18.1471 282.051 17.6719C281.738 17.1901 281.582 16.6432 281.582 16.0312C281.582 15.4779 281.686 14.9863 281.895 14.5566C282.103 14.127 282.409 13.7656 282.812 13.4727C283.223 13.1732 283.734 12.9486 284.346 12.7988C284.958 12.6426 285.667 12.5645 286.475 12.5645H288.105ZM295.547 10.6211V19H292.725V8.43359H295.371L295.547 10.6211ZM295.156 13.3457H294.375C294.375 12.61 294.463 11.9329 294.639 11.3145C294.821 10.6895 295.085 10.1491 295.43 9.69336C295.781 9.23112 296.214 8.87305 296.729 8.61914C297.243 8.36523 297.839 8.23828 298.516 8.23828C298.984 8.23828 299.414 8.3099 299.805 8.45312C300.195 8.58984 300.531 8.80794 300.811 9.10742C301.097 9.40039 301.318 9.78451 301.475 10.2598C301.631 10.7285 301.709 11.2917 301.709 11.9492V19H298.896V12.2617C298.896 11.7799 298.831 11.4089 298.701 11.1484C298.571 10.888 298.385 10.7057 298.145 10.6016C297.91 10.4974 297.627 10.4453 297.295 10.4453C296.93 10.4453 296.611 10.5202 296.338 10.6699C296.071 10.8197 295.85 11.028 295.674 11.2949C295.498 11.5553 295.368 11.8613 295.283 12.2129C295.199 12.5645 295.156 12.9421 295.156 13.3457ZM301.445 13.0234L300.439 13.1504C300.439 12.4603 300.524 11.819 300.693 11.2266C300.869 10.6341 301.126 10.1133 301.465 9.66406C301.81 9.21484 302.236 8.86654 302.744 8.61914C303.252 8.36523 303.838 8.23828 304.502 8.23828C305.01 8.23828 305.472 8.31315 305.889 8.46289C306.305 8.60612 306.66 8.83724 306.953 9.15625C307.253 9.46875 307.48 9.87891 307.637 10.3867C307.799 10.8945 307.881 11.5163 307.881 12.252V19H305.059V12.252C305.059 11.7637 304.993 11.3926 304.863 11.1387C304.74 10.8783 304.557 10.6992 304.316 10.6016C304.082 10.4974 303.802 10.4453 303.477 10.4453C303.138 10.4453 302.842 10.5137 302.588 10.6504C302.334 10.7806 302.122 10.9629 301.953 11.1973C301.784 11.4316 301.657 11.7051 301.572 12.0176C301.488 12.3236 301.445 12.6589 301.445 13.0234Z" fill="#1C1C1C"/>
</svg>
